<?xml version="1.0" encoding="UTF-8"?><svg id="Calque_1" xmlns="http://www.w3.org/2000/svg" viewBox="0 0 433.14 170.09"><defs><style>.cls-1{fill:#000;stroke-width:0px;}</style></defs><path class="cls-1" d="M130.11,13.56c-29.73,6.53-58.07,20.16-83.41,36.51-10.47,6.76-20.71,13.86-28.88,23.41-2.63,3.07-4.93,6.54-6.81,10.12-3.81,7.29-2.42,14.06,3.02,20.07,4.48,4.95,10.21,8.11,16.1,11.01,18.52,9.13,38.24,14.75,58.15,19.86,65.65,16.87,132.42,25.12,200.12,26.14,26.75.41,53.38-.86,79.53-7.27,14.95-3.66,29.63-8.03,42.84-16.27,1.61-1.01,3.21-2.07,4.7-3.25,8.92-7.04,10.75-14.73,5.83-25-4.17-8.72-10.97-15.26-18.16-21.46-18.51-15.98-40.16-25.98-63.23-33.25-7.09-2.24-14.34-3.98-21.51-5.96-2.27-.63-4.56-1.22-6.81-1.94-3.64-1.18-5.07-2.97-4.51-5.46.54-2.43,2.81-3.47,6.43-2.92.99.15,1.97.32,2.95.53,23.65,5.09,46.51,12.57,67.61,24.52,14.58,8.26,28.05,18.19,38.78,31.34,3.87,4.75,6.91,9.94,8.78,15.86,3.52,11.16.8,20.6-7.58,28.5-6.57,6.2-14.52,10.27-22.72,13.74-17.85,7.56-36.58,12.02-55.73,14.52-38.84,5.07-77.74,3.21-116.6.16-62.08-4.87-128.12-11.99-185.87-36.87-9.73-4.19-20.23-7.49-28.84-13.93C6.54,110.5.39,101.8.02,92.14c-.45-11.81,7.55-22.22,16.12-30.36,13.8-13.12,30.08-23.39,46.94-32.25C91.5,14.6,122.29,3.35,154.28.57c16.4-1.42,33.45-.49,48.39,6.42,3.53,1.64,7,3.66,9.47,6.67s3.82,7.16,2.69,10.89c-1.48,4.88-6.57,7.67-11.4,9.32-8.76,2.98-18.22,3.87-27.38,2.58-1.33-.19-2.76-.48-3.65-1.48-1.63-1.82-.37-4.95,1.78-6.12s4.73-1.01,7.17-.95c6.8.16,13.62-.73,20.16-2.63,1.92-.56,4.15-1.62,4.29-3.61.12-1.68-1.37-2.99-2.77-3.92-9.63-6.4-21.63-8.1-33.19-8.3-13.42-.23-26.7,1.27-39.72,4.12Z"/></svg>