<?xml version="1.0" encoding="UTF-8"?><svg id="Calque_1" xmlns="http://www.w3.org/2000/svg" viewBox="0 0 525.08 350.48"><defs><style>.cls-1{fill:#000;stroke-width:0px;}</style></defs><path class="cls-1" d="M525.08,319.4c-1.19-2.73-2.38-5.47-3.64-8.35-.52.03-1.05.01-1.55.11-11.01,2.05-20.1-1.93-28.22-8.98-.96-.83-1.81-1.8-2.8-2.59-1.41-1.14-2.8-.96-3.47.75-3.54,9.04-8.96,16.77-16.5,23.63,1.15.16,1.92.13,2.58.38,2.25.87,4.77,1.43,6.61,2.86,3.84,2.98,3.12,8.32-.95,10.92-3.6,2.3-7.46,3.27-11.64,3.03-3.34-.19-6.72-.41-9.99-1.04-1.79-.34-3.92-1.17-4.98-2.51-1.54-1.94-2.87-1.79-4.84-1.19-10.29,3.1-20.6,2.88-30.85-.25-1.38-.42-2.03-.08-3.22.76-2.28,1.62-4.97,2.97-7.69,3.59-3.05.7-6.31.54-9.49.64-4.16.12-7.82-1.39-11.14-3.76-3.14-2.24-3.33-7.69.07-10.14,2.45-1.76,5.58-2.59,8.45-3.86-1.25-1.49-2.79-3.3-5.7-3.8-3.37-.58-6.75-1.51-9.91-2.8-4.03-1.64-4.26-3.76-2-7.36.9-1.43,1.28-3.66.91-5.29-.71-3.09-1.65-6.25-5.73-7.03-1.49-.29-3.06-1.78-3.95-3.15-1.15-1.77-2.54-1.91-4.33-2-4.61-.23-9.22-.85-13.83-.93-4.51-.08-9.03.37-13.55.46-5.15.11-10.3.04-15.44.18-.75.02-1.88.64-2.15,1.27-1.56,3.67-3.19,7.36-4.19,11.19-.43,1.66.12,3.99,1.06,5.49,1.99,3.18,1.87,5.35-1.66,6.93-6.57,2.95-13.39,4.39-20.67,2.83-2.57-.55-5.3-.34-8.38-.5.59,6.53.69,12.41,4.93,17.2,1.46,1.65,1.07,3.32-1.21,3.89-3.23.81-6.59,1.11-9.89,1.63-7.48,1.18-14.87,1.11-21.9-2.08-1.19-.54-2.36-1.68-2.97-2.84-2.53-4.76-2.33-9.97-1.94-15.33h-5.26c-.91,4.97-1.58,9.77-2.78,14.44-.35,1.34-2.08,2.67-3.49,3.32-6.76,3.1-13.9,3.05-21.11,2.03-2.87-.41-5.78-.58-8.62-1.12-4-.76-4.45-2.29-2.03-5.4,2.98-3.84,3.22-8.55,3.88-12.34-4.27-3-8.23-5.62-12-8.5-1.24-.95-2.18-1.07-3.65-.79-11.64,2.23-23.32,4.33-34.98,6.47-1.75.32-3.5.68-5.47,1.06.17,1.77.31,3.25.45,4.72,1.8.19,3.34.24,4.83.54,3.74.74,6.4,3.24,6.54,6.01.13,2.58-2.9,7.07-5.86,7.49-4.27.61-8.68.87-12.96.51-3.73-.31-4.55-2-4.5-5.83.06-4.16.01-8.32.01-12.5-10.64-.4-20.57-.77-30.74-1.14,0,4.29-.28,8.35.07,12.36.45,5.11-.43,6.73-5.47,7.38-4.56.59-9.07.64-12.96-2.53-2.46-2-3.85-4.42-3.09-7.6.75-3.17,3.12-5.22,6.12-5.45,3.12-.24,3.27-1.75,2.92-4.71-4.27-.81-8.78-1.54-13.23-2.52-11.4-2.52-22.85-4.9-34.14-7.87-3.61-.95-6.76-3.6-10.37-5.61-1.3,1.81-2.83,1.27-4.22-.8-1.91-2.86-3.83-5.71-5.72-8.53.11-.13-.19.32-.59.67-1.72,1.51-3.25,1.01-3.65-1.29-.82-4.8.07-9.23,3.22-13.04,1.12-1.35,1.46-2.59-.06-4.5-1.89,1.17-4.08,2.12-5.76,3.64-7.55,6.85-11.53,15.46-11.93,25.66-.25,6.43-.32,12.88-.6,19.31-.09,2.08.7,3.32,2.39,4.44,1.57,1.03,3.39,2.23,4.15,3.81.85,1.78,1.23,4.27.66,6.07-.34,1.07-2.91,1.47-4.52,2.07-.48.18-1.08.03-1.83.03-.12.65-.01,1.53-.4,1.96-1.39,1.54-2.74,3.6-4.51,4.15-1.31.41-3.86-.78-4.81-2.04-3.19-4.19-4.7-8.91-1.44-13.85,1.64-2.48,2.15-5.11,2.03-8-.23-5.34-.59-10.7-.47-16.03.2-8.36.52-16.92,4.91-24.28,4.14-6.94,9.25-13.3,17.35-16.19,4.62-1.64,9.18-1.91,13.1.62,5.42-2.87,10.55-5.58,15.67-8.29-.13-.24-.26-.47-.39-.71-2.74.11-4.79,1.61-6.83,3.32-.78.65-2.04.74-3.08,1.09-.34-1.06-1.17-2.25-.93-3.15.56-2.04,1.28-4.24,2.58-5.84,3.14-3.86,6.65-7.42,10.03-11.07,1.08-1.17,2.29-1.12,3.26.12,2.28,2.9,5.39,2.29,8.26,1.78,2.48-.44,3.43-3.86,2.28-6.87-1.38-3.62-.88-4.56,2.96-4.21,3.63.34,7.19,1.29,11.15,2.04,2.19-2.64,4.84-5.97,7.63-9.16,2.81-3.21,6.28-5.5,10.39-6.7,4.06-1.19,5.58-.18,6.01,4.1,2.48-1.71,3.93-3.64,3.33-6.81-.49-2.59.8-3.69,3.27-2.8,2.63.95,5.24,2.05,7.69,3.4,1.7.94,3.02.9,4.32-.4,1.21-1.21,2.3-2.53,3.53-3.72.66-.63,1.5-1.07,2.26-1.6.54.85,1.26,1.64,1.56,2.57.51,1.53.74,3.14,1.17,5.05,3.46-1.56,6.59-3.11,9.83-4.4,6.17-2.46,12.49-3.95,19.07-1.74.9.3,1.53,1.38,2.29,2.09-.8.56-1.55,1.51-2.41,1.62-3.46.42-5.89,2.46-8.25,5.03,2.55-.18,5.09-.43,7.64-.53,2.81-.11,5.63-.05,8.45-.13,4.26-.12,7.71,1.83,10.88,4.35.56.45,1.06,1.77.79,2.28-.37.72-1.42,1.32-2.29,1.52-2.29.53-4.66.73-6.95,1.24-1.48.33-2.88.98-4.78,1.65,7.19,2.92,13.89,5.64,20.79,8.44,1.58-7.9,3.4-16.21,4.83-24.6.38-2.21-.61-4.63-.66-6.96-.02-1.07.7-2.16,1.09-3.25.97.73,2.26,1.26,2.83,2.22,1.6,2.71,2.9,5.6,4.63,9.03.79-4.19,1.12-7.79,2.18-11.16,2.39-7.6,5.09-15.11,7.75-22.62,1.89-5.34,4.93-10.38,3.7-16.46-.13-.63,1.12-1.54,1.73-2.32.74.78,1.93,1.46,2.14,2.36.88,3.87,1.47,7.8,2.77,12.14,1.48-2.57,3.18-5.04,4.37-7.74.97-2.22,1.14-4.77,1.98-7.06,2.19-5.94,4.58-11.81,6.85-17.73,2.11-5.51,4.23-11.01,6.19-16.57.45-1.29.17-2.81.44-4.19.21-1.02.77-1.97,1.17-2.95.85.63,2.17,1.09,2.47,1.92,1.17,3.23,2.11,6.54,2.96,9.87,1.59,6.24,4.48,11.86,8.02,17.18,3.62,5.45,6,11.37,6.78,17.9.05.44.23.86,1.07,1.73.7-1.01,1.78-1.94,2.04-3.05,2.24-9.62,4.57-19.23,6.39-28.94,1.25-6.64.93-13.26-1.6-19.8-3.28-8.47-4.59-17.17-.53-25.92,2.24-4.84,6.09-8.3,10.47-10.76,3.95-2.22,8.37-.61,12.25,1.33,6.63,3.31,8.71,3.1,13.95-2.12,7.15-7.11,14.96-13,24.66-16.5,9.45-3.42,18.04-1.59,26.52,2.47,7.25,3.47,13.77,8.06,19.49,13.75,1.28,1.27,2.71,2.42,4.18,3.47,2.56,1.83,5.21,1.06,7.75-.08.46-.21.81-1.13.86-1.76.6-7.67,1.18-15.34,1.68-23.02.22-3.34.17-6.7.42-10.04.06-.86.61-1.86,1.26-2.42.3-.26,1.61.18,2.07.68,4.66,4.95,9.26,9.96,13.84,14.99.85.93,1.52,2.02,2.39,3.2.6-.26,1.28-.45,1.86-.81,9.93-6.08,20.7-9.97,32.04-12.42,1.29-.28,2.74-.79,3.65-1.68,6.07-5.98,12.11-11.99,17.95-18.19,2.38-2.53,3.88-5.66,3.65-9.41-.05-.76,1.07-1.59,1.65-2.39.69.59,1.73,1.04,2,1.78,1.29,3.47,2.37,7.03,4.24,10.64.05-1.62.06-3.24.15-4.85.05-.99.22-1.97.34-2.95,1,.36,2.3.43,2.95,1.12,2.34,2.48,4.46,5.18,6.92,8.09,3.29-1.64,7.05-3.37,10.67-5.36,2.23-1.23,4.75-2.44,6.28-4.34,4.07-5.06,2.36-10.72.45-16.03-.96-2.67-3.04-4.92-4.41-7.46-.48-.89-.39-2.1-.56-3.17,1.07.03,2.15-.04,3.2.13.59.09,1.1.74,1.69.83,8.34,1.25,12.71,7.42,17.06,13.64v20.72c-2.64,2.21-5.64,3.47-9.1,3.78-5.41.48-7.43-.82-8.9-6-.04-.13-.25-.21-.4-.33-1.97.9-3.95,1.79-5.91,2.72-1.97.93-3.91,1.92-5.88,2.86-2.53,1.2-4.29,2.56-4.46,5.94-.11,2.27-1.95,4.51-3.28,6.6-.28.44-1.72.15-2.62.19.04-.83-.02-1.69.17-2.48.12-.48.66-.85.96-1.3,2.54-3.82,1.81-10.34-1.59-12.91-3.08,5.52-6.12,11.02-9.23,16.48-.71,1.26-1.47,2.59-2.53,3.51-.86.75-2.21.95-3.35,1.39.16-1.2.06-2.51.53-3.57,1.81-4.12,4.01-8.09,5.65-12.28.89-2.27,1.08-4.88-.23-7.15-10.31,12.95-21.86,24.34-35.97,32.95-1.08.66-2.23,1.26-3.43,1.6-.5.14-1.5-.29-1.73-.74-.23-.44.05-1.4.44-1.84.51-.58,1.36-.86,2.04-1.3,1.88-1.21,3.75-2.44,5.62-3.67-.11-.2-.22-.4-.32-.59-1.56.42-3.17.71-4.67,1.28-3.22,1.23-6.53,2.34-9.54,3.98-6.58,3.61-13.12,7.33-19.41,11.42-2.17,1.41-3.56,4.03-5.4,6.22,11.2,5.95,16.53,14.27,15.26,26.26-.48,4.54-2,9-3.36,13.4-1.5,4.86-2.66,9.8-.83,14.64,3.13,8.29,6.73,16.41,10.25,24.89.66-.05,1.74-.06,2.79-.23,10.87-1.74,20.98-5.76,30.76-10.63,13.46-6.7,25.56-15.53,37.71-24.29.41-.3.97-.73,1.02-1.14.47-4.47.82-8.95,1.3-13.42.1-.97.61-1.89.92-2.84.93.35,2.12.45,2.75,1.1,2,2.08,3.78,4.37,5.9,6.87,4.18-4.51,8.22-8.91,12.3-13.27.79-.85,1.6-1.76,2.59-2.31.5-.28,1.6,0,2.08.42.3.26.21,1.5-.15,1.9-5.49,6.04-10.4,12.84-16.73,17.83-11.72,9.24-24.08,17.74-36.57,25.94-11.74,7.71-24.52,13.43-38.32,16.51-4.2.94-8.52,1.36-13.29,2.1.68,1.86.82,4.44,2.03,5.13,4,2.27,6.35,5.87,9.03,9.28.7.89,1.86,1.59,2.95,1.94,2.75.88,5.67,1.29,8.38,2.28,6.93,2.53,12.88,6.6,17.61,12.26,2.44-1.75,2.92-3.13,2.16-6.99-1.14-5.77-3.45-11.05-6.82-15.89-.56-.8-.43-2.08-.62-3.14,1.09-.17,2.25-.66,3.26-.45,1.38.3,2.68,1.06,3.95,1.75,5.65,3.06,9.43,7.91,12.37,13.42,2.06,3.87,3.65,8,5.45,11.99,17.01-11.4,32.52-12.39,46.43-2.87v4.36c-.61-.39-1.23-.77-1.83-1.17-13.57-8.92-30.45-7.73-42.51,3.1-.81.73-1.53,2.09-1.51,3.14.2,9.04-.55,17.76-7.16,24.57,1.42,2.23,2.76,4.28,4.04,6.36,3.39,5.48,5.48,11.91,11.47,15.48.44.26.7.83,1.06,1.23,4.42,4.98,7.19,10.86,9.26,17.1.54,1.62,1.39,2.52,3.08,2.35,4.48-.47,9.08-.49,13.38-1.65,3.76-1.01,7.16-3.33,10.72-5.07v4.36c-7.81,4.7-16.23,7-25.39,6.08.3,8.67.71,17.02-7.71,22.91,2.83,2.16,5.22,4.74,8.17,6.05,4.24,1.87,8.83,3.43,13.4,3.96,3.74.43,7.68-.85,11.53-1.37v13.09ZM313.05,290.35c-1.73-.34-3.18-.49-4.53-.93-.93-.31-2.46-1.02-2.46-1.55-.01-1.87,1.59-1.85,3-1.73.63.05,1.25.2,1.87.36,6.71,1.79,13.57,2.87,20.42,1.69,8.34-1.44,16.54-1.53,24.83.08,2.04.39,4.21.06,6.69.06-2.11-6.86-1.22-13.22.68-20.09-5.24,4.36-10.63,6.35-16.83,6.02-1.63-.09-3.27-.1-4.89.02-9.2.67-16.45-2.87-21.94-10.17-12.04-16-8.67-43.74,6.65-56.6,9.83-8.25,25.23-8.37,34.8.77,10.01,9.56,13.63,21.54,13.02,35.06-.1,2.26-.49,4.51-.82,7.37,2.48-2.22,5.01-3.7,6.4-5.89,3.36-5.32,6.19-10.98,9.28-16.59-3.2-3.23-5.52-7.36-5.96-12.19-.46-5.02-1.14-10.22-.38-15.13,1.89-12.23,7.51-22.47,18.35-29.22,1.28-.8,2.8-1.31,4.28-1.62.73-.15,1.94.23,2.34.8.37.52.17,1.7-.17,2.41-.53,1.14-1.46,2.08-2.08,3.19-2.83,5.1-5.41,10.34-5.25,16.36.04,1.37.92,2.72,1.63,4.66,4.55-5.43,9.33-8.95,14.76-11.66.62-.31,1.2-1.55,1.13-2.29-1.29-13.29-3.7-26.37-7.25-39.26-2.34-8.49-2.38-16.99.95-25.37,1.06-2.68,1.71-5.56,2.22-8.41,1.47-8.22-.36-15.2-6.87-21.13-4.42-4.03-8.14-3.29-12.38-1.2-8,3.93-11.96,3.44-18.3-2.78-8.05-7.9-17.34-13.77-28.31-16.6-2.53-.65-5.48-.78-8-.16-7.54,1.84-14.68,4.81-20.77,9.76-4.22,3.43-8.18,7.19-12.3,10.74-.72.62-1.68,1.3-2.55,1.35-4.1.21-8.09-.05-11.81-2.3-2.75-1.66-6.29-2.9-9.06-1.18-3.54,2.19-6.83,4.99-8.69,9.12-3.46,7.67-2.08,15.19.68,22.51,3.32,8.8,3.3,17.57.82,26.43-3.47,12.44-5.78,25.08-7.01,37.92-.06.59.02,1.24.21,1.81,1.96,5.91,4.46,11.7,5.84,17.75,3.02,13.32,5.41,26.78,4.18,41.05.52-.78.84-1.18,1.07-1.62,2.26-4.36,3.39-8.95,3.05-13.91-.07-1.01.6-2.08.94-3.12,1.04.53,2.54.8,3.04,1.65,2.31,3.97,4.78,7.93,6.38,12.2,4.31,11.5,6.99,23.47,8.78,35.61,2.16,14.64,1.3,28.77-7.56,41.42-.07.09.05.32.24,1.26,5.01-1.2,10-2.38,15.54-3.71-4.03-4.86-3.4-9.2-1.41-13.71,1.28-2.9,2.26-5.92,3.52-9.29ZM288.05,233.31c-.3.07-.6.14-.9.21-.97,6.37-3.61,11.98-7.79,16.79-.75.86-2.27,1.06-3.43,1.56-.34-1.2-1.07-2.44-.94-3.59.7-6.39,2-12.73.88-19.22-1.67-9.64-3.26-19.3-4.92-28.94-.14-.81-.53-1.57-.73-2.12-2.6,3.82-5,7.53-7.63,11.08-.55.74-1.93.88-2.93,1.29-.22-.89-.8-1.87-.61-2.67,2.45-10.01,2.15-20.19,2.06-30.36-.06-6.91-1.38-13.62-4.85-19.62-4.31-7.45-9.37-14.5-10.98-23.3-1.12,2.31-2.03,4.56-2.83,6.84-3.42,9.83-9.05,18.79-11.09,29.19-1.14,5.78-4.61,10.41-9.22,14.07-.61.49-1.77.91-2.34.65-.58-.27-.87-1.4-1.05-2.21-.21-.91-.15-1.88-.26-3.48-.52,1.08-.77,1.54-.95,2.02-2.11,5.41-4.26,10.8-6.3,16.23-2.99,7.93-5.33,15.98-4.72,24.61.06.89.06,1.91-.31,2.68-.47.97-1.34,1.74-2.04,2.6-.77-.78-1.81-1.44-2.27-2.37-1.1-2.24-1.92-4.61-3.12-7.61-.42,1.37-.65,1.95-.77,2.55-1.2,5.87-2.33,11.75-3.58,17.6-2.85,13.28-7.27,26.24-7.22,40.08.03,9.17.15,18.17,6.26,25.85,5.3,6.66,10.91,12.86,19.88,14.9.2,6.26-1.24,12.23-3.93,18.05,3.15.39,6.02.85,8.91,1.07,5.81.45,11.66.82,17.13-1.74,1.22-.57,2.46-1.8,3-3.03,1.8-4.14,1.51-8.5.69-12.83-.36-1.93.28-3.06,2.36-2.98,2.97.12,5.94.43,8.92.45,2.9.02,3.27,1.45,2.78,3.89-.83,4.06-.88,8.17.81,12.02.54,1.23,1.77,2.51,3,3.03,8.53,3.64,17.22,1.54,26.19.7-2.71-5.16-3.74-10.35-4.15-15.73-.06-.75-1.04-1.43-1.59-2.15-.54-.73-1.07-1.47-1.6-2.2.85-.48,1.66-1.25,2.56-1.37,2.78-.4,5.6-.44,8.38-.83,3.44-.48,6.31-1.82,8.01-5.23,4.08-8.17,5.67-16.96,5.16-25.85-.8-13.99-3.99-27.62-8.52-40.9-1.1-3.23-2.26-6.44-3.39-9.67ZM184.24,292.42c-3.53,1.38-6.86,2.87-10.3,3.99-21.46,7-43.47,9.02-65.87,6.81-15.86-1.57-31.28-4.53-44.33-15.08.62,2.41,1.49,4.7,2.45,6.95.59,1.39.93,2.91-.78,3.37-.8.21-2.52-.74-2.87-1.57-1.21-2.91-2.29-5.95-2.89-9.04-.9-4.66,1.26-9.62,4.6-11.05.89-.38,2.13.06,3.2.12-.37.97-.58,2.03-1.14,2.87-.65.98-1.6,1.76-2.65,2.87,2.13,1.13,3.75,2.14,5.48,2.89,15.17,6.57,31.29,8.61,47.56,9.1,11.13.34,22.32-.27,33.45-1.03,10.61-.72,20.99-3,31.13-6.35,2.04-.68,2.46-1.74,2.49-3.75.08-6.32.44-12.63.64-18.95.05-1.65-.13-3.3-.12-4.95,0-.59.21-1.2.44-1.75,1-2.29,2.06-4.56,3.19-7.04-2.62-.87-4.72-1.18-6.32-2.23-1.12-.73-1.57-2.47-2.31-3.77.98-.43,1.93-.96,2.96-1.24.7-.19,1.49-.04,2.24-.04-.76-.99-1.57-1.59-2.47-1.88-6.01-1.99-12.05-3.88-18.05-5.89-.83-.28-1.97-1.01-2.09-1.69-.12-.68.71-1.7,1.37-2.31.64-.6,1.56-.92,2.39-1.27,3.39-1.41,6.79-2.79,10.75-4.41-8.2-1.37-15.78-.92-23.35.88-.94.22-2.27.21-2.94-.31-.48-.37-.53-1.99-.13-2.68,1.55-2.66,3.35-5.17,4.99-7.64-.51.06-1.54-.03-2.43.3-4.91,1.82-9.88,3.55-14.66,5.68-3.66,1.63-4.78,1.45-6.46-2.32-.21-.48-.44-.95-.83-1.76-1.93,1.75-3.73,3.33-5.46,4.97-1.2,1.14-2.12.83-2.84-.44-1.66-2.89-4.68-3.23-7.4-4.53-.37,6.23-5.77,10.98-10.65,10.17-2.02-.33-2.65-1.4-1.68-3.2.29-.54.69-1.02,1.51-2.21-1.91.78-3.17,1.18-4.32,1.8-4.87,2.61-8.1,6.88-11.33,11.17-1.52,2.02-3.12,4.02-4.98,5.71-1.56,1.41-2.73.72-3.27-1.28-.21-.77-.89-1.74-1.59-1.99-1.48-.53-3.1-.66-4.82-.98,0,1.63.09,2.89-.02,4.14-.35,4.08-3.19,7.13-6.92,7.09-3.18-.04-6.36-.51-9.08-.74-2.78,2.3-5.62,4.64-8.46,6.98,3.69.15,6.83-.18,9.98-.26.72-.02,1.65.68,2.11,1.32.25.35-.07,1.52-.5,1.88-3.14,2.57-6.11,5.49-9.63,7.4-4.54,2.47-9.36,4.36-12.72,8.63,1.66,1.79.87,3.05-.77,4.45-3.45,2.95-6.33,6.33-7.08,11.18,4.51-.46,4.4-.45,5.02,3.74.27,1.81,1.08,3.55,1.74,5.63,2.55-2.14,4.19-1.75,6.04.36,3.74,4.26,8.74,6.86,14,8.57,4.88,1.58,10.02,2.33,15.06,3.41,3.97.85,7.95,1.62,11.74,2.39,0-1.79-.18-3.19.09-4.5.1-.5,1.25-1.14,1.85-1.08.46.05,1.17,1.1,1.16,1.7-.02,1.26-.44,2.51-.77,4.16,35.76,4.98,71.24,5.44,106.51-4.72-.86-1.07-1.63-2.02-2.44-3.04-.93,1.64-1.99,2.13-3.34.79-1.54-1.51-1.4-3.23.17-4.79-1.1-3.29-2.16-6.45-3.25-9.73ZM456.24,328.32c18.63-11.2,28.59-27.18,29.39-48.39.47-12.42-2.18-24.29-8.53-35.26-4.18-7.22-7.64-14.9-13.62-20.88-5.25-5.25-7.71-11.67-6.82-18.76.5-4.04-.86-6.3-3.43-8.61-.54-.49-.99-1.08-1.55-1.53-8.77-7.04-18.15-11.12-29.68-7.07-6.48,2.28-11.76,6.01-16.08,11.19-.79.94-1.26,2.58-1.12,3.8.83,6.99-.18,13.63-4.98,18.88-5.94,6.51-10.29,13.93-14.64,21.51-6.03,10.53-9.18,21.71-9.35,33.71-.25,18.02,6.45,33.09,20.13,44.92,2.27,1.96,4.84,3.57,7.28,5.34-2.88-14.16,3.01-24.07,14.5-30.44,8.62-4.79,18.18-4.91,26.63,1.02,10.31,7.24,14.44,17.35,11.85,30.58ZM370.81,238.75c-.38-9.95-3.75-20.03-12.32-28.08-7.98-7.49-22.12-6.97-29.84-.02-5.67,5.09-9.21,11.43-10.96,18.74-2.83,11.83-1.84,23.13,5.75,33.13,4.2,5.54,9.84,8.44,17,7.93,2.41-.17,4.85-.31,7.25-.14,7.09.51,12.2-2.9,16.27-8.17,4.97-6.43,6.8-13.93,6.85-23.39ZM406.22,318.95c.51,2.55.98,5.11,1.54,7.65.6,2.72,2.35,4.1,5.01,5.04,10.57,3.74,21.19,4.42,32.01,1.26,6.16-1.8,8.57-4.77,8.76-11.28.05-1.61-.14-3.28-.53-4.84-3.27-12.94-12.27-20.27-25.56-19.57-9.45.5-21.42,11.3-21.22,21.74ZM392.31,225.42c2.45-3.31,5.54-6.34,7.22-10.01,2.79-6.08,4.02-12.48-1.58-18.09-.62-.62-.84-1.79-.95-2.73-.55-4.63.58-9,2.29-13.26.64-1.6,1.31-3.19,2.15-5.23-15.21,9.75-20.95,41.03-9.13,49.32ZM460.31,176.39c1.15,3.16,2.53,6.12,3.3,9.23,1.17,4.79,2.75,9.81-2.01,13.83-.31.26-.4.8-.57,1.22-2.06,4.93-1.57,9.93.78,14.43,1.97,3.76,4.95,7,7.52,10.51,10.71-10.2,7.25-38.52-9.01-49.22ZM36.18,270.31c-2.34-1.48-4.73-1.25-7.11-.69-8.6,2.06-13.56,8.57-17.6,15.56-4.04,6.99-4.3,15.05-4.28,23,.02,6.88.13,13.77-.08,20.64-.06,2.04.38,4.62-2.57,5.73-.61.23-.98,2.15-.81,3.18.28,1.65.97,3.3,1.78,4.78.39.71,1.45,1.05,2.21,1.56.56-.84,1.46-1.63,1.61-2.54.25-1.5-.09-3.08.02-4.61.04-.61.5-1.6.93-1.7.65-.15,1.54.18,2.15.59.56.38.77,1.34,1.35,1.63.64.33,1.59.42,2.24.18.32-.12.59-1.61.32-1.85-1.55-1.4-3.13-3.33-4.97-3.69-2.25-.44-2.67-1.35-2.63-3.2.19-7.97.48-15.93.5-23.9.03-9.08,3.66-16.74,9.12-23.63,3.3-4.16,7.25-7.88,12.95-8.17,2.34-.12,3.63-1.03,4.87-2.89ZM509.67,5.01c.48,1.19.62,1.59.8,1.96,3.75,7.71,4.58,15.44.4,23.31-1.38,2.61.13,5.03,3.09,5.28,5.77.48,10.71-3.32,10.34-8.12-.64-8.34-3.89-15.37-10.8-20.41-.95-.7-2.11-1.12-3.84-2.02ZM487.2,294.76c5.13-1.24,7.17-3.34,8.19-8.1,2.84-13.19-2.62-23.82-10.42-33.77,3.92,13.68,6.2,27.42,2.23,41.87ZM374.33,294.71c-4.01-14.41-1.64-28.13,2.19-41.82-7.65,9.9-13.17,20.43-10.43,33.53.91,4.33,2.98,7.57,8.24,8.29ZM398.29,56.46c-.26.12-.52.23-.79.35-.44,8.88-3.28,17.55-2.52,26.64,2.59,0,3.86-.81,4.81-3.03,1.01-2.34,2.75-4.45,4.51-6.34,1.63-1.75,3.7-3.09,6.02-4.98-4.12-4.33-8.08-8.49-12.04-12.64ZM409.05,335.06c-.06-.25-.12-.49-.18-.74-3.55-1.95-6.99-4.19-10.69-5.78-3.68-1.58-7.66-1.6-11.31.36-3.15,1.69-3.05,4.51-.16,6.4,5.03,3.28,10.5,2.12,15.84,1.69,2.2-.18,4.33-1.26,6.5-1.93ZM452.48,334.45c.68.52,1.12,1.08,1.67,1.25,6.78,2.03,13.6,3.21,20.26-.28,1.1-.58,2.67-2.18,2.48-2.92-.37-1.45-1.55-3.14-2.87-3.81-3.66-1.86-7.63-1.62-11.29.08-3.43,1.59-6.64,3.65-10.25,5.68ZM145.75,321.12c0,4.69-.1,9.19.11,13.68.03.69,1.47,1.83,2.3,1.86,2.97.13,6.01.18,8.9-.36,1.56-.29,3.02-1.7,4.3-2.85,1.26-1.14.76-2.6-.64-3.02-2.09-.61-4.34-1.03-6.5-.92-2.08.1-3.06-.25-3.15-2.48-.09-2.05-.5-4.08-.78-6.18-1.78.1-3.38.19-4.55.26ZM102.84,320.06c-.06.58-.14,1.01-.16,1.45-.06,1.8.55,4.09-.34,5.24-.75.97-3.22.62-4.93.86-.18.02-.41.01-.52.12-1.15,1.04-2.91,1.94-3.24,3.2-.27,1.06.84,2.88,1.86,3.78,3.08,2.73,6.83,2.36,10.58,1.71,1.57-.27,2.12-.94,1.96-2.56-.31-3.24-.58-6.51-.6-9.76-.02-4.27-.01-4.37-4.61-4.05ZM157.84,296.75c-24.09,3-48.1,2.66-72.03-1.65,23.87,6.87,47.9,6.52,72.03,1.65ZM379.45,307.73c-.95,1.85-1.75,3.43-2.76,5.4,2.5.84,4.92,1.66,8.01,2.7-2.01-3.09-3.6-5.55-5.26-8.1ZM500.44,121.27c.16.17.31.34.47.52,1.03-.86,2.06-1.72,3.19-2.67-.83-1.11-1.49-1.98-2.51-3.34-.47,2.25-.8,3.87-1.14,5.49ZM425,180.97c.25-.26.51-.52.76-.78-1.41-1.61-2.83-3.21-4.24-4.82-.32.29-.64.58-.96.87,1.48,1.58,2.96,3.15,4.44,4.73ZM265.2,185.41c.05-.03.11-.05.16-.08.14-1.6.29-3.2.42-4.8.13-1.62.22-3.23.33-4.85-.3,0-.61-.01-.91-.02v9.74ZM264.75,188.14h-.31v12.05c.1,0,.2.02.31.02v-12.07Z"/><path class="cls-1" d="M525.08,350.48c-5.81-1.73-7.42-8.35-5-13.66,1.25-2.73,3.31-5.08,5-7.61v6.54c-.71,1.3-1.77,2.53-2.06,3.92-.46,2.23-.89,4.73,2.06,5.89v4.91Z"/><path class="cls-1" d="M509.26,83.23c-.11,5.12-1.13,10.03-4.25,14.31-4.57,6.26-12.18,6.1-16.51-.33-5.34-7.92-4.83-20.71,1.11-28.13,3.92-4.9,10.47-5.15,14.66-.49,3.71,4.14,4.8,9.22,4.99,14.64ZM506.18,83.32c-1.06-3.41-1.67-7.04-3.26-10.18-2.72-5.37-7.48-5.49-11.14-.66-4.3,5.67-4.31,17.14-.02,22.91,3.03,4.07,6.95,4.14,10.1.12,2.75-3.51,3.58-7.64,4.33-12.19Z"/><path class="cls-1" d="M424.06,113.29c.08-5.14,1.18-10.02,4.32-14.3,4.21-5.73,11.29-5.91,15.72-.38,5.97,7.45,5.73,21.83-.48,29.06-4.44,5.17-10.95,5.06-15.23-.28-3.29-4.11-4.23-8.94-4.33-14.11ZM427.58,114.99c.62,1.93,1.29,5.75,3.02,9.01,2.68,5.03,7.55,5.07,10.8.38,3.21-4.63,4.04-9.92,2.96-15.32-.57-2.84-1.72-5.76-3.33-8.15-2.33-3.45-5.79-3.41-8.75-.5-3.56,3.51-4.24,8.04-4.69,14.57Z"/><path class="cls-1" d="M467.11,66.68c.35-2.79,1.04-4.67,3.25-4.45.99.1,2.31,1.59,2.63,2.69.49,1.69-1.71,4.39-3.09,3.97-1.19-.37-2.1-1.63-2.79-2.2Z"/><path class="cls-1" d="M418.14,139.14c.1-2.84,1.19-4.15,3.02-3.89.89.13,2.06,1.58,2.26,2.6.33,1.67-.78,3.17-2.55,3.03-1.08-.09-2.08-1.3-2.73-1.75Z"/><path class="cls-1" d="M509.03,285.5c-1.76,1.47-2.74,2.29-3.72,3.11-.85-1.02-2.22-1.97-2.36-3.08-.1-.82,1.37-2.55,2.2-2.58,1-.04,2.06,1.27,3.88,2.55Z"/><path class="cls-1" d="M318.48,162.5c16.83-6.77,33.35-6.81,50.08-.02,1.48-3.72,2.83-7.26,4.29-10.76,1.65-3.97,2.95-4.1,6.08-1.23,1.9,1.75,4.08,3.29,6.35,4.51,1.93,1.03,1.94,2.05.97,3.66-2.01,3.33-3.97,6.7-6.13,10.35,1.02.93,2.36,1.82,3.21,3.06.45.66.05,1.91.04,2.89-.89-.11-2.1.12-2.63-.38-8.63-8.2-19.32-11.7-30.75-13.02-12.38-1.43-24.24.89-35.21,6.9-2.9,1.59-5.37,3.96-8.15,5.79-.8.53-1.99.45-3.01.64.09-1.06-.13-2.29.35-3.12.65-1.14,1.84-1.97,2.83-2.96-1.96-3.34-3.85-6.71-5.9-9.99-1.22-1.95-.81-2.88,1.23-3.98,2.34-1.26,4.47-3.01,6.48-4.78,2.51-2.21,4.04-2.07,5.35,1.02,1.55,3.66,2.93,7.4,4.51,11.44ZM315.19,163.95c-1.46-3.75-2.84-7.31-4.22-10.87-2.31,1.73-4.33,3.25-6.58,4.94,1.74,2.85,3.55,5.83,5.42,8.88,2.04-1.12,3.68-2.02,5.38-2.95ZM376.09,153.06c-1.44,3.76-2.79,7.28-4.18,10.91,1.78.96,3.43,1.85,5.42,2.92,1.87-3.12,3.65-6.08,5.33-8.89-2.33-1.75-4.33-3.26-6.57-4.95Z"/><path class="cls-1" d="M362.64,105.06c-.72,5.76-2.23,10.93-5.39,15.55-3.95,5.76-9.18,9.37-16.49,8.54-7.08-.8-11.51-5.39-13.88-11.62-4.19-11-2.52-21.36,5.41-30.2,8.26-9.21,22.04-6.32,27.27,5.74,1.62,3.74,2.09,7.98,3.08,11.99ZM358.37,101.92c.07-3.34-1.6-8.41-5.6-12.54-4.66-4.82-11.68-4.98-16.68-.53-8.11,7.22-10.17,20.59-4.6,29.95,4.8,8.06,13.86,9.27,20.43,2.6,4.64-4.71,6.53-10.57,6.46-19.48Z"/><path class="cls-1" d="M405.25,113.16c-.57,1.75-1.21,5.5-2.93,8.66-3.38,6.21-10.11,6.47-14.53.96-4.97-6.21-5.5-17.83-1.1-24.43,3.57-5.36,9.75-5.76,13.98-.85,3.38,3.93,4.27,8.7,4.58,15.65ZM402,111.27c-.62-4.4-1.54-8.31-4.38-11.53-2.45-2.77-5.32-2.61-7.54.26-3.94,5.11-3.42,16.13.98,20.86,2.81,3.02,6.05,2.9,7.95-.76,1.42-2.73,2.02-5.87,2.99-8.83Z"/><path class="cls-1" d="M303.29,107.99c.09,6.69-1.11,11.36-4.45,15.28-4.08,4.77-9.94,4.48-13.65-.59-4.81-6.55-4.17-19.13,1.29-25.27,4.28-4.82,10.45-4.35,13.97,1.05,1.95,3,2.84,6.49,2.84,9.54ZM300.33,110.03c-.87-3.16-1.29-5.89-2.37-8.33-2.23-5.02-6.52-5.36-9.43-.72-3.69,5.88-3.93,12.16-.95,18.39,2.2,4.61,6.6,4.9,9.15.43,1.74-3.05,2.5-6.67,3.6-9.77Z"/><path class="cls-1" d="M264.58,264.21c0,5.25.02,9.87-.01,14.49,0,1.17-.03,2.38-.27,3.52-1.51,7.23-2.77,7.89-9.84,6.46-12.79-2.58-25.67-3.77-38.64-1.42-2.47.45-4.81,1.59-7.27,2.17-1.2.28-2.53.01-3.8-.01.15-1.2-.02-2.56.51-3.56,2.06-3.91,2.56-8.11,2.58-12.4.02-3.87-.09-3.73,3.83-3.29,8.23.92,16.48,1.25,24.63-.54,6.72-1.47,13.39-3.14,20.05-4.86,1.35-.35,2.54-1.32,3.81-2,.95-.51,2.47-1.64,2.76-1.38.87.77,1.26,2.08,1.66,2.82ZM252.09,274.86c9.88.53,9.74,1.13,8.53-7.15-.02-.11-.23-.2-.42-.34-2.52.89-5.08,1.79-7.63,2.71-.16.06-.29.21-.48.34v4.44ZM251.82,284.57c2.73.24,5.5,1.29,7.29.39,1.36-.69,1.45-3.86,2.17-6.15h-9.16c-.1,1.87-.19,3.55-.31,5.76ZM248.65,279.21h-10.79v3.47c3.55.34,6.91.66,10.5,1,.1-1.64.19-2.96.28-4.48ZM237.12,275.12h11.37v-3.95c-3.32.55-6.43.96-9.48,1.65-.65.15-1.09,1.28-1.89,2.31ZM234.07,279.03c-3.81.22-7.37.43-10.92.64-.15.26-.31.51-.46.77.59.64,1.14,1.79,1.77,1.83,3.21.19,6.44.09,9.76.09-.05-1.18-.09-1.98-.15-3.32ZM211.78,273.46c-.15,1.63-.28,2.91-.4,4.24,7.96-.51,8.41-.7,7.97-3.36-2.38-.28-4.78-.56-7.57-.89ZM219.4,280.12c-2.1.31-4.13.81-6.18.87-2.61.08-2.97,1.62-3.09,3.6,2.67-.48,5.14-1.02,7.63-1.34,1.79-.23,2.35-1.03,1.63-3.12ZM222.85,275.71c3.75,0,6.9.06,10.05-.06.59-.02,1.14-.77,2-1.4-3.97,0-7.2-.06-10.43.06-.5.02-.98.82-1.62,1.39Z"/><path class="cls-1" d="M234.66,220.85c-.05,7.67-1.65,13.25-5.75,17.88-5.48,6.19-12.8,4.83-15.88-2.85-3.43-8.57-.64-20.84,5.98-26.3,4.38-3.61,9.76-2.82,12.91,1.92,2.2,3.31,2.81,7.02,2.72,9.34ZM215.01,227.64c.49,2.28.71,4.67,1.53,6.83,1.97,5.15,6.4,5.92,9.76,1.58,4.62-5.95,5.97-12.71,3.74-19.99-.7-2.3-1.91-4.53-4.56-4.93-2.74-.41-4.59,1.4-6.07,3.42-2.83,3.86-4.05,8.26-4.4,13.09Z"/><path class="cls-1" d="M261.98,229.75c-.5,1.77-.97,5.07-2.32,7.96-2.93,6.26-9.34,7.29-14.31,2.49-4.25-4.11-6.33-9.37-6.47-15.14-.08-3.63.26-7.54,1.54-10.89,2.83-7.42,10.25-8.43,15.56-2.49,4.21,4.72,5.5,10.49,5.99,18.07ZM258.6,228.35c-.58-5.03-1.65-9.66-4.83-13.35-1.39-1.61-3.79-3.06-5.82-3.21-2.58-.19-3.87,2.44-4.59,4.74-2.26,7.28-.8,13.95,3.65,20.02.47.64,1.14,1.18,1.8,1.63,2.83,1.95,5.59,1.58,7.1-1.46,1.29-2.6,1.83-5.57,2.7-8.38Z"/><path class="cls-1" d="M101.94,260.44c-2.46-.51-5.1-.65-7.33-1.66-1.48-.68-3.14-2.52-3.34-4.02-.18-1.33,1.19-3.51,2.49-4.29,6.4-3.82,13.35-4.41,20.34-1.94,1.49.53,3.2,2.48,3.4,3.97.18,1.33-1.25,3.38-2.54,4.33-3.8,2.8-8.38,3.17-13.03,3.61ZM101.57,250.93c-2.56,1.14-4.69,2.09-6.81,3.03.05.37.09.73.14,1.1,2.08.5,4.16,1.01,6.42,1.55.09-1.97.15-3.48.25-5.69ZM113.99,253.18c-.03-.35-.07-.7-.1-1.06-1.89-.42-3.77-.84-6.19-1.38.86,2.01,1.37,3.21,2,4.7,1.57-.83,2.94-1.54,4.3-2.26Z"/><path class="cls-1" d="M151.73,260.08c-3.35-.98-7.44-1.99-11.37-3.43-1.99-.73-3.5-2.46-3.27-4.85.23-2.41,2.11-3.62,4.16-4.17,6.81-1.85,13.51-1.51,19.63,2.22,1.36.83,2.75,3.06,2.6,4.5-.15,1.45-1.93,3.27-3.43,3.94-2.24.99-4.88,1.12-8.32,1.8ZM153.19,250.43c.11,2.24.19,3.76.28,5.69,2.28-.59,4.36-1.12,6.43-1.65.03-.36.06-.73.09-1.09-2.15-.93-4.3-1.86-6.8-2.95ZM140.84,251.68c0,.34-.01.68-.02,1.02,1.43.7,2.87,1.4,4.43,2.16.61-1.73,1.06-3,1.72-4.88-2.47.68-4.3,1.19-6.13,1.7Z"/><path class="cls-1" d="M101.18,237.06c.96.06,1.61-.08,2.01.17.61.39,1.41,1.05,1.43,1.61.02.5-.87,1.39-1.46,1.48-3.1.5-6.23.89-9.37,1.1-.78.05-1.61-.67-2.42-1.03.65-.73,1.19-1.93,1.96-2.11,2.71-.62,5.49-.89,7.85-1.23Z"/><path class="cls-1" d="M130.8,234.97c1.46-2.72,2.62-5.14,4.08-7.37.36-.55,1.71-.44,2.61-.64-.02.89.16,1.84-.09,2.67-.62,2.09-1.34,4.15-2.21,6.14-.29.68-1.43,1.68-1.7,1.55-.9-.44-1.59-1.32-2.69-2.35Z"/><path class="cls-1" d="M176.86,269.53c1.36.98,2.26,1.35,2.72,2.02,1.07,1.56,2.07,3.2,2.83,4.92.28.64-.17,1.61-.29,2.42-.86-.29-2.03-.31-2.51-.9-1.4-1.74-2.65-3.64-3.68-5.63-.27-.52.49-1.56.94-2.83Z"/><path class="cls-1" d="M85.4,264.49c-.33.83-.37,1.28-.61,1.46-2.05,1.61-4.1,3.24-6.25,4.7-.4.27-1.45.01-1.89-.36-.31-.26-.37-1.45-.09-1.69,2.03-1.73,4.12-3.41,6.35-4.87.45-.29,1.57.46,2.49.76Z"/><path class="cls-1" d="M121.66,284.97c-.33-.97-1.05-2-.78-2.45,1.22-2.1,2.63-4.09,4.16-5.97.31-.39,1.56-.35,2.14-.05.36.19.57,1.44.3,1.88-1.18,1.92-2.53,3.74-3.89,5.54-.29.38-.9.51-1.93,1.05Z"/><path class="cls-1" d="M79.56,250.15c-.32-.27-1.13-.95-1.94-1.63.85-.58,1.62-1.45,2.55-1.67,1.65-.39,3.41-.6,5.08-.44.77.07,1.45,1.18,2.16,1.82-.74.49-1.42,1.24-2.22,1.4-1.57.32-3.21.32-5.63.52Z"/><path class="cls-1" d="M148.79,230.33c-1.89,1.83-3.63,3.87-5.75,5.39-.92.66-2.18-1.39-1.27-2.62,1.17-1.58,2.57-3.05,4.11-4.27.48-.38,1.73.2,2.62.33.1.39.19.78.29,1.16Z"/><path class="cls-1" d="M46.26,278.72c-.44-.38-1.23-.73-1.34-1.23-.12-.56.23-1.64.65-1.82,1.98-.83,4.03-1.51,6.11-2.03.42-.1,1.38.64,1.51,1.14.13.5-.32,1.54-.78,1.74-1.89.82-3.89,1.41-6.15,2.2Z"/><path class="cls-1" d="M47.08,285.63c-.62.94-.82,1.51-1.21,1.78-1.48,1.02-2.96,2.05-4.56,2.85-.57.29-1.77.2-2.12-.21-.35-.41-.3-1.81.08-2.1,1.69-1.29,3.51-2.45,5.42-3.37.47-.23,1.46.62,2.4,1.06Z"/><path class="cls-1" d="M68.09,259.13c.52.53,1.18,1.2,1.84,1.86-.64.59-1.19,1.45-1.94,1.73-1.33.49-2.8.85-4.2.81-.87-.03-1.72-.89-2.58-1.39.63-.6,1.15-1.45,1.9-1.74,1.41-.55,2.94-.78,4.99-1.27Z"/><path class="cls-1" d="M117.12,264.27c-.33-1.24-1.01-2.51-.7-2.83,1.47-1.53,3.13-2.92,4.9-4.09.44-.29,1.53.42,2.32.68-.31.74-.46,1.62-.96,2.19-.75.86-1.72,1.55-2.66,2.24-.7.52-1.49.93-2.91,1.8Z"/><path class="cls-1" d="M107.44,275.82c-.06,2.3-5.39,6.13-6.73,5.38-.5-.28-.88-1.97-.58-2.27,1.42-1.38,3-2.67,4.72-3.63.62-.34,1.81.34,2.58.52Z"/><path class="cls-1" d="M70.82,255.51c-.71-.08-1.99-.11-3.2-.42-.57-.15-1.34-.8-1.39-1.29-.05-.47.69-1.48,1.1-1.49,2.21-.03,4.44.07,6.63.38.4.06.9,1.27.87,1.92-.02.37-.98.84-1.59,1-.58.15-1.24-.04-2.41-.11Z"/><path class="cls-1" d="M81.11,285.17c.89-1.92,1.56-3.71,2.56-5.28.33-.52,1.53-.47,2.34-.69.14.79.55,1.66.36,2.36-.39,1.47-.98,2.92-1.73,4.25-.35.63-1.36,1.44-1.85,1.31-.64-.16-1.06-1.18-1.68-1.95Z"/><path class="cls-1" d="M126.82,285.22c.26.17,1.05.42,1.18.86.17.57,0,1.41-.34,1.94-.74,1.21-1.61,2.36-2.55,3.42-.42.47-1.12.85-1.74.95-.32.05-.92-.55-1.1-.98-.78-1.87,2.14-6.1,4.55-6.18Z"/><path class="cls-1" d="M129.41,258.44c-1.09,1.75-2.05,3.47-3.23,5.03-.27.36-1.47.41-1.92.11-.41-.27-.71-1.35-.49-1.83.7-1.55,1.55-3.05,2.55-4.42.3-.42,1.31-.59,1.89-.46.43.1.71.88,1.2,1.56Z"/><path class="cls-1" d="M97.55,264.69c-.61.55-.98,1.11-1.49,1.3-1.44.55-2.91,1.06-4.41,1.35-.56.11-1.36-.3-1.83-.72-.24-.21-.14-1.36.04-1.42,2.12-.76,4.28-1.44,6.46-1.98.24-.06.71.83,1.23,1.47Z"/><path class="cls-1" d="M126.95,234.1c-.43.59-1.03,1.41-1.64,2.24-.65-.84-1.46-1.61-1.89-2.55-.39-.87-.55-1.95-.47-2.91.06-.78.62-1.51.95-2.27.72.5,1.74.84,2.1,1.53.52,1,.57,2.24.94,3.96Z"/><path class="cls-1" d="M107.64,232.31c1.67,1.14,3.38,2.23,4.97,3.49.29.23.29,1.28.02,1.67-.27.4-1.21.79-1.56.61-1.66-.84-3.27-1.8-4.76-2.91-.37-.28-.35-1.33-.19-1.94.09-.34.82-.52,1.53-.93Z"/><path class="cls-1" d="M98.06,272.86c.88.16,1.78.12,2.42.51.5.3.98,1.17.9,1.71-.07.48-.86,1.07-1.43,1.22-1.11.29-2.29.42-3.43.37-.86-.04-1.71-.46-2.56-.7.52-.84.88-1.88,1.61-2.46.63-.5,1.68-.46,2.5-.65Z"/><path class="cls-1" d="M121.71,234.95c-1.35.59-2.51,1.45-2.89,1.19-1.37-.94-2.6-2.18-3.62-3.5-.32-.41-.06-1.69.37-2.12.32-.32,1.58-.17,2.04.22,1.28,1.07,2.36,2.38,4.1,4.2Z"/><path class="cls-1" d="M169.18,312.32c-2.41.16-4.97-3.28-4.08-5.01.32-.62,1.34-.88,2.04-1.3,1.01,1.68,2.09,3.33,2.97,5.08.12.24-.73.98-.93,1.23Z"/><path class="cls-1" d="M76.35,280.68c-.41-1.23-1.08-2.52-.86-2.7,1.56-1.23,3.3-2.24,4.99-3.32.42.74,1.31,2.03,1.2,2.13-1.5,1.26-3.13,2.34-5.33,3.89Z"/><path class="cls-1" d="M127.46,253.02c-.71-.94-1.49-1.52-1.47-2.05.05-.92.43-1.95.99-2.7.91-1.24,1.96-3.24,3.78-1.88,1.74,1.3-.17,2.49-.92,3.58-.63.92-1.37,1.77-2.38,3.06Z"/><path class="cls-1" d="M54.37,272.16c-.86-.91-1.94-1.58-1.85-2.01.48-2.4,2.65-2.47,4.47-2.52.85-.02,1.73.93,2.59,1.45-1.65.98-3.3,1.95-5.21,3.08Z"/><path class="cls-1" d="M153.44,239.68c-.74-.7-1.44-1.35-2.14-2,.63-.6,1.18-1.32,1.9-1.75.75-.44,1.66-.76,2.52-.81.68-.03,1.72.25,1.98.73.25.46-.08,1.64-.55,1.99-.96.73-2.18,1.11-3.72,1.83Z"/><path class="cls-1" d="M107.52,264.4c.91,1.01,1.98,1.7,1.89,2.18-.45,2.43-2.78,2.14-4.49,2.56-.43.1-1.14-.98-1.72-1.51,1.35-1.01,2.7-2.02,4.32-3.23Z"/><path class="cls-1" d="M137.37,275c.85-.28,2.15-1.05,2.48-.75,1.31,1.2,2.39,2.69,3.36,4.19.11.16-1,1.11-1.54,1.7-1.22-1.15-2.44-2.3-3.66-3.45-.21-.56-.43-1.13-.64-1.69Z"/><path class="cls-1" d="M53.97,296.31c-1.18.82-2.16,1.65-3.27,2.2-.72.36-1.65.43-2.47.37-.25-.02-.64-.87-.63-1.33.01-1.68,3.68-3.72,5.09-2.85.41.25.65.78,1.28,1.6Z"/><path class="cls-1" d="M124.6,250.26c-.88.76-1.91,1.9-2.09,1.77-1.2-.81-2.37-1.79-3.22-2.95-.34-.47.16-1.55.28-2.35.8.19,1.76.17,2.35.63.96.73,1.67,1.78,2.69,2.9Z"/><path class="cls-1" d="M166.23,246.63c-.95-1.08-1.46-1.66-1.97-2.25,1.49-.95,2.95-1.98,4.53-2.76.22-.11,1.06,1.03,1.61,1.59-1.29,1.06-2.58,2.12-4.17,3.42Z"/><path class="cls-1" d="M128.08,311.16c.94-1.02,1.65-1.79,2.36-2.56.55.76,1.1,1.52,1.63,2.29.09.13.07.35.08.53.02.95.1,1.92-.03,2.85-.02.12-1.4.36-1.69.08-.83-.82-1.42-1.87-2.35-3.19Z"/><path class="cls-1" d="M176.51,255.21c-1.58-.99-2.89-1.8-4.2-2.62.83-.6,1.69-1.73,2.5-1.69,1.47.06,3.51.09,3.54,2.35,0,.54-.99,1.1-1.84,1.96Z"/><path class="cls-1" d="M179.95,261.28c-1.08.95-2.02,1.9-2.1,1.83-1.38-1.14-2.67-2.38-3.87-3.71-.08-.09,1.15-1.58,1.21-1.54,1.49.97,2.91,2.05,4.76,3.42Z"/><path class="cls-1" d="M76.65,307.05c-1.06,1.24-1.73,2.03-2.41,2.82-.66-.92-1.88-1.89-1.82-2.76.07-1.03,1.25-1.98,1.95-2.97.64.82,1.28,1.63,2.28,2.91Z"/><path class="cls-1" d="M62.42,303.24c-.95,1.08-1.58,1.8-2.22,2.53-.63-1.02-1.57-1.98-1.81-3.09-.27-1.24-.23-3.17,1.72-2.83.84.15,1.38,1.95,2.31,3.39Z"/><path class="cls-1" d="M119.46,270.14c.24.28.8.91,1.37,1.55-1.46,1-2.9,2.04-4.43,2.93-.09.06-1.18-1.01-1.25-1.61-.17-1.51,1.69-2.88,4.32-2.86Z"/><path class="cls-1" d="M118.52,314.08c-.97.76-1.94,1.62-2,1.56-1.05-1.04-2.14-2.12-2.86-3.39-.18-.32.93-1.36,1.45-2.07,1.05,1.2,2.09,2.39,3.41,3.9Z"/><path class="cls-1" d="M113.71,281.49c-.92-1.23-1.39-1.85-1.86-2.47,1.32-.9,2.6-1.87,4.01-2.61.2-.11.98.89,1.5,1.38-1.09,1.11-2.19,2.23-3.64,3.71Z"/><path class="cls-1" d="M181.8,310.05c-.68.39-1.65,1.28-1.99,1.08-1.37-.8-2.54-1.93-3.79-2.94.55-.46,1.3-1.42,1.63-1.29,1.49.56,2.87,1.43,4.29,2.18-.04.33-.09.65-.13.98Z"/><path class="cls-1" d="M149.7,271.14c-2.23-1.94-3.38-2.94-4.53-3.94.7-.53,1.74-1.65,2.05-1.48,1.28.73,2.46,1.75,3.41,2.89.24.29-.49,1.39-.93,2.53Z"/><path class="cls-1" d="M108.39,291.14c-.8-1.31-1.7-2.33-1.53-2.57.86-1.2,1.97-2.25,3.11-3.2.1-.08,1.6,1.18,1.54,1.28-.81,1.37-1.79,2.64-3.13,4.5Z"/><path class="cls-1" d="M148.51,291.02c-1.43-1.57-2.51-2.69-3.44-3.93-.07-.09,1.25-1.49,1.35-1.42,1.31.89,2.55,1.91,3.7,3.01.08.08-.74,1.08-1.61,2.34Z"/><path class="cls-1" d="M96.22,284.57c-1.26,1.32-2.15,2.26-3.05,3.2-.46-.83-1.46-1.81-1.27-2.44.34-1.1,1.4-1.99,2.16-2.96.59.61,1.18,1.21,2.15,2.21Z"/><path class="cls-1" d="M151.64,309.16c.72,1.2,1.58,2.36,2.09,3.65.14.36-.77,1.13-1.2,1.7-.95-1.03-2.05-1.98-2.78-3.16-.22-.35.61-1.35.95-2.05.31-.05.62-.1.94-.15Z"/><path class="cls-1" d="M166.02,285.23c-.68.37-1.59,1.21-2.01,1.01-1.25-.58-2.31-1.56-3.45-2.39.61-.51,1.37-1.54,1.8-1.42,1.32.39,2.52,1.22,3.77,1.88-.03.31-.07.61-.1.92Z"/><path class="cls-1" d="M132.81,272.15c-.95,1.05-1.62,1.8-2.3,2.54-.57-.87-1.63-1.78-1.58-2.62.06-.97,1.11-1.87,1.73-2.8.62.83,1.24,1.66,2.15,2.87Z"/><path class="cls-1" d="M141.66,307.38c1.18,1.95,2.03,3.11,2.55,4.41.12.31-.85,1.06-1.32,1.61-.92-1.04-1.98-1.99-2.67-3.16-.21-.35.63-1.32,1.44-2.86Z"/><path class="cls-1" d="M134.65,290.82c1.09-1.14,1.72-2.37,2.41-2.42,2.25-.13,1.44,2.05,1.86,3.22.13.37-.9,1.15-1.4,1.75-.82-.74-1.65-1.47-2.86-2.56Z"/><path class="cls-1" d="M101.18,307.23c1.08,1.58,1.89,2.58,2.4,3.71.11.24-.89.98-1.38,1.49-.88-.85-1.91-1.6-2.54-2.61-.19-.3.73-1.3,1.51-2.59Z"/><path class="cls-1" d="M135.22,258.34c-1.12.84-1.96,1.74-2.21,1.6-.98-.54-1.77-1.42-2.63-2.17.47-.54,1.16-1.62,1.39-1.53,1.05.42,1.98,1.16,3.45,2.1Z"/><path class="cls-1" d="M163.26,271.57c.93,1,1.47,1.59,2.01,2.17-.82.69-1.58,1.54-2.52,1.96-.27.12-1.67-1.2-1.56-1.49.32-.86,1.14-1.53,2.06-2.64Z"/><path class="cls-1" d="M155,284.56c.83,1.26,1.53,2.01,1.79,2.89.08.28-1.34,1.4-1.51,1.28-.79-.52-1.52-1.27-1.95-2.1-.13-.25.81-1.04,1.67-2.07Z"/><path class="cls-1" d="M409.96,221.2c0-11.79,9.24-20.81,21.26-20.75,11.18.06,20.8,9.85,20.88,21.27.09,11.53-9.35,20.95-20.95,20.9-11.7-.06-21.19-9.65-21.19-21.41ZM448.28,221.91c.03-9.89-7.79-17.63-17.85-17.67-9.24-.03-16.98,7.78-16.9,17.06.09,9.55,8,17.44,17.56,17.53,9.63.09,17.15-7.32,17.18-16.92Z"/><path class="cls-1" d="M429.19,268.17c-4.64-.74-9.3-1.38-13.92-2.26-2.72-.52-4.94-1.99-5.6-4.92-.66-2.95.56-5.33,2.71-7.29,3.22-2.93,7.31-3.5,11.37-3.93,6.2-.65,12.34-.08,18.25,1.92,2.02.68,3.97,1.81,5.67,3.1,3.9,2.95,3.62,7.73-.98,9.39-4.95,1.79-10.33,2.41-15.53,3.5-.61.13-1.27.02-1.9.02l-.08.46ZM430.14,264.75c4.37-1.04,9.41-2.05,14.32-3.5,2.54-.75,2.78-2.6.57-3.74-2.92-1.5-6.07-2.76-9.27-3.46-2.95-.65-6.11-.28-9.15-.62-4.4-.49-8.48.19-11.92,3.04-2.62,2.18-1.99,5.07,1.28,5.8,4.4.97,8.88,1.58,14.16,2.48Z"/><path class="cls-1" d="M493.33,83.86c.07-2.74,1.51-4.55,3.62-4.52,1.99.02,3.54,1.99,3.45,4.38-.09,2.28-1.99,4.63-3.76,4.63-1.88,0-3.37-2.01-3.3-4.49Z"/><path class="cls-1" d="M432.48,113.42c-.03-2.77,1.56-4.82,3.71-4.78,1.9.04,3.33,1.81,3.35,4.17.02,2.47-1.84,4.9-3.74,4.88-1.75-.02-3.3-2-3.32-4.26Z"/><path class="cls-1" d="M339.24,106.35c-.04-2.13,1.73-4.09,3.77-4.19,2.06-.1,3.56,1.35,3.61,3.5.06,2.29-1.95,4.8-3.87,4.83-1.7.03-3.47-2.06-3.51-4.14Z"/><path class="cls-1" d="M397.64,113.32c-.84.81-1.55,2.04-2.54,2.34-1.46.44-3.21-1.76-3.18-3.62.03-1.64.86-2.54,2.51-2.51,2.13.04,2.7,1.45,3.21,3.8Z"/><path class="cls-1" d="M296.42,112.09c-1.93,1.64-2.99,3.21-4.33,3.52-1.89.44-2.16-1.36-2.13-2.91.04-1.86.72-3.38,2.79-3.1,1.02.14,1.91,1.25,3.67,2.49Z"/><path class="cls-1" d="M219.71,225.9c0-2.52,2.08-5.45,4.35-5.32,2.63.15,2.46,2.39,2.57,4.05.2,2.95-2.1,6.1-4.12,5.86-2.24-.27-2.83-1.95-2.8-4.59Z"/><path class="cls-1" d="M254.4,227.27c-1.12,1.4-1.94,3.36-3.02,3.51-1.14.16-3.01-1.12-3.66-2.28-.76-1.35-.89-3.3-.66-4.89.4-2.79,2.73-3.49,4.59-1.37,1.12,1.28,1.69,3.03,2.75,5.03Z"/><path class="cls-1" d="M424.68,220.73c0-4.06,2.91-7.25,6.54-7.19,3.49.06,6.16,3.07,6.16,6.94,0,3.96-3.04,7.28-6.6,7.21-3.51-.07-6.1-3.02-6.1-6.96Z"/></svg>