<?xml version="1.0" encoding="UTF-8"?><svg id="Calque_1" xmlns="http://www.w3.org/2000/svg" viewBox="0 0 201.02 260.39"><defs><style>.cls-1{fill:#e3051b;}.cls-1,.cls-2,.cls-3,.cls-4,.cls-5,.cls-6,.cls-7,.cls-8,.cls-9,.cls-10{stroke-width:0px;}.cls-2{fill:#f1d000;}.cls-3{fill:#989898;}.cls-4{fill:#0081c6;}.cls-5{fill:#060708;}.cls-6{fill:#86658f;}.cls-7{fill:#555454;}.cls-8{fill:#21509f;}.cls-9{fill:#050606;}.cls-10{fill:#fff;}</style></defs><path class="cls-5" d="M8.03,181.53C.4,178.78.67,177.03.03,169.02c-.2-2.52.72-5.02,1.48-7.44.93-2.96,3.52-4.76,6.92-4.59,1.63.08,1.8-.43,1.62-1.75-.71-5.24-.28-10.52-.54-15.78-.04-.75-.17-1.4-.59-2.03-4.37-6.58-3.76-13.79-2.38-20.99.57-2.96,3.21-4.31,5.75-3.56,2.26.66,3.85,3.63,3.12,6.21-.96,3.4-1.3,6.78-.2,10.17.88,2.7,1.9,2.89,3.63.75,2.16-2.66,3.62-5.64,3.73-9.15.05-1.74.6-3.22,2.57-3.15,1.89.07,1.96-.8,1.92-2.28-.16-5.9-.43-11.81.42-17.69.03-.18,0-.37.03-.54,1.3-5.51,1.93-10.87.68-16.66-1.71-7.93.81-15.66,3.48-23.12,2.91-8.13,7.28-15.41,13.82-21.21.81-.72,1.68-1.38,2.55-2.04.72-.54,1.5-.62,2.27-.1.81.54.83,1.36.66,2.2-.16.8-.33,1.61-.62,2.36-.68,1.77-.38,3.37.64,4.91,1.31,1.97,2.18,4.15,2.95,6.87.36-.81.6-1.21.73-1.65,6.09-21.71,20.8-34.67,41.86-41.1,1.71-.52,2.98-1.26,4.17-2.64,2.71-3.14,5.64-6.05,10.46-4.61,1.45.43,2.97.97,3.61,2.23,1.44,2.84,3.95,2.88,6.55,3.26,21.17,3.13,36.73,13.72,44.86,34.05.67,1.67,1.08,3.46,1.53,5.21.42,1.65.74,3.32,1.29,5.82,1.71-4.5,4-7.81,6.6-10.93,1.15-1.38.59-3.15.46-4.76-.1-1.24-.24-2.47,1.12-3.04,1.4-.58,2.16.52,2.92,1.42,5.86,6.91,9.13,15.04,10.65,23.85,1.62,9.38,2.22,18.82-1.76,27.84-.97,2.2-1.08,4.11-.63,6.44,3.29,16.99,2.01,33.68-3.09,50.24-2.29,7.42-5.14,14.68-6.76,22.31-1.15,5.41-.82,10.83-.43,16.27.12,1.63,1.04,1.11,1.85.96,2.68-.47,5.4-.8,8.02-1.51,3.9-1.05,7.54-.03,11.23.91,1.46.37,2.05,1.29,1.74,2.85-.66,3.25-1.1,6.55-1.87,9.78-.94,3.92-.13,7.55,1.29,11.15.68,1.71,1.14,3.21-.07,5.1-.85,1.34-.83,3.31-.96,5.02-.46,5.81-.53,11.62-.02,17.43.15,1.73-.17,3.02-2.12,3.51-14.98,3.73-29.58,8.7-44.2,13.6-2,.67-3.92,1.43-5.89-.22-.76-.64-1.72-.15-2.55.28-10.91,5.66-22.48,9.25-34.7,10.38-21.84,2.02-42.38-1.37-59.97-15.64-7.89-6.4-13.3-14.56-15.73-24.54-.26-1.05-.51-1.8-1.73-2.1-5.01-1.23-8.91-4.34-12.6-7.74-.7-.65-1.25-1.04-2.31-1.01-7.15.18-12.59-2.75-16.07-9.11-.45-.82-.71-1.66-.65-2.6.27-4.19,1.12-8.24,2.88-12.06.73-1.59,1.99-2.75,4.38-3.53ZM181.29,79.31c-2.17,2.62-3.77,4.81-5.63,6.75-7.48,7.81-16.84,12.51-26.97,15.78-18.14,5.85-36.72,6.79-55.42,3.84-21.04-3.32-40.45-10.24-54.53-27.52-4.59,4.74-7.11,14.53-7.72,21.43-1.52,17.07,1,33.63,6.88,49.73,3.28,8.98,5.94,18.1,5.07,27.89-.91,10.21-1.23,20.55-4.26,30.4-2.36,7.68-.81,14.43,2.96,21.06,6.11,10.75,15.43,17.72,26.67,22.21,19.88,7.95,40.01,7.51,60.21,1.21,4-1.25,7.95-2.69,12.14-5.02-6.22-1.8-11.82-3.52-17.14-6.08-1.7-.82-2.44-1.46-2.03-3.62,1.77-9.26,3.99-18.44,4.65-27.89.11-1.51.77-2.5,2.45-2.75,3.67-.55,7.31-1.3,10.99-1.81,1.31-.18,1.98-.62,2.07-1.97.06-.9.49-1.82.39-2.69-.59-4.99,1.93-6.84,6.48-8.45,8.02-2.83,15.72-6.61,24.1-8.44,1.72-.38,1.94-1.16,1.79-2.86-.71-8.1-.46-16.08,2.38-23.91,2.56-7.06,4.8-14.27,6.71-21.54,2.88-10.98,3.25-22.24,2.69-33.53-.38-7.51-3.03-14.49-4.9-22.22ZM165.37,56.51c.18-2-.12-4.07-.42-6.14-3.2-22.45-21.83-38.19-44.73-41.04-.99-.12-1.54.05-1.23,1.31,1.86,7.63-.44,14.72-2.95,21.78-.47,1.33-1.12,2.43-2.7,1.99-1.49-.42-1.3-1.73-1.17-2.94.78-7.22-.97-14.02-3.46-20.69-.44-1.18-1.25-1.58-2.57-1.38-6.69,1.01-13.2,2.67-19.17,5.86-18.83,10.04-30.01,25.05-29.99,47.14,0,2.18.84,4.43.57,6.46-.39,2.97,1.41,3.68,3.27,4.69,7.68,4.2,15.81,7.25,24.24,9.57,2.23.62,2.95.35,3-2.18.17-8.73,2.42-16.91,7.79-23.93,5.75-7.52,13.07-11.82,22.9-9.59,6.49,1.47,11.01,5.76,14.46,11.23,4.56,7.23,6.02,15.28,5.98,23.68,0,1.18-.42,2.58,1.65,1.99,7.85-2.24,15.32-5.23,21.08-11.31,1.72-1.81,4.06-3.55,2.49-6.7-.2-.4.11-1.06.19-1.6.41-2.69.98-5.36.77-8.2ZM112.88,103.51c5.56.2,11.07-.37,16.54-1.13,11.68-1.61,22.89-4.75,33.13-10.78,6.1-3.59,11.39-8.08,15.09-14.24.68-1.14,1.24-2.2.05-3.41-1.79-1.81-3.65-3.51-5.9-4.76-1.45-.8-2.37-.7-3.19.97-1.62,3.31-4.1,5.96-6.95,8.28-7.31,5.96-15.96,9.11-24.99,10.77-16.98,3.12-33.93,2.15-50.69-2.02-11.7-2.92-23-6.97-32.77-14.11-3.48-2.55-5.72-1.58-8.57,0-.32.18-.61.4-.94.54-2,.87-2.14,1.91-.74,3.65,4.16,5.18,9.22,9.25,14.92,12.55,17.02,9.86,35.62,13.41,55.02,13.68ZM116.86,87.2c4.99.14,10.59-.29,16.15-1.19,1.13-.18,2.36-.21,2.42-1.94.32-9.32-1.26-18.1-7.07-25.71-7.86-10.3-20.74-10.38-28.74-.15-5.65,7.23-7.99,15.56-7.85,24.67.02,1.51.61,1.95,2.02,2.22,7.42,1.39,14.88,2.19,23.08,2.1ZM151.37,241.69c-.2,3.83.33,4.21,3.13,3.1,1.86-.73,3.71-1.48,5.61-2.08,10.89-3.44,21.63-7.35,32.68-10.28,1.07-.28,2.62-.32,2.39-2.02-.66-4.81-.22-9.6.15-14.39.14-1.83-.26-2.4-2.21-1.77-6.8,2.18-13.72,3.9-20.43,6.45-5.89,2.24-12.03,3.99-18.3,5.03-1.14.19-1.91.48-1.83,1.81.31,5.02-.69,9.93-1.19,14.15ZM37.85,192.75c.59-8.22,1.91-15.89,1.32-23.7-.38-5.13-2.34-9.79-3.73-14.64-2.05-7.17-4.54-14.2-6.46-21.7-1.69,3.22-3.02,6.33-6.18,8.06-.92.51-.66,1.61-.68,2.5-.08,4.63-.03,9.25-.38,13.88-.25,3.3-.96,6.91,3,8.92.57.29.85,1.15,1.25,1.75,1.9,2.81,2.25,6.06,2.66,9.3.81,6.33,4.11,11.19,9.19,15.63ZM179.92,40.09c-.87,1.63-1.79,2.96-2.85,4.21-4.3,5.1-6.04,11.24-7.15,17.66-.33,1.91.44,2.7,2.15,3.38,3.68,1.45,6.69,3.74,8.86,7.26,1.97,3.2,4.36,6.14,5.31,10.44,4.83-12.03.54-34.36-6.31-42.94ZM31.93,81.61c.59-1.02,1.13-2.06,1.76-3.05,3.42-5.27,7.96-9.15,14.08-10.89,3.72-1.06,4.39-1.95,4.15-5.88-.46-7.29-2.15-14.2-6.37-20.65-9.77,11.76-14.91,25.01-13.62,40.47ZM148.62,229.9c-.51-1.11,1.03-3.1-.6-3.96-1.88-1-3.4-2.38-5.09-3.57-1.25-.88-2.03-1.5-3.08.43-1.17,2.17-3.8,1.99-4.56-.3-.79-2.37-2.56-1.88-4.11-1.91-1.88-.04-2.9,1.05-3.17,2.99-.57,4.21-1.18,8.42-1.94,12.6-.26,1.41.12,1.9,1.42,2.3,5.72,1.73,11.41,3.54,17.1,5.37,1.34.43,2,.17,2.29-1.3.8-4.09,1.71-8.15,1.74-12.65ZM37.09,198.25c.23-1.58-1.13-2.05-1.94-2.78-5.44-4.88-9.11-10.71-10.12-18.09-.57-4.16-.66-4.14-4.03-1.56-1.78,1.37-2.18,3.64-.65,5.21,2.03,2.08,3.36,4.57,4.17,7.24,1.82,6.03,2.25,11.99-2.71,16.97-1.08,1.09-.12,1.7.43,2.2,2.91,2.6,5.94,5.04,9.71,6.35.85.3,1.46.57,1.74-.71,1.09-4.95,2.27-9.89,3.41-14.83ZM152.98,218.16q-.19,3.94,3.27,3.18c.53-.12,1.06-.26,1.59-.36,6.63-1.28,12.67-4.36,19.09-6.29,5.9-1.78,11.83-3.49,17.73-5.25,1.29-.39,2.92-.68,2.14-2.65-.64-1.6-.6-3.77-3.68-3.01-5.71,1.42-11.44,2.76-17.13,4.32-6.56,1.79-13.14,3.48-19.59,5.66-2.49.84-4.07,1.97-3.42,4.41ZM18.77,161.51c0-6.62-.02-13.04.02-19.46,0-1.32-.3-2.89,1.26-3.61,3.69-1.7,5.06-5.17,6.18-8.57.72-2.18,2.58-4.28,1.41-6.92-.22-.5-.27-1.18-.91-1.17-.73.01-.62.75-.71,1.26-.77,4.15-2.64,7.71-5.73,10.57-2.6,2.41-5.4,2.05-7.29-.95-.57-.9-.93-1.96-1.26-2.99-1.19-3.78-.51-7.54.23-11.29.17-.87.16-1.79-.71-2.1-.96-.34-1.23.66-1.34,1.31-1.09,6.25-2.31,12.54,2.35,18.04.65.77.58,1.67.6,2.58.05,3.54-.14,7.11.22,10.62.47,4.55-1.01,9.96,5.68,12.68ZM146.89,201.64c-.24,1.2.11,1.7,1.56,1.56,8.91-.83,17.76-2.22,26.62-3.42,1.06-.14,1.53-.63,1.18-1.6-.55-1.49-.54-3.02-.62-4.55-.09-1.82-.85-2.09-2.61-1.71-7.16,1.56-14.35,2.99-21.55,4.34-4.18.78-4.46.98-4.59,5.38ZM16.18,178.52c-3.48,1.2-4.8,4.38-7.25,6.19-3.44,2.55-5,8.51-2.65,12.03,2.28,3.42,5.46,5.47,9.56,6.03,3.13.43,4.54-.46,5.49-3.46,1.74-5.5.27-10.43-3.08-14.78-1.41-1.83-2.49-3.5-2.07-6.01ZM196.21,186.23c-5.42,1.94-10.57,2.97-15.69,4.13-.8.18-1.47.45-1.17,1.41.74,2.33-.28,5.07,1.67,7.09.11.12.52-.05.78-.08,3.5-.45,7-.92,10.51-1.34,1.19-.14,2.19-.55,2.41-1.8.52-2.93.94-5.87,1.48-9.39ZM3.5,169.6c0,3.4.99,6.16,4.34,7.76,2.01.96,3.3-.27,4.64-1.23.89-.63.11-1.52-.44-1.74-2.26-.91-1.43-2.56-1.19-4.13.31-1.98,1.62-3.16,3.12-4.25,1.64-1.19,1.46-2.8-.11-3.45-6.23-2.58-8.48-2.85-10.12,4.33-.2.88-.16,1.81-.24,2.71ZM135.42,215.84c.97.37,1.65.31,2.3-.14.62-.43,2.49-5.53,2.32-6.23-.15-.63-.62-.61-1.04-.54-2.58.42-5.17.81-7.73,1.34-1.09.23-2.24,5.6-1.43,6.27.42.35.85.02,1.27-.05,1.51-.24,3.02-.47,4.3-.67ZM115.8,21.29c0-2.48.01-4.65,0-6.83-.03-3.78-1.32-7.07-3.83-9.89-.79-.88-1.67-1.99-2.97-1.08-1.52,1.07-.44,2.21.23,3.27.1.15.17.32.29.46,2.99,3.46,4.65,7.51,5.31,12,.09.62.13,1.26.97,2.06ZM149.09,217.72c.92-3.06-.99-4.59-3.13-5.97-.62-.4-1.11-.74-1.73.26-2.18,3.54-2.02,4.99,1.26,7.42.93.69,1.93,2.14,2.9,1.73,1.26-.54.4-2.31.71-3.45ZM14.62,171.28c.14.74.45,1.23,1.04,1.6,1.54.98,6.93-1.61,7.02-3.43.02-.38-.35-.8-.59-1.17-1.05-1.56-2.43-1.08-3.88-.69-2.01.54-2.78,2.13-3.58,3.69ZM178.88,186.05l.14.67c2.24-.51,4.49-1.02,6.73-1.52-2.45-.52-4.65.24-6.87.85ZM174.38,187.53c-1.74-.75-3.26.14-5.3.69,2.24.93,3.68-.54,5.3-.69ZM188.41,184.47c-.17-.06-.34-.19-.49-.17-.24.04-.78-.15-.6.3.09.23.74.24,1.09-.13ZM168.06,189.12c.14-.07.28-.15.42-.22-.13-.08-.28-.24-.4-.22-.17.02-.31.18-.47.28.15.05.29.11.44.16Z"/><path class="cls-2" d="M181.29,79.31c1.87,7.72,4.52,14.71,4.9,22.22.57,11.29.19,22.55-2.69,33.53-1.9,7.27-4.15,14.47-6.71,21.54-2.83,7.83-3.09,15.81-2.38,23.91.15,1.7-.07,2.48-1.79,2.86-8.38,1.84-16.07,5.61-24.1,8.44-4.55,1.61-7.07,3.46-6.48,8.45.1.87-.33,1.78-.39,2.69-.09,1.35-.75,1.79-2.07,1.97-3.68.51-7.32,1.26-10.99,1.81-1.68.25-2.34,1.24-2.45,2.75-.66,9.44-2.88,18.63-4.65,27.89-.41,2.15.33,2.8,2.03,3.62,5.32,2.57,10.92,4.29,17.14,6.08-4.2,2.34-8.14,3.77-12.14,5.02-20.2,6.31-40.33,6.74-60.21-1.21-11.24-4.49-20.56-11.46-26.67-22.21-3.77-6.64-5.33-13.38-2.96-21.06,3.03-9.85,3.36-20.19,4.26-30.4.87-9.79-1.79-18.91-5.07-27.89-5.88-16.1-8.39-32.66-6.88-49.73.61-6.9,3.13-16.69,7.72-21.43,14.09,17.28,33.5,24.2,54.53,27.52,18.7,2.95,37.28,2.01,55.42-3.84,10.13-3.26,19.48-7.97,26.97-15.78,1.86-1.94,3.46-4.13,5.63-6.75ZM101.73,181.24c14,.02,27.92-.85,41.69-3.52,5.26-1.02,10.49-2.2,15.2-4.91,1.2-.69,2.53-1.6,1.51-3.21-.9-1.42-2.21-.8-3.34-.08-2.4,1.55-5.13,2.27-7.81,3.11-.84.26-2.06.7-2.23-.6-.37-2.85-2.79-4.66-3.46-7.31-.28-1.11-.68-2.19-2-2.25-1.51-.07-1.86,1.2-2.25,2.32-.87,2.58-1.69,5.22-3.43,7.35-1.33,1.63-2.4,3.63-4.95,3.88-14.28,1.36-28.57,2.23-42.92,1.2-8.42-.6-16.83-1.16-24.92-3.83-1.8-.59-3.6-1.24-4.39-3.3-.36-.95-1.25-1.33-2.25-1-1.14.38-1.46,1.33-1.26,2.41.32,1.73,1.45,2.88,2.94,3.71,2.07,1.15,4.3,1.93,6.59,2.52,12.24,3.16,24.76,3.4,37.28,3.49ZM49.69,130.36c-.08,4.57.62,8.65,2.52,12.47,4.98,10,15.9,11.55,23.46,3.34,7.08-7.69,9.18-21.44,4.7-30.88-5.31-11.21-17.3-12.48-24.87-2.61-4.07,5.3-5.84,11.39-5.82,17.68ZM167.34,128.45c-.14-6.1-2.49-13.83-9.51-19.39-6.41-5.07-14.51-3.72-19.26,2.96-2.26,3.18-3.58,6.75-3.96,10.58-.99,9.89,1.11,18.87,9.01,25.56,6.32,5.36,14.32,4.22,19.33-2.38,3.32-4.38,4.44-9.45,4.4-17.34ZM49.56,153.24c-.01-1.37-.61-2.47-2.35-2.5-1.79-.03-3.87,2.14-3.82,3.97.05,1.65.97,2.49,2.6,2.49,1.89,0,3.51-1.74,3.57-3.96ZM68.36,209.14c.05,1.56.74,2.44,2.31,2.43,1.74,0,3.73-2.03,3.59-3.76-.14-1.75-1.49-2.23-2.91-2.13-2.04.15-2.91,1.55-3,3.45Z"/><path class="cls-4" d="M165.37,56.51c.2,2.84-.36,5.51-.77,8.2-.08.54-.39,1.19-.19,1.6,1.57,3.16-.77,4.89-2.49,6.7-5.76,6.08-13.23,9.07-21.08,11.31-2.08.59-1.66-.81-1.65-1.99.05-8.41-1.42-16.46-5.98-23.68-3.45-5.47-7.98-9.76-14.46-11.23-9.82-2.23-17.15,2.07-22.9,9.59-5.37,7.02-7.61,15.2-7.79,23.93-.05,2.53-.77,2.8-3,2.18-8.43-2.33-16.56-5.37-24.24-9.57-1.86-1.02-3.66-1.72-3.27-4.69.27-2.03-.57-4.28-.57-6.46-.02-22.09,11.16-37.09,29.99-47.14,5.97-3.18,12.48-4.85,19.17-5.86,1.32-.2,2.13.2,2.57,1.38,2.5,6.67,4.24,13.47,3.46,20.69-.13,1.21-.32,2.53,1.17,2.94,1.58.44,2.23-.66,2.7-1.99,2.51-7.06,4.81-14.14,2.95-21.78-.31-1.27.24-1.44,1.23-1.31,22.9,2.85,41.53,18.59,44.73,41.04.29,2.07.59,4.13.42,6.14Z"/><path class="cls-4" d="M112.88,103.51c-19.4-.28-38-3.82-55.02-13.68-5.69-3.3-10.76-7.37-14.92-12.55-1.4-1.74-1.26-2.78.74-3.65.33-.14.63-.37.94-.54,2.85-1.59,5.09-2.55,8.57,0,9.77,7.14,21.07,11.2,32.77,14.11,16.76,4.18,33.71,5.15,50.69,2.02,9.03-1.66,17.68-4.81,24.99-10.77,2.85-2.32,5.33-4.97,6.95-8.28.82-1.67,1.74-1.78,3.19-.97,2.25,1.25,4.11,2.95,5.9,4.76,1.2,1.21.64,2.27-.05,3.41-3.7,6.16-8.99,10.65-15.09,14.24-10.24,6.03-21.45,9.18-33.13,10.78-5.48.75-10.98,1.32-16.54,1.13Z"/><path class="cls-8" d="M116.86,87.2c-8.2.09-15.66-.71-23.08-2.1-1.41-.27-2-.7-2.02-2.22-.13-9.11,2.2-17.44,7.85-24.67,8-10.23,20.88-10.15,28.74.15,5.81,7.61,7.39,16.39,7.07,25.71-.06,1.73-1.28,1.76-2.42,1.94-5.56.9-11.16,1.33-16.15,1.19Z"/><path class="cls-1" d="M151.37,241.69c.5-4.21,1.5-9.13,1.19-14.15-.08-1.33.69-1.62,1.83-1.81,6.27-1.04,12.42-2.79,18.3-5.03,6.71-2.55,13.64-4.27,20.43-6.45,1.95-.63,2.36-.06,2.21,1.77-.37,4.79-.81,9.58-.15,14.39.23,1.7-1.32,1.74-2.39,2.02-11.05,2.93-21.79,6.84-32.68,10.28-1.9.6-3.76,1.34-5.61,2.08-2.8,1.11-3.33.73-3.13-3.1Z"/><path class="cls-1" d="M148.62,229.9c-.03,4.5-.94,8.56-1.74,12.65-.29,1.47-.95,1.73-2.29,1.3-5.69-1.83-11.38-3.64-17.1-5.37-1.31-.39-1.68-.89-1.42-2.3.76-4.18,1.37-8.39,1.94-12.6.26-1.94,1.28-3.03,3.17-2.99,1.56.03,3.32-.46,4.11,1.91.76,2.29,3.39,2.48,4.56.3,1.05-1.94,1.83-1.31,3.08-.43,1.69,1.19,3.21,2.57,5.09,3.57,1.63.87.09,2.85.6,3.96Z"/><path class="cls-2" d="M37.09,198.25c-1.15,4.94-2.32,9.88-3.41,14.83-.28,1.28-.89,1.01-1.74.71-3.77-1.31-6.8-3.75-9.71-6.35-.55-.5-1.52-1.11-.43-2.2,4.96-4.98,4.53-10.94,2.71-16.97-.8-2.67-2.14-5.16-4.17-7.24-1.53-1.57-1.13-3.84.65-5.21,3.37-2.58,3.47-2.6,4.03,1.56,1.01,7.38,4.69,13.2,10.12,18.09.81.73,2.17,1.2,1.94,2.78Z"/><path class="cls-1" d="M152.98,218.16c-.65-2.43.92-3.56,3.42-4.41,6.45-2.18,13.03-3.86,19.59-5.66,5.68-1.56,11.41-2.9,17.13-4.32,3.08-.76,3.04,1.41,3.68,3.01.79,1.97-.85,2.26-2.14,2.65-5.91,1.77-11.83,3.48-17.73,5.25-6.42,1.93-12.46,5.01-19.09,6.29-.53.1-1.06.25-1.59.36q-3.45.75-3.27-3.18Z"/><path class="cls-3" d="M18.77,161.51c-6.69-2.72-5.21-8.13-5.68-12.68-.36-3.51-.18-7.07-.22-10.62-.01-.91.05-1.82-.6-2.58-4.66-5.5-3.44-11.79-2.35-18.04.11-.65.38-1.66,1.34-1.31.87.31.88,1.24.71,2.1-.74,3.75-1.43,7.51-.23,11.29.32,1.03.69,2.08,1.26,2.99,1.89,2.99,4.69,3.36,7.29.95,3.09-2.87,4.96-6.43,5.73-10.57.09-.5-.02-1.25.71-1.26.64-.01.68.67.91,1.17,1.17,2.64-.7,4.74-1.41,6.92-1.12,3.4-2.49,6.87-6.18,8.57-1.56.72-1.25,2.29-1.26,3.61-.03,6.42-.02,12.84-.02,19.46Z"/><path class="cls-2" d="M146.89,201.64c.13-4.4.41-4.59,4.59-5.38,7.2-1.35,14.39-2.78,21.55-4.34,1.75-.38,2.51-.11,2.61,1.71.08,1.53.07,3.06.62,4.55.36.97-.11,1.46-1.18,1.6-8.87,1.2-17.71,2.58-26.62,3.42-1.45.14-1.81-.36-1.56-1.56Z"/><path class="cls-3" d="M16.18,178.52c-.43,2.51.66,4.18,2.07,6.01,3.35,4.35,4.82,9.28,3.08,14.78-.95,3-2.35,3.89-5.49,3.46-4.1-.56-7.28-2.61-9.56-6.03-2.35-3.52-.79-9.48,2.65-12.03,2.45-1.81,3.76-4.99,7.25-6.19ZM19,195.04c.01-4.04-2.23-6.65-5.66-6.59-2.28.04-3.85,2.35-3.84,5.66.01,3.7,2.03,6.38,4.86,6.45,2.83.07,4.63-2.07,4.64-5.51Z"/><path class="cls-2" d="M3.5,169.6c.07-.9.04-1.83.24-2.71,1.64-7.18,3.88-6.91,10.12-4.33,1.57.65,1.75,2.26.11,3.45-1.5,1.09-2.81,2.28-3.12,4.25-.24,1.57-1.07,3.22,1.19,4.13.55.22,1.33,1.11.44,1.74-1.34.96-2.63,2.18-4.64,1.23-3.34-1.59-4.34-4.35-4.34-7.76Z"/><path class="cls-1" d="M135.42,215.84c-1.29.2-2.8.43-4.3.67-.43.07-.86.39-1.27.05-.81-.68.34-6.05,1.43-6.27,2.56-.54,5.15-.92,7.73-1.34.42-.07.89-.09,1.04.54.17.69-1.7,5.8-2.32,6.23-.65.45-1.33.52-2.3.14Z"/><path class="cls-8" d="M115.8,21.29c-.84-.81-.88-1.44-.97-2.06-.66-4.49-2.32-8.54-5.31-12-.12-.14-.19-.31-.29-.46-.67-1.06-1.75-2.2-.23-3.27,1.3-.91,2.18.19,2.97,1.08,2.51,2.81,3.8,6.11,3.83,9.89.02,2.18,0,4.35,0,6.83Z"/><path class="cls-1" d="M149.09,217.72c-.3,1.14.55,2.91-.71,3.45-.96.41-1.97-1.05-2.9-1.73-3.28-2.43-3.44-3.88-1.26-7.42.62-1,1.11-.66,1.73-.26,2.15,1.39,4.06,2.91,3.13,5.97Z"/><path class="cls-2" d="M14.62,171.28c.8-1.56,1.57-3.15,3.58-3.69,1.45-.39,2.83-.87,3.88.69.25.36.61.79.59,1.17-.09,1.83-5.48,4.42-7.02,3.43-.58-.37-.9-.86-1.04-1.6Z"/><path class="cls-6" d="M178.88,186.05c2.22-.61,4.41-1.37,6.87-.85-2.24.51-4.49,1.02-6.73,1.52l-.14-.67Z"/><path class="cls-7" d="M174.38,187.53c-1.62.15-3.06,1.63-5.3.69,2.04-.56,3.56-1.44,5.3-.69Z"/><path class="cls-6" d="M188.41,184.47c-.35.37-1,.37-1.09.13-.18-.45.37-.26.6-.3.15-.02.31.1.49.17Z"/><path class="cls-7" d="M168.05,189.12c-.15-.05-.3-.11-.44-.16.15-.1.3-.26.47-.28.12-.02.27.14.4.22-.14.07-.28.15-.43.22Z"/><path class="cls-9" d="M101.73,181.24c-12.52-.09-25.04-.33-37.28-3.49-2.29-.59-4.51-1.37-6.59-2.52-1.49-.83-2.61-1.98-2.94-3.71-.2-1.08.11-2.03,1.26-2.41,1-.33,1.89.05,2.25,1,.79,2.06,2.59,2.71,4.39,3.3,8.09,2.66,16.5,3.22,24.92,3.83,14.35,1.03,28.64.16,42.92-1.2,2.55-.24,3.62-2.25,4.95-3.88,1.74-2.13,2.56-4.77,3.43-7.35.38-1.13.73-2.4,2.25-2.32,1.31.06,1.71,1.14,2,2.25.68,2.65,3.09,4.45,3.46,7.31.17,1.3,1.4.86,2.23.6,2.68-.84,5.41-1.56,7.81-3.11,1.13-.73,2.44-1.34,3.34.08,1.02,1.6-.31,2.52-1.51,3.21-4.71,2.71-9.94,3.9-15.2,4.91-13.77,2.66-27.69,3.54-41.69,3.52ZM137.89,175.3c2.24-1.08,4.68-.18,5.33-1.8.53-1.34-.39-3.32-2-4.35-.99,1.84-1.97,3.65-3.33,6.15Z"/><path class="cls-9" d="M49.69,130.36c-.02-6.29,1.75-12.38,5.82-17.68,7.57-9.87,19.56-8.6,24.87,2.61,4.47,9.44,2.38,23.18-4.7,30.88-7.56,8.21-18.48,6.66-23.46-3.34-1.9-3.82-2.6-7.89-2.52-12.47ZM78.96,125.5c.12-2.85-.77-6.89-3.03-10.55-3.73-6.02-10.24-6.86-15.47-2.07-7.29,6.67-9.42,20.39-4.5,28.96,4.05,7.06,11.01,7.95,16.65,2.02,4.48-4.71,6.25-10.52,6.36-18.36Z"/><path class="cls-9" d="M167.34,128.45c.04,7.89-1.08,12.95-4.4,17.34-5,6.6-13,7.73-19.33,2.38-7.89-6.69-9.99-15.66-9.01-25.56.38-3.83,1.69-7.4,3.96-10.58,4.75-6.68,12.85-8.03,19.26-2.96,7.02,5.55,9.37,13.28,9.51,19.39ZM138.1,126.71c.08,6.89,1.98,13.11,7.15,17.93,5.21,4.86,11.36,4.01,15.27-1.93,5.68-8.64,3.52-23.58-4.38-30.23-5.05-4.25-11.06-3.44-14.75,2.06-2.46,3.66-3.38,7.78-3.29,12.17Z"/><path class="cls-9" d="M49.56,153.24c-.06,2.22-1.68,3.96-3.57,3.96-1.64,0-2.56-.84-2.6-2.49-.05-1.83,2.03-4,3.82-3.97,1.74.03,2.34,1.13,2.35,2.5Z"/><path class="cls-5" d="M68.36,209.14c.09-1.9.95-3.3,3-3.45,1.41-.1,2.76.38,2.91,2.13.14,1.73-1.85,3.75-3.59,3.76-1.58,0-2.26-.88-2.31-2.43Z"/><path class="cls-5" d="M19,195.04c0,3.45-1.81,5.59-4.64,5.51-2.83-.07-4.85-2.75-4.86-6.45-.01-3.31,1.56-5.62,3.84-5.66,3.43-.05,5.67,2.56,5.66,6.59ZM15.63,194.8c-.4-.66,0-2.03-1.55-2.21-1.27-.14-1.3.77-1.21,1.58.13,1.12.08,2.57,1.61,2.7,1.07.09,1.03-1.02,1.14-2.07Z"/><path class="cls-3" d="M137.89,175.3c1.35-2.51,2.33-4.32,3.33-6.15,1.61,1.03,2.54,3.01,2,4.35-.65,1.63-3.09.72-5.33,1.8Z"/><path class="cls-10" d="M78.96,125.5c-.11,7.84-1.88,13.64-6.36,18.36-5.64,5.93-12.6,5.04-16.65-2.02-4.92-8.56-2.79-22.28,4.5-28.96,5.23-4.79,11.74-3.95,15.47,2.07,2.27,3.65,3.15,7.7,3.03,10.55ZM70.17,129.93c.01-2.89-1.86-4.94-4.56-5-2.75-.07-4.78,2.35-4.81,5.74-.03,3.2,1.61,5.38,4.06,5.38,2.8,0,5.29-2.88,5.3-6.12Z"/><path class="cls-10" d="M138.1,126.71c-.1-4.38.83-8.5,3.29-12.17,3.69-5.5,9.7-6.31,14.75-2.06,7.9,6.65,10.07,21.59,4.38,30.23-3.91,5.94-10.06,6.79-15.27,1.93-5.17-4.82-7.07-11.04-7.15-17.93ZM156.24,130.7c-.02-3.39-2.04-5.82-4.78-5.77-2.69.04-4.59,2.09-4.59,4.97,0,3.24,2.47,6.13,5.27,6.16,2.46.02,4.12-2.15,4.1-5.36Z"/><path class="cls-9" d="M70.17,129.93c-.01,3.24-2.51,6.12-5.3,6.12-2.45,0-4.1-2.18-4.06-5.38.04-3.39,2.06-5.81,4.81-5.74,2.7.06,4.57,2.12,4.56,5Z"/><path class="cls-9" d="M156.24,130.7c.02,3.21-1.64,5.38-4.1,5.36-2.8-.02-5.27-2.91-5.27-6.16,0-2.88,1.89-4.93,4.59-4.97,2.74-.04,4.76,2.39,4.78,5.77Z"/></svg>