<?xml version="1.0" encoding="UTF-8"?><svg id="Calque_1" xmlns="http://www.w3.org/2000/svg" viewBox="0 0 200.1 266.92"><defs><style>.cls-1{fill:#fbfbfb;}.cls-1,.cls-2,.cls-3,.cls-4{stroke-width:0px;}.cls-2{fill:#05050b;}.cls-3{fill:#fff;}.cls-4{fill:#05060c;}</style></defs><path class="cls-2" d="M198.21,210.14c3.33-.2,1.27-2.1,1.17-3.21-.09-1.12-.51-2.25-1-3.27-1.39-2.85-.99-5.66.06-8.44,1.76-4.64,2.45-9.21.25-13.96-.55-1.2-.84-1.89-2.31-1.74-6.09.58-12.14,1.49-18.03,3.07-2.01.53-2.5-.42-2.65-1.64-.6-5.05-1.31-10.08.1-15.17,2.09-7.53,4.83-14.85,7.62-22.12,3.34-8.7,5.98-17.56,6.71-26.84.26-3.39,1.11-6.82.59-10.23-.98-6.47-1.01-13.11-3.18-19.4-.18-.54-.17-1.4.14-1.83,4.72-6.52,3.41-14.06,2.88-21.11-.8-10.5-6.38-19.4-11.78-28.2-.35-.57-.71-1.05-1.45-.97-.86.1-1.09.66-1.31,1.44-.41,1.42-.79,2.97-1.66,4.1-3.64,4.72-6.32,9.94-8.64,16.11.07-7.07-1.49-13.21-3.02-19.31-.96-3.8-2.39-7.45-4.94-10.67-4.62-5.81-10.54-9.88-16.86-13.49-6.08-3.47-12.5-6.08-19.47-7.04-2.44-.33-4.62.33-6.39-2.74-2.42-4.2-10-5.45-14.32,1.09-.88,1.32-1.95,1.79-3.11,2.09-10.65,2.78-19.54,8.61-27.84,15.59-9.23,7.76-12.88,18.5-16.31,30.3.19-2.23-.51-3.5-1.25-4.64-2.3-3.56-4.41-7.03-2.21-11.52.28-.58-.3-2.4-2.15-1.47-2.02,1.02-3.43,2.57-4.88,4.25-5.93,6.85-10.22,14.63-13.16,23.11-2.08,5.97-3.66,12.16-1.85,18.5.62,2.17.68,3.86-.24,5.98-1.97,4.54-3.31,9.34-3.16,14.36.14,4.96-.53,9.93.46,14.88.14.73.74,2.01-.68,2.48-3.07,1-4.17,2.37-4.14,5.63.02,2.09-.16,4.08-1.13,5.95-.62,1.19-1.24,2.67-2.78,2.51-1.71-.17-2.16-1.9-2.59-3.26-.24-.78-.11-1.74.15-2.65.81-2.8,1.63-5.6,1.46-8.61-.1-1.79-.63-3.3-2.36-3.72-1.98-.47-4.34-.86-5.69,1.19-3.66,5.58-6.21,16.23,1.23,22.65.57.49,1.34.91,1.34,1.91.02,5.5.89,10.98.54,16.5-.04.68.04.91-.99.87-2.26-.1-4.84.16-6.31,1.98-5.01,6.19-3.81,17.37,3.03,20.98.9.48,1.49.96.38,1.6-3.11,1.78-3.67,5.1-4.55,7.99-2.29,7.46-.68,12.99,5.23,17.61,3.52,2.75,7.18,1.22,10.6-.7,2.54,6.62,7.39,9.77,13.41,10.15,2.14.14,2.62.92,3.24,2.71,2.01,5.8,4.1,11.59,7.53,16.78,2.24,3.39,5.15,6.09,8.37,8.76-2.35,1.04-4.56,1.86-6.64,2.95-4,2.09-4.46,5.32-1.2,8.35,3.37,3.13,7.75,4.12,12,5.22,11.85,3.07,24.02,4.38,36.17,4.77,13.01.41,26.06.53,39.11-.26,9.38-.57,18.71-1.33,27.96-2.86,5.98-1,11.94-2.19,17.33-5.2,2.65-1.48,4.74-3.65,4.68-6.6-.05-2.37-2.35-3.77-4.59-4.7-1.66-.69-3.27-1.52-4.97-2.32,8.6-2.76,16.88-6.12,25.49-8.47,1.21-.33,2.79-.86,2.72-2.53-.17-3.67.43-7.35-.42-11.05-.7-3.02-.81-6.18-1.17-9.28-.17-1.37.42-3.13,1.43-3.19ZM36.41,194.26c-3.71-3.47-6.28-7.43-7.52-12.24-.99-3.84-1.34-7.83-2.74-11.57-1.05-2.82-2.62-5.24-5.73-6.14-.58-.17-.85-.15-.84-.95.13-5.48.96-10.95.92-16.39-.04-4.32,2.03-6.84,4.8-9.35,1.09-.98,1.33-2.44,2.36-3.9.86,6.65,3.06,12.74,4.69,18.97,1.84,7.04,3.7,14.01,4.29,21.35.54,6.69.49,13.29-.23,20.22Z"/><path class="cls-3" d="M146.01,249.57c-8.21,3.87-17.07,5.49-25.84,7.35-8.45,1.79-17.02,2.42-25.68,2.26-13.04-.25-24.93-3.96-35.67-11.3-2.72-1.86-5.7-3.29-8.27-5.43-6.36-5.3-9.34-12.58-12.47-19.91-3.09-7.24-2.37-14.45-.75-21.69,2.08-9.35,3.01-18.8,2.39-28.33-.64-9.94-3.64-19.41-6.6-28.86-2.57-8.21-4.12-16.63-5.37-25.13-.79-5.36-1-10.71-1.09-16.11-.08-4.82.79-9.51,3.02-13.61,2.19-4.03,4.23-8.4,8.4-11.04.7-.45.95-.69,1.5.24,6.87,11.66,18.04,17.69,30.04,22.43,8.32,3.29,17.02,5.13,25.95,6.12,8.31.93,16.6,1.37,24.9.46,16.45-1.81,32.32-5.46,46.14-15.27,5.52-3.92,10.32-8.51,13.44-14.83,3.65,7.38,6.27,14.69,7.01,22.8,1.29,14.15-1.18,27.59-6.12,40.73-3.07,8.15-6.51,16.19-8.28,24.76-.9,4.36-.62,8.8-.1,13.18.16,1.37.11,2.8.7,4.17.56,1.31-.79,1.65-1.66,1.85-8.86,2.1-17.42,5.15-25.98,8.22-1.91.68-2.84,1.84-2.87,3.93-.02,1.96-.22,3.94-.56,5.87-.28,1.6-1.04,2.87-2.93,3.27-2.85.6-5.63,1.51-8.46,2.19-4.98,1.2-5.14,1.16-5.4,6.09-.17,3.16-.46,6.33-.51,9.48-.08,4.96-.83,9.79-2.37,14.42-.79,2.38-.11,3.05,1.91,3.88,6.63,2.73,13.58,4.49,20.28,7,.53.2,1.02.28,1.29.82Z"/><path class="cls-3" d="M110.69,34.94c5.94-7.84,8.5-16.46,6.47-26.41,12.98,2.64,24.48,7.92,34.41,16.56,6.51,5.67,9.11,13.43,11.38,21.31,2.01,6.97,1.26,14.17.96,21.24-.16,3.6-3.53,5.79-6.47,7.83-6.07,4.19-12.89,6.53-20.01,8.54-.69-9.47-2.87-18.52-8.23-26.48-3.87-5.75-9.07-9.76-16.35-9.88-6.52-.1-10.99,3.86-14.67,8.6-6.5,8.36-8.87,18.25-9.85,28.57-.08.8.16,1.78-1.2,1.43-6.94-1.75-13.91-3.36-20.4-6.56-5.56-2.73-9.85-6.7-11.97-12.52-1.02-2.79-.26-5.92.37-8.78,1.89-8.59,4.67-16.93,9.2-24.47,3.96-6.6,10.17-11.1,16.59-15.13,7.02-4.4,14.38-8,22.68-9.57,2.43-.46,3.4.78,4.07,2.07,2.51,4.87,5.01,9.76,3.64,15.66-.59,2.55.74,5.36-.6,7.98Z"/><path class="cls-3" d="M113.93,103.81c-18.91.02-35.1-3.05-50.42-10.04-8.24-3.76-15.12-9.37-20.58-16.64-.91-1.22-1.26-2.15.57-3.02,2.4-1.15,4.72-2.42,7.28-3.24.97-.31,1.63-.4,2.02.47,3.85,8.59,11.8,11.8,19.74,14.78,6.62,2.49,13.62,3.52,20.7,4.07,6.58.51,13.15,1.35,19.73.98,14.08-.78,27.95-2.74,40.73-9.26,5.43-2.77,9.98-6.62,12.95-12.08,1.19-2.19,3.01-.67,4.51-.76.79-.05,1.64.67,2.44,1.07,6,3.04,6.2,4.45,2.19,9.69-8.45,11.02-20.31,16.42-33.13,20.04-10.03,2.84-20.36,4.11-28.73,3.93Z"/><path class="cls-3" d="M105.77,87.93c-5.33.21-10.11-.73-14.94-1.05-1.46-.1-1.48-1.05-1.43-2.1.18-4.44,1.32-8.68,2.73-12.85,1.85-5.48,4.61-10.48,8.33-14.89,8.78-10.44,19.63-7.76,26.83,1.03,5.8,7.08,8.05,15.56,8.46,24.6.06,1.35-.18,1.79-1.75,2.15-6.45,1.46-12.94,2.38-19.54,2.61-3.05.1-6.07.95-8.68.51Z"/><path class="cls-3" d="M195.86,212.13c-1.67,4.01-.6,7.64,0,11.17.56,3.26.12,6.47.35,9.7.1,1.42-1.12,1.33-2,1.62-7.77,2.54-15.57,5.01-23.31,7.66-3.71,1.27-7.3,2.86-11.07,4.05-3.77,1.19-7.5,1.37-11.54,1.36,2.47-4.53,1.88-9.47,2.65-14.16.43-2.64.43-5.36.58-8.05.04-.68.02-1.13.96-1.25,14.88-1.93,29.3-5.52,43.38-12.1Z"/><path class="cls-3" d="M123.37,239.87c2.02-5.81,3.41-11.71,3.08-17.9-.06-1.12.33-1.3,1.42-1.63,3.07-.94,6.28.25,9.22-1.32.49,1.79-1.49,2.68-.54,4.16,1.73-.38,1.97-2.05,2.76-3.38,3.1,2.03,6.17,3.97,9.17,6.02,1.8,1.24.89,3.15.72,4.7-.54,4.93-1.47,9.82-1.96,14.75-.2,2-.66,2.13-2.41,1.54-7.12-2.4-14.29-4.64-21.47-6.94Z"/><path class="cls-3" d="M186.16,83.01c-2.05-4.38-3.27-9-6.41-12.61-2.49-2.86-5.81-4.82-9.38-5.15-3.15-.29-3.21-2.01-3.13-3.96.11-2.75,1.28-5.28,2.59-7.69,2.44-4.51,4.97-8.96,7.45-13.45.28-.51.46-1.08.69-1.62,11.57,18.74,12.97,33.77,8.2,44.48Z"/><path class="cls-3" d="M30.49,80.54c-1.65-15.68,5.65-28.09,15.21-40.65.22,5.9,4.6,9.12,5.72,13.99.94,4.12.83,8.18.92,12.29.01.56-.03,1-.82,1.08-9.18.93-15.44,6.41-21.02,13.28Z"/><path class="cls-3" d="M195.58,199.96c.32,2.7.13,5.54,1.92,7.87,1.05,1.37-.51,1.28-.94,1.54-6.71,4.2-14.22,6.39-21.8,8.3-7.09,1.79-14.25,3.27-21.38,4.88-1.34.3-2.1-.02-1.86-1.59.08-.53.05-1.09,0-1.63-.35-3.85-.33-3.76,3.44-4.79,13.75-3.78,27.49-7.58,40.11-14.47.14-.08.33-.07.5-.11Z"/><path class="cls-3" d="M177.61,198.63c1.17-1.79.56-3.64.57-5.37,0-1.21.4-1.92,1.44-2.17,6-1.44,11.88-3.19,17.46-6.21.75,3.18-.61,5.9-.92,8.74-.34,3.18-1.91,3.27-4.6,3.51-6.62.61-13.18,1.91-19.78,2.88-3.43.51-6.88.97-10.33,1.33-4.61.48-9.27.6-13.83,1.59-2.46.54-3.01.06-2.65-2.25.7-4.44.69-4.63,4.95-4.73,8.43-.2,16.64-1.84,24.85-3.53.98-.2,1.02-.22,1.38.68.72,1.75.12,3.77,1.46,5.55Z"/><path class="cls-3" d="M23.81,170.74c.99,3.92,1.97,7.57,2.82,11.25.98,4.21,2.92,7.92,6.34,10.5,2.76,2.09,3.24,4.44,2.48,7.52-1.19,4.79-1.8,9.67-1.63,14.62.05,1.42-.38,1.85-1.71,1.12-4.28-2.33-8.88-4.19-11.75-8.48-.78-1.16-1.22-1.89.08-3.26,5.48-5.76,5.51-13.19.94-20.29-1.16-1.8-2.24-3.66-3.4-5.46-.48-.75-.9-1.37.22-1.94q3.71-1.9,5.64-5.59Z"/><path class="cls-3" d="M12.03,150.62c.42-3.61-.99-8.06-.56-12.57.1-1.02-.57-1.4-1.17-1.93-2.21-1.97-4.36-4.08-4.52-7.24-.22-4.1.34-8.06,3.12-11.37.79-.95,1.65-1.58,3.03-.94,1.6.74,1.31,2.1,1.08,3.25-.56,2.87-1.65,5.63-1.55,8.62.02.63-.04,1.29.11,1.89.68,2.77,3.37,5.22,5.47,5.06,2.51-.2,5.29-3.53,5.26-6.82-.02-2.01.56-3.9.63-5.87.04-1.01.71-1.89,1.58-1.92,1.19-.04,1.06,1.11,1.14,2.02.29,3.16,1.66,6.25.03,9.48-1.06,2.09-2.01,4.17-4.04,5.5-1.69,1.11-2.53,2.72-2.53,4.7,0,6.84-.98,13.65-.58,20.5.03.47.26,1.12-.54,1.3-.85.19-.97-.43-1.3-.98-.45-.75-.32-1.71-1.14-2.34-1.24-.96-2.97-1.91-3.36-3.21-.57-1.91-.15-4.13-.15-7.12Z"/><path class="cls-3" d="M16.72,176.29c-.32,3.85,1.02,6.45,2.86,8.99,3.03,4.17,4.77,8.54,1.76,13.62-2.86,4.84-8.05,5.84-12.55,2.26-6.07-4.83-5.45-11.11-1.8-16.83,1.1-1.72,2.34-3.2,4.58-3.77,2-.51,3.18-2.51,5.15-4.26Z"/><path class="cls-3" d="M2.73,168.71c.02-4.31,1.45-6.78,4.55-7.83,2.4-.81,6.09.42,7.32,2.53.34.59.6,1.08-.38,1.76-3.69,2.56-3.99,6.61-.84,10,1.1,1.19.89,1.55-.48,2.28-4.31,2.28-7.48,1.06-9.15-3.58-.61-1.7-1.12-3.35-1.02-5.16Z"/><path class="cls-3" d="M126.23,219.68c1.48-3.03.11-5.81,1.24-8.4.31-.73.37-1.06,1.27-1.26,3.77-.85,7.54-1.75,11.22-2.93,1.59-.51,1.33.27,1.12,1.06-.64,2.38-1.48,4.71-2.03,7.1-.23,1-.79.83-1.36.8-3.96-.15-7.36,1.54-11.45,3.62Z"/><path class="cls-3" d="M149.52,223.48c-2.75-2.55-5.14-5.08-8.46-6.37-.77-.3-.36-.98-.16-1.59.94-2.81,1.81-5.65,2.71-8.5,1.79,2.78,3,6.07,5.93,8.11.72.5.37,1.35.34,2.01-.09,2,.37,4.05-.36,6.33Z"/><path class="cls-3" d="M149.93,193.63c5.85-2.38,11.31-3.82,16.75-5.35,2.03-.57,4.08-1.08,6.12-1.64,1.08-.3,1.46-.14,1.83,1.18.37,1.28.12,1.58-.89,1.81-7.34,1.62-14.69,3.17-22.16,4.1-.32.04-.66-.03-1.65-.09Z"/><path class="cls-3" d="M198.09,182.4c-4.57,1.56-8.46,2.95-12.39,4.21-2.09.67-4.26,1.05-6.36,1.7-1.18.36-1.9.08-2.16-1.08-.25-1.09.03-1.95,1.31-2.2,4.68-.91,9.33-1.96,14.04-2.67,1.52-.23,3.06-1.27,5.56.05Z"/><path class="cls-3" d="M18.39,167.01c.76.16,1.59-.1,2.49.38,2.4,1.26,2.65,2.02.73,3.87-.88.85-1.56,1.93-2.84,2.41-1.48.56-2.96.9-4.24-.13-1.05-.84-1.64-2.22-1.29-3.53.47-1.76,1.89-2.7,3.69-2.99.44-.07.9-.01,1.45-.01Z"/><path class="cls-3" d="M114.66,18.96c-2.53-5.45-3.6-11.73-10.18-13.62,3.7-2.64,7.49-1.49,9.08,2.92,1,2.79,1.58,7.85,1.1,10.7Z"/><path class="cls-2" d="M55.5,169.27c4.7,5.91,11.52,6.04,17.66,7.43,10.56,2.39,21.3,3.89,32.19,3.37,6.52-.31,12.97-1.32,19.4-2.42,1.05-.18,2.12-.28,3.18-.45,6.54-1.08,8.89-6.43,11.61-11.41.21-.38.39-.79.48-1.21.14-.66.43-1.27,1.12-1.34.85-.08.82.89,1.04,1.34,1.07,2.11,2.32,4.17,2.31,6.71,0,2.11.97,2.76,3.16,2.1,3.5-1.06,7.11-1.77,10.72-2.46-4.19,2.54-8.87,3.88-13.47,5.26-9.35,2.8-18.93,4.74-28.6,5.99-7.85,1.01-15.73,1.67-23.71.71-10.25-1.23-20.43-2.56-30.2-6.06-2.55-.92-4.73-2.36-6.56-4.37-.77-.85-.98-1.64-.32-3.19Z"/><path class="cls-2" d="M147.48,107.03c5.92.5,10.14,3.23,13.29,7.63,3.48,4.86,5.27,10.26,5.56,16.33.31,6.34-.51,12.11-5.17,16.84-4.21,4.28-9.41,4.28-14.67.74-6.24-4.2-9.33-10.44-10.78-17.63-1.12-5.55-.82-10.96,1.73-16.08,2.15-4.33,5.59-7.05,10.03-7.82Z"/><path class="cls-2" d="M50.15,131.98c-.41-7.24,1.57-13.92,6.31-19.22,5.11-5.72,10.19-8.21,17.06-2.95,3.19,2.44,4.75,6.11,5.48,9.96,1.71,9.06-.1,17.51-5.48,24.96-3.8,5.26-10.65,9.45-17.34,3.92-3.02-2.5-4.42-6.05-5.51-9.75-.67-2.29-.45-4.61-.53-6.92Z"/><path class="cls-2" d="M46.54,151.14c1.34.23,3.15-.26,3.09,2.17-.06,2.35-1.57,4.89-3.13,4.97-1.45.07-4.14-2.73-3.9-4.47.28-2.09,1.86-2.87,3.95-2.67Z"/><path class="cls-2" d="M73.7,207.86c-.22,2.47-.08,4.5-2.36,4.89-1.84.31-4.55-2.75-4.25-4.72.3-1.96,1.7-2.41,3.57-2.36,2.05.06,3.4.49,3.04,2.19Z"/><path class="cls-4" d="M16.35,194.99c-.34,1.49-1.03,3.25-3.18,3.59-1.61.26-3.55-2.48-3.32-4.72.2-1.94.72-3.93,2.97-4.45,1.2-.28,3.54,3.31,3.53,5.58Z"/><path class="cls-3" d="M141.28,165.13c1.51,2.51,1.8,4.93,2.57,7.17.3.86.19,2-.97,2.14-2.68.31-5.25,1.4-8.59,1.23,3.69-2.84,5.51-6.39,6.99-10.54Z"/><path class="cls-3" d="M164.66,133.11c.13,5.44-.98,10.3-5.44,14.02-3.67,3.06-9.18,2.21-12.52-.48-5.81-4.67-8.64-10.89-9.96-18.11-.86-4.67-.04-8.87,1.65-13.18,3.05-7.77,12.88-6.58,16.96-3.14,6.46,5.45,9.3,12.55,9.31,20.88Z"/><path class="cls-3" d="M51.23,132.23c.22-7.3,2.42-13.93,7.21-19.48,2.47-2.87,6.02-4.48,9.76-3.95,4.52.64,7.28,3.93,8.63,8.15,3.32,10.39,1.74,20.1-5.51,28.24-6.18,6.95-14.06,6.16-18.19-3.4-1.29-2.98-2.07-6.22-1.89-9.58Z"/><path class="cls-1" d="M14.18,194.27c.13.91-.35,1.72-1.2,1.71-.84-.02-1.11-1.13-1.24-1.81-.16-.82.68-1.41,1.4-1.47.93-.08,1.07.75,1.04,1.57Z"/><path class="cls-2" d="M155.35,130.97c0,4.05-1.43,6.06-4.31,6.05-3.04,0-5.98-2.87-6.05-5.89-.07-3.48,2.36-6.12,5.64-6.11,3.38.01,4.72,1.7,4.72,5.94Z"/><path class="cls-2" d="M66.58,123.26c1.65-.22,2.41,1.72,2.61,3.88.29,3.11-.84,5.95-2.71,8.34-1.16,1.49-2.95,2-4.6.43-1.97-1.88-3.31-4.05-1.88-6.83,1.23-2.4,1.74-5.58,6.6-5.82Z"/></svg>