<?xml version="1.0" encoding="UTF-8"?><svg id="Calque_1" xmlns="http://www.w3.org/2000/svg" viewBox="0 0 1135 682.26"><defs><style>.cls-1{fill:#000;stroke-width:0px;}</style></defs><path class="cls-1" d="M1134.98,12.22c-9.49.38-18.97.77-28.8,1.16-1.15,5-2.43,9.72-3.29,14.52-.77,4.31-1.26,8.69-1.56,13.06-.37,5.41-.27,10.85-.62,16.26-.6,9.15-1.42,18.29-2.12,27.44-.23,3.05-.43,6.11-.56,9.17-.22,5.33-.42,10.66-.55,15.99-.33,13.87-.73,27.73-.86,41.6-.1,9.63.26,19.25.29,28.88.06,16.81.09,33.62,0,50.42-.09,15.97-.33,31.95-.53,47.92-.17,13.43-.36,26.86-.54,40.29-.18,13.07-.41,26.13-.54,39.2-.22,22.61-.42,45.21-.52,67.82-.03,6.25.28,12.5.53,18.75.3,7.58.7,15.16,1.08,22.73.34,6.85.72,13.69,1.09,20.54.36,6.75.72,13.5,1.09,20.26.35,6.21.7,12.42,1.09,18.62.52,8.36,1.06,16.71,1.64,25.06.51,7.36,1,14.71,1.65,22.06.82,9.21,1.8,18.41,2.69,27.61.75,7.77,1.1,15.61,2.28,23.31,2.08,13.57,4.62,27.08,7.13,40.59.16.87,1.62,1.6,2.6,2.19.88.53,1.94.78,2.92,1.16-.09.29-.19.58-.28.87-.59.06-1.18.19-1.77.17-11.5-.36-23-.72-34.5-1.11-4.62-.15-9.24-.42-13.86-.51-11.88-.23-23.77-.37-35.65-.57-9.44-.16-18.87-.34-28.31-.54-16.61-.36-33.22-.69-49.82-1.15-9.43-.26-18.85-.7-28.27-1.12-10.41-.47-20.81-1.09-31.21-1.53-15.31-.65-30.62-1.28-45.94-1.75-15.78-.49-31.56-.86-47.35-1.16-15.06-.29-30.13-.58-45.19-.62-60.77-.16-121.55-.17-182.32-.33-24.89-.07-49.77-.37-74.66-.57-17.26-.14-34.52-.38-51.77-.46-45.61-.22-91.22-.42-136.83-.53-10.17-.02-20.33.31-30.5.53-6.16.13-12.33.33-18.49.54-9.86.34-19.72.68-29.58,1.1-7.04.3-14.08.68-21.11,1.08-8.82.51-17.63,1.05-26.44,1.65-7.09.48-14.17,1.05-21.26,1.62-8.87.71-17.74,1.44-26.61,2.19-6.18.52-12.35,1.1-18.52,1.62-8.68.74-17.36,1.47-26.04,2.19-6.63.55-13.26,1.06-19.88,1.64-9.95.87-19.89,1.8-29.83,2.69-6.36.57-12.73,1-19.07,1.69-5.96.65-11.89,1.56-17.83,2.35-1.33.18-2.67.35-4.14.54-.3.88-.66,1.9-1.01,2.92-.23-.02-.46-.04-.69-.07.14-2.13.18-4.27.45-6.38.61-4.7,1.71-9.36,1.96-14.08.74-14.07,1.36-28.16,1.66-42.25.39-18.6.51-37.22.61-55.83.09-16.26.06-32.53-.04-48.79-.08-12.08-.23-24.16-.57-36.23-.42-14.96-1.13-29.92-1.59-44.89-.61-20.23-1.3-40.47-1.6-60.71-.52-35.33-.77-70.67-1.14-106-.16-15.44-.38-30.88-.54-46.32C.65,185.04.17,149.35,0,113.65c-.06-12.14.61-24.28,1.05-36.42.25-7.04.67-14.08,1.08-21.12.51-8.73,1.2-17.45,1.6-26.19.35-7.6.67-15.21.42-22.8-.09-2.63-.31-4.64,2.47-5.48,1.6-.48,3.37-.57,5.06-.6C38.16.65,64.64.15,91.12,0c11.21-.06,22.43.65,33.64,1.03,4.42.15,8.85.36,13.27.53,9.48.37,18.97.72,28.45,1.1,8.49.34,16.97.75,25.46,1.07,10.21.39,20.43.73,30.64,1.11,4.61.17,9.22.42,13.83.53,16.5.39,33,.75,49.5,1.11,8.89.19,17.78.49,26.68.52,67.69.22,135.38.36,203.06.58,17.52.06,35.05.33,52.57.53,13.89.16,27.77.35,41.66.54,12.89.17,25.77.39,38.66.54,18.88.21,37.77.42,56.65.57,26.62.21,53.23.52,79.85.5,67.87-.07,135.74-.39,203.61-.44,34.16-.03,68.32.27,102.49.49,13.8.09,27.6.34,41.4.55.82.01,1.64.29,2.46.44,0,.31-.01.62-.02.92ZM1102.06,13.35c-4.29.26-8.08.59-11.88.71-13.32.41-26.65.75-39.98,1.13-6.25.17-12.49.36-18.74.54-6.25.18-12.5.37-18.75.54-6.52.19-13.05.37-19.57.54-6.8.19-13.6.37-20.4.54-14.41.37-28.83.73-43.24,1.09-7.52.19-15.04.37-22.56.54-8.16.19-16.32.38-24.47.54-9.43.19-18.86.41-28.3.54-15.62.22-31.24.55-46.86.52-33.97-.06-67.95-.29-101.92-.52-14.34-.1-28.68-.33-43.02-.54-10.07-.15-20.13-.35-30.2-.54-9.52-.18-19.04-.36-28.57-.55-8.98-.18-17.96-.37-26.93-.54-9.52-.19-19.04-.37-28.57-.55-10.25-.19-20.5-.38-30.75-.54-12.16-.2-24.31-.42-36.47-.54-22.61-.22-45.23-.35-67.85-.57-12.35-.12-24.7-.32-37.05-.48-15.17-.2-30.33-.37-45.5-.61-7.17-.11-14.33-.32-21.5-.52-12.87-.36-25.74-.7-38.61-1.12-9.23-.3-18.45-.68-27.68-1.08-11.74-.51-23.47-1.07-35.2-1.64-6.58-.32-13.15-.71-19.73-1.08-9.73-.54-19.45-1.09-29.18-1.64-6.21-.35-12.42-.75-18.63-1.08-10.54-.57-21.09-1.13-31.63-1.64-7.96-.38-15.92-.88-23.89-.98-15.79-.22-31.59-.3-47.39-.24-10.07.04-20.14.43-30.05.66.56,4.79,1.53,9.45,1.58,14.13.31,32.5.41,65,.63,97.5.05,7.33.33,14.67.53,22,.16,5.88.34,11.76.54,17.64.35,10.12.72,20.24,1.09,30.37.37,10.22.74,20.43,1.09,30.65.21,6.07.39,12.13.55,18.2.2,7.61.39,15.23.54,22.84.2,10.16.41,20.33.54,30.49.22,18.52.35,37.05.57,55.57.1,8.44.34,16.87.51,25.31.2,10.16.36,20.32.58,30.48.14,6.52.34,13.05.53,19.57.36,12.22.73,24.45,1.1,36.67.17,5.8.53,11.59.5,17.39-.09,18.96-.17,37.92-.56,56.88-.24,11.63-1.05,23.26-1.58,34.89-.22,4.78-.34,9.57-.56,14.35-.14,2.97-.33,5.94-.57,8.9-.69,8.51-1.44,17.02-2.14,25.52-.4,4.84-.67,9.69-1.17,14.52-.61,5.88-1.35,11.75-2.12,17.62-.8,6.12-1.66,12.23-2.57,18.33-.51,3.4-1.18,6.77-1.8,10.28,5.04-.99,9.74-2,14.47-2.82,6.16-1.06,12.34-2.03,18.52-2.93,6.38-.92,12.77-1.75,19.17-2.53,5.35-.65,10.71-1.11,16.06-1.73,5.61-.65,11.2-1.45,16.8-2.08,5.62-.63,11.26-1.08,16.88-1.71,7.3-.83,14.58-1.83,21.88-2.64,5.89-.65,11.81-1.09,17.7-1.71,7.94-.84,15.86-1.86,23.8-2.64,6.9-.68,13.82-1.09,20.72-1.68,10.04-.87,20.07-1.87,30.11-2.68,7.99-.65,16-1.16,24.01-1.64,10.18-.6,20.37-1.14,30.55-1.65,8.21-.41,16.43-.79,24.65-1.08,11.77-.42,23.54-.77,35.32-1.1,8.62-.24,17.24-.43,25.85-.54,17.62-.22,35.23-.47,52.85-.54,53.51-.23,107.03-.35,160.54-.57,27.88-.12,55.77-.34,83.65-.54,21.62-.16,43.23-.5,64.85-.5,23.7,0,47.41.29,71.11.51,13.79.13,27.58.33,41.37.55,6.88.11,13.76.37,20.64.53,8.42.2,16.85.28,25.27.58,6.4.22,12.79.72,19.18,1.05,10.9.57,21.81,1.08,32.71,1.66,6.21.33,12.43.59,18.62,1.13,8.85.77,17.67,1.81,26.51,2.67,8.05.78,16.11,1.37,24.15,2.23,9,.97,17.97,2.18,26.97,3.22,8.37.97,16.77,1.73,25.13,2.79,8.96,1.13,17.9,2.45,26.83,3.77,8.13,1.2,16.24,2.51,24.36,3.77,2.53.39,5.07.76,7.8,1.17-5.51-15.44-8.56-31.11-11-46.92-2.15-13.95-4.46-27.88-6.45-41.86-1.34-9.41-2.23-18.88-3.34-28.33-1.25-10.61-2.61-21.2-3.76-31.82-1.03-9.49-1.94-18.99-2.72-28.51-.85-10.36-1.69-20.73-2.14-31.12-.59-13.6-1.15-27.22-1.09-40.82.1-25.15.61-50.31,1.02-75.46.31-19.52.71-39.04,1.09-58.56.34-17.25.74-34.49,1.06-51.74.24-12.89.39-25.79.57-38.69.19-13.89.28-27.78.58-41.67.21-9.77.6-19.55,1.09-29.31.39-7.83.96-15.66,1.63-23.47.8-9.31,1.8-18.6,2.69-27.9.93-9.75,1.96-19.5,2.7-29.26.71-9.39,1.99-18.61,6.27-27.88Z"/></svg>