<?xml version="1.0" encoding="UTF-8"?><svg id="Calque_1" xmlns="http://www.w3.org/2000/svg" viewBox="0 0 512.8 237.2"><defs><style>.cls-1{fill:#000;}.cls-1,.cls-2{stroke-width:0px;}.cls-2{fill:#fff;}</style></defs><path class="cls-1" d="M0,72.58c.32-10.17,3.45-19.49,7.95-28.46,6.96-13.86,16.45-25.65,29.01-34.77C43.63,4.49,50.87.8,59.4.09c12.29-1.02,20.13,6.91,21.45,18.01,1.61,13.52-3,25.55-9.28,37.17-5.78,10.7-13.25,20.02-22.54,27.82-6.74,5.65-14.03,10.46-22.84,12.31-7,1.47-13.68,1.11-19.32-4.06-3.39-3.11-5.3-7.02-6.07-11.49-.41-2.4-.54-4.85-.79-7.28ZM58.84,63.16c3.49-6.14,7.11-11.47,9.69-17.26,3.9-8.76,6.96-17.87,5.24-27.77-1.36-7.8-6.4-12.31-14.47-10.86-4.17.75-8.31,2.26-12.14,4.1-7.94,3.8-14.3,9.8-19.93,16.4-6.91,8.11-12.62,17.01-16.34,27.15-2.89,7.87-4.48,15.76-3.04,24.1,1.71,9.88,11.62,12.16,19.01,8.47-1.96-11.85,2.26-23.47,11.5-30.91,2.86-2.3,6.31-3.43,10.12-3.1,5.47.47,8.01,4.24,10.38,9.67Z"/><path class="cls-1" d="M512.8,164.39c-.25,10.17-3.35,19.5-7.83,28.48-6.97,13.97-16.5,25.83-29.14,35.01-6.68,4.85-13.92,8.54-22.45,9.24-12.24,1-20.1-6.91-21.41-18.06-1.59-13.52,2.71-25.73,9.42-37.1,3.87-6.57,8.25-12.95,13.19-18.75,8.04-9.44,17.6-17.1,29.74-20.82,5.57-1.71,11.25-2.13,16.75.26,6.42,2.79,9.71,8.07,10.97,14.74.44,2.3.53,4.67.77,7.01ZM485.95,149.55c.17,1.23.43,2.47.48,3.71.46,10.98-3.56,20.04-11.79,27.27-4.41,3.87-11.74,4.42-16.02.8-1.95-1.65-3.16-4.18-4.72-6.34-4.95,6.78-9.18,14.06-11.98,22.14-2.48,7.15-4.31,14.39-2.87,22.01,1.52,8.06,5.98,11.34,13.21,11.08,5.91-.21,11.21-2.61,16.11-5.78,12.39-8.01,21.68-18.9,28.76-31.73,5.3-9.6,8.92-19.69,8.36-30.88-.63-12.61-9.86-16.13-19.56-12.28Z"/><path class="cls-2" d="M58.84,63.16c-2.37-5.43-4.91-9.2-10.38-9.67-3.81-.33-7.27.8-10.12,3.1-9.24,7.44-13.46,19.06-11.5,30.91-7.38,3.69-17.3,1.41-19.01-8.47-1.44-8.34.15-16.24,3.04-24.1,3.72-10.14,9.44-19.04,16.34-27.15,5.63-6.6,11.99-12.6,19.93-16.4,3.83-1.84,7.98-3.34,12.14-4.1,8.07-1.46,13.12,3.06,14.47,10.86,1.72,9.9-1.35,19.01-5.24,27.77-2.58,5.79-6.19,11.12-9.69,17.26Z"/><path class="cls-2" d="M485.95,149.55c9.69-3.85,18.93-.33,19.56,12.28.56,11.2-3.07,21.28-8.36,30.88-7.08,12.83-16.37,23.72-28.76,31.73-4.9,3.17-10.2,5.57-16.11,5.78-7.23.25-11.7-3.03-13.21-11.08-1.43-7.62.39-14.86,2.87-22.01,2.8-8.07,7.02-15.36,11.98-22.14,1.56,2.16,2.77,4.68,4.72,6.34,4.27,3.63,11.61,3.07,16.02-.8,8.23-7.22,12.24-16.29,11.79-27.27-.05-1.25-.32-2.49-.48-3.71Z"/></svg>