<?xml version="1.0" encoding="UTF-8"?><svg id="Calque_1" xmlns="http://www.w3.org/2000/svg" viewBox="0 0 726.28 405.45"><defs><style>.cls-1{fill:#000;stroke-width:0px;}</style></defs><path class="cls-1" d="M63.52,294.62c-12.7-.17-25.16,1.56-37.43,4.8-.7.19-1.41.35-2.12.49-3.49.72-6.59-.61-8.12-3.48-1.52-2.87-.94-6.29,1.66-8.67,1.4-1.28,3.03-2.31,4.55-3.46,9.81-7.46,17.64-16.47,21.96-28.19,6.7-18.18.88-37.32-15.05-49.82-6.91-5.42-14.54-9.55-22.58-13.02-1.74-.75-3.26-2.19-4.66-3.53-1.64-1.58-2.37-3.88-1.03-5.69,1.11-1.49,3.12-2.82,4.95-3.2,8.96-1.86,18.1-2.93,26.97-5.11,13.21-3.25,25.7-8.47,36.91-16.31,7.27-5.08,13.08-11.53,16.57-19.8,1.51-3.57,2.38-7.27.54-11.06-1.18-2.44-2.75-4.36-5.44-5.39-2.44-.94-4.79-2.2-7.05-3.52-3.73-2.18-4.96-6.41-3.03-9.84,1.89-3.35,5.99-4.61,9.7-2.7,31.47,16.21,60.61,10.06,87.72-9.97,19.06-14.08,30.93-33.22,35.2-56.72,1.74-9.56,1.61-19.18-.67-28.67-1-4.15-.28-7.49,3.36-10.05,4.93-3.47,10.34-1.51,11.76,4.38,1.35,5.64,2.38,11.38,4,16.94,6.11,20.96,16.44,39.33,33.83,53.08,18.43,14.57,39.72,19.73,62.82,18.29,26.85-1.67,51.05-11.36,73.63-25.32,9.4-5.81,18.18-12.63,27.15-19.12,5.27-3.82,11.36-2.1,12.6,3.8.64,3.07-.78,5.42-2.81,7.57-6.33,6.71-11.85,14.02-15.85,22.36-4.2,8.77-6.03,17.88-2.89,27.44,2.19,6.65,6.41,11.96,11.5,16.61,8.14,7.44,17.63,12.71,27.64,17.16,20.03,8.89,41.11,14.25,62.52,18.44,29.71,5.82,59.74,9.21,89.95,11.03,18.4,1.11,36.83,1.76,55.25,2.64,1.44.07,2.94.15,4.29.59,4.52,1.45,6.36,7.05,3.25,10.6-1.85,2.11-4.22,4.07-6.76,5.2-9.77,4.33-19.06,9.36-27.07,16.52-5.15,4.61-9.41,9.89-11.66,16.51-2.97,8.73-1.53,17.01,2.97,24.86,6.42,11.19,16.05,19.16,26.68,25.99,19.92,12.8,41.87,20.75,64.63,26.7,2.37.62,4.78,1.1,7.11,1.84,3.32,1.06,5.25,3.47,5.31,6.51.06,3.26-2.01,4.94-4.39,6.94-4.49,3.78-9.07,3.2-14.24,2.35-18.67-3.09-37.51-4.41-56.44-3.94-26.82.67-53.18,4.17-78.49,13.6-11.73,4.37-22.83,9.9-32.44,18.06-7.32,6.21-13.27,13.42-15.78,22.98-1.37,5.2-1.38,10.4-.13,15.62.36,1.49.74,3.03.75,4.54.04,3.27-2.18,6.14-5.29,7.19-2.94.99-6.05.19-7.98-2.57-16.86-24.08-41.81-33.94-69.26-38.97-19.43-3.57-38.86-2.94-57.99,2.55-9.7,2.79-18.7,6.97-26.54,13.4-5.2,4.26-9.49,9.31-11.82,15.7-.68,1.86-.53,4.03-.68,6.06-.11,1.43.13,2.93-.17,4.31-.67,3.05-3.16,5.06-6.16,5.29-2.91.22-5.89-1.48-6.9-4.34-.84-2.37-1.01-4.99-1.94-7.32-1.49-3.75-2.95-7.63-5.16-10.97-5.34-8.07-12.98-13.65-21.56-17.88-18.3-9.03-37.72-11.39-57.81-9.25-16.6,1.76-32.11,6.71-45.92,16.31-8.67,6.03-15.62,13.52-19.56,23.53-1.43,3.62-4.05,5.43-7.15,5.33-3.21-.11-4.82-2.27-6.78-5.74-2.33-4.13-1.82-7.99-1.17-12.28,3.68-24.44-4.96-44.42-22.81-60.74-15.04-13.75-33.14-21.42-52.97-25.03-8.54-1.55-17.26-2.08-25.91-3.07-.02.22-.05.44-.07.65ZM40.35,281.79c1.35-.07,2.24-.05,3.1-.17,13.59-1.81,27.17-1.78,40.74.09,21.28,2.94,41.11,9.8,58.64,22.45,19.07,13.76,32.02,31.68,36.41,55.16.62,3.31.88,6.7,1.35,10.44.69-.62,1.03-.9,1.34-1.21,8.85-8.64,19.22-14.94,30.7-19.28,28.74-10.88,57.78-11.75,86.87-1.53,14.95,5.25,27.84,13.65,37.29,26.72.24.33.6.58.98.93,10.74-15.07,25.87-23.25,42.96-28.3,21.22-6.27,42.76-6.71,64.45-2.97,17.14,2.95,33.48,8.27,48.41,17.33,5.56,3.37,10.76,7.33,16.17,11.05.07-.16.27-.47.33-.8,3.05-14.96,11.91-26.08,23.59-35.2,16.64-12.99,35.93-20.3,56.17-25.33,23.85-5.93,48.11-8.1,72.65-7.67,1.56.03,3.11,0,4.56,0-8.3-4.63-16.71-8.89-24.69-13.86-12.77-7.95-24.14-17.56-31.77-30.81-8.88-15.41-9.42-31,.09-46.42,5.04-8.18,11.99-14.54,19.82-19.98.72-.5,1.43-1.02,2.71-1.93-1.82-.16-2.97-.29-4.12-.36-12.14-.73-24.3-1.35-36.43-2.21-27.54-1.94-54.93-5.24-82.05-10.47-21.95-4.23-43.58-9.7-64.19-18.55-13.67-5.87-26.65-12.96-37.04-23.92-12.94-13.64-17.68-29.48-12.3-47.87.46-1.57.99-3.12,1.61-5.04-1,.55-1.56.84-2.11,1.16-13.76,8.04-28.14,14.68-43.46,19.23-19.12,5.68-38.56,8.21-58.38,5.09-32.81-5.16-57.2-22.68-73.81-51.27-1.39-2.39-2.68-4.83-4.24-7.65-7.11,26.84-21.79,47.87-44.24,63.25-22.54,15.44-47.37,21.68-74.75,16.8,1.79,8.81-.34,16.49-5.45,22.98-4,5.08-8.55,10-13.7,13.87-15.39,11.56-32.94,18.59-51.64,22.87-.75.17-1.5.37-2.72.67,16.25,10.31,28.15,23.4,32.07,42.34,4.03,19.48-3.57,35.49-15.91,50.34Z"/></svg>