<?xml version="1.0" encoding="UTF-8"?><svg id="Calque_1" xmlns="http://www.w3.org/2000/svg" viewBox="0 0 482.64 482.4"><defs><style>.cls-1{fill:#e8e8e9;}.cls-1,.cls-2,.cls-3,.cls-4,.cls-5,.cls-6,.cls-7,.cls-8,.cls-9,.cls-10,.cls-11,.cls-12{stroke-width:0px;}.cls-2{fill:#fdfdfd;}.cls-3{fill:#020210;}.cls-4{fill:#00000e;}.cls-5{fill:#f0f0f0;}.cls-6{fill:#01010f;}.cls-7{fill:#050513;}.cls-8{fill:#030311;}.cls-9{fill:#02020f;}.cls-10{fill:#fefefe;}.cls-11{fill:#050512;}.cls-12{fill:#01010e;}</style></defs><path class="cls-4" d="M174.19,273.48c-2.59,4.85-5.76,9.27-7.13,14.4-2.07,7.72-1.05,10.58,4.39,14.95,4.38,3.52,5.84,7.86,4.1,13.01-1.29,3.82-5.34,6.17-10.52,6.23-3.72.04-7.33-.61-10.77-1.85-1.52-.55-2.48-.4-3.72.45-4.51,3.07-14.61,2.61-18.84-.78-2.2-1.76-2.29-4.07-1.65-6.56.06-.25.17-.5.3-.72,4.38-7.19.32-12.94-3.14-18.82-.35-.59-.79-.67-1.34-.62-8.79.77-17.41-1.1-26.11-1.68-5.81-.38-11.39.93-17.04,1.77-3.15.47-6.2,1.68-9.43.5-.39-.14-1.01-.22-1.22.26-2.18,5.07-5.92,9.72-4.83,15.71.43,2.35.66,4.5-.57,6.7,2.2.48,3.87,1.47,3.69,4.06-.06.86.35.95,1.11,1.06,2.96.45,4.22,1.97,3.76,4.85-.54,3.41-1.29,6.73-4,9.32-1.65,1.58-1.2,4.04-1.34,6.07-.93,13.49-.83,27.01-.53,40.51.19,8.78.92,17.61,5.39,25.56,3.18,5.65,8.2,9.29,13.76,12.27.54.29,1.53,1.06,2.02-.48,1.62-5.04,5.67-7.87,9.96-10.34,4.46-2.57,9.02-4.99,13.56-7.42,1.23-.65,2.12-1.59,3.05-2.6-4.54-1.84-9.13-.58-13.27,3.46-.72.7-1.42,2.29-2.34,1.79-1.29-.69-.58-2.12-.11-3.33,1.71-4.41,3.69-8.65,7.24-11.94,3.09-2.86,4.91-6.5,6.32-10.38.2-.55.01-1.36,1.02-1.21.85.13,1.13.64,1.29,1.46.7,3.67,5.92,7.86,9.58,7.8.84-.01,1.28-.56,1.74-1.12,1.13-1.38,1.16-3.16,1.6-4.76.14-.51-.18-1.72-1.43-1.88-.95-.12-1.83-.72-2.78-.86-1.38-.21-2.8-.7-2.61-2.15.15-1.19,1.83-1.22,2.85-1.18,3.76.17,7.56-.63,11.29.47,2.39.71,4.41,1.79,5.11,4.92,2.79-3.48,5.3-6.71,7.91-9.84,3.18-3.82,6.66-7.21,11.58-8.84,1.45-.48,2.76-.59,3.78.24,1.02.83.37,2.09-.09,3.17-.12.28.05.69.09,1.06,4.44-1.41,6.61-5.95,4.86-10.01-.9-2.09-.32-3.21,1.88-2.92,3.29.43,6.65.77,9.58,2.64,2.18,1.39,3.18,3.51,3.87,5.99,2.23-1.88,3.26-4.24,3.68-6.95.1-.62-.52-1.52.61-1.8.92-.23,1.73-.12,2.46.61,1.93,1.91,1.92,4.33,1.82,6.94,5.78-2.78,11.61-4.92,17.83-6.1,4.93-.94,9.85-.86,14.79-.9.69,0,1.24.02,1.19.98-.06,1.21-.46,2.05-1.78,2.3-4.07.76-7.79,2.35-11.17,4.74-1.01.71-2.05,1.4-2.4,2.64,8.5-.53,16.92-2.2,25.25.75,2.05.73,3.78,1.92,5.5,3.18.63.46,1.14.9.84,1.78-.32.92-.98,1.05-1.89,1.12-4.84.4-9.45,1.58-13.77,4.1,8.87,1.38,17.35,3.37,24.74,8.53,3.22,2.25,3.32,3.81.23,5.65,4.16,1,7.9,2.65,11.06,5.24,2.48,2.03,5.37,4.08,4.51,8.1-.23,1.06.83.95,1.35,1.29,3.8,2.47,7.59,4.89,10.88,8.08,3.39,3.27,5.29,7.1,5.64,11.83,6.63-1.25,9.99-6,12.35-11.56,3.73-8.79,5.67-18.03,6.64-27.52.75-7.33,1.12-14.68,1.75-22,.48-5.49-.89-10.87-.08-16.24.51-3.39-.22-5.45-2.95-7.84-3.65-3.2-4.6-8.05-4.19-12.92.21-2.52,2.84-3.23,6.43-1.74-.55-1.95-.74-3.86-.32-5.7.69-3.08,3.44-5.55,6.59-5.59,3.07-.04,5.38,1.66,6.93,4.32,3.84,6.62,3.12,13.19-.36,19.66-2.71,5.03-3.88,10.55-3.89,16.09-.01,6.61,1.12,13.21,1.44,19.83.26,5.53.12,11.08.05,16.63-.11,10.11-1.83,20.03-4.47,29.71-2.04,7.48-6.21,13.87-13.16,17.95-2.52,1.48-5.28,2.36-8.2,2.78-2.9.42-5.14-.36-6.52-3.39-.72,1.83-1.3,3.42-1.97,4.97-2.38,5.47-7.03,7.76-12.54,8.72-.86.15-1.93.43-2.5-.91-.45-1.07-.03-1.63.59-2.37,1.4-1.68,2.6-3.49,3.19-6.16-3.2,1.27-5.2,3.45-7.51,5.13-8.86,6.45-18.82,10.07-29.51,11.99-6.77,1.22-13.6,2.02-20.44,2.69-.83.08-1.09.35-1.07,1.13.03,1.97.01,3.95.01,6.09,1.66-.47,3.05-.97,4.49-.55,2.16.63,4.46,1.18,4.75,3.97.52,4.98-1.17,8.51-4.98,10.01-5.1,2.01-10.12,1.46-15.02-.93-1.89-.92-2.22-2.56-1.67-4.09,1.63-4.5.89-8.99.45-13.52-.16-1.61-1.27-.98-2-.99-5.99-.08-11.95.76-17.95.37-3.16-.21-6.34-.19-9.5-.4-1.89-.13-2.51.37-2.86,2.45-.71,4.17-.1,8.13.62,12.18.59,3.31-.17,4.4-3.47,4.68-4.63.4-12.16-1.08-14.95-5.96-1.26-2.2-1.9-4.57-.57-6.84,1.3-2.21,3.47-3.39,6.11-3.2,2.01.14,2.74-.18,2.53-2.58-.17-1.93-1.17-1.18-1.91-1.24-7.28-.59-14.64-.67-21.84-1.78-12.82-1.97-24.46-6.66-33.24-16.81-.11-.12-.27-.21-.41-.3-.11.09-.31.18-.31.28-.1,1.31.11,3.06-1.41,3.41-1.47.34-2.2-1.21-2.9-2.38-1.57-2.65-3.13-5.31-3.54-8.45-6.47,3.27-9.14,2.75-15.23-2.72-9.16-8.24-13.09-19.12-15.67-30.7-1.13-5.09-1.72-10.21-1.66-15.44.1-8.9.06-17.81.02-26.71-.03-7.63-1.84-15.12-2.03-22.72-.09-3.45-1.72-6.29-2.46-9.45-.72-3.07.3-5.36,1.54-7.89-3.42.35-6.81,1.41-10.33.5-2.58-.67-4.86-1.76-6.55-3.82-3.87-4.73-1.52-10.97,4.87-13.11,3.91-1.31,3.85-1.76,3.2-6.01-1.33-8.72-6.54-15.39-11.19-22.37-2.87-4.3-5.39-8.78-7.67-13.78-.74,1.18-1.32,2.1-1.9,3.02-3.26,5.19-6.97,6.36-12.82,4.45-4.53-1.48-7.3-4.82-9.54-8.62-3.78-6.42-5.3-13.57-6.2-20.9-.32-2.6-.43-5.17-.51-7.78-.38-11.44,2.94-22.12,6.84-32.64,2.47-6.66,6.56-12.37,11.02-17.82,1.19-1.45,2.64-2.79,4.41-3.41,1.96-.68,2.96-1.82,3.29-3.83,1.34-8.04,4.19-15.7,5.77-23.7,1.54-7.8,1.4-15.24-1.07-22.8-2.79-8.52-3.75-17.2-.83-25.96,2.54-7.6,7.7-11.67,15.72-12.75,3.86-.52,7.42.09,11.11.62,3.52.5,6.3-1.35,8.97-3.32,6.09-4.48,12.06-9.15,18.98-12.35,6.02-2.78,12.3-5.02,18.99-4.37,7.95.77,14.99,4.3,21.49,8.81,4.04,2.8,8.14,5.49,11.78,8.87,2.62,2.44,5.83,3.18,9.6,2,4.35-1.37,8.7-2.98,13.42-2.9,5.66.1,11.44,4.19,13.3,9.56,2.86,8.27,1.94,16.49-.2,24.72-1.37,5.3-3.88,10.22-4.82,15.7-.81,4.69-.29,9.02,1.53,13.28.22.52-.16,1.33.95,1.71,2.16-2.59,4.52-5.14,7.27-7.33,3.76-2.99,7.64-5.75,11.92-7.91.31-.16.68-.46.96-.41,5.65,1.01,5.87-3.8,7.1-7.01,3.88-10.13,7-20.52,9.03-31.18,2.62-13.73,6.49-27,13.12-39.37,4.03-7.54,8.8-14.52,15.12-20.36,1.45-1.34,3.08-2.48,4.93-3.2,1.51-.59,2.29-1,1.89-3.17-1.3-7.12,1.29-13.26,5.73-18.75,4.14-5.11,9.39-8.67,15.38-11.27,1.19-.52,2.39-.75,3.11.26.73,1.02-.09,2.02-.98,2.77-4.4,3.73-6.19,8.78-7,14.25-.7,4.71,2.97,10.09,7.45,11.82,4.55,1.75,8.98,3.82,13.24,6.22,1.09.62,1.44.66,1.82-.8.64-2.43,2.07-4.51,3.95-6.25,2.79-2.58,4.45-2.08,5.86,1.44.44,1.1-.37,2.71,1.3,3.37.26-2.94,1.23-5.66,2.74-8.15,1.6-2.64,3-2.58,4.49.19.83,1.54,1.47,3.17,2.18,4.76,3.07,6.88,9.13,11.17,14.09,16.44,4.67,4.97,11,4.69,16.81,6.13,8.62,2.13,16.68,5.69,24.49,9.83,1.59.84,1.96.84,2.58-1.04,1.76-5.36,6.02-8.83,10.38-11.98,1.69-1.22,2.57-2.93,3.85-4.37.56-.63,1.09-.97,1.77-.87.81.11,1.11.85,1.24,1.6,1.77,10.66,4.57,21.22,3.77,32.17-.26,3.55-.19,7.45-4.14,9.51-.58.3-.89.91-.65,1.63,1.42,4.29.23,8.52-1.44,12.2-4.61,10.18-7.71,20.76-10.12,31.62-1.34,6.01-3.26,11.88-4.82,17.85-.5,1.9-1.05,3.73-2.41,5.51,2.79.85,5.26-.1,7.72-.51.6-.1,1.21-.27,1.83-.26,2.13.02,2.67.82,1.54,2.62-3.16,5.03-6.11,10.26-10.34,14.49-12.19,12.19-21.22,26.55-28.67,41.93-4.71,9.72-7.56,20.12-9.49,30.74-2.56,14.14-7,27.54-16.03,38.98-4.55,5.77-8.58,12.01-14.27,16.83-5.12,4.33-10.82,7.31-17.69,7.61-1.8.08-3.56.6-5.4.51-1.77-.08-2.57,1.55-2.95,2.76-1.07,3.34-2.24,6.65-2.62,10.23-.54,5.04,2.65,8,5.47,11.15,3.7,4.14,4.39,6.79,2.3,11.03-2.26,4.58-6.25,6.87-10.96,6.51-8.36-.63-15.7-3.9-22.31-8.79-2.2-1.62-3.8-4.14-3.79-7.06.01-3.79.06-7.57.32-11.38.42-6.02,2.84-11.23,5.04-16.61.55-1.34,2.43-2.46,1.78-3.8-.62-1.29-2.69-1.08-4.1-1.49-10.25-3.01-20.67-5.48-30.46-9.92-9.13-4.14-18.02-8.71-25.9-14.98-1.17-.93-1.99-2.31-3.15-3.69Z"/><path class="cls-4" d="M448.1,322.76c3.87-.35,7.03-.97,10.29.3,4.49,1.75,5.2,2.46,4.96,7.21-.04.82-.07,1.42,1.14,1.69,1.5.33,2.92,1.06,4.23,2.04,2.29,1.72,2.54,2.7.92,4.95-2.68,3.72-6.87,4.6-10.87,5.38-13.32,2.59-26.78,1.94-40.23,1.25-6.15-.32-12.32-.23-18.45-.67-11.04-.78-22.14-1.23-32.87-4.33-1.68-.48-3.4-.96-4.92-1.76-1.14-.6-2.2-1.54-1.98-3.23.22-1.69,1.56-2.12,2.75-2.57,1.14-.43,2.43-.49,3.67-.71-1.74-4.04-1.22-5.59,2.53-7.54,2.76-1.44,5.66-2.42,8.99-2.16-11.67-13.5-14.37-17.78-18.25-28.87-4.2,1.6-9.15-.44-12.21-4.85-1.69-2.45-2.05-5.08-2.24-7.99-.85-13.26,5.01-23.82,13.33-33.26,2.37-2.69,4.31-5.42,5.87-8.6,2.29-4.67,5.3-8.9,9.07-12.59-4.3-1.77-5.97-5.6-6.28-9.46-1.17-14.41,1.63-27.86,11.01-39.43,2.35-2.9,4.87-5.58,7.85-7.84.64-.49,1.34-1.37,2.03-.66.63.65.14,1.54-.38,2.4-2.29,3.78-4.43,7.64-5.57,11.99-.99,3.81.11,7.41.78,11.06.19,1.04,1.5.4,2.2,1.18.99,1.11,1.22-.39,1.72-1,6.36-7.7,13.96-12.86,24.34-13.97,10.95-1.18,19.49,2.57,26.53,10.57,1.26,1.43,2.2,3.15,3.42,4.92,3.09-6.51,3.3-12.96.51-19.47-.94-2.2-2.26-4.2-3.77-6.07-.46-.57-1.44-1.13-.65-2.02.7-.79,1.52-.99,2.63-.39,9.35,5.12,16.48,12.15,19.32,22.73,2.57,9.59.49,18.87-2.51,27.99-.84,2.54-2.71,4.37-5.12,5.61,4.8,5.42,8.92,11.1,11.74,17.64.26.61.59,1.07,1.21,1.55,8.55,6.53,14.13,15.14,16.81,25.48,1.5,5.79,1.34,11.82-.51,17.52-1.7,5.24-6.24,9.2-11.35,8.02-.09-.02-.21.03-.27-.02-3.27-2.82-3.56.31-4.25,2.22-3.5,9.77-9.46,17.91-17.15,25.75Z"/><path class="cls-10" d="M193.55,219.71c3.51-.25,5.85-1.83,6.49-4.24.88-3.31-.82-7.16-3.85-9-3.47-2.11-7.5-3.18-10.44-6.29-4.64-4.9-5.29-10.76-4.56-16.99.66-5.71,3.69-10.21,7.76-14.1.31-.3.44-.67,1-.75,5.82-.81,9.99-4.26,13.56-8.63,2.71-3.32,2.58-7.26,1.97-11.1-.89-5.59-3.04-10.55-8.54-13.26,2.65-2.87,3.49-6.66,4.51-10.24,2.07-7.24,4.27-14.46,5.75-21.88,1.8-8.97,3.54-17.96,6.5-26.64,4.83-14.18,11.74-27.13,22.42-37.85,1.74-1.75,3.91-2.8,5.91-4.13,1.14-.76,1.21.19,1.7.83,3.79,4.97,11.24,6.82,16.26,1.8,1.51-1.51,2.36-3.3,2.27-5.63,2.38,1.16,4.76,2.13,6.94,3.43,2.78,1.67,5.91,1.86,8.94,2.34,1.37.21,1.52.65,1.55,1.81.1,4.01,1.82,7.58,5.28,11-.81-6.78-4.04-13.52,1.57-19.89.35,2.09.56,3.94.97,5.74,1.55,6.8,5.94,11.78,10.72,16.49.54.53,1.21,1.12,1.86.62.71-.54.12-1.25-.23-1.89-.84-1.54-1.41-3.2-2.52-4.62-3.29-4.21-2.39-9.17-2.21-13.95.06-1.44.67-2.85.92-3.88,8.78,16.4,23.35,26.22,39.8,33.9.93.44,1.5.4,2.12-.58-4.38-2.26-8.59-4.79-12.55-7.77,5.26.96,10.35,2.43,15.29,4.37,7.82,3.06,15.68,6.1,22.29,11.48,6.45,5.24,10.15,11.91,10.45,20.42.17,4.84-.7,9.38-2.86,13.64-4.34,8.59-6.5,17.89-9.26,27.02-2.45,8.11-4.66,16.27-6.42,24.54-.38,1.76-1.56,1.07-2.25.97-5.35-.76-10.67-1.69-15.92-3.02-14.06-3.54-27.21-9.45-40.28-15.53-6.82-3.18-12.66-7.98-18.68-12.45-.4-.3-.98-.67-.83-1.3,1.14-4.69-.61-9.13-1.09-13.69-.08-.77-.13-1.25-.99-1.6-.95-.39-1.11.4-1.45.76-1.6,1.71-3.37,3.34-4.62,5.29-1.02,1.59-1.48,1.22-2.51.18-3.62-3.65-7.17-7.39-11.17-10.65-.39-.32-.61-.96-1.63-.68,4.08,4.87,8.09,9.61,12.65,13.83,6.45,5.96,13.27,11.48,20.38,16.65,5.98,4.35,12.61,7.45,19.26,10.55,12.8,5.98,25.99,10.6,39.99,12.86,6.5,1.05,12.9,1.52,19.46-.14-.25,1.71-1.18,2.65-2.15,3.56-5.75,5.41-10.81,11.47-16.13,17.28-6.76,7.39-11.87,15.97-16.94,24.55-6.23,10.56-10.62,21.88-13.68,34.35-.49-3.78.14-6.97-.12-10.19-1.23-15.2-8.27-26.81-21.01-35.08-7.55-4.9-16.01-6.17-24.62-5.39-10,.9-18.33,5.47-24.92,13.32-7.55,9-10.77,19.39-10.1,30.87,1.07,18.5,12.67,36.55,32.1,41.39,11.96,2.98,22.86.23,32.53-7.33,7.38-5.77,11.81-13.52,15.07-22.19-1.01,4.46-1.98,8.94-3.05,13.39-2.99,12.44-9.8,22.75-17.66,32.62-4.56,5.73-8.95,11.35-15.95,14.27-4.49,1.87-9.17,2.22-13.92,2.03-13.27-.51-25.45-5.8-38.16-8.74-13.27-3.07-25.81-7.93-37.82-14.31-4.26-2.27-8.22-4.96-12-7.93-.82-.64-2.2-1.32-1.27-3.12-2.16.76-2.83,2.67-4.03,4-4.2,4.67-6.87,10.16-7.81,16.35-.86,5.71,1.61,10.13,6.2,13.35,4.68,3.28,4.8,6.11,3.47,10.08-.79,2.37-6.51,4.63-10.04,4.02-3.92-.68-7.79-1.11-11.48-2.9-5.47-2.66-8.71-6.96-9.27-12.8-.34-3.54,1.15-7.09,2.28-10.53,3.18-9.68,6.79-19.19,10.58-28.65.46-1.14.84-1.83,2.41-1.1-1.01-1.86-2.66-2.32-3.88-3.28-5.41-4.29-5.67-10.17-4.76-16.19,1.6-10.61,7.64-19.22,13.23-28,1.22-1.92,2.45-3.84,3.75-5.89,2.14,4.31,3.84,8.72,7.04,12.29,3.86,4.31,7.94,8.2,13.76,9.75,3.93,1.05,7.46-1.31,7.73-5.38.18-2.74,0-3.9-1.08-6.67Z"/><path class="cls-10" d="M150.25,318.58c-5.38,2.04-10.76,1.56-16.05-.32-2.58-.92-3.31-2.4-1.6-4.46,4.42-5.33,1.81-10.33-.29-15.32-.88-2.08-2.24-4.04-4.22-5.59,3.05-.73,6.09-.7,8.61-3.19-2.47-.88-4.51.04-6.38.32-7.25,1.08-14.29.08-21.18-1.84-8.93-2.49-17.79-2.21-26.49.38-5.74,1.71-11.25,1.01-16.82,0-1.36-.25-2.63-.03-4.61-.57,2.83,2.35,5.17,3.99,8.08,4.65,1.27.29,1.46.66.6,2.01-2.16,3.39-4.41,6.74-5.29,10.87-.45,2.12.34,3.85.59,5.73.26,1.94.08,3.12-2.05,3.8-4.42,1.41-8.92,1.7-13.48,1.53-.77-.03-1.57-.35-2.29-.7-2.06-.99-4.27-2.2-4.18-4.74.09-2.48,1.92-4.04,4.24-5,3.83-1.58,7.76-2.84,12.04-3.91-2.09-.74-3.86-1.18-5.81-.41-.61.24-2.05.56-1.83-1.04,1.49-11.11-4.36-19.52-10.34-27.8-7.04-9.73-10.48-20.94-13.63-32.27-3.84-13.81-4.4-27.96-3.74-42.14.36-7.71,2.38-15.25,4.02-22.8,2.05-9.42,5.17-18.58,6.76-28.11,1.24-7.45.52-14.75-1.89-21.91-1.8-5.35-2.98-10.86-2.4-16.53.74-7.24,2.7-13.8,10.52-16.75,3.97-1.5,8.1-1.53,11.99-.8,5.57,1.04,10.23-.04,14.67-3.34,6.61-4.91,13.36-9.53,20.99-12.87,9.24-4.03,18.08-3.19,26.89,1.05,6.7,3.23,12.73,7.47,18.33,12.35,4.09,3.57,8.67,4.67,13.9,2.91,3.03-1.02,6.06-1.98,9.24-2.56,6.31-1.15,11.31,1.5,13.53,7.54,2.43,6.6,1.25,13.17-.24,19.75-1.16,5.15-3.54,9.89-4.83,15.02-1.68,6.67-1,12.84,2.38,18.74.72,1.25.88,2.15-.02,3.47-4.14,6.15-5.45,13.33-7.13,20.37-2.59,10.89-.1,21.19,3.64,31.32.73,1.98.52,3.3-.72,5.06-6.3,8.93-12.75,17.84-15.63,28.63-1.24,4.66-1.95,9.45-.86,14.23.66,2.92,2.09,5.53,4.91,7,2.17,1.13,2.42,2.32,1.27,4.64-5.01,10.1-8.77,20.73-12.15,31.45-2.98,9.44-.26,15.61,8.66,21.82.12.09.21.23.29.32Z"/><path class="cls-10" d="M100.1,442.89c-2.03-3.7-4.78-7.14-3.1-11.8.52-1.43-1.18-2.65-2.82-2.07-1.06.38-1.98,1.1-3,1.69-.67-2.28.73-3.83,2.1-5.35,1.52-1.68,3.1-3.3,4.63-4.97.92-1.01,1.89-2.2,1.25-3.56-.53-1.13-1.99-.05-3.14-.71,2.24-2.47,5.15-3.78,7.96-5.21,4.18-2.13,8.54-3.91,12.51-6.47,1.41-.91,2.57-2.03,3.6-3.25,1.91-2.26,1.07-4.67-1.8-5.5-4.6-1.33-8.78-.28-13.07,2.59,1.92-6.91,8.99-9.79,10.81-16.61,2.59,3.44,5.16,6.11,9.16,7.04,3.64.85,4.16.8,5.8-2.64,1.36-2.86,2.3-5.76-.03-8.75,2.35-.5,4.45.03,6.56.64,1.81.53,2.94,1.62,3.13,3.55.11,1.1.47,2.33,1.48,2.6,1.02.27,1.64-1,2.22-1.72,3.74-4.62,7.39-9.3,11.75-13.37,1.94-1.81,4.24-2.98,6.55-4.17,1.03-.53,1.45-.23,1.45.96,0,2.62,1.7,3.49,4.29,2.26,3.99-1.88,6.27-6.9,5.13-11.64,3.16.35,5.88,1.41,8.18,3.5.98.89.88,2.06.93,3.24.1,2.69,1.47,3.47,3.55,1.77,2.94-2.4,5.85-4.98,5.34-9.5.97,1.51,1.48,2.98,1.05,4.83-.26,1.14-.75,2.61.5,3.53,1.14.84,2.18-.11,3.2-.58,6.67-3.06,13.61-5.09,21.59-5.92-2.65,2.31-4.96,4.08-6.55,6.55-.47.73-1.4,1.31-.65,2.32.67.9,1.49.56,2.42.32,7.67-1.95,20.41-.84,26.19,2.28-2.5.82-4.87,1.62-7.26,2.37-2.48.78-4.56,2.34-6.8,3.56-.69.38-1.41.97-1.15,1.95.26.98,1.08.97,1.93,1.05,3.92.38,7.64,1.65,11.35,2.83,3.76,1.2,7.55,2.42,11.19,4.57-2.47.53-4.77.92-7,1.56-.96.27-2.33.88-2.11,2.06.22,1.19,1.44,1.54,2.78,1.53,7.57-.09,14.45,2.26,20.96,5.96,1.77,1.01,2.85,2.69,4.3,4.13-1.82-.36-3.6-.45-5.37-.28-1.02.1-2.48.41-2.49,1.53,0,1.26,1.25,1.58,2.56,1.75,5.27.68,9.49,3.63,13.59,6.72,3.95,2.97,7.67,6.2,9.03,11.22.51,1.87,1.19,3.77.73,5.81-.34-.13-.69-.2-.99-.37-.97-.57-2.25-1-2.99-.29-.93.89.11,1.91.62,2.84,2.29,4.22.06,12.16-4.28,15.09-1.58,1.07-3.25,2.02-5.3,2.54.2-1.87,1.8-3.1,1.58-4.84-.16-1.27.81-3.03-.73-3.7-1.47-.65-3.07-.17-4.49.93-2.4,1.86-4.91,3.57-7.43,5.27-7.73,5.24-16.43,8.11-25.47,9.92-8.57,1.71-17.28,2.46-25.97,3.4-13.45,1.46-26.92,1.14-40.37.91-9.58-.17-19.17-1.06-28.7-2.15-12.11-1.39-23.44-5.13-33.06-13.04-1.82-1.5-3.53-3.05-4.92-4.99-.62-.86-1.26-2.27-2.62-1.81-1.5.51-.75,1.87-.68,2.96.07,1.05-.08,2.12.33,3.12Z"/><path class="cls-10" d="M274.62,189.44c10.23.95,19.06,4.98,26.32,12.35,9.07,9.21,12.98,20.48,11.88,33.17-1.38,15.93-11.21,29.62-27.17,33.86-11.8,3.14-22.45.56-31.87-7.26-8.34-6.92-13.1-15.98-14.85-26.42-2.6-15.59,2.87-32.37,18.52-41.49,5.19-3.02,10.98-4.5,17.18-4.21Z"/><path class="cls-10" d="M182.27,211.52c2.52,2.93,5.38,5.51,7.73,8.56,1.59,2.07,3.18,3.99,1.99,6.97-.91,2.26-2.4,2.82-4.4,2.06-7.02-2.65-12.4-7.38-16.01-13.87-3.69-6.64-6.12-13.83-7.98-21.18-2.01-7.97-1.3-15.92.51-23.84,2.03-8.9,5.71-16.85,12.68-23.01,3.89-3.43,8.08-6.41,12.69-8.84,3.06-1.61,5.79-.93,8.4.84,3.92,2.65,7.61,13.22,4.19,18.18-2.02,2.92-4.44,5.53-7.49,7.21-.9.5-2.61.01-3.96.88-6.68,4.32-10.34,10.22-11.36,18.25-.98,7.75.93,14.18,6.16,19.77,2.01,2.14,4.73,3.09,7.4,4.08,2.29.85,4.39,1.97,5.34,4.43.82,2.12.31,4.05-1.56,5.18-1.78,1.08-3.74,1.46-5.57-.43-2.41-2.5-5.31-4.31-8.75-5.24Z"/><path class="cls-10" d="M24.46,177.86c-2.16,9.91-3.74,19.55-3.69,29.37.08,14.62,2.34,28.91,6.69,42.86.34,1.09.61,2.21.94,3.3.53,1.73,2.3,3.88,1.34,5.1-1.74,2.21-3.31,4.78-5.83,6.31-2.87,1.74-8.08.67-11.13-2.25-4.37-4.18-6.83-9.48-8.23-15.2-1.45-5.89-2.51-11.9-2.32-18.02.3-9.95,3.15-19.31,6.46-28.6,2.47-6.93,6.82-12.73,10.76-18.79,1.11-1.71,2.94-2.83,5.01-4.09Z"/><path class="cls-10" d="M284.81,430.06c1.27-.11,1.4,1.88,2.57,1.14.99-.64.42-1.86.42-2.79,0-1.37.04-2.08,1.86-2.35,7.41-1.09,10.51-6.89,12.81-12.98,3.61-9.56,5.64-19.51,6.67-29.7.94-9.23,1.9-18.47,1.49-27.74-.2-4.69-.39-9.38-.49-14.07-.02-.91.11-1.84-1.43-2.37-2.28-.78-6.07-9.65-5.43-11.91.33-1.16,1.41-1.06,2.27-.68,1.85.81,3.15,2.28,4.37,3.87,1.03-1.13-.14-2.27-.43-3.22-.77-2.52-.54-5.05-.24-7.48.24-1.98,1.92-3.42,4.07-3.67,2.28-.27,3.92.81,5.07,2.8,2.82,4.91,3.12,9.96.5,14.95-3.96,7.55-5.16,15.62-4.27,23.9,1.23,11.37,1.07,22.74.96,34.12-.07,6.68-1.47,13.25-2.46,19.85-.83,5.58-2.57,10.72-5.62,15.49-3.55,5.55-8.79,8.42-14.95,9.84-3.54.82-6.55-2.01-7.74-6.98Z"/><path class="cls-10" d="M263.03,309.14c-3.03,2.3-5.4,4.23-6.35,7.57-2.12,7.39-1.35,13.92,4.54,19.35.73.68,1.46,1.37,2.11,2.13,1,1.16,2.88,1.95,1.93,4.02-1.1,2.4-2.44,4.8-5.42,4.9-9.15.3-16.99-2.92-23.58-9.26-1.02-.98-1.74-2.22-1.76-3.49-.13-5.84-.48-11.74,1.16-17.44,1.09-3.78,2.44-7.48,3.71-11.21.39-1.16.74-1.78,2.44-1.24,5.5,1.74,11.05,3.38,16.77,4.33,1.24.21,2.51.21,4.48.37Z"/><path class="cls-10" d="M91.38,422.71c-3.09,3.59-4.37,7.27-1.67,11.55-4.75.7-7.71-2.33-10.49-5.04-6.57-6.4-10.17-14.51-12.73-23.22-2.19-7.44-3.17-15.08-2.97-22.7.21-7.7.1-15.41.38-23.12.19-5.02-.05-10.06-1.1-15.03-.45-2.12-.19-4.32-.26-6.47-.14-4.44-2.06-8.42-2.66-12.71-.44-3.09,2.42-6.46,5.49-6.52,2.42-.05,3.55,2.1,2.52,4.81-.46,1.22-.93,2.44-1.34,3.68-.1.3.03.68.11,1.66,1.1-2.53,2.37-4.07,4.52-4.95,1.52-.63,1.85-.49,1.92,1.1.13,2.78-.45,5.39-2.25,7.46-1.88,2.17-2.35,4.75-2.63,7.34-.39,3.57-.39,7.18-.6,10.77-.71,12.13-.79,24.28-.44,36.42.23,8.01,1.89,15.81,6.27,22.85,3.37,5.42,8.54,8.45,13.79,11.5,1.17.68,2.5-.03,4.15.62Z"/><path class="cls-10" d="M373.88,48.57c1.27,12.22,4.62,23.79,1.01,35.96-2.49-8.13-6.95-14.36-13.8-18.8-1.06-.69-1.22-1.49-.63-2.58,1.79-3.28,3.67-6.42,6.93-8.58,2.29-1.52,4.35-3.41,6.49-6.01Z"/><path class="cls-10" d="M258.17,6.75c-3.13,6.29-4.34,12.13-1.95,18.27.45,1.16.87,2.46,1.7,3.3,1.63,1.67,2.23,3.52.73,5.25-1.61,1.87-3.83,2.69-6.49,2.01-5.82-1.49-7.9-7.5-6.6-12.71,1.73-6.92,6.1-12.04,12.6-16.12Z"/><path class="cls-10" d="M209.65,470.03c3.2-.18,6.04-.43,8.82.78,1.36.59,1.77.93,1.36,2.65-1,4.08-4.42,4.23-7.36,5-2.46.65-4.98-.34-7.48-.54-.79-.07-1.29-.78-1.06-1.61,1.09-3.92.49-7.92.43-11.87-.03-2.2.65-2.92,2.65-3.25,3.68-.6,4.01-.43,3.97,3.26-.02,1.9.53,3.92-1.32,5.58Z"/><path class="cls-10" d="M167.42,461.62c-1.46,4.91-1.57,9.58-.64,14.3.13.65.31,1.33-.86,1.54-3.4.61-9.83-1.59-11.59-4.23-.72-1.08-1.83-2.31-.89-3.66.81-1.16,2.11-1.94,3.63-1.94,1.23,0,2.47-.25,3.68.42.35.19,1.21.67,1.64-.05.35-.59-.24-.97-.59-1.35-.41-.45-.99-.77-.96-1.53.05-1.18-.34-2.55.15-3.48.59-1.12,1.86.19,2.88.02,1.05-.18,2.16-.04,3.55-.04Z"/><path class="cls-10" d="M273.53,112.03c.64,3.8,1.22,7.25.72,11.13-.81-.92-1.52-1.96-2.46-2.73-3.27-2.67-3.29-2.63-.36-5.78.65-.7,1.2-1.5,2.1-2.62Z"/><path class="cls-5" d="M251.85,388.36c-1.15.23-1.87.46-2.62-.09.8-.39,1.53-.34,2.62.09Z"/><path class="cls-1" d="M94.2,432.17c.31,1.07-.28,1.31-.87,1.65-.45-.92.3-1.15.87-1.65Z"/><path class="cls-10" d="M438.27,325.9c2.78-12.49-.18-23.05-10.63-30.31-8.9-6.19-18.74-6.42-28.45-1.33-5.72,3-9.43,7.86-11.53,13.82-2.06,5.86-1.6,11.84.89,18.27-5.78-3.35-10.1-7.23-13.89-11.65-7.51-8.76-12.44-18.84-14.54-30.2-1.16-6.32-1.69-12.64-1.02-19.18.98-9.51,3.8-18.26,8.3-26.59,2.21-4.08,4.97-7.78,7.82-11.41.33-.42.72-.92,1.19-1.08,7.13-2.49,9.74-8.3,11.17-15.01.87-4.09.96-8.12-.44-12.14-.3-.87-.3-1.85.47-2.77,8.32-9.92,19.1-14.25,31.73-12.56,8.26,1.1,15.46,5.12,20.38,12.35.45.66.93,1.17.53,2.15-3.45,8.43-1.03,16.13,4.28,22.59,2.81,3.41,6.19,6.52,9.04,9.99,6.61,8.04,10.25,17.46,12.51,27.51,1.54,6.86,1.66,13.88.93,20.71-1.28,12.04-5.46,23.2-12.94,32.92-4.32,5.61-9.46,10.3-15.81,13.94Z"/><path class="cls-10" d="M411.46,294.75c11.03-.3,22.23,6.87,25.49,19.15,1.07,4.04,1.02,8.07-.34,12.03-.27.79-.72,1.49-1.63,1.9-5.98,2.7-12.06,4.73-18.74,5.23-8,.59-15.43-1.11-22.75-3.95-1.2-.47-1.94-1.22-2.45-2.53-2.72-7.06-3.51-14.09.29-20.98,4.36-7.89,11.53-10.75,20.12-10.84Z"/><path class="cls-10" d="M444.2,175.15c4.18,3.12,7.54,6.37,9.86,10.56,3.83,6.9,4.56,14.19,2.9,21.9-.78,3.62-1.28,7.3-2.97,10.63-1.72,3.39-3.59,3.64-6.41,1.11-3.36-3.01-4.32-7.19-5.47-11.25-1.32-4.66-.22-8.83,2.24-12.99,3.6-6.08,2.16-12.44.12-18.7-.08-.24-.11-.49-.27-1.27Z"/><path class="cls-10" d="M382.07,177.89c-.7,1.76-1.52,3.49-2.09,5.3-1.65,5.23.09,9.97,3.13,13.96,1.93,2.54,2.05,5.26,2.05,7.81,0,4.11-1.07,8.19-3.24,11.89-1.23,2.09-3,3.52-4.97,4.75-1.97,1.23-3.7.69-4.58-1.4-1.69-4.03-2.54-8.11-1.93-12.67.65-4.92,1.05-9.87,2.46-14.64,1.71-5.78,4.74-10.82,9.18-14.98Z"/><path class="cls-10" d="M465.64,246.41c3.33,3.08,5.84,6.77,7.96,10.63,2.49,4.53,5.3,9.04,5.84,14.35.51,5.07.84,10.2-1.02,15.11-1.19,3.14-4.89,5.4-7.79,5.03-2.29-.3-2.98-1.6-2.66-3.85,1.02-7.04,2.28-13.98,1.54-21.25-.7-6.82-2.01-13.42-3.87-20.01Z"/><path class="cls-10" d="M359.79,250.27c-.12,3.02-1.26,5.82-1.76,8.73-1.32,7.58-1.32,15.11-.49,22.72.32,2.93.79,5.78,1.65,8.59.53,1.74-.56,1.97-1.91,1.77-3.88-.58-9.41-5.34-9.54-10.16-.31-11.11,4-20.56,10-29.47.49-.74,1.07-1.42,1.62-2.11.04-.05.17-.03.43-.06Z"/><path class="cls-10" d="M446.8,335.7c-2.67.13-5.83-.45-8.97-1.1-1.04-.22-1.99-.92-2.05-1.82-.06-.93.48-1.96,1.64-2.4,2.82-1.06,4.78-3.98,7.87-4.2,4.4-.31,8.87-1.68,13.25.25,3.12,1.37,3.42,2.64,1.06,5.09-3.36,3.49-7.66,4.28-12.81,4.19Z"/><path class="cls-10" d="M393.17,332.16c-1.07,2.32-3.16,3.23-5.21,3.39-4.63.36-9.32.55-13.79-1.16-1.31-.5-2.5-1.24-3.56-2.27-3.8-3.68-2.9-3.84,1.5-5.71,2.79-1.19,5.72-1.04,8.65-1.12,1.25-.03,2.03.73,2.85,1.31,2.97,2.12,6.13,3.88,9.57,5.55Z"/><path class="cls-4" d="M264.93,83.09c-.1-6,1.02-10.81,4.52-15.01,4.96-5.94,12.14-3,15.12,1.55,5,7.63,4.57,19.82-1.45,26.64-4.17,4.72-11.08,5.18-14.88-1.03-2.4-3.92-3.78-8.18-3.31-12.15Z"/><path class="cls-4" d="M324.83,106.83c-.14-3.22.88-7.1,3.26-10.78,3.84-5.93,11.28-7.1,16.13-1.24,5.52,6.68,7.89,16.76,3.14,25.14-5.49,9.7-12.01,9.02-18.45,1.31-2.97-3.55-4.29-8.77-4.09-14.43Z"/><path class="cls-4" d="M189.36,252.35c2.42.06,6.87,2.99,6.9,4.55.05,2.27-4.63,7.35-6.66,7.24-2.56-.13-4.32-2.82-4.23-6.47.07-2.63,2.12-5.36,4-5.32Z"/><path class="cls-4" d="M271.49,286.18c0-2.5,1.28-4.12,3.4-3.87,1.79.21,3.84.54,4.19,2.86.24,1.62-3.16,4.8-4.84,4.72-1.59-.08-2.75-1.63-2.76-3.71Z"/><path class="cls-4" d="M310.15,175.53c-.35-2.23,1.36-2.96,3.17-3.33,1.32-.28,3.93,2.36,3.93,3.7,0,1.19-3.17,4.4-4.35,4.4-1.62,0-2.79-1.93-2.76-4.76Z"/><path class="cls-6" d="M246.37,166.13c1.45.13,2.86.65,2.93,2.74.06,1.6-2.07,3.63-3.8,3.85-2.2.27-1.52-2.8-3.42-2.88-.04,0,3.21-3.68,4.29-3.7Z"/><path class="cls-4" d="M353.46,130.11c2.19.12,3.7.72,3.96,2.58.23,1.64-2.04,3.64-3.72,3.44-2.07-.25-2.36-2.2-2.5-3.57-.14-1.34.71-2.85,2.26-2.45Z"/><path class="cls-6" d="M304.77,62.42c-.01,1.52-2,4.01-3.15,3.81-1.59-.28-2.24-1.75-2.23-2.97.02-1.39.5-3.1,2.57-2.99,1.39.07,2.66.44,2.81,2.14Z"/><path class="cls-4" d="M128.71,243.02c.16,9.39-2.23,17.92-7.64,25.58-4.74,6.71-11.09,10.92-19.3,11.39-7,.4-13.12-2.48-18.26-7.2-7.78-7.16-11.81-16.14-13.24-26.59-1.43-10.41.37-19.97,6.08-28.76,4.03-6.2,9.6-10.73,16.9-11.91,10.91-1.77,19.92.55,28.01,12.22,5.27,7.6,7.63,16.12,7.45,25.28Z"/><path class="cls-4" d="M145.57,182.36c-6.88-4.39-13.37-9.14-20.62-12.58-6.35-3.01-13.11-4.51-20.14-4.73-9.91-.31-19.65.6-29.11,3.79-4.8,1.62-8.93,4.37-12.94,7.36-.49.37-1.01.71-1.54,1.01-.43.24-.7,1.35-1.4.41-.58-.79.4-1.02.74-1.36,1.22-1.19,2.24-2.61,3.81-3.44,1.37-.72,1.1-1.44.16-2.49-2.19-2.46-3.79-5.3-5.19-8.3-.61-1.31-.59-2.23.52-3.05,1.79-1.32,3.59-2.63,5.46-3.83,1.81-1.16,3.91-.63,4.86,1.28,1.39,2.77,2.85,5.54,3.84,8.45.48,1.43,1.14,1.52,2.06,1.1,4.62-2.13,9.52-3.37,14.5-3.98,6.6-.8,13.22-1.22,19.92-.36,4.52.58,8.93,1.4,13.14,3.08,1.49.59,1.84-.48,2.25-1.15,1.64-2.65,2.72-5.53,3.35-8.6.71-3.46,1.64-3.75,4.67-1.9,1.79,1.1,3.72,1.99,5.61,2.92,1.66.81,2.17,2,1.35,3.68-1.56,3.2-2.99,6.47-4.75,9.56-.87,1.53-.87,2.43.51,3.53,3.25,2.58,6.37,5.3,8.76,8.75.13.18.11.47.18.84Z"/><path class="cls-4" d="M82.29,111.05c.07-7.78,2.23-14.14,6.89-19.44,2.48-2.83,5.85-4.32,9.63-5.15,3.65-.79,6.6.37,9.34,2.33,3.29,2.35,5.25,5.84,6.24,9.62,2.4,9.16,1.51,17.98-4.28,25.75-4.99,6.69-12.5,10.1-20.3,4.27-4.07-3.04-5.87-7.66-6.91-12.52-.39-1.82-.83-3.66-.62-4.86Z"/><path class="cls-4" d="M59.46,111.09c.25,5.98-1.38,11.24-6.14,15.15-3.65,3-8.12,2.33-10.57-1.7-4.41-7.26-3.68-16.17.93-22.96,2.04-3.01,4.96-4.9,8.73-4.03,3.66.85,5.27,3.92,6.47,7.18.76,2.07.54,4.23.57,6.37Z"/><path class="cls-4" d="M141.75,111.34c-.2-3.01.4-6.35,2.37-9.53,3.07-4.94,9.1-4.86,12.47-.04,4.41,6.32,4.56,17.06.14,23.34-3.31,4.7-7.41,4.71-11.68-.88-1.91-2.5-3.57-5.72-3.3-12.89Z"/><path class="cls-4" d="M251.42,438.5c.78-3.97.35-8,.48-12.55-8.12,8.44-18.63,10.07-28.89,12.22-8.99,1.89-18.08,3.05-27.24,3.91-9.19.87-18.39,1.6-27.58,1.39-10.55-.24-21.07-1.15-30.71-6.33-4.82-2.59-8.96-6.04-13.5-9.7-.37,3.23-.44,6.05-.14,9.16-3.99-5.48-3.78-13.33.28-17.01.45-.41.77-1.15,1.51-1,.8.16,1.63-1.21,2.37.09.73,1.29-.54,1.45-1.12,1.97-2.28,2.02-2.09,2.44.48,4.05,5.67,3.56,11.72,6.04,18.28,7.25,3.06.56,6.14,1.09,9.23,1.3,17.38,1.17,34.8.77,52.18.43,12.41-.24,24.95-.86,36.82-5.33,2.13-.8,4.11-1.99,6.2-2.92,2.13-.95,2.19-2.22.74-3.82-.58-.65-1.67-1.3-.96-2.22.73-.94,1.65.12,2.37.44,2.21.98,2.76,2.94,2.98,5.2.39,4.1-1.08,10.08-3.78,13.49Z"/><path class="cls-4" d="M166.44,388.56c2.82-.18,5.51.17,7.98,1.62,2.59,1.51,2.92,3.7.96,5.97-2.66,3.09-6.43,3.83-10.08,4.3-3.78.48-7.67.47-11.26-1.5-3.47-1.91-3.93-4.22-.84-6.76,3.82-3.14,8.53-3.53,13.24-3.62Z"/><path class="cls-4" d="M208.99,387.95c3.52.8,7.27.67,10.61,2.73,1.62,1,2.67,2.36,2.7,3.94.04,1.81-1.23,3.28-3.07,3.99-6.18,2.37-11.9,1.32-17.21-2.41-1.36-.96-2.32-2.4-1.89-4.15.4-1.65,1.66-2.52,3.35-2.99,1.79-.49,3.59-.85,5.51-1.1Z"/><path class="cls-4" d="M148.17,382.03c2.98-2.17,6.17-2.74,9.24-3.12,3.56-.44,7.2-.19,10.81-.11,1.07.02,1.93.85,1.83,1.94-.14,1.48-1.53.82-2.15.68-4.22-.95-8.48-.23-12.7-.5-2.3-.14-4.39,1.07-7.02,1.1Z"/><path class="cls-6" d="M201.76,364.95c-2.53,2.65-4.73,5.49-5.87,9-.33,1.01-.45,2.14-1.01,2.99-.38.57.3,2.01-1.05,1.7-.84-.2-1.31-1.04-1.42-2.06-.19-1.74.71-3.06,1.47-4.43,1.8-3.25,4.18-5.91,7.87-7.2Z"/><path class="cls-6" d="M134.35,393.36c3.77-3.75,8.58-5.17,13.67-5.87.84-.12,1.78.04,1.83,1.05.05.83-.74,1-1.52,1.15-4.71.93-9.51,1.54-13.99,3.67Z"/><path class="cls-4" d="M135.96,415.11c-.73-2.04.34-3.52,1.43-4.72,1.99-2.18,3.49-5.12,6.93-5.43.59-.05,1.54-.58,1.76.56.16.82-.4,1.18-1.05,1.62-2.28,1.53-4.49,3.16-6.69,4.82-1.05.79-1.99,1.73-2.39,3.15Z"/><path class="cls-6" d="M234.96,385.89c-4.26.25-8.11,1.81-12.03,3.19-.79.28-1.7.09-1.93-.91-.23-1.02.71-1.45,1.39-1.65,4.1-1.17,8.28-1.62,12.57-.63Z"/><path class="cls-6" d="M160.77,424.8c1.47-2.84,3.06-5.61,5.34-7.94.8-.82,1.92-.74,2.69-.23.56.37.32,1.41-.22,1.92-2.4,2.28-4.86,4.51-7.29,6.75-.18-.17-.35-.33-.53-.5Z"/><path class="cls-6" d="M123.89,404.16c1.08-2.23,2.87-3.64,5-4.71,2.03-1.02,3.89-2.45,6.23-2.66.56-.05,1.54-.55,1.71.63.14.93-.56,1.22-1.25,1.48-2.6.97-5.22,1.88-7.8,2.91-1.41.56-2.73,1.33-3.9,2.36Z"/><path class="cls-3" d="M276.5,431.1c-3.13-5.24-7.89-7.84-11.62-11.68,3.71-.57,10.48,5.98,11.62,11.68Z"/><path class="cls-6" d="M269.76,415.04c-3.24-2.83-7.08-4.54-10.98-6.15-.92-.38-1.8-.83-1.39-1.88.36-.91,1.58-.63,2.15-.37,4.11,1.9,7.71,4.48,10.21,8.4Z"/><path class="cls-4" d="M178.2,386.23c2.08.69,3.71,1.23,5.19,2.22,1.3.87,1.77,2.09,1.35,3.44-.25.8-.43,2.17-1.68,2.06-.92-.08-1.32-.98-1.53-1.93-.47-2.13-2.43-3.42-3.33-5.79Z"/><path class="cls-6" d="M218.38,380.7c-3.25.64-6.56,1.15-9.77,1.99-1.33.35-2.24.17-2.42-1.01-.15-1.03,1.1-1.06,1.89-1.29,2.52-.71,5.11-.49,7.68-.57,1.02-.03,1.9.17,2.61.87Z"/><path class="cls-6" d="M168.99,373.57c5.72-2.13,12.1.44,11.91,4.53-3.59-2.51-7.24-4.8-11.91-4.53Z"/><path class="cls-6" d="M192.42,386.87c-1.08,2.2-2.69,3.83-3.3,6.02-.11.4-.61,1.06-.75,1.02-.48-.14-1.09-.46-1.26-.87-.7-1.71-1.17-3.4,1.15-4.45,1.26-.57,2.35-1.51,4.16-1.71Z"/><path class="cls-6" d="M211.94,370.86c-4.13,2.43-7.53,5.65-10.5,9.74-.35-3.82,4.44-8.18,10.5-9.74Z"/><path class="cls-4" d="M216.18,405.01c3.7,3.32,4.42,7.75,4.89,12.29-1.05-4.35-4.03-7.91-4.89-12.29Z"/><path class="cls-6" d="M170.62,407.85c-.13,1.01-.7,1.9-1.79,1.92-1.1.02-2.09.56-3.12.54-.56-.01-1.12.9-1.55.14-.34-.62.16-1.18.66-1.62,1.34-1.18,2.62-2.42,4.64-2.29.9.05,1.45.21,1.15,1.31Z"/><path class="cls-6" d="M104.25,427.52c1.25-3.87,3.5-6.97,6.92-9.2.51-.33,1.11-.53,1.47-.14.67.72-.21,1.12-.6,1.46-2.75,2.47-5.87,4.58-7.8,7.88Z"/><path class="cls-4" d="M186.33,368.07c-.49,2.44-.79,4.85.06,7.31.25.73.07,1.62.05,2.43,0,.32.09.82-.41.84-.3,0-.68-.19-.91-.42-1.8-1.82-1-8.44,1.2-10.16Z"/><path class="cls-3" d="M114.76,414.67c1.24-2.53,2.93-4.54,5.66-5.39.7-.22,1.46-1.01,2.03.1.62,1.21-.58,1.76-1.2,1.98-2.32.8-4.45,1.9-6.49,3.32Z"/><path class="cls-9" d="M177.14,404.67c2.18-2.35,3.45-5.49,6.19-7.64.46,2.51-2.63,6.32-6.19,7.64Z"/><path class="cls-9" d="M238.88,419.07c-1.34-2.63-2.66-5.28-4.03-7.9-.27-.52-.61-.93.15-1.25.61-.25,1.07.04,1.35.55,1.43,2.65,2.52,5.42,2.53,8.59Z"/><path class="cls-8" d="M190.27,458.23c0-2.73.06-4.72-.02-6.69-.05-1.07.7-1.64,1.37-1.7.91-.08.81.91.84,1.61.1,2.27-.8,4.21-2.19,6.79Z"/><path class="cls-7" d="M196.41,403.27c-2.3-.76-4.05-2.18-5.54-3.91-.46-.53-1.05-1.28-.38-1.87.71-.62,1.17.09,1.65.7,1.37,1.73,2.84,3.39,4.27,5.08Z"/><path class="cls-3" d="M184.72,419.44c.26-3.11,1.46-5.26,2.63-7.42.32-.59.92-.71,1.4-.5.79.36.51,1.04.16,1.58-1.24,1.92-2.52,3.82-4.19,6.33Z"/><path class="cls-4" d="M212.07,418.32c-1.02-2.35-1.87-4.12-2.54-5.96-.22-.61-.8-1.67.49-1.94.98-.21,1.25.41,1.57,1.34.7,2,.39,3.98.48,6.56Z"/><path class="cls-6" d="M148.62,453.28c-2.56.08-4.54-2.7-3.51-4.95.29-.63.78-.99,1.5-.85.96.19.69,1,.52,1.49-.67,1.88-.08,3.25,1.5,4.32Z"/><path class="cls-3" d="M239.56,405.95c-2.55-.64-3.88-2.26-5.45-3.54-.33-.27-1.18-.8-.41-1.53.64-.61,1.13-.23,1.59.29,1.32,1.52,3.08,2.66,4.27,4.78Z"/><path class="cls-6" d="M154.08,418.77c1.49-2.12,3.26-3.09,5.06-3.96.44-.21,1.33-.41,1.65.33.37.87-.3,1.22-1.01,1.48-1.76.65-3.52,1.32-5.7,2.15Z"/><path class="cls-11" d="M145.21,426.16c-.5-1.92.06-3.47.74-5,.39-.88,1.14-1.31,1.94-.86.86.48.32,1.19-.09,1.81-.83,1.24-1.61,2.51-2.59,4.04Z"/><path class="cls-6" d="M231.12,394.82c3.5-.65,5.81.37,8.05,1.76-2.42-.77-5.34.66-8.05-1.76Z"/><path class="cls-3" d="M106.45,435.02c.22-4.29,1.81-7.22,4.23-7.69-1.39,2.52-2.7,4.92-4.23,7.69Z"/><path class="cls-9" d="M232.29,452.06c1.72-2.3,2.27-4.37,3.06-6.34.15-.36.06-1.3.93-.9.55.26.99.58.58,1.46-.95,2.07-1.81,4.15-4.58,5.78Z"/><path class="cls-4" d="M137.54,450.99c-2.91-.29-3.13-2.62-3.86-4.44-.33-.82.52-1.25,1.24-1.4.76-.15.93.45.82,1-.37,1.9.84,3.27,1.8,4.83Z"/><path class="cls-3" d="M243.59,398.82c3.11.57,4.72,2.79,7.42,4.76-3.37-.74-6.35-2.7-7.42-4.76Z"/><path class="cls-4" d="M185.75,405.47c.22-2.15.2-4.28.17-6.42-.01-.79.73-.81,1.14-.86.85-.1.44.67.47,1.05.17,2.22-.82,4.18-1.78,6.22Z"/><path class="cls-8" d="M150.98,408.81c.32-2.58,2.35-2.97,3.84-3.82.37-.21,1.32-.44,1.61.39.3.87-.29,1.43-1.02,1.59-1.49.33-2.95.67-4.44,1.84Z"/><path class="cls-12" d="M243.42,447.37c.16-1.78,1.05-3.35.82-5.14-.07-.54.25-.79.81-.78.56,0,.77.26.82.8.18,2.16-.67,3.84-2.45,5.12Z"/><path class="cls-6" d="M170.3,429.77c.19-2.11-.63-4.63,2.37-5.97.45,2.69-1.13,4.26-2.37,5.97Z"/><path class="cls-4" d="M140.21,422.24c-.15-2.45.69-3.81,2.01-4.96.46-.4,1.05-.54,1.44-.22.56.47.37,1.09-.12,1.61-.98,1.03-1.94,2.08-3.34,3.57Z"/><path class="cls-7" d="M121.6,447.54c-1.33-2-1.73-3.52-1.65-5.2.03-.66.1-1.32.9-1.39,1.09-.09.72.8.73,1.32.05,1.51.02,3.02.02,5.27Z"/><path class="cls-4" d="M198.26,454.64c-.3-1.05-.68-2.09-.87-3.17-.18-1.02.21-1.85,1.4-1.82,1.25.02.6,1.05.74,1.64.29,1.24-.7,2.18-1.27,3.35Z"/><path class="cls-6" d="M216.46,454.3c.76-1.32,1.5-2.67,2.31-3.96.42-.67,1.16-1.08,1.82-.51.63.55-.05,1.23-.39,1.63-.97,1.14-2.09,2.17-3.14,3.24-.2-.13-.4-.27-.59-.4Z"/><path class="cls-3" d="M164.74,456.64c-1.31-2.21-2.05-3.82-2.29-5.65-.07-.54-.19-1.16.47-1.33.64-.17,1.03.46,1.1.91.28,1.77.43,3.56.71,6.07Z"/><path class="cls-6" d="M216.04,426.41c-.47-1.48-.92-2.97-1.44-4.44-.17-.49-.72-.97.18-1.2.55-.14.85.08,1.18.7.9,1.67.18,3.37.08,4.94Z"/><path class="cls-4" d="M152.12,429.18c0-1.49,0-2.99,0-4.48,0-.62-.12-1.31.89-1.23,1.05.08.81.9.71,1.4-.3,1.43-.75,2.82-1.14,4.23-.15.03-.31.05-.46.08Z"/><path class="cls-4" d="M202.18,421.19c-.74-.86-1.48-1.62-2.09-2.46-.33-.45-.78-1.03.01-1.57.91-.62,1.05.15,1.25.7.37,1.06,1.11,2.03.83,3.33Z"/><path class="cls-3" d="M264.26,434.78c-1.56-1.57-.7-3.4-.87-5.07.97,1.47,1.23,3.08.87,5.07Z"/><path class="cls-4" d="M173.37,452.3c1.47,1.65,1.07,3.17,1.01,4.81-1.5-1.36-.87-2.97-1.01-4.81Z"/><path class="cls-4" d="M185.76,429.36c-.77-.94-1.27-1.85-.78-2.92.21-.45.94-.41,1.18-.11.89,1.08-.44,1.9-.4,3.03Z"/><path class="cls-4" d="M414.8,238.65c-11.41.25-20.71-9.37-20.52-20.27.2-11.57,7.98-19.12,19.82-19.38,10.82-.24,19.66,8.96,19.8,20.68.12,10.11-8.79,19.78-19.1,18.97Z"/><path class="cls-4" d="M413.2,265.41c-5.06-.13-10.06-.86-14.65-3.27-2.44-1.28-5.14-2.85-4.88-6.05.24-3.01,2.69-4.78,5.37-5.65,9.17-2.97,18.3-3.14,27.17,1.16,2.35,1.13,4.11,2.72,3.91,5.75-.19,2.88-2.2,4.23-4.28,5.38-3.89,2.15-8.22,2.56-12.65,2.67Z"/><path class="cls-10" d="M286.11,84.33c-2.74-3.53-5.68-4.61-8.49-3.28-3.73,1.77-6.4,6.48-5.51,10.05.66,2.65,1.45,5.3,4.2,7.57-3.16-.44-4.93-1.96-6.49-3.73-5.26-5.97-4.87-17.43-1.23-23.25,4.49-7.18,11.78-5.74,15.43.74,2.03,3.61,2.45,7.53,2.09,11.9Z"/><path class="cls-10" d="M339.17,125.78c-12.97-2.86-15.69-19.33-9.78-28.51,3.68-5.72,9.77-6.38,14.35-.39,3.4,4.44,4.61,9.43,4.64,15.16-1.61-1.01-3.1-1.79-4.91-1.53-1.91.28-3.13,1.54-4.35,2.83-2.6,2.75-3.66,7.52.04,12.43Z"/><path class="cls-10" d="M71.92,240.79c-.09-8.59,2.11-16.49,7.21-23.4,4.65-6.3,11.04-10.31,18.84-10.19,8.14.12,15.05,3.99,20.17,10.47,6.6,8.34,9.2,18.07,8.26,28.48-1.05,11.69-5.8,21.56-16.7,27.36-8.21,4.36-17.49,2.4-24.37-3.27-9.25-7.62-13.26-17.66-13.42-29.44Z"/><path class="cls-10" d="M126.13,165.8c2.79-2.97,4.19-6.74,5.59-10.73,1.75,1.47,3.52,2.66,5.52,3.39,1.07.39.64.73.31,1.33-1.58,2.93-3.37,5.77-3.81,9.19-.13,1-.53,1.22-1.56.48-1.85-1.33-3.9-2.38-6.05-3.66Z"/><path class="cls-10" d="M67.48,157.47c.24.37.5.72.7,1.1,1.28,2.4,2.45,4.87,3.87,7.18.77,1.26.52,1.79-.69,2.4-1.6.81-3.13,1.77-4.69,2.67-.69-1.6-1.37-3.2-2.06-4.79-.18-.41-.38-.8-.54-1.21-.46-1.2-2.21-2.47-1.59-3.34,1.08-1.53,2.96-2.49,4.51-3.69.14-.11.29-.19.49-.32Z"/><path class="cls-10" d="M113.41,107c.32,6.73-1.7,12.69-5.83,17.62-5.7,6.82-13.89,7.33-19.75-.99-6.75-9.58-4.3-25.7,4.9-33.12,5.45-4.39,14.67-1.84,17.99,4.83,1.87,3.75,2.94,7.61,2.68,11.65Z"/><path class="cls-10" d="M57.33,110.35c-.01,5.56-1.11,9.81-4.24,13.43-3.63,4.2-6.6,2.76-9.13-.8-4.21-5.93-2.91-16.22,2.05-21.13,3.33-3.3,8.2-2.24,9.72,1.68.99,2.54,1.73,5.01,1.6,6.82Z"/><path class="cls-10" d="M158.65,115.01c.24,3.55-.57,6.94-2.9,9.84-2.61,3.23-6.58,2.76-8.67-.14-4.4-6.11-5.54-12.92-2.91-20.11,1.25-3.41,3.66-5.13,6.49-4.96,2.65.15,4.06,2.01,5.27,4.03,2.06,3.45,2.89,7.22,2.72,11.34Z"/><path class="cls-10" d="M136.58,432.3c10.3,2.84,20.69,3.3,31.16,3.88,9.99.55,19.91-.37,29.86-.34,5.77.02,11.61.05,17.36-.48,4.53-.42,9.13-.35,13.59-1.49.92-.24,1.96-.03,2.96.12-5.27,1.4-10.61,2.35-16,3.15-8.65,1.28-17.39,1.59-26.06,2.65-.72.09-1.45,0-2.18.03-3.69.18-7.43.38-11.08.37-10.42,0-20.91-.02-30.98-3.59-3.1-1.1-5.99-2.51-8.64-4.31Z"/><path class="cls-10" d="M162.37,398.87c-2.48.16-4.82.21-7.04-.56-1.12-.39-2.43-.85-2.65-2.34-.24-1.58.78-2.35,1.98-3.07,2.21-1.32,4.61-2,7.19-2.48-.84,2.88-.92,5.69.52,8.44Z"/><path class="cls-2" d="M169.02,390.75c.7,0,1.17-.1,1.56.02,1.53.47,3.67.5,3.8,2.54.15,2.37-2.18,3-3.83,3.86-1.14.59-1.2-.73-.94-1.2,1.03-1.85-.17-3.37-.59-5.21Z"/><path class="cls-2" d="M213.05,397.63c1.33-2.17,1.5-4.45.94-6.89,2,.14,3.6,1.06,5.16,2.06,1.89,1.22,1.41,2.61-.05,3.67-1.71,1.24-3.71,1.72-6.05,1.16Z"/><path class="cls-2" d="M208.11,389.85c-1.26,2.13-2.6,4.12-1.8,6.65-.56.51-.79-.14-1.14-.27-1.81-.67-4.22-1.28-3.85-3.59.3-1.85,2.47-2.42,4.4-2.44.79,0,1.39-.93,2.39-.36Z"/><path class="cls-10" d="M404.63,202.92c7.36-4.3,17.98-2.41,23.91,4.97,4.25,5.28,5.78,14.45.91,21.61-4.29,6.31-11.48,10.14-21.06,6.81-8.79-3.06-12.77-10.24-12.92-18.75.74,3.17,2.31,5.89,5.17,7.36,6.88,3.56,12.43-1.26,12.7-7.02.3-6.53-2.94-12.82-8.7-14.98Z"/><path class="cls-10" d="M412.23,263.7c-4.26.27-8.3-.55-12.26-2.04-2.05-.77-3.47-2.2-4.8-3.76-1.1-1.29-.5-2.47.47-3.6,1.85-2.16,4.48-2.96,7-3.47,7.77-1.55,15.4-.97,22.64,2.53,1.56.75,3.09,1.64,3.16,3.63.07,2.12-1.5,3.15-3.1,4-4.1,2.18-8.51,3-13.11,2.71Z"/><path class="cls-4" d="M103.06,108.14c0,3.1-1.51,5.55-3.32,5.59-1.64.03-4.24-2.52-4.31-4.22-.1-2.49,1.91-4.31,4.62-4.46,2.49-.13,3.23,1.08,3.01,3.1Z"/><path class="cls-6" d="M51.9,115.65c-.32,1.6-.49,3.38-2.52,3.55-1.89.16-2.93-1.45-2.87-2.91.05-1.47.35-3.48,2.72-3.6,2.19-.11,2.29,1.5,2.67,2.95Z"/><path class="cls-6" d="M153.77,115.76c-.21,1.62-.08,3.53-2.57,3.49-1.73-.02-3.37-2.08-3.46-4.1-.09-2.17,1.2-3.39,3.03-3.3,2.06.11,3.24,1.61,3,3.91Z"/></svg>