<?xml version="1.0" encoding="UTF-8"?><svg id="Calque_1" xmlns="http://www.w3.org/2000/svg" viewBox="0 0 485.15 482.95"><defs><style>.cls-1{fill:#86658f;}.cls-1,.cls-2,.cls-3,.cls-4,.cls-5,.cls-6,.cls-7,.cls-8,.cls-9,.cls-10,.cls-11,.cls-12,.cls-13,.cls-14,.cls-15,.cls-16,.cls-17{stroke-width:0px;}.cls-2{fill:#080401;}.cls-3{fill:#7a5b80;}.cls-4{fill:#060805;}.cls-5{fill:#f2ce00;}.cls-6{fill:#72adc0;}.cls-7{fill:#959595;}.cls-8{fill:#0080c7;}.cls-9{fill:#84648d;}.cls-10{fill:#080807;}.cls-11{fill:#070304;}.cls-12{fill:#f4cf00;}.cls-13{fill:#e1d495;}.cls-14{fill:#0b0a0b;}.cls-15{fill:#fff;}.cls-16{fill:#8fcd78;}.cls-17{fill:#00d200;}</style></defs><path class="cls-10" d="M71.69,319.93c4.58.33,5.91,1.74,6.15,6.45.25,4.99-1.98,8.99-5.31,12.39-1.77,1.81-2.59,3.67-2.62,6.22-.16,14.45-.32,28.94,1.67,43.24,1.37,9.87,4.6,19.37,10.33,27.84,2.39,3.53,5.64,5.42,9.38,6.91.57.23.83.06,1.12-.3.37-.47.95-.88.21-1.57-.89-.82-.96-1.91-.08-2.63,3.95-3.18,6.48-7.89,11.14-10.3,1.2-.62,2.34-1.34,4.03-2.3-3.2.21-3.27-1.63-3.11-3.6.17-2.07,1.16-3.76,2.32-5.42,2.98-4.27,7.46-7.16,10.49-11.4.91-1.27,2.16-.92,3.25.2,1.93,1.97,6.1,2.76,8.5,1.72,2.22-.96,3.06-3.98,1.93-6.86-1.41-3.59-.93-4.37,2.99-4.23,3.45.12,6.93.4,9.9,2.41,1.18.8,1.43-.11,1.8-.71,2.03-3.25,4.54-6.11,7.15-8.89,2.98-3.18,6.49-5.53,10.7-6.71,3.2-.9,4.27-.33,5.48,2.8.41,1.05.86,1.01,1.55.35,1.54-1.45,2.34-3.12,1.99-5.34-.51-3.2.52-3.99,3.58-3.09,2.63.78,5.11,1.9,7.42,3.33,1.53.95,2.68.85,4.07-.26,1.5-1.21,2.91-2.43,3.81-4.18.43-.83,1.07-1.58,2.14-1.31.96.24,1.39.99,1.59,1.99,1.15,5.72,1.18,5.74,6.4,3.22,4.84-2.34,9.84-4.08,15.23-4.72,3.27-.39,6.3.45,9.39,1.14.98.22,1.49,1.05,1.32,2.09-.2,1.21-1.11,1.55-2.2,1.58-3.61.12-6.05,2.38-8.54,4.71,4.89-.22,9.72-.38,14.54-.47,4.27-.08,8.05.96,11.43,3.56,1.08.83,2.51,1.43,1.98,3.15-.47,1.5-1.85,1.51-3.14,1.6-2.64.2-5.21.76-7.72,1.57-1.01.32-2.09.55-2.98,1.65,2.84.99,5.53,2.08,8.3,2.86,5.43,1.54,10.1,4.43,14.51,7.82,2.21,1.7,2.23,2.46.16,4.53,2.93,1.65,5.96,3.11,8.71,4.98,2.17,1.48,4.71,2.9,4.96,6.06.04.57.54.66.91.88,8.91,5.3,17.47,11.06,23.73,19.57,1.23,1.67,1.89.6,2.65-.29,4.49-5.27,7.12-11.5,9.47-17.94,4.2-11.51,4.12-23.54,4.68-35.48.33-6.98-.04-13.99.11-20.98.06-2.66-.82-4.58-2.66-6.47-3.83-3.93-6.07-8.57-5.07-14.3.56-3.24,2.06-4.67,5.32-4.5,1.46.07,1.91-.24,1.85-1.71-.11-2.46.8-4.63,2.3-6.55,2-2.55,4.25-2.55,6.3-.03,1.11,1.36,1.6,3.03,2.22,4.65,2.77,7.24,2.57,14.41-.57,21.47-.76,1.71-1.14,3.46-1.16,5.28-.14,9.99-.04,19.96.21,29.96.34,13.72-.48,27.5-5.2,40.59-2.69,7.46-6.75,14.34-11.93,20.36-3.9,4.53-9.04,6.98-15.27,5.38-1.29-.33-1.63.45-2.19,1.01-2.24,2.26-4.5,4.49-7.19,6.23-1.67,1.07-3.19,1.74-3.75-1.08-.23-1.18-.88-.89-1.52-.32-8.14,7.3-18.35,8.98-28.6,10.57-1.52.24-3.07.49-4.51,1.01-5.55,1.99-11.34,2.19-17.12,2.57-1.17.08-2.35.21-3.5.43-2.67.52-3.52,2.46-2.46,4.99.44,1.05,1.12.7,1.76.68,2.73-.08,5.21.64,7.38,2.3,2.55,1.96,3,4.77,1.21,7.46-1.73,2.61-3.93,4.47-7.23,4.76-3.54.31-7.09.64-10.58-.05-3.71-.74-4.63-2.11-4.44-5.92.19-3.82.03-7.61-.48-11.4-.15-1.14-.49-1.5-1.65-1.47-9.08.3-18.13-.81-27.21-.81-1.55,0-1.6.72-1.67,1.76-.25,3.63-.1,7.26.37,10.87.61,4.63-.34,6.3-4.89,7.04-4.71.76-9.41.89-13.5-2.37-2.58-2.05-3.9-4.53-3.16-7.83.61-2.73,3.62-5.33,6.79-5.45,2.01-.07,2.4-.86,2.44-2.59.04-1.87-.85-2.54-2.55-2.78-12.57-1.8-25.1-3.9-37.36-7.25-5.38-1.47-10.84-2.97-14.99-7.17-.72-.72-1.47-1.84-2.69-.15-.71.98-1.98.39-2.79-.55-1.77-2.05-3.7-3.99-4.62-6.65-.33-.96-.75-1.55-2.17-1.29-6.41,1.19-11.35-1.59-15.15-6.44-9.21-11.75-14.32-25.05-15.35-40.04-.62-9.07-1.06-18.09-.58-27.18.38-7.16.01-14.35.04-21.53.01-3.01-1.32-5.63-2.22-8.37-1-3.05-1.86-6.1-1.48-9.33.17-1.48-.4-1.6-1.66-1.49-3.66.33-7.25-.13-10.7-1.43-5.39-2.02-6.79-4.74-5.53-10.39,1.05-4.72,4.41-7.43,8.42-9.34,1.51-.72,1.69-1.49,1.7-2.86.07-6.84-1.77-12.87-6.17-18.34-4.6-5.73-7.65-12.48-10.82-19.31-.59,1.3-1.03,2.43-1.61,3.5-3.92,7.24-10.87,8.76-17.52,3.64-6.05-4.65-9.67-11.03-11.69-18.25-3.64-12.96-2.7-25.81,1.25-38.58,2.3-7.44,4.19-15.04,7.5-22.11,2.85-6.09,6.2-11.95,12.45-15.35.87-.47,1.01-1.22,1.12-2.03,1.42-10.26,4.46-20.17,6.5-30.28,1.22-6.03.76-12.17-1.56-18.18-3.34-8.63-4.84-17.48-.68-26.42,2.25-4.84,6.1-8.29,10.46-10.76,3.94-2.23,8.37-.61,12.25,1.32,6.67,3.31,8.69,3.1,13.94-2.08,6.69-6.61,13.92-12.26,22.82-15.88,10.02-4.07,19.33-2.68,28.55,1.88,7.2,3.56,13.76,8.07,19.42,13.82.51.52,1.03,1.02,1.58,1.51,3.95,3.49,6.74,3.84,11.36,1.24,3.25-1.83,6.7-2.67,10.42-2.62,1.23.02,2.37.26,3.34.96,9.43,6.79,13.89,14.25,11.86,27.67-.81,5.33-3.61,10.11-4.32,15.41-.86,6.41-.75,12.82,1.93,19.2,2.59-2.77,5.05-5.38,7.49-8.02,4-4.34,8.84-7.93,14.6-8.42,5.44-.46,4.32-4.75,5.33-7.27,3.89-9.71,5.79-20.07,8.6-30.13,2.5-8.94,4.62-18.05,7.58-26.82,3.43-10.16,7.72-20.14,15.12-28.23,2.73-2.98,6.15-5.31,9.81-7.18,1.5-.77,2.24-1.73,2.15-3.71-.37-8.18,1.6-15.66,7.44-21.76,2.87-3,5.76-5.86,10.29-6.23,1.03-.09,2.04-1.06,2.95-1.75.88-.67,1.99-.55,2.47-.02.56.62.75,1.68-.03,2.67-.87,1.1-1.42,2.44-2.18,3.64-3.29,5.24-4.42,10.98-3.15,16.95.72,3.4,2.91,5.89,6.59,7.08,3.92,1.28,7.66,3.11,11.4,4.86,1.54.72,2.15,1.19,2.97-1.05,1.12-3.01,3.65-5.3,6.02-7.51.55-.51,1.15-1.21,2.09-.48.84.65.99,1.55.6,2.32-1.1,2.16.05,4,.63,5.99.66-3.42,1.92-6.61,2.81-9.9.21-.77.14-1.74.6-2.29.4-.49.86-1.55,1.89-1.06.76.36,1.8.46,1.66,1.77-.57,5.61,3.35,9.05,6.52,12.65,4.61,5.22,10.35,9.26,15.52,13.9,1.77,1.59,3.9,1.84,6.1,2.24,11,2,21.54,5.47,31.43,10.7,1.26.66,1.92.45,2.39-.42,2.78-5.12,7.44-8.66,10.9-13.19,1.2-1.57,2.4-3.17,3.47-4.83.66-1.02,1.52-.75,2.4-.7,1.09.06,1.06,1.11,1.04,1.63-.35,9.36,2.85,18.23,3.69,27.41.41,4.47.79,9.21-2.27,12.9-1.51,1.81-1.64,3.36-1.49,5.39.41,5.6-.92,10.99-2.37,16.32-2.78,10.19-6.7,19.93-10.94,29.62-2.84,6.48-5.49,13.27-6.4,20.6,2.95.23,5.77-.15,8.6-.77.94-.21,2.17-.77,3.08.62.83,1.27.21,2.06-.31,3.12-3.91,7.97-9.06,14.88-15.84,20.75-7.11,6.17-12.54,13.8-17.49,21.84-6.33,10.27-9.48,21.65-12.97,33-4.01,13.04-7.4,26.32-12.75,38.91-2.7,6.34-6.49,12.13-10.4,17.86-3.67,5.38-8.12,9.92-13.29,13.6-6.19,4.41-13.22,6.86-21.04,5.59-1.95-.32-2.82,0-3.33,2.27-.66,2.93-2.03,5.65-2.57,8.72-.78,4.53,1.18,7.76,3.7,11.04,2.34,3.05,4.22,6.33,3.54,10.46-.67,4.15-3.19,7.72-8.18,6.96-7.92-1.21-15.54-3.51-22.35-8.01-4.95-3.28-5.98-8.87-4.5-14.56,1.91-7.37,4.25-14.61,7.38-21.55.72-1.6-.27-1.89-1.29-2.23-6.95-2.32-13.91-4.6-20.86-6.92-5.16-1.72-9.96-4.27-14.95-6.38-8.75-3.71-17.21-7.98-25.31-12.93-1.77-1.08-2.06-.73-2.73.98-1.5,3.81-2.9,7.65-4.28,11.5-2.08,5.83-.77,10.73,3.18,15.27,2.98,3.43,4.17,7.39,2.78,11.91-1.18,3.84-4.45,5.76-8.42,4.9-.77-.17-1.53-.38-2.3-.56-3.82-.91-7.4-1.17-11.43.18-6.93,2.33-13.84.44-20.37-2.35-4-1.71-4.39-3.87-1.83-7.32,1.21-1.63,1.66-3.4.91-5.38-1.42-3.72-2.86-7.44-4.24-11.18-.4-1.09-.86-1.58-2.16-1.35-5.32.95-10.67.66-15.98-.1-7.25-1.03-14.43-.63-21.66.34-4.11.55-8.34.69-12.46-.17-1.61-.33-2.28.14-2.8,1.57-1.26,3.49-2.63,6.94-3.96,10.41-.85,2.23-.66,4.39,1.05,6.06,1.85,1.81,1.72,3.61.58,5.62-.04.21-.07.43-.11.64.29-.03.58-.06.88-.1ZM66.46,371.44c-.01-2.18.17-4.38-.07-6.53-1-8.99.59-17.95.14-26.93-.06-1.3.14-2.93,1.67-3.01,3.91-.21,4.49-3.5,5.83-5.99.5-.94.92-2.72-.63-3.34-1.76-.71-2.32.79-2.76,2.15-.08.26-.2.51-.33.75-.38.74-.77,1.55-1.78,1.39-1.11-.18-1.37-1.1-1.43-2.04-.06-1.09.09-2.19-.03-3.26-.11-.96.71-2.71-.7-2.7-1.63.02-4.11.04-4.63,1.98-.73,2.71-1.27,5.75,1.67,7.89.86.63.95,1.68,1.04,2.7.68,7.6,1.1,15.2.98,22.83-.07,4.71-.21,9.42-.31,14.13-.64,5.53.14,11.02.4,16.53.69,14.49,4.97,27.68,13.84,39.3,1.95,2.55,4.3,4.3,7.32,5.24.28.37.63.55,1.1.39.43.18.98.35,1.26-.03.79-1.05-.22-5.15-1.41-5.67-3.47-1.5-5.89-4.09-8.05-7.1-6.14-8.53-8.9-18.4-11.34-28.37-1.63-6.66-.84-13.57-1.78-20.31ZM146.64,455.92c.45.69,1.14.54,1.8.5.72.04,1.47-.04,2.17.12,11.94,2.77,24.15,2.48,36.27,3.07,17.64.86,35.15-.39,52.41-4.38,4.22-.98,8.54-1.55,12.74-2.62,6-1.52,11.84-3.5,16.48-7.93,1.04-.99,2.22-1.77-.06-2.78-.97-.44-1.14-1.64-.52-2.63.44-.69,1.5-1.01,1.87-.41,1.36,2.24,4.43,1.88,5.75,3.93.95,1.47,1.45.75,2.46.06,3.81-2.59,4.44-7.09,6.61-10.65,1.85-3.03,1.67-3.12,4.29-.71.81.74,1.78,1.59,2.84.58.98-.92.45-1.96-.23-2.92-1.41-2-3.19-3.88-4.04-6.1-1.1-2.85-3.22-4.44-5.43-6.13-1.52-1.16-3.01-2.33-4.53-3.49-4.69-3.57-9.39-7.13-15-9.22-1.37-.51-3.18-1.61-2.26-3.1,1.6-2.59-.44-2.88-1.74-3.63-4.66-2.68-9.66-4.57-14.84-5.93-2.28-.6-2.97-2.3-2.91-3.96.08-2.04,2.09-1.43,3.48-1.47.57-.02,1.2.26,1.87-.34-.45-.32-.77-.65-1.15-.81-6.2-2.53-12.39-5.11-18.98-6.5-1.17-.25-2.45-.3-2.8-1.72-.37-1.49.82-2.07,1.84-2.66.86-.5,1.8-.87,2.66-1.37,3-1.73,6.3-2.69,9.59-3.83-7.64-1.51-15.16-1.2-22.62.66-1.08.27-2.15.71-3.08-.14-.98-.89-.48-1.97-.21-3.04.83-3.28,3.34-5.24,6.14-7.54-7.23.43-13.05,3.41-18.84,6.42-2.45,1.27-3.82.94-5.2-1.41-.49-.83-.83-1.75-1.34-2.82-1.74,1.93-4.39,2.37-5.59,4.8-.53,1.07-1.97,1.05-2.45-.03-1.11-2.48-3.52-2.96-5.53-4.09-1.4-.79-2.28-1.11-2.54,1.24-.53,4.74-5.68,8.53-10.35,8.04-1.76-.19-2.43-1-1.92-2.74.16-.54.87-1.01.17-1.79-1.38-.03-2.51.78-3.64,1.49-4.31,2.71-7.48,6.55-10.34,10.67-1.4,2.01-2.71,4.09-4.76,5.54-2.05,1.44-2.98,1.08-3.47-1.38-.29-1.46-3.46-2.96-5.6-2.57-1.88.34-.75,1.8-.76,2.64-.12,5.73-3.31,8.77-8.93,8.35-2.32-.17-4.76.36-6.87-1.14-.18-.12-.64-.14-.75-.01-2.45,2.63-5.68,4.56-7.66,8.1,3.41-.69,6.45-1.09,9.54-1.04.97.01,1.78.32,2.26,1.22.41.77.18,1.52-.39,1.98-3,2.45-5.28,5.75-9.04,7.33-4.42,1.86-8.9,3.72-12.23,7.4-.45.49-1.69.75-.9,1.85,1.37,1.89.2,2.93-1.21,4.02-2.48,1.92-4.31,4.43-5.75,7.18-1.11,2.1-.48,3.29,1.76,3.62,1.47.22,2,1.03,1.95,2.43-.07,1.75.25,3.45.98,5.03.49,1.06.79,2.45,2.6,1.01,1.24-.99,2.62-.27,3.73.99,4.07,4.63,9.4,7.31,15.08,9.35,5.83,2.09,12.08,2.29,18.02,3.94,2.97.82,5.99,1.46,9.11,1.47ZM315.63,247.14c.83-2.55,1.66-5.09,2.5-7.64,2.29-7.22,4.48-14.48,6.91-21.65,2.88-8.51,7.45-16.17,12.47-23.57,4.48-6.6,9.92-12.23,16.07-17.35,5.08-4.22,8.21-10.21,12.34-15.72-3.59.19-6.85.53-10.1.51-13.85-.11-26.62-4.67-39.04-10.14-8.36-3.68-16.31-8.27-24.11-13.08-5.59-3.45-10.82-7.43-16.62-10.58-3.33-1.81-6.58-4.1-9.18-6.83-4.95-5.18-10.5-9.73-15.21-15.12-.8-.92-2.62-1.86-1.02-3.25,1.16-1.01,2.42-.38,3.58.85,4.1,4.37,8.41,8.53,12.86,12.55,1.16,1.04,1.36.92,2.12-.09,1.7-2.25,3.49-4.43,5.26-6.63.47-.59,1.08-1.1,1.85-.58.71.48,1.58.87,1.33,2.1-.65,3.31-.34,6.6.92,9.69.74,1.8-.06,4.31,1.81,5.43,4.68,2.78,8.96,6.16,13.63,8.93,12.05,7.16,24.21,14.11,37.68,18.36,7.28,2.3,14.57,4.51,22.32,4.49.22-1.11.3-2.29.68-3.36,2.82-7.98,4.92-16.22,8.82-23.81,1.49-2.9,2.99-5.91,3.79-9.05,1.56-6.08,3.53-12.03,5.1-18.1,1.87-7.24,2.5-14.18-.21-21.38-2.13-5.67-5.31-9.96-10.8-12.87-6.62-3.51-13.05-7.37-20.27-9.56-3.62-1.1-7.02-3.08-11.54-2.76,2.91,1.63,5.38,3.08,7.91,4.4,1.05.55,1.99,1.15,1.35,2.37-.54,1.02-1.4,1.18-2.72.62-4.4-1.89-8.4-4.45-12.32-7.13-5.75-3.94-10.97-8.57-16.16-13.18-4.17-3.71-8.54-7.38-11.3-12.57-1.23,1.9-.97,3.77-.62,5.59,1.05,5.53,3.55,10.37,7.32,14.52.89.98,1.04,2.19.4,2.93-.85.98-2.18.64-3.06-.33-1.41-1.56-3.04-3.01-3.79-5.03-2.16-5.81-7.1-9.75-9.87-15.21-2.43,3.27-2.57,4.01-2.26,7.93.2,2.49.92,4.66,2.74,6.45.79.77.86,1.68.01,2.61-.87.96-1.73.33-2.4-.06-.74-.43-1.29-1.22-1.87-1.89-1.73-2.02-1.88-4.61-2.33-7.04-.19-1.02-.45-1.49-1.38-1.97-4.88-2.51-9.96-4.51-15.11-6.43-.65,2.2-.56,4.56-3.2,5.77-3.97,1.81-11.19,1.22-14.57-2.46-1.29-1.41-2.3-.88-3.08-.46-7.47,4.05-12.83,10.17-16.65,17.67-4.38,8.61-7.61,17.64-10.08,26.98-2.29,8.64-5.25,17.11-7.4,25.77-2.33,9.37-4.57,18.74-8.34,27.67-.58,1.36-.46,2.28.64,3.44,2.76,2.91,4.32,6.48,4.98,10.47,1.1,6.61-2.55,17.25-10.53,20.34-3.16,1.22-6.03,3.34-7.84,6.42-5.31,9.04-6.21,18.18-.37,27.37,2.1,3.31,4.17,6.47,8.6,7.29,2.78.51,5.02,2.31,5.17,5.62.14,3.05-.58,5.67-3.83,6.72-1.98.64-.95,1.83-.43,2.56,1.55,2.19,1.46,4.61.02,6.38-3.94,4.83-11.03,6.43-16.07,2.48-4.78-3.75-8.14-8.82-10.29-14.63-.9-2.42-2.16-4.7-3.25-7.05-2.16,1.06-2.29,3.46-3.37,5.22-4.13,6.72-8.55,13.3-11.29,20.75-1.3,3.55-3.08,7.25-2.78,10.96.42,5.16,2.15,10.13,6.56,13.59,1.51,1.18,2.07,2.44,1.27,4.5-1.51,3.85-2.94,7.74-4.79,11.43-3.87,7.71-6.32,15.92-8.57,24.19-1.01,3.73.51,8.42,2.94,9.93,6.33,3.92,13.21,6.27,20.55,7.46,1.97.32,3.08-.59,3.91-1.99,1.76-2.95.56-5.59-1.12-8.12-2.3-3.46-5.42-6.46-5.31-11.14.21-9.02,4.08-16.84,7.83-24.71.46-.97,1.31-1.09,2.23-.3,2.79,2.4,6.18,3.85,9.33,5.66,9.04,5.18,18.65,9.19,28.16,13.4,6,2.65,12.21,4.67,18.42,6.68,9.09,2.94,18.3,5.5,27.55,7.92,7.88,2.06,15.65,1.72,23.05-2.25,7.78-4.17,12.93-10.97,17.59-18.06,6.84-10.41,11.15-21.98,14.33-34,.52-1.96,1.67-3.74,1.56-5.87ZM153.27,319.64c-1.39-.65-2.28-1.04-3.16-1.47-7.96-3.93-10.1-7.25-9.16-15.03.7-5.77,3.18-11.29,5.14-16.84,2.22-6.31,5.3-12.21,8.11-18.24.45-.96.77-1.89-.58-2.97-3.61-2.9-5.71-6.86-6.61-11.42-1.46-7.36,1.38-13.97,3.95-20.52,2.23-5.69,5.9-10.66,8.98-15.92,1.93-3.29,4.72-6.35,5.64-9.9.97-3.75-1.44-7.67-1.86-11.61-.45-4.18-1.98-8.28-1.58-12.51.74-7.76,2.03-15.48,5.06-22.7,1.74-4.15,2.09-7.93.77-12.36-2.52-8.44-2.25-16.92.94-25.34,2.85-7.51,4.73-15.51.4-22.93-4.83-8.27-9.49-11.83-17.64-7.57-7.49,3.92-11.87,3.28-17.83-2.58-8.44-8.3-18.19-14.37-29.8-17.19-2.16-.53-4.3-.6-6.45,0-6.22,1.77-12.19,4.04-17.71,7.51-5.84,3.66-10.37,8.81-15.6,13.15-.76.63-1.45,1.4-2.56,1.41-4.1.04-8.09-.01-11.82-2.31-2.73-1.68-6.27-2.92-9.06-1.22-3.56,2.16-6.86,4.96-8.72,9.08-3.47,7.67-2.11,15.18.67,22.5,3.33,8.79,3.27,17.56.85,26.43-4.01,14.74-6.78,29.66-7.46,44.96-.37,8.27-.32,16.5.49,24.73.68,6.88,2.51,13.55,3.95,20.28,3.04,14.19,7.23,27.97,15.91,39.89,4.65,6.38,7.44,13.23,6.99,21.22-.08,1.35.32,2,1.77,2.05,1.25.04,2.53.61,2.37,2.05-.19,1.76-1.63,1.56-2.96,1.33-4.02-.69-7.09,1.08-9.59,3.97-3.68,4.26-2.35,8.49,2.94,10.07,6.41,1.92,12.35.12,18.28-2,1.29-.46,1.34-1.09.52-2.2-2.06-2.79-2.1-5.92-1.01-9.08.89-2.57,1.96-5.08,2.86-7.64,1.63-4.65,1.61-4.69-3.3-5.2-1.2-.12-2.29-.22-2.12-1.76.15-1.38,1.26-1.74,2.42-1.61,1.71.2,3.44.4,5.08.89,6.3,1.87,12.73,2,19.1,1,6.41-1,12.77-1.48,19.18-.43,7.49,1.22,14.91,1.5,22.31-.68,1.71-.5,3.51-1,5.36-.76,1.01.13,1.71.65,1.74,1.74.03,1.17-.7,1.52-1.75,1.59-1.08.08-2.14.4-3.22.45-2.12.09-1.99,1.08-1.33,2.64,1.26,3.01,2.4,6.07,3.53,9.13,1.25,3.41,1.39,6.77-.9,9.84-.77,1.02-.63,1.61.51,2.01,5.63,1.99,11.27,3.99,17.98,2.04ZM203.02,149.55c.32-3.27-2.04-7.14-5.19-10.67-1.54-1.74-3.32-1.86-5.53-1.2-3.56,1.07-6.07,3.5-8.68,5.87-4.59,4.16-9.02,8.57-11.51,14.29-2.35,5.41-4.05,11.12-5.07,16.98-.8,4.6-1.64,9.21-.76,13.91.77,4.1,1.18,8.3,2.26,12.31,1.66,6.15,2.94,12.48,6.83,17.81,1.55,2.13,3.17,4.26,4.35,6.6,2.01,3.98,4.89,5.67,9.17,4.64,1.61-.39,3.38-1.08,3.8-2.88.32-1.39-1.02-2.24-1.86-3.27-.74-.92-2.49-1.22-2.23-2.78.24-1.41-.24-2.25-1.12-3.32-.39-.48-1.67-1.94-.41-2.96,1.16-.94,2.35-.55,3.36.49.86.88,1.76,1.71,2.6,2.61,1.2,1.29,2.43,1.05,3.86.37,1.49-.71,1.02-1.86.9-2.95-.21-1.96-1.86-2.33-3.29-2.58-3.99-.72-6.8-2.77-8.81-6.36-2.56-4.56-5.32-8.92-5.61-14.39-.22-4.05.11-8,1.4-11.82,2.06-6.13,5.4-11.66,11.47-14.17,6.45-2.67,10-8.85,10.08-16.52ZM23.54,179.71c-1.48.26-2.18,1.03-2.72,1.81-2.39,3.51-5.11,6.79-6.76,10.8-1.55,3.78-2.73,7.68-4.02,11.55-3.83,11.47-7.02,23.04-6.16,35.36.62,8.94,3.28,17.03,8.88,24.08,2.47,3.11,5.6,5.12,9.66,5.48,1.32.12,2.63.12,3.47-1.04,3.65-5.06,5.41-10.62,3.81-16.84-3.95-15.37-7.77-30.73-7.48-46.8.15-8.07.52-16.11,1.31-24.4ZM235.03,331.97c.15,3.14.08,6.39,2.95,8.2,6.34,4,13.27,6.56,20.75,7.56,1.58.21,2.67-.15,3.63-1.49,1.78-2.49,1.39-5.93-1.25-9.24-3.07-3.84-5.65-7.81-4.91-13.12.49-3.51,1.37-6.89,2.98-10.03,1.05-2.05.54-2.92-1.67-3.41-4.4-.97-8.78-2.06-13.12-3.29-1.27-.36-1.36.44-1.61,1.05-1.17,2.86-2.3,5.74-3.36,8.64-1.82,4.96-3.38,10-4.39,15.12ZM296.29,433.82c1.1-.24,1.71-.83,2.19-1.48,4.66-6.3,8.95-12.85,11.36-20.36,3.83-11.9,4.49-24.24,4.23-36.61-.27-12.72-.55-25.42.49-38.11.09-1.12.15-2.34,1.12-2.95,2.27-1.42,2.17-3.63,2.1-5.78-.09-2.65-.83-5.19-1.76-7.67-.43-1.13-.57-2.91-2.19-2.65-1.49.23-1.83,1.85-1.95,3.25-.07.9-.04,1.82-.04,2.72.02,2.09.06,4.18.07,6.27,0,.99-.35,1.86-1.43,2.02-1.01.15-1.37-.72-1.74-1.45-.41-.81-.64-1.75-1.19-2.43-.97-1.22-2.09-1.15-2.74.32-.94,2.13,2.65,8.56,4.96,8.47,2.6-.1,2.65,1.5,2.69,3.11.19,8.08.53,16.16.35,24.23-.19,8.34-.55,16.7-1.48,24.98-1.41,12.6-5.09,24.58-12.89,34.78-2.32,3.03-2.76,5.8-2.15,9.33ZM260.1,6.07c-1.51.73-2.7,1.01-3.48,1.72-5.21,4.81-9.31,10.18-9.83,17.71-.27,3.91-.36,7.36,3.37,9.85,2.34,1.56,4.83,1.26,7.35,1.25,1.08,0,2.19,0,2.61-1.28.5-1.52.59-3.31-.18-4.5-2.04-3.15-3.06-6.51-3.21-10.19-.2-4.95.96-9.63,3.36-14.56ZM374.62,51.19c-4.2,4.25-7.46,8.19-10.7,12.15-1.1,1.34-1.67,2.13.5,3.36,4.11,2.32,7.55,5.41,9.53,10.01.95,2.21,1.25,4.72,3.07,7.29,3.71-11.5-2.06-21.6-2.4-32.8ZM167.76,467.86c.05,0,.1,0,.15,0,0-1-.1-2,.02-2.99.27-2.34-1.35-2.34-2.92-2.56-2-.28-1.95,1-1.95,2.36,0,1.62.4,3.49-.27,4.79-.89,1.73-3,.19-4.52.64-.26.08-.55.05-.8.13-1.61.5-3.11,1.22-3.55,3.02-.46,1.87.66,3.09,2.02,4.12,3.27,2.46,6.9,2.26,10.65,1.55,1.45-.28,1.99-.92,1.84-2.39-.29-2.88-.47-5.77-.69-8.66ZM206.18,473.2c0,.4.16,1.52-.03,2.57-.49,2.78,1.02,3.56,3.35,3.59,2.63.03,5.25.17,7.86-.4,2.57-.56,5.57-3.11,4.95-4.55-1.05-2.42-3.39-2.75-5.75-2.67-4.58.16-4.58.18-5.39-4.26-.07-.36-.21-.73-.15-1.07.5-3.01-.97-3.25-3.5-2.96-1.77.2-2.25.75-1.86,2.3.57,2.23.44,4.51.51,7.46ZM290.62,437.9c1.24-.14,2.79-.09,2.71-1.65-.12-2.49-2.49-1.44-3.83-1.9-1.12-.39-2.32.4-2.18,1.68.2,1.97,2.05,1.58,3.3,1.87ZM274.86,122.22c-.28-1.67-.47-3.15-.81-4.59-.06-.26-.05-1.44-1.1-.67-1.48,1.08-1.69,2.98-.29,3.98.62.44,1.31.77,2.2,1.28ZM108.81,405.23c2.57-.78,5.11-1.56,7.22-4.19-3.39.49-5.71,1.66-7.22,4.19ZM108.22,405.23c-.06.06-.18.13-.17.18.03.13.11.24.17.37.06-.06.18-.13.17-.18-.03-.13-.11-.25-.17-.37ZM164.85,366.1c-.07.05-.13.11-.2.16.06.06.11.17.17.18.06,0,.13-.09.2-.15l-.17-.19Z"/><path class="cls-4" d="M454.08,325.98c2.88.65,5.26,1.04,7.46,2.27,2.79,1.57,4.13,3.9,4.17,7.11.04,2.95-1.95,4.17-4.09,5.55-3.2,2.07-6.68,2.73-10.36,2.67-3.63-.05-7.26-.18-10.82-1.01-1.97-.46-4-1.16-5.16-2.81-1.13-1.61-2.1-1.62-3.8-1.1-10.34,3.18-20.73,3.19-31.08.03-1.62-.49-2.63-.64-3.83,1-1.55,2.12-4.18,2.88-6.72,3.21-3.77.49-7.58.85-11.4.65-3.25-.17-6.13-1.31-8.9-3.01-4.12-2.54-4.72-7.71-1.1-10.98,2.5-2.25,5.54-2.97,8.82-2.95.36-.87-.45-1.1-.84-1.47-6.61-6.17-11.54-13.48-14.94-21.84-.34-.84-.51-1.6-1.67-1.84-11.53-2.29-13.51-10.71-12.88-21.25.6-10.12,4.99-19,11.55-26.75.23-.28.42-.64.71-.82,6.01-3.54,8.08-10,11.41-15.5,1.22-2.02,3.3-3.87,3.7-5.89.35-1.78-2.51-3.32-3.45-5.36-4.62-10.03-4.56-20.28-.95-30.46,3.06-8.6,7.83-16.14,15.93-21.07,1.26-.76,2.56-1.36,3.95-1.78,1.14-.34,2.35-.6,3.27.51,1.03,1.24.13,2.21-.55,3.15-3.39,4.7-5.63,9.9-6.82,15.56-.07.35-.21.72-.19,1.07.11,2.07-.99,4.78,1.57,5.8,1.83.73,2.56-1.72,3.67-2.79,6.65-6.39,14.69-10.06,23.64-11.27,5.03-.68,9.99,1.23,14.66,3.3,5.2,2.3,9.8,5.47,13.67,9.68.51.55.8,1.96,1.99,1.21.88-.55,1.66-1.26,1.67-2.59.03-2.38-.14-4.71-.85-6.98-1.4-4.52-3.21-8.85-6.02-12.71-.71-.97-1.89-1.99-.79-3.36,1.06-1.32,2.43-.89,3.74-.4,5.82,2.2,10.13,6.23,13.6,11.26,7.42,10.78,10.07,22.56,7.27,35.43-.86,3.96-2.47,7.58-5.35,10.52-.6.62-1.09.97-.32,1.93,3.34,4.21,5.84,8.94,8.16,13.77.73,1.51,1.7,2.73,2.99,3.77,10.09,8.09,14.75,19.01,16.23,31.5.49,4.1-.48,8.14-1.8,12.02-1.67,4.92-5.71,7.06-10.39,8.2-1.51.37-2.18,1.15-2.73,2.54-3.26,8.11-8.11,15.17-14.49,21.16-.45.42-1.02.72-1.54,1.08ZM470.42,255.85c-.09-.23-.17-.45-.26-.68-.05.07-.15.13-.16.2-.03.28.03.52.4.49-.19,1.68.4,3.23.85,4.78,2.81,9.77,4,19.67,2.5,29.8-.33,2.2-.78,4.38-1.19,6.67,5-1.17,6.99-3.52,8.11-8.58,1.64-7.44.14-14.4-2.87-21.15-1.87-4.2-3.77-8.42-7.38-11.53ZM361.39,255.85c-3.61,3.1-5.5,7.33-7.39,11.52-3.28,7.29-4.7,14.81-2.45,22.73,1.18,4.18,3.55,6.34,7.65,6.72-.03-.37-.02-.73-.1-1.07-2.16-8.95-2.18-17.92-.5-26.95.81-4.35,2.52-8.49,2.8-12.95.37.03.43-.21.4-.49,0-.07-.1-.13-.16-.2-.09.23-.17.45-.26.68ZM385.66,179.17c-12.3,8.52-18.3,30.38-12.01,43.89.64,1.38,1.55,2.66,2.43,3.91.44.62,1.03,1.02,1.72.1,2.39-3.17,5.67-5.66,7.17-9.49,2.08-5.31,3.53-11.13-.26-15.78-3.09-3.8-2.78-7.34-2.26-11.37.5-3.83,2.41-7.2,3.57-10.81.08-.2.15-.39.23-.59-.2.04-.41.09-.61.13ZM446.16,179.18c-.2-.05-.41-.09-.61-.14.08.2.15.39.23.59,1.05,2.89,2.41,5.71,3.07,8.69,1.05,4.7,2.64,9.66-2.09,13.56-.31.26-.39.8-.56,1.22-2.11,4.93-1.28,9.75.66,14.47,1.3,3.16,3.63,5.59,6,8,2.36,2.39,2.57,2.44,4.3-.57,3.4-5.92,4.02-12.43,3.28-18.99-1.21-10.75-5.58-19.99-14.29-26.82ZM441.51,329.91c.35.04.56.13.69.07.57-.27,1.15-.54,1.68-.88,17.03-10.86,26.04-26.55,26.86-46.57.51-12.39-2.09-24.28-8.43-35.25-4.22-7.29-7.7-15.06-13.75-21.11-5.18-5.18-7.65-11.5-6.79-18.49.53-4.34-1.03-6.8-3.82-9.25-.41-.36-.76-.79-1.17-1.14-13.58-11.45-28.02-11.49-41.6-.1-1.59,1.33-2.87,3.04-4.4,4.45-1.1,1.01-1.15,2.09-.93,3.44,1.11,6.96.04,13.63-4.73,18.88-6.05,6.66-10.5,14.22-14.92,21.96-6.02,10.53-9,21.75-9.2,33.73-.23,13.93,4.05,26.45,12.89,37.27,4.08,5,8.84,9.3,14.98,12.63-1.9-9.24-.61-17.24,5.85-24.09,6.32-6.71,13.89-9.92,23.09-9.4,6.83.39,12.36,3.43,16.83,8.42,6.53,7.28,9.02,15.77,6.88,25.43ZM415.96,337.51c4.48-.31,9.09-1.18,13.73-2.06,5.95-1.13,8.26-4.94,8.96-10.38.25-1.93-.03-3.82-.47-5.67-3.52-14.86-15.17-21.68-28.41-19.25-3.81.7-6.8,2.86-9.72,5.2-8.06,6.46-10.48,16.28-6.34,25.66.47,1.08,1.08,1.77,2.17,2.22,6.36,2.61,13.01,3.87,20.08,4.28ZM437.57,336.66c4.44,3.87,16.34,4.36,22.03,1.18,1.14-.63,2.69-.97,2.6-2.75-.1-1.9-1.1-3.24-2.81-3.99-3.77-1.67-7.7-1.7-11.31.05-3.47,1.68-6.77,3.74-10.52,5.51ZM394.26,336.6c-3.99-1.63-7.36-4.14-11.15-5.71-3.58-1.48-7.44-1.45-11.05.4-1.46.75-2.29,2.01-2.44,3.67-.16,1.8,1.37,2.11,2.47,2.84,4.9,3.24,10.3,1.97,15.56,1.65,2.32-.14,4.68-.59,6.62-2.85Z"/><path class="cls-12" d="M315.63,247.14c.11,2.13-1.04,3.92-1.56,5.87-3.18,12.01-7.48,23.59-14.33,34-4.66,7.08-9.81,13.88-17.59,18.06-7.4,3.97-15.17,4.31-23.05,2.25-9.24-2.42-18.46-4.98-27.55-7.92-6.2-2.01-12.42-4.02-18.42-6.68-9.51-4.21-19.13-8.22-28.16-13.4-3.15-1.81-6.54-3.26-9.33-5.66-.92-.79-1.76-.67-2.23.3-3.75,7.87-7.62,15.69-7.83,24.71-.11,4.68,3.02,7.68,5.31,11.14,1.69,2.54,2.88,5.17,1.12,8.12-.83,1.4-1.94,2.31-3.91,1.99-7.34-1.18-14.23-3.53-20.55-7.46-2.43-1.51-3.95-6.2-2.94-9.93,2.25-8.27,4.7-16.48,8.57-24.19,1.86-3.7,3.28-7.58,4.79-11.43.81-2.06.25-3.32-1.27-4.5-4.41-3.45-6.15-8.43-6.56-13.59-.3-3.71,1.47-7.42,2.78-10.96,2.74-7.45,7.16-14.04,11.29-20.75,1.08-1.76,1.21-4.16,3.37-5.22,1.1,2.35,2.36,4.63,3.25,7.05,2.15,5.81,5.51,10.88,10.29,14.63,5.04,3.95,12.13,2.35,16.07-2.48,1.44-1.76,1.53-4.19-.02-6.38-.51-.73-1.55-1.92.43-2.56,3.25-1.05,3.97-3.68,3.83-6.72-.15-3.32-2.39-5.11-5.17-5.62-4.43-.81-6.5-3.98-8.6-7.29-5.83-9.2-4.94-18.33.37-27.37,1.81-3.08,4.68-5.2,7.84-6.42,7.98-3.09,11.63-13.73,10.53-20.34-.66-4-2.22-7.56-4.98-10.47-1.1-1.16-1.22-2.08-.64-3.44,3.77-8.92,6.01-18.29,8.34-27.67,2.15-8.67,5.11-17.14,7.4-25.77,2.48-9.34,5.71-18.38,10.08-26.98,3.81-7.5,9.18-13.62,16.65-17.67.78-.42,1.79-.95,3.08.46,3.38,3.68,10.6,4.27,14.57,2.46,2.64-1.21,2.55-3.57,3.2-5.77,5.14,1.92,10.22,3.92,15.11,6.43.93.48,1.19.95,1.38,1.97.45,2.43.6,5.02,2.33,7.04.58.68,1.13,1.47,1.87,1.89.67.38,1.53,1.01,2.4.06.85-.93.78-1.84-.01-2.61-1.82-1.79-2.54-3.96-2.74-6.45-.31-3.93-.17-4.67,2.26-7.93,2.77,5.46,7.72,9.4,9.87,15.21.75,2.02,2.38,3.47,3.79,5.03.88.97,2.2,1.31,3.06.33.64-.74.49-1.95-.4-2.93-3.77-4.16-6.27-8.99-7.32-14.52-.35-1.83-.61-3.69.62-5.59,2.77,5.19,7.13,8.86,11.3,12.57,5.19,4.61,10.41,9.24,16.16,13.18,3.92,2.69,7.92,5.24,12.32,7.13,1.32.57,2.18.4,2.72-.62.64-1.22-.29-1.82-1.35-2.37-2.53-1.32-4.99-2.77-7.91-4.4,4.52-.32,7.93,1.66,11.54,2.76,7.22,2.2,13.65,6.05,20.27,9.56,5.49,2.91,8.66,7.19,10.8,12.87,2.71,7.2,2.08,14.14.21,21.38-1.57,6.07-3.54,12.03-5.1,18.1-.8,3.14-2.3,6.14-3.79,9.05-3.91,7.59-6,15.83-8.82,23.81-.38,1.07-.46,2.25-.68,3.36-7.74.02-15.04-2.2-22.32-4.49-13.47-4.25-25.63-11.2-37.68-18.36-4.67-2.77-8.94-6.15-13.63-8.93-1.88-1.11-1.08-3.63-1.81-5.43-1.26-3.08-1.57-6.38-.92-9.69.24-1.22-.62-1.62-1.33-2.1-.77-.52-1.37,0-1.85.58-1.77,2.2-3.55,4.38-5.26,6.63-.76,1.01-.97,1.13-2.12.09-4.45-4.02-8.76-8.18-12.86-12.55-1.16-1.24-2.42-1.86-3.58-.85-1.6,1.39.21,2.34,1.02,3.25,4.72,5.39,10.27,9.94,15.21,15.12,2.61,2.73,5.85,5.02,9.18,6.83,5.8,3.15,11.03,7.13,16.62,10.58,7.8,4.81,15.75,9.4,24.11,13.08,12.42,5.47,25.19,10.03,39.04,10.14,3.25.03,6.51-.32,10.1-.51-4.13,5.51-7.26,11.49-12.34,15.72-6.15,5.12-11.58,10.75-16.07,17.35-5.03,7.4-9.59,15.06-12.47,23.57-2.43,7.18-4.62,14.43-6.91,21.65-.44,0-.88.02-1.32.03.94-6.8.69-13.57-1.22-20.15-1.96-6.78-5.34-12.82-10.22-18.03-7.19-7.68-15.93-12.11-26.41-12.77-10.04-.63-18.9,2.41-26.81,8.79-8.96,7.22-13.52,16.76-15.29,27.72-1.38,8.56-.11,16.94,3.44,24.99,5.11,11.59,13.39,19.64,25.54,23.34,15.95,4.87,29.28.26,40.49-11.66,4-4.25,6.31-9.46,8.77-14.6.18,0,.36,0,.53,0ZM288.74,85.32c-.14-6-1.46-11.7-5.53-16.33-3-3.41-8.09-4.67-11.94-2.17-4.2,2.73-5.82,6.78-6.54,11.29-1.21,7.53-.24,14.7,5.03,20.64,4.49,5.06,11.25,4.98,15.32-.83,2.6-3.7,4.18-7.87,3.66-12.6ZM350.95,111.14c-.09-4.67-1.2-9.49-3.85-13.79-2.52-4.08-7.33-6.21-10.87-5.39-5.16,1.2-7.25,5.09-8.66,9.46-2.37,7.35-1.43,14.53,2.37,21.18,3.28,5.74,10.84,9.05,16.62,2.29,3.37-3.95,3.92-8.56,4.39-13.75ZM318.49,179.19c-.18-2.18-1-3.33-1.76-4.55-.72-1.17-1.57-1.96-2.99-1.6-1.57.4-1.97,1.78-1.92,3.12.07,1.71.59,3.35,2.04,4.49.85.67,1.81,1.37,2.86.7.94-.61,1.97-1.38,1.76-2.16ZM245.98,166.69c-.78.54-1.95.86-1.89,2.51.09,2.36,2.32,5.82,4.02,5.75,1.71-.06,2.53-1.27,2.65-2.8.16-2.04-2.79-5.48-4.78-5.46ZM193.21,259.15c-.1-3.05-1.13-4.65-3.23-4.41-2.72.31-1.74,2.7-1.87,4.25-.16,1.85.86,3.57,2.75,3.58,1.66,0,2.69-1.4,2.35-3.42ZM305.32,64.53c0-1.64-1.77-3.91-3.09-3.69-1.68.29-2.87,1.25-2.74,3.25.12,1.93,2.07,4.2,3.66,3.89,1.77-.34,2.29-1.75,2.17-3.45ZM352.63,134.16c.05,1.99,1.52,3.6,3,3.31,1.28-.25,2.27-1.04,2.31-2.53.05-2.18-1.3-3.48-3.47-3.39-1.99.08-1.5,1.75-1.84,2.61ZM275.63,286.15c-.05,1.46.62,2.79,2.08,2.84,1.8.06,3-1.25,2.97-3.09-.02-1.48-.66-2.82-2.53-2.78-1.95.04-2.44,1.37-2.52,3.03Z"/><path class="cls-8" d="M153.27,319.64c-6.71,1.95-12.35-.06-17.98-2.04-1.14-.4-1.27-.99-.51-2.01,2.3-3.07,2.15-6.43.9-9.84-1.13-3.06-2.27-6.13-3.53-9.13-.65-1.56-.79-2.55,1.33-2.64,1.08-.05,2.14-.37,3.22-.45,1.06-.08,1.79-.43,1.75-1.59-.03-1.09-.74-1.62-1.74-1.74-1.85-.23-3.65.26-5.36.76-7.4,2.19-14.82,1.91-22.31.68-6.41-1.05-12.76-.57-19.18.43-6.37,1-12.81.87-19.1-1-1.64-.49-3.37-.7-5.08-.89-1.16-.13-2.26.23-2.42,1.61-.17,1.54.92,1.63,2.12,1.76,4.91.51,4.93.55,3.3,5.2-.9,2.57-1.97,5.07-2.86,7.64-1.09,3.16-1.05,6.28,1.01,9.08.82,1.11.77,1.73-.52,2.2-5.93,2.12-11.87,3.93-18.28,2-5.29-1.59-6.62-5.82-2.94-10.07,2.5-2.89,5.57-4.66,9.59-3.97,1.33.23,2.77.43,2.96-1.33.16-1.45-1.12-2.01-2.37-2.05-1.45-.05-1.84-.7-1.77-2.05.46-7.98-2.34-14.84-6.99-21.22-8.68-11.91-12.87-25.7-15.91-39.89-1.44-6.73-3.27-13.4-3.95-20.28-.81-8.23-.86-16.47-.49-24.73.68-15.3,3.45-30.22,7.46-44.96,2.41-8.87,2.48-17.64-.85-26.43-2.78-7.32-4.13-14.84-.67-22.5,1.87-4.13,5.16-6.92,8.72-9.08,2.79-1.7,6.33-.46,9.06,1.22,3.73,2.3,7.73,2.35,11.82,2.31,1.11-.01,1.79-.77,2.56-1.41,5.23-4.34,9.76-9.49,15.6-13.15,5.53-3.46,11.5-5.74,17.71-7.51,2.15-.61,4.29-.54,6.45,0,11.61,2.82,21.35,8.89,29.8,17.19,5.96,5.86,10.35,6.49,17.83,2.58,8.16-4.26,12.81-.7,17.64,7.57,4.34,7.42,2.45,15.42-.4,22.93-3.19,8.42-3.46,16.9-.94,25.34,1.32,4.43.98,8.21-.77,12.36-3.03,7.22-4.32,14.94-5.06,22.7-.41,4.24,1.13,8.33,1.58,12.51.42,3.94,2.83,7.86,1.86,11.61-.92,3.55-3.71,6.6-5.64,9.9-3.08,5.26-6.75,10.23-8.98,15.92-2.57,6.55-5.41,13.16-3.95,20.52.9,4.55,3.01,8.51,6.61,11.42,1.35,1.08,1.03,2.02.58,2.97-2.82,6.03-5.9,11.93-8.11,18.24-1.95,5.55-4.44,11.07-5.14,16.84-.94,7.78,1.2,11.1,9.16,15.03.88.43,1.77.83,3.16,1.47ZM101.55,278.19c-.1,0,.45-.04.99,0,11.89,1.07,19.97-4.77,24.91-14.87,6.71-13.73,5.96-27.71-1.17-41.07-5.87-11-14.64-17.77-28.01-16.69-6.11.49-11.33,2.84-15.49,7.1-12.84,13.15-15.82,28.82-10.44,46.01,4.36,13.94,14.11,20.26,29.22,19.51ZM144.32,161.17c-.05-1.07-.55-1.64-1.42-1.92-2.95-.96-5.13-2.95-7.23-5.15-2.31-2.42-3.94-2.09-5.28,1.05-1.35,3.16-2.6,6.38-3.8,9.6-.52,1.41-1.16,1.69-2.61,1.13-15.38-5.97-30.79-5.94-46.17-.02-1.64.63-2.23.13-2.76-1.28-1.21-3.22-2.43-6.45-3.79-9.6-1.26-2.92-2.95-3.22-5.15-.93-2.1,2.19-4.27,4.19-7.21,5.18-1.83.62-1.73,1.85-.93,3.23,1.18,2.04,2.23,4.18,3.62,6.07,1.97,2.7,3.18,5.07-.45,7.45-1.06.7-1.14,2.14-.05,3.08,1.06.92,2.05.31,2.82-.59,1.74-2.03,3.9-3.5,6.16-4.87,20.45-12.31,50.4-11.2,68.05,5.2.73.67,1.59.99,2.46.32.95-.74.96-1.81.38-2.69-.58-.9-1.4-1.68-2.23-2.37-1-.84-1.15-1.49-.36-2.68,1.85-2.8,3.47-5.74,5.17-8.63.32-.54.55-1.13.77-1.59ZM119.37,109.26c-.02-4.09-.55-8.02-2.17-11.75-5.07-11.67-17.14-14.96-26.47-7.24-10.07,8.33-11.65,27.24-3.09,37.11,7.15,8.24,18.28,8.07,25.23-.37,4.26-5.18,6.35-11.13,6.5-17.75ZM162.43,116.61c.02-6.9-1.62-11.91-4.63-15.25-3.98-4.41-9.38-4.32-13.15.23-5.52,6.65-4.59,20.81,1.76,26.7,3.62,3.37,8.49,3.23,11.86-.42,3.22-3.47,4.02-7.81,4.16-11.26ZM60.63,113.28c.18-3.51-.64-7.37-2.92-10.83-3.32-5.04-9.07-5.75-13.24-1.69-6.12,5.97-7.02,19.64-1.73,26.3,3.78,4.76,9.31,4.98,13.32.41,3.4-3.87,4.64-8.54,4.57-14.2Z"/><path class="cls-9" d="M146.64,455.92c-3.11,0-6.14-.64-9.11-1.47-5.94-1.65-12.19-1.85-18.02-3.94-5.68-2.03-11.01-4.72-15.08-9.35-1.1-1.25-2.48-1.97-3.73-.99-1.81,1.44-2.1.05-2.6-1.01-.73-1.58-1.05-3.28-.98-5.03.05-1.39-.48-2.21-1.95-2.43-2.24-.34-2.87-1.52-1.76-3.62,1.44-2.75,3.27-5.25,5.75-7.18,1.4-1.09,2.57-2.13,1.21-4.02-.8-1.1.45-1.36.9-1.85,3.33-3.68,7.81-5.54,12.23-7.4,3.76-1.59,6.03-4.88,9.04-7.33.57-.46.8-1.22.39-1.98-.48-.91-1.29-1.21-2.26-1.22-3.09-.05-6.13.35-9.54,1.04,1.99-3.54,5.21-5.47,7.66-8.1.12-.13.58-.11.75.01,2.11,1.5,4.54.96,6.87,1.14,5.62.42,8.81-2.62,8.93-8.35.02-.84-1.11-2.3.76-2.64,2.14-.39,5.31,1.11,5.6,2.57.49,2.46,1.43,2.83,3.47,1.38,2.06-1.45,3.36-3.53,4.76-5.54,2.86-4.12,6.04-7.96,10.34-10.67,1.12-.71,2.25-1.52,3.64-1.49.7.77,0,1.25-.17,1.79-.51,1.74.16,2.56,1.92,2.74,4.66.49,9.82-3.3,10.35-8.04.26-2.35,1.14-2.03,2.54-1.24,2,1.13,4.41,1.61,5.53,4.09.48,1.07,1.93,1.09,2.45.03,1.2-2.42,3.85-2.87,5.59-4.8.5,1.07.85,1.99,1.34,2.82,1.38,2.36,2.75,2.69,5.2,1.41,5.8-3.01,11.61-5.99,18.84-6.42-2.8,2.3-5.31,4.26-6.14,7.54-.27,1.07-.77,2.15.21,3.04.93.85,2,.41,3.08.14,7.46-1.86,14.98-2.17,22.62-.66-3.29,1.14-6.6,2.1-9.59,3.83-.86.5-1.8.87-2.66,1.37-1.02.59-2.21,1.17-1.84,2.66.35,1.42,1.64,1.47,2.8,1.72,6.59,1.39,12.78,3.97,18.98,6.5.39.16.7.49,1.15.81-.66.6-1.3.32-1.87.34-1.39.04-3.41-.56-3.48,1.47-.06,1.66.63,3.36,2.91,3.96,5.17,1.35,10.18,3.25,14.84,5.93,1.3.75,3.34,1.04,1.74,3.63-.92,1.49.89,2.59,2.26,3.1,5.61,2.1,10.31,5.65,15,9.22,1.52,1.15,3.02,2.33,4.53,3.49,2.21,1.68,4.33,3.28,5.43,6.13.86,2.22,2.63,4.1,4.04,6.1.68.96,1.21,1.99.23,2.92-1.06,1-2.03.16-2.84-.58-2.62-2.41-2.44-2.32-4.29.71-2.17,3.56-2.8,8.07-6.61,10.65-1.01.68-1.51,1.41-2.46-.06-1.33-2.05-4.4-1.69-5.75-3.93-.37-.6-1.43-.28-1.87.41-.62.98-.45,2.19.52,2.63,2.27,1.02,1.1,1.79.06,2.78-4.64,4.43-10.48,6.41-16.48,7.93-4.2,1.06-8.52,1.64-12.74,2.62-17.26,3.99-34.77,5.25-52.41,4.38-12.12-.59-24.33-.29-36.27-3.07-.69-.16-1.44-.09-2.17-.12.18-1.28.37-2.57.55-3.85.14-.99,0-1.86-1.13-2.1-1.19-.25-1.88.46-2.21,1.5-.47,1.5-.13,2.83.99,3.95ZM273.13,419.43c-.44.32-.87.1-1.26-.09-1.12-.53-2.16-.57-2.79.65-.61,1.19.3,1.76,1.13,2.38.93.7,1.83,1.47,2.64,2.31,1.38,1.42,2.75,2.84,3.73,4.62.64,1.15,1.43,2.66,3.1,1.65,1.56-.94.53-2.19-.02-3.3-.78-1.56-2.01-2.76-3.08-4.1-.97-1.22-2.65-1.85-2.96-3.61.32.1.74.1.96.31,1.08,1.03,2.34,2.27,3.62.75,1.37-1.62-.57-2.44-1.43-3.46-.17-.2-.39-.37-.61-.52-.93-.64-1.89-1.09-2.94-.25-1.05.84-.49,1.75-.09,2.65ZM254.45,429.71c.12,2.94-.07,5.37-2.04,7.35-.87.88-1.63,1.91-.43,3.04,1.23,1.16,2.13.19,3-.65,4.08-3.97,4.15-13.79.1-17.75-.39-.38-.78-.83-1.26-1.02-1.02-.4-2.25-.75-2.92.44-.59,1.05-.36,2.13.96,2.66,1.71.69,1.06,1.34-.06,1.91-2.03,1.01-4.02,2.12-6.13,2.94-14.79,5.79-30.34,7.84-46.03,8.61-16.51.81-33,.16-49.28-3.16-7.92-1.62-15.69-3.69-22.89-7.56-2.21-1.19-1.95-2.23-.36-3.59.34-.29.73-.53,1.1-.78.97-.64,1.34-1.52.77-2.56-.53-.97-1.54-.94-2.42-.66-2.01.64-3.36,2.08-4.26,3.95-3.01,6.26-.23,11.83,2.16,17.41.43,1.01,1.57,1.26,2.6.79,1.09-.49,1.31-1.5.97-2.54-.27-.85-.75-1.64-1.16-2.45-1.13-2.25-1.42-3.54-1.17-5.61,3.17,2.84,6.55,5.24,10.36,7.02,3.79,1.77,7.66,3.28,11.71,4.38,15.2,4.12,30.65,5.24,46.35,4.44,14.03-.72,27.75-2.86,41.1-7.26,6.73-2.22,13.09-5.23,19.23-9.33ZM162.35,402.63c5.43-.03,9.64-.54,13.45-2.74,1.96-1.13,3.73-2.58,3.4-5.1-.32-2.48-2.36-3.55-4.5-4.22-3.98-1.24-8.03-1.07-12.08-.4-2.71.45-5.31,1.22-7.58,2.82-3.56,2.51-3.38,6.14.48,8.18,2.47,1.31,5.2,1.51,6.82,1.45ZM215.2,402.1c1.24.11,3.69-.11,6-1,1.89-.73,3.67-1.76,3.97-4.06.32-2.45-1.15-3.95-3.09-4.97-6.22-3.28-12.76-3.8-19.47-1.89-1.96.56-3.73,1.75-4.05,3.99-.34,2.41,1.27,3.89,3.11,5,3.77,2.28,7.98,2.83,13.52,2.92ZM163.1,379.57c-2.92.46-5.84.44-8.62,1.3-.87.27-1.74.76-1.67,1.87.06,1,.83,1.41,1.72,1.32,3.5-.36,6.99-.77,10.48-1.2.69-.08,1.12-.59,1.22-1.28.12-.84-.32-1.44-1.06-1.68-.67-.22-1.41-.23-2.07-.33ZM197.67,369.27c-1.88.5-2.69,2.29-3.42,4-.79,1.86-2.01,3.76-.77,5.89.39.66,1.1.95,1.87.84.8-.11,1.46-.67,1.35-1.44-.39-2.69.95-4.67,2.43-6.64.47-.62.55-1.34.16-2.03-.29-.53-.81-.68-1.63-.62ZM238.56,412.8c-.95.09-2.07.9-1.18,2.02,1.49,1.87,2.36,4.07,3.77,5.95.61.82,1.47,1.17,2.39.69,1.04-.55.85-1.59.44-2.39-.91-1.77-1.95-3.47-2.99-5.17-.45-.73-1.17-1.13-2.43-1.1ZM183.92,427.12c.23-.1.69-.13.87-.38,1.49-2.02,2.97-4.04,4.33-6.14.32-.49.15-1.24-.41-1.72-.65-.56-1.38-.52-1.98-.03-2.09,1.67-3.47,3.91-4.47,6.34-.48,1.17.32,1.84,1.66,1.94ZM139.53,413.47c.47-.24,1.12-.42,1.54-.84,1.36-1.33,2.78-2.55,4.48-3.46.85-.45,1.46-1.2.88-2.22-.55-.96-1.54-.95-2.4-.64-2.45.89-4.37,2.57-5.85,4.64-.82,1.15-.41,2.25,1.36,2.52ZM145.31,388.74c-1.21.19-2.53.45-3.88.59-1.13.12-2.4.18-2.28,1.66.12,1.45,1.39,1.8,2.65,1.72,1.89-.11,3.77-.35,5.65-.53.83-.08,1.34-.54,1.43-1.37.1-.95-.37-1.59-1.27-1.81-.7-.17-1.43-.17-2.3-.26ZM279.53,438.25c-.36-2.05-.81-4.19-2.86-5.47-.82-.51-1.75-.55-2.5.19-.69.67-.81,1.61-.06,2.14,1.41,1,1.75,2.44,2.13,3.93.25.99.81,1.71,1.92,1.43,1.01-.25,1.35-1.11,1.38-2.23ZM132.92,398.2c.5,0,1.31.02,2.11,0,.8-.02,1.4-.38,1.54-1.22.14-.81-.25-1.55-.96-1.74-2.16-.58-4.36-1.06-6.61-.57-.74.16-1.34.63-1.37,1.46-.03.98.62,1.46,1.5,1.6,1.15.18,2.31.29,3.79.47ZM208.21,370.92c-1.33.08-5.34,4.4-5.34,5.75,0,.68.26,1.24.88,1.56.62.31,1.28.29,1.75-.22,1.35-1.45,2.68-2.92,3.97-4.43.5-.59.59-1.32.13-2.01-.32-.48-.8-.71-1.4-.65ZM112.15,416.15c-1.25.46-3.12,1.08-4.93,1.84-.82.34-1.12,1.16-.86,2.05.29.97,1.1,1.21,1.93.97,1.81-.51,3.6-1.09,5.36-1.75.9-.34,1.5-1.09,1.12-2.13-.32-.89-1.11-1.09-2.63-.97ZM108.26,428.74c-.17-1.27-.81-1.94-1.86-1.71-2.35.52-4.34,1.78-5.85,3.66-.46.57-.46,1.39.09,2.01.48.54,1.21.63,1.75.32,1.8-1.03,3.55-2.14,5.28-3.29.32-.22.45-.74.59-.99ZM168.99,419.07c-.47-1.53-1.43-2.06-2.69-1.28-1.53.94-2.93,2.11-4.35,3.21-.68.53-1.14,1.24-.67,2.12.55,1.01,1.55.96,2.38.59,1.92-.85,3.44-2.29,4.92-3.74.23-.23.29-.63.41-.9ZM142.93,427.67c.12.96.27,1.91,1.37,2.1,1.06.19,1.69-.38,1.92-1.42.35-1.59.99-3.06,1.83-4.46.46-.77.33-1.62-.5-2.11-.77-.46-1.62-.36-2.21.32-1.38,1.61-2.09,3.53-2.41,5.57ZM182.93,399.77c-1.86.28-2.98,2.22-4.56,3.5-.81.65-1,1.58-.39,2.41.66.89,1.64.72,2.42.15,1.51-1.12,2.97-2.31,4.42-3.51.54-.44.67-1.07.35-1.71-.38-.75-1.07-.9-2.24-.83ZM124.58,406.21c2.05-.36,3.64-.65,5.24-.92,1.03-.17,1.68-.7,1.61-1.8-.07-1.11-.83-1.53-1.84-1.57-1.75-.07-3.37.54-5.03.95-1.02.25-2.09.49-1.8,1.84.24,1.12,1.21,1.48,1.82,1.49ZM183.65,432.55c-.04,1.23.03,2.16,1.14,2.46.96.27,1.58-.32,1.93-1.11.6-1.35,1.41-2.48,2.55-3.43.71-.59.69-1.48.12-2.2-.5-.62-1.27-.79-1.97-.43-2.05,1.04-3.26,2.76-3.77,4.7ZM156.8,405.4c-1.7.3-3.4.63-4.87,1.61-.72.48-1.16,1.22-.75,2.11.4.87,1.17,1.1,2.06.85,1.39-.4,2.77-.86,4.15-1.28,1.05-.31,1.5-.99,1.27-2.05-.21-.97-.98-1.22-1.87-1.24ZM189.17,399.22c-.94.04-1.47.53-1.85,1.16-.7,1.15-1.36,2.32-2,3.51-.47.87-.57,1.79.44,2.33.88.47,1.85.33,2.39-.54.89-1.44,1.76-2.93,2.39-4.5.45-1.15-.29-1.84-1.36-1.96ZM188.19,375.51c0-.88-.17-2.13-.76-3.28-.39-.77-.97-1.4-1.91-1.16-1.08.27-1.31,1.16-1.18,2.14.14,1.07.3,2.14.52,3.2.24,1.13.38,2.62,1.94,2.47,1.76-.17,1.54-1.68,1.39-3.36ZM174.46,378.87c-.86-1.98-3.05-2.44-4.74-3.52-.71-.45-1.64-.4-2.16.41-.48.76-.3,1.61.34,2.22,1.32,1.25,2.92,2.11,4.62,2.66,1.13.36,1.87-.34,1.93-1.77ZM160.66,415.56c-1.89-.06-2.97-.04-3.94.55-.91.56-1.61,1.32-1.2,2.43.39,1.07,1.43,1.07,2.3.76,1.14-.4,2.27-.5,3.45-.43.92.05,1.61-.34,1.71-1.32.11-1.07-.51-1.69-1.5-1.91-.52-.12-1.07-.1-.81-.08ZM182.5,377.2c-.53-1.85-2.25-2.72-3.42-4.04-.51-.57-1.2-.81-1.94-.31-.78.53-.98,1.29-.61,2.13.76,1.71,2.18,2.91,3.71,3.78,1.21.68,1.96-.29,2.26-1.55ZM231.7,453.13c-.84-1.37-1.72-2.99-2.8-4.47-.38-.52-1.2-.27-1.72.19-1.44,1.27-.87,2.64-.05,3.9.85,1.32,1.88,2.54,3.74,1.95.57-.18.79-.71.83-1.58ZM143.41,418.91c-.08-1.15-.62-1.75-1.56-1.7-2.14.12-3.69,1.32-4.81,3.04-.48.73-.36,1.57.48,2.11.86.54,1.67.11,2.2-.43,1.14-1.17,3.36-1.11,3.68-3.02ZM188.94,394.94c1.12-.04,4.26-4.23,3.93-5.32-.31-1.05-1.11-1.5-2.09-1-1.85.95-3.11,2.44-3.35,4.58-.12,1.04.31,1.76,1.5,1.74ZM215.26,381.81c1.33-.04,2.47-.59,3.49-1.37.69-.53,1.1-1.26.6-2.14-.48-.85-1.27-.96-2.13-.7-.87.26-1.7.65-2.58.8-1.11.19-2.06.55-1.85,1.83.21,1.29,1.26,1.66,2.47,1.59ZM259.07,406.59c-.92.11-1.49.63-1.58,1.55-.11,1.13,2.89,4.19,4.11,4.23.93.03,1.57-.35,1.69-1.34.15-1.25-2.92-4.47-4.22-4.43ZM118.7,410.08c-1.2-.05-2.33.3-3.38.8-.84.4-1.58,1.03-1.3,2.1.3,1.13,1.27,1.15,2.19,1,.97-.16,1.92-.42,2.89-.64,1.11-.25,2.19-.59,1.95-2.05-.23-1.36-1.37-1.18-2.34-1.22ZM168.79,407.55c-1.42.7-3.76.33-4.07,2.71-.16,1.23.95,1.83,2.02,1.46,1.58-.54,3.91-.2,4.24-2.56.16-1.14-.94-1.61-2.19-1.6ZM250.71,412.86c-.75-1.71-2.11-3.1-3.83-4.1-.56-.33-1.26.13-1.52.77-.42,1.01-.24,1.99.57,2.71,1.1.97,1.87,2.58,3.74,2.21.69-.14,1.01-.69,1.04-1.59ZM200.01,419c.31,1.61,1.17,3.17,3.13,3.64,1.02.24,2-.63,1.61-1.56-.68-1.65-1.09-3.79-3.14-4.31-1.2-.31-1.61.84-1.61,2.24ZM115.06,438.73c-.04-.97-.44-1.42-1.07-1.67-1.42-.56-4.77,1.44-4.93,2.93-.07.58.1,1.09.56,1.44.75.57,1.59.52,2.23-.08,1.05-.98,3.1-.85,3.22-2.61ZM185.71,392.74c-.19-1.36-1.46-1.95-2.28-2.88-.6-.69-1.4-1.3-2.37-.62-.92.64-.9,1.63-.33,2.4.88,1.19,1.42,2.95,3.22,2.98.9.01,1.52-.88,1.75-1.89ZM190.18,453.73c-.02,1.34.32,2.51,1.6,3.16.67.34,1.43.35,2.03-.15,1.18-.98.34-1.91-.15-2.83-.08-.15-.08-.35-.08-.52.02-1.17-.17-2.34-1.62-2.23-1.43.11-1.76,1.31-1.78,2.57ZM228.03,388.39c1.43-.42,3.43-.63,3.88-2.77.21-.99-.69-1.59-1.77-1.56-1.81.04-4.56,1.87-4.41,2.98.15,1.13.99,1.4,2.29,1.36ZM240.71,404.28c.06-1.19-2.47-3.87-3.67-3.96-.96-.07-1.54.34-1.64,1.33-.13,1.3,2.42,4.1,3.75,4.09.99-.01,1.4-.64,1.56-1.46ZM137.28,449.64c.06-1.21.56-2.77-1.32-2.93-1.83-.15-2.12,1.44-2.22,2.77-.11,1.42.34,2.91,2.03,2.94,1.86.04,1.61-1.51,1.51-2.78ZM236.27,393.26c-1.27.13-2.58.39-2.4,1.76.34,2.62,2.8,1.56,4.33,2.06.96.31,1.85-.28,1.7-1.47-.29-2.24-2.31-1.84-3.62-2.34ZM179.37,456.52c-.71-1.21-.58-3.33-2.59-3.78-1.16-.26-1.85.71-1.73,1.85.19,1.77.83,3.4,2.86,3.7.87.13,1.49-.53,1.46-1.77ZM173.17,429.12c-.22-.79-.85-1.58-1.85-1.3-1.6.45-3.04,1.34-3.09,3.27-.03.95.49,1.76,1.62,1.79.92.02,3.4-2.68,3.32-3.76ZM180.18,412.6c-.44.1-.92.12-1.32.3-1.5.68-2.9,1.72-2.03,3.5.89,1.83,2.08.4,3.11-.2.31-.18.66-.29,1.01-.4.96-.31,1.7-.83,1.41-1.94-.28-1.06-1.22-1.22-2.16-1.25ZM212.34,410.82c-.46-1.78-2.09-2.26-3.63-2.68-1.12-.3-2.16.35-2.01,1.55.25,2.03,2.22,2.15,3.69,2.64,1.02.34,1.71-.31,1.96-1.51ZM123.16,445.38c-.07-1.34.47-3.11-1.64-3.08-2.01.03-1.62,1.78-1.68,3.08-.06,1.44.13,2.97,1.98,2.89,1.98-.09,1.24-1.79,1.33-2.88ZM239.53,449.34c-1.25-.05-2.1.31-1.96,1.46.26,2.11,2.15,2.44,3.72,2.9.96.28,1.89-.41,1.76-1.47-.26-2.09-2.26-2.22-3.52-2.9ZM178.88,420.47c-.15-1.34-.92-1.87-1.89-1.56-1.47.48-3.36.72-3.59,2.71-.14,1.25.93,1.77,2.01,1.51,1.56-.37,3.12-.93,3.47-2.67ZM250.3,450.32c1.12-.17,1.85-.85,1.49-1.84-.49-1.34-.66-3.19-2.54-3.41-1.19-.14-1.82.83-1.6,1.96.3,1.52.87,2.95,2.64,3.29ZM153.22,428.04c-.1,1.24.25,2.25,1.46,2.24,2.18-.03,1.93-2.03,2.28-3.38.28-1.09-.28-2.07-1.54-1.97-1.94.15-1.75,1.96-2.2,3.12ZM227.34,427.24c-.53-1.63-1.99-2.13-3.53-2.37-1.03-.16-1.92.45-1.75,1.54.29,1.86,1.95,2.25,3.46,2.49.97.16,1.75-.38,1.82-1.66ZM213.58,457.07c1.22-.06,1.97-.64,1.7-1.69-.36-1.41-.63-3.12-2.55-3.32-1.09-.11-1.76.64-1.6,1.67.23,1.53.81,2.94,2.46,3.35ZM208.31,428.15c-1.23-.07-1.83.45-1.78,1.4.11,2.17,1.82,2.68,3.5,3.04.92.2,1.64-.33,1.6-1.33-.1-2.21-2.2-2.26-3.32-3.11ZM205.91,454.31c-.72-1.11-.75-2.95-2.59-3.3-1.11-.21-1.67.56-1.67,1.63,0,1.75.8,2.98,2.58,3.28.95.16,1.48-.49,1.67-1.61ZM196.87,433.27c.16,1.33.51,2.59,2.08,2.7,1.05.08,1.85-.74,1.55-1.71-.38-1.21.31-3.23-1.78-3.41-1.59-.14-1.72,1.23-1.84,2.42ZM193.61,414.54c-.04-1.17.12-2.63-1.48-2.68-1.66-.04-1.84,1.38-1.84,2.71,0,1.19,0,2.54,1.59,2.62,1.89.1,1.68-1.43,1.74-2.65ZM165.16,453.22c-.58-1.03-.96-2.52-2.57-2.61-1.06-.06-1.65.86-1.55,1.84.16,1.53,1.13,2.45,2.71,2.48.96.02,1.5-.52,1.41-1.71ZM247.38,403.32c1.13-.31,2.53-.52,2.59-2.14.04-1.13-.85-1.47-1.85-1.47-1.3,0-2.38.45-2.5,1.87-.09,1.02.64,1.62,1.77,1.74ZM224.41,418.35c1.02-.35,2.35-.55,2.34-2.07,0-1.27-1.03-1.65-2.1-1.53-1.16.12-2.1.72-2.11,2.04,0,1.11.7,1.58,1.87,1.56ZM258.45,446.89c-.21-1.19-.81-2.27-2.29-2.37-1.08-.07-1.71.68-1.55,1.73.21,1.34,1.05,2.34,2.46,2.43.94.06,1.39-.68,1.38-1.79ZM196.05,400.92c-.47-1.18-1.23-2.15-2.65-2.21-1.1-.05-1.66.71-1.5,1.75.19,1.31,1.1,2.03,2.4,2.11,1.03.06,1.69-.47,1.75-1.66ZM216.9,431.42c.86-.12,1.56-.54,1.52-1.5-.06-1.38-.99-2.11-2.29-2.13-.93-.02-1.44.66-1.4,1.61.05,1.34,1.02,1.76,2.17,2.03Z"/><path class="cls-5" d="M203.02,149.55c-.09,7.67-3.63,13.85-10.08,16.52-6.07,2.51-9.4,8.05-11.47,14.17-1.29,3.82-1.62,7.76-1.4,11.82.29,5.47,3.05,9.83,5.61,14.39,2.02,3.59,4.82,5.64,8.81,6.36,1.43.26,3.08.63,3.29,2.58.12,1.09.59,2.24-.9,2.95-1.43.68-2.66.92-3.86-.37-.84-.9-1.74-1.73-2.6-2.61-1.01-1.03-2.2-1.42-3.36-.49-1.26,1.02.02,2.48.41,2.96.88,1.07,1.36,1.91,1.12,3.32-.26,1.56,1.48,1.86,2.23,2.78.84,1.04,2.18,1.88,1.86,3.27-.42,1.8-2.19,2.49-3.8,2.88-4.27,1.03-7.16-.66-9.17-4.64-1.18-2.34-2.79-4.47-4.35-6.6-3.89-5.33-5.17-11.66-6.83-17.81-1.08-4.02-1.49-8.21-2.26-12.31-.89-4.71-.04-9.32.76-13.91,1.02-5.85,2.72-11.56,5.07-16.98,2.48-5.72,6.92-10.13,11.51-14.29,2.61-2.37,5.12-4.8,8.68-5.87,2.21-.66,3.98-.53,5.53,1.2,3.14,3.54,5.51,7.4,5.19,10.67Z"/><path class="cls-8" d="M23.54,179.71c-.79,8.29-1.16,16.33-1.31,24.4-.29,16.07,3.54,31.43,7.48,46.8,1.6,6.22-.17,11.78-3.81,16.84-.84,1.16-2.16,1.15-3.47,1.04-4.06-.36-7.18-2.37-9.66-5.48-5.6-7.04-8.26-15.14-8.88-24.08-.86-12.33,2.34-23.89,6.16-35.36,1.29-3.86,2.46-7.76,4.02-11.55,1.65-4.01,4.37-7.29,6.76-10.8.53-.78,1.24-1.55,2.72-1.81Z"/><path class="cls-5" d="M235.03,331.97c1.01-5.13,2.57-10.16,4.39-15.12,1.07-2.9,2.19-5.78,3.36-8.64.25-.61.34-1.41,1.61-1.05,4.34,1.23,8.72,2.32,13.12,3.29,2.21.49,2.72,1.36,1.67,3.41-1.61,3.14-2.49,6.52-2.98,10.03-.74,5.31,1.85,9.28,4.91,13.12,2.64,3.31,3.03,6.75,1.25,9.24-.96,1.34-2.05,1.7-3.63,1.49-7.48-1-14.41-3.57-20.75-7.56-2.87-1.81-2.8-5.06-2.95-8.2Z"/><path class="cls-3" d="M296.29,433.82c-.62-3.53-.17-6.3,2.15-9.33,7.8-10.2,11.49-22.18,12.89-34.78.93-8.28,1.29-16.65,1.48-24.98.18-8.07-.16-16.15-.35-24.23-.04-1.6-.09-3.2-2.69-3.11-2.3.08-5.89-6.34-4.96-8.47.65-1.46,1.77-1.53,2.74-.32.55.69.78,1.63,1.19,2.43.37.73.74,1.6,1.74,1.45,1.08-.16,1.43-1.03,1.43-2.02,0-2.09-.05-4.18-.07-6.27,0-.91-.04-1.82.04-2.72.12-1.4.46-3.02,1.95-3.25,1.62-.25,1.76,1.52,2.19,2.65.93,2.47,1.67,5.02,1.76,7.67.07,2.15.17,4.36-2.1,5.78-.97.61-1.03,1.83-1.12,2.95-1.04,12.69-.76,25.4-.49,38.11.27,12.37-.4,24.71-4.23,36.61-2.42,7.51-6.7,14.06-11.36,20.36-.48.64-1.08,1.24-2.19,1.48Z"/><path class="cls-1" d="M86.67,432.53c-3.02-.94-5.37-2.69-7.32-5.24-8.87-11.62-13.15-24.81-13.84-39.3-.26-5.51-1.04-11-.4-16.53.45,0,.89-.01,1.34-.02.94,6.74.15,13.65,1.78,20.31,2.45,9.98,5.2,19.85,11.34,28.37,2.16,3,4.59,5.6,8.05,7.1,1.19.51,2.19,4.62,1.41,5.67-.29.38-.83.21-1.26.03-.15-.75-.39-1.23-1.1-.39Z"/><path class="cls-9" d="M167.76,467.86c.22,2.89.4,5.78.69,8.66.15,1.47-.39,2.11-1.84,2.39-3.75.71-7.39.91-10.65-1.55-1.36-1.03-2.48-2.25-2.02-4.12.44-1.8,1.94-2.52,3.55-3.02.26-.08.55-.05.8-.13,1.51-.45,3.62,1.09,4.52-.64.67-1.3.26-3.17.27-4.79,0-1.36-.05-2.63,1.95-2.36,1.57.22,3.19.22,2.92,2.56-.11.98-.02,1.99-.02,2.99-.05,0-.1,0-.15,0Z"/><path class="cls-9" d="M206.18,473.2c-.07-2.95.05-5.23-.51-7.46-.39-1.55.09-2.09,1.86-2.3,2.53-.29,4-.05,3.5,2.96-.06.34.09.72.15,1.07.81,4.44.81,4.42,5.39,4.26,2.36-.08,4.7.24,5.75,2.67.63,1.44-2.37,3.99-4.95,4.55-2.61.57-5.23.44-7.86.4-2.34-.03-3.85-.81-3.35-3.59.19-1.06.03-2.17.03-2.57Z"/><path class="cls-3" d="M66.46,371.44c-.45,0-.89.01-1.34.02.11-4.71.24-9.42.31-14.13.12-7.63-.3-15.23-.98-22.83-.09-1.03-.18-2.08-1.04-2.7-2.94-2.14-2.4-5.18-1.67-7.89.52-1.94,3-1.96,4.63-1.98,1.41-.02.6,1.74.7,2.7.12,1.08-.03,2.18.03,3.26.05.93.32,1.86,1.43,2.04,1.01.16,1.4-.65,1.78-1.39.12-.24.25-.49.33-.75.44-1.36,1-2.86,2.76-2.15,1.55.62,1.13,2.4.63,3.34-1.33,2.49-1.92,5.78-5.83,5.99-1.53.08-1.74,1.71-1.67,3.01.45,8.98-1.14,17.94-.14,26.93.24,2.15.06,4.35.07,6.53Z"/><path class="cls-3" d="M290.62,437.9c-1.25-.29-3.09.1-3.3-1.87-.13-1.28,1.07-2.07,2.18-1.68,1.34.47,3.71-.59,3.83,1.9.07,1.56-1.47,1.51-2.71,1.65Z"/><path class="cls-14" d="M146.64,455.92c-1.12-1.12-1.46-2.46-.99-3.95.33-1.05,1.01-1.75,2.21-1.5,1.13.24,1.28,1.12,1.13,2.1-.19,1.28-.37,2.57-.55,3.85-.66.04-1.34.19-1.8-.5Z"/><path class="cls-5" d="M315.63,247.14c-.18,0-.36,0-.53,0,.57-2.54,1.14-5.08,1.71-7.62.44,0,.88-.02,1.32-.03-.83,2.55-1.66,5.09-2.5,7.64Z"/><path class="cls-9" d="M86.67,432.53c.71-.83.95-.35,1.1.39-.47.16-.82-.02-1.1-.39Z"/><path class="cls-9" d="M164.85,366.1l.17.19c-.07.05-.14.15-.2.15-.06,0-.11-.11-.17-.18.07-.05.13-.11.2-.16Z"/><path class="cls-17" d="M441.51,329.91c2.14-9.66-.36-18.15-6.88-25.43-4.47-4.98-9.99-8.03-16.83-8.42-9.2-.52-16.77,2.69-23.09,9.4-6.45,6.85-7.75,14.86-5.85,24.09-6.14-3.33-10.9-7.64-14.98-12.63-8.84-10.82-13.12-23.34-12.89-37.27.2-11.97,3.18-23.2,9.2-33.73,4.42-7.74,8.87-15.3,14.92-21.96,4.77-5.25,5.84-11.92,4.73-18.88-.22-1.34-.16-2.43.93-3.44,1.53-1.41,2.81-3.12,4.4-4.45,13.59-11.4,28.02-11.35,41.6.1.42.35.76.78,1.17,1.14,2.79,2.46,4.35,4.92,3.82,9.25-.85,6.99,1.62,13.31,6.79,18.49,6.05,6.05,9.53,13.81,13.75,21.11,6.35,10.97,8.94,22.86,8.43,35.25-.82,20.03-9.83,35.71-26.86,46.57-.53.34-1.11.61-1.68.88-.13.06-.34-.03-.69-.07ZM395.11,223.54c0,11.95,9.53,21.55,21.36,21.5,11.51-.05,20.78-9.34,20.76-20.8-.02-11.53-9.71-21.34-21.06-21.34-11.92,0-21.05,8.96-21.06,20.65ZM413.94,270.12c1.16,0,1.79,0,2.43,0,5.33,0,10.47-1.14,15.28-3.29,4.66-2.09,5.06-6.51,1.24-9.65-1.86-1.53-3.92-2.62-6.19-3.29-5.79-1.69-11.72-2.33-17.72-1.72-3.86.4-7.78.91-10.96,3.51-2.37,1.95-3.89,4.38-3.24,7.59.64,3.19,3.06,4.59,5.99,5.16,4.52.88,9.02,2.06,13.18,1.69Z"/><path class="cls-16" d="M415.96,337.51c-7.07-.42-13.72-1.67-20.08-4.28-1.09-.45-1.7-1.14-2.17-2.22-4.13-9.38-1.72-19.2,6.34-25.66,2.92-2.34,5.92-4.5,9.72-5.2,13.24-2.44,24.89,4.39,28.41,19.25.44,1.85.72,3.74.47,5.67-.7,5.44-3.01,9.25-8.96,10.38-4.64.88-9.25,1.75-13.73,2.06Z"/><path class="cls-7" d="M446.16,179.17c8.7,6.84,13.07,16.08,14.28,26.83.74,6.56.12,13.07-3.28,18.99-1.73,3.01-1.94,2.97-4.3.57-2.37-2.4-4.7-4.83-6-8-1.94-4.72-2.78-9.54-.66-14.47.18-.42.25-.96.56-1.22,4.74-3.9,3.14-8.86,2.09-13.56-.66-2.98-2.02-5.8-3.07-8.69.13-.15.25-.31.38-.46Z"/><path class="cls-7" d="M386.04,179.63c-1.16,3.61-3.08,6.98-3.57,10.81-.52,4.03-.83,7.57,2.26,11.37,3.78,4.65,2.34,10.46.26,15.78-1.5,3.83-4.78,6.33-7.17,9.49-.69.92-1.29.53-1.72-.1-.88-1.26-1.78-2.53-2.43-3.91-6.3-13.51-.29-35.37,12.01-43.89.13.15.25.31.38.46Z"/><path class="cls-17" d="M361.41,255.86c-.28,4.46-1.99,8.61-2.8,12.95-1.68,9.03-1.66,18,.5,26.95.08.34.07.7.1,1.07-4.1-.38-6.47-2.54-7.65-6.72-2.24-7.92-.83-15.44,2.45-22.73,1.89-4.19,3.78-8.42,7.39-11.52h.01Z"/><path class="cls-17" d="M470.42,255.85c3.61,3.1,5.51,7.32,7.38,11.53,3.01,6.75,4.51,13.71,2.87,21.15-1.12,5.06-3.11,7.41-8.11,8.58.41-2.29.87-4.48,1.19-6.67,1.5-10.12.31-20.02-2.5-29.8-.45-1.55-1.04-3.1-.85-4.78h.01Z"/><path class="cls-17" d="M437.57,336.66c3.74-1.77,7.05-3.84,10.52-5.51,3.61-1.74,7.54-1.72,11.31-.05,1.7.76,2.71,2.1,2.81,3.99.09,1.78-1.46,2.12-2.6,2.75-5.7,3.18-17.59,2.69-22.03-1.18Z"/><path class="cls-17" d="M394.26,336.6c-1.95,2.26-4.31,2.71-6.62,2.85-5.26.31-10.66,1.59-15.56-1.65-1.1-.73-2.63-1.04-2.47-2.84.15-1.66.98-2.93,2.44-3.67,3.61-1.85,7.48-1.88,11.05-.4,3.79,1.57,7.16,4.08,11.15,5.71Z"/><path class="cls-17" d="M361.39,255.85c.09-.23.17-.45.26-.68.05.07.15.13.16.2.03.28-.03.52-.4.49,0,0-.01-.01-.01-.01Z"/><path class="cls-7" d="M385.66,179.17c.2-.04.41-.09.61-.13-.08.2-.15.39-.23.59-.13-.15-.25-.31-.38-.46Z"/><path class="cls-4" d="M316.8,239.52c-.57,2.54-1.14,5.08-1.71,7.62-2.46,5.14-4.76,10.35-8.77,14.6-11.22,11.92-24.54,16.53-40.49,11.66-12.15-3.71-20.43-11.76-25.54-23.34-3.55-8.05-4.81-16.43-3.44-24.99,1.76-10.96,6.33-20.51,15.29-27.72,7.91-6.37,16.77-9.42,26.81-8.79,10.47.66,19.22,5.09,26.41,12.77,4.88,5.21,8.26,11.25,10.22,18.03,1.91,6.59,2.16,13.35,1.22,20.15ZM313.57,234.27c-.12-8.19-1.44-14.51-4.37-20.63-4.59-9.56-11.71-16.04-21.64-19.5-9.58-3.33-18.69-2.37-27.67,2.54-8.85,4.83-14.6,12.18-17.62,21.36-3.91,11.88-2.92,23.68,3.57,34.66,4.37,7.39,10.25,13.24,18.4,16.3,11.99,4.52,23.18,3.06,33.62-4.66,10.69-7.91,14.9-18.86,15.71-30.08Z"/><path class="cls-2" d="M288.74,85.32c.52,4.73-1.06,8.9-3.66,12.6-4.07,5.81-10.83,5.89-15.32.83-5.27-5.94-6.25-13.11-5.03-20.64.73-4.5,2.34-8.56,6.54-11.29,3.85-2.5,8.94-1.25,11.94,2.17,4.07,4.63,5.38,10.33,5.53,16.33ZM284.97,86.41c.14-5.45-.7-10.44-4.27-14.52-3.65-4.17-8.02-3.23-10.31,1.2-3.78,7.32-3.06,14.55.77,21.52,1.7,3.11,4.02,4.13,6.75,3.87-3.92-2.22-4.48-6.33-1.5-11.22,2.04-3.36,4.22-3.63,8.56-.86Z"/><path class="cls-2" d="M350.95,111.14c-.47,5.19-1.02,9.81-4.39,13.75-5.78,6.76-13.34,3.45-16.62-2.29-3.8-6.65-4.74-13.83-2.37-21.18,1.41-4.37,3.5-8.26,8.66-9.46,3.54-.82,8.35,1.3,10.87,5.39,2.66,4.3,3.76,9.12,3.85,13.79ZM347.18,110.57c-.29-4.41-1.28-8.59-4.21-12.13-3.39-4.1-7.45-3.8-10.37.72-2.09,3.22-2.64,6.89-2.53,10.5.17,5.54,1.57,10.8,6.4,14.35.65.48,1.4,1.32,2.43.75.95-.53.47-1.47.49-2.22.14-4.49,2.06-7.81,5.8-8.87,1.92-.55,2.19-1.49,2-3.1Z"/><path class="cls-2" d="M318.49,179.19c.21.78-.82,1.55-1.76,2.16-1.05.68-2.01-.03-2.86-.7-1.45-1.14-1.97-2.78-2.04-4.49-.05-1.34.35-2.71,1.92-3.12,1.41-.36,2.27.43,2.99,1.6.75,1.22,1.58,2.37,1.76,4.55Z"/><path class="cls-10" d="M245.98,166.69c1.99-.02,4.94,3.43,4.78,5.46-.12,1.53-.94,2.74-2.65,2.8-1.7.06-3.93-3.39-4.02-5.75-.06-1.65,1.11-1.97,1.89-2.51Z"/><path class="cls-10" d="M193.21,259.15c.34,2.02-.68,3.43-2.35,3.42-1.9-.01-2.91-1.73-2.75-3.58.13-1.55-.85-3.93,1.87-4.25,2.1-.24,3.13,1.36,3.23,4.41Z"/><path class="cls-2" d="M305.32,64.53c.12,1.7-.4,3.11-2.17,3.45-1.59.3-3.53-1.96-3.66-3.89-.13-1.99,1.06-2.96,2.74-3.25,1.32-.22,3.08,2.05,3.09,3.69Z"/><path class="cls-2" d="M352.63,134.16c.34-.86-.16-2.53,1.84-2.61,2.18-.09,3.53,1.22,3.47,3.39-.04,1.48-1.03,2.28-2.31,2.53-1.47.28-2.95-1.33-3-3.31Z"/><path class="cls-10" d="M275.63,286.15c.08-1.66.57-3,2.52-3.03,1.87-.04,2.51,1.3,2.53,2.78.02,1.84-1.17,3.15-2.97,3.09-1.45-.05-2.12-1.38-2.08-2.84Z"/><path class="cls-4" d="M101.55,278.19c-15.1.75-24.86-5.57-29.22-19.51-5.37-17.19-2.39-32.87,10.44-46.01,4.16-4.26,9.38-6.61,15.49-7.1,13.37-1.08,22.14,5.69,28.01,16.69,7.13,13.36,7.88,27.34,1.17,41.07-4.93,10.1-13.01,15.93-24.91,14.87-.54-.05-1.09,0-.99,0ZM73.61,242.96c.04,8.88,1.72,15.95,6.06,22.17,4.38,6.27,10.2,9.92,18.18,9.35,2.59-.19,5.21-.3,7.79-.1,3.74.28,6.96-.92,9.99-2.88,4.25-2.75,7.3-6.59,9.15-11.22,5.89-14.71,4.15-28.61-5.14-41.42-9.13-12.59-26.8-12.59-36.43-1.35-6.64,7.74-9.32,16.83-9.6,25.46Z"/><path class="cls-4" d="M144.32,161.17c-.22.46-.45,1.05-.77,1.59-1.7,2.89-3.32,5.84-5.17,8.63-.79,1.2-.64,1.84.36,2.68.83.69,1.64,1.47,2.23,2.37.57.88.57,1.96-.38,2.69-.87.67-1.73.36-2.46-.32-17.65-16.4-47.6-17.51-68.05-5.2-2.27,1.36-4.43,2.83-6.16,4.87-.77.9-1.76,1.51-2.82.59-1.09-.95-1.01-2.39.05-3.08,3.62-2.38,2.41-4.75.45-7.45-1.38-1.9-2.43-4.03-3.62-6.07-.8-1.39-.9-2.62.93-3.23,2.94-.99,5.11-3,7.21-5.18,2.2-2.29,3.89-1.99,5.15.93,1.36,3.16,2.58,6.38,3.79,9.6.53,1.41,1.12,1.92,2.76,1.28,15.38-5.92,30.8-5.95,46.17.02,1.45.56,2.09.28,2.61-1.13,1.2-3.23,2.45-6.44,3.8-9.6,1.34-3.14,2.96-3.47,5.28-1.05,2.09,2.19,4.28,4.19,7.23,5.15.87.28,1.37.85,1.42,1.92ZM133.48,156.94c-1.25,3.25-2.19,6.18-3.5,8.93-.81,1.71-.55,2.43,1.1,3.26,3.63,1.82,3.6,1.92,5.69-1.53.93-1.54,1.79-3.14,2.72-4.69.44-.74.52-1.23-.41-1.66-2.07-.94-3.67-2.56-5.59-4.32ZM68.19,156.96c-.92.85-1.66,1.4-2.23,2.09-1.12,1.38-3.91,1.49-3.86,3.19.05,1.68,1.61,3.35,2.63,4.95,3.07,4.81,1.77,3.89,6.9,1.37.64-.31.93-.68.6-1.49-1.35-3.23-2.61-6.5-4.04-10.1Z"/><path class="cls-10" d="M119.37,109.26c-.15,6.62-2.24,12.57-6.5,17.75-6.95,8.44-18.08,8.61-25.23.37-8.56-9.86-6.98-28.78,3.09-37.11,9.33-7.72,21.39-4.42,26.47,7.24,1.62,3.72,2.14,7.66,2.17,11.75ZM115.66,108.6c.21-4.83-1.13-9.19-3.87-13.11-4.31-6.15-11.61-7.55-17.4-3.38-9.7,6.99-11.66,24.31-3.77,33.24,4.51,5.1,10.86,5.96,16.36,1.97,6.34-4.6,8.53-11.23,8.68-18.73Z"/><path class="cls-11" d="M162.43,116.61c-.14,3.45-.95,7.79-4.16,11.26-3.38,3.65-8.24,3.78-11.86.42-6.35-5.9-7.28-20.05-1.76-26.7,3.77-4.54,9.17-4.63,13.15-.23,3.02,3.34,4.66,8.35,4.63,15.25ZM158.68,115.31c.1-4.21-.91-8.1-3.64-11.38-2.3-2.76-5.16-2.76-7.38-.18-4.4,5.12-3.75,17.04,1.19,21.66,2.57,2.41,5.03,2.24,7.14-.61,2.08-2.8,2.75-6.05,2.69-9.49Z"/><path class="cls-11" d="M60.63,113.28c.07,5.66-1.17,10.33-4.57,14.2-4.01,4.57-9.55,4.35-13.32-.41-5.29-6.67-4.4-20.34,1.73-26.3,4.17-4.06,9.93-3.35,13.24,1.69,2.28,3.46,3.1,7.31,2.92,10.83ZM57.17,114.06c0-3.48-1.18-7.61-2.66-9.72-2.17-3.09-5.15-3.31-7.71-.57-4.48,4.8-5.1,15.58-1.2,20.88,2.24,3.05,4.85,3.26,7.51.51,3.11-3.21,3.57-7.38,4.06-11.1Z"/><path class="cls-11" d="M254.45,429.71c-6.14,4.1-12.5,7.11-19.23,9.33-13.35,4.4-27.06,6.55-41.1,7.26-15.7.8-31.15-.32-46.35-4.44-4.04-1.1-7.92-2.61-11.71-4.38-3.81-1.78-7.19-4.17-10.36-7.02-.24,2.07.04,3.36,1.17,5.61.41.81.89,1.6,1.16,2.45.33,1.04.11,2.05-.97,2.54-1.04.47-2.17.22-2.6-.79-2.38-5.58-5.17-11.15-2.16-17.41.9-1.87,2.25-3.31,4.26-3.95.88-.28,1.88-.32,2.42.66.57,1.04.2,1.92-.77,2.56-.38.25-.76.49-1.1.78-1.59,1.36-1.85,2.41.36,3.59,7.2,3.87,14.97,5.95,22.89,7.56,16.28,3.32,32.78,3.96,49.28,3.16,15.68-.77,31.24-2.82,46.03-8.61,2.1-.82,4.1-1.93,6.13-2.94,1.12-.56,1.77-1.22.06-1.91-1.31-.53-1.54-1.61-.96-2.66.67-1.19,1.9-.84,2.92-.44.48.19.87.64,1.26,1.02,4.05,3.96,3.98,13.79-.1,17.75-.87.84-1.77,1.81-3,.65-1.2-1.13-.44-2.16.43-3.04,1.96-1.98,2.15-4.41,2.04-7.35ZM144.13,436.77c25.83,8.1,51.88,7.59,78.07,2.01-26.14,3.59-52.17,3.44-78.07-2.01Z"/><path class="cls-11" d="M162.35,402.63c-1.63.07-4.35-.14-6.82-1.45-3.86-2.04-4.05-5.67-.48-8.18,2.27-1.6,4.88-2.37,7.58-2.82,4.05-.68,8.11-.85,12.08.4,2.14.67,4.18,1.74,4.5,4.22.32,2.52-1.44,3.97-3.4,5.1-3.82,2.19-8.02,2.7-13.45,2.74ZM163.2,393.89c-2.24.34-4.13.93-5.81,2.03-.67.44-1.52,1.08-.27,1.81,1.6.94,3.54,1.45,5.2,1.1,1.42-.29.27-2.2.64-3.33.14-.41.13-.87.24-1.6ZM170.9,393.39c-.42.21-1.59-.25-1.24.72.44,1.22.29,3.25,1.97,3.39,1.33.11,3.57-.78,3.49-1.95-.15-2.09-2.67-1.44-4.22-2.17Z"/><path class="cls-11" d="M215.2,402.1c-5.54-.09-9.75-.65-13.52-2.92-1.85-1.11-3.45-2.59-3.11-5,.32-2.24,2.09-3.43,4.05-3.99,6.71-1.91,13.25-1.39,19.47,1.89,1.94,1.02,3.41,2.52,3.09,4.97-.3,2.3-2.08,3.33-3.97,4.06-2.31.89-4.76,1.11-6,1ZM214.85,393.37c0,1.43-.15,2.69.03,3.91.39,2.57,2.16.7,3.13.67,1.13-.03,2.87,0,3.12-1.75.05-.34-.8-.93-1.33-1.21-1.52-.8-3.14-1.35-4.95-1.62ZM208.2,393.9c.03-.78-.3-1.19-.94-1.02-1.67.45-4.18.06-4.62,1.95-.3,1.28,2.01,2,3.32,2.12,2.07.18,1.13-2.29,2.25-3.05Z"/><path class="cls-10" d="M273.63,419.94c.3,1.76,1.99,2.39,2.96,3.61,1.06,1.34,2.3,2.54,3.08,4.1.55,1.11,1.58,2.36.02,3.3-1.68,1.01-2.46-.5-3.1-1.65-.98-1.77-2.36-3.19-3.73-4.62-.81-.84-1.71-1.61-2.64-2.31-.83-.62-1.74-1.19-1.13-2.38.63-1.22,1.67-1.18,2.79-.65.39.18.82.41,1.26.09l-.04-.04c-.16.54.04.73.57.58l-.03-.03Z"/><path class="cls-10" d="M163.1,379.57c.66.1,1.4.11,2.07.33.74.24,1.18.84,1.06,1.68-.1.69-.53,1.2-1.22,1.28-3.49.43-6.98.84-10.48,1.2-.9.09-1.66-.32-1.72-1.32-.07-1.11.8-1.6,1.67-1.87,2.78-.87,5.7-.84,8.62-1.3Z"/><path class="cls-10" d="M197.67,369.27c.82-.05,1.34.1,1.63.62.39.7.31,1.41-.16,2.03-1.49,1.97-2.82,3.95-2.43,6.64.11.77-.54,1.33-1.35,1.44-.77.11-1.49-.18-1.87-.84-1.24-2.13-.02-4.03.77-5.89.73-1.72,1.54-3.5,3.42-4Z"/><path class="cls-10" d="M238.56,412.8c1.26-.03,1.98.37,2.43,1.1,1.04,1.7,2.08,3.4,2.99,5.17.42.8.61,1.84-.44,2.39-.92.49-1.78.13-2.39-.69-1.41-1.88-2.28-4.08-3.77-5.95-.89-1.12.23-1.93,1.18-2.02Z"/><path class="cls-10" d="M183.92,427.12c-1.34-.1-2.14-.76-1.66-1.94,1-2.43,2.37-4.66,4.47-6.34.61-.48,1.33-.53,1.98.03.55.48.72,1.23.41,1.72-1.37,2.1-2.85,4.12-4.33,6.14-.18.24-.63.28-.87.38Z"/><path class="cls-11" d="M139.53,413.47c-1.78-.27-2.19-1.36-1.36-2.52,1.48-2.07,3.4-3.75,5.85-4.64.86-.31,1.86-.33,2.4.64.58,1.02-.03,1.77-.88,2.22-1.69.91-3.12,2.13-4.48,3.46-.42.42-1.08.59-1.54.84Z"/><path class="cls-11" d="M145.31,388.74c.87.09,1.6.1,2.3.26.9.21,1.37.86,1.27,1.81-.09.83-.6,1.29-1.43,1.37-1.88.19-3.76.42-5.65.53-1.25.08-2.53-.27-2.65-1.72-.12-1.48,1.15-1.54,2.28-1.66,1.34-.14,2.67-.4,3.88-.59Z"/><path class="cls-14" d="M279.53,438.25c-.03,1.12-.38,1.98-1.38,2.23-1.1.28-1.67-.44-1.92-1.43-.37-1.49-.71-2.93-2.13-3.93-.75-.53-.63-1.47.06-2.14.76-.74,1.68-.7,2.5-.19,2.05,1.28,2.51,3.42,2.86,5.47Z"/><path class="cls-14" d="M132.92,398.2c-1.48-.18-2.64-.29-3.79-.47-.88-.14-1.53-.62-1.5-1.6.03-.83.63-1.3,1.37-1.46,2.25-.5,4.45-.01,6.61.57.71.19,1.09.94.96,1.74-.14.84-.74,1.2-1.54,1.22-.81.02-1.62,0-2.11,0Z"/><path class="cls-10" d="M208.21,370.92c.59-.06,1.07.18,1.4.65.46.68.37,1.42-.13,2.01-1.29,1.51-2.62,2.98-3.97,4.43-.48.51-1.13.53-1.75.22-.63-.31-.88-.87-.88-1.56,0-1.36,4.01-5.68,5.34-5.75Z"/><path class="cls-10" d="M112.15,416.15c1.52-.12,2.32.07,2.63.97.37,1.05-.22,1.79-1.12,2.13-1.76.66-3.55,1.24-5.36,1.75-.83.23-1.64,0-1.93-.97-.26-.89.04-1.7.86-2.05,1.81-.76,3.67-1.38,4.93-1.84Z"/><path class="cls-10" d="M108.26,428.74c-.14.25-.26.77-.59.99-1.73,1.15-3.48,2.26-5.28,3.29-.55.31-1.28.22-1.75-.32-.55-.62-.55-1.44-.09-2.01,1.51-1.88,3.5-3.14,5.85-3.66,1.05-.23,1.69.44,1.86,1.71Z"/><path class="cls-10" d="M168.99,419.07c-.12.27-.18.68-.41.9-1.48,1.45-3,2.89-4.92,3.74-.83.37-1.83.43-2.38-.59-.47-.88,0-1.59.67-2.12,1.42-1.11,2.82-2.27,4.35-3.21,1.27-.78,2.23-.25,2.69,1.28Z"/><path class="cls-10" d="M142.93,427.67c.33-2.04,1.03-3.96,2.41-5.57.59-.69,1.43-.79,2.21-.32.83.5.96,1.35.5,2.11-.84,1.4-1.48,2.87-1.83,4.46-.23,1.04-.86,1.61-1.92,1.42-1.1-.2-1.25-1.14-1.37-2.1Z"/><path class="cls-10" d="M182.93,399.77c1.17-.07,1.86.08,2.24.83.32.64.19,1.27-.35,1.71-1.45,1.2-2.91,2.39-4.42,3.51-.78.58-1.76.75-2.42-.15-.61-.83-.42-1.76.39-2.41,1.58-1.28,2.7-3.22,4.56-3.5Z"/><path class="cls-10" d="M124.58,406.21c-.61-.02-1.58-.37-1.82-1.49-.29-1.35.78-1.59,1.8-1.84,1.66-.41,3.28-1.02,5.03-.95,1.01.04,1.77.46,1.84,1.57.07,1.1-.57,1.63-1.61,1.8-1.6.26-3.19.56-5.24.92Z"/><path class="cls-14" d="M183.65,432.55c.5-1.94,1.72-3.66,3.77-4.7.7-.36,1.47-.19,1.97.43.57.72.59,1.61-.12,2.2-1.14.95-1.95,2.09-2.55,3.43-.35.78-.97,1.37-1.93,1.11-1.1-.31-1.17-1.24-1.14-2.46Z"/><path class="cls-14" d="M156.81,405.4c.88.02,1.65.27,1.86,1.24.23,1.06-.22,1.74-1.27,2.05-1.39.41-2.76.87-4.15,1.28-.88.26-1.66.02-2.06-.85-.41-.9.02-1.63.75-2.11,1.47-.97,3.17-1.3,4.87-1.6Z"/><path class="cls-10" d="M189.17,399.22c1.07.11,1.82.81,1.36,1.96-.62,1.57-1.5,3.05-2.39,4.5-.54.87-1.51,1.01-2.39.54-1.01-.54-.91-1.46-.44-2.33.64-1.18,1.3-2.36,2-3.51.38-.62.91-1.12,1.85-1.16Z"/><path class="cls-14" d="M188.19,375.51c.15,1.68.37,3.19-1.39,3.36-1.56.15-1.7-1.34-1.94-2.47-.22-1.06-.38-2.13-.52-3.2-.13-.98.1-1.87,1.18-2.14.94-.24,1.52.4,1.91,1.16.59,1.15.77,2.4.76,3.28Z"/><path class="cls-11" d="M174.46,378.87c-.06,1.43-.8,2.13-1.93,1.77-1.7-.55-3.3-1.41-4.62-2.66-.65-.61-.82-1.46-.34-2.22.51-.81,1.45-.86,2.16-.41,1.68,1.07,3.87,1.54,4.74,3.52Z"/><path class="cls-11" d="M160.66,415.56c-.26-.02.29-.04.81.08.99.22,1.61.84,1.5,1.91-.1.99-.79,1.37-1.71,1.32-1.18-.06-2.31.03-3.45.43-.87.3-1.91.31-2.3-.76-.41-1.11.29-1.87,1.2-2.43.97-.59,2.05-.61,3.94-.55Z"/><path class="cls-14" d="M182.5,377.2c-.3,1.26-1.05,2.24-2.26,1.55-1.53-.87-2.95-2.06-3.71-3.78-.37-.84-.18-1.6.61-2.13.73-.5,1.42-.26,1.94.31,1.18,1.32,2.89,2.19,3.42,4.04Z"/><path class="cls-14" d="M231.7,453.13c-.04.87-.27,1.4-.83,1.58-1.87.59-2.89-.63-3.74-1.95-.81-1.26-1.39-2.63.05-3.9.52-.46,1.34-.71,1.72-.19,1.08,1.48,1.96,3.11,2.8,4.47Z"/><path class="cls-10" d="M143.41,418.91c-.32,1.91-2.54,1.85-3.68,3.02-.53.55-1.35.98-2.2.43-.85-.54-.96-1.38-.48-2.11,1.12-1.72,2.68-2.92,4.81-3.04.94-.05,1.47.54,1.56,1.7Z"/><path class="cls-14" d="M188.94,394.95c-1.19.02-1.62-.71-1.5-1.74.24-2.14,1.5-3.63,3.35-4.58.98-.5,1.77-.06,2.09,1,.32,1.09-2.81,5.28-3.93,5.33Z"/><path class="cls-14" d="M215.26,381.81c-1.22.08-2.26-.3-2.47-1.59-.21-1.28.74-1.64,1.85-1.83.88-.15,1.72-.55,2.58-.8.86-.26,1.65-.15,2.13.7.5.88.08,1.62-.6,2.14-1.02.78-2.16,1.34-3.49,1.37Z"/><path class="cls-10" d="M259.08,406.59c1.3-.04,4.37,3.18,4.22,4.43-.12,1-.76,1.37-1.69,1.34-1.22-.04-4.23-3.1-4.11-4.23.09-.92.65-1.44,1.58-1.55Z"/><path class="cls-11" d="M118.7,410.08c.97.04,2.11-.14,2.34,1.22.25,1.46-.83,1.8-1.95,2.05-.96.21-1.91.48-2.89.64-.92.15-1.9.13-2.19-1-.28-1.07.46-1.7,1.3-2.1,1.06-.5,2.18-.86,3.38-.8Z"/><path class="cls-10" d="M273.13,419.43c-.4-.9-.96-1.81.09-2.65,1.05-.84,2.01-.4,2.94.25.22.15.44.32.61.52.86,1.01,2.8,1.84,1.43,3.46-1.28,1.52-2.54.28-3.62-.75-.22-.21-.63-.21-.96-.31,0,0,.03.03.03.03.06-.44-.24-.53-.57-.58l.04.04Z"/><path class="cls-14" d="M168.79,407.55c1.25,0,2.35.46,2.19,1.6-.33,2.36-2.66,2.03-4.24,2.56-1.07.36-2.18-.24-2.02-1.46.31-2.37,2.65-2.01,4.07-2.71Z"/><path class="cls-10" d="M250.71,412.86c-.03.91-.35,1.46-1.04,1.59-1.87.37-2.64-1.25-3.74-2.21-.82-.72-.99-1.71-.57-2.71.27-.64.96-1.1,1.52-.77,1.72,1,3.08,2.39,3.83,4.1Z"/><path class="cls-10" d="M200.01,419c0-1.4.41-2.55,1.61-2.24,2.05.53,2.46,2.67,3.14,4.31.39.94-.6,1.8-1.61,1.56-1.97-.47-2.82-2.02-3.13-3.64Z"/><path class="cls-14" d="M115.06,438.73c-.11,1.77-2.17,1.63-3.22,2.61-.64.6-1.48.65-2.23.08-.46-.35-.63-.86-.56-1.44.17-1.49,3.51-3.48,4.93-2.93.63.25,1.03.7,1.07,1.67Z"/><path class="cls-10" d="M185.71,392.74c-.24,1.01-.86,1.9-1.75,1.89-1.81-.03-2.35-1.79-3.22-2.98-.57-.77-.59-1.76.33-2.4.97-.68,1.76-.07,2.37.62.81.92,2.09,1.51,2.28,2.88Z"/><path class="cls-10" d="M190.18,453.73c.01-1.26.35-2.46,1.78-2.57,1.45-.11,1.65,1.06,1.62,2.23,0,.18,0,.38.08.52.49.93,1.33,1.86.15,2.83-.6.5-1.37.49-2.03.15-1.28-.65-1.62-1.83-1.6-3.16Z"/><path class="cls-14" d="M228.03,388.39c-1.31.05-2.14-.23-2.29-1.36-.15-1.1,2.59-2.93,4.41-2.98,1.07-.02,1.98.57,1.77,1.56-.45,2.14-2.44,2.36-3.88,2.77Z"/><path class="cls-10" d="M240.71,404.28c-.15.82-.57,1.45-1.56,1.46-1.33.01-3.89-2.78-3.75-4.09.1-.99.67-1.4,1.64-1.33,1.21.09,3.73,2.76,3.67,3.96Z"/><path class="cls-14" d="M137.28,449.64c.1,1.27.35,2.82-1.51,2.78-1.69-.04-2.13-1.52-2.03-2.94.1-1.33.38-2.93,2.22-2.77,1.88.16,1.38,1.72,1.32,2.93Z"/><path class="cls-10" d="M236.27,393.26c1.31.5,3.33.11,3.62,2.34.15,1.19-.74,1.78-1.7,1.47-1.52-.49-3.98.57-4.33-2.06-.18-1.36,1.13-1.63,2.4-1.76Z"/><path class="cls-14" d="M179.37,456.52c.02,1.24-.6,1.9-1.46,1.77-2.03-.3-2.67-1.93-2.86-3.7-.12-1.14.57-2.12,1.73-1.85,2.02.46,1.88,2.57,2.59,3.78Z"/><path class="cls-14" d="M173.17,429.12c.08,1.08-2.4,3.78-3.32,3.76-1.13-.02-1.65-.84-1.62-1.79.05-1.92,1.5-2.82,3.09-3.27,1-.28,1.63.5,1.85,1.3Z"/><path class="cls-11" d="M180.19,412.6c.94.04,1.88.19,2.16,1.25.29,1.12-.45,1.64-1.41,1.94-.34.11-.7.22-1.01.4-1.03.6-2.22,2.03-3.11.2-.86-1.77.53-2.82,2.03-3.5.4-.18.88-.2,1.32-.3Z"/><path class="cls-14" d="M212.34,410.82c-.25,1.2-.94,1.85-1.96,1.51-1.47-.49-3.44-.61-3.69-2.64-.15-1.2.89-1.85,2.01-1.55,1.54.41,3.17.9,3.63,2.68Z"/><path class="cls-4" d="M123.16,445.38c-.09,1.09.65,2.79-1.33,2.88-1.85.08-2.04-1.44-1.98-2.89.05-1.3-.34-3.05,1.68-3.08,2.11-.03,1.57,1.74,1.64,3.08Z"/><path class="cls-10" d="M239.53,449.34c1.26.67,3.26.81,3.52,2.9.13,1.06-.8,1.75-1.76,1.47-1.56-.46-3.46-.79-3.72-2.9-.14-1.16.71-1.52,1.96-1.46Z"/><path class="cls-10" d="M178.88,420.47c-.36,1.74-1.91,2.3-3.47,2.67-1.08.26-2.16-.26-2.01-1.51.23-1.99,2.13-2.23,3.59-2.71.97-.32,1.75.22,1.89,1.56Z"/><path class="cls-14" d="M250.3,450.32c-1.77-.34-2.35-1.77-2.64-3.29-.22-1.13.4-2.09,1.6-1.96,1.88.22,2.05,2.06,2.54,3.41.36.99-.37,1.66-1.49,1.84Z"/><path class="cls-14" d="M153.22,428.04c.45-1.16.27-2.97,2.2-3.12,1.25-.1,1.82.88,1.54,1.97-.35,1.35-.1,3.35-2.28,3.38-1.21.02-1.56-1-1.46-2.24Z"/><path class="cls-10" d="M227.34,427.24c-.06,1.27-.85,1.81-1.82,1.66-1.51-.24-3.18-.63-3.46-2.49-.17-1.08.72-1.69,1.75-1.54,1.53.24,3,.73,3.53,2.37Z"/><path class="cls-14" d="M213.58,457.07c-1.65-.4-2.22-1.82-2.46-3.35-.16-1.03.52-1.79,1.6-1.67,1.93.2,2.19,1.92,2.55,3.32.27,1.05-.48,1.63-1.7,1.69Z"/><path class="cls-10" d="M208.31,428.15c1.12.85,3.22.9,3.32,3.11.04.99-.68,1.52-1.6,1.33-1.68-.36-3.4-.87-3.5-3.04-.05-.95.55-1.47,1.78-1.4Z"/><path class="cls-10" d="M205.91,454.31c-.19,1.12-.72,1.77-1.67,1.61-1.78-.3-2.59-1.53-2.58-3.28,0-1.07.56-1.84,1.67-1.63,1.84.35,1.86,2.2,2.59,3.3Z"/><path class="cls-14" d="M196.87,433.27c.13-1.18.25-2.55,1.84-2.42,2.09.18,1.4,2.2,1.78,3.41.31.97-.5,1.78-1.55,1.71-1.57-.11-1.92-1.37-2.08-2.7Z"/><path class="cls-10" d="M193.61,414.54c-.06,1.22.15,2.75-1.74,2.65-1.58-.08-1.59-1.43-1.59-2.62,0-1.32.18-2.75,1.84-2.71,1.6.04,1.44,1.5,1.48,2.68Z"/><path class="cls-10" d="M165.16,453.22c.09,1.19-.45,1.73-1.41,1.71-1.59-.03-2.55-.95-2.71-2.48-.1-.98.49-1.9,1.55-1.84,1.62.09,2,1.58,2.57,2.61Z"/><path class="cls-14" d="M247.38,403.32c-1.13-.12-1.86-.71-1.77-1.74.12-1.41,1.2-1.87,2.5-1.87,1,0,1.89.34,1.85,1.47-.06,1.62-1.46,1.83-2.59,2.14Z"/><path class="cls-14" d="M224.41,418.35c-1.16.02-1.88-.46-1.87-1.56,0-1.33.95-1.92,2.11-2.04,1.07-.11,2.09.26,2.1,1.53,0,1.52-1.32,1.72-2.34,2.07Z"/><path class="cls-14" d="M258.45,446.89c0,1.11-.44,1.86-1.38,1.79-1.41-.1-2.26-1.09-2.46-2.43-.16-1.04.47-1.8,1.55-1.73,1.48.1,2.09,1.18,2.29,2.37Z"/><path class="cls-14" d="M196.05,400.92c-.06,1.19-.72,1.72-1.75,1.66-1.29-.08-2.21-.81-2.4-2.11-.15-1.04.4-1.8,1.5-1.75,1.42.06,2.18,1.03,2.65,2.21Z"/><path class="cls-14" d="M216.9,431.42c-1.16-.27-2.12-.68-2.17-2.03-.04-.95.47-1.63,1.4-1.61,1.3.03,2.23.75,2.29,2.13.04.96-.66,1.38-1.52,1.5Z"/><path class="cls-2" d="M395.11,223.54c0-11.69,9.14-20.64,21.06-20.65,11.36,0,21.05,9.81,21.06,21.34.02,11.46-9.25,20.75-20.76,20.8-11.83.05-21.37-9.55-21.36-21.5ZM399.18,225.41c-.28,6.01,5.06,12.84,11.77,15.05,7.4,2.43,15.72-.48,19.84-6.93,4.11-6.45,3.35-15.23-1.82-20.98-5.08-5.65-13.52-7.52-19.76-4.37,4.78,4.71,5.79,9.15,3.13,13.76-2.62,4.57-6.26,5.53-13.17,3.48Z"/><path class="cls-2" d="M413.94,270.12c-4.16.37-8.66-.81-13.18-1.69-2.93-.57-5.34-1.97-5.99-5.16-.65-3.2.87-5.64,3.24-7.59,3.17-2.6,7.1-3.12,10.96-3.51,6-.62,11.93.03,17.72,1.72,2.27.66,4.33,1.76,6.19,3.29,3.82,3.14,3.42,7.56-1.24,9.65-4.81,2.15-9.95,3.3-15.28,3.29-.63,0-1.27,0-2.43,0ZM415.86,266.78c1.78.17,4.68-.68,7.6-1.27,2.12-.43,4.23-1.03,6.22-1.85,2.44-1.01,2.48-2.22.45-3.85-2.65-2.12-5.83-2.75-9.03-3.43-3.14-.67-6.32-.11-9.45-.54-4.31-.6-8.22.39-11.72,2.93-1.24.9-1.83,2.23-1.53,3.82.29,1.54,1.58,1.93,2.81,2.19,4.42.92,8.85,1.84,14.64,2.01Z"/><path class="cls-13" d="M313.57,234.27c-.81,11.22-5.02,22.18-15.71,30.08-10.44,7.72-21.64,9.17-33.62,4.66-8.14-3.07-14.03-8.91-18.4-16.3-6.49-10.99-7.48-22.78-3.57-34.66,3.02-9.18,8.78-16.54,17.62-21.36,8.98-4.9,18.08-5.87,27.67-2.54,9.93,3.45,17.05,9.94,21.64,19.5,2.94,6.12,4.26,12.45,4.37,20.63Z"/><path class="cls-15" d="M284.97,86.41c-4.34-2.77-6.52-2.49-8.56.86-2.97,4.89-2.42,9,1.5,11.22-2.73.26-5.05-.77-6.75-3.87-3.83-6.98-4.55-14.2-.77-21.52,2.29-4.43,6.66-5.37,10.31-1.2,3.57,4.08,4.42,9.07,4.27,14.52Z"/><path class="cls-15" d="M347.18,110.57c.19,1.61-.08,2.55-2,3.1-3.74,1.06-5.66,4.38-5.8,8.87-.02.75.46,1.69-.49,2.22-1.02.57-1.78-.27-2.43-.75-4.83-3.55-6.23-8.82-6.4-14.35-.11-3.61.44-7.27,2.53-10.5,2.92-4.52,6.98-4.82,10.37-.72,2.93,3.54,3.92,7.73,4.21,12.13Z"/><path class="cls-6" d="M73.61,242.96c.28-8.63,2.96-17.72,9.6-25.46,9.64-11.24,27.31-11.23,36.43,1.35,9.29,12.81,11.03,26.71,5.14,41.42-1.85,4.63-4.9,8.47-9.15,11.22-3.03,1.95-6.25,3.16-9.99,2.88-2.58-.19-5.2-.08-7.79.1-7.98.57-13.81-3.08-18.18-9.35-4.34-6.22-6.03-13.3-6.06-22.17Z"/><path class="cls-15" d="M115.66,108.6c-.15,7.5-2.34,14.13-8.68,18.73-5.5,3.99-11.85,3.13-16.36-1.97-7.9-8.93-5.93-26.25,3.77-33.24,5.79-4.17,13.09-2.78,17.4,3.38,2.74,3.92,4.08,8.27,3.87,13.11ZM100.55,106.16c-2.13,0-4.07,2.08-4.01,4.33.06,2.12,1.84,4.17,3.58,4.12,1.81-.06,3.85-2.5,3.88-4.63.03-2.08-1.53-3.8-3.46-3.81Z"/><path class="cls-15" d="M158.68,115.31c.06,3.43-.61,6.68-2.69,9.49-2.11,2.85-4.57,3.02-7.14.61-4.94-4.62-5.59-16.54-1.19-21.66,2.22-2.58,5.08-2.57,7.38.18,2.73,3.27,3.74,7.16,3.64,11.38ZM154.41,116.88c.02-1.84-.54-3.25-2.67-3.27-1.8-.02-2.62,1.04-2.47,2.76.16,1.91,1.15,3.3,3.16,3.36,1.86.06,1.99-1.43,1.98-2.85Z"/><path class="cls-15" d="M57.17,114.06c-.49,3.71-.95,7.89-4.06,11.1-2.66,2.75-5.27,2.54-7.51-.51-3.9-5.3-3.28-16.08,1.2-20.88,2.56-2.74,5.54-2.52,7.71.57,1.48,2.11,2.66,6.24,2.66,9.72ZM47.31,116.8c0,1.39.02,2.79,1.9,2.95,1.64.14,3.26-1.67,3.26-3.58,0-1.62-.77-2.56-2.42-2.57-2.11-.01-2.75,1.33-2.74,3.2Z"/><path class="cls-15" d="M144.13,436.77c25.9,5.46,51.93,5.6,78.07,2.01-26.19,5.58-52.24,6.09-78.07-2.01Z"/><path class="cls-15" d="M163.2,393.89c-.1.74-.1,1.19-.24,1.6-.38,1.13.78,3.04-.64,3.33-1.66.35-3.6-.16-5.2-1.1-1.24-.73-.4-1.37.27-1.81,1.68-1.1,3.57-1.68,5.81-2.03Z"/><path class="cls-15" d="M170.9,393.39c1.55.73,4.07.08,4.22,2.17.08,1.17-2.16,2.06-3.49,1.95-1.67-.14-1.53-2.17-1.97-3.39-.35-.97.81-.51,1.24-.72Z"/><path class="cls-15" d="M214.85,393.37c1.8.27,3.42.82,4.95,1.62.53.28,1.38.87,1.33,1.21-.25,1.76-1.99,1.72-3.12,1.75-.97.03-2.74,1.89-3.13-.67-.18-1.22-.03-2.48-.03-3.91Z"/><path class="cls-15" d="M208.2,393.9c-1.12.76-.18,3.23-2.25,3.05-1.31-.11-3.62-.84-3.32-2.12.45-1.9,2.95-1.5,4.62-1.95.64-.17.97.24.94,1.02Z"/><path class="cls-9" d="M273.09,419.39c.33.05.63.14.57.58-.54.15-.74-.04-.57-.58Z"/><path class="cls-15" d="M399.18,225.41c6.91,2.05,10.55,1.09,13.17-3.48,2.65-4.62,1.64-9.05-3.13-13.76,6.23-3.15,14.67-1.28,19.76,4.37,5.17,5.75,5.93,14.53,1.82,20.98-4.11,6.46-12.44,9.37-19.84,6.93-6.71-2.21-12.05-9.03-11.77-15.05Z"/><path class="cls-15" d="M415.86,266.78c-5.79-.16-10.22-1.08-14.64-2.01-1.23-.26-2.52-.65-2.81-2.19-.3-1.59.28-2.92,1.53-3.82,3.49-2.54,7.4-3.53,11.72-2.93,3.13.43,6.31-.13,9.45.54,3.2.68,6.38,1.31,9.03,3.43,2.03,1.63,1.99,2.84-.45,3.85-1.99.82-4.11,1.42-6.22,1.85-2.91.6-5.81,1.44-7.6,1.27Z"/><path class="cls-2" d="M100.55,106.16c1.93,0,3.49,1.74,3.46,3.81-.04,2.13-2.08,4.57-3.88,4.63-1.74.06-3.52-1.99-3.58-4.12-.06-2.25,1.87-4.34,4.01-4.33Z"/><path class="cls-2" d="M154.41,116.88c.01,1.42-.11,2.91-1.98,2.85-2.02-.06-3-1.46-3.16-3.36-.15-1.72.67-2.78,2.47-2.76,2.13.02,2.68,1.44,2.67,3.27Z"/><path class="cls-2" d="M47.31,116.8c0-1.87.63-3.21,2.74-3.2,1.65.01,2.42.95,2.42,2.57,0,1.91-1.62,3.72-3.26,3.58-1.89-.16-1.91-1.56-1.9-2.95Z"/></svg>