<?xml version="1.0" encoding="UTF-8"?><svg id="Calque_1" xmlns="http://www.w3.org/2000/svg" viewBox="0 0 312.43 209.4"><defs><style>.cls-1{fill:#070810;}.cls-1,.cls-2,.cls-3,.cls-4,.cls-5,.cls-6,.cls-7,.cls-8,.cls-9{stroke-width:0px;}.cls-2{fill:#fefefe;}.cls-3{fill:#fcfcfd;}.cls-4{fill:#f4f3f5;}.cls-5{fill:#fdfdfd;}.cls-6{fill:#05050b;}.cls-7{fill:#fff;}.cls-8{fill:#0c0d18;}.cls-9{fill:#05060c;}</style></defs><path class="cls-6" d="M195.69,7.22c-13.87,4.68-27.23,10.59-40.64,16.4-7.03,3.05-13.95,6.35-21.06,9.19-12.31,4.92-24.22,10.68-36.19,16.33-5.17,2.45-10.23,5.13-15.36,7.66-.58.28-1.29.78-1.89-.32-1.51-2.77-4.76-3.28-7.3-1.29-1.43,1.12-2.53,2.56-3.44,4.09-.51.85-.68,1.01-1.5.38-2.04-1.57-4.17-1.31-6.43-.27-3.72,1.71-5.57,5.1-7.61,8.28-.68,1.06-1.33,1.66-2.54,1.98-8.59,2.25-16.87,5.36-24.98,8.94-2.6,1.15-3.03,1.88-1.8,4.42,1.18,2.44,2.36,4.89,3.69,7.25.81,1.44.57,2.51-.28,3.85-2.49,3.93-4.87,7.93-7.22,11.95-3.51,6.01-5.59,12.64-8.14,19.07-1.35,3.4-2.29,6.96-3.41,10.45,2.42-4.61,4.48-9.33,6.51-14.06,2.08-4.85,4.02-9.77,6.77-14.3,2.69-4.43,5.25-8.98,8.33-13.14,3.12-4.2,5.51-8.96,9.33-12.75,2.1,3.28,2.74,3.51,5.1,1.81-1.45-.12-3.13.17-3.22-1.9-.09-1.92.96-3.22,2.61-4,.99-.48,2.49-1.52,3.1-.43.67,1.18.66,2.95-.22,4.37-.14.23-.19.5-.31.74-3.83,7.88-9.2,14.78-13.94,22.08-1.69,2.59-3.64,5.02-5.46,7.53,4.82-4.01,8.47-8.97,12.24-13.82,4.05-5.22,7.8-10.68,10.19-16.96,1.27-3.36,2.88-6.6,4.53-9.8.44-.84,1.53-2.8,2.67-.52,1.37,2.71,3.2,1.62,5.02,1.08-3.24-.67-3.99-1.56-3.55-4.52.15-1.05.62-2.04.93-3.01.6-1.84,4.78-3.6,5.88-2.58,1.58,1.48.95,3.42.29,5.2-4.57,12.35-11.67,23.28-19.01,34.08-2.32,3.42-4.48,6.93-6.72,10.4,12.55-14.24,24.41-28.89,29.64-47.75,1.24,2.41,3.12,2.97,5.39,2.89-.47,1.4-.91,2.54-1.77,3.63-1.61,2.05-2.99,4.24-3.82,6.84-3.18,9.84-6.68,19.57-11.6,28.73-1.75,3.27-3.16,6.73-4.73,10.1,3.3-4.09,6.31-8.31,8.78-12.88,3.68-6.81,6.14-14.12,8.56-21.44.61-1.82.41-4.03,3.65-2.63,2.4,1.03,4.43-.79,6.26-2.47-.35,1.64-.29,3.17-.54,4.62-1.84,10.91-5.65,21.17-10.46,31.1-4.71,9.71-9.42,19.45-11.57,30.13-1.19,5.9.28,11.48,7.75,13.67,3.54,1.03,7.18,1.17,10.8,1.54,5.66.59,11.25,1.52,15.98,4.96,1.63,1.19,3.29,2.77,2.67,5.34-1.8-1.08-3.49-1.21-5.47-.71-1.34.34-2.77,1.46-4.31.4-3.77-2.56-7.75-1.77-11.66-.53-3.04.96-6.13,1.85-9.27,1.93-7.45.18-14.65,1.48-21.7,3.87-8.43,2.86-14.93,8.2-20.61,14.95-4.6,5.45-9.76,10.43-15.19,15.12-2.44,2.1-5.24,3.9-7.44,6.9,1.46.08,2.14-.42,2.83-.93,8.36-6.13,15.96-13.12,23.21-20.51,1.71-1.74,3.61-3.22,5.56-4.64,8.69-6.32,19.02-8.04,29.15-10.3.59-.13,1.05-.09,1.31.84,2.09,7.79,5.03,15.29,7.98,22.79,1.3,3.3,2.34,6.7,3.5,10.05.56-2.86-.38-5.45-.92-8.07-1.75-8.43-4.66-16.49-8.04-24.39-.39-.92-.99-1.68.66-1.8,3.41-.26,6.59-1.41,9.65-2.85,3.35-1.59,6.76-2.33,10.09-.33,1.73,1.05,3.3,2.27,5.29,2.87,4.38,1.32,6.06.3,6.38-4.07.47-6.37-.94-8.04-6.84-10.43-6.61-2.67-13.55-2.5-20.4-3.17-6.81-.67-10.53-4.1-9.52-11.24.52-3.62,1.83-7.09,3.19-10.52,4.09-10.31,9.44-20.04,13.71-30.26,2.74-6.54,4.4-13.31,5.5-20.31.59-3.74,0-7.49.89-11.21.69-2.89-.81-4.2-3.92-4.24-.41-.01-.82-.04-1.28-.06.12-.31.17-.48.24-.63,1.69-3.59,2.89-7.12,7.51-8.7,8.47-2.9,16.43-7.18,24.67-10.71,13.68-5.87,27.58-11.26,41.28-17.09,18.25-7.77,36.46-15.64,54.32-24.29,1.6-.78,3.46-1.16,5.03-2.98-5.5,1.51-10.39,3.34-15.34,5.01ZM30.17,90.9c-.9-3.07-1.47-5.9-2.61-8.49-.66-1.52.1-1.82.98-2,3.87-.8,7.56-2.21,12.12-3.55-4.68,4.29-7.02,9.39-10.49,14.04ZM50.29,75.36q-.9-1.92,1.29-2.62c-.45.91-.85,1.73-1.29,2.62ZM88.56,168.46c2.36.5,4.53-.7,6.35,2.01-2.34-.6-4.54.76-6.35-2.01ZM78.8,69.18c.72-.36,1.47-.54,1.99-.16.62.45.43,1.33.06,1.96-1.23,2.09-2.7,3.94-4.95,4.46-.86-.11-1.56.19-1.83-.36-.27-.54-.28-1.33.19-1.78,1.49-1.4,2.62-3.16,4.54-4.12ZM78.37,58.69c.13,2.1-.94,3.81-1.78,5.52-.71,1.43-1.98.98-2.97.13-1.32-1.14-1.64-2.81-1.29-4.3.41-1.73,3.75-3.45,5.22-3.2,1.37.23.56,1.26.82,1.85Z"/><path class="cls-6" d="M245.15,60.03c.58-2.33,1.95-2.22,3.93-1.85,8.77,1.66,17.58,3.14,26.38,4.67,1.35.23,2.3.68,3.15,1.98,3.15,4.77,6.91,9.05,11.42,12.6,5.59,4.4,11.22,8.73,16.85,13.07,1.81,1.4,3.69,2.72,5.55,4.08-2.4-3.21-5.33-5.75-8.18-8.4-5.19-4.82-10.77-9.15-16.26-13.6-2.89-2.34-5.4-5.12-7.52-8.91,2.95,1.03,5.32,1.03,7.89.51-.7-1.19-1.6-.71-2.32-.76-4.37-.31-8.12-1.23-9.45-6.34-.84-3.2-2.32-6.24-3.66-9.29-4.13-9.43-11.01-18.22-23.66-17.13-2.58.22-5.09-.71-7.38-1.68-4.39-1.86-8.7-2.85-13.36-1.16-.58.21-1.63.75-1.91-.61-1.17-5.73-3.7-10.98-6.1-16.23-1.6-3.52-2.52-7.4-5.2-10.98-.65,5.78,1.57,10.45,3.31,15.14,1.77,4.76,4.04,9.34,7,13.51-1.35.95-2.74,1.51-4,2.3-5.28,3.3-10.55,6.56-16.77,8.04-2.48.59-5.45,1.7-4.97,5.49.14,1.17-.68.89-1.44.8-3.42-.4-6.84-.72-10.27-1.06,5.79,3.02,11.81,5.06,18.27,5.53.95.07,1.49.39,1.64,1.4,1.18,7.81,4.76,14.08,10.94,19.25,9.13,7.64,18.55,14.51,30.5,16.95.77.16.96.34,1.1,1.11,1.77,9.2,4.6,18.07,9.31,26.2,1.48,2.55,2.81,5.42,5.62,7.32-2.13-12.2-7.67-22.79-12.46-34.03,4.59-.02,8.74.71,12.88,1.61,12.96,2.85,22.48,10.54,29.89,21.21,1.67,2.14,1.35,1.95,2.24,3.84,1.07,2.26,1.82,4.56,4.71,6.31-2.14-8.85-7.44-15.11-12.49-21.52q-.93-.93-2.14-2.14c-8.44-8.46-19.04-12.24-30.57-13.62-7.1-.85-13.87-2.61-19.93-6.31-5.89-3.6-11.5-7.68-17.11-11.72-2.39-1.72-5.07-3.35-5.89-6.55-.07-.35-.29-.55-.63-.63-1.97-2.51-3.92-5.04-5.8-8.38,3.09.66,5.64,1.23,8.2,1.74,1.7.34,3.77.02,4.98,1.34,5.04,5.5,12.04,7.57,18.38,10.79,1.29.66,2.59,1.44,4.11,1.59-.21-1.2-1.62-.88-2.03-2.07,1.63-.54,2.83-1.7,3.25-3.41ZM210.8,45.85c-2.14.26-4.35.18-6.52.05-1.09-.07-2.38-.86-2.49-1.78-.11-1.01.77-2.13,1.98-2.53,2.44-.79,4.91-1.49,7.35-2.3,5.01-1.66,8.95-5.28,13.62-7.56,2.13-1.04,4.34-2.15,6.62-2.53,2.7-.44,5.44-.41,8.08,1.26,3.4,2.16,6.99,4.03,10.9,5.27,5.85,1.86,8.76,6.84,11.68,11.71.53.87.91,1.84,1.57,2.61-2.32-7.28-5.36-14.03-13.39-16.96,7.18-.5,12.51,2.42,16.82,7.96,4.63,5.93,6.11,13.22,9.41,19.94-2.84.66-5.26-.54-7.68-.96-7.03-1.21-13.98-2.84-20.97-4.24-.98-.19-1.83-.48-2.04-1.45-1.42-6.4-6.04-9.75-11.57-12.19-3.5-1.54-7.07-2.91-11.09-4.55.54.64.85.85.93,1.13.31,1.03,2.38.82,1.84,2.12-.58,1.39-2.23,1.79-3.61,1.78-3.34-.03-6.59,1.22-10.48.29,2.04,2.34.2,2.79-.96,2.93ZM216.68,47.31c-.3-.18-.66-.3-.92-.52-.62-.55-2.25-.05-1.95-1.21.23-.9,1.57-1.28,2.71-1.27,1.97.02,3.94.01,5.97.01-.1.5-.11.87-.25,1.18q-1.78,4.15-5.56,1.81ZM220.98,49.78c2.57-2.41,2.64-6.04,5.51-7.88.46-.3.44-1.1,1.35-.51,4.39,2.81,9.79,3.93,13.42,8.03.06.07.13.12.19.19,1.13,1.45,3.22,3.13,2.35,4.68-.75,1.34-3.02-.47-4.67-.45-.51,0-1.04-.14-1.54-.27-1.08-.29-1.87-.62-1.06-2.05.76-1.33,1.44-2.8.58-4.82-1.06,1.99-1.61,4.17-3,5.32-1.68,1.38-3.65-1.06-5.77-.58,1.11-2.51,3.36-4.48,2.41-7.74-.94,2.29-1.6,4.56-3.11,6.21-2.01,2.19-4.15-.38-6.66-.13ZM226.57,55.42c-.36-.3-1.05-.6-.79-1.2.27-.65.97-.76,1.62-.61,1.66.41,3.32.85,4.98,1.28-2.32,3.39-2.4,3.41-5.81.53ZM237.37,61.03c-1.97-1.11-4.11-1.91-6.04-2.79,1.59-3.25,4.21-3.32,7.34-2.01,1.11.47,2.43.54,3.66.6,2.32.11,2.28,1.24,1.31,2.79-1.95,3.12-3,3.26-6.27,1.41Z"/><path class="cls-6" d="M79.02,204.95c6.73-5.24,13.73-9.84,21.18-13.67,7.7-3.96,15.55-7.64,23.45-11.18,7.59-3.4,15.3-6.52,23-9.67,9.32-3.8,18.67-7.54,28.03-11.24,11.91-4.7,23.89-9.21,35.74-14.04,9.98-4.07,19.77-8.6,29.74-12.68,6.64-2.71,13.45-4.99,20.18-7.47,1.39-.51,2.72-1.27,4.15-1.52.64-.11,1.59-1.14,2.11-.11.45.89-.67,1.29-1.21,1.66-2.56,1.77-5.45,2.92-8.31,4.06-9.67,3.83-19.03,8.37-28.48,12.68-11.72,5.34-23.75,9.96-35.68,14.81-10.94,4.45-21.94,8.73-32.9,13.14-12.93,5.21-25.86,10.43-38.75,15.75-13.79,5.69-27.24,12.09-40.39,19.15-.57.31-1.03.72-1.87.33Z"/><path class="cls-6" d="M214.42,119.73c1.96,1.31,3.02,3.02,4.27,4.6,2.26,2.89,1.94,3.89-1.45,6.09-1.74,1.13-3.71,2.01-5.7,2.64-.76.24-1.85,1.32-2.86-.05-.82-1.12-.76-2.11-.24-3.24.1-.22.11-.47.16-.72-3.74-.49-4.17-.92-4.47-4.51-6.29,1.83-12.39.74-18.33-1.44-5.94-2.18-9.77-6.74-12.7-12.12-2.38-4.39-4.93-8.74-5.62-13.81-.34-2.48-.72-4.97-.77-7.47-.06-3.06-.61-6.04-.98-9.05-.59-4.78-.03-9.57,1.37-14.11,2.53-8.21,2.84-16.48,1.81-24.92-.34-2.77-.05-5.61-.05-8.58,2.01.74,2.64,2.68,3.84,4,4.78,5.31,10.54,9.46,16.34,13.44,8.68,5.95,13.68,14.4,17.36,23.85,1.91,4.89,5.42,8.8,7.73,13.41,1.89,3.77,4.86,6.89,6.19,10.99,2.41,7.43,1.7,14.12-4.29,19.68-.47.43-.99.81-1.6,1.3Z"/><path class="cls-6" d="M160.66,143.12c1.86,1.97,3.08,4.37,5.72,5.24,1.46.48,1.1,1.71.43,2.3-3.89,3.46-7.75,7.17-13.33,7.56-3.48.24-4.94-1.2-6.58-4.45-.52-1.03-.02-3.57-2.39-3.01-2.56.6-.93,2.48-.7,3.72,1.62,8.75-5.4,12.7-11.95,11.96-2.15-.24-3.61-2.8-3-5.48.23-1,.18-1.95.12-2.91-4.98.41-9.21-1.2-12.89-4.44-5.51-4.85-8.12-11.19-9.37-18.21-1.44-8.03-2.3-16.2-5.99-23.67-.07-.14.03-.35.08-.8,1.7,1.12,3.31,2.17,5.32,3.49-.48-3.09-1.83-5.52-2.31-8.19-.33-1.82-.62-3.65-.21-5.3.83-3.38.08-6.55-.47-9.8-.12-.7-.14-1.41-.24-2.11-.1-.73.25-1.32.84-1.54.96-.35.85.72,1.14,1.15.86,1.3,1.58,2.7,2.44,4.23.78-.9,1.05-1.68,1.06-2.67.05-6.64-.29-13.24-1.61-19.77-.23-1.14-.05-2.35-.04-3.54,0-.79-.28-1.89.66-2.11.81-.19,1.38.82,1.8,1.44,2.34,3.43,4.5,6.99,7.92,9.53,1.71,1.27,3.67,2.04,5.56,2.95,1.67.8,3.36,1.93,3.96,3.5,1.72,4.55,5.26,7.55,8.67,10.5,6.03,5.22,7.39,12.26,8.67,19.43,1.5-1.01,2.05-3.26,1.31-6-.32-1.17-.7-2.35-1.25-3.43-.34-.67-.15-1,.3-1.35.58-.45.78.22,1.01.47,5.99,6.21,12.86,11.72,17.09,19.38,3.27,5.92,4.65,12.32,1.59,18.99-.7,1.53-1.95,2.08-3.35,2.96Z"/><path class="cls-1" d="M214.69,59.06c-.21-.21-.42-.42-.64-.63.42-2.05.84-4.1,1.27-6.15-.08,2.28,1.51,4.73-.63,6.78Z"/><path class="cls-7" d="M169.05,94.04c1.17.57,1.07,2.38,2.84,2.58-1.68-3.3-3.26-6.41-3.7-10.1-.81-6.77-1.05-13.56.84-20.03,2.43-8.34,1.7-16.57,1.01-24.94-.17-2.08-.96-4.14-.5-6.77,4.49,7.88,11.46,12.68,18.21,17.6,7.62,5.55,12.74,12.76,15.93,21.47.56,1.52,1.55,2.93,1.6,5.03-4.76-5.06-10.3-9.1-11.93-16.1-.14-.59-.69-.45-1.08-.62-.62-.26-.49.28-.52.54-.92,7.45-3.88,14.26-6.64,21.13-3.16,7.87-.56,14.53,4.4,20.6,1.72,2.11,3.7,4.09,6.77,5.6-1.22-2.86-3.43-4.21-4.84-6.19-2.49-3.51-4.69-7.23-5.03-11.44-.27-3.28.58-6.65,1.87-9.87,1.91-4.74,4.28-9.4,4.09-14.75-.01-.32.3-.64.53-1.1,3.93,8.16,11.27,13.25,16.79,19.9,3.9,4.69,8.09,9.28,9.45,15.47,1.21,5.52.31,10.67-3.84,14.91-.99,1.01-2.33,1.77-2.6,3.42,3.56.45,4.2,4.01,6.18,6.19.61.67-.38,1.6-1.04,1.95-2.09,1.09-4.22,2.15-6.43,2.95-1.11.4-2.15.26-1.39-1.64.54-1.34.47-2.93.26-4.48-.38-2.82-2.48-4.86-5.79-3.8-8.43,2.7-16.68,1.24-23.32-4.39-6.06-5.14-9.97-12.15-11.73-20.08-.2-.92-1.07-1.88-.42-3.04Z"/><path class="cls-7" d="M208.56,127.54c-1.99-.24-3.13-1.2-3.14-3.05,0-.79,1.21-1.16,1.54-1.03,1.85.73,1.77,2.38,1.6,4.08Z"/><path class="cls-7" d="M103.27,114.43c2.07,1.6,3.31,3.45,5.23,4.49.43.23.77,1,1.32.42.35-.37.78-.79.35-1.61-.52-1-.38-2.33-.89-3.33-3.16-6.2-3.64-12.8-2.92-19.65.91-.21,1,1.31,2.37,1.22,3.6-9.2.39-18.36-.53-27.72,1.96,1.29,2.97,3.43,4.29,5.17,1.84,2.44,3.92,4.55,6.59,5.8,5.36,2.53,7.57,7.14,8.88,12.43.44,1.79,1.38,3.47,1.16,5.43-.08.68.5,1.12,1.21,1.21,1,.12.73-.66.96-1.21.87-2.08.47-4.13-.07-6.23,5.22,5.97,9.22,12.46,11.05,20.17.28,1.16.58,3.22,2.11,2.91,1.44-.29,2.65-1.75,2.69-3.65.04-1.58-.15-3.12-.36-4.77,5.98,6.79,13.57,12.28,16.29,21.51,1.18,4,1.58,7.95-.05,11.98-.51,1.25-1.07,2.25-2.33,2.69-1.37.47-1.64.98-.83,2.4,1.31,2.32,2.89,4.27,5.27,5.64-2.7,1.69-5.14,3.52-7.95,4.77-5.77,2.58-7.69.61-9.51-3.42-.47-1.04-.56-2.83-2.32-1.97-1.32.65-3.61.13-3.23,3.25.86,7.11-.42,9.87-8.63,12.17-2.17.61-3.17-.15-3.25-2.45-.03-1-.24-2.07.04-2.98.9-2.97-1.13-3.45-3.1-3.52-7.46-.27-11.6-4.95-15.09-10.77-2.78-4.64-3.63-9.86-4.66-14.98-1.02-5.07-2.06-10.11-4.06-15.4Z"/><path class="cls-6" d="M174.96,84.43c-3.39,1.23-5.25.18-6.26-2.9-1.32-4.04,1.29-7.5,5.44-7.26.4.02.9.94,1.38-.24.58-1.44,2.04-1.76,3.44-1.22,1.65.63,2.77,1.79,2.98,3.7.27,2.51-.6,4.72-1.78,6.79-.97,1.7-3.25,1.76-4.89.49-.88-.68-1.29-1.86-2.57-2.17-.65-.16-.86-.95-.14-1.49,1.06-.8,1.29-1.86,1.22-3.12-.03-.58,1.16-1.3-.05-1.71-.69-.24-1.56-.09-2.22.42-1.92,1.46-2.6,3.49-2.04,5.71.59,2.32,2.39,3.34,5.48,2.99Z"/><path class="cls-6" d="M204.48,95.41c-2.67-3.65-4.88-6.82-7.79-9.57,2.54,5.17,1.3,10.13-.86,15.09.53-6.35,1.39-12.72-1.52-18.76,2,2.11,4.65,3.31,6.13,5.63,1.42,2.23,3.36,4.24,4.03,7.61Z"/><path class="cls-6" d="M181.91,99.68c.1.99.19,1.75-1.48,1.61-.65-.06-1.7.15-2.56.38-2.74.75-4.55-.52-4.64-3.18-.02-.74.44-1.19,1.13-1.26.93-.1,1.59-.78,2.4-1.02,1.25-.36,2.91-1.89,3.51-1.18.95,1.14,1.88,2.77,1.63,4.65Z"/><path class="cls-6" d="M144.82,131.41c.46,2.25-.44,3.38-3.01,4.19-6.4,2-12.75,4.21-18.29,8.23-1.98,1.44-2.53.99-2.66-1.49-.11-2.12.49-4.32-.68-6.35-.48-.82.23-.94.8-1.18,7.01-2.9,12.96-7.48,18.8-12.17,1.66-1.33,2.45-1.13,3.14.68.96,2.54,2.2,5.02,1.9,8.09Z"/><path class="cls-9" d="M134.53,110.74c-.05,1.75.24,3.62-1.76,4.4-1.98.76-3.79.1-5.29-1.26-2.62-2.39-4.69-5.06-4.44-8.95.22-3.33,2.95-4.99,5.92-3.38,2.64,1.44,6.05,5.55,5.58,9.2Z"/><path class="cls-9" d="M121.5,115.16c.02-.14-.03.04-.02.22.15,2.49-.31,5.13-2.92,5.65-2.55.51-4.19-1.69-5.35-3.91-1.58-3.03-2.23-6.14-.89-9.43,1.19-2.95,4.22-3.36,6.06-1.34,2.24,2.45,3.17,5.26,3.12,8.81Z"/><path class="cls-7" d="M180.83,77.61c.18,1.34-.39,2.62-.94,3.92-.57,1.33-1.35,2.28-3.02,2.06-1.66-.22-2.14-1.56-2.52-2.76-.64-2.01,1.08-5.96,2.95-6.96.36-.19.82-.84,1.59-.22,1.19.96,1.94,2.12,1.95,3.96Z"/><path class="cls-7" d="M180.83,100.02c-.02.76-.82.35-1.35.45-.96.16-1.11-.91-1.07-1.17.1-.63.88-.98,1.46-.93.62.06,1,.65.96,1.65Z"/><path class="cls-4" d="M178.28,98.19c-.1-1.18.62-1.62,1.38-1.96.08-.04.56.45.58.71.07,1.68-1.66.12-1.96,1.25Z"/><path class="cls-7" d="M140.33,129.51c3.39-.66,3.84-.23,3.46,3.06-.08.72-.14,1.13-1.03,1.18-2.76.16-5.33,1.1-7.89,2.07-.53.2-1.56,1.01-1.65-.41-.06-.91-1.64-1.86.18-2.81,2.28-1.2,4.94-1.54,7.02-3.17l-.08.08Z"/><path class="cls-7" d="M140.42,129.43c-3.06.24-5.56,2.01-8.38,2.98-.8-1.16-.46-1.99.82-2.81,2.48-1.59,4.91-3.25,7.05-5.32.93-.9,1.47-1.1,2.38.61,1.47,2.8-.1,3.59-1.94,4.61,0,0,.08-.08.08-.08Z"/><path class="cls-7" d="M130.72,133.66c1.54.07,1.66,1.55,1.87,2.42.29,1.17-1.28.68-1.88,1.19-.25.21-.66.23-.93.43-2.51,1.82-2.85.25-2.87-1.83.06-.1.13-.19.19-.29.71-.59,1.56-.98,2.3-1.54.41-.23.83-.42,1.32-.37Z"/><path class="cls-2" d="M125.17,137.18c1.34.41,2.57.97.96,2.41-1.04.93-2.33,1.58-3.13,2.73-1.85-1.78-.79-3.02.55-4.21.28-.77.83-1.06,1.63-.93Z"/><path class="cls-3" d="M130.72,133.66c-.24.5-.69.6-1.17.63-.83.67-1.9.94-2.71,1.65,0,0,.06-.07.06-.07-1.23-1.02-1.65-1.94.24-2.71.72-.29,1.34-.82,2.07-1.07.47-.16.67-1.2,1.45-.46.71.68.65,1.34.06,2.03Z"/><path class="cls-5" d="M125.17,137.18c-.54.31-1.08.62-1.63.93-.65-.29-1.61.98-1.98-.26-.17-.58-.74-1.57.53-1.99,1.06-.34,1.95-1.7,3.09-1.11.83.44.46,1.6-.01,2.42Z"/><path class="cls-7" d="M133.41,110.7c.1,1.11.21,2.6-1.32,3.23-1.55.63-2.91-.08-4.12-1.15-2.36-2.09-4.05-4.44-3.85-7.82.16-2.66,2.06-3.78,4.43-2.51,2.76,1.48,4.84,4.9,4.85,8.25Z"/><path class="cls-7" d="M120.91,115.07c.17,1.22-.4,2.29-.82,3.31-.83,2.02-2.61,2.25-4.26.73-2.81-2.56-3.9-7.24-2.51-10.71.93-2.32,3.21-2.56,4.91-.64,1.87,2.12,2.28,4.7,2.69,7.31Z"/><path class="cls-6" d="M177.25,78.13c.66-.02.85.28.86.8.02.75-.42.85-1.02.81-.63-.04-.62-.49-.61-.94.02-.57.35-.75.77-.68Z"/><path class="cls-8" d="M126.83,135.94c.51-1.2,1.58-1.48,2.71-1.65-.57,1.1-1.56,1.5-2.71,1.65Z"/><path class="cls-6" d="M129.62,110.81c-1.67-.5-2.55-1.55-2.76-3.2-.16-1.3,1.07-1.66,1.62-1.55,1.43.29,1.92,1.66,2.19,2.97.18.88-.18,1.56-1.05,1.78Z"/><path class="cls-6" d="M118.15,113.94c.05.86-.19,1.89-1.12,1.69-1.38-.3-1.77-1.53-1.61-2.92.08-.76-.02-1.85,1.04-1.61,1.34.29,1.76,1.51,1.69,2.84Z"/></svg>