<?xml version="1.0" encoding="UTF-8"?><svg id="Calque_1" xmlns="http://www.w3.org/2000/svg" viewBox="0 0 305.7 211.92"><defs><style>.cls-1{fill:#ea000e;}.cls-1,.cls-2,.cls-3{stroke-width:0px;}.cls-2{fill:#969696;}.cls-3{fill:#121212;}</style></defs><path class="cls-3" d="M76.86,81.23c-2.13,1.23-4.36,1.68-6.75.93-1.27-.39-1.27.73-1.42,1.45-2.93,13.22-10.09,24.41-17.02,35.72-.24.39-.46.79-.77,1.12-.56.6-1.27.7-1.98.3-.63-.35-.88-1-.66-1.64.33-.93.76-1.84,1.27-2.69,4.93-8.15,9.86-16.31,13.18-25.31.44-1.19.9-2.39,1.18-3.62,1.32-5.69,2.98-11.23,6.69-15.95-3.95-1.67-4.14-1.74-5.58,1.84-4.97,12.32-12.44,23.17-19.79,34.09-1.92,2.86-4.6,5.15-6.14,8.31-.4.82-1.21,1.16-2.08.78-1.02-.45-1.18-1.36-.79-2.29.7-1.69,1.81-3.13,2.9-4.59,7.51-10.04,14.45-20.45,19.82-31.82.3-.64.55-1.3.9-2.13-1.84-.08-3.64.41-5.05-.99-.62-.61-1.15-.21-1.49.45-.5.97-1.07,1.91-1.44,2.93-3.72,10.3-10.33,18.91-16.32,27.89-2.13,3.2-4.78,5.96-7.59,8.54-1.28,1.17-2.35,4.53-4.45,2.54-2.18-2.07,1.01-3.6,2.26-4.89,3.55-3.68,6.73-7.61,9.51-11.9,2.37-3.66,4.78-7.28,7.15-10.94.64-.99,1.36-2.11-.86-1.82-.44.06-1.03.1-1.33-.13-2.61-2.11-3.61.07-4.87,1.74-8.43,11.19-16.13,22.8-21.82,35.7-2.3,5.21-5.42,10.05-8.17,15.06-.52.95-1.24,1.76-2.38,1.13-1.2-.66-1.1-1.83-.47-2.85,6.52-10.72,10.82-22.59,17.41-33.27,1.53-2.47,3.25-4.82,4.93-7.19.67-.95,1.08-1.85.49-3.01-1.58-3.13-2.23-6.67-4.36-9.6-1.2-1.64.07-2.64,1.57-3.28,9.26-3.96,18.5-7.95,27.79-11.86,1.82-.77,3.28-1.76,4.41-3.43,1.43-2.1,3.03-4.11,5.71-4.79,1.09-.28,2.35-.6,3.13.19,1.92,1.94,2.5.46,3.45-.97,2.05-3.09,5.03-4.03,8.48-2.61,1.08.44,1.74-.04,2.52-.37,31.67-13.66,63.33-27.33,94.99-40.99,12.58-5.43,25.17-10.85,37.75-16.26,3.01-1.29,3.72-1.03,4.95,2.01,3.29,8.17,6.56,16.34,9.76,24.55.53,1.35,1.14,1.91,2.69,1.99,1.68.09,3.38.68,4.97,1.29,5,1.91,10.27,3.14,15.51,3.13,8.86,0,13.77,5.12,17.72,11.91,1.32,2.26,2.17,4.79,3.23,7.2.8,1.83,1.62,3.65,2.37,5.49,2.07,5.08,5.33,8.54,11.25,8.52.45,0,.91.08,1.34.21,1.08.32,1.74,1.03,1.56,2.21-.19,1.25-1.13,1.54-2.22,1.49-1.15-.06-2.22-.81-3.43-.44-.14.91.51,1.37,1.04,1.81,5.16,4.28,10,8.99,16.2,11.89,2.55,1.19,4.86,2.84,6.96,4.73.87.78,1.49,1.74.56,2.83-.79.94-1.79.72-2.68.07-7.1-5.16-15.24-8.83-21.6-15.08-1.42-1.4-3.09-2.6-4.12-4.32-1.66-2.8-4.05-3.99-7.22-4.56-8.04-1.44-16.02-3.25-24.03-4.86-.85-.17-2.42-.95-2.44.53-.02,1.73-4.28,2.15-1.23,4.74,1.25,1.05.22,2.17-1.23,2.38-2.02.29-3.8-.37-5.22-1.79-1.34-1.35-2.91-2.04-4.76-2.4-3.78-.75-6.07-3.83-8.88-6.05-1.65-1.31-3.31-2.53-5.23-3.38-.54-.24-1.59-.62-1.73-.12-.59,1.97-.78,4.02-1.81,5.92-.48.88.95,1.58,1.57,2.31,6.69,7.91,15.66,12.88,24.07,18.56,2.69,1.82,6.09,2.28,9.22,3.22,7.81,2.34,15.8,4.25,23.08,8.04,9.05,4.71,16.61,11.34,23.3,18.99,1.79,2.05,3.55,4.14,5.32,6.21.9,1.05,1.55,2.27.29,3.33-1.19,1-2.19.05-2.99-.88-5.45-6.33-11-12.51-17.51-17.86-8.17-6.72-17.75-9.99-27.81-12.9-.25,1.21.34,2.04.68,2.9,3.99,10.04,8.01,20.06,12,30.1,1.48,3.72,1.34,4.14-2.33,5.74-36.28,15.78-72.57,31.53-108.84,47.31-23.71,10.31-47.41,20.67-71.12,30.99-2.08.9-4.32,1.49-6.27,2.62-2.42,1.4-3.44.41-4.29-1.73-3.11-7.85-6.26-15.69-9.4-23.52-1.05-2.61-2.12-5.21-3.13-7.84-.35-.9-.63-1.67-1.88-1.42-5.07,1.02-10.27,1.44-15.21,3.01-8.51,2.71-15.33,8.12-21.61,14.22-3.77,3.67-7.55,7.33-10.83,11.48-1.7,2.15-4.04,3.65-6.33,5.12-.93.6-1.93.76-2.66-.23-.74-1.01-.29-2.01.57-2.63,7.46-5.34,12.49-13.14,19.35-19.08,9.18-7.95,19.32-13.78,31.78-14.71,4.81-.36,9.5-1.54,14.07-3.09,5.31-1.79,10.61-2.2,16.05-.53,2.16.66,4.2-.62,6.4-.65-2.95-6.37-9.78-10.4-16.54-9.83-3.36.28-6.71.26-10.06.04-3.57-.23-5.76-2.2-6.92-5.58-2.87-8.34-.7-16.21,2.46-23.82,4.42-10.64,9.26-21.11,13.96-31.64,2.19-4.9,4.05-9.91,5.33-15.13.18-.75.63-1.53.04-2.48ZM186.18,48.52c3.31.02,6.02-1.19,8.77-.02.79.33,1.11-.24,1.19-1,.28-2.54,2.07-3.9,4.21-4.5,7.77-2.21,13.89-7.33,20.61-11.39,1.46-.88,1.71-1.67,1.06-3.26-2.83-6.89-5.51-13.84-8.26-20.76-1.43-3.6-1.45-3.61-4.94-2.1-42.23,18.24-84.45,36.51-126.7,54.69-2.64,1.14-4.64,2.19-4.7,5.57-.03,1.58-.99,2.85,1.24,3.75,1.46.59,2.1,2.26,2.25,3.85.29,3.07.56,6.14-.1,9.22-1.33,6.25-3.47,12.22-6.07,18.04-4.71,10.52-9.59,20.97-13.92,31.65-2.65,6.52-5.07,13.3-2.35,20.6.84,2.27,2.08,3.51,4.54,3.47,3.63-.07,7.26-.12,10.89-.1,5.36.04,10.17,2.04,13.7,5.81,2.98,3.18,6.95,6.06,6.5,11.54-.19,2.31-.94,3.2-2.95,3.19-2.94-.02-5.87-.56-8.32-2.2-2.68-1.79-5.59-1.97-8.58-1.93-3.7.05-7.03,1.71-10.55,2.57-1.69.41-1.61,1.16-1.06,2.49,3.84,9.41,7.67,18.83,11.37,28.3.68,1.73,1.34,1.61,2.74.97,4.62-2.12,9.29-4.13,13.95-6.15,56.09-24.37,112.18-48.74,168.31-73.03,2.06-.89,1.94-1.77,1.27-3.43-4.28-10.6-8.54-21.22-12.7-31.87-.67-1.71-1.62-2.7-3.37-3.09-4.98-1.11-9.26-3.58-13.23-6.7-1.14-.89-2.38-1.66-3.63-2.41-9.02-5.43-15.99-13.02-22.41-21.19-.87-5.6-5.23-6.22-9.65-6.79-1.17-.15-2.31-.5-3.47-.69-2.04-.33-3.65-1.4-5.62-3.08ZM271.25,64.35c-3.12-4.72-4.76-9.53-6.65-14.21-1.1-2.73-2.48-5.31-4.47-7.43-2.57-2.73-5.06-5.84-9.98-5.13,1.14.66,1.97,1.13,2.79,1.62,3.37,2.02,6,4.7,7.36,8.45.4,1.09.7,2.47-.72,3.1-1.47.66-2.1-.47-2.58-1.64-1.75-4.24-5.01-6.76-9.22-8.28-4.26-1.54-8.43-3.22-12.43-5.45-4.45-2.48-8.94-3.59-13.95-.02-4.45,3.16-8.64,6.95-14.08,8.62-2.16.66-4.24,1.6-6.34,2.45-.58.24-1.28.55-1.31,1.25-.05.88.79,1.13,1.43,1.44,1.66.78,3.34.2,5.04.1,2.92-.18,5.02-3.13,8.16-2.36,2.21.54,3.84-.64,5.55-1.66.56-.33,1.13-.6.63-1.45-.52-.87-.51-1.8.46-2.37,1.05-.62,1.87,0,2.7.64,1.5,1.15,2.52,2.95,4.42,3.54,3.4,1.07,6.41,2.98,9.63,4.44,2.52,1.15,5.18,2.81,5.65,5.54.56,3.25,2.5,3.63,4.97,4.11,7.46,1.46,14.9,3.03,22.94,4.67ZM28.29,92.04c3.54-4.39,6.75-8.37,9.96-12.35-4.12,1.26-7.99,2.95-11.88,4.59-.94.39-.93.98-.62,1.73.79,1.89,1.59,3.78,2.54,6.04ZM72.14,79.31c2.39.03,5.58-3.8,5.14-5.51-.41-1.56-1.33-2.2-2.73-.98-1.36,1.18-2.38,2.64-3.27,4.23-1.01,1.81-.13,2.24.86,2.27ZM89.36,175.35c1.46.1,2.45-.45,2.43-1.72-.03-1.61-1.36-2.64-2.72-2.25-1.34.38-3.97-.63-3.87,1.72.1,2.33,2.83,1.57,4.16,2.26ZM220.06,53.54c2.34.67,6.2-1.91,6.21-4.22.01-1.31-1.55-1.28-2.32-1.96-.54-.48-1.47-.15-1.46.56.04,2.26-1.63,3.74-2.44,5.62ZM236.1,64.55c-.52-2.76-1.33-4.5-3.98-4.64-1.33-.07-1.85.81-2.15,1.68-.42,1.2.84,1.19,1.51,1.37,1.45.39,2.94.65,4.63,1.58ZM229.24,55.61c1.5-.12,2.5-1.1,2.47-2.52-.02-1.05-1.04-3.12-1.54-2.74-1.38,1.03-2.51,2.68-3.14,4.32-.3.78,1.36.64,2.21.95ZM210.24,60.29c1.08-1.41,1.62-3.02.69-4.31-.79-1.1-2.42-1.15-4.09-.87.87,2.04,1.98,3.63,3.4,5.19ZM240.46,57.65c-.07-1.92-1.65-2.68-2.83-3.72-.21-.18-.77-.27-.93-.13-.2.18-.28.66-.21.97.47,2.07,1.53,3.41,3.97,2.89ZM74.04,63.71c-1.7.75-3.01,1.31-4.3,1.9-.58.27-.69.78-.53,1.36.15.53.62.77,1.03.59,1.62-.69,3.69-.97,3.8-3.85ZM45.09,81.77c-.15-.85-.53-1.55-1.2-1.36-1.39.39-2.64,1.14-2.95,2.75-.11.58.11,1.2.84.91,1.29-.52,2.65-1.02,3.3-2.29ZM44.45,76.39c3.65,2.37,4.24,2.1,4.55-1.97-1.49.64-2.87,1.25-4.55,1.97ZM61.24,69.1c-1.21.52-2.41,1.04-3.62,1.56-.55.24-1.35.41-.98,1.25.36.82,1.21.82,1.85.46,1.23-.7,2.3-1.63,2.75-3.27ZM213.19,50.15c2.63,2.67,3.29,2.63,4.6,0h-4.6Z"/><path class="cls-3" d="M204.4,133.25c-2.53.77-3.85.25-3.09-2.71.26-1.01-.39-1.59-1.66-1.34-10.58,2.13-18.52-2.85-25.27-10.04-5.6-5.96-9.22-13.16-10.62-21.36-.42-2.45-.65-4.88.39-7.2.95-2.1,0-4.13-.13-6.15-.46-7.47,1.41-14.57,2.87-21.75.37-1.82.33-3.59.06-5.4-.95-6.38-1.28-12.81-1.29-19.25,0-.76-.44-1.84.52-2.19.99-.36,1.37.72,1.72,1.38,3.99,7.36,10.44,12.05,17.2,16.63,6.38,4.32,11.36,10.04,14.17,17.45,2.06,5.45,4.72,10.53,8.75,14.91,3.3,3.59,5.88,7.86,8.12,12.18,2.74,5.31,3.16,11.13,1.87,16.98-.58,2.63-2.11,4.79-4.22,6.51-1.21.99-1.65,1.95-.23,3.31,1.43,1.37,2.6,3.02,3.51,4.82.61,1.2.46,2.06-.79,2.68-2.83,1.4-5.6,2.89-8.73,3.61-3.85.88-4.14.69-3.15-3.08ZM165.97,99.68c2.03,8.93,6.88,16.12,13.88,21.83,6.88,5.61,14.32,8.95,23.29,4.53,2.4-1.18,4.32.34,4.17,3.11-.1,1.76-.56,3.49-.9,5.5,3.15-.56,5.83-1.7,8.38-3.24.46-.28.75-.54.47-1.03-1.02-1.83-2.05-4.14-3.94-4.67-2.34-.65-1.5-1.47-.82-2.57.72-1.15,1.57-2.21,2.62-3.11,1.78-1.53,2.99-3.51,3.29-5.81.84-6.37.4-12.57-3.61-17.94-4.46-5.99-9.54-11.41-15.42-16.06-2.79-2.21-5.23-4.77-6.91-7.97-.23-.44-.34-1.11-1-.97-2.09,5.28-4.25,10.47-6.19,15.74-2.23,6.04-1.48,11.77,2.42,16.96,2.01,2.69,4.14,5.29,6.18,7.95.4.52,1.46.99.74,1.74-.82.86-1.49-.05-1.98-.65-2.18-2.68-4.39-5.33-6.44-8.1-4.32-5.86-4.96-12.22-2.49-19.04,2.27-6.29,5.7-12.19,6.63-18.96.08-.55.33-1.17.96-1.16.95,0,1.04.9,1.2,1.57,1.48,6.08,6.01,9.78,10.87,14.06-1-3.86-2.8-6.7-3.96-9.8-2.53-6.79-7.34-11.82-12.97-16.04-4.85-3.63-10.35-6.42-14.03-11.47-.91-1.24-1.86-2.46-3.02-4,.13,6.93,1.12,13.31,1.49,19.73.37,6.46-3.22,12.44-2.64,19.35,2.17-2.23,5.13-1.81,7.49-3.17,1.77-1.02,3.34.19,4.4,1.69,1.39,1.97,1.55,4.21.92,6.49-.47,1.7-1.19,3.6-2.91,4.03-2.6.65-5.29,1.77-8,1.03-1.73-.47-1.77-.08-1.58,1.42.37,2.9,1.31,5.65,1.96,8.47.16.72,1.04,1.63-.1,2.1-1.27.53-1.4-.69-1.69-1.51,0-1.69-.66-3.18-1.47-5.12-.24,2.1.25,3.6.73,5.1ZM171.38,82.48c-.03,2.61,1.24,4.63,2.86,4.55,1.65-.09,3.35-2.52,3.27-5.06-.06-1.91-.31-3.98-2.77-4.33-1.71-.24-3.34,2.23-3.37,4.84ZM170.3,78.85c-3.2,1.37-4.19,6.52-2.11,8.41.69.63,1.7.75,2.18.11.56-.76-.05-1.54-.95-1.74-1.06-.24-1.62-1.03-.89-1.67,1.54-1.35.87-3.16,1.78-5.11ZM205.53,129.12c-.04-.6.02-1.64-1.31-1.52-.82.08-1.7.48-1.36,1.53.25.78-.55,2.18,1.11,2.27,1.43.08,1.48-.97,1.56-2.28ZM166.69,88.46c-.05-.06-.11-.13-.16-.19-.06.06-.12.12-.18.18.08.07.17.13.25.2.03-.06.06-.12.09-.18Z"/><path class="cls-3" d="M125.3,90.93c.75-.76,1.28-.25,1.81.31,5.78,6.11,10.46,12.96,13.9,20.65.1.23.27.44.43.71.58-2.26.56-2.43-.58-5.32-.25-.63-1-1.32-.31-1.97.74-.7,1.58-.1,2.22.34,1.33.94,2.72,1.85,3.83,3.02,4.7,4.95,8.73,10.44,12.29,16.26,2.41,3.94,3.5,8.34,4.06,12.86.44,3.5-.46,6.54-3.85,8.25-1.47.74-1.51,1.58-.66,2.73,1.23,1.66,2.12,3.61,4.18,4.53,1.65.74,1.03,1.84.04,2.47-4.05,2.59-8.08,5.24-13.13,5.51-2.62.14-3.51-1.89-4.65-3.58-.45-.66-.75-1.45-1.01-2.22-.34-1.04-.87-1.15-1.82-.71-.92.42-1.15.8-.7,1.82,2.62,6.11,2.17,7.85-4.92,11.23-2.35,1.12-4.94,1.76-7.47,2.46-1.44.4-2.62.17-2.05-1.89.21-.77.22-1.62.18-2.42-.11-2.5-.72-4.13-3.91-4.51-8-.95-13.49-5.25-16.58-13-2.38-5.97-3.29-12.2-4.71-18.35-1.12-4.88-1.05-10.13-4.12-14.47-.33-.46-.39-1.07.11-1.48.53-.43,1.01-.09,1.45.25.97.75,2.21,2.47,2.94,1.89,1.12-.89-.09-2.57-.35-3.9-.83-4.12-.46-8.32-.91-12.46-.24-2.23.13-4.57-1.3-6.57-.42-.59-.47-1.25.25-1.62.76-.39,1.11.28,1.48.79.99,1.38,1.99,2.76,3.12,4.33.94-1.73.85-3.41.56-4.92-1.19-6.11-.24-12.32-1.04-18.44-.16-1.24.13-2.56-.77-3.65-.41-.5-.42-1.03.09-1.41.56-.43,1.1-.07,1.4.38,3.85,5.78,9.91,9.22,14.67,14.02,2.26,2.28,3.34,5.36,4.66,8.25.35,2.57,1.87,4.68,2.66,7.56,1.28-3.29-.83-5.33-1.51-7.69ZM129.04,96.35c-.39,2.11-.69,3.86-1.05,5.61-.12.6-.22,1.37-1.01,1.45-1.09.12-1.01-.85-1.15-1.5-.92-4.49-2.78-8.63-4.59-12.8-1.37-3.14-3.31-5.88-6.04-7.94-3.02-2.28-6.33-4.17-8.81-7.26.13,5.23-.66,10.36.24,15.47.55,3.07.61,6.11-.65,9.07-.68,1.6-1.39,2.61-3.02.32.09,7.3-.11,14.13,2.99,20.49.36.73.66,1.65-.2,2.21-.79.52-1.28-.26-1.81-.74-.56-.51-.89-1.42-2.03-1.21-.05,3.04,1.15,5.84,1.65,8.76,1.22,7.05,2.32,14.1,5.28,20.75,2.94,6.6,8.05,9.85,14.88,10.76,3.95.53,4.38.79,4.92,4.91.1.81.17,1.63.25,2.44.09.94.51,1.27,1.45.93,2.47-.89,5.05-1.45,7.31-2.88,3.44-2.18,3.98-4.03,2.14-7.73-.28-.57-.64-1.1-.97-1.64-.29-.48-.59-1.07-.13-1.5,1.45-1.35,3.33-1.97,5.19-2.12,1.58-.12,1.31,1.67,1.68,2.68,1.31,3.64,2.94,4.87,6.13,4.24,3.08-.6,5.69-2.33,8.4-3.8.55-.3.9-.73.33-1.26-1.81-1.71-2.57-4.57-4.45-5.73-3.05-1.89-.96-2.07.4-2.81,4.39-2.39,5.05-4.03,4.53-8.69-.96-8.49-5.88-14.92-10.83-21.3-1.83-2.36-3.67-4.84-6.68-7.11.58,3.31.49,5.91-.18,8.45-.21.79-.45,1.71-1.47,1.69-.96-.02-.94-.95-1.14-1.62-.89-2.96-1.67-5.95-3.35-8.61-2.53-4.01-4.63-8.33-8.22-11.98ZM102.88,116.92c-.07-.11-.13-.22-.19-.33-.05.06-.16.12-.15.16.03.12.1.22.16.33.06-.05.11-.11.18-.17Z"/><path class="cls-2" d="M125.3,90.93c.68,2.36,2.79,4.4,1.51,7.69-.79-2.88-2.32-4.99-2.66-7.56.38-.04.77-.09,1.15-.13Z"/><path class="cls-1" d="M129.04,96.35c3.59,3.65,5.69,7.97,8.22,11.98,1.68,2.65,2.46,5.65,3.35,8.61.2.67.18,1.6,1.14,1.62,1.02.02,1.26-.9,1.47-1.69.67-2.55.77-5.14.18-8.45,3.01,2.28,4.85,4.76,6.68,7.11,4.95,6.38,9.87,12.81,10.83,21.3.53,4.66-.13,6.3-4.53,8.69-1.37.74-3.46.92-.4,2.81,1.88,1.17,2.64,4.03,4.45,5.73.56.53.22.96-.33,1.26-2.71,1.47-5.32,3.2-8.4,3.8-3.19.63-4.82-.6-6.13-4.24-.36-1.01-.1-2.81-1.68-2.68-1.86.14-3.74.76-5.19,2.12-.46.43-.16,1.02.13,1.5.33.55.69,1.07.97,1.64,1.83,3.69,1.29,5.55-2.14,7.73-2.26,1.43-4.84,1.99-7.31,2.88-.94.34-1.37.01-1.45-.93-.07-.81-.14-1.63-.25-2.44-.53-4.12-.97-4.38-4.92-4.91-6.83-.92-11.94-4.17-14.88-10.76-2.96-6.65-4.07-13.7-5.28-20.75-.5-2.92-1.7-5.72-1.65-8.76,1.13-.21,1.46.7,2.03,1.21.53.48,1.02,1.26,1.81.74.86-.56.56-1.48.2-2.21-3.1-6.36-2.9-13.19-2.99-20.49,1.63,2.28,2.34,1.27,3.02-.32,1.26-2.96,1.2-6,.65-9.07-.91-5.11-.12-10.23-.24-15.47,2.49,3.09,5.8,4.99,8.81,7.26,2.72,2.06,4.67,4.8,6.04,7.94,1.81,4.17,3.67,8.31,4.59,12.8.13.66.06,1.62,1.15,1.5.79-.08.88-.85,1.01-1.45.36-1.74.66-3.5,1.05-5.61ZM142.76,135.82c-.2-2.78-1.48-5.2-2.66-7.65-1.57-3.24-1.61-3.22-4.06-.56-.37.4-.75.79-1.17,1.14-5.26,4.38-10.85,8.19-17.55,10.07-.91.25-2.28.16-1.48,1.77,1.03,2.08,1.45,4.25,1.41,6.57-.02,1.42.69,2.18,2.01.96,5.99-5.5,13.41-7.72,21.11-9.29,1.7-.35,2.6-1.18,2.38-3ZM107.89,115c.2,3.54.96,6.86,3.91,9.19,2.57,2.03,5.3,1.32,6.7-1.62,1.87-3.91.16-10.55-3.36-13.06-2.44-1.74-4.97-1.12-6.37,1.54-.65,1.24-.89,2.56-.89,3.95ZM131.98,114.06c-.28-3.71-2.45-7.19-6.56-9.25-3.44-1.72-6.83.65-6.4,4.47.49,4.27,2.53,7.72,6.45,9.76,3.62,1.88,6.54,0,6.52-4.98Z"/><path class="cls-3" d="M194.26,91.22c1.03,4.01,1.42,8.02-.1,12.01-.21.56-.16,1.47-1.04,1.26-.93-.22-.82-1.07-.56-1.79,1.8-4.84.64-9.43-1.09-14-.28-.75-1.25-1.68-.15-2.4,1.01-.67,1.68.41,2.29.96,2.49,2.24,5.15,4.32,7.16,7.05.48.65.94,1.34,1.29,2.07.31.64.66,1.51-.16,1.94-.99.52-1.15-.55-1.46-1.11-1.44-2.57-3.33-4.72-5.81-6.32-.07-.22-.13-.54-.44-.34-.09.06.03.44.06.67Z"/><path class="cls-3" d="M179.37,102.5c-.01,2.77-.96,3.58-3.59,3.26-.54-.07-1.08-.06-1.62-.07-3.09-.03-4.08-.98-3.97-3.91.01-.31.23-.77.47-.87,2.32-.96,4.64-1.97,7.03-2.71.85-.26,1,.83,1.09,1.54.12.98.79,1.84.6,2.76Z"/><path class="cls-3" d="M142.76,135.82c.22,1.82-.67,2.66-2.38,3-7.7,1.57-15.13,3.79-21.11,9.29-1.33,1.22-2.04.46-2.01-.96.04-2.33-.38-4.49-1.41-6.57-.8-1.61.57-1.51,1.48-1.77,6.69-1.88,12.29-5.68,17.55-10.07.42-.35.8-.74,1.17-1.14,2.45-2.67,2.49-2.69,4.06.56,1.18,2.44,2.46,4.87,2.66,7.65ZM140.81,135.12c-.15-.55.13-1.87-1.08-1.49-1.05.33-2.75.29-2.85,1.87-.05.78.25,2.1,1.74,1.72,1.05-.27,2.54-.09,2.18-2.1ZM136.47,133.09c.86-.82,2.73-.49,2.83-2.2.04-.8-.6-2.25-1.25-2.08-1.3.35-2.51,1.36-2.83,2.83-.12.52.23,1.38,1.26,1.45ZM135.64,137.35c-.25-.64-.29-1.55-1.11-1.27-1.33.45-2.58,1.14-3.83,1.77-.42.21-.2.6-.01.9.66,1.09,1.52.25,2.11.03.98-.36,2.38-.12,2.84-1.44ZM129.15,139.67c.02-.41-.17-.81-.54-.79-1.69.09-3.03,1.03-4.33,1.98-.26.19-.16.67.2.93.54.38,4.6-1.45,4.68-2.11ZM128.99,135.89c2.04.11,3.28-1,4.67-1.62.49-.22.51-.72.27-1.17-.21-.41-.51-.8-1.03-.4-1.24.95-2.83,1.47-3.91,3.18ZM121.9,142.04c-.79.91-2.69.76-2.87,2.58-.02.24.39.52.61.78,1.03-.98,2.6-1.31,3.28-2.65.24-.47-.31-.73-1.02-.7ZM121.78,140.06c-.11-.69-.65-.85-.99-.64-.9.54-2.57-.12-2.69,1.6-.03.42.03,1.39.73,1.12,1.12-.44,2.31-.96,2.95-2.07ZM127.94,136.65c-1.83.22-3.37,1.02-4.71,2.25,1.91,0,3.33-1.08,4.71-2.25Z"/><path class="cls-3" d="M107.89,115c0-1.39.23-2.71.89-3.95,1.4-2.66,3.93-3.28,6.37-1.54,3.52,2.51,5.23,9.15,3.36,13.06-1.41,2.94-4.13,3.65-6.7,1.62-2.95-2.33-3.72-5.66-3.91-9.19ZM117.34,119.29c0-3.28-.7-5.68-2.51-7.63-1.85-2-4.05-1.57-4.71,1.02-.89,3.54-.21,6.88,2.34,9.6,1.86,1.98,3.91,1.39,4.63-1.21.22-.78.22-1.61.24-1.77Z"/><path class="cls-3" d="M131.98,114.06c.02,4.99-2.9,6.87-6.52,4.98-3.92-2.04-5.96-5.49-6.45-9.76-.43-3.82,2.96-6.19,6.4-4.47,4.11,2.06,6.28,5.54,6.56,9.25ZM120.91,109.75c.39,3.08,2.1,5.94,5.37,7.63,2.4,1.23,4.25-.04,3.94-2.72-.41-3.5-2.12-6.32-5.3-8.01-2.45-1.31-4.05-.25-4.02,3.1Z"/><path class="cls-3" d="M115.32,117.65c-.19.85-.24,1.93-1.52,1.78-1.5-.18-1.8-1.41-1.75-2.61.04-.99.41-2.26,1.65-2.04,1.35.24,1.46,1.66,1.63,2.87Z"/><path class="cls-3" d="M123.72,111.7c-.08-.99.32-1.59,1.19-1.53,1.56.1,2.42,1.13,2.68,2.59.17.94-.37,1.73-1.32,1.61-1.5-.2-2.23-1.37-2.55-2.66Z"/></svg>