<?xml version="1.0" encoding="UTF-8"?><svg id="Calque_1" xmlns="http://www.w3.org/2000/svg" viewBox="0 0 301.3 229.86"><defs><style>.cls-1{fill:#545454;}.cls-1,.cls-2,.cls-3,.cls-4,.cls-5,.cls-6,.cls-7{stroke-width:0px;}.cls-2{fill:#83b1d0;}.cls-3{fill:#060707;}.cls-4{fill:#050605;}.cls-5{fill:#84648d;}.cls-6{fill:#969696;}.cls-7{fill:#121212;}</style></defs><path class="cls-3" d="M50,105.24c4.21-1.28,8.48-1.05,12.74-1.05,1.14,0,2.51-.36,3.15,1,.66,1.41-.26,2.4-1.18,3.33-.36.37-.69.78-1.26,1.44,3.18.53,6.14.82,8.82,2.14.57.28,1.15.54,1.7.86,4.58,2.59,4.66,4.7.29,7.65-.52.35-1.02.72-1.74,1.22,2.49,1.44,5.32,2.3,5.79,5.57.04.31.86.54,1.35.75,4.29,1.83,5.04,3.6,3.11,7.9,5.47.68,10.08,3.47,14.86,5.82,1.11.54,1.61.29,2.14-.6.56-.93,1.23-1.81,1.66-2.8,1.67-3.82,4.83-5.22,8.69-5.42,1.04-.05,1.81-.22,2.65-.94,4.2-3.59,8.31-3.11,11.7,1.28.77,1,1.22.66,2.14.05,5.38-3.54,14.75-1.72,16.39,6.31.26,1.26.75,1.65,1.97,1.61,5.23-.19,4.43.96,4.53-4.36.13-6.45.25-12.91.17-19.36-.03-2.61.97-3.72,3.48-4.15,3.3-.57,6.54-1.5,9.81-2.25,1.08-.25,1.94-.43,2.04-1.93.12-1.72,1.42-2.55,3.1-2.94,5.38-1.27,10.76-2.58,16.1-4.02,2.76-.74,5.24-.96,8.12.14,5.32,2.04,10.87,3.47,16.36,5.06,2.11.61,3.92,1.42,4.45,3.47.36.42.47.37.6.14,2.06-3.73,2.07-3.77-1.95-5.11-13.84-4.62-27.69-9.2-41.53-13.82-4.5-1.5-4.65-1.54-4.44-6.32.62-13.97,1.41-27.93,2.07-41.9.48-9.98.86-19.96,1.29-29.94.12-2.72.41-5.44.38-8.16-.02-2.18,1.62-2.71,3.01-3.4,2.01-.99,4.38-1.08,6.31-2.38.41-.27,1.24-.06,1.83.1,33.58,8.82,67.15,17.66,100.72,26.51,3.82,1.01,4.37,2.04,4.03,6.02-.68,7.87-1.19,15.74-1.78,23.62-.88,11.77-1.77,23.53-2.63,35.3-.6,8.15-1.16,16.29-1.73,24.44-.08,1.18.08,2.43-.28,3.52-.54,1.62.69,3.97-1.56,4.85-2.71,1.05-5.58,1.76-8.48.78-12.63-4.23-25.24-8.51-37.85-12.79-1.42-.48-1.9-.08-2,1.42-.32,4.46-.32,4.35,3.72,6.41,5.34,2.72,10.97,4.67,16.57,6.7,1.64.59,3.38.59,5.12.59,8.44.04,16.9-.1,25.27,1.18,7.44,1.14,13.36,4.48,15.86,12.18,2.6,8.02,5.21,15.98,5.57,24.57.51,12.26-3.34,21.92-14.23,28.49-13.16,7.95-26.93,14.11-42.25,16.33-7.02,1.02-14.06,1.21-21.16.99-7.89-.24-15.8-.26-23.69-.08-6.48.15-12.74-.98-18.58-3.51-10.9-4.72-22.2-4.84-33.67-3.84-3.43.3-6.83.8-10.26,1.15-5.44.56-10.27,2.73-14.95,5.42-7.39,4.24-14.86,8.33-22.25,12.57-7.25,4.16-15.1,6.23-23.36,6.45-8.31.22-16.71,1.07-24.93-.93-6.78-1.65-13.77-2.48-20.36-4.84-6.76-2.42-13.27-5.38-18.72-10.24-3.91-3.49-6.45-7.92-8.05-12.76C1.98,192.19-.2,183.5.01,174.35c.16-6.75,1.98-12.86,5.92-18.31.68-.94.76-1.64.31-2.69-.63-1.49-.93-3.12-1.49-4.65-2.18-5.97-.01-10.69,4.15-14.86,2.35-2.36,2.14-4.65-.72-6.49-1.15-.74-2.6-1.3-2.14-3.02.5-1.9,2.18-1.58,3.61-1.59.54,0,1.15-.06,1.61.16,2.11.99,3.54.77,3.85-1.88.02-.17.13-.39.27-.46,2.91-1.51,4.31-5,7.59-5.95,4.66-1.35,8.59-3.88,12.23-6.98.45-.38,1.13-.61,1.73-.68,4-.51,6.6-2.65,7.88-6.47.31-.94.79-1.83,1.2-2.73.48-1.05,1.09-1.94,2.46-1.63,1.38.31,1.57,1.49,1.56,2.56-.02,2.16-.4,4.31-.03,6.59ZM193.66,13.18c1.33.74,2.72,1.19,4.54.97-1.56-.99-3.09-1.12-4.55-1.48-.33.04-.65.08-.98.12.11.67.64.31.98.39ZM222.54,122.8c2.86-1.81,3.86-4.87,2.81-8.98-1.36,2.99-3.1,5.65-2.81,8.97-.08.07-.17.15-.25.22.05,0,.13.01.16-.02.05-.05.07-.13.1-.2ZM105.79,138.5c-1.49,1.38-1.69,3.62-3.19,4.94-1.52,1.34-1.4,2.72-.72,4.39,1.69-1.22,3.85-5.9,4.22-8.96,1.76-.75,3.36-1.08,4.01,1.39.34,1.3,1.04,1.12,1.64.26.57-.82,1-1.79.45-2.79-.58-1.06-1.58-1.58-2.74-1.23-1.34.41-2.89.55-3.68,2ZM210.83,136.68c.82-.81,1.64-.82,2.7-.32,2.91,1.35,6.38,1.42,9.15,1,5.68-.86,10.94-3.69,16.3-5.87.99-.4,1.27-1.28.94-2.27-.31-.94-1.14-1.12-2-1.03-.62.06-1.25.2-1.84.42-4.58,1.72-9.16,3.45-13.72,5.22-2.36.91-3.4.77-5.64-.23-5.71-2.54-11.46-4.99-17.24-7.4-1.68-.7-2.61.09-2.68,1.89-.02.63.03,1.26.04,1.89-.51.42-.95.16-.94-.34.13-3.55-1.77-2.35-3.5-1.53-.87.41-1.93.52-2.56,1.63,14.66,6.14,29.28,12.25,43.89,18.39,1,.42,1.93.3,2.92.09,6.11-1.3,12.23-2.59,18.34-3.88,5.89-1.25,11.77-2.5,17.61-3.75-.02-.38,0-.52-.03-.54-9.19-3.59-18.38-7.17-27.56-10.77-1.54-.6-1.43.56-1.48,1.38-.11,1.9-1.12,2.84-2.88,3.44-6.18,2.08-12.32,4.3-18.48,6.45-.94.33-2.04.91-2.86.2-2.48-2.14-5.68-2.7-8.5-4.07ZM14.44,128.13c-.12-.09-.31-.29-.36-.27-.3.19-.15.4.04.59.45,3.49-.63,6.21-3.29,8.72-2.51,2.35-3.54,5.62-2.81,9.19,1.79,8.67,6.81,15.25,13.34,20.93,3.79,3.3,8.55,5.27,12.22,8.6,5.77,5.23,12.69,8,19.83,10.37,7.57,2.52,15.14,2.37,22.49-1,1.93-.89,3.69-1.95,3.93-4.43.14-1.46,1.23-1.83,2.53-1.92,2.35-.16,4.7-.34,7.04-.59,2.37-.25,2.92-1.37,1.44-3.11-.77-.9-1.07-1.81-.53-2.7,1.81-2.99-.05-5.02-1.78-6.97-2.53-2.85-2.36-3.78,1.23-5.03,4.94-1.72,5.52-3.28,2.68-7.72-1.04-1.62-.67-2.71.87-3.59.79-.45,1.62-.81,2.42-1.24.63-.33,1.55-.52,1.58-1.33.04-.93-.89-1.29-1.59-1.66-5.33-2.75-10.68-5.43-16.83-5.8-1.22-.07-2.42-.38-2.79-1.75-.36-1.34.79-1.85,1.61-2.55.78-.67,2.32-1.03,1.97-2.29-.37-1.36-1.91-1.06-3.05-1.21-1.43-.19-3.12-.68-2.72-2.33.62-2.53-1.05-2.91-2.57-3.56-.91-.39-1.9-.6-2.85-.87-1.12-.32-2.02-.9-2.23-2.12-.21-1.22.74-1.76,1.57-2.31.91-.59,1.9-1.08,2.78-1.71.7-.5,2.03-.67,1.91-1.66-.13-1.04-1.42-1.26-2.32-1.61-3.97-1.58-8.07-1.89-12.28-1.16-.97.17-2.11.2-2.57-.98-.49-1.26.34-2.01,1.28-2.69,1.09-.8,2.6-1.17,3.21-2.75-2.94-.15-5.8-.49-8.23.79-2.12,1.11-3.49,1.21-4.68-1-.15-.27-.73-.63-.8-.58-1.5,1.26-3.41,1.63-5.13,2.41-.91.41-.51,1.24-.68,1.9-.2.8-.75,1.34-1.55,1.27-3.33-.28-5.85,1.39-8.46,3.12-1.56,1.03-3.42,1.67-5.23,2.22-1.47.45-2.46.89-2.26,2.73.15,1.42-.86,2.49-2.16,2.09-2.55-.79-2.59.7-2.57,2.37.04,2.55-.98,3.8-3.66,3.18ZM8.59,158c-3.14,4.9-4.89,9.85-5.06,15.34-.3,9.62,2.16,18.71,5.47,27.59,1.4,3.75,3.36,7.24,6.54,9.89,6.4,5.33,13.8,8.7,21.79,10.67,10.64,2.63,21.36,5.04,32.42,4.8,8.62-.18,17.27-.58,25.11-4.86,8.91-4.87,17.76-9.85,26.64-14.77,3.98-2.2,8.18-3.8,12.56-5.07,4.36-1.27,8.82-.66,13.22-1.16,12.19-1.4,24.21-1.04,35.79,3.98,5.6,2.42,11.61,3.25,17.83,3,7.15-.29,14.33-.23,21.47.18,7.92.45,15.75.1,23.57-1.16,12.81-2.06,24.3-7.55,35.74-13.32,11.74-5.92,16.91-15.39,15.96-28.36-.59-8.04-3.09-15.63-5.78-23.16-2.1-5.88-6.69-8.52-12.54-9.45-5.04-.8-10.14-.61-15.21-.76-.52-.02-1.24-.36-1.7.59,4.97,1.9,9.85,3.81,14.76,5.63,2.44.9,3.54,2.39,3.48,5.11-.2,9.45-.29,18.9-.21,28.35.02,2.55-.99,3.48-3.26,4.05-12.48,3.19-24.94,6.47-37.39,9.77-2.25.6-4.02.41-6.33-.67-18.24-8.52-36.64-16.68-54.97-25-1.62-.74-1.98-.41-1.91,1.33.26,6.79-1.76,12.36-8.51,15.29-.99.43-1.83,1.18-2.77,1.73-6.43,3.7-12.95,3.39-19.16-.25-6.1-3.58-8.29-9.36-7.62-16.27.41-4.24.99-8.47,1.39-12.71.12-1.23.59-2.61-.66-3.92-1.11,1.77-1.91,3.56-3.16,4.93-1.3,1.41-1.53,2.75-1.29,4.56.38,2.78-.04,5.32-2.46,7.36-4.17,3.52-9.08,4.11-13.85,1.37-.57-.33-1.07-1.29-1.85-.72-3.92,2.86-8.9,3.67-12.73,6.68-2.31,1.82-4.82,3.25-7.7,3.92-1.89.44-2.15,1.23-1.36,3.06,1.25,2.87.26,4.63-2.79,5.6-2.35.75-4.8.96-7.23,1.14-.96.07-1.6.21-2.16,1.17-1.7,2.95-4.41,4.69-7.52,5.96-7.81,3.18-15.56,2.32-23.46.18-11.65-3.16-20.51-10.97-30.13-17.52-5.29-3.6-9.49-8.36-12.98-14.1ZM269.73,38.37c.55-1.76-.84-1.92-1.95-2.2-29.15-7.52-58.31-15-87.43-22.59-2.15-.56-2.29.35-2.34,1.87-.17,4.99-.34,9.98-.56,14.97-.75,17.14-1.22,34.29-1.93,51.44-.08,2.02.49,2.79,2.37,3.39,13.22,4.18,26.41,8.47,39.6,12.73,14.84,4.79,29.68,9.55,44.5,14.37,1.8.59,2.43.42,2.51-1.75.22-5.98.73-11.95,1.18-17.92,1.34-18.09,2.7-36.18,4.05-54.3ZM234.47,166.61h.54c0-3.81-.11-7.63.05-11.43.07-1.82-.49-2.78-2.19-3.48-18.84-7.81-37.66-15.67-56.45-23.59-1.49-.63-2.15-.16-2.84.99-1.59,2.69-1.42,5.62-1.01,8.49.75,5.21,2.78,10.15,3.34,15.41.12,1.09.92,1.46,1.77,1.84,18.26,8.24,36.53,16.46,54.78,24.74,1.52.69,2.08.57,2.04-1.25-.09-3.9-.03-7.81-.03-11.71ZM238.42,166.51h-.18c0,4.08.1,8.17-.04,12.25-.07,2.05.22,2.71,2.51,2.09,11.36-3.09,22.77-6.02,34.17-8.95,1.56-.4,2.18-1.05,2.16-2.76-.1-7.8-.1-15.61,0-23.42.02-1.91-.46-2.21-2.3-1.81-11.42,2.5-22.86,4.89-34.3,7.26-1.51.31-2.09.94-2.04,2.54.12,4.26.04,8.53.04,12.8ZM172.71,161.12c1.05-3.58-.78-5.13-3.8-6.27-3.72-1.41-7.28-3.22-10.91-4.87-2.55-1.16-5.57-1.82-7.51-3.64-1.68-1.57-3.19-1.5-5.01-1.64-1.51-.12-2.09.35-2.02,1.95.18,4.28-.69,8.48-1.25,12.7-.79,5.9.22,11.22,5.55,14.57,5.33,3.35,10.9,3.35,16.45.05,4.99-2.97,9.86-5.88,8.51-12.85ZM178.2,8.69q-5.22-1.65-5.25,2.89c0,.64,0,1.27-.03,1.91-.71,13.4-1.47,26.79-2.11,40.19-.49,10.33-.63,20.68-1.34,30.99-.21,2.99.76,3.75,3.25,4.57,22.23,7.31,44.41,14.74,66.61,22.14,9.21,3.07,18.42,6.11,27.6,9.26,1.94.67,2.56.31,2.55-1.77-.01-2.35.32-4.7.46-7.05.42-7.06.78-14.12,1.23-21.17.65-10.12,1.35-20.24,2.05-30.36.51-7.41,1.07-14.82,1.55-22.23.07-1.13.59-2.47-.92-3.53-.22,1.27-.5,2.31-.58,3.37-.93,12.37-1.85,24.75-2.73,37.12-.94,13.19-1.84,26.39-2.75,39.58-.2,2.93-1.13,3.5-3.68,2.28-.65-.31-1.35-.52-2.04-.75-9.58-3.08-19.16-6.16-28.74-9.24-19.42-6.25-38.82-12.54-58.27-18.7-2.51-.8-3.49-1.96-3.29-4.64.26-3.61.46-7.25.54-10.86.2-9.07.68-18.12,1.12-27.18.52-10.87.8-21.76,1.11-32.64.06-2.12.39-3.83,3.67-4.18ZM154.51,118.95c-1.49-.08-1.09,1-1.09,1.69-.08,7.16-.1,14.32-.19,21.48-.01,1.14.32,1.81,1.4,2.29,5.14,2.26,10.24,4.59,15.36,6.89.53.24,1.22.85,1.67.26.3-.39.16-1.22.02-1.81-.72-2.99-1.63-5.94-2.23-8.96-.92-4.65-1.66-9.35,1.04-13.73.83-1.35-.22-1.51-1.02-1.85-4.08-1.72-8.17-3.44-12.26-5.16-.92-.38-1.84-.76-2.69-1.11ZM273.17,116.84c0,1.03-.08,1.77.02,2.48.12.83-.72,2.28,1,2.25,1.47-.03,1.14-1.36,1.21-2.3.24-3.43.42-6.87.68-10.31.66-8.75,1.38-17.5,2.03-26.26.45-5.96.79-11.93,1.24-17.89.76-10.11,1.56-20.21,2.38-30.31.09-1.09-.23-1.26-1.21-.98-2.03.58-2.18,2.32-2.3,3.9-.45,6.14-.8,12.29-1.15,18.44-.42,7.33-.75,14.66-1.23,21.98-.85,13.1-1.79,26.19-2.67,38.99ZM124.75,160.53c2.25.4,4.22-.78,5.86-2.65,1.61-1.83,1.17-3.15-1.11-3.65-1.5-.33-3.01-.67-4.49-1.1-1.02-.3-1.75-.97-1.67-2.18.07-1.06.74-1.61,1.67-1.91.6-.19,1.25-.26,1.85-.45.7-.23,1.89.25,1.97-.92.09-1.3-1.08-1.5-2.06-1.74-4.24-1.04-7.1.23-9.21,4.22-3.22,6.09-7.82,10.35-14.85,11.51-2.14.36-4.27.79-6.4,1.23-3.91.79-3.82.77-2.35,4.52.61,1.56,1.31,2,2.78,1.23,1.04-.54,2.2-.9,3.15-1.57,2.76-1.94,5.61-3.69,8.75-4.92,2.97-1.16,5.87-2.43,8.22-4.67.83-.79,1.5-.95,2.11.24,1.13,2.23,3.1,2.86,5.8,2.82ZM205.49,111.09c0-.22-.02-.44-.03-.66-3.24-.98-6.45-2.11-9.74-2.88-2.56-.6-4.96-2.54-7.5-2.11-5.25.9-10.4,2.43-15.59,3.71,5.25,2.79,10.49,4.95,15.75,7.06.47.19,1.12.23,1.6.07,5.18-1.7,10.34-3.45,15.51-5.19ZM178.53,4.96c4.83,1.31,9.53,2.58,14.23,3.85,13.88,3.76,27.76,7.53,41.65,11.26,13.54,3.64,27.09,7.25,40.64,10.88,1.37.37,2.58.37,3.73-1.17-7.35-1.95-14.41-3.84-21.48-5.68-10.94-2.84-21.9-5.62-32.84-8.48-14.26-3.73-28.52-7.51-42.77-11.29-1.08-.29-2.09-.63-3.15.63ZM202.57,124.92c5.9,2.32,11.42,4.5,16.96,6.63.48.18,1.1.16,1.62.04,5.29-1.19,10.25-3.33,15.91-5.22-1.77-.84-3.09-1.26-4.16-2.02-2.68-1.92-4.98-1.54-7.06.84-2.06,2.36-4.74,3.02-7.62,2.46-3.15-.6-6.64-.98-7.57-5.03-.16-.67-.47-.97-1.13-.7-2.15.88-4.55,1.19-6.95,2.99ZM209.48,116.05c.22-1.76-.31-2.32-2.13-1.68-4.52,1.6-9.06,3.16-13.66,4.5-2.4.69-3.66,1.68-3.59,4.43.04,1.64.26,2,1.73,1.44,5.33-2.02,10.64-4.06,15.98-6.04,1.31-.49,1.93-1.27,1.68-2.64ZM129,138.13c-3.39-.25-6.3-.51-8.06-3.9-.95-1.84-3.18-1.22-4.91-.39-.4.19-.82.5-.73,1.03.11.63.68.47,1.09.48,1.4.02,1.88.88,1.98,2.1.1,1.29-.2,2.4-1.62,2.75-.66.16-1.21.36-1.49,1.02-1.11,2.53-2.74,3.88-5.77,3.21-1.12-.25-1.78,1.22-2.44,2.12-.14.19-.02.83.18.96.87.55,1.47-.46,2.21-.5,4.4-.24,8.06-2.42,11.84-4.34.38-.19.92-.07,1.33-.23,2.34-.94,5-1.4,6.4-4.28ZM114.99,149.73c-4.13-.21-7.61,1.66-11.36,1.45-1.25-.07-3.07,1.61-4.72,2.32-2.47,1.06-.97,3.22-1.01,4.76-.03,1.27,1.57.47,2.41.41,6.15-.43,10.25-4.37,14.69-8.93ZM184.92,122.49c-.35.73-.4,1.38.58,1.68.47.15.8.18,1.09-.37,1.17-2.18.43-4.2-1.97-5.19-4.61-1.89-9.21-3.78-13.83-5.62-.83-.33-2.13-1.35-2.52.01-.37,1.26-1.13,3.25.86,4.04,4.19,1.68,8.01,4.8,13.08,3.18,1.51-.48,2.94.11,2.73,2.25ZM214.29,121.12c.02,1.78,1.41,3.02,3.25,3.17,1.81.14,1.06-1.33,1.27-2.1.9-3.41,1.77-6.81,3.52-9.92.45-.79,1.7-1.88-.03-2.65-1.3-.58-2.74-1.25-3.85.42-2.29,3.45-3.66,7.22-4.15,11.1ZM132.86,147.65c.65-1,1.31-1.95,1.91-2.93,1.26-2.09.73-3.82-1.22-5.12-.69-.46-1.53-1.47-2.34-.62-.56.6-.5,1.84.16,2.5,1.01,1,.84,2.09.72,3.27-.11,1-.03,1.98.78,2.9ZM164.7,119.19c0-1.42-.02-2.32,0-3.22.02-.87-.22-1.48-1.23-1.16-1.59.5-3.35.51-5.1,1.67,2.17.92,4.04,1.72,6.33,2.7ZM132.85,135.44c3.51,1.2,5.17,3.33,6.49,6.66.42-4.08-2.09-6.6-6.49-6.66ZM185.33,10.45c1.17,1.23,2.71,1.72,4.51,1.21-1.5-.4-3.01-.81-4.51-1.21ZM183.34,10.09c-.13.08-.34.13-.37.23-.03.11.09.27.15.41.17-.1.33-.21.5-.31-.09-.11-.18-.22-.28-.33ZM181.48,10.03c-.06-.15-.08-.35-.18-.41-.09-.05-.28.05-.42.08.07.18.14.36.21.54.13-.07.26-.14.39-.21ZM202.22,14.87c-.43-.03-.76-.08-1.09-.06-.07,0-.13.22-.2.34.33.07.65.15.99.19.06,0,.14-.21.31-.46ZM215.15,18.39c-.14.08-.32.12-.39.23-.05.08.05.26.09.39.14-.06.34-.09.4-.2.05-.09-.06-.27-.09-.42ZM199.49,14.96c.23-.2.38-.34.53-.48-.22-.09-.45-.26-.67-.26-.22,0-.44.17-.67.26.26.15.52.3.81.47ZM192.21,12.26c-.64-.12-.97-.22-1.3-.22-.17,0-.59.08-.3.42.14.16.47.22.72.21.2,0,.4-.17.89-.41ZM210.39,17.74c.01.06,0,.14.04.17.05.04.13.03.2.04-.02-.09-.04-.19-.05-.28-.06.02-.12.05-.19.07ZM132.94,135.15c-.02-.06-.02-.15-.06-.17-.08-.03-.17-.05-.25-.02-.25.07-.23.16.06.24.07.02.16-.03.25-.05ZM245.06,26.6c-.01-.06,0-.15-.04-.17-.05-.04-.14-.03-.21-.05.02.1.04.2.06.29.06-.03.13-.05.19-.08ZM251.07,28.19c-.03-.06-.05-.14-.1-.16-.06-.02-.14.01-.2.02.04.08.09.17.13.25.06-.04.11-.08.17-.11ZM249.4,27.55l-.19-.07-.03.29c.07-.01.15-.01.2-.05.03-.02.02-.11.02-.17ZM247.25,27.1c-.03-.06-.05-.15-.1-.17-.06-.02-.14.01-.21.02.05.09.09.17.14.26.06-.04.11-.08.17-.12Z"/><path class="cls-2" d="M269.73,38.37c-1.35,18.11-2.71,36.2-4.05,54.3-.44,5.97-.96,11.94-1.18,17.92-.08,2.18-.71,2.34-2.51,1.75-14.82-4.82-29.67-9.59-44.5-14.37-13.2-4.26-26.38-8.55-39.6-12.73-1.88-.59-2.45-1.36-2.37-3.39.71-17.14,1.18-34.3,1.93-51.44.22-4.99.39-9.98.56-14.97.05-1.52.19-2.44,2.34-1.87,29.13,7.6,58.28,15.07,87.43,22.59,1.11.29,2.5.44,1.95,2.2Z"/><path class="cls-5" d="M14.44,128.13c2.68.62,3.69-.63,3.66-3.18-.02-1.67.02-3.16,2.57-2.37,1.3.4,2.31-.67,2.16-2.09-.2-1.83.79-2.28,2.26-2.73,1.81-.55,3.67-1.19,5.23-2.22,2.61-1.73,5.13-3.4,8.46-3.12.8.07,1.35-.47,1.55-1.27.16-.65-.24-1.49.68-1.9,1.72-.77,3.63-1.14,5.13-2.41.07-.06.65.3.8.58,1.19,2.21,2.56,2.11,4.68,1,2.43-1.27,5.3-.94,8.23-.79-.61,1.58-2.11,1.95-3.21,2.75-.94.69-1.76,1.43-1.28,2.69.46,1.18,1.59,1.15,2.57.98,4.21-.73,8.31-.43,12.28,1.16.89.36,2.19.57,2.32,1.61.12.99-1.21,1.16-1.91,1.66-.88.63-1.87,1.12-2.78,1.71-.83.54-1.78,1.08-1.57,2.31.21,1.22,1.12,1.8,2.23,2.12.96.28,1.94.49,2.85.87,1.53.65,3.19,1.02,2.57,3.56-.4,1.65,1.29,2.14,2.72,2.33,1.14.15,2.67-.16,3.05,1.21.34,1.26-1.2,1.62-1.97,2.29-.82.7-1.97,1.21-1.61,2.55.36,1.37,1.57,1.68,2.79,1.75,6.15.37,11.51,3.05,16.83,5.8.7.36,1.63.73,1.59,1.66-.03.81-.95,1-1.58,1.33-.8.42-1.64.79-2.42,1.24-1.53.88-1.9,1.97-.87,3.59,2.84,4.44,2.27,5.99-2.68,7.72-3.6,1.25-3.76,2.19-1.23,5.03,1.73,1.95,3.59,3.98,1.78,6.97-.54.89-.24,1.8.53,2.7,1.49,1.74.93,2.86-1.44,3.11-2.34.25-4.69.43-7.04.59-1.3.09-2.39.46-2.53,1.92-.24,2.47-2,3.54-3.93,4.43-7.36,3.37-14.92,3.52-22.49,1-7.15-2.37-14.06-5.14-19.83-10.37-3.67-3.33-8.42-5.3-12.22-8.6-6.53-5.68-11.55-12.26-13.34-20.93-.74-3.57.3-6.84,2.81-9.19,2.66-2.5,3.74-5.22,3.29-8.72.11-.11.21-.21.32-.32ZM47.01,146.79c.02-.45.12-.91.05-1.33-.23-1.28-.89-2.18-2.34-2.02-.94.1-1.5.77-1.29,1.68.29,1.33,1.04,2.3,2.63,2.01.34-.06.66-.25.99-.38-.18,1.12.32,2.26-.31,3.4-.61,1.09-.42,2.26,1.03,2.43,1.23.15,1.98-.65,2-1.97,0-.44-.14-.95.03-1.3.47-.93.92-1.8-.02-2.67-.95-.88-1.84.03-2.76.14ZM45.31,152.11c-.03-1.51-1.73-1.94-2.08-3.34-.45-1.79-3.26-2.72-4.68-1.64-1.09.83-1.16,2.25.06,2.58,1.7.46,2.32,1.54,3.09,2.83.5.84,1.41,1.44,2.54,1,.63-.25,1.01-.73,1.08-1.43ZM22.8,143.63c-2.06.42-4.19.86-5.98,2.21-.8.6-1.18,1.44-.66,2.38.56,1.02,1.44.82,2.36.45,1.59-.64,3.2-1.24,4.83-1.76,1.03-.33,1.56-.92,1.36-1.99-.19-.96-.95-1.24-1.91-1.29ZM24.12,134.17c-1.64-.01-3.19.44-4.68,1.08-1.03.44-1.62,1.24-1.24,2.36.42,1.26,1.42,1.09,2.45.8,1.2-.34,2.41-.68,3.64-.87,1.2-.19,2.54-.27,2.47-1.83-.07-1.63-1.47-1.51-2.65-1.53ZM63.31,122.76c-.12-1.08-.83-1.9-1.97-1.46-2.08.8-3.8,2.22-4.38,4.49-.33,1.31.44,2.07,1.85,1.93.65-.06,4.44-4.22,4.49-4.97ZM62.31,170.07c-.35-1.34-.57-2.94-.61-4.58-.02-.9-.66-1.53-1.59-1.53-.93,0-1.53.63-1.64,1.51-.22,1.91-.05,3.81.69,5.6.37.89,1.06,1.55,2.13,1.22.94-.29,1.1-1.1,1.02-2.22ZM69.14,182.8c.22-.08.54-.09.72-.26,1.62-1.51,2.77-3.43,3.2-5.5.28-1.36-1.14-2.18-2.39-1.29-1.74,1.23-2.44,3.32-3.1,5.25-.32.93.45,1.67,1.57,1.81ZM50.98,174.56c-1.28.17-2.75,1-4.09,2.07-.7.55-.98,1.28-.46,2.13.52.85,1.28.91,2.11.57,1.24-.5,2.45-1.08,3.7-1.55.97-.36,1.54-.93,1.32-2-.24-1.14-1.15-1.23-2.57-1.22ZM41.88,157.76c-.89.28-2.3.63-3.62,1.18-.78.33-1.25,1.09-.92,2.02.32.9,1.06,1.22,1.95,1.04,1.24-.26,2.45-.63,3.68-.9.99-.22,1.77-.66,1.61-1.79-.17-1.19-1.07-1.57-2.71-1.55ZM79.09,151.04c1.37.18,2.24-.05,2.52-1.12.29-1.09-.42-1.67-1.33-2.03-1.17-.47-2.34-.95-3.53-1.38-.89-.33-1.61-.02-2.08.78-.51.87-.14,1.59.55,2.14,1.23,1,2.74,1.34,3.87,1.62ZM32.9,156.71s0-.05,0-.08c.72,0,1.45,0,2.17,0,1.11.02,2.07-.29,2.08-1.58.01-1.24-.9-1.72-2.01-1.74-1.18-.02-2.36-.01-3.53.13-1.16.15-2.58.36-2.4,1.96.16,1.46,1.52,1.27,2.59,1.3.36,0,.73,0,1.09,0ZM63.24,132.54c1.37-.32,2.89-.65,4.17-1.57.54-.38.93-.91.73-1.62-.22-.82-.83-1.12-1.64-1.14-1.5-.02-2.78.75-4.19,1.08-1.03.24-1.61.94-1.34,1.99.26,1.04,1.14,1.32,2.27,1.26ZM47.69,167.57c1.84-.31,2.74-1.95,4.11-2.91.74-.52.97-1.35.46-2.15-.5-.78-1.32-.9-2.15-.55-1.63.68-2.87,1.9-3.74,3.37-.73,1.24-.07,2.03,1.32,2.24ZM28.37,165.88c.89-.33,2.17-.72,3.39-1.28.68-.31,1.04-1.01.81-1.81-.25-.89-.92-1.44-1.8-1.26-1.22.25-2.39.71-3.57,1.11-.95.32-1.59.93-1.32,2.01.26,1.05,1.1,1.33,2.5,1.24ZM27.74,148.36c-.17.01-.54-.01-.89.06-1.38.3-3.3.33-3,2.3.28,1.85,1.95,1.42,3.31,1.09.35-.08.72-.1,1.08-.11,1.26-.02,2.54-.21,2.41-1.82-.13-1.58-1.51-1.53-2.9-1.53ZM30.68,121.35c-1.2-.09-2.33.22-2.13,1.48.41,2.61,2.85,1.99,4.55,2.43,1.13.29,2.12-.24,1.98-1.51-.31-2.85-2.93-1.66-4.4-2.39ZM17.86,151.12c-1.43.56-3.58.49-3.98,2.76-.18,1.05.84,1.86,1.75,1.48,1.61-.67,4.16-.09,4.51-2.65.16-1.2-.95-1.6-2.29-1.59ZM23.95,130.87c.24.02.6.05.96.08,1.11.11,2.37.26,2.45-1.3.07-1.29-.92-1.92-2.12-2.01-.99-.08-1.99-.02-2.98.02-1.25.04-2.19.53-2.03,1.94.14,1.3,1.16,1.45,2.24,1.37.45-.03.9-.05,1.48-.09ZM44.48,116.45c-.81.14-1.28.6-1.36,1.44-.1.98,2.29,4.5,3.26,4.75.84.22,1.41-.14,1.75-.89.69-1.54-2-5.44-3.65-5.31ZM58.42,181.71c1.37-.88,3.63-.92,4.15-3.09.24-.99-.68-1.59-1.7-1.65-1.43-.07-4.37,2-4.37,3.1,0,1.11.68,1.58,1.93,1.63ZM20.77,161.58c1.35-.93,4.01-.17,4.45-2.84.17-1.07-.7-1.55-1.75-1.57-1.78-.04-4.75,1.76-4.75,2.92s.82,1.47,2.06,1.49ZM77.71,156.27c-.17.07-.56.12-.8.35-1.04.98-.79,2.12-.18,3.18.69,1.21,1.26,2.7,3.07,2.5.36-.04.78-.46.98-.81.6-1.11-1.66-5.13-3.06-5.22ZM77.13,168.41c0,.25,0-.11,0-.47-.02-.91.04-1.88-1.18-2.09-1.29-.21-1.82.63-1.99,1.68-.19,1.15-.25,2.32-.28,3.48-.02.78.31,1.41,1.2,1.5.78.09,1.41-.16,1.81-.87.46-.83.36-1.74.43-3.24ZM42.1,133.8c.2,1.23-.05,3.22,2.18,3.69,1.06.22,1.9-.62,1.6-1.61-.49-1.66.25-4.16-2.34-4.59-1.2-.2-1.55.98-1.44,2.5ZM56.47,137.43c-1.1.25-3.13-.6-3.11,1.66.02,1.86,1.77,1.69,3.1,1.67,1.27-.02,3.02.46,3.12-1.55.1-2.05-1.64-1.67-3.11-1.78ZM53.37,129.32c-.1-1.15-.62-1.66-1.59-1.71-1.38-.07-3.18,1.94-3.16,3.53,0,1.04.44,1.97,1.55,1.72,1.88-.42,2.31-2.31,3.2-3.54ZM43.18,170.44c-.15-.94-.71-1.4-1.66-1.4-1.23,0-3.32,2.55-3.2,3.87.09.97.71,1.43,1.61,1.47.99.04,3.31-2.83,3.25-3.94ZM69.33,135.9c-1.16-.03-2.61-.28-2.65,1.43-.05,1.95,1.54,1.9,2.91,1.9,1.27,0,2.86.08,2.83-1.66-.04-1.94-1.78-1.6-3.09-1.67ZM35.86,167.44c-.06-.98-.59-1.68-1.69-1.59-1.77.15-3.07,1.1-3.56,2.83-.26.91.26,1.56,1.28,1.68,1.19.13,3.87-1.77,3.97-2.92ZM50.24,117.91c.29,1.34.39,3.1,2.51,3.36.96.11,1.66-.57,1.46-1.48-.36-1.6-.45-3.61-2.55-3.98-1.1-.19-1.41.87-1.41,2.1ZM37.66,137.81c1.04-.2,1.93-.81,1.57-1.8-.51-1.4-1.32-2.84-3.14-2.91-.98-.04-1.54.69-1.37,1.61.3,1.63,1.25,2.75,2.94,3.1ZM59.6,150.07c1.28.14,2.41.01,2.43-1.3.03-1.59-1.42-1.97-2.63-2.32-1.01-.3-1.9.13-2,1.24-.14,1.63,1.06,2.13,2.19,2.37ZM34.4,141.71c.08,1.25.41,2.51,1.96,2.69,1.11.13,1.64-.75,1.52-1.75-.15-1.32-.34-2.83-2.13-2.92-1.23-.06-1.33.95-1.35,1.99ZM61.56,155.61c-1.12.18-1.56.89-1.49,1.9.1,1.42.77,2.4,2.31,2.37.95-.02,1.53-.68,1.35-1.6-.25-1.23-.7-2.42-2.17-2.67Z"/><path class="cls-6" d="M234.47,166.61c0,3.91-.06,7.81.03,11.71.04,1.82-.52,1.94-2.04,1.25-18.25-8.27-36.51-16.5-54.78-24.74-.84-.38-1.65-.76-1.77-1.84-.56-5.26-2.59-10.2-3.34-15.41-.41-2.87-.58-5.8,1.01-8.49.68-1.15,1.34-1.62,2.84-.99,18.79,7.92,37.61,15.78,56.45,23.59,1.7.7,2.26,1.66,2.19,3.48-.15,3.81-.05,7.62-.05,11.43h-.54Z"/><path class="cls-6" d="M238.42,166.51c0-4.27.08-8.53-.04-12.8-.04-1.61.54-2.23,2.04-2.54,11.44-2.37,22.89-4.76,34.3-7.26,1.84-.4,2.32-.09,2.3,1.81-.09,7.8-.09,15.61,0,23.42.02,1.71-.6,2.36-2.16,2.76-11.41,2.92-22.81,5.86-34.17,8.95-2.29.62-2.58-.04-2.51-2.09.14-4.08.04-8.17.04-12.25h.18Z"/><path class="cls-6" d="M210.83,136.68c2.82,1.37,6.02,1.93,8.5,4.07.83.71,1.92.13,2.86-.2,6.16-2.15,12.3-4.37,18.48-6.45,1.76-.6,2.77-1.54,2.88-3.44.05-.82-.07-1.99,1.48-1.38,9.18,3.6,18.38,7.17,27.56,10.77.03.01.01.15.03.54-5.84,1.24-11.72,2.5-17.61,3.75-6.11,1.3-12.23,2.58-18.34,3.88-.99.21-1.92.32-2.92-.09-14.61-6.14-29.23-12.25-43.89-18.39.63-1.1,1.69-1.22,2.56-1.63,1.74-.81,3.63-2.02,3.5,1.53-.02.5.43.76.94.34,0,0,.02-.07.02-.07-.82,1.43.6,1.35,1.19,1.6,3.03,1.31,6.1,2.51,9.15,3.75.25.09.49.18.74.26.68.22,1.35.44,2.03.66.28.16.56.32.84.49Z"/><path class="cls-1" d="M178.2,8.69c-3.28.35-3.61,2.06-3.67,4.18-.3,10.88-.59,21.77-1.11,32.64-.43,9.06-.92,18.11-1.12,27.18-.08,3.62-.28,7.25-.54,10.86-.19,2.68.78,3.85,3.29,4.64,19.45,6.16,38.85,12.45,58.27,18.7,9.58,3.08,19.16,6.16,28.74,9.24.69.22,1.39.43,2.04.75,2.55,1.22,3.48.65,3.68-2.28.91-13.19,1.81-26.39,2.75-39.58.88-12.38,1.8-24.75,2.73-37.12.08-1.06.36-2.11.58-3.37,1.51,1.06.99,2.4.92,3.53-.48,7.41-1.04,14.82-1.55,22.23-.7,10.12-1.4,20.24-2.05,30.36-.45,7.06-.81,14.12-1.23,21.17-.14,2.35-.47,4.7-.46,7.05,0,2.08-.61,2.44-2.55,1.77-9.18-3.15-18.4-6.19-27.6-9.26-22.2-7.4-44.38-14.84-66.61-22.14-2.48-.82-3.45-1.58-3.25-4.57.72-10.31.85-20.66,1.34-30.99.64-13.4,1.4-26.79,2.11-40.19.03-.63.03-1.27.03-1.91q.03-4.54,5.25-2.89Z"/><path class="cls-6" d="M154.51,118.95c.86.35,1.78.72,2.69,1.11,4.09,1.72,8.18,3.43,12.26,5.16.81.34,1.85.5,1.02,1.85-2.7,4.38-1.96,9.08-1.04,13.73.59,3.02,1.51,5.97,2.23,8.96.14.59.28,1.42-.02,1.81-.45.59-1.13-.02-1.67-.26-5.12-2.29-10.22-4.63-15.36-6.89-1.09-.48-1.42-1.15-1.4-2.29.09-7.16.11-14.32.19-21.48,0-.69-.39-1.78,1.09-1.69Z"/><path class="cls-1" d="M273.17,116.84c.88-12.79,1.81-25.89,2.67-38.99.48-7.32.81-14.66,1.23-21.98.35-6.15.7-12.3,1.15-18.44.12-1.58.27-3.32,2.3-3.9.98-.28,1.3-.11,1.21.98-.82,10.1-1.61,20.21-2.38,30.31-.45,5.96-.8,11.93-1.24,17.89-.65,8.75-1.37,17.5-2.03,26.26-.26,3.43-.45,6.87-.68,10.31-.07.94.26,2.27-1.21,2.3-1.72.03-.88-1.42-1-2.25-.1-.71-.02-1.45-.02-2.48Z"/><path class="cls-5" d="M124.75,160.53c-2.69.04-4.67-.59-5.8-2.82-.6-1.19-1.28-1.03-2.11-.24-2.35,2.24-5.25,3.51-8.22,4.67-3.14,1.23-5.99,2.99-8.75,4.92-.95.67-2.11,1.02-3.15,1.57-1.47.77-2.17.33-2.78-1.23-1.47-3.76-1.56-3.73,2.35-4.52,2.13-.43,4.26-.87,6.4-1.23,7.03-1.17,11.63-5.43,14.85-11.51,2.11-3.99,4.98-5.26,9.21-4.22.98.24,2.15.44,2.06,1.74-.08,1.17-1.27.69-1.97.92-.6.2-1.24.26-1.85.45-.92.29-1.6.85-1.67,1.91-.07,1.21.65,1.88,1.67,2.18,1.48.44,2.98.77,4.49,1.1,2.28.51,2.72,1.83,1.11,3.65-1.64,1.87-3.61,3.04-5.86,2.65Z"/><path class="cls-1" d="M205.49,111.09c-5.17,1.74-10.33,3.49-15.51,5.19-.48.16-1.13.12-1.6-.07-5.26-2.11-10.5-4.27-15.75-7.06,5.19-1.27,10.34-2.81,15.59-3.71,2.54-.43,4.94,1.5,7.5,2.11,3.29.78,6.5,1.91,9.74,2.88,0,.22.02.44.03.66Z"/><path class="cls-1" d="M178.53,4.96c1.07-1.26,2.07-.92,3.15-.63,14.25,3.78,28.5,7.56,42.77,11.29,10.94,2.86,21.9,5.64,32.84,8.48,7.07,1.84,14.13,3.73,21.48,5.68-1.15,1.54-2.36,1.54-3.73,1.17-13.54-3.63-27.1-7.24-40.64-10.88-13.89-3.74-27.77-7.51-41.65-11.26-4.7-1.27-9.39-2.54-14.23-3.85Z"/><path class="cls-1" d="M210.83,136.68c-.28-.16-.56-.32-.84-.49.39-1.29-.58-1.4-1.42-1.62-3.87-1.61-7.3-4.35-11.69-4.66,0,0-.02.07-.02.07-.02-.63-.06-1.26-.04-1.89.06-1.79,1-2.59,2.68-1.89,5.77,2.41,11.52,4.86,17.24,7.4,2.24,1,3.28,1.14,5.64.23,4.56-1.76,9.14-3.5,13.72-5.22.58-.22,1.22-.36,1.84-.42.86-.09,1.68.09,2,1.03.33.98.05,1.87-.94,2.27-5.37,2.18-10.62,5.02-16.3,5.87-2.76.42-6.23.35-9.15-1-1.06-.49-1.88-.49-2.7.32Z"/><path class="cls-1" d="M202.57,124.92c2.41-1.8,4.8-2.1,6.95-2.99.66-.27.97.03,1.13.7.93,4.04,4.42,4.42,7.57,5.03,2.88.55,5.56-.1,7.62-2.46,2.08-2.38,4.38-2.76,7.06-.84,1.07.77,2.39,1.18,4.16,2.02-5.66,1.89-10.62,4.03-15.91,5.22-.51.12-1.14.14-1.62-.04-5.54-2.13-11.06-4.32-16.96-6.63Z"/><path class="cls-1" d="M209.48,116.05c.25,1.37-.36,2.16-1.68,2.64-5.34,1.98-10.66,4.02-15.98,6.04-1.47.56-1.69.19-1.73-1.44-.07-2.75,1.2-3.73,3.59-4.43,4.6-1.33,9.14-2.9,13.66-4.5,1.82-.64,2.35-.08,2.13,1.68Z"/><path class="cls-1" d="M129,138.13c-1.4,2.89-4.06,3.35-6.4,4.28-.41.16-.94.04-1.33.23-3.77,1.92-7.44,4.1-11.84,4.34-.74.04-1.35,1.06-2.21.5-.2-.13-.32-.77-.18-.96.65-.9,1.32-2.36,2.44-2.12,3.03.67,4.66-.68,5.77-3.21.29-.65.83-.85,1.49-1.02,1.42-.35,1.72-1.45,1.62-2.75-.1-1.23-.57-2.09-1.98-2.1-.41,0-.98.15-1.09-.48-.09-.53.33-.83.73-1.03,1.73-.83,3.96-1.44,4.91.39,1.76,3.4,4.67,3.66,8.06,3.9ZM122.7,140.44c-.18-.84-.68-1.6-1.69-1.71-1.05-.12-1.79.52-1.82,1.54-.03,1.01.64,1.63,1.74,1.63.92,0,1.56-.35,1.77-1.45Z"/><path class="cls-1" d="M184.92,122.49c.22-2.14-1.22-2.73-2.73-2.25-5.07,1.61-8.89-1.5-13.08-3.18-1.98-.8-1.22-2.78-.86-4.04.4-1.36,1.69-.34,2.52-.01,4.62,1.84,9.23,3.73,13.83,5.62,2.4.98,3.15,3.01,1.97,5.19-.29.54-.62.51-1.09.37-.98-.31-.92-.95-.58-1.68Z"/><path class="cls-1" d="M214.29,121.12c.49-3.87,1.87-7.65,4.15-11.1,1.11-1.67,2.54-1,3.85-.42,1.73.77.48,1.86.03,2.65-1.75,3.11-2.61,6.52-3.52,9.92-.21.77.54,2.24-1.27,2.1-1.83-.14-3.22-1.39-3.25-3.17Z"/><path class="cls-1" d="M132.86,147.65c-.81-.92-.88-1.9-.78-2.9.13-1.18.29-2.27-.72-3.27-.66-.66-.72-1.9-.16-2.5.8-.85,1.65.16,2.34.62,1.95,1.3,2.48,3.03,1.22,5.12-.6.99-1.25,1.94-1.91,2.93Z"/><path class="cls-6" d="M164.7,119.19c-2.29-.98-4.16-1.78-6.33-2.7,1.75-1.17,3.51-1.17,5.1-1.67,1.02-.32,1.25.29,1.23,1.16-.02.9,0,1.8,0,3.22Z"/><path class="cls-5" d="M106.11,138.88c-.38,3.06-2.53,7.74-4.22,8.96-.68-1.67-.81-3.05.72-4.39,1.5-1.32,1.69-3.56,3.19-4.94.11.12.22.25.32.38Z"/><path class="cls-1" d="M222.54,122.79c-.28-3.32,1.45-5.98,2.81-8.97,1.06,4.11.05,7.17-2.81,8.98h0Z"/><path class="cls-5" d="M105.79,138.5c.8-1.45,2.35-1.58,3.68-2,1.16-.36,2.16.16,2.74,1.23.55,1,.11,1.98-.45,2.79-.6.86-1.3,1.04-1.64-.26-.65-2.47-2.25-2.14-4.01-1.39-.1-.13-.21-.25-.32-.38Z"/><path class="cls-6" d="M185.33,10.45c1.5.4,3.01.81,4.51,1.21-1.8.5-3.34.02-4.51-1.21Z"/><path class="cls-5" d="M193.65,12.67c1.46.37,2.99.5,4.55,1.48-1.82.22-3.22-.23-4.54-.97,0-.17,0-.34,0-.51Z"/><path class="cls-7" d="M183.34,10.09c.1.12.19.23.28.33-.17.1-.33.21-.5.31-.06-.14-.18-.3-.15-.41.03-.1.23-.15.37-.23Z"/><path class="cls-7" d="M181.48,10.03c-.13.07-.26.14-.39.21-.07-.18-.14-.36-.21-.54.14-.03.33-.13.42-.08.1.06.12.26.18.41Z"/><path class="cls-5" d="M202.22,14.87c-.17.26-.25.47-.31.46-.33-.03-.66-.12-.99-.19.07-.12.13-.34.2-.34.33-.02.66.03,1.09.06Z"/><path class="cls-7" d="M215.15,18.39c.04.15.15.33.09.42-.06.11-.26.14-.4.2-.04-.13-.14-.31-.09-.39.07-.11.25-.16.39-.23Z"/><path class="cls-5" d="M199.49,14.96c-.29-.17-.55-.32-.81-.47.22-.09.44-.26.67-.26.22,0,.45.17.67.26-.15.14-.3.27-.53.48Z"/><path class="cls-6" d="M192.21,12.26c-.49.23-.68.4-.89.41-.24,0-.58-.05-.72-.21-.28-.33.13-.42.3-.42.33,0,.66.1,1.3.22Z"/><path class="cls-6" d="M193.65,12.67c.01.17.01.34,0,.51-.35-.08-.87.28-.98-.39.33-.04.65-.08.98-.12Z"/><path class="cls-7" d="M210.39,17.74c.06-.02.12-.05.19-.07.02.09.04.19.05.28-.07-.01-.15,0-.2-.04-.04-.03-.03-.11-.04-.17Z"/><path class="cls-7" d="M245.06,26.6c-.06.03-.13.05-.19.08-.02-.1-.04-.2-.06-.29.07.01.15,0,.21.05.04.03.03.11.04.17Z"/><path class="cls-7" d="M251.07,28.19c-.06.04-.11.08-.17.11-.04-.08-.09-.17-.13-.25.07,0,.15-.04.2-.02.05.02.07.11.1.16Z"/><path class="cls-7" d="M249.4,27.55c0,.06,0,.14-.02.17-.05.04-.13.03-.2.05l.03-.29.19.07Z"/><path class="cls-7" d="M247.25,27.1c-.06.04-.11.08-.17.12-.05-.09-.09-.17-.14-.26.07,0,.15-.05.21-.02.05.02.07.11.1.17Z"/><path class="cls-5" d="M14.12,128.45c-.19-.19-.34-.39-.04-.59.04-.03.23.17.36.27-.1.11-.21.22-.32.32Z"/><path class="cls-1" d="M222.54,122.8c-.03.07-.05.15-.1.2-.03.03-.1.01-.16.02.08-.07.17-.15.25-.22,0,0,0,0,0,0Z"/><path class="cls-3" d="M45.31,152.12c-.07.69-.45,1.18-1.08,1.42-1.13.44-2.04-.16-2.54-1-.77-1.29-1.39-2.37-3.09-2.83-1.22-.33-1.15-1.75-.06-2.58,1.42-1.08,4.24-.15,4.68,1.64.35,1.4,2.05,1.83,2.08,3.34Z"/><path class="cls-3" d="M22.8,143.63c.96.05,1.72.33,1.91,1.29.21,1.07-.32,1.66-1.36,1.99-1.63.52-3.24,1.13-4.83,1.76-.92.37-1.8.57-2.36-.45-.52-.94-.14-1.78.66-2.38,1.79-1.35,3.92-1.79,5.98-2.21Z"/><path class="cls-3" d="M24.13,134.18c1.18.02,2.58-.1,2.65,1.53.07,1.57-1.27,1.65-2.47,1.83-1.23.19-2.44.53-3.64.87-1.03.29-2.03.46-2.45-.8-.37-1.12.21-1.91,1.24-2.36,1.49-.64,3.03-1.09,4.68-1.07Z"/><path class="cls-3" d="M63.31,122.76c-.05.75-3.84,4.9-4.49,4.97-1.41.14-2.19-.63-1.85-1.93.58-2.27,2.3-3.69,4.38-4.49,1.14-.44,1.84.38,1.97,1.46Z"/><path class="cls-3" d="M62.31,170.07c.08,1.13-.08,1.94-1.02,2.22-1.07.33-1.76-.33-2.13-1.22-.74-1.79-.91-3.69-.69-5.6.1-.89.7-1.52,1.64-1.51.94,0,1.57.63,1.59,1.53.04,1.64.26,3.24.61,4.58Z"/><path class="cls-3" d="M69.14,182.8c-1.12-.13-1.89-.87-1.57-1.81.67-1.94,1.36-4.02,3.1-5.25,1.25-.88,2.66-.07,2.39,1.29-.42,2.07-1.58,3.99-3.2,5.5-.18.17-.5.18-.72.26Z"/><path class="cls-3" d="M50.98,174.56c1.42-.01,2.33.08,2.57,1.22.22,1.08-.35,1.64-1.32,2-1.25.47-2.46,1.05-3.7,1.55-.83.33-1.59.28-2.11-.57-.52-.85-.23-1.58.46-2.13,1.35-1.07,2.81-1.9,4.09-2.07Z"/><path class="cls-3" d="M41.88,157.76c1.64-.03,2.54.36,2.71,1.55.16,1.12-.62,1.57-1.61,1.79-1.23.27-2.45.65-3.68.9-.89.19-1.63-.13-1.95-1.04-.33-.93.14-1.69.92-2.02,1.32-.55,2.73-.9,3.62-1.18Z"/><path class="cls-3" d="M79.09,151.04c-1.13-.28-2.64-.62-3.87-1.62-.69-.55-1.06-1.27-.55-2.14.47-.8,1.19-1.11,2.08-.78,1.19.44,2.35.91,3.53,1.38.91.37,1.62.94,1.33,2.03-.28,1.07-1.15,1.3-2.52,1.12Z"/><path class="cls-3" d="M32.9,156.71c-.36,0-.73,0-1.09,0-1.08-.03-2.43.16-2.59-1.3-.18-1.6,1.24-1.82,2.4-1.96,1.16-.15,2.35-.16,3.53-.13,1.1.02,2.02.5,2.01,1.74-.01,1.29-.97,1.6-2.08,1.58-.72-.01-1.45,0-2.17,0,0,.03,0,.05,0,.08Z"/><path class="cls-3" d="M63.24,132.54c-1.13.06-2.01-.22-2.27-1.26-.26-1.05.31-1.75,1.34-1.99,1.41-.33,2.69-1.1,4.19-1.08.81.01,1.42.32,1.64,1.14.2.72-.2,1.24-.73,1.62-1.28.92-2.8,1.25-4.17,1.57Z"/><path class="cls-3" d="M47.69,167.57c-1.39-.21-2.05-1-1.32-2.24.87-1.47,2.1-2.69,3.74-3.37.83-.35,1.65-.23,2.15.55.52.8.28,1.63-.46,2.15-1.37.96-2.28,2.61-4.11,2.91Z"/><path class="cls-3" d="M28.37,165.88c-1.4.09-2.24-.19-2.5-1.24-.26-1.07.37-1.69,1.32-2.01,1.18-.4,2.36-.86,3.57-1.11.88-.18,1.55.36,1.8,1.26.22.8-.13,1.5-.81,1.81-1.21.56-2.5.95-3.39,1.28Z"/><path class="cls-3" d="M27.74,148.36c1.39,0,2.76-.05,2.9,1.53.14,1.61-1.14,1.81-2.41,1.82-.36,0-.73.03-1.08.11-1.36.32-3.03.76-3.31-1.09-.29-1.97,1.63-2.01,3-2.3.35-.08.72-.05.89-.06Z"/><path class="cls-3" d="M30.68,121.35c1.46.73,4.08-.46,4.4,2.39.14,1.28-.85,1.81-1.98,1.51-1.7-.44-4.14.18-4.55-2.43-.2-1.26.93-1.57,2.13-1.48Z"/><path class="cls-3" d="M17.86,151.12c1.33,0,2.45.4,2.29,1.59-.35,2.56-2.9,1.97-4.51,2.65-.91.38-1.94-.43-1.75-1.48.39-2.27,2.55-2.19,3.98-2.76Z"/><path class="cls-4" d="M23.95,130.87c-.58.03-1.03.05-1.48.09-1.08.08-2.1-.07-2.24-1.37-.15-1.41.79-1.9,2.03-1.94.99-.03,1.99-.1,2.98-.02,1.2.1,2.19.72,2.12,2.01-.08,1.56-1.34,1.41-2.45,1.3-.36-.03-.72-.06-.96-.08Z"/><path class="cls-3" d="M44.48,116.45c1.65-.13,4.33,3.77,3.65,5.31-.33.75-.91,1.11-1.75.89-.97-.26-3.36-3.77-3.26-4.75.08-.84.55-1.3,1.36-1.44Z"/><path class="cls-3" d="M58.42,181.71c-1.25-.05-1.93-.52-1.93-1.63,0-1.1,2.94-3.17,4.37-3.1,1.03.05,1.94.66,1.7,1.65-.52,2.16-2.77,2.2-4.15,3.09Z"/><path class="cls-3" d="M20.77,161.58c-1.24-.02-2.06-.28-2.06-1.49s2.97-2.96,4.75-2.92c1.06.02,1.93.51,1.75,1.57-.43,2.66-3.1,1.91-4.45,2.84Z"/><path class="cls-3" d="M77.71,156.27c1.41.09,3.67,4.12,3.06,5.22-.19.35-.62.77-.98.81-1.81.2-2.38-1.29-3.07-2.5-.61-1.06-.85-2.2.18-3.18.24-.22.63-.28.8-.35Z"/><path class="cls-3" d="M77.13,168.41c-.07,1.5.04,2.41-.43,3.24-.4.71-1.03.96-1.81.87-.9-.1-1.23-.72-1.2-1.5.03-1.16.09-2.34.28-3.48.17-1.05.7-1.9,1.99-1.68,1.22.2,1.16,1.18,1.18,2.09,0,.36,0,.72,0,.47Z"/><path class="cls-3" d="M42.1,133.8c-.11-1.52.24-2.7,1.44-2.5,2.59.42,1.85,2.93,2.34,4.59.29.99-.54,1.83-1.6,1.61-2.23-.47-1.97-2.46-2.18-3.69Z"/><path class="cls-3" d="M56.47,137.43c1.46.11,3.21-.28,3.11,1.78-.1,2.01-1.85,1.53-3.12,1.55-1.33.02-3.08.19-3.1-1.67-.02-2.25,2.01-1.41,3.11-1.66Z"/><path class="cls-3" d="M47.01,146.79c.92-.11,1.81-1.02,2.76-.14.94.87.49,1.74.02,2.67-.18.35-.03.86-.03,1.3-.02,1.32-.77,2.12-2,1.97-1.44-.18-1.63-1.34-1.03-2.43.63-1.14.13-2.28.31-3.4l-.03.04Z"/><path class="cls-3" d="M53.37,129.32c-.89,1.23-1.31,3.11-3.2,3.54-1.11.25-1.55-.68-1.55-1.72-.01-1.59,1.79-3.59,3.16-3.53.96.05,1.48.56,1.59,1.71Z"/><path class="cls-3" d="M43.18,170.45c.07,1.11-2.25,3.98-3.25,3.94-.9-.04-1.51-.5-1.61-1.47-.12-1.32,1.97-3.86,3.2-3.87.94,0,1.51.46,1.66,1.4Z"/><path class="cls-3" d="M69.33,135.9c1.31.07,3.05-.27,3.09,1.67.04,1.74-1.56,1.67-2.83,1.66-1.37,0-2.96.04-2.91-1.9.04-1.72,1.48-1.46,2.65-1.43Z"/><path class="cls-3" d="M35.86,167.44c-.1,1.15-2.78,3.06-3.97,2.92-1.02-.12-1.54-.76-1.28-1.68.49-1.74,1.78-2.68,3.56-2.83,1.1-.09,1.63.6,1.69,1.59Z"/><path class="cls-3" d="M50.24,117.91c0-1.24.32-2.3,1.41-2.1,2.1.37,2.19,2.38,2.55,3.98.2.91-.5,1.6-1.46,1.48-2.11-.25-2.22-2.02-2.51-3.36Z"/><path class="cls-3" d="M37.66,137.81c-1.68-.35-2.64-1.48-2.94-3.1-.17-.92.39-1.65,1.37-1.61,1.81.07,2.62,1.51,3.14,2.91.37,1-.53,1.6-1.57,1.8Z"/><path class="cls-3" d="M59.6,150.07c-1.14-.24-2.33-.74-2.19-2.37.1-1.11.98-1.54,2-1.24,1.2.35,2.65.72,2.63,2.32-.02,1.31-1.15,1.44-2.43,1.3Z"/><path class="cls-3" d="M34.4,141.71c.02-1.03.12-2.04,1.35-1.99,1.79.09,1.97,1.6,2.13,2.92.12,1-.41,1.88-1.52,1.75-1.55-.18-1.88-1.44-1.96-2.69Z"/><path class="cls-3" d="M61.56,155.61c1.47.25,1.93,1.45,2.17,2.67.18.92-.4,1.59-1.35,1.6-1.54.02-2.21-.96-2.31-2.37-.07-1.01.37-1.72,1.49-1.9Z"/><path class="cls-7" d="M47.04,146.75c-.33.13-.65.32-.99.38-1.59.28-2.33-.69-2.63-2.01-.2-.91.35-1.58,1.29-1.68,1.45-.16,2.11.74,2.34,2.02.08.43-.03.89-.05,1.33,0,0,.03-.04.03-.04Z"/><path class="cls-3" d="M196.87,129.91c4.39.31,7.82,3.05,11.69,4.66-.16.17-.33.34-.49.51-.28.06-.57.12-.85.19-3.05-1.24-6.12-2.45-9.15-3.75-.59-.26-2.02-.18-1.19-1.6Z"/><path class="cls-3" d="M208.56,134.57c.84.22,1.81.32,1.42,1.62-.68-.22-1.35-.44-2.03-.66.13-.13.17-.28.11-.45l.49-.51Z"/><path class="cls-1" d="M208.07,135.08c.06.17.02.32-.11.45-.25-.09-.49-.18-.74-.26.28-.06.57-.12.85-.19Z"/><path class="cls-7" d="M122.7,140.44c-.2,1.11-.84,1.46-1.77,1.45-1.1,0-1.77-.62-1.74-1.63.03-1.01.77-1.66,1.82-1.54,1.01.12,1.5.87,1.69,1.71Z"/></svg>