<?xml version="1.0" encoding="UTF-8"?><svg id="Calque_1" xmlns="http://www.w3.org/2000/svg" viewBox="0 0 326.87 413.54"><defs><style>.cls-1{fill:#000;}.cls-1,.cls-2{stroke-width:0px;}.cls-2{fill:#fff;}</style></defs><path class="cls-1" d="M296.98,140.31c-.07,77.35-62.79,140-140.14,139.97-77.48-.03-140.08-62.77-140.01-140.34C16.9,62.7,79.86-.13,157.05,0c77.26.13,139.99,63.03,139.92,140.31ZM286.53,140.24c0-71.47-57.97-129.47-129.45-129.54-71.66-.08-129.84,57.92-129.84,129.43,0,71.4,58.1,129.57,129.46,129.59,71.66.03,129.84-58,129.83-129.48Z"/><path class="cls-1" d="M169.51,295.75c28.77.08,63.29,3.3,97.04,12.68,14.47,4.02,28.53,9.13,41.07,17.66,6.43,4.38,12.22,9.47,15.98,16.45,4.5,8.35,4.33,16.72-.38,24.91-4.87,8.48-12.45,14.1-20.72,18.84-14.38,8.25-29.99,13.31-46.02,17.09-35.47,8.38-71.48,11.05-107.85,9.91-27.84-.88-55.37-3.96-82.39-10.91-16.14-4.15-31.91-9.37-45.93-18.66-4.57-3.03-8.92-6.65-12.61-10.69-10.22-11.18-10.19-24.91-.39-36.46,7.41-8.73,17.11-14.24,27.33-18.9,14.61-6.66,29.99-10.88,45.66-14.12,27.4-5.67,55.14-7.75,89.2-7.8ZM163.46,307.23c-25.66-.04-51.12,2.02-76.35,6.81-17.98,3.41-35.59,7.97-52.08,16.12-7.28,3.6-14.18,7.82-19.36,14.27-5.54,6.92-5.68,13.85.19,20.46,3.21,3.62,7.03,6.88,11.09,9.53,13.56,8.84,28.82,13.61,44.37,17.44,26.56,6.55,53.6,9.33,80.89,9.99,32.43.79,64.6-1.45,96.35-8.36,15.91-3.46,31.48-8.04,45.9-15.82,6.75-3.64,13.13-7.83,17.61-14.28,4.12-5.95,4.27-11.93-.14-17.66-2.51-3.26-5.57-6.29-8.92-8.67-13.29-9.47-28.51-14.63-44.09-18.73-31.28-8.23-63.22-11.02-95.47-11.11Z"/><path class="cls-2" d="M286.53,140.24c0,71.48-58.18,129.51-129.83,129.48-71.36-.03-129.46-58.19-129.46-129.59,0-71.51,58.18-129.51,129.84-129.43,71.49.08,129.45,58.08,129.45,129.54ZM105.35,136.11c-.21,27.04,21.82,49.37,48.92,49.58,27.2.21,49.48-21.82,49.66-49.1.18-27.37-21.58-49.41-49.01-49.63-27.19-.21-49.35,21.76-49.57,49.15Z"/><path class="cls-2" d="M163.46,307.23c32.24.09,64.18,2.88,95.47,11.11,15.59,4.1,30.81,9.26,44.09,18.73,3.35,2.38,6.41,5.41,8.92,8.67,4.41,5.73,4.26,11.71.14,17.66-4.47,6.46-10.85,10.64-17.61,14.28-14.43,7.78-29.99,12.35-45.9,15.82-31.75,6.91-63.92,9.14-96.35,8.36-27.3-.66-54.33-3.44-80.89-9.99-15.56-3.83-30.81-8.6-44.37-17.44-4.05-2.64-7.87-5.91-11.09-9.53-5.87-6.62-5.74-13.55-.19-20.46,5.18-6.46,12.08-10.67,19.36-14.27,16.49-8.15,34.1-12.71,52.08-16.12,25.23-4.79,50.69-6.85,76.35-6.81Z"/><path class="cls-1" d="M105.35,136.11c.22-27.39,22.38-49.36,49.57-49.15,27.43.22,49.19,22.26,49.01,49.63-.18,27.28-22.46,49.31-49.66,49.1-27.1-.21-49.13-22.54-48.92-49.58Z"/></svg>