<?xml version="1.0" encoding="UTF-8"?>
<svg id="Calque_1" data-name="Calque 1" xmlns="http://www.w3.org/2000/svg" version="1.1" viewBox="0 0 326.9 413.5">
  <defs>
    <style>
      .cls-1 {
        fill: #000;
        stroke-width: 0px;
      }
    </style>
  </defs>
  <path class="cls-1" d="M297,140.3c0,77.4-62.8,140-140.1,140-77.5,0-140.1-62.8-140-140.3C16.9,62.7,79.9-.1,157.1,0c77.3.1,140,63,139.9,140.3h0ZM286.5,140.2c0-71.5-58-129.5-129.4-129.5-71.7,0-129.8,57.9-129.8,129.4s58.1,129.6,129.5,129.6c71.7,0,129.8-58,129.8-129.5h0Z"/>
  <path class="cls-1" d="M169.5,295.8c28.8,0,63.3,3.3,97,12.7,14.5,4,28.5,9.1,41.1,17.7,6.4,4.4,12.2,9.5,16,16.5,4.5,8.4,4.3,16.7-.4,24.9-4.9,8.5-12.5,14.1-20.7,18.8-14.4,8.2-30,13.3-46,17.1-35.5,8.4-71.5,11-107.9,9.9-27.8-.9-55.4-4-82.4-10.9-16.1-4.1-31.9-9.4-45.9-18.7-4.6-3-8.9-6.6-12.6-10.7-10.2-11.2-10.2-24.9-.4-36.5,7.4-8.7,17.1-14.2,27.3-18.9,14.6-6.7,30-10.9,45.7-14.1,27.4-5.7,55.1-7.8,89.2-7.8h0ZM163.5,307.2c-25.7,0-51.1,2-76.3,6.8-18,3.4-35.6,8-52.1,16.1-7.3,3.6-14.2,7.8-19.4,14.3-5.5,6.9-5.7,13.9.2,20.5,3.2,3.6,7,6.9,11.1,9.5,13.6,8.8,28.8,13.6,44.4,17.4,26.6,6.5,53.6,9.3,80.9,10,32.4.8,64.6-1.5,96.3-8.4,15.9-3.5,31.5-8,45.9-15.8,6.8-3.6,13.1-7.8,17.6-14.3,4.1-6,4.3-11.9-.1-17.7-2.5-3.3-5.6-6.3-8.9-8.7-13.3-9.5-28.5-14.6-44.1-18.7-31.3-8.2-63.2-11-95.5-11.1h0Z"/>
  <path class="cls-1" d="M163.5,307.2c32.2,0,64.2,2.9,95.5,11.1,15.6,4.1,30.8,9.3,44.1,18.7,3.4,2.4,6.4,5.4,8.9,8.7,4.4,5.7,4.3,11.7.1,17.7-4.5,6.5-10.9,10.6-17.6,14.3-14.4,7.8-30,12.4-45.9,15.8-31.8,6.9-63.9,9.1-96.4,8.4-27.3-.7-54.3-3.4-80.9-10-15.6-3.8-30.8-8.6-44.4-17.4-4-2.6-7.9-5.9-11.1-9.5-5.9-6.6-5.7-13.5-.2-20.5,5.2-6.5,12.1-10.7,19.4-14.3,16.5-8.1,34.1-12.7,52.1-16.1,25.2-4.8,50.7-6.9,76.3-6.8h0Z"/>
  <path class="cls-1" d="M105.3,136.1c.2-27.4,22.4-49.4,49.6-49.2,27.4.2,49.2,22.3,49,49.6-.2,27.3-22.5,49.3-49.7,49.1-27.1-.2-49.1-22.5-48.9-49.6Z"/>
</svg>