<?xml version="1.0" encoding="UTF-8"?><svg id="Calque_1" xmlns="http://www.w3.org/2000/svg" viewBox="0 0 349.82 188.18"><defs><style>.cls-1{fill:#000;stroke-width:0px;}</style></defs><path class="cls-1" d="M345.09,8.36c-1.06.5-2.28.82-3.17,1.54-2.87,2.34-5.46,5.05-8.46,7.19-7.65,5.47-15.11,11.37-23.31,15.88-10.81,5.95-22.22,10.78-33.41,16.01-15.58,7.29-31.97,10.97-49.18,10.87-3.44-.03-6.88-.29-10.3-.54-4.39-.32-8.82-.49-13.15-1.18-13.36-2.15-25.34-7.86-36.77-14.84-11.83-7.22-21.46-17.23-32.34-25.65-6.34-4.92-13.05-9.59-20.19-13.17C106.37.26,97.09-.55,87.54.31c-8.87.81-17.51,2.32-26,4.92-13.42,4.1-25.21,11.18-36.2,19.73-7.82,6.08-14.87,12.91-19.47,21.88C1.39,55.57-1.38,64.84.71,74.6c2.21,10.35,7.68,19.09,16.05,25.83,1.32,1.05,2.61,2.13,3.81,3.11-1.94,6.62-1.11,12.52,2.63,18.12,4.06,6.08,9.58,10.58,15.54,14.46,6.2,4.03,12.81,7.43,19.06,11.01-.67,2.34-2.21,5.08-2.11,7.75.39,9.92,4.19,18.44,12.04,24.81,9.31,7.55,20.05,10.06,31.63,7.55,11.69-2.53,19.01-10.24,22.38-21.6.6-2.03,1.6-2.46,3.28-2.17,2.63.46,5.35.71,7.82,1.62,11.35,4.22,22.84,6.55,35.1,5.02,9.8-1.23,19.15-3.26,27.68-8.48,5.23-3.22,9.56-7.33,11.68-13.05,2.83-7.59,5.07-15.39,7.39-23.15.73-2.44.89-5.05,1.31-7.58-.26-.05-.51-.1-.77-.15-.16.17-.37.32-.48.52-4.32,8.05-9,15.94-12.85,24.2-4.5,9.65-11.89,15.66-21.67,18.8-5.13,1.66-10.57,2.44-15.91,3.37-7.12,1.22-14.24,1.22-21.33-.49-6.66-1.61-13.26-3.75-19.69-2.67-1.03-16.76-8.54-27.5-25.9-29.91,1.66-4.87,3.9-9.41,2.23-14.69,11.23-3.8,18.66-12.3,26.08-20.93-.72,8.88,3.69,15.3,9.47,20.85,4.89,4.7,10.79,8.16,17.15,10.51,6.25,2.31,12.69,4.11,19.09,6,1.17.35,2.53.05,3.8.05-.02-.24-.03-.48-.05-.72-1.51-.51-3.12-.83-4.52-1.56-7.06-3.68-14.12-7.38-21.08-11.24-5.81-3.22-11.63-6.47-16.07-11.64-3.02-3.53-5.07-7.34-4.94-12.14.03-1.01-.42-2.04-.71-3.33,5.78-7.05,9.77-13.81,9.3-15.45-8.34,7.44-16.9,14.83-25.17,22.52-6.12,5.69-12.94,9.95-21.13,11.72-6.08,1.31-12.08,3.21-18.51,1.9-14.38-2.94-21.02-16.06-14.91-29.52,4.98-10.96,12.44-19.78,22.29-26.63,12.52-8.7,26.12-14.41,41.62-13.6,7.02.37,13.99,1.89,20.93,3.18,7.63,1.42,14.8,4.09,21.02,8.92,1.79,1.4,3.64,2.72,5.76,4.3,1.5-5.25-3.06-6.79-5.02-10.14,2.53,1.34,4.75,2.42,6.88,3.65,15.72,9.03,32.78,12.78,50.74,12.84,6.06.02,12.16.05,18.17-.61,7.16-.79,14.38-1.79,21.33-3.63,11.86-3.15,22.99-8.29,34.01-13.68,9.41-4.6,19.08-8.63,27.44-15.19,7.86-6.17,15.41-12.56,21.36-20.65.78-1.07,1.23-2.38,1.83-3.58-.23-.23-.47-.45-.7-.67ZM94.79,136.98c.13-.22.3-.42.44-.62,4.04,2.72,8.28,4.89,11.65,8.01,7.25,6.69,9.5,12.76,5.75,22.14-3.88,9.74-14.57,14.47-24.32,12.91-7.15-1.14-13.69-3.34-19.26-7.96-4.85-4.01-7.68-9.46-9.56-15.31-.74-2.3.43-4.53,1.93-6.73,2.35-3.47,5.18-1.07,7.52-1.01,11.23.33,19.88-1.16,25.85-11.43ZM90.43,119.86c-1.45,4.18-2.39,7.52-3.74,10.69-2.7,6.27-7.97,8.62-14.45,8.93-7.11.33-13.89-1.03-20.37-3.89-9.33-4.12-18.03-9.19-24.96-16.86-3.68-4.07-4.96-8.12-4.42-14.15,9,5.48,18.07,5.85,27.46.23,8.73,17.23,22.61,20.76,40.48,15.05ZM68.39,56.6c-2.38-5.05-7.18-5.19-11.49-5.91-2.69-.45-5.51-.08-8.27-.08-.06.24-.12.47-.18.71.89.38,1.81.73,2.69,1.15,3.87,1.84,7.72,3.72,11.6,5.54,2.16,1.01,1.95,2.15.51,3.73-7.07,7.72-12.33,16.52-14.9,26.7-.92,3.65-.76,7.57-1.1,11.51-11,1.64-21.32-.51-29.69-9.44-5.18-5.53-9.39-11.45-10.69-19.16-1.17-6.93.45-13.36,3.13-19.59,4.43-10.29,12.43-17.61,21.05-24.27,9.93-7.67,20.85-13.44,33.01-16.9,11.03-3.13,22.26-4.36,33.6-3.51,10.19.76,19.14,5.17,27.03,11.56,7.71,6.24,15.25,12.69,22.88,19.02,2.49,2.06,5.04,4.04,7.56,6.05-31.43-12.21-60.61-10.09-86.74,12.89Z"/><path class="cls-1" d="M349.82,89.9c-.77.88-1.17,1.59-1.77,1.97-10.05,6.42-19.98,13.06-30.23,19.14-15.8,9.37-32.33,17.24-50.01,22.41-11.28,3.3-22.64,6.38-34.06,9.14-6.65,1.61-13.37.94-19.81-1.6-.71-.28-1.3-.88-2.73-1.88,4.58-1.27,8.39-2.74,12.34-3.36,22.86-3.58,44.97-9.81,66.55-18.07,18.25-6.98,35.34-16.22,52.07-26.2,2.14-1.28,4.33-2.88,7.66-1.55Z"/></svg>