<?xml version="1.0" encoding="UTF-8"?><svg id="Calque_1" xmlns="http://www.w3.org/2000/svg" viewBox="0 0 345.87 191.44"><defs><style>.cls-1{fill:#000;stroke-width:0px;}</style></defs><path class="cls-1" d="M210.6,136.01c7.33.12,14.38-.61,21.38-2.44,19.48-5.11,38.17-12.5,56.54-20.49,16.55-7.19,32.42-15.93,48.59-24,.97-.49,1.89-1.1,2.9-1.5,2.11-.83,3.97-.4,5.26,1.55,1.15,1.75.64,4.23-1.33,5.51-2.74,1.77-5.58,3.42-8.49,4.9-20.88,10.62-41.75,21.22-63.81,29.35-11.6,4.27-23.14,8.52-35.07,11.81-8.27,2.28-16.61,2.89-25.07,3.08-2.43.05-3.98.86-5.01,3.26-6.61,15.33-29.25,29.8-47.02,29.18-6.79-.24-13.66-.36-20.32-1.51-4.53-.78-8.8-3.16-13.13-4.96-2.15-.89-4.17-2.1-6.42-3.25-.3.84-.53,1.32-.64,1.83-3.08,14.36-16.51,25.25-34.7,22.75-17.09-2.35-30.83-15.48-34.02-32.39-.68-3.59-.59-7.45-.14-11.1.28-2.32-.38-3.07-2.21-4.07-15.81-8.58-26.97-21.27-33.05-38.26-.53-1.48-.37-3.19-.7-4.75-.17-.79-.55-1.68-1.12-2.21C-.24,86-3.92,65.21,4.53,49.25c4.12-7.78,8.33-15.6,14.88-21.68,3.51-3.25,7.24-6.4,11.31-8.87C46.29,9.24,63.27,3.82,81.22.81c16.58-2.78,31.05,1.73,44.54,10.94,3.3,2.25,6.75,4.28,10.04,6.55,4.49,3.08,8.94,6.22,13.31,9.46,10.28,7.64,20.31,15.63,30.8,22.96,13.2,9.23,28.24,11.48,43.77,8.77,12.22-2.13,24.38-5.04,36.27-8.57,11.67-3.46,23.3-7.35,33.71-14.01,14.38-9.2,28.76-18.4,43.14-27.6.61-.39,1.2-.89,1.88-1.09,2.13-.64,4.25-.69,5.55,1.5,1.3,2.18.46,4.02-1.41,5.46-1.73,1.33-3.42,2.73-5.26,3.89-14.47,9.07-28.61,18.72-43.56,26.92-12.22,6.7-25.37,11.7-38.18,17.29-2.19.96-4.74,1.12-7.14,1.59-5.87,1.15-11.72,2.59-17.65,3.29-7.21.85-14.54,1.82-21.72,1.35-12.77-.82-24.69-4.95-35.35-12.27-.81-.56-1.63-1.09-2.5-1.67-1.12,5.47-4.02,6.41-8.45,3.05-4.91-3.73-9.79-7.52-14.92-10.95-15.1-10.1-31.29-10.31-48.06-5.02-8.7,2.75-16.36,7.17-23.41,12.99-7.05,5.83-13.56,12.03-18.62,19.7-5.61,8.52-7.42,17.68-4.72,27.52.49,1.77,1.88,3.56,3.34,4.75,6.85,5.59,14.75,6.11,23.2,4.86,16.94-2.5,29.44-12.18,40.37-24.41,3.37-3.77,6.11-8.1,9.06-12.24.61-.85,1.01-1.95,1.18-2.99.39-2.4,1.75-3.54,4.09-3.44,2.24.1,4.11,2.11,3.89,4.42-.13,1.4-.59,2.89-1.31,4.09-2.43,4.04-5.06,7.97-7.58,11.96-.41.66-.95,1.41-.96,2.12-.24,12.39,6.62,22.91,18.53,26.96,7.52,2.55,15.45,3.92,23.22,5.68,2.17.49,3.81,1.32,4.07,3.68.27,2.46-1.01,4.23-3.32,4.57-2.18.32-4.54.22-6.7-.26-5.67-1.26-11.32-2.67-16.9-4.29-9.27-2.7-16.51-8.47-21.88-16.26-2.34-3.39-3.31-7.74-4.97-11.8-1.64,1.41-3.52,3.33-5.69,4.85-5.13,3.58-10.43,6.92-15.56,10.49-.84.59-1.58,1.85-1.7,2.87-.29,2.7-1.08,5.85-.03,8.03.98,2.04,4.15,2.96,6.2,4.57,8.32,6.54,13.72,14.87,15.5,25.44.15.9,1.15,1.95,2.03,2.39,2.66,1.35,5.62,2.15,8.17,3.68,4.32,2.59,8.98,4.01,13.87,4.54,8.97.96,18.15,1.65,26.79-1.19,14.91-4.91,29.14-15.55,31.9-32.84.53-3.29,2.39-4.92,5-4.59,2.52.32,3.86,2.46,3.62,5.77-.04.52-.08,1.05-.13,1.73ZM65.44,53.79c22.91-20.71,48.56-28.86,79.06-18.6-1.27-1.08-2.07-1.92-3.02-2.55-8.88-5.83-17.69-11.76-26.7-17.38-8.17-5.08-17.22-7.55-26.81-6.47-15.55,1.75-30.39,6.14-44.19,13.67-10.75,5.87-19.94,13.55-27.13,23.55-4.14,5.77-7.92,11.93-7.96,19.08-.09,18.5,9.41,31.85,27.69,35.92,2.37.53,4.88.39,6.73.51.41-5.57.5-10.46,1.16-15.26,1.31-9.5,6.94-16.86,12.78-23.96,2.04-2.48,2.23-4.29-.54-6.42-2.51-1.94-5.64-3.12-8.56-4.5-1.95-.92-3.21-2.21-2.73-4.43.51-2.33,2.23-3.19,4.5-2.99.71.06,1.42.29,2.11.49,5.5,1.55,10.15,4.35,13.6,9.33ZM58.33,147.91c0,2.54-.21,4.78.03,6.97,1.53,13.54,12.32,24.97,25.77,27.45,12.21,2.25,22.96-3.8,26.03-14.65,3.33-11.79-4.24-27.31-15.8-32.2-8.36,13.57-20.93,15.71-36.03,12.43ZM88.79,119.63c-3.04.52-5.88,1.06-8.74,1.49-13.04,1.96-24.54-.62-33.3-11.31-.36-.44-1.26-.78-1.82-.68-6.42,1.18-12.43-.41-18.38-2.55-.61-.22-1.25-.34-2.07-.56,3.39,9.02,11.22,18.84,20.09,25.29,7.17,5.21,14.95,8.96,23.99,9.34,12.77.55,21-8.13,20.23-21.03Z"/></svg>