<?xml version="1.0" encoding="UTF-8"?><svg id="Calque_1" xmlns="http://www.w3.org/2000/svg" viewBox="0 0 318.94 293.12"><defs><style>.cls-1{fill:#ea000e;}.cls-1,.cls-2,.cls-3,.cls-4,.cls-5,.cls-6,.cls-7,.cls-8{stroke-width:0px;}.cls-2{fill:#545454;}.cls-3{fill:#060707;}.cls-4{fill:#72adc0;}.cls-5{fill:#0080c7;}.cls-6{fill:#050605;}.cls-7{fill:#969696;}.cls-8{fill:#fff;}</style></defs><path class="cls-3" d="M275.13,144.16c.54,1.82,1.17,3.62,1.59,5.46.39,1.71.58,3.49-1.36,4.55-1.34.73-.31,1.59-.09,2.32,1.62,5.51,1.64,5.55,7.21,4.44,7.13-1.42,13.45.86,19.42,4.38,2.02,1.19,4.34,1.77,6.12,3.46,4.75,4.51,4.98,9.3.51,13.99-1.91,2.01-1.15,4.77,1.62,5.46,3.35.84,5.22,2.76,6.62,6.06,2.82,6.62,2.92,13.21.16,19.54-3.48,7.99-9.14,14.36-16.94,18.57-4.22,2.28-8.63,4.21-12.1,7.7-3.07,3.09-7.35,3.3-11.28,4.15-8.8,1.91-17.71,3.33-26.73,2.89-14.92-.72-28.61,3.93-42.25,8.99-11.28,4.18-21.3,10.85-31.86,16.44-14,7.41-28.64,12.56-44.35,14.86-16.17,2.36-32.37,4.34-48.7,4.93-13.97.51-27.96,1.16-41.94.47-7.8-.39-15.6-1.27-22.5-5.45-5.41-3.27-8.98-7.92-10.71-14.12-3.04-10.93-1.5-21.57,1.5-32.19,3.3-11.69,11.36-19.57,20.95-26.22,2.83-1.96,5.65-3.96,8.78-5.43,1.55-.73,1.53-1.38.71-2.82-2.28-4-4.31-8.15-6.43-12.25-.57,1.2-1.07,2.44-1.71,3.59-3.78,6.81-10.55,8.35-16.95,3.66-6.18-4.52-9.86-10.91-11.95-18.08-3.8-13.02-2.91-25.99,1.06-38.87,2.27-7.36,4.17-14.85,7.38-21.87,2.88-6.3,6.3-12.29,12.69-15.82.87-.48.96-1.27,1.07-2.06,1.42-10.26,4.48-20.17,6.51-30.29,1.21-6.03.74-12.18-1.59-18.19-3.35-8.64-4.82-17.5-.64-26.43,2.26-4.82,6.12-8.25,10.48-10.74,3.76-2.15,7.95-.43,11.79,1.09.42.17.79.44,1.19.66,5.11,2.81,8,2.48,12.23-1.56,3.68-3.51,7.27-7.12,11.41-10.11,6.73-4.86,14.16-8.21,22.4-9.16,7.61-.88,14.4,2.24,20.94,5.66,6.39,3.34,12.09,7.64,17.22,12.73,5.13,5.09,7.13,5.3,13.68,1.97,3.05-1.55,6.32-2.18,9.75-2.06,1.14.04,2.17.35,3.06.99,9.5,6.84,13.89,14.44,11.77,27.7-.76,4.78-2.99,9.15-4,13.82-1.59,7.33-.6,14.59,1.63,21.73,2.08,6.68,3.27,13.56,4.33,20.47.31,2.04.82,4.09,1.58,6,.52,1.33,1.97.99,3.11.75,5.8-1.23,10.94-3.95,15.4-7.73,4.1-3.46,7.4-7.72,10.41-12.17.77-1.14,1.08-2.1.2-3.42-.96-1.43-1.44-3.12-1.38-4.9.07-2.29,1.02-4.05,3.16-4.98,2.16-.94,4.37-.58,5.69,1.23,2,2.75,4.59,3.79,7.77,4.59,5.17,1.3,7.71,6.96,6.69,12.98-1.3,7.64-5.17,13.81-10.29,19.41-10.27,11.25-23.4,17.43-37.72,21.55-1.05.3-1.95.42-1.98,2-.09,6.52-.32,13.04-1.6,19.52,9.12,1.31,16.53-1.98,23.75-7.2,10.11-7.3,20.6-14.21,32.85-17.51,3.72-1,7.66-.71,11.42-2.28,2.51-1.05,5.34-.04,7.01,2.76.86,1.45,6.42,1.52,7.43.2,2.51-3.28,4.26-6.93,5.44-10.89.46-1.54.28-2.34-1.61-2.47-3.4-.24-6.71-1.78-10.2-.59-.49.17-1.26.14-1.47.47-2.55,4.13-7.2,5.23-10.92,7.65-1.91,1.24-3.93.45-5.57-.83-2.18-1.71-2.04-4.09.3-5.59,2.98-1.91,6.11-3.55,9.51-4.59.76-.23,1.48-.63,2.2-.99.56-.28.76-.77.58-1.36-.2-.66-.72-.33-1.12-.31-1.95.1-3.68-.36-4.49-2.33-.68-1.66-.37-3.48.97-4.5,1.66-1.27,3.56-2.76,5.91-1.99,2.25.74,2.88,2.6,2.59,4.8-.07.52-.54,1-.56,1.51-.04,1.26-.21,2.63.18,3.77.66,1.92,2.15.36,3.17.3,4.06-.22,7.91.94,11.84,1.54,1.61.24,2.37,1.44,2.37,3.16.01,3.87-1.66,7.16-3.31,10.5-.4.81-1.92,2.12-.58,2.57,1.11.37,2.47,2.08,4.23.16,4.96-5.42,11.05-5.99,17.65-3.3,3.15,1.28,3.57,6.12,1.29,9.11-3.54,4.65-8.17,4.56-13.12,3.85-.22,0-.44-.02-.67-.03.08.19.15.38.23.57ZM234.58,201.41c.11-.13.33-.34.3-.38-.25-.36-.41-.07-.57.12-.14.1-.29.19-.43.29-.12.26-.74.32-.44.69.32.39.5-.17.74-.31.13-.14.26-.27.38-.41ZM236.62,199.65c-.18.18-.37.36-.55.55-.07.01-.15.02-.21.05-.04.02-.05.09-.07.14.08-.07.17-.15.25-.22.18-.18.37-.36.55-.54.17-.09.62-.06.18-.42-.05.15-.1.3-.15.45ZM237.89,198.26c.49-.21,1.02-.56.48-1.05-.34-.3-.71.19-.84.63-.07.22-.26.55-.18.64.24.26.41,0,.55-.21ZM171.75,39.78c.13-2.17-1.06-5.8-2.8-9.21-3.87-7.62-10.54-10.1-17.25-6.57-7.58,3.99-11.85,3.32-18.02-2.73-8.39-8.22-18.08-14.2-29.59-17.02-1.98-.49-3.96-.66-5.92-.14-5.71,1.51-11.21,3.56-16.39,6.48-6.66,3.76-11.74,9.39-17.45,14.28-.75.64-1.43,1.43-2.54,1.44-4.09.05-8.09.03-11.82-2.28-2.73-1.69-6.28-2.93-9.06-1.27-3.57,2.13-6.88,4.94-8.75,9.05-3.48,7.65-2.16,15.18.62,22.51,3.37,8.88,3.26,17.72.82,26.69-3.99,14.65-6.72,29.49-7.4,44.7-.37,8.36-.32,16.69.51,25.01.69,6.88,2.51,13.55,3.97,20.28,3.03,14,7.12,27.63,15.68,39.41,4.69,6.44,7.58,13.36,7.26,21.43-.05,1.24.17,2.08,1.69,2.17,1.34.08,2.7.66,2.34,2.31-.33,1.51-1.69,1.27-2.92,1.08-3.98-.62-7.09,1.06-9.6,3.97-3.67,4.26-2.34,8.48,2.94,10.08,6.31,1.91,12.18.11,18.04-1.88,1.25-.43,1.65-1.1.71-2.41-2.09-2.9-2.01-6.12-.84-9.35.83-2.3,1.82-4.55,2.62-6.86,1.68-4.87,1.65-4.91-3.54-5.64-1.03-.15-1.79-.41-1.77-1.58.02-1.09.72-1.71,1.72-1.74,1.07-.03,2.19.06,3.22.33,7.07,1.86,14.27,2.81,21.5,1.57,6.59-1.13,13.11-1.51,19.71-.43,7.4,1.22,14.76,1.38,22.05-.78,1.46-.44,3.02-.6,4.55-.74,1.29-.12,2.44.3,2.45,1.86,0,1.38-1.05,1.43-2.12,1.51-1.08.08-2.14.4-3.22.5-1.57.14-1.68.84-1.13,2.16,1.25,3.01,2.38,6.08,3.54,9.13,1.36,3.57,1.64,7.08-.8,10.35-.64.86-.68,1.45.38,1.86,6.89,2.67,13.82,4.45,21.07,1.2,2-.9,2.59-2.31,2.35-4.36-.66-5.49-5.62-9.25-11.69-8.7-1.29.12-2.56.25-2.77-1.3-.2-1.47,1.05-2.08,2.29-2.11,1.64-.04,1.9-.87,1.85-2.26-.32-7.74,2.12-14.51,6.74-20.73,4.39-5.91,7.95-12.41,10.35-19.39,2.53-7.37,4.32-14.98,6.29-22.53,4.14-15.93,4.99-32.09,3.76-48.36-1.06-14.03-3.86-27.8-7.57-41.4-2.24-8.21-2.13-16.45,1.06-24.57,1.65-4.22,2.73-8.65,2.89-15.02ZM252.45,180.35c-1.87-.97-2.84-1.03-3.35,1.42-1.27,6.07-3.35,11.91-7,17-3.9,5.44-8.59,9.06-16,9.02-17.78-.11-35.57.4-53.35.69-1.63.03-3.39.73-4.85.3-5.1-1.49-7.59.87-10.36,4.94-3.8,5.58-6,11.29-5.88,17.98.03,1.47.26,2.28,1.85,3.04,5.45,2.62,8.95,6.68,8.58,13.25-.13,2.34-1.11,3.94-3.02,5.12-6.75,4.17-20.87,3.49-27.12-1.32-2.41-1.85-2.65-3.62-.68-5.95,1.54-1.82,2.13-3.77,1.27-6.05-1.38-3.65-2.82-7.27-4.15-10.94-.46-1.26-1.1-1.61-2.44-1.37-4.59.8-9.22.68-13.81.06-7.41-1-14.8-1.17-22.22-.04-4.68.72-9.4.76-14.08-.02-1.35-.23-1.98.12-2.44,1.38-1.33,3.66-2.77,7.29-4.15,10.94-.78,2.05-.38,3.91.93,5.63,2.5,3.27,2.04,5.35-1.74,7.19-3.79,1.85-7.89,2.77-12.04,3.2-4.59.48-9.05-.27-13.2-2.45-2.27-1.19-3.4-2.97-3.5-5.66-.25-6.47,3.27-10.4,8.6-12.97,1.58-.77,1.81-1.58,1.84-3.05.14-7.2-1.95-13.53-6.79-18.97-.93-1.05-1.43-1.2-2.61-.55-4.71,2.6-9.07,5.68-13.26,9.04-5,4.01-9.27,8.66-12.25,14.4-2.71,5.23-3.81,10.94-4.87,16.65-1.43,7.66-.9,15.16,1.68,22.54,1.55,4.44,4.43,7.62,8.5,9.82,7.96,4.31,16.76,4.74,25.43,4.75,15.88,0,31.76-.3,47.63-1.34,14.41-.95,28.67-2.99,42.9-5.28,14.9-2.39,28.43-8.47,41.54-15.66,11.36-6.24,22.45-13.05,34.95-16.92,9.69-3,19.22-6.55,29.62-6.51,10.43.04,20.85-.43,31.12-2.56,4.01-.84,8.08-1.6,11.43-4.05,2.87-2.1,5.83-4.03,9.01-5.52,8.08-3.8,14.32-9.48,18.51-17.39,3.62-6.83,2.99-13.6-.23-20.34-.64-1.33-1.95-1.81-3.18-1.64-1.21.17-.52,1.51-.67,2.31-.35,1.87-.06,4-.86,5.61-3.97,8.01-9.66,14.1-19.12,15.19-3.23.37-6.53.36-9.79.24-12.36-.46-18.42-7.7-19.91-19.3-.18-1.37-.53-1.62-1.8-1.46-2.23.29-4.46.67-6.76.12-2.18-.51-3.07-1.48-2.57-3.84.82-3.88,2.73-7.25,4.67-10.66ZM23.41,111.63c-4.18,3.31-7.01,7.44-9.14,12.07-1.75,3.8-2.83,7.84-4.15,11.79-3.82,11.48-7.06,23.03-6.22,35.37.61,8.95,3.23,17.05,8.8,24.12,2.45,3.11,5.56,5.15,9.61,5.57,1.41.15,2.8.16,3.7-1.11,3.58-5.1,5.37-10.67,3.68-16.87-4.9-17.92-8.52-36-7.28-54.73.36-5.4.67-10.81,1.01-16.21ZM224.97,166.89c-3.17,0-6.35-.12-9.51.02-10.77.5-11.83,1.52-13.91,11.66-1.2,5.87-.63,11.81,2.78,17.03,2.12,3.25,4.8,5.7,9.25,5.05,2.86-.42,5.78-.51,8.68-.56,9.97-.17,12.42-1.86,15.82-11.19.16-.43.32-.85.45-1.28,1.52-5.19,3.87-10.19,3.44-15.81-.3-3.98-.79-4.56-4.76-4.85-4.08-.3-8.15-.12-12.23-.08ZM210.5,92.1c-2.92,3.98-5.75,7.67-9.11,10.82-6.08,5.69-13,9.86-21.57,10.42-1.58.1-1.55.94-1.39,1.97.81,5.21,1.02,10.47.98,15.73-.02,2.3,1.05,2.44,2.64,1.88,3.24-1.15,6.46-2.37,9.64-3.68,10.57-4.35,19.83-10.56,27.01-19.59,2.17-2.74,4.46-5.45,5.41-9.02-9.29-.73-9.51-.87-13.59-8.52ZM241.6,146.23c3.12-1.43,8.26-2.17,10.66-1.59,1.67.41,3.34.96,4.59,2.25.79.82,1.33,2.06,2.85,1.14,1.29-.78,1.96-1.88,1.92-3.36-.08-3.46-2.19-5.67-5.6-6.37-2.07-.42-3.96.13-5.91.44-2.66.43-5.37.31-7.63-1.12-2.68-1.7-5.23-1.48-8.04-.68-11.34,3.21-20.5,9.74-28.35,18.34-1.04,1.14-1.68,2.28-1.67,3.85,8.41.3,16.66.21,24.65-3.1,5.17-2.14,10.62-3.62,16.18-4.62,2.41-.43,5.13-.54,7.25-2.49-3.37-2.04-7.21-.83-10.9-2.69ZM270.26,164.57c-1.27-5.48-6.03-9.08-7.07-14.66-1.36.96-2.48,1.8-3.9,1.81-2.82.03-3.52,1.35-3.63,4.15-.2,4.78-1.13,9.63-4.39,13.39-1.2,1.39-1.84,2.53-1.47,4.2.21.98-.83,2.49,1.13,2.8,1.76.28,3.39,1.31,5.05-.77,3.85-4.82,8-9.4,14.28-10.92ZM288,172.74c5.65-.45,10.91,1.78,14.56,7.51,1.06,1.66,2.54,1.03,3.69-.04,3.31-3.08,2.26-7.7-2.26-9.89-1.46-.71-2.94-1.35-4.35-2.19-5.99-3.59-12.41-4.84-19.26-3.12-.63.16-2.01-.23-1.39,1.49,1.75,4.9,3.23,6.11,9.02,6.23ZM254.85,191.51c2.96.05,6.4-.69,7.79-3.52,2.66-5.39,6.18-9.76,11.23-12.95.43-.27.79-.6.74-1.3-.36-4.91-3.05-6.42-7.26-3.98-.78.45-1.53.98-2.22,1.55-5.72,4.69-9.9,10.55-12.93,17.25-1.33,2.95-.97,3.35,2.65,2.94ZM195.01,200.63c-2.23-8.8-3.41-17.76-2.14-27-2.99,5.3-6.47,9.95-11.38,13.41-.91.64-.8,1.4-.47,2.37,1.05,3.1,1.96,6.25,1.69,9.58-.11,1.35.45,1.69,1.72,1.67,3.44-.07,6.88-.02,10.57-.02ZM189.16,172.63c.09-.57-.17-.85-.72-.84-4,.07-7.47-2.03-11.27-2.81-1.19-.25-1.81-.31-2.1,1.08-.62,3.01-1.39,5.99-2.08,8.98-.14.6-.38,1.23.14,1.8,3.46,3.79,6.07,3.89,9.94.38.4-.36.81-.73,1.15-1.15,1.86-2.34,3.62-4.74,4.94-7.44ZM224.75,163.4c1.74.26,3.05-.06,4.36-.07,5.87-.06,11.85-.44,17.01,3.15,1.14.79,1.39.22,1.76-.55,1.36-2.83,1.82-5.83,1.9-8.96.05-1.8-.57-2.17-2.19-1.86-4.28.82-8.39,2.18-12.41,3.86-3.37,1.41-6.96,2.31-10.43,4.43ZM221.42,96.99c1.02-.09,2.16-.54,3.04-1.56,1.95-2.25,1.72-5.73-.54-8-2.15-2.16-7.09-2.7-8.92-.9-.49.48-.9,1.18-1.06,1.84-.85,3.57,3.48,8.72,7.48,8.61ZM211.2,162.49c-3.1,0-5.54.03-7.99-.01-.98-.02-1.57.26-2.19,1.15-2.11,3.02-3.19,6.44-4.04,9.92-1.91,7.84-1.03,15.65.63,23.41.91,4.28,1.44,4.58,5.7,3.89-7.35-9.9-7.62-20.43-2.78-31.45,1.27-2.9,3.42-4.57,6.5-5.17,1.26-.24,2.65-.23,4.17-1.75ZM270.92,207.27c3.28,2.44,6.84,3.05,10.43,3.55,1.51.21,2.13-.38,2.06-1.95-.1-2.35,0-4.71-.06-7.06-.03-.91.52-2.13-.81-2.57-1.14-.38-2.21-.33-3.24.63-2.69,2.5-5.5,4.88-8.38,7.41ZM267.76,193.77c-2.29-.55-2.64.33-2.35,2.11.44,2.65,1.54,5.01,2.71,7.37.44.89.88,1.03,1.64.38,2.4-2.08,4.87-4.08,7.21-6.23,1.14-1.05.62-2.51-.89-2.71-2.87-.37-5.76-.65-8.31-.92ZM273.27,149.81c-.79-3.47-2.4-6.49-4.48-9.23-1.18-1.56-2.21.26-3.32.45-1.23.21-.9.99-.63,1.82.88,2.72,1.71,5.46,2.55,8.19.31,1,.63,2.05,2,1.28,1.33-.74,3.62-.09,3.88-2.51ZM278.95,140.65c2.36-.05,4.2.29,2.55-2.34-.72-1.16-.47-2.7.02-3.98.64-1.69-.2-1.82-1.51-1.79-3.22.07-5.7,1.68-7.87,3.81-1.14,1.12-1.03,2.37.73,2.85,2.26.62,4.56,1.09,6.08,1.45ZM302.7,192.98c-.39-2.43-.12-4.22-2.28-5.27-2.26-1.1-4.16-1.52-6.04.52-.49.52-1.08,1-1.71,1.33-1.02.53-1.07,1.36-.9,2.3.19,1.09,1.12,1.03,1.9,1.15,2.32.36,4.65.64,6.97,1.03,1.47.25,2.34-.01,2.06-1.06ZM292.09,196.12c-.52-.05-1.1-.34-1.41.34-.22.5.2.83.47,1.17.79.99,1.58,1.97,2.39,2.94,3.82,4.58,5.39,4.29,7.59-1.4.03-.08.09-.15.13-.24.44-.95.3-1.41-.91-1.56-2.77-.33-5.52-.83-8.28-1.26ZM277.69,191.46c-2.99-3.09-5.33-5.8-7.48-8.82-1.99,1.76-2.86,4.05-3.91,6.22-.38.79-.35,1.32.78,1.43,3.29.31,6.58.72,10.61,1.17ZM286.74,203.64c0,1.97.03,3.32-.01,4.67-.03.94.32,1.35,1.27,1.12,2.11-.5,4.6-.97,5.78-2.57.8-1.08-1.72-2.3-2.49-3.65-.09-.15-.2-.31-.33-.43-1.35-1.2-2.03-4.11-3.79-3.53-1.41.47-.17,3.26-.43,4.38ZM287.9,178.34c.29.9-.33,2.42,1.15,2.61,2.24.29,4.46.66,6.66,1.2,1.07.26,1.82-.57,2.25-1.22.44-.68-.63-1.07-1.06-1.56-1.8-2.07-4.33-2.47-6.8-2.99-1.6-.34-2.49.09-2.19,1.97ZM240.59,192.56c3.32-2.26,6.32-15.23,4.82-20.93.27,7.53-2.62,14.01-4.82,20.93ZM287.86,193.6c-1.6.08-3.2.4-4.13-1.26-.46-.82-1.19-1.08-2.08-.73-.73.29-1.22.86-1.27,1.63-.07.97.36,1.7,1.29,2.18,2.09,1.08,4.44.47,6.19-1.81ZM209.42,82.12c.39.92.11,2.7,1.52,2.65,1.18-.05,2.69-1.3,2.87-2.43.17-1.1-1.12-2.3-2.46-2.46-1.35-.16-1.77.96-1.93,2.25ZM274.81,182.81c1.12,2.07,2.86,3.49,4.36,5.1.39.42.88.58,1.44.25.45-.27.19-.59.12-.9-.68-3.23-2.2-4.4-5.93-4.45ZM292.43,185.13c-1.53.18-3.14-1.77-4.48-.02-.45.58-.39,1.74.52,2.14,2.01.88,2.64-1.25,3.96-2.12ZM238.65,124.79c3.05-.37,5.42-2.12,7.71-4.02-2.89.68-5.4,2.11-7.71,4.02ZM166.96,197.86c-.66,1.25-1.18,2.25-1.89,3.59,1.67-.18,2.97-.22,4.27-.91-.74-.84-1.44-1.63-2.38-2.68ZM222.03,203.77c3.63-.26,7.46,1.31,10.83-1.36-3.5,1.49-7.21.96-10.83,1.36ZM171.65,197.55c.07,1.01.98,1.27,1.6,1.68.6.39.57,1.78,1.72,1.21.31-.15.49-.76.55-1.18.18-1.36-1.08-1.22-1.81-1.59-.64-.33-1.33-.52-2.06-.12ZM166.54,205.45c2.62.39,4.64-.33,6.67-.92-2.2-.45-4.29-.18-6.67.92ZM244.94,135.05c1.49-.2,3,1.39,4.85.18-1.67-1.48-3.18-1.46-4.85-.18ZM286.76,135.45c-.14-.54-.18-1.36-.95-1.31-1.22.08-.96,1.29-1.16,2.05-.15.59.14,1.37.95,1.21.91-.18,1.01-1.1,1.16-1.95ZM171.44,187.29c-.89,1.1-1.02,2.32-1.15,3.54.86-.98,4.25-1.13,1.15-3.54ZM272.73,160.26c-.4-1.83-.52-3.44-1.68-4.69-.06-.06-.64.18-.65.31-.14,1.66,1.1,2.77,1.7,4.15.02.06.16.06.64.24ZM175.47,194.6c-.2-1.01-.09-2.14-.89-2.21-.84-.07-1.65.67-2.13,1.64,1.05.2,1.92.36,3.02.57Z"/><path class="cls-5" d="M171.75,39.78c-.16,6.37-1.24,10.81-2.89,15.02-3.19,8.12-3.3,16.36-1.06,24.57,3.71,13.6,6.51,27.37,7.57,41.4,1.23,16.27.38,32.43-3.76,48.36-1.96,7.55-3.76,15.15-6.29,22.53-2.4,6.99-5.95,13.48-10.35,19.39-4.63,6.23-7.07,12.99-6.74,20.73.06,1.39-.2,2.22-1.85,2.26-1.24.03-2.49.64-2.29,2.11.21,1.55,1.48,1.41,2.77,1.3,6.07-.55,11.03,3.21,11.69,8.7.25,2.05-.35,3.46-2.35,4.36-7.25,3.25-14.18,1.47-21.07-1.2-1.06-.41-1.02-1-.38-1.86,2.44-3.26,2.16-6.78.8-10.35-1.16-3.05-2.29-6.12-3.54-9.13-.55-1.33-.45-2.02,1.13-2.16,1.08-.1,2.14-.42,3.22-.5,1.07-.08,2.13-.13,2.12-1.51-.01-1.57-1.16-1.98-2.45-1.86-1.53.14-3.09.31-4.55.74-7.29,2.17-14.65,2-22.05.78-6.6-1.09-13.12-.71-19.71.43-7.23,1.24-14.42.29-21.5-1.57-1.03-.27-2.15-.36-3.22-.33-1.01.03-1.71.65-1.72,1.74-.02,1.17.74,1.43,1.77,1.58,5.19.73,5.22.77,3.54,5.64-.8,2.31-1.79,4.56-2.62,6.86-1.17,3.23-1.25,6.45.84,9.35.94,1.31.54,1.98-.71,2.41-5.87,1.99-11.73,3.79-18.04,1.88-5.28-1.6-6.62-5.82-2.94-10.08,2.5-2.91,5.62-4.58,9.6-3.97,1.23.19,2.59.43,2.92-1.08.36-1.65-1-2.23-2.34-2.31-1.52-.09-1.74-.93-1.69-2.17.33-8.07-2.57-14.99-7.26-21.43-8.56-11.77-12.65-25.41-15.68-39.41-1.46-6.73-3.28-13.4-3.97-20.28-.83-8.32-.88-16.65-.51-25.01.68-15.21,3.42-30.05,7.4-44.7,2.44-8.98,2.55-17.81-.82-26.69-2.78-7.33-4.1-14.85-.62-22.51,1.87-4.11,5.18-6.92,8.75-9.05,2.79-1.67,6.33-.43,9.06,1.27,3.73,2.31,7.73,2.33,11.82,2.28,1.11-.01,1.79-.8,2.54-1.44,5.71-4.89,10.8-10.53,17.45-14.28,5.17-2.92,10.67-4.97,16.39-6.48,1.97-.52,3.94-.35,5.92.14,11.5,2.83,21.19,8.8,29.59,17.02,6.17,6.05,10.44,6.71,18.02,2.73,6.71-3.53,13.38-1.05,17.25,6.57,1.73,3.42,2.93,7.05,2.8,9.21ZM101.45,209.98c.1,0,.65-.04,1.19,0,11.51,1.03,19.51-4.49,24.48-14.22,7.11-13.93,6.41-28.16-.87-41.81-5.87-11-14.68-17.74-28.04-16.63-6,.5-11.16,2.8-15.27,6.96-12.92,13.09-15.94,28.77-10.66,45.98,4.32,14.08,14.09,20.42,29.16,19.7ZM100.09,97.1c14.17.16,27.23,3.47,37.99,13.4.81.74,1.74,1.12,2.66.26.85-.8.79-1.84.16-2.72-.58-.8-1.28-1.56-2.06-2.16-1.18-.91-1.16-1.66-.34-2.9,1.85-2.8,3.45-5.75,5.19-8.62,1.02-1.68.84-2.88-1.18-3.55-2.47-.83-4.4-2.45-6.18-4.32-3.17-3.33-4.5-3.04-6.3,1.32-1.21,2.93-2.37,5.88-3.5,8.85-.49,1.28-1.1,1.52-2.44,1-15.47-6.03-30.97-5.96-46.43,0-1.34.52-1.96.28-2.44-1-1.13-2.97-2.29-5.92-3.5-8.85-1.8-4.36-3.13-4.65-6.3-1.32-1.78,1.87-3.7,3.49-6.18,4.32-2.02.68-2.19,1.88-1.17,3.56,1.31,2.17,2.35,4.56,3.91,6.53,2.02,2.55,2.32,4.53-.59,6.56-1.15.8-1.51,2.22-.35,3.3,1.29,1.2,2.31.15,3.19-.84,1.58-1.79,3.47-3.2,5.55-4.34,9.43-5.16,19.29-8.81,30.3-8.45ZM119.4,40.47c-.05-3.69-.57-7.54-2.14-11.19-5.07-11.78-17.36-15.09-26.65-7.18-10.04,8.54-11.45,27.2-2.81,37.14,6.95,8,18.04,7.89,24.88-.25,4.44-5.28,6.62-11.39,6.71-18.52ZM60.64,45.1c.18-3.75-.67-7.61-2.98-11.05-3.54-5.27-9.61-5.63-13.81-.88-5.41,6.12-6.15,18.42-1.51,25.07,3.74,5.36,9.81,5.69,14.01.66,3.22-3.87,4.42-8.47,4.29-13.8ZM162.5,47.15c-.16-5.16-1.12-10.09-4.72-14.12-3.96-4.42-9.39-4.27-13.15.3-5.51,6.71-4.54,20.86,1.83,26.72,3.56,3.28,8.34,3.19,11.68-.3,3.36-3.51,4.17-7.93,4.37-12.6Z"/><path class="cls-5" d="M23.41,111.63c-.33,5.4-.65,10.81-1.01,16.21-1.24,18.73,2.38,36.81,7.28,54.73,1.7,6.2-.1,11.77-3.68,16.87-.9,1.28-2.29,1.26-3.7,1.11-4.04-.42-7.16-2.46-9.61-5.57-5.56-7.07-8.19-15.17-8.8-24.12-.83-12.34,2.41-23.89,6.22-35.37,1.31-3.95,2.4-7.99,4.15-11.79,2.13-4.63,4.96-8.76,9.14-12.07Z"/><path class="cls-5" d="M210.5,92.1c4.09,7.66,4.31,7.79,13.59,8.52-.95,3.57-3.23,6.28-5.41,9.02-7.17,9.03-16.43,15.24-27.01,19.59-3.18,1.31-6.4,2.53-9.64,3.68-1.59.56-2.65.42-2.64-1.88.04-5.25-.16-10.51-.98-15.73-.16-1.03-.19-1.86,1.39-1.97,8.57-.57,15.49-4.73,21.57-10.42,3.37-3.16,6.19-6.84,9.11-10.82Z"/><path class="cls-1" d="M241.6,146.23c3.69,1.87,7.53.65,10.9,2.69-2.12,1.95-4.84,2.06-7.25,2.49-5.57,1-11.01,2.48-16.18,4.62-7.99,3.3-16.24,3.4-24.65,3.1,0-1.57.63-2.71,1.67-3.85,7.86-8.6,17.02-15.13,28.35-18.34,2.81-.8,5.36-1.02,8.04.68,2.26,1.44,4.97,1.55,7.63,1.12,1.96-.31,3.84-.87,5.91-.44,3.41.7,5.52,2.91,5.6,6.37.03,1.48-.63,2.58-1.92,3.36-1.52.92-2.06-.32-2.85-1.14-1.25-1.29-2.91-1.84-4.59-2.25-2.39-.58-7.54.15-10.66,1.59Z"/><path class="cls-1" d="M288,172.74c-5.79-.11-7.27-1.32-9.02-6.23-.62-1.73.76-1.33,1.39-1.49,6.86-1.72,13.27-.47,19.26,3.12,1.41.84,2.89,1.48,4.35,2.19,4.52,2.18,5.57,6.8,2.26,9.89-1.14,1.06-2.63,1.7-3.69.04-3.65-5.72-8.91-7.95-14.56-7.51Z"/><path class="cls-1" d="M254.85,191.51c-3.61.4-3.98,0-2.65-2.94,3.03-6.7,7.2-12.56,12.93-17.25.7-.57,1.44-1.1,2.22-1.55,4.21-2.44,6.9-.93,7.26,3.98.05.7-.32,1.03-.74,1.3-5.05,3.19-8.56,7.56-11.23,12.95-1.4,2.83-4.83,3.57-7.79,3.52Z"/><path class="cls-1" d="M189.16,172.63c-1.32,2.7-3.08,5.1-4.94,7.44-.34.42-.75.79-1.15,1.15-3.87,3.51-6.47,3.41-9.94-.38-.52-.57-.28-1.19-.14-1.8.69-2.99,1.45-5.97,2.08-8.98.29-1.39.9-1.33,2.1-1.08,3.8.78,7.27,2.87,11.27,2.81.55,0,.81.27.72.84Z"/><path class="cls-5" d="M221.42,96.99c-3.99.11-8.32-5.03-7.48-8.61.16-.67.57-1.36,1.06-1.84,1.83-1.8,6.77-1.26,8.92.9,2.26,2.27,2.49,5.75.54,8-.88,1.01-2.03,1.46-3.04,1.56Z"/><path class="cls-1" d="M273.27,149.81c-.26,2.42-2.55,1.77-3.88,2.51-1.37.76-1.69-.28-2-1.28-.84-2.73-1.67-5.47-2.55-8.19-.27-.83-.6-1.61.63-1.82,1.11-.19,2.14-2,3.32-.45,2.08,2.74,3.68,5.76,4.48,9.23Z"/><path class="cls-5" d="M209.42,82.12c.16-1.28.58-2.4,1.93-2.25,1.34.15,2.63,1.36,2.46,2.46-.18,1.13-1.69,2.38-2.87,2.43-1.41.06-1.13-1.72-1.52-2.65Z"/><path class="cls-7" d="M292.43,185.13c-1.32.87-1.95,3-3.96,2.12-.9-.4-.96-1.56-.52-2.14,1.34-1.75,2.95.2,4.48.02Z"/><path class="cls-7" d="M222.03,203.77c3.62-.41,7.33.12,10.83-1.36-3.37,2.67-7.2,1.1-10.83,1.36Z"/><path class="cls-7" d="M166.54,205.45c2.38-1.11,4.47-1.38,6.67-.92-2.03.59-4.05,1.31-6.67.92Z"/><path class="cls-2" d="M237.52,197.83c.14-.43.51-.93.84-.62.55.49.01.84-.48,1.05-.12-.14-.25-.29-.37-.43Z"/><path class="cls-2" d="M236.04,200.16c-.08.07-.17.15-.25.22.02-.05.03-.12.07-.14.06-.03.14-.03.21-.05,0,0-.03-.03-.03-.03Z"/><path class="cls-7" d="M234.19,201.82c-.24.14-.42.7-.75.31-.31-.37.31-.43.44-.69.1.13.21.25.31.38Z"/><path class="cls-2" d="M236.59,199.62c-.18.18-.37.36-.55.54,0,0,.03.03.03.03.18-.18.37-.36.55-.55,0,0-.03-.03-.03-.03Z"/><path class="cls-2" d="M236.62,199.65c.05-.15.1-.3.15-.45.44.35-.01.32-.18.42,0,0,.03.03.03.03Z"/><path class="cls-2" d="M234.31,201.15c.16-.19.32-.48.57-.12.03.04-.2.25-.3.38-.09-.08-.18-.17-.26-.26Z"/><path class="cls-2" d="M237.89,198.26c-.14.2-.31.47-.55.21-.08-.08.11-.42.18-.64.12.14.25.29.37.43Z"/><path class="cls-2" d="M234.58,201.41c-.13.14-.26.27-.38.41-.1-.13-.21-.25-.31-.38.14-.1.29-.19.43-.29.09.09.17.17.26.26Z"/><path class="cls-6" d="M101.45,209.98c-15.07.72-24.84-5.62-29.16-19.7-5.28-17.21-2.26-32.9,10.66-45.98,4.11-4.17,9.27-6.46,15.27-6.96,13.36-1.12,22.17,5.62,28.04,16.63,7.28,13.64,7.98,27.87.87,41.81-4.97,9.74-12.97,15.26-24.48,14.22-.54-.05-1.09,0-1.19,0ZM128.15,176.22c-.15-9.05-2.38-17.46-7.83-24.76-8.69-11.62-19.7-12.74-30.39-7.62-5.47,2.62-9.18,7.41-11.71,12.87-6.26,13.52-6.83,27.02,1.37,39.98,4.14,6.55,10.19,10.1,18.31,9.63,2.4-.14,4.84-.34,7.24-.16,6.29.48,11.08-2.35,15.01-6.81,5.8-6.58,7.83-14.57,8-23.13Z"/><path class="cls-3" d="M100.09,97.1c-11.01-.35-20.87,3.29-30.3,8.45-2.08,1.14-3.97,2.54-5.55,4.34-.88,1-1.89,2.04-3.19.84-1.16-1.08-.79-2.5.35-3.3,2.9-2.03,2.61-4.01.59-6.56-1.56-1.97-2.6-4.35-3.91-6.53-1.02-1.68-.85-2.88,1.17-3.56,2.47-.83,4.4-2.45,6.18-4.32,3.17-3.34,4.5-3.05,6.3,1.32,1.21,2.93,2.37,5.88,3.5,8.85.49,1.28,1.1,1.52,2.44,1,15.47-5.97,30.97-6.03,46.43,0,1.34.52,1.96.28,2.44-1,1.13-2.97,2.29-5.92,3.5-8.85,1.8-4.36,3.13-4.65,6.3-1.32,1.78,1.87,3.7,3.49,6.18,4.32,2.02.68,2.19,1.87,1.18,3.55-1.74,2.87-3.34,5.83-5.19,8.62-.82,1.24-.84,1.99.34,2.9.78.6,1.48,1.36,2.06,2.16.63.88.69,1.92-.16,2.72-.92.86-1.85.49-2.66-.26-10.75-9.93-23.82-13.24-37.99-13.4ZM68.22,88.7c-.92.85-1.66,1.4-2.22,2.08-1.12,1.37-3.91,1.5-3.86,3.18.05,1.67,1.6,3.35,2.62,4.94,3.08,4.82,1.77,3.88,6.89,1.39.86-.42.83-.93.49-1.74-1.31-3.15-2.53-6.33-3.92-9.85ZM133.52,88.67c-1.24,3.23-2.19,6.15-3.48,8.91-.78,1.66-.66,2.42,1.04,3.27,3.66,1.82,3.61,1.93,5.81-1.72.88-1.47,1.71-2.97,2.59-4.44.41-.69.62-1.22-.36-1.67-2.07-.94-3.69-2.54-5.6-4.35Z"/><path class="cls-3" d="M119.4,40.47c-.1,7.13-2.27,13.24-6.71,18.52-6.84,8.14-17.93,8.25-24.88.25-8.64-9.95-7.24-28.6,2.81-37.14,9.29-7.91,21.58-4.6,26.65,7.18,1.57,3.64,2.08,7.49,2.14,11.19ZM115.68,40.35c.21-4.83-1.11-9.19-3.85-13.12-4.36-6.26-11.85-7.63-17.6-3.27-9.42,7.14-11.4,23.47-3.96,32.67,4.48,5.54,11.2,6.55,16.93,2.29,6.17-4.6,8.36-11.16,8.49-18.57Z"/><path class="cls-6" d="M60.64,45.1c.12,5.33-1.07,9.93-4.29,13.8-4.19,5.03-10.27,4.7-14.01-.66-4.64-6.66-3.9-18.95,1.51-25.07,4.2-4.75,10.27-4.38,13.81.88,2.31,3.43,3.16,7.29,2.98,11.05ZM43.07,47.2c-.12,2.69.47,5.5,1.88,8.11,2.34,4.31,5.99,4.58,8.99.69,3.74-4.84,4.14-14.36.83-19.59-2.31-3.64-5.7-3.85-8.35-.43-2.48,3.2-3.45,6.92-3.35,11.21Z"/><path class="cls-6" d="M162.5,47.15c-.19,4.67-1.01,9.1-4.37,12.6-3.34,3.49-8.11,3.57-11.68.3-6.37-5.86-7.34-20.01-1.83-26.72,3.76-4.57,9.18-4.72,13.15-.3,3.61,4.03,4.56,8.96,4.72,14.12ZM158.7,47.03c.1-4.22-.91-8.11-3.64-11.38-2.3-2.76-5.16-2.77-7.38-.19-4.41,5.11-3.76,17.05,1.18,21.67,2.58,2.41,5.03,2.25,7.14-.6,2.08-2.8,2.75-6.05,2.7-9.49Z"/><path class="cls-3" d="M218.16,177.25c.67,3.42,1.24,6.63.54,9.9-.25,1.19-.72,2.17-2.1,1.92-1.25-.22-1.44-1.28-1.23-2.35.62-3.22,0-6.28-.92-9.35-.76-2.58.22-3.88,2.89-3.86,3.71.02,7.43.25,11.14.29,2.84.03,4.53,1.48,5.48,4.03.87,2.33,1.29,4.71,1.14,7.19-.06,1.02-.51,1.81-1.58,1.87-1.2.07-1.71-.72-1.91-1.86q-1.37-7.76-9.09-7.8c-1.35,0-2.7,0-4.35,0Z"/><path class="cls-4" d="M128.15,176.22c-.17,8.56-2.2,16.54-8,23.13-3.93,4.46-8.71,7.29-15.01,6.81-2.4-.18-4.85.02-7.24.16-8.12.47-14.16-3.09-18.31-9.63-8.2-12.96-7.63-26.46-1.37-39.98,2.53-5.46,6.24-10.25,11.71-12.87,10.69-5.12,21.7-3.99,30.39,7.62,5.46,7.3,7.68,15.71,7.83,24.76Z"/><path class="cls-8" d="M115.68,40.35c-.13,7.41-2.32,13.97-8.49,18.57-5.72,4.27-12.45,3.25-16.93-2.29-7.43-9.19-5.45-25.52,3.96-32.67,5.75-4.36,13.24-2.99,17.6,3.27,2.74,3.93,4.06,8.29,3.85,13.12ZM104.02,41.58c-.02-2.09-1.61-3.74-3.56-3.69-2.05.05-3.87,1.99-3.9,4.15-.03,2.09,1.68,4.24,3.41,4.28,1.9.05,4.07-2.49,4.05-4.74Z"/><path class="cls-8" d="M43.07,47.2c-.1-4.29.87-8.01,3.35-11.21,2.65-3.42,6.04-3.21,8.35.43,3.31,5.23,2.91,14.75-.83,19.59-3,3.89-6.65,3.62-8.99-.69-1.42-2.6-2-5.42-1.88-8.11ZM52.5,48.14c0-1.76-.68-2.78-2.35-2.82-2.09-.06-2.8,1.22-2.82,3.11-.02,1.52.03,3.12,2.08,3.01,2.02-.11,2.85-1.59,3.08-3.29Z"/><path class="cls-8" d="M158.7,47.03c.06,3.44-.61,6.69-2.7,9.49-2.11,2.85-4.57,3.02-7.14.6-4.94-4.62-5.59-16.56-1.18-21.67,2.22-2.58,5.08-2.57,7.38.19,2.73,3.28,3.74,7.17,3.64,11.38ZM154.44,48.71c.01-1.79-.41-3.29-2.55-3.39-1.77-.08-2.69.88-2.59,2.65.11,1.91,1.05,3.32,3.05,3.47,1.86.15,2.1-1.28,2.1-2.73Z"/><path class="cls-6" d="M104.02,41.58c.02,2.25-2.15,4.79-4.05,4.74-1.73-.04-3.44-2.2-3.41-4.28.03-2.16,1.85-4.1,3.9-4.15,1.95-.05,3.54,1.6,3.56,3.69Z"/><path class="cls-6" d="M52.5,48.14c-.24,1.7-1.06,3.18-3.08,3.29-2.05.11-2.1-1.49-2.08-3.01.02-1.89.72-3.17,2.82-3.11,1.67.05,2.35,1.07,2.35,2.82Z"/><path class="cls-6" d="M154.44,48.71c0,1.45-.24,2.88-2.1,2.73-2-.16-2.94-1.56-3.05-3.47-.1-1.76.82-2.72,2.59-2.65,2.15.09,2.57,1.6,2.55,3.39Z"/></svg>