<?xml version="1.0" encoding="UTF-8"?><svg id="Calque_1" xmlns="http://www.w3.org/2000/svg" viewBox="0 0 120.33 219.11"><defs><style>.cls-1{fill:#070708;}.cls-1,.cls-2,.cls-3,.cls-4,.cls-5{stroke-width:0px;}.cls-2{fill:#e3051d;}.cls-3{fill:#070606;}.cls-4{fill:#090a09;}.cls-5{fill:#fff;}</style></defs><path class="cls-1" d="M96.01,119.28c2.37-2.89,3.56-6.23,3.91-9.83.16-1.71.02-3.45.04-5.17.01-.98-.22-2.09.97-2.6,1.25-.55,2.03.22,2.79,1.08,2.73,3.11,4.7,6.68,6.09,10.55,5,13.97,8.49,28.35,10.15,43.06,1.23,10.85-.52,21.5-5.17,31.54-2.37,5.13-6.74,7-11.92,7.72-4.42.61-4.65.77-3.72,5.21.92,4.38,1.27,9,4.87,12.43,1.17,1.12.63,2.52-.87,3.33-1.39.74-2.92,1-4.45,1.14-6.84.64-13.64,2.13-20.58.9-2.89-.51-5.58-1.57-8.3-2.56-1.11-.4-1.6-1.35-2.1-2.36-2.1-4.32-2.46-8.9-2.02-13.56.16-1.62.03-2.23-1.83-2.18-4.09.12-4,0-4.1,4.06-.36,13.54-3.03,14.82-16.03,16.39-6.43.78-12.84-.69-19.21-1.61-4.1-.59-4.48-2.23-1.96-5.54,2.75-3.61,3.1-8.03,3.78-12.32.09-.54,0-.86-.71-1.15-9.98-3.99-16.95-11.45-22.08-20.5C.14,171.29.17,164.3.02,157.44c-.26-12.04,2.05-23.63,5.18-35.14,2.48-9.11,3.76-18.48,5.93-27.66.66-2.8-.31-5.39-.67-8.06-.18-1.33-.62-2.93,1.18-3.44,1.91-.54,2.34,1.07,2.98,2.42,1.34,2.83,2.82,5.59,4.45,8.78.8-4.15,1.41-7.78,2.21-11.38,2.2-9.96,6.71-19.12,10.18-28.63,1.15-3.15,1.82-6.22,1.2-9.55-.25-1.33.06-2.7,1.68-2.92,1.68-.23,2.17,1.15,2.34,2.44.52,3.92,1.85,7.7,1.91,12.37,2.74-2.72,4.22-5.45,5.27-8.39.79-2.21,1.36-4.52,1.8-6.83,1.18-6.15,4.48-11.45,6.7-17.18,2.13-5.49,4.17-11.01,6.26-16.52.61-1.62,1.11-3.2.52-4.99-.36-1.09-.15-2.27,1.18-2.66,1.51-.45,2.14.66,2.59,1.79,1.36,3.37,2.32,6.84,3.09,10.4,1.44,6.68,4.99,12.39,8.61,18.05,4.06,6.33,5.93,13.32,6.49,20.79.63,8.54-.23,17.04,0,25.62,2-3.3,2.91-6.88,2.39-10.81-.23-1.69-1.54-3.97,1.02-4.53,2.44-.53,2.24,2.02,2.64,3.59,1.35,5.17,3.94,9.91,4.97,15.21,2.16,11.14,4.17,22.29,4.19,33.69,0,1.79-.19,3.59-.29,5.38ZM61.47,11.25c-.96,2.54-1.97,5.07-2.88,7.63-3.39,9.55-8.83,18.3-10.79,28.44-1.12,5.8-4.73,10.33-9.22,14.12-.74.62-1.46,1.15-2.43.65-.83-.42-1.01-1.2-1.02-2.07,0-.99-.11-1.99-.17-2.98-2.87,6.03-5.28,12.09-7.54,18.2-2.84,7.68-5.08,15.5-4.43,23.84.07.89-.07,1.83-.3,2.69-.3,1.12-.59,2.51-2,2.61-1.56.11-2.07-1.24-2.47-2.48-.76-2.36-1.56-4.7-3.16-6.92-.23.58-.41.9-.48,1.25-1.17,5.87-2.26,11.76-3.51,17.62-2.84,13.37-7.28,26.39-7.37,40.33-.06,9.72.15,19.12,6.73,27.03,5,6.01,10.1,11.99,18.3,13.77,1.29.28,1.17.99,1.12,1.99-.22,5.22-1.06,10.3-3.44,15-.76,1.5-.11,1.63,1.12,1.73,2.17.17,4.33.41,6.5.67,6.1.74,12.11.81,17.99-1.48,1.52-.59,2.34-1.42,2.9-2.9,1.59-4.23,1.57-8.52.69-12.85-.46-2.25.35-3.32,2.66-3.2,2.98.15,5.94-.09,8.94.42,2.52.43,2.97,1.42,2.51,3.65-.89,4.34-.78,8.64.87,12.84.5,1.28,1.28,1.96,2.59,2.49,8.69,3.53,17.42,1.58,26.46.64-2.71-5.14-3.81-10.33-4.05-15.73-.06-1.28-.74-1.91-1.96-2.22-1-.25-1.45-1.06-1.29-2.11.17-1.12.98-1.43,1.98-1.46,1.63-.04,3.27-.01,4.9-.11,6.41-.36,11.8-2.43,13.82-9.22,2.2-7.42,4.01-14.99,3.42-22.77-1.06-13.8-4.05-27.25-8.46-40.38-1.12-3.33-1.78-6.84-3.89-9.77-.71.32-.63.92-.72,1.44-1.06,5.77-3.67,10.79-7.33,15.31-.93,1.15-1.99,2.4-3.65,1.67-1.77-.78-1.05-2.47-.98-3.86.01-.27.14-.53.16-.8.33-4.25,1.61-8.45,1.23-12.71-.98-11.02-2.26-22.02-4.97-32.79-.33-1.31-.44-2.79-1.65-4.03-1.51,4.66-4.6,8.05-7.28,11.7-.65.89-1.53,1.7-2.78,1.01-1.11-.61-.94-1.65-.69-2.65,2.59-10.26,2.3-20.73,2.11-31.17-.12-6.88-1.63-13.56-5.22-19.51-4.32-7.16-9.01-14.1-10.85-22.57Z"/><path class="cls-2" d="M61.47,11.25c1.84,8.47,6.54,15.41,10.85,22.57,3.59,5.96,5.1,12.63,5.22,19.51.18,10.44.47,20.91-2.11,31.17-.25,1-.41,2.04.69,2.65,1.25.69,2.13-.12,2.78-1.01,2.68-3.65,5.77-7.04,7.28-11.7,1.22,1.25,1.32,2.72,1.65,4.03,2.71,10.77,3.99,21.77,4.97,32.79.38,4.26-.9,8.46-1.23,12.71-.02.27-.14.53-.16.8-.07,1.4-.8,3.08.98,3.86,1.65.73,2.72-.52,3.65-1.67,3.67-4.51,6.27-9.54,7.33-15.31.1-.52.01-1.12.72-1.44,2.11,2.93,2.78,6.45,3.89,9.77,4.41,13.12,7.4,26.57,8.46,40.38.59,7.78-1.21,15.36-3.42,22.77-2.02,6.79-7.4,8.87-13.82,9.22-1.63.09-3.27.07-4.9.11-.99.02-1.81.33-1.98,1.46-.16,1.04.29,1.86,1.29,2.11,1.22.31,1.91.94,1.96,2.22.23,5.4,1.34,10.58,4.05,15.73-9.04.94-17.77,2.89-26.46-.64-1.3-.53-2.08-1.21-2.59-2.49-1.65-4.2-1.76-8.5-.87-12.84.46-2.23,0-3.22-2.51-3.65-3-.51-5.96-.27-8.94-.42-2.31-.12-3.12.95-2.66,3.2.88,4.33.9,8.62-.69,12.85-.55,1.48-1.37,2.31-2.9,2.9-5.88,2.28-11.89,2.21-17.99,1.48-2.16-.26-4.33-.5-6.5-.67-1.22-.1-1.87-.23-1.12-1.73,2.38-4.7,3.22-9.78,3.44-15,.04-1,.17-1.71-1.12-1.99-8.2-1.77-13.29-7.75-18.3-13.77-6.58-7.9-6.79-17.31-6.73-27.03.09-13.95,4.53-26.96,7.37-40.33,1.24-5.86,2.33-11.75,3.51-17.62.07-.34.25-.66.48-1.25,1.61,2.22,2.4,4.56,3.16,6.92.4,1.24.91,2.59,2.47,2.48,1.41-.1,1.7-1.49,2-2.61.23-.87.37-1.8.3-2.69-.65-8.35,1.59-16.16,4.43-23.84,2.26-6.11,4.67-12.17,7.54-18.2.06.99.16,1.99.17,2.98,0,.88.19,1.65,1.02,2.07.98.5,1.7-.03,2.43-.65,4.49-3.79,8.1-8.32,9.22-14.12,1.96-10.14,7.4-18.89,10.79-28.44.91-2.56,1.92-5.09,2.88-7.63ZM80.73,142.18c.05-.61.1-.97.11-1.33.04-1.15-.19-2.24-1.31-2.78-1.27-.61-2.02.27-2.71,1.17-1.06,1.39-2.68,1.81-4.2,2.39-7.86,3.01-16.15,4.13-24.39,5.46-6.69,1.07-13.4.57-20.08-.14-3.95-.42-3.86-.59-3.9,3.49-.03,4.3-.55,8.52-2.72,12.37-.64,1.13-1.24,2.41-.17,3.52.95.98,2.2.49,3.33.09,2.48-.88,4.88-1.96,7.51-2.41,13.09-2.21,26.06-1.12,38.94,1.54,6.85,1.41,7.77.97,9.47-5.94.3-1.22.41-2.51.41-3.77-.03-4.63.31-9.27-.28-13.64ZM55.19,99.35c.03,6.97,1.77,13.32,7.17,18.1,4.62,4.09,10.12,3.13,13.4-2.08,5.15-8.19,2.13-23.48-5.77-29.14-3.31-2.38-7.79-2.04-10.66.86-3.37,3.4-4.18,7.69-4.14,12.27ZM51.06,98.21c.15-2.97-.48-6.5-2.48-9.68-3.17-5.03-8.64-5.88-13.24-2.1-6.54,5.36-9.31,17.8-5.87,26.3,3.13,7.71,10.67,8.95,16.08,2.58,3.99-4.7,5.59-10.26,5.51-17.1Z"/><path class="cls-3" d="M80.73,142.18c.59,4.37.26,9.01.28,13.64,0,1.26-.11,2.55-.41,3.77-1.69,6.91-2.62,7.36-9.47,5.94-12.88-2.66-25.85-3.75-38.94-1.54-2.63.44-5.03,1.53-7.51,2.41-1.13.4-2.37.89-3.33-.09-1.07-1.11-.47-2.39.17-3.52,2.17-3.85,2.68-8.07,2.72-12.37.03-4.08-.06-3.91,3.9-3.49,6.68.71,13.39,1.21,20.08.14,8.24-1.32,16.53-2.45,24.39-5.46,1.51-.58,3.14-1,4.2-2.39.69-.9,1.44-1.79,2.71-1.17,1.12.54,1.35,1.63,1.31,2.78-.01.36-.06.72-.11,1.33ZM76.83,144.11c-2.47.85-4.96,1.65-7.39,2.57-2.02.76-.57,2.51-.91,3.76-.2.72.05,1.29,1.04,1.5,7.24,1.56,9.35-.67,7.26-7.84ZM68.53,158.46c-1.07,2.33.45,2.87,2.37,3.17,1.07.17,2.11.49,3.17.71.61.13,1.32.31,1.7-.39.98-1.85,2.03-3.96,1.44-5.89-.45-1.46-2.56-.43-3.91-.65-.53-.09-1.09.04-1.62-.02-2.25-.26-3.8.2-3.14,3.09ZM63.58,160.4c1.48.42,1.44-.97,1.44-2.15,0-1.14.58-2.68-1.64-2.55-2.53.15-5.08.13-7.62.1-1.33-.01-1.72.6-1.68,1.83.03,1.07-.03,1.9,1.48,1.97,2.53.12,5.04.48,8.01.79ZM59.04,152.03s0-.06,0-.09c1.62,0,3.24,0,4.86,0,1.9-.01,1.14-1.46,1.19-2.37.04-.71.25-1.77-1.17-1.51-2.92.53-5.85,1.03-8.78,1.52-1.15.2-1.03,1.04-.99,1.86.05.98.73.79,1.37.75,1.17-.07,2.34-.11,3.51-.16ZM45.19,159.14s0-.06,0-.09c1.26,0,2.53-.03,3.79.01.95.03,1.81.16,1.71-1.29-.07-1.09-.09-1.96-1.57-1.85-2.79.2-5.58.32-8.37.44-.89.04-1.33.35-1.27,1.3.06.91.24,1.56,1.39,1.51,1.44-.07,2.88-.02,4.32-.02ZM26.62,161.65c2.85-1.08,5.6-1.48,8.37-1.81,1.37-.16,1.17-1.03,1.16-1.92,0-1.19-.86-.97-1.52-.88-1.6.2-3.19.64-4.79.7-2.35.1-3.32,1.25-3.21,3.91ZM29.61,150.42c-.31.03-1.23-.47-1.45.58-.22,1.05-.56,2.23-.27,3.18.32,1.03,1.39.21,2.12.11,1.69-.21,3.37-.52,5.06-.7,1.01-.11,1.04-.75,1.09-1.51.06-.88-.43-1.03-1.14-1.09-1.7-.15-3.39-.35-5.41-.56ZM40.82,152.94c2.87-.57,5.78-.29,8.66-.45.82-.04,1.41-.18,1.38-1.19-.03-.76-.48-.95-1.07-.83-3.04.58-6.12.58-9.19.57-.84,0-1.07.51-.99,1.25.09.81.67.69,1.21.65Z"/><path class="cls-3" d="M55.19,99.35c-.04-4.58.77-8.87,4.14-12.27,2.87-2.9,7.35-3.24,10.66-.86,7.89,5.66,10.92,20.95,5.77,29.14-3.28,5.21-8.78,6.17-13.4,2.08-5.4-4.78-7.14-11.13-7.17-18.1ZM74.5,105.62c-.03-5.59-1.28-9.98-4.11-13.83-1.43-1.95-3.25-3.68-5.84-3.39-2.8.31-4.05,2.63-4.78,5.03-2.19,7.19-.74,13.78,3.62,19.8.52.71,1.26,1.31,2,1.81,2.78,1.86,5.14,1.38,6.98-1.38,1.78-2.68,2.19-5.71,2.13-8.03Z"/><path class="cls-3" d="M51.06,98.21c.08,6.84-1.52,12.4-5.51,17.1-5.41,6.37-12.95,5.14-16.08-2.58-3.45-8.5-.68-20.94,5.87-26.3,4.6-3.77,10.07-2.93,13.24,2.1,2,3.18,2.63,6.71,2.48,9.68ZM31.77,105.25c-.04,1.48.22,3.8,1.16,6.02,2.15,5.07,6.46,5.86,9.83,1.52,4.62-5.96,5.96-12.72,3.72-20.01-.71-2.3-1.93-4.51-4.58-4.91-2.62-.39-4.44,1.31-5.9,3.24-2.95,3.9-4.2,8.38-4.22,14.14Z"/><path class="cls-5" d="M76.83,144.11c2.09,7.16-.02,9.39-7.26,7.84-.99-.21-1.24-.78-1.04-1.5.34-1.25-1.12-3,.91-3.76,2.44-.92,4.93-1.72,7.39-2.57Z"/><path class="cls-5" d="M68.53,158.46c-.66-2.89.9-3.35,3.14-3.09.53.06,1.09-.07,1.62.02,1.35.22,3.46-.81,3.91.65.59,1.94-.46,4.04-1.44,5.89-.37.71-1.08.52-1.7.39-1.06-.22-2.1-.54-3.17-.71-1.92-.3-3.43-.83-2.37-3.17Z"/><path class="cls-5" d="M63.58,160.4c-2.97-.31-5.48-.67-8.01-.79-1.51-.07-1.45-.9-1.48-1.97-.04-1.24.35-1.84,1.68-1.83,2.54.02,5.08.04,7.62-.1,2.22-.13,1.64,1.41,1.64,2.55,0,1.19.04,2.57-1.44,2.15Z"/><path class="cls-5" d="M59.04,152.03c-1.17.05-2.34.09-3.51.16-.64.04-1.32.23-1.37-.75-.04-.81-.16-1.66.99-1.86,2.93-.5,5.86-.99,8.78-1.52,1.42-.26,1.21.81,1.17,1.51-.05.91.71,2.36-1.19,2.37-1.62,0-3.24,0-4.86,0,0,.03,0,.06,0,.09Z"/><path class="cls-5" d="M45.19,159.14c-1.44,0-2.89-.05-4.32.02-1.15.06-1.33-.6-1.39-1.51-.06-.95.38-1.26,1.27-1.3,2.79-.12,5.58-.24,8.37-.44,1.48-.11,1.5.76,1.57,1.85.1,1.45-.76,1.32-1.71,1.29-1.26-.04-2.52-.01-3.79-.01,0,.03,0,.06,0,.09Z"/><path class="cls-5" d="M26.62,161.65c-.11-2.67.86-3.81,3.21-3.91,1.6-.07,3.19-.5,4.79-.7.67-.09,1.52-.3,1.52.88,0,.89.21,1.76-1.16,1.92-2.76.32-5.52.72-8.37,1.81Z"/><path class="cls-5" d="M29.61,150.42c2.03.21,3.72.41,5.41.56.71.06,1.2.21,1.14,1.09-.05.76-.08,1.4-1.09,1.51-1.69.18-3.37.49-5.06.7-.73.09-1.8.91-2.12-.11-.29-.94.04-2.13.27-3.18.22-1.05,1.14-.54,1.45-.58Z"/><path class="cls-5" d="M40.82,152.95c-.54.03-1.13.15-1.21-.66-.08-.75.16-1.26.99-1.25,3.08.01,6.15.01,9.19-.57.59-.11,1.04.08,1.07.83.03,1.01-.56,1.15-1.38,1.19-2.89.16-5.8-.12-8.66.45Z"/><path class="cls-5" d="M74.5,105.62c.06,2.31-.35,5.34-2.13,8.03-1.84,2.77-4.2,3.25-6.98,1.38-.74-.5-1.49-1.09-2-1.81-4.36-6.01-5.8-12.61-3.62-19.8.73-2.4,1.98-4.72,4.78-5.03,2.59-.29,4.41,1.44,5.84,3.39,2.84,3.85,4.08,8.24,4.11,13.83ZM70.13,103.84c.04-2.3-.79-4.05-2.5-5.33-1.82-1.35-3.41-.72-4.12,1.44-.61,1.85-.34,3.6.5,5.26.76,1.5,1.82,2.98,3.73,2.54,1.99-.46,2.52-2.15,2.39-3.91Z"/><path class="cls-5" d="M31.77,105.25c.02-5.76,1.27-10.24,4.22-14.14,1.46-1.93,3.28-3.63,5.9-3.24,2.66.4,3.88,2.61,4.58,4.91,2.24,7.28.9,14.05-3.72,20.01-3.37,4.34-7.68,3.55-9.83-1.52-.94-2.22-1.19-4.54-1.16-6.02ZM36.14,103.24c-.06,2.01.52,3.7,2.75,4.03,2.01.3,4.37-2.84,4.2-5.81-.1-1.65.1-3.91-2.52-4.12-2.28-.18-4.41,2.72-4.43,5.9Z"/><path class="cls-4" d="M70.13,103.84c.13,1.75-.4,3.44-2.39,3.91-1.92.45-2.98-1.03-3.73-2.54-.84-1.66-1.11-3.41-.5-5.26.71-2.16,2.3-2.78,4.12-1.44,1.71,1.27,2.54,3.03,2.5,5.33Z"/><path class="cls-4" d="M36.14,103.24c.02-3.18,2.14-6.08,4.42-5.9,2.62.21,2.42,2.46,2.52,4.12.17,2.97-2.19,6.11-4.2,5.81-2.22-.33-2.81-2.02-2.74-4.03Z"/></svg>