<?xml version="1.0" encoding="UTF-8"?><svg id="Calque_1" xmlns="http://www.w3.org/2000/svg" viewBox="0 0 243.78 190.09"><defs><style>.cls-1{fill:#7a5b80;}.cls-1,.cls-2,.cls-3,.cls-4,.cls-5,.cls-6,.cls-7{stroke-width:0px;}.cls-2{fill:#060805;}.cls-3{fill:#84648d;}.cls-4{fill:#080807;}.cls-5{fill:#070304;}.cls-6{fill:#0b0a0b;}.cls-7{fill:#fff;}</style></defs><path class="cls-6" d="M149.85,72.17c5.12-.6,9.83-.71,14.55-.83,4.46-.11,8.4.96,11.93,3.71,1.03.81,2.25,1.44,1.77,2.99-.46,1.51-1.83,1.52-3.12,1.62-2.64.2-5.21.74-7.72,1.57-1,.33-1.96.81-3.49,1.47,3.66,1.29,6.68,2.52,9.8,3.41,5.19,1.47,9.49,4.45,13.69,7.63,2.03,1.54,1.99,2.35-.05,4.35,2.93,1.65,5.96,3.11,8.71,4.98,2.18,1.48,4.71,2.9,4.97,6.05.05.58.52.68.89.89,8.68,4.98,16.62,10.89,23.39,18.69,1.9-2.25,2.81-4.99,3.67-7.66,3.74-11.55,5.02-23.45,4.03-35.5-1.22-14.84-3.28-29.59-5.72-44.29-.51-3.05-1.68-5.32-4.01-7.35-4.66-4.04-7.36-9.15-7.35-15.49,0-3.55,1.25-5.23,4.71-5.76,1.49-.23,1.46-.91,1.3-2.02-.43-2.96-.07-5.82,1.41-8.45,1.45-2.59,3.3-2.87,5.53-.91,1.54,1.36,2.36,3.18,3.28,4.96,4.03,7.8,5.33,15.97,3.42,24.57-.59,2.63-.47,5.23-.09,7.85,1.63,11.23,3.66,22.4,5.5,33.59,2.57,15.57,4.33,31.39,1.53,47.17-1.45,8.14-4,16.09-7.9,23.42-2.9,5.46-7.33,9.15-14.15,8.73-4.13-.25-7.51,1.44-10.49,4.29-1.51,1.44-3.48,2.75-4.23-.89-.19-.93-.91-.6-1.43-.14-8.21,7.37-18.51,9.05-28.86,10.63-1.43.22-2.88.48-4.24.96-5.55,1.98-11.34,2.2-17.12,2.59-1.17.08-2.34.39-3.5.38-2.91-.04-3.05,1.73-2.78,3.92.17,1.39.69,2.06,2.25,1.85.96-.13,1.99.1,2.96.3,3.73.79,6.38,3.28,6.5,6.04.11,2.53-3,6.82-5.87,7.56-4.35,1.13-8.82,1.3-13.22.43-3.62-.72-4.43-2.02-4.26-5.76.17-3.73.07-7.43-.44-11.13-.17-1.25-.35-1.88-1.88-1.82-8.99.34-17.94-.81-26.93-.79-1.47,0-1.67.57-1.75,1.69-.25,3.64-.11,7.26.37,10.86.62,4.76-.37,6.44-5.08,7.15-4.72.71-9.42.8-13.46-2.54-2.71-2.24-3.92-5.05-2.96-7.89,1.06-3.13,3.47-4.95,6.65-5.26,1.86-.18,2.5-.7,2.52-2.53.02-1.84-.75-2.59-2.48-2.84-12.57-1.81-25.1-3.89-37.36-7.24-5.38-1.47-10.84-2.97-15.01-7.13-.66-.66-1.47-2.06-2.66-.23-.52.8-1.77.66-2.41-.12-1.32-1.61-3.38-2.79-3.89-4.83-.85-3.43-3.69-4-6.25-4.66-4.88-1.26-8.66-3.79-11.68-7.84C2.38,124.56-.39,110.99.04,96.26c.26-8.86,2.31-17.45,2.79-26.24.17-3.08.52-6.15.72-9.23.12-1.82-.02-3.58-.75-5.33-2.71-6.53-1.88-12.8,1.64-18.79,1.3-2.22,2.69-4.52,5.78-4.13,2.15.27,4.32,3.27,4.3,6.31-.02,2.18.59,2.94,2.78,3.04,2.43.11,3.63,1.77,3.86,4.16.49,5.14-2.23,8.68-6.04,11.47-2.06,1.51-3.07,3.15-3.37,5.75-1.16,10.3-1.95,20.61-2.07,30.97-.13,11.05,2.51,21.38,8.63,30.71,1.41,2.16,3.1,4.03,5.63,4.94.7.25,1.3.54,1.92-.24.53-.67.32-1.02-.17-1.6-.65-.78-.65-1.77.14-2.46,4.83-4.16,8.22-10.05,14.95-12.35-2.77,0-3.05-1.63-2.92-3.59.14-2.17,1.13-3.95,2.36-5.69,3-4.26,7.45-7.17,10.49-11.4.91-1.27,2.17-.88,3.25.23,1.91,1.97,6.11,2.75,8.5,1.69,2.22-.98,3.04-3.96,1.89-6.87-1.38-3.47-.87-4.32,2.76-4.21,3.54.11,7.11.36,10.17,2.42,1.2.81,1.43-.15,1.8-.74,2.03-3.25,4.55-6.1,7.15-8.89,2.98-3.18,6.49-5.53,10.71-6.7,3.21-.89,4.25-.34,5.46,2.8.41,1.05.86,1,1.55.35,1.54-1.45,2.33-3.12,1.98-5.34-.51-3.19.53-3.99,3.59-3.08,2.63.78,5.11,1.9,7.41,3.33,1.53.95,2.69.85,4.07-.26,1.5-1.21,2.91-2.43,3.81-4.18.43-.83,1.07-1.58,2.14-1.31.96.24,1.39.99,1.59,1.99,1.15,5.72,1.18,5.74,6.39,3.22,4.84-2.34,9.84-4.08,15.23-4.72,3.27-.39,6.3.45,9.39,1.13.98.22,1.5,1.04,1.33,2.09-.19,1.21-1.1,1.48-2.19,1.61-3.45.41-6.08,1.87-8.85,5.05ZM45.31,105.02c2.87-.45,5.74-.86,8.66-.79.97.03,1.79.31,2.27,1.22.46.88.06,1.59-.54,2.2-3.79,3.83-7.8,7.36-13.06,9.04-3.51,1.12-5.96,3.74-8.63,6.03-.29.25-.91.55-.47,1.05,2.02,2.29.01,3.23-1.36,4.56-2.4,2.31-5.05,4.52-5.3,8.24-.08,1.16-.08,2.2,1.53,2.28,1.62.08,2.1,1.11,2.06,2.6-.05,1.93.33,3.8,1.29,5.5.44.78.76,1.57,1.97.55,1.4-1.18,2.78-.61,3.96.74,4.06,4.65,9.31,7.68,15.09,9.29,7.48,2.09,15.18,3.41,22.79,5.01,1.31.27,2.64.75,4.06.26-.94-1.29-1.1-2.69-.51-4.13.34-.85,1.06-1.23,1.98-1.09,1.02.15,1.3.89,1.27,1.79-.02.63.03,1.35-.24,1.87-.98,1.9,0,2.08,1.62,2.44,12.41,2.76,25.07,2.48,37.64,3.07,17.37.82,34.58-.62,51.6-4.42,4.13-.92,8.31-1.81,12.46-2.69,6.13-1.29,12.04-3.51,16.65-8.12.6-.6,1.94-1.21.14-2.14-1.3-.67-1.93-1.96-.8-3.12,1.26-1.3,2.47-.15,3.15.86,1.29,1.92,4.44,1.16,5.19,3.74.01.04.32.02.48-.01,2.36-.57,5.33-5.91,4.47-8.23-.8-2.16-.14-3.29,1.94-4.23,2.75-1.23,5.43-.72,8.9.01-2.15-2.81-3.81-5.12-4.71-7.83-1.06-3.21-3.54-5.16-6.14-7.03-1.4-1.01-2.76-2.07-4.12-3.13-4.66-3.63-9.42-7.08-15.02-9.18-1.32-.49-2.87-1.65-2-3,1.51-2.34-.2-2.71-1.51-3.48-4.8-2.82-9.99-4.7-15.34-6.13-2.16-.58-2.64-2.36-2.63-3.9.01-1.86,1.88-1.49,3.22-1.48.66,0,1.31,0,1.97,0-5.94-3.44-12.29-5.47-18.64-7.49-1.54-.49-3.9.23-4.12-2.15-.21-2.18,2.14-2.38,3.51-3.28.3-.2.67-.29.98-.47,2.98-1.74,6.3-2.67,9.58-3.83-7.65-1.42-15.17-1.24-22.62.71-1.09.28-2.11.75-3.05-.14-.97-.91-.52-1.97-.24-3.04.86-3.26,3.21-5.34,5.98-7.36-4.87-.08-10.82,1.9-18.16,5.92-3.21,1.75-4.65,1.28-6.18-2.05-.26-.56-.5-1.13-.84-1.89-1.73,1.91-4.37,2.37-5.58,4.78-.54,1.07-1.97,1.08-2.46.02-1.18-2.56-3.7-3.02-5.76-4.22-1.56-.9-2.06-.55-2.3,1.32-.61,4.76-5.65,8.53-10.34,8.06-1.76-.17-2.42-1-2.01-2.73.13-.55.88-1,.28-1.72-1.5-.22-2.59.72-3.7,1.41-4.23,2.66-7.37,6.41-10.2,10.44-1.46,2.08-2.76,4.29-4.91,5.77-2.07,1.43-2.93,1.04-3.49-1.41-.69-3.03-3.48-2.14-5.35-2.45-2.16-.35-.96,1.7-.99,2.55-.14,4.82-2.91,8.55-7.07,8.44-2.82-.08-5.86.57-8.5-1.13-.54-.35-1.01-.27-1.44.21-2.16,2.44-5.05,4.18-6.79,7.02-.07.19-.13.38-.2.57.21-.03.43-.06.64-.09ZM4.12,104.42c-.1,8.92,2.33,16.09,6.19,22.78,2.52,4.37,4.73,9.1,9.76,11.35,1.05.47,2.17,1.55,3.26.87,1.11-.69.34-2.18.55-3.3.24-1.31-.71-1.71-1.64-2.14-1.82-.85-3.43-1.93-4.77-3.5-6.83-7.99-9.21-17.74-11.11-27.7-1.14-5.97.1-11.95-.02-17.92-.18-9.66,1.79-19.12,2.71-28.68.11-1.19.56-2.32,1.92-2.16,3.2.39,4.41-2.15,5.97-4,.72-.85,1.53-2.41.09-3.37-1.42-.94-2.31.2-3.02,1.36-.62,1.03-1.3,2.21-2.74,1.56-1.39-.63-.96-1.96-.81-3.12.27-2.07.6-4.13.73-6.21.07-1.1-.32-2.27-1.54-2.62-1.36-.39-1.9.65-2.35,1.71-.78,1.83-1.85,3.52-2.23,5.53-.44,2.31-.84,4.46,1.5,6.1.66.46.78,1.39.78,2.25-.02,7.17-.21,14.36-1.17,21.44-1.4,10.25-3.24,20.43-2.07,29.76ZM233.59,57.41c.32,2.95.68,5.91.95,8.86,1.13,12.24,3.4,24.39,1.87,36.82-1.12,9.13-2.14,18.29-6.37,26.53-1.96,3.83-1.66,7.09-.44,10.77,1.13-.36,1.58-1.28,1.97-2.17,4.8-10.86,8.34-22.03,8.17-34.08-.21-15.81-1.88-31.43-6.15-46.74ZM232.59,48.65c0-.53.05-1.07,0-1.6-.63-6.22-1.25-12.43-1.95-18.64-.15-1.31-.36-2.7.61-3.61,1.57-1.48,1.45-3.28,1.29-5.05-.39-4.33-2.26-8.18-4.17-11.99-.31-.63-.86-1.25-1.72-1.07-.85.18-.99.93-1.2,1.64-.58,1.92.01,3.78.26,5.64.3,2.24.84,4.45,1.2,6.68.18,1.1.2,2.33-1.1,2.74-1.22.39-1.72-.69-2.22-1.56-.45-.78-.84-1.61-1.36-2.35-.38-.54-.94-.84-1.66-.56-.66.26-.97.7-1.08,1.41-.31,2.1,4.02,9.1,5.91,8.83,3.57-.51,3.57,1.82,3.98,4.04.96,5.14,1.44,10.37,3.21,15.44ZM101.06,175.2s.1,0,.15,0c0-1-.12-2.01.02-2.98.34-2.43-1.25-2.57-2.98-2.76-2.06-.22-1.84,1.16-1.87,2.44-.04,1.61.39,3.51-.3,4.77-.91,1.63-3.02.16-4.55.59-.17.05-.36.02-.54.07-1.75.46-3.3,1.3-3.76,3.15-.46,1.84.74,3.02,2.11,4.06,3.1,2.35,6.53,2.17,10.11,1.6,1.78-.28,2.52-.93,2.28-2.82-.35-2.69-.46-5.4-.68-8.1ZM139.46,179.77c.28,1.05.28,2.32.02,3.58-.42,2,.58,2.88,2.42,3.04,3.36.3,6.73.33,10-.55,2.05-.55,3.77-2.2,3.63-4.22-.13-1.99-2.4-2.41-4.22-2.71-.53-.09-1.09-.05-1.63-.02q-4.32.24-5.11-3.91c-.08-.44-.31-.91-.24-1.33.53-3.2-1.21-3.32-3.68-3.02-1.4.17-2.05.49-1.72,1.91.54,2.32.53,4.68.53,7.24ZM221.75,145.55c1.03-.52,3.64-.17,3.32-1.45-.31-1.25-1.95-3.22-4.25-2.88-.91.13-2.21-.25-2.02,1.39.18,1.62.6,3.11,2.96,2.93ZM49.38,108.31c-3.47.29-5.74,1.51-7.23,4.07,2.48-.74,4.89-1.6,7.23-4.07ZM233.35,53.34c-.32.87-.26,1.61.11,2.62.33-1.06.25-1.8-.11-2.62ZM232.85,52.09c.44-.5.34-1,.02-1.51-.44.51-.31,1-.02,1.51ZM98.12,73.59c.07-.05.13-.1.2-.15-.05-.06-.1-.17-.16-.18-.06,0-.13.08-.2.13l.16.19ZM41.33,112.73c.07.07.13.13.19.19.06-.12.14-.24.17-.37,0-.04-.11-.12-.17-.18-.07.12-.13.24-.19.35Z"/><path class="cls-3" d="M44.87,104.55c1.74-2.84,4.63-4.58,6.79-7.02.42-.48.89-.56,1.44-.21,2.65,1.71,5.68,1.05,8.5,1.13,4.16.12,6.93-3.62,7.07-8.44.02-.85-1.17-2.9.99-2.55,1.87.31,4.66-.59,5.35,2.45.56,2.46,1.42,2.84,3.49,1.41,2.15-1.49,3.45-3.69,4.91-5.77,2.83-4.03,5.97-7.79,10.2-10.44,1.11-.7,2.2-1.63,3.7-1.41.6.71-.15,1.17-.28,1.72-.42,1.73.25,2.55,2.01,2.73,4.69.47,9.73-3.3,10.34-8.06.24-1.86.74-2.22,2.3-1.32,2.07,1.19,4.59,1.66,5.76,4.22.49,1.06,1.92,1.05,2.46-.02,1.21-2.4,3.85-2.86,5.58-4.78.34.76.58,1.33.84,1.89,1.53,3.33,2.97,3.8,6.18,2.05,7.35-4.02,13.29-5.99,18.16-5.92-2.77,2.02-5.13,4.11-5.98,7.36-.28,1.07-.73,2.14.24,3.04.95.89,1.97.42,3.05.14,7.45-1.95,14.98-2.13,22.62-.71-3.28,1.16-6.59,2.09-9.58,3.83-.31.18-.68.27-.98.47-1.37.91-3.72,1.1-3.51,3.28.23,2.38,2.58,1.66,4.12,2.15,6.35,2.02,12.7,4.04,18.64,7.49-.66,0-1.31,0-1.97,0-1.34,0-3.2-.38-3.22,1.48-.01,1.54.47,3.32,2.63,3.9,5.34,1.44,10.53,3.32,15.34,6.13,1.31.77,3.02,1.14,1.51,3.48-.87,1.35.69,2.5,2,3,5.6,2.1,10.36,5.55,15.02,9.18,1.36,1.06,2.72,2.12,4.12,3.13,2.6,1.87,5.08,3.81,6.14,7.03.9,2.71,2.56,5.02,4.71,7.83-3.47-.73-6.15-1.24-8.9-.01-2.09.94-2.75,2.07-1.94,4.23.86,2.32-2.12,7.66-4.47,8.23-.16.04-.47.05-.48.01-.75-2.58-3.89-1.82-5.19-3.74-.68-1.02-1.89-2.16-3.15-.86-1.13,1.16-.5,2.46.8,3.12,1.8.93.46,1.54-.14,2.14-4.61,4.61-10.51,6.83-16.65,8.12-4.15.87-8.32,1.76-12.46,2.69-17.02,3.8-34.23,5.23-51.6,4.42-12.57-.59-25.23-.31-37.64-3.07-1.62-.36-2.59-.54-1.62-2.44.27-.53.21-1.24.24-1.87.03-.89-.25-1.63-1.27-1.79-.92-.14-1.64.25-1.98,1.09-.59,1.44-.43,2.83.51,4.13-1.42.49-2.75.02-4.06-.26-7.61-1.6-15.31-2.92-22.79-5.01-5.78-1.61-11.02-4.65-15.09-9.29-1.18-1.35-2.56-1.92-3.96-.74-1.21,1.02-1.53.23-1.97-.55-.95-1.7-1.33-3.57-1.29-5.5.04-1.49-.44-2.53-2.06-2.6-1.6-.08-1.61-1.12-1.53-2.28.25-3.72,2.9-5.93,5.3-8.24,1.37-1.32,3.38-2.26,1.36-4.56-.44-.5.18-.8.47-1.05,2.68-2.3,5.12-4.91,8.63-6.03,5.27-1.68,9.27-5.22,13.06-9.04.6-.61,1.01-1.32.54-2.2-.48-.91-1.29-1.2-2.27-1.22-2.92-.08-5.79.34-8.66.79-.15-.16-.3-.32-.44-.48ZM206.43,126.57c-.44.32-.87.1-1.26-.09-1.12-.53-2.16-.57-2.79.65-.61,1.19.3,1.76,1.13,2.38.93.7,1.83,1.47,2.64,2.31,1.38,1.43,2.75,2.84,3.73,4.62.64,1.15,1.43,2.66,3.1,1.65,1.56-.94.53-2.19-.02-3.3-.78-1.56-2.01-2.76-3.08-4.1-.97-1.22-2.65-1.85-2.96-3.61.32.1.74.1.96.31,1.08,1.03,2.34,2.27,3.62.75,1.37-1.62-.57-2.44-1.43-3.46-.17-.2-.39-.37-.61-.52-.93-.64-1.89-1.09-2.94-.25-1.05.84-.49,1.75-.09,2.65ZM58.74,137.29c4.32,4.14,9.09,6.85,14.25,8.94,13.5,5.46,27.71,7.04,42.08,7.49,11.54.36,23.02-.59,34.38-2.68,12.45-2.3,24.56-5.69,35.5-12.37.88-.54,1.59-1.49,2.8-1.43.1,3.68-.16,4.59-2.13,7.06-.8,1-1.47,2-.22,3.05,1.14.96,1.99.12,2.81-.65,4.12-3.89,4.29-13.72.28-17.76-.32-.32-.64-.65-1.02-.89-1.08-.68-2.39-1-3.18.12-.75,1.07-.45,2.24,1.01,2.82,1.49.6.97,1.26-.07,1.78-2.11,1.05-4.18,2.2-6.37,3.05-14.88,5.8-30.53,7.82-46.31,8.57-15.32.73-30.64.19-45.8-2.6-8.85-1.63-17.58-3.65-25.59-7.97-2.61-1.41-2.65-2.18-.43-4.02.28-.23.62-.37.92-.58.84-.6,1.16-1.43.72-2.37-.48-1.02-1.46-1.05-2.36-.8-1.84.51-3.13,1.75-4.07,3.39-2.46,4.31-1.4,14.44,1.88,18.13.76.85,1.66,1.13,2.67.6.94-.49,1.17-1.41.88-2.34-.26-.86-.72-1.66-1.12-2.47-.88-1.76-1.57-3.57-1.51-6.05ZM147.11,109.19c2.57.13,5.11-.03,7.5-.99,1.89-.75,3.63-1.79,3.88-4.12.25-2.33-1.13-3.78-2.96-4.78-6.28-3.42-12.91-3.88-19.71-1.92-1.96.57-3.7,1.79-3.97,4.05-.27,2.29,1.24,3.73,2.99,4.81,3.75,2.32,7.95,2.89,12.26,2.95ZM95.78,109.78c5.61-.06,9.91-.63,13.75-2.99,1.75-1.07,3.26-2.51,3-4.8-.26-2.27-2.05-3.28-3.94-4.1-1.95-.84-4.08-1.05-6.12-1.06-4.82-.03-9.62.42-13.84,3.13-1.67,1.07-2.95,2.44-2.74,4.65.21,2.1,1.71,3.15,3.38,3.92,2.44,1.12,5.07,1.33,6.52,1.25ZM95.76,86.72c-2.3.35-4.98.69-7.64,1.2-1.05.2-2.22.73-1.96,2.14.25,1.31,1.41,1.22,2.41,1.11,3.14-.34,6.27-.72,9.4-1.1.91-.11,1.55-.57,1.57-1.55.02-.98-.65-1.46-1.5-1.64-.61-.13-1.26-.1-2.28-.16ZM126.32,84.06c-.08,1.77.42,2.88,1.96,3.08,1.06.14,1.88-.54,1.74-1.58-.33-2.49.83-4.34,2.21-6.17.65-.87,1.04-1.84.1-2.65-.92-.79-1.9-.35-2.65.42-1.97,2.01-2.82,4.56-3.36,6.9ZM171.73,119.95c-.92.11-1.92.99-1.01,2.08,1.47,1.78,2.32,3.88,3.63,5.72.65.92,1.55,1.39,2.58.79.99-.58.76-1.62.34-2.43-.88-1.69-1.85-3.32-2.84-4.94-.5-.81-1.25-1.31-2.68-1.23ZM117.22,134.26c.24-.09.69-.13.87-.37,1.49-2.02,2.97-4.04,4.34-6.14.32-.49.15-1.24-.4-1.72-.65-.57-1.38-.52-1.98-.04-2.1,1.67-3.47,3.91-4.47,6.33-.48,1.17.31,1.84,1.65,1.94ZM79.96,114.71c-.29-1.33-1.27-1.6-2.28-1.31-2.72.77-4.64,2.68-6.31,4.85-.41.53-.32,1.23.08,1.78.43.59,1.18.79,1.69.43,2.25-1.61,4.43-3.32,6.62-5.02.17-.13.15-.5.21-.73ZM78.74,95.88c-1.17.18-2.59.45-4.02.6-1.14.12-2.37.2-2.26,1.68.1,1.3,1.24,1.75,2.4,1.69,1.98-.1,3.95-.34,5.92-.53.83-.08,1.33-.56,1.41-1.39.09-.94-.39-1.58-1.29-1.79-.61-.15-1.25-.16-2.15-.26ZM212.84,145.37c-.34-1.96-.8-3.91-2.51-5.22-.94-.72-2.05-.93-2.93.06-.86.96-.47,1.9.49,2.52,1.25.8,1.22,2.15,1.6,3.32.3.93.69,1.78,1.83,1.59,1.19-.2,1.51-1.16,1.53-2.27ZM66.29,105.32s0-.04,0-.05c.63.03,1.26.07,1.88.08.78.01,1.44-.25,1.66-1.07.25-.93-.21-1.76-1.02-1.95-2.08-.5-4.2-.99-6.36-.56-.84.17-1.56.67-1.53,1.62.03.95.74,1.4,1.61,1.51,1.24.17,2.5.28,3.74.42ZM143.18,79.5c-.09-1.2-1.29-1.91-2.37-1.17-1.79,1.22-3.34,2.77-4.42,4.68-.49.87-.31,1.8.64,2.34.84.48,1.55.14,2.15-.54,1.02-1.14,2.06-2.27,3.08-3.41.49-.54.95-1.1.92-1.89ZM41.95,128.14c1.44-.5,3.32-1.09,5.15-1.81.79-.31,1.3-1.01,1.03-1.95-.27-.92-1.03-1.27-1.89-1.13-2.04.35-4.01.94-5.82,1.95-.8.45-1.01,1.26-.7,2.11.3.8,1,.95,2.23.83ZM102.25,126.09c-.34-1.32-1.27-1.98-2.56-1.19-1.68,1.03-3.27,2.26-4.74,3.58-.85.76-.89,1.82.34,2.42,1.47.72,6.94-3.01,6.95-4.81ZM41.53,135.67c-.15-1.23-.97-1.8-2.09-1.48-2.12.6-3.98,1.74-5.45,3.4-.58.65-.68,1.54-.05,2.24.64.71,1.5.58,2.24.13,1.47-.88,2.92-1.81,4.37-2.73.56-.35.96-.82.98-1.56ZM76.24,134.77c.09.92.2,1.88,1.28,2.12,1.22.28,1.8-.45,2.05-1.57.32-1.41.81-2.74,1.62-3.96.55-.84.65-1.78-.27-2.38-.97-.65-1.92-.32-2.58.6-1.12,1.55-1.81,3.29-2.11,5.19ZM112.5,113.39c2.26-.36,3.12-2.51,4.9-3.4.93-.47,1.69-1.24.97-2.39-.66-1.04-1.75-.93-2.67-.51-1.84.84-3.27,2.31-4.43,3.88-.83,1.12-.28,2.25,1.23,2.42ZM57.97,113.35c1.86-.33,3.44-.65,5.04-.9,1.02-.16,1.74-.59,1.72-1.7-.02-1.28-.89-1.68-2-1.69-1.74-.02-3.36.59-5.02.99-.95.23-1.85.52-1.66,1.7.18,1.16,1.14,1.52,1.93,1.6ZM116.96,139.74c-.04,1.29.12,2.09,1.05,2.39.95.31,1.6-.23,1.97-1.01.63-1.32,1.35-2.52,2.54-3.44.73-.57.76-1.45.22-2.19-.56-.75-1.41-.88-2.19-.43-1.96,1.14-3.24,2.81-3.59,4.68ZM92.03,114.28c.02-.83-.36-1.56-1.16-1.61-2.23-.14-4.3.44-6.05,1.88-.53.43-.64,1.11-.32,1.75.37.73,1.04,1.06,1.82.85,1.57-.43,3.12-.94,4.67-1.43.69-.22,1-.74,1.03-1.44ZM123.93,108.23c.07-.83-.18-1.4-.81-1.7-.84-.4-1.67-.17-2.15.57-.92,1.42-1.75,2.91-2.54,4.42-.38.73-.11,1.44.61,1.84.67.38,1.48.38,2.02-.16,1.41-1.43,2.13-3.28,2.87-4.97ZM105.86,87.86c.88.02,1.45-.21,1.75-.85.35-.74.19-1.52-.43-1.95-1.4-.96-2.85-1.85-4.35-2.65-.65-.34-1.48-.23-1.93.46-.43.65-.37,1.44.14,2.01,1.34,1.53,3.24,2.17,4.83,2.97ZM121.53,83.39c-.02-1.37-.14-2.73-.77-3.96-.44-.86-1.06-1.55-2.14-1.16-.9.33-1.1,1.14-.98,2.02.16,1.16.3,2.33.56,3.47.26,1.13.5,2.55,2.11,2.25,1.36-.25,1.35-1.49,1.22-2.61ZM93.63,122.68c-1.61-.02-2.6,0-3.5.51-.92.53-1.68,1.25-1.34,2.37.38,1.27,1.52,1.18,2.47.84,1.15-.42,2.28-.41,3.46-.39.8.01,1.39-.36,1.55-1.2.17-.94-.28-1.63-1.12-1.91-.66-.23-1.41-.21-1.52-.22ZM163.27,162.04c.93,0,1.58-.37,1.72-1.36.11-.73-2.49-4.97-3.13-5.06-1.23-.17-1.88.56-2.16,1.61-.47,1.72,1.8,4.73,3.57,4.81ZM115.81,84.32c-.53-1.78-2.15-2.62-3.27-3.88-.57-.64-1.29-1.02-2.14-.42-.91.65-.91,1.56-.44,2.4.8,1.44,2.05,2.57,3.4,3.39,1.36.82,2.13-.14,2.45-1.49ZM71.73,129.78c1.6-.97,3.44-1.72,4.79-3.18.36-.39.26-1.03-.04-1.53-.43-.72-1.14-.87-1.88-.7-1.73.39-3.19,1.32-4.13,2.81-.78,1.22-.44,2.23,1.26,2.6ZM126.26,97.37c-.12-1.23-.64-1.86-1.76-1.76-1.76.16-4.18,3.68-3.74,5.36.31,1.18,1.34,1.51,2.06.94,1.53-1.22,2.51-2.97,3.45-4.55ZM148.87,88.93c.1-.01.5.02.81-.14,1.38-.69,3.68-.97,2.98-3.12-.66-2.06-2.4-.68-3.71-.34-.26.07-.52.19-.79.21-1.19.09-2.32.4-2.07,1.87.21,1.27,1.29,1.64,2.77,1.52ZM196.6,117.84c-.08-1.24-3.14-4.21-4.27-4.09-1.06.12-1.61.78-1.51,1.84.12,1.25,3.33,4.05,4.42,3.91.97-.13,1.4-.7,1.36-1.66ZM52.02,117.22c-1.38,0-2.68.33-3.84,1.08-.72.46-1.19,1.15-.79,2.06.35.79,1.1.92,1.83.8,1.06-.16,2.1-.44,3.15-.67,1.11-.24,2.2-.56,1.97-2.03-.21-1.36-1.35-1.21-2.33-1.25ZM99.91,118.93c1.86-.04,4.47-1.44,4.44-2.46-.04-1.2-.82-1.74-1.96-1.77-2.06-.06-4.55,1.52-4.4,2.8.13,1.1.88,1.49,1.92,1.43ZM184.02,119.97c-.85-1.68-2.07-3.24-3.91-4.06-.83-.37-1.47.4-1.62,1.34-.25,1.52,2.45,4.49,4.03,4.41.98-.04,1.45-.58,1.5-1.69ZM133.31,125.72c-.07,1.7,1.85,4.13,3.26,4.1.95-.03,1.5-.54,1.56-1.5.07-1.17-2.45-4.56-3.33-4.48-1.12.11-1.47.88-1.49,1.88ZM44.28,148.93c1.18-1.13,3.65-.93,4.03-3.21.2-1.21-.84-1.84-1.95-1.57-1.74.43-3.58,1.02-3.96,3.12-.19,1.06.6,1.6,1.88,1.65ZM116.96,101.88c1.2-.33,2.24-1.08,1.96-2.05-.51-1.77-1.9-3.11-3.68-3.64-1.05-.31-1.75.69-1.49,1.7.46,1.8,1.6,3.17,3.2,3.99ZM123.5,160.91c-.03,1.34.34,2.51,1.62,3.14.67.33,1.44.33,2.03-.18,1.15-1,.27-1.92-.19-2.85-.08-.15-.07-.35-.07-.53.02-1.18-.21-2.33-1.66-2.19-1.42.14-1.74,1.34-1.74,2.61ZM161.24,95.55c1.51-.35,3.43-.66,3.98-2.72.26-.98-.63-1.62-1.69-1.64-1.67-.02-4.56,1.85-4.48,2.91.09,1.15.91,1.45,2.19,1.44ZM170.15,107.45c-1,.02-1.44.57-1.44,1.54,0,1.23,2.46,3.88,3.67,3.89,1.12.02,1.63-.68,1.62-1.71,0-1.18-2.73-3.75-3.86-3.72ZM70.59,156.81c.06-1.3.57-3.01-1.56-2.96-1.76.04-1.96,1.67-1.99,3-.03,1.31.45,2.69,2.01,2.71,1.87.03,1.65-1.48,1.54-2.76ZM171.09,104.25c1.17.05,2.15-.08,2.11-1.31-.07-2.31-2.07-2.21-3.57-2.46-1.21-.2-2.63.22-2.47,1.75.28,2.54,2.81,1.18,3.92,2.02ZM113.67,119.73c-1.86.23-3.43.83-3.75,2.91-.14.91.32,1.6,1.32,1.71.94.11,4.53-2.25,4.48-2.96-.08-1.29-1.03-1.56-2.05-1.66ZM108.34,162.11c.4,1.42.89,3.05,2.8,3.33,1.03.15,1.86-.69,1.48-1.7-.55-1.48-.53-3.63-2.71-3.85-1.2-.12-1.61.92-1.57,2.23ZM104.92,134.9c-1.29-.05-3.41,1.88-3.41,3.1,0,.96.33,1.8,1.42,2,.84.15,3.54-2.35,3.55-3.32.01-1.07-.62-1.62-1.56-1.78ZM141.44,115.21c-.68.08-1.62.54-1.45,1.6.35,2.12,2.36,2.24,3.95,2.68.92.26,1.54-.47,1.67-1.38.15-1.09-2.3-2.9-4.17-2.89ZM56.47,152.64c-.13-1.35.57-3.29-1.76-3.2-1.8.07-1.53,1.69-1.56,2.92-.04,1.4-.03,2.97,1.83,3.04,2.04.07,1.44-1.6,1.49-2.76ZM112.18,127.7c-.09-1.34-.8-1.94-1.8-1.66-1.5.42-3.34.72-3.67,2.64-.21,1.23.82,1.82,1.93,1.6,1.59-.31,3.09-.92,3.55-2.58ZM176.43,159.19c-.59-1.73-2.2-2.3-3.84-2.68-1-.23-1.87.3-1.72,1.45.28,2.1,2.16,2.43,3.73,2.88.97.28,1.67-.42,1.82-1.66ZM182.54,152.13c-1.3.28-1.85,1.07-1.56,2.18.39,1.48.89,3.07,2.83,3.09.91,0,1.6-.8,1.32-1.66-.48-1.44-.72-3.2-2.58-3.61ZM158.9,136.13c.94-.19,1.93-.52,1.69-1.67-.38-1.8-2-2.21-3.53-2.43-1.04-.15-1.9.51-1.69,1.59.35,1.84,2.04,2.07,3.53,2.51ZM86.54,135.09c-.14,1.26.17,2.3,1.39,2.32,2.21.04,1.96-1.98,2.33-3.33.3-1.08-.22-2.08-1.48-2.03-1.96.09-1.79,1.91-2.24,3.03ZM146.13,159.15c-1.26.09-1.9.76-1.7,1.77.3,1.48.74,3.08,2.65,3.25,1.09.1,1.79-.68,1.5-1.7-.39-1.39-.68-3.04-2.45-3.32ZM144.98,138.16c-.36-1.84-2.07-2.35-3.64-2.84-.93-.29-1.55.45-1.51,1.4.08,2.05,1.72,2.56,3.27,2.99,1,.28,1.76-.17,1.88-1.54ZM136.7,158.1c-1.38.07-1.8.8-1.75,1.83.09,1.73.89,2.97,2.73,3.13.96.08,1.68-.68,1.43-1.55-.41-1.41-.82-3-2.41-3.41ZM132.15,137.94c-1.54.06-1.89,1.07-1.92,2.2-.04,1.44.33,2.79,2.03,2.96,1.04.11,1.84-.71,1.56-1.7-.35-1.22.24-3.06-1.66-3.47ZM126.92,121.6c-.04-1.21.07-2.66-1.59-2.59-1.65.07-1.75,1.51-1.74,2.81,0,1.21.1,2.53,1.69,2.52,1.88-.01,1.55-1.57,1.63-2.74ZM98.53,160.48c-.49-.97-.89-2.38-2.38-2.72-1.07-.24-1.75.59-1.78,1.58-.06,1.59.91,2.51,2.44,2.72.9.13,1.6-.23,1.73-1.58ZM180.79,110.45c1.08-.32,2.37-.55,2.48-2,.1-1.31-.9-1.62-1.99-1.58-1.29.05-2.35.54-2.34,2,0,1.06.77,1.54,1.86,1.58ZM160.11,123.38c-.23-1.23-1.1-1.62-2.18-1.5-1.19.14-2.05.82-2.07,2.1-.02,1.12.76,1.65,1.8,1.48,1.17-.19,2.29-.6,2.45-2.07ZM129.37,108.26c-.28-1.28-1.11-2.17-2.45-2.41-1.06-.19-1.75.44-1.72,1.53.03,1.36.93,2.09,2.19,2.31,1.01.17,1.74-.26,1.98-1.43ZM191.77,153.99c-.22-1.03-.75-2.17-2.23-2.32-1.07-.11-1.74.59-1.63,1.65.14,1.37,1,2.34,2.39,2.51.94.12,1.42-.59,1.47-1.83ZM149.6,134.9c-.94.05-1.52.5-1.57,1.47-.07,1.35.84,1.95,1.96,2.12,1.04.16,1.78-.44,1.72-1.53-.07-1.24-.95-1.84-2.11-2.06Z"/><path class="cls-1" d="M4.12,104.42c-1.17-9.34.67-19.51,2.07-29.76.96-7.08,1.15-14.27,1.17-21.44,0-.85-.12-1.78-.78-2.25-2.34-1.64-1.94-3.79-1.5-6.1.38-2.02,1.45-3.71,2.23-5.53.45-1.06.99-2.1,2.35-1.71,1.22.35,1.61,1.52,1.54,2.62-.13,2.08-.46,4.14-.73,6.21-.15,1.16-.58,2.5.81,3.12,1.44.65,2.11-.53,2.74-1.56.7-1.16,1.6-2.31,3.02-1.36,1.44.96.62,2.52-.09,3.37-1.56,1.86-2.76,4.39-5.97,4-1.36-.16-1.81.97-1.92,2.16-.92,9.56-2.9,19.02-2.71,28.68.11,5.97-1.13,11.95.02,17.92,1.9,9.95,4.28,19.7,11.11,27.7,1.34,1.57,2.95,2.65,4.77,3.5.92.43,1.88.84,1.64,2.14-.21,1.12.55,2.61-.55,3.3-1.09.68-2.21-.39-3.26-.87-5.02-2.25-7.24-6.98-9.76-11.35-3.86-6.7-6.28-13.86-6.19-22.78Z"/><path class="cls-1" d="M233.59,57.41c4.27,15.3,5.93,30.93,6.15,46.74.16,12.05-3.37,23.22-8.17,34.08-.39.89-.84,1.8-1.97,2.17-1.22-3.68-1.52-6.94.44-10.77,4.23-8.24,5.25-17.39,6.37-26.53,1.53-12.44-.73-24.58-1.87-36.82-.27-2.96-.63-5.91-.95-8.86Z"/><path class="cls-1" d="M232.59,48.65c-1.77-5.06-2.25-10.29-3.21-15.44-.41-2.22-.41-4.55-3.98-4.04-1.88.27-6.21-6.73-5.91-8.83.1-.71.42-1.16,1.08-1.41.72-.28,1.29.02,1.66.56.51.74.91,1.56,1.36,2.35.5.87,1,1.95,2.22,1.56,1.3-.41,1.29-1.64,1.1-2.74-.37-2.23-.9-4.44-1.2-6.68-.25-1.86-.84-3.72-.26-5.64.21-.71.35-1.46,1.2-1.64.86-.18,1.41.44,1.72,1.07,1.91,3.81,3.78,7.67,4.17,11.99.16,1.77.28,3.57-1.29,5.05-.96.91-.75,2.3-.61,3.61.7,6.21,1.32,12.42,1.95,18.64.05.53,0,1.06,0,1.6Z"/><path class="cls-3" d="M101.06,175.2c.21,2.7.33,5.42.68,8.1.24,1.89-.5,2.54-2.28,2.82-3.57.57-7.01.75-10.11-1.6-1.37-1.04-2.57-2.22-2.11-4.06.46-1.85,2.02-2.68,3.76-3.15.17-.05.37-.02.54-.07,1.53-.44,3.64,1.04,4.55-.59.7-1.26.27-3.16.3-4.77.03-1.28-.2-2.66,1.87-2.44,1.73.19,3.32.33,2.98,2.76-.14.98-.02,1.99-.02,2.98-.05,0-.1,0-.15,0Z"/><path class="cls-3" d="M139.46,179.77c0-2.57,0-4.92-.53-7.24-.33-1.42.32-1.74,1.72-1.91,2.47-.29,4.21-.18,3.68,3.02-.07.42.15.88.24,1.33q.78,4.15,5.11,3.91c.54-.03,1.1-.06,1.63.02,1.82.3,4.09.72,4.22,2.71.14,2.02-1.58,3.67-3.63,4.22-3.26.88-6.64.85-10,.55-1.84-.17-2.83-1.04-2.42-3.04.26-1.26.26-2.52-.02-3.58Z"/><path class="cls-1" d="M221.75,145.55c-2.36.17-2.77-1.31-2.96-2.93-.19-1.64,1.12-1.26,2.02-1.39,2.3-.34,3.93,1.63,4.25,2.88.32,1.27-2.29.92-3.32,1.45Z"/><path class="cls-1" d="M233.35,53.34c.36.82.44,1.56.11,2.62-.37-1.01-.43-1.75-.11-2.62Z"/><path class="cls-1" d="M232.85,52.09c-.29-.51-.42-1,.02-1.51.32.51.43,1-.02,1.51Z"/><path class="cls-3" d="M45.31,105.02c-.21.03-.43.06-.64.09.07-.19.13-.38.2-.57.15.16.29.32.44.48Z"/><path class="cls-3" d="M98.12,73.59l-.16-.19c.07-.05.14-.14.2-.13.06,0,.11.12.16.18-.07.05-.13.1-.2.15Z"/><path class="cls-5" d="M58.74,137.29c-.06,2.48.63,4.29,1.51,6.05.4.81.86,1.61,1.12,2.47.29.94.07,1.85-.88,2.34-1.02.53-1.92.25-2.67-.6-3.28-3.69-4.33-13.82-1.88-18.13.93-1.64,2.23-2.88,4.07-3.39.9-.25,1.88-.23,2.36.8.44.94.12,1.77-.72,2.37-.29.21-.64.35-.92.58-2.21,1.84-2.18,2.61.43,4.02,8,4.32,16.74,6.34,25.59,7.97,15.16,2.79,30.48,3.34,45.8,2.6,15.78-.75,31.42-2.77,46.31-8.57,2.19-.85,4.26-2,6.37-3.05,1.04-.52,1.57-1.18.07-1.78-1.46-.59-1.76-1.75-1.01-2.82.79-1.12,2.1-.79,3.18-.12.38.24.7.57,1.02.89,4,4.04,3.84,13.87-.28,17.76-.82.77-1.67,1.61-2.81.65-1.25-1.05-.58-2.05.22-3.05,1.97-2.46,2.23-3.38,2.13-7.06-1.21-.06-1.92.89-2.8,1.43-10.95,6.69-23.05,10.08-35.5,12.37-11.35,2.09-22.84,3.04-34.38,2.68-14.37-.45-28.58-2.02-42.08-7.49-5.16-2.09-9.93-4.8-14.25-8.94ZM155.47,145.94c-26.1,3.57-52.13,3.43-78.02-2.02,25.8,8.09,51.83,7.57,78.02,2.02Z"/><path class="cls-5" d="M147.11,109.19c-4.3-.07-8.51-.64-12.26-2.95-1.75-1.08-3.26-2.52-2.99-4.81.27-2.26,2-3.48,3.97-4.05,6.79-1.96,13.43-1.49,19.71,1.92,1.83,1,3.21,2.44,2.96,4.78-.25,2.33-2,3.37-3.88,4.12-2.39.96-4.94,1.12-7.5.99ZM148.1,100.53c.14,5.42.88,6.01,5.18,4.15.08-.04.17-.05.26-.09,1.37-.61,1.32-1.36.14-2.1-1.7-1.07-3.57-1.68-5.57-1.96ZM140.28,100.02c-1.5.53-4.03.14-4.33,1.88-.26,1.47,2.15,2.24,3.5,2.18,1.66-.08,1.42-2.18,1.98-3.38.31-.67-.54-.71-1.16-.68Z"/><path class="cls-5" d="M95.78,109.78c-1.45.08-4.08-.13-6.52-1.25-1.67-.77-3.17-1.82-3.38-3.92-.22-2.22,1.07-3.58,2.74-4.65,4.22-2.71,9.02-3.16,13.84-3.13,2.04.01,4.17.22,6.12,1.06,1.89.82,3.68,1.83,3.94,4.1.26,2.29-1.25,3.73-3,4.8-3.84,2.35-8.13,2.92-13.75,2.99ZM96.45,101.2c-2.39.28-4.95,1.13-5.88,1.91-.71.6-1.24,1.22-.04,1.82,1.65.83,3.57,1.43,5.21,1,1.2-.32.2-2.26.54-3.44.12-.41.11-.85.17-1.3ZM104.39,100.61c-.67-.02-1.73-.24-1.42.63.44,1.23.3,3.25,1.96,3.41,1.33.13,3.57-.78,3.5-1.94-.14-2.1-2.66-1.44-4.03-2.09Z"/><path class="cls-4" d="M206.93,127.08c.3,1.76,1.99,2.39,2.96,3.61,1.06,1.34,2.3,2.54,3.08,4.1.55,1.11,1.58,2.36.02,3.3-1.68,1.01-2.46-.5-3.1-1.65-.98-1.77-2.36-3.19-3.73-4.62-.81-.84-1.71-1.61-2.64-2.31-.83-.62-1.74-1.19-1.13-2.38.63-1.22,1.67-1.18,2.79-.65.39.18.82.41,1.26.09l-.04-.04c-.16.54.04.73.57.58l-.03-.03Z"/><path class="cls-4" d="M95.76,86.72c1.03.06,1.67.03,2.28.16.85.18,1.52.67,1.5,1.64-.02.97-.66,1.44-1.57,1.55-3.13.38-6.27.76-9.4,1.1-1,.11-2.16.2-2.41-1.11-.26-1.41.91-1.94,1.96-2.14,2.65-.51,5.34-.85,7.64-1.2Z"/><path class="cls-4" d="M126.32,84.06c.54-2.34,1.39-4.89,3.36-6.9.75-.77,1.73-1.21,2.65-.42.94.81.56,1.78-.1,2.65-1.37,1.82-2.54,3.68-2.21,6.17.14,1.04-.68,1.71-1.74,1.58-1.54-.2-2.04-1.3-1.96-3.08Z"/><path class="cls-4" d="M171.73,119.95c1.44-.08,2.19.42,2.68,1.23.99,1.62,1.97,3.26,2.84,4.94.42.81.65,1.85-.34,2.43-1.02.6-1.92.13-2.58-.79-1.31-1.84-2.16-3.94-3.63-5.72-.91-1.1.09-1.97,1.01-2.08Z"/><path class="cls-4" d="M117.22,134.26c-1.34-.1-2.13-.77-1.65-1.94,1-2.43,2.37-4.66,4.47-6.33.61-.48,1.33-.52,1.98.04.55.48.72,1.23.4,1.72-1.37,2.1-2.85,4.12-4.34,6.14-.18.24-.63.28-.87.37Z"/><path class="cls-5" d="M79.96,114.71c-.06.23-.04.6-.21.73-2.18,1.7-4.36,3.41-6.62,5.02-.51.36-1.26.16-1.69-.43-.4-.55-.49-1.25-.08-1.78,1.67-2.17,3.59-4.08,6.31-4.85,1.02-.29,2-.02,2.28,1.31Z"/><path class="cls-5" d="M78.74,95.88c.9.1,1.55.11,2.15.26.9.22,1.38.85,1.29,1.79-.08.83-.58,1.3-1.41,1.39-1.97.19-3.94.43-5.92.53-1.16.06-2.3-.4-2.4-1.69-.11-1.48,1.12-1.56,2.26-1.68,1.43-.15,2.85-.42,4.02-.6Z"/><path class="cls-6" d="M212.84,145.37c-.02,1.12-.34,2.07-1.53,2.27-1.14.19-1.52-.66-1.83-1.59-.38-1.17-.35-2.52-1.6-3.32-.96-.62-1.35-1.56-.49-2.52.89-.99,1.99-.78,2.93-.06,1.7,1.31,2.17,3.26,2.51,5.22Z"/><path class="cls-6" d="M66.29,105.32c-1.25-.14-2.5-.25-3.74-.42-.88-.12-1.59-.56-1.61-1.51-.03-.96.69-1.46,1.53-1.62,2.16-.43,4.29.06,6.36.56.8.2,1.26,1.02,1.02,1.95-.22.83-.88,1.08-1.66,1.07-.63,0-1.26-.05-1.88-.08,0,.02,0,.04,0,.05Z"/><path class="cls-4" d="M143.18,79.5c.04.8-.43,1.35-.92,1.89-1.02,1.14-2.06,2.27-3.08,3.41-.6.68-1.31,1.02-2.15.54-.95-.54-1.13-1.47-.64-2.34,1.08-1.91,2.63-3.45,4.42-4.68,1.08-.74,2.28-.03,2.37,1.17Z"/><path class="cls-4" d="M41.95,128.14c-1.23.12-1.93-.03-2.23-.83-.32-.85-.11-1.65.7-2.11,1.81-1.01,3.78-1.61,5.82-1.95.87-.15,1.63.2,1.89,1.13.27.94-.25,1.64-1.03,1.95-1.83.72-3.71,1.31-5.15,1.81Z"/><path class="cls-4" d="M102.25,126.09c-.01,1.8-5.48,5.53-6.95,4.81-1.23-.6-1.2-1.66-.34-2.42,1.47-1.31,3.06-2.54,4.74-3.58,1.29-.79,2.22-.13,2.56,1.19Z"/><path class="cls-4" d="M41.53,135.67c-.02.73-.42,1.2-.98,1.56-1.45.92-2.89,1.85-4.37,2.73-.74.44-1.6.58-2.24-.13-.63-.69-.52-1.58.05-2.24,1.47-1.66,3.33-2.8,5.45-3.4,1.11-.32,1.93.25,2.09,1.48Z"/><path class="cls-4" d="M76.24,134.77c.29-1.9.99-3.64,2.11-5.19.66-.92,1.61-1.25,2.58-.6.91.61.82,1.55.27,2.38-.81,1.22-1.3,2.56-1.62,3.96-.25,1.12-.83,1.85-2.05,1.57-1.08-.24-1.19-1.21-1.28-2.12Z"/><path class="cls-4" d="M112.5,113.39c-1.5-.18-2.06-1.3-1.23-2.42,1.16-1.56,2.59-3.04,4.43-3.88.91-.42,2.01-.52,2.67.51.73,1.15-.04,1.92-.97,2.39-1.77.89-2.64,3.04-4.9,3.4Z"/><path class="cls-4" d="M57.97,113.35c-.79-.07-1.74-.43-1.93-1.6-.19-1.18.71-1.47,1.66-1.7,1.66-.4,3.28-1.02,5.02-.99,1.12.01,1.98.41,2,1.69.02,1.11-.7,1.54-1.72,1.7-1.6.25-3.19.56-5.04.9Z"/><path class="cls-6" d="M116.96,139.74c.35-1.87,1.63-3.54,3.59-4.68.78-.45,1.63-.32,2.19.43.55.74.51,1.62-.22,2.19-1.18.93-1.91,2.12-2.54,3.44-.37.78-1.02,1.32-1.97,1.01-.93-.3-1.09-1.11-1.05-2.39Z"/><path class="cls-6" d="M92.03,114.27c-.03.7-.35,1.22-1.03,1.44-1.55.49-3.1,1-4.67,1.43-.78.22-1.44-.11-1.82-.85-.32-.64-.21-1.31.32-1.75,1.75-1.45,3.83-2.02,6.05-1.88.8.05,1.17.78,1.16,1.61Z"/><path class="cls-4" d="M123.93,108.23c-.74,1.69-1.46,3.54-2.87,4.97-.53.54-1.34.53-2.02.16-.72-.4-.99-1.11-.61-1.84.79-1.51,1.61-3,2.54-4.42.48-.73,1.3-.97,2.15-.57.62.3.88.86.81,1.7Z"/><path class="cls-5" d="M105.86,87.86c-1.59-.8-3.49-1.45-4.83-2.97-.51-.58-.57-1.36-.14-2.01.46-.69,1.29-.81,1.93-.46,1.5.8,2.96,1.69,4.35,2.65.62.43.78,1.21.43,1.95-.3.64-.86.87-1.75.85Z"/><path class="cls-6" d="M121.53,83.39c.13,1.12.13,2.36-1.22,2.61-1.61.3-1.85-1.11-2.11-2.25-.26-1.14-.4-2.31-.56-3.47-.12-.87.09-1.69.98-2.02,1.07-.4,1.7.29,2.14,1.16.63,1.24.76,2.59.77,3.96Z"/><path class="cls-5" d="M93.63,122.68c.11.01.86,0,1.52.22.84.29,1.29.97,1.12,1.91-.15.84-.75,1.21-1.55,1.2-1.17-.02-2.31-.03-3.46.39-.95.35-2.09.43-2.47-.84-.34-1.12.42-1.85,1.34-2.37.9-.51,1.89-.54,3.5-.51Z"/><path class="cls-6" d="M163.27,162.03c-1.77-.07-4.04-3.08-3.57-4.8.29-1.04.94-1.78,2.16-1.61.64.09,3.23,4.33,3.13,5.06-.14.99-.79,1.36-1.72,1.35Z"/><path class="cls-6" d="M115.81,84.32c-.32,1.36-1.09,2.31-2.45,1.49-1.36-.82-2.61-1.94-3.4-3.39-.47-.85-.46-1.75.44-2.4.85-.61,1.58-.22,2.14.42,1.11,1.26,2.74,2.1,3.27,3.88Z"/><path class="cls-4" d="M71.73,129.78c-1.7-.38-2.04-1.38-1.26-2.6.94-1.48,2.39-2.42,4.13-2.81.74-.17,1.44-.02,1.88.7.3.5.4,1.14.04,1.53-1.35,1.46-3.19,2.21-4.79,3.18Z"/><path class="cls-6" d="M126.26,97.37c-.93,1.58-1.91,3.32-3.45,4.55-.71.57-1.75.24-2.06-.94-.44-1.68,1.99-5.2,3.74-5.36,1.12-.1,1.64.53,1.76,1.76Z"/><path class="cls-6" d="M148.87,88.93c-1.48.12-2.56-.25-2.77-1.52-.25-1.47.88-1.78,2.07-1.87.27-.02.52-.14.79-.21,1.3-.34,3.04-1.73,3.71.34.69,2.15-1.6,2.43-2.98,3.12-.31.15-.71.12-.81.14Z"/><path class="cls-4" d="M196.6,117.84c.04.96-.4,1.53-1.36,1.66-1.09.14-4.3-2.66-4.42-3.91-.1-1.07.46-1.72,1.51-1.84,1.13-.13,4.18,2.84,4.27,4.09Z"/><path class="cls-5" d="M52.02,117.22c.98.04,2.12-.11,2.32,1.25.23,1.47-.86,1.79-1.97,2.03-1.05.23-2.09.5-3.15.67-.73.11-1.49-.02-1.83-.8-.4-.91.08-1.6.79-2.06,1.15-.75,2.46-1.07,3.84-1.08Z"/><path class="cls-4" d="M206.43,126.57c-.4-.9-.96-1.81.09-2.65,1.05-.84,2.01-.4,2.94.25.22.15.44.32.61.52.86,1.01,2.8,1.84,1.43,3.46-1.28,1.52-2.54.28-3.62-.75-.22-.21-.63-.21-.96-.31l.03.03c.06-.44-.24-.53-.57-.58l.04.04Z"/><path class="cls-6" d="M99.91,118.93c-1.04.06-1.79-.33-1.92-1.43-.15-1.29,2.34-2.86,4.4-2.8,1.15.03,1.92.57,1.96,1.77.03,1.02-2.57,2.42-4.44,2.46Z"/><path class="cls-4" d="M184.02,119.97c-.05,1.11-.52,1.65-1.5,1.69-1.57.07-4.28-2.89-4.03-4.41.15-.93.79-1.71,1.62-1.34,1.83.82,3.06,2.38,3.91,4.06Z"/><path class="cls-4" d="M133.31,125.72c.02-1,.37-1.78,1.49-1.88.88-.08,3.4,3.31,3.33,4.48-.06.96-.61,1.47-1.56,1.5-1.41.04-3.33-2.39-3.26-4.1Z"/><path class="cls-6" d="M44.28,148.93c-1.28-.05-2.07-.59-1.88-1.65.38-2.11,2.22-2.69,3.96-3.12,1.11-.28,2.15.35,1.95,1.57-.37,2.28-2.85,2.07-4.03,3.21Z"/><path class="cls-4" d="M116.96,101.88c-1.6-.81-2.74-2.19-3.2-3.99-.26-1.01.44-2.01,1.49-1.7,1.78.53,3.17,1.87,3.68,3.64.28.97-.76,1.72-1.96,2.05Z"/><path class="cls-4" d="M123.49,160.9c0-1.26.32-2.47,1.74-2.6,1.45-.14,1.68,1.01,1.66,2.19,0,.18,0,.38.07.53.47.93,1.35,1.85.19,2.85-.59.51-1.36.51-2.03.18-1.28-.63-1.65-1.8-1.63-3.14Z"/><path class="cls-6" d="M161.24,95.55c-1.28,0-2.1-.29-2.19-1.44-.08-1.06,2.81-2.93,4.48-2.91,1.07.02,1.95.65,1.69,1.64-.55,2.06-2.48,2.36-3.98,2.72Z"/><path class="cls-4" d="M170.15,107.45c1.12-.03,3.85,2.54,3.86,3.72,0,1.03-.5,1.72-1.62,1.71-1.21-.02-3.67-2.66-3.67-3.89,0-.97.44-1.51,1.44-1.54Z"/><path class="cls-6" d="M70.59,156.81c.11,1.28.33,2.79-1.54,2.76-1.55-.02-2.04-1.4-2.01-2.71.03-1.34.23-2.96,1.99-3,2.12-.05,1.61,1.66,1.56,2.96Z"/><path class="cls-4" d="M171.09,104.25c-1.11-.84-3.64.52-3.92-2.02-.17-1.52,1.26-1.95,2.47-1.75,1.5.25,3.49.15,3.57,2.46.04,1.23-.94,1.36-2.11,1.31Z"/><path class="cls-5" d="M113.67,119.73c1.02.1,1.97.38,2.05,1.66.05.71-3.54,3.07-4.48,2.96-1-.11-1.46-.81-1.32-1.71.32-2.08,1.89-2.68,3.75-2.91Z"/><path class="cls-6" d="M108.34,162.11c-.04-1.3.36-2.35,1.57-2.23,2.18.23,2.16,2.37,2.71,3.85.38,1.01-.45,1.85-1.48,1.7-1.91-.27-2.4-1.9-2.8-3.33Z"/><path class="cls-6" d="M104.92,134.9c.94.16,1.57.71,1.56,1.78-.01.97-2.71,3.47-3.55,3.32-1.09-.2-1.42-1.04-1.42-2,0-1.21,2.12-3.15,3.41-3.1Z"/><path class="cls-6" d="M141.44,115.21c1.87,0,4.32,1.81,4.17,2.89-.13.91-.75,1.64-1.67,1.38-1.58-.44-3.59-.55-3.95-2.68-.18-1.06.77-1.52,1.45-1.6Z"/><path class="cls-2" d="M56.47,152.64c-.05,1.16.55,2.83-1.49,2.76-1.86-.07-1.87-1.64-1.83-3.04.03-1.23-.24-2.86,1.56-2.92,2.33-.09,1.63,1.85,1.76,3.2Z"/><path class="cls-4" d="M112.18,127.7c-.45,1.66-1.95,2.27-3.55,2.58-1.11.22-2.14-.37-1.93-1.6.33-1.92,2.17-2.22,3.67-2.64,1.01-.28,1.72.32,1.8,1.66Z"/><path class="cls-4" d="M176.43,159.19c-.15,1.24-.85,1.94-1.82,1.66-1.57-.45-3.45-.79-3.73-2.88-.15-1.15.71-1.68,1.72-1.45,1.64.38,3.25.95,3.84,2.68Z"/><path class="cls-6" d="M182.54,152.13c1.86.41,2.1,2.17,2.58,3.61.29.86-.41,1.67-1.32,1.66-1.93-.02-2.44-1.61-2.83-3.09-.29-1.11.26-1.9,1.56-2.18Z"/><path class="cls-4" d="M158.9,136.13c-1.5-.44-3.19-.68-3.53-2.51-.2-1.08.66-1.74,1.69-1.59,1.53.22,3.15.63,3.53,2.43.24,1.16-.75,1.49-1.69,1.67Z"/><path class="cls-6" d="M86.54,135.09c.45-1.12.27-2.94,2.24-3.03,1.25-.06,1.78.95,1.48,2.03-.37,1.34-.12,3.36-2.33,3.33-1.22-.02-1.53-1.06-1.39-2.32Z"/><path class="cls-6" d="M146.13,159.15c1.77.27,2.05,1.92,2.45,3.32.29,1.02-.41,1.8-1.5,1.7-1.9-.17-2.35-1.76-2.65-3.25-.2-1.01.45-1.68,1.7-1.77Z"/><path class="cls-4" d="M144.98,138.16c-.12,1.37-.88,1.82-1.88,1.54-1.55-.43-3.2-.94-3.27-2.99-.04-.95.58-1.69,1.51-1.4,1.58.49,3.29,1.01,3.64,2.84Z"/><path class="cls-4" d="M136.7,158.1c1.6.41,2.01,1.99,2.41,3.41.25.87-.47,1.63-1.43,1.55-1.84-.16-2.64-1.4-2.73-3.13-.05-1.03.37-1.76,1.75-1.83Z"/><path class="cls-6" d="M132.15,137.94c1.9.41,1.31,2.25,1.66,3.47.28.98-.52,1.8-1.56,1.7-1.7-.18-2.07-1.53-2.03-2.96.03-1.14.38-2.15,1.92-2.2Z"/><path class="cls-4" d="M126.92,121.6c-.08,1.16.25,2.72-1.63,2.74-1.59.01-1.69-1.3-1.69-2.52,0-1.3.09-2.75,1.74-2.81,1.65-.07,1.54,1.38,1.59,2.59Z"/><path class="cls-4" d="M98.53,160.48c-.12,1.35-.83,1.71-1.73,1.58-1.53-.21-2.49-1.13-2.44-2.72.03-.99.71-1.83,1.78-1.58,1.49.34,1.89,1.76,2.38,2.72Z"/><path class="cls-6" d="M180.79,110.45c-1.08-.04-1.85-.53-1.86-1.58,0-1.47,1.05-1.95,2.34-2,1.09-.04,2.09.27,1.99,1.58-.11,1.45-1.4,1.69-2.48,2Z"/><path class="cls-6" d="M160.11,123.38c-.15,1.48-1.28,1.88-2.45,2.07-1.04.17-1.81-.36-1.8-1.48.02-1.27.88-1.96,2.07-2.1,1.08-.12,1.94.27,2.18,1.5Z"/><path class="cls-6" d="M129.37,108.26c-.24,1.18-.98,1.6-1.98,1.43-1.26-.22-2.16-.95-2.19-2.31-.03-1.09.67-1.72,1.72-1.53,1.34.24,2.17,1.13,2.45,2.41Z"/><path class="cls-6" d="M191.77,153.99c-.05,1.24-.53,1.95-1.47,1.83-1.38-.17-2.24-1.13-2.39-2.51-.11-1.06.56-1.76,1.63-1.65,1.48.16,2.01,1.29,2.23,2.32Z"/><path class="cls-6" d="M149.6,134.9c1.16.23,2.04.82,2.11,2.06.06,1.09-.68,1.69-1.72,1.53-1.13-.17-2.03-.77-1.96-2.12.05-.97.63-1.42,1.57-1.47Z"/><path class="cls-7" d="M155.47,145.94c-26.19,5.55-52.22,6.08-78.02-2.02,25.89,5.45,51.92,5.59,78.02,2.02Z"/><path class="cls-7" d="M148.1,100.53c2,.28,3.87.89,5.57,1.96,1.18.74,1.23,1.49-.14,2.1-.08.04-.17.05-.26.09-4.29,1.87-5.04,1.28-5.18-4.15Z"/><path class="cls-7" d="M140.28,100.02c.61-.02,1.47.01,1.16.68-.56,1.2-.32,3.3-1.98,3.38-1.35.06-3.76-.71-3.5-2.18.31-1.74,2.83-1.35,4.33-1.88Z"/><path class="cls-7" d="M96.45,101.2c-.05.45-.05.89-.17,1.3-.34,1.17.66,3.12-.54,3.44-1.64.43-3.57-.17-5.21-1-1.2-.61-.67-1.22.04-1.82.93-.78,3.5-1.63,5.88-1.91Z"/><path class="cls-7" d="M104.39,100.61c1.37.66,3.9,0,4.03,2.09.08,1.16-2.17,2.06-3.5,1.94-1.66-.16-1.52-2.18-1.96-3.41-.31-.87.76-.65,1.42-.63Z"/><path class="cls-3" d="M206.39,126.53c.33.05.63.14.57.58-.54.15-.74-.04-.57-.58Z"/></svg>