<?xml version="1.0" encoding="UTF-8"?><svg id="Calque_1" xmlns="http://www.w3.org/2000/svg" viewBox="0 0 104.95 176.54"><defs><style>.cls-1{fill:#060805;}.cls-1,.cls-2,.cls-3,.cls-4,.cls-5,.cls-6,.cls-7{stroke-width:0px;}.cls-2{fill:#959595;}.cls-3{fill:#000;}.cls-4{fill:#090503;}.cls-5{fill:#fff;}.cls-6{fill:#8fcd78;}.cls-7{fill:#00d200;}</style></defs><path class="cls-1" d="M48.4,18.39c5.35-3.1,11.12-4.64,17.26-5.21,8.54-.79,15.77,1.5,21.55,7.95,2.15,2.4,1.99,5.33,1.97,8.27,4.16-4.46,6.15-16.73,3.63-22.27-.55-1.2-1.67-2.48-.16-3.63,1.36-1.04,2.71-.32,4.01.46,4.27,2.57,6.49,6.42,7.29,11.24,1.53,9.18,1.58,18.27-1.85,27.08-1.38,3.56-3.19,6.93-6.27,9.39-.58.46-1.11.97-1.23,1.73-1.3,8.67-3.27,17.31-1.09,26.14.68,2.76,1.97,5.27,3.23,7.75,4.25,8.37,4.81,17.28,3.66,26.27-1.11,8.73-3.63,17.12-7.37,25.19-2.53,5.47-6.19,9.83-10.81,13.4-6.6,5.11-14.1,8.13-22.53,8.58-2.6.14-4.28.61-3.9,4.06.44,4.07-1.78,6.99-5.47,8.9-7.31,3.77-14.88,3.15-22.57,1.73-2.87-.53-3.14-4.05-5.5-4.65-2.62-.67-4.31-2.03-5.73-4.16-1.2-1.79-1.8-3.8-1.07-5.67.81-2.05-.24-2.88-1.41-4.05C4.86,147.65.55,136.4.06,123.42c-.66-17.27,4.48-32.71,14.1-46.81,5.49-8.05,9.64-16.56,10.68-26.41.64-6.09,3.24-11.46,6.84-16.37.75-1.03.91-1.98.75-3.4-1.3-11.78,2.72-21.51,11.83-29.11.94-.78,1.98-1.88,3.36-.96,1.39.92.74,2.28.43,3.47-1.46,5.58-1.39,10.17.35,14.57ZM43.23,6.93c-4.5,6.34-8.85,12.73-7.3,21.53,2.76-2.79,4.95-5.63,8.08-7.42.6-.35.92-.79.62-1.56-1.58-4.07-1.25-8.36-1.43-12.58.09-.03.18-.06.27-.08-.08.04-.16.08-.24.12ZM90.24,56.75c-1.27.48-2.26.91-3.28,1.22-5.74,1.76-9.29.01-11.51-5.51-.75-1.86-.76-3.76-.59-5.63.59-6.58,2.09-12.66,9.58-14.79.49-.14.71-.43.93-.86.9-1.75.46-6.32-.88-7.79-3.72-4.05-8.21-6.5-13.83-6.65-14.87-.39-26.02,6.42-34.96,17.76-4.96,6.3-7.05,13.61-8.21,21.32-.93,6.1-3.16,11.64-6.53,16.86-3.24,5.03-6.6,10-9.3,15.37-6.92,13.78-9.7,28.23-7.05,43.54.36,2.06.78,4.15,2.06,6.34.22-.8.44-1.22.44-1.64.04-5.95,2.87-10.78,6.15-15.42,1.9-2.68,4.4-4.65,7.64-5.37,12.38-2.75,20.88,2.65,23.66,14.61,1.36,5.86.7,11.94-1.78,17.63-1.66,3.81-3.8,7.33-6.59,10.86,6.47.07,12.57.04,18.54-.87,5.6-.85,11.38-.97,16.69-3.52,8.55-4.11,15.27-9.74,19.03-18.84,2.47-5.98,3.34-12.2,4.63-18.39,2.06-9.9,2.03-19.72-2.28-29-3.41-7.33-4.69-14.8-3.72-22.75.34-2.77.74-5.53,1.15-8.5ZM27.63,158.72c2.86.53,5.43-1.63,7.57-4.5,1.8-2.41,3.28-5.05,4.29-7.85,2.78-7.73,3.13-15.08-1.68-22.55-3.63-5.65-16.44-7.65-21.03-1.34-2.09,2.88-3.99,5.85-5.13,9.24-2.38,7.01-.52,13.38,2.98,19.5,2.64,4.62,6.32,7.53,13,7.51ZM97.96,10.45c.33,7.24-2.03,13.8-4.99,20.14-1.73,3.71-4.29,6.62-9.06,5.79-1.08-.19-1.78.47-2.31,1.15-2.98,3.86-4.16,8.3-2.92,12.98,1.21,4.56,4.04,5.61,8.32,3.42,3.77-1.92,6.85-4.79,9.16-8.31,5.4-8.23,5.46-17.46,4.61-26.78-.27-2.94-.89-5.85-2.81-8.4ZM37.16,172.71c1.63,0,3.26.09,4.89-.02,5.24-.36,9.59-3.65,10.26-7.66.33-1.99-.19-3.16-2.49-3.07-5.33.2-10.66.3-15.99.5-2.24.08-4.12,1.1-5.92,2.39-1.63,1.17-1.51,2.76-1.31,4.39.2,1.62,1.17,2.55,2.76,2.95,2.58.66,5.2.6,7.82.51ZM18.67,162.45c.04,1.85,2.4,5.09,3.53,4.64,1.77-.71,1.21-3.16,2.56-4.33-1.33-1.51-3.33-1.36-5.01-1.9-1.15-.37-.98.92-1.08,1.6Z"/><path class="cls-7" d="M90.24,56.75c-.4,2.97-.81,5.73-1.15,8.5-.98,7.94.31,15.42,3.72,22.75,4.31,9.28,4.34,19.09,2.28,29-1.29,6.19-2.16,12.41-4.63,18.39-3.76,9.1-10.49,14.73-19.03,18.84-5.31,2.55-11.09,2.68-16.69,3.52-5.97.9-12.07.94-18.54.87,2.8-3.53,4.94-7.05,6.59-10.86,2.48-5.69,3.14-11.77,1.78-17.63-2.78-11.96-11.27-17.36-23.66-14.61-3.24.72-5.74,2.68-7.64,5.37-3.28,4.64-6.12,9.47-6.15,15.42,0,.42-.22.85-.44,1.64-1.27-2.19-1.7-4.28-2.06-6.34-2.65-15.32.13-29.77,7.05-43.54,2.7-5.37,6.06-10.35,9.3-15.37,3.36-5.22,5.6-10.75,6.53-16.86,1.17-7.71,3.25-15.02,8.21-21.32,8.94-11.35,20.09-18.15,34.96-17.76,5.62.15,10.11,2.59,13.83,6.65,1.34,1.46,1.78,6.04.88,7.79-.22.43-.44.72-.93.86-7.5,2.13-8.99,8.21-9.58,14.79-.17,1.88-.16,3.78.59,5.63,2.22,5.52,5.77,7.27,11.51,5.51,1.02-.32,2.01-.75,3.28-1.22ZM61.53,128.57c8.78-.45,16.17-3.45,21.28-11.12,2.29-3.43,3.92-7.15,5.84-10.74,3.64-6.82,2.88-13.86,1.11-20.89-.77-3.09-2.19-6-5.67-7.05-4.98-1.51-11.11,1.57-12.95,6.46-.9,2.39-1.32,4.9-1.75,7.4-.75,4.33-.46,8.7-.57,13.05-.14,5.46-.85,6.3-6.1,7.7-2.12.56-4.11,1.43-5.79,2.91-2.6,2.29-4.53,5.08-3.38,8.57,1.22,3.69,4.62,3.89,7.97,3.72ZM55.29,47.2c0-.82.13-1.66-.02-2.45-.8-4.16-1.66-8.38-6.18-10.2-4.45-1.79-11.96.52-14.85,4.37-5.16,6.87-5.64,17.41-1.15,24.67,1.14,1.84,2.71,2.92,4.9,2.92,5.29,0,9.79-1.76,13.04-6.09,2.93-3.91,4.27-8.36,4.26-13.22ZM32.37,72.81c-.98.13-2,.11-2.92.41-2.07.68-2.89,2.83-1.61,4.56,2.23,2.99,5.31,4.92,8.96,5.6,2.81.53,4.44-1.56,3.67-4.32-.79-2.85-5.13-6.14-8.11-6.26Z"/><path class="cls-6" d="M27.63,158.72c-6.67.02-10.36-2.89-13-7.51-3.5-6.12-5.36-12.49-2.98-19.5,1.15-3.39,3.04-6.36,5.13-9.24,4.59-6.31,17.4-4.32,21.03,1.34,4.81,7.48,4.46,14.83,1.68,22.55-1.01,2.81-2.5,5.45-4.29,7.85-2.14,2.87-4.71,5.03-7.57,4.5Z"/><path class="cls-2" d="M97.96,10.45c1.92,2.55,2.54,5.46,2.81,8.4.86,9.32.79,18.56-4.61,26.78-2.31,3.52-5.4,6.39-9.16,8.31-4.28,2.19-7.11,1.13-8.32-3.42-1.24-4.68-.06-9.12,2.92-12.98.53-.68,1.23-1.34,2.31-1.15,4.77.83,7.32-2.08,9.06-5.79,2.97-6.35,5.32-12.9,4.99-20.14Z"/><path class="cls-7" d="M37.16,172.71c-2.62.08-5.24.15-7.82-.51-1.58-.41-2.56-1.34-2.76-2.95-.2-1.63-.32-3.21,1.31-4.39,1.8-1.29,3.68-2.31,5.92-2.39,5.33-.2,10.66-.3,15.99-.5,2.3-.09,2.82,1.09,2.49,3.07-.67,4.01-5.02,7.3-10.26,7.66-1.62.11-3.26.02-4.89.02Z"/><path class="cls-2" d="M43.2,6.89c.19,4.23-.15,8.52,1.44,12.59.3.78-.02,1.22-.62,1.56-3.13,1.79-5.32,4.63-8.08,7.42-1.55-8.8,2.8-15.19,7.3-21.53l-.03-.04Z"/><path class="cls-7" d="M18.67,162.45c.11-.67-.06-1.97,1.08-1.6,1.69.54,3.69.4,5.01,1.9-1.36,1.18-.8,3.63-2.56,4.33-1.13.45-3.5-2.79-3.53-4.64Z"/><path class="cls-2" d="M43.23,6.93c.08-.04.16-.08.24-.12-.09.03-.18.06-.27.08,0,0,.03.04.03.04Z"/><path class="cls-1" d="M61.53,128.57c-3.35.17-6.76-.03-7.97-3.72-1.15-3.49.78-6.28,3.38-8.57,1.68-1.48,3.66-2.34,5.79-2.91,5.24-1.39,5.96-2.24,6.1-7.7.11-4.35-.18-8.72.57-13.05.43-2.5.85-5.01,1.75-7.4,1.84-4.89,7.97-7.97,12.95-6.46,3.48,1.05,4.9,3.97,5.67,7.05,1.76,7.04,2.53,14.08-1.11,20.89-1.92,3.6-3.56,7.31-5.84,10.74-5.11,7.67-12.5,10.67-21.28,11.12ZM87.55,94.66c.01-2.7-.36-5.3-1.06-7.84-.81-2.95-2.97-4.89-5.43-5-2.27-.1-5.8,2.21-6.56,4.58-2.47,7.73-2.5,15.71-1.98,23.68.1,1.5-.02,2.4-1.24,3.17-2.39,1.5-4.84,2.81-7.61,3.52-2.8.72-5.27,2.06-6.48,4.91-.69,1.64-.34,2.95,1.68,3.11,6,.47,11.96-.52,16.34-4.59,7.31-6.79,11.56-15.43,12.34-25.54Z"/><path class="cls-4" d="M32.37,72.81c2.97.11,7.31,3.41,8.11,6.26.77,2.76-.86,4.85-3.67,4.32-3.65-.69-6.73-2.61-8.96-5.6-1.29-1.73-.46-3.87,1.61-4.56.92-.3,1.94-.29,2.92-.41ZM31.28,76.3c1.39,1.85,3,2.46,5.21,3.38-1.39-2.31-2.85-3.18-5.21-3.38Z"/><path class="cls-7" d="M87.55,94.66c-.78,10.11-5.03,18.74-12.34,25.54-4.38,4.07-10.34,5.06-16.34,4.59-2.01-.16-2.37-1.47-1.68-3.11,1.2-2.85,3.67-4.19,6.48-4.91,2.77-.71,5.22-2.02,7.61-3.52,1.22-.76,1.34-1.66,1.24-3.17-.52-7.97-.49-15.95,1.98-23.68.76-2.37,4.29-4.68,6.56-4.58,2.46.11,4.62,2.04,5.43,5,.7,2.54,1.07,5.15,1.06,7.84Z"/><path class="cls-5" d="M50.01,54.64c-.85-5.74-2.36-7.52-5.6-7.1-3.43.44-6.81,4.61-6.46,7.97.33,3.23,2.26,4.17,8.17,3.97-1.34,2.13-6.58,4.24-8.49,3.14-1.84-1.06-2.9-3.2-3.32-5.03-1.45-6.36-.57-12.45,4.09-17.4,2.33-2.48,5.49-3.06,8.8-2.45,1.54.28,2.47,1.39,3.11,2.79,2.09,4.56,1.93,9.07-.29,14.12Z"/><path class="cls-3" d="M55.27,44.75c-.8-4.16-1.66-8.38-6.18-10.2-4.45-1.79-11.96.52-14.85,4.37-5.16,6.87-5.64,17.41-1.15,24.67,1.14,1.84,2.71,2.92,4.9,2.92,5.29,0,9.79-1.76,13.04-6.09,2.93-3.91,4.27-8.36,4.26-13.22,0-.82.13-1.66-.02-2.45ZM50.01,54.64c-.85-5.74-2.36-7.52-5.6-7.1-3.43.44-6.81,4.61-6.46,7.97.33,3.23,2.26,4.17,8.17,3.97-1.34,2.13-6.58,4.24-8.49,3.14-1.84-1.06-2.9-3.2-3.32-5.03-1.45-6.36-.57-12.45,4.09-17.4,2.33-2.48,5.49-3.06,8.8-2.45,1.54.28,2.47,1.39,3.11,2.79,2.09,4.56,1.93,9.07-.29,14.12Z"/><path class="cls-5" d="M31.28,76.3c2.36.2,3.82,1.07,5.21,3.38-2.21-.92-3.82-1.53-5.21-3.38Z"/></svg>