<?xml version="1.0" encoding="UTF-8"?><svg id="Calque_1" xmlns="http://www.w3.org/2000/svg" viewBox="0 0 121.05 223.91"><defs><style>.cls-1{fill:#000;}.cls-1,.cls-2{stroke-width:0px;}.cls-2{fill:#fff;}</style></defs><path class="cls-1" d="M14.22,84.75c1.09,1.6,2.32,3.11,3.22,4.81.9,1.68,1.47,3.54,2.41,5.89,2.4-11.57,6.8-21.75,11.06-32.01,1.27-3.06,1.39-6.61,1.95-9.95.61-3.61,1-7.26,1.75-10.84.19-.9,1.38-1.58,2.11-2.36.53.93,1.43,1.82,1.53,2.79.49,4.6.75,9.22,1.1,13.83.46.1.92.2,1.38.31,1.56-2.95,3.28-5.82,4.66-8.85,3.03-6.65,6.34-13.23,8.72-20.12,2.51-7.28,4.06-14.89,6.04-22.36.41-1.55.7-3.14,1.28-4.63C61.66.67,62.53-.01,63.08,0c.49.01,1.17.86,1.4,1.47,3.09,8.06,5.9,16.24,9.25,24.19,1.93,4.58,5.1,8.63,7.05,13.2,3.94,9.27,3.55,18.83.99,28.45-1.21,4.55-2.01,9.21-2.59,13.92,6-5.03,6.85-11.95,7.88-19.41.49.6,1.23,1.13,1.42,1.82,2.67,10.06,5.95,20.03,7.65,30.26,1.28,7.72.53,15.78.62,23.69.02,1.5-.25,3-.43,5.03,2.58-2.94,4.53-5.77,4.71-9.35.15-3.14-.23-6.31-.24-9.46,0-.64.62-1.83.96-1.83.77,0,1.92.38,2.23.96,1.34,2.52,2.68,5.09,3.57,7.8,2.69,8.2,5.26,16.43,7.69,24.71,1.93,6.56,4.41,13.1,5.21,19.82,1.37,11.41.71,22.79-4.57,33.47-2.18,4.42-5.9,6.01-10.28,6.86-1.29.25-2.58.47-3.88.7-.42,5.45.88,10.09,3.33,14.82,1.68,3.23,3.81,4.7,6.87,5.8,1.21.43,2.24,1.4,3.43,2.17-1.14,3.91-4.52,4.12-7.17,4.21-12.59.43-25.2.65-37.8.59-8.87-.04-17.76-.38-26.6-1.1-9.09-.74-18.14-2.02-27.18-3.26-1.79-.24-3.45-1.37-5.17-2.1.05-.46.09-.92.14-1.38,1.83-.27,3.65-.65,5.49-.78,1.89-.14,3.81-.03,5.12-.03.57-1.75.92-3.25,1.53-4.64,1.66-3.73,3.43-7.41,5.31-11.44-1.7-.49-2.95-.86-4.21-1.2-13.02-3.56-20.42-12.51-23.43-25.19-2.09-8.85-1.4-17.87-.35-26.87,1.33-11.44,5.8-22.02,8.5-33.06,1.61-6.56,2.22-13.37,3.15-20.08.18-1.29-.45-2.67-.39-4,.06-1.32.51-2.62.79-3.92.39-.03.78-.06,1.17-.09ZM36.15,54.66c-1.4,4.44-2.87,10.12-4.97,15.57-3.13,8.1-6.32,16.15-7.07,24.89-.29,3.36-.05,6.76-.05,10.39-4.86-4.24-7.19-9.71-9.47-15.2-.02,2.44.47,4.8.22,7.08-1,9.32-2.56,18.52-5.55,27.49-3.43,10.3-5.92,20.85-5.82,31.82.04,3.69.17,7.39.56,11.06.78,7.41,3.5,14.04,8.75,19.44,4.69,4.81,10.83,6.87,17.15,8.41,2.09.51,2.95,1.25,1.93,3.49-2.25,4.91-4.34,9.9-6.52,14.91,5.91,3.47,12.53,3.74,19.38,1.25,6.55-2.38,11.19-6.3,11.67-13.82.16-2.46.52-4.91.78-7.24,3.94.64,7.78,1.27,11.68,1.9,0,1.95.22,3.98-.04,5.93-.7,5.19,1.7,8.39,6.16,10.51,7.16,3.39,14.79,3.44,22.43,3.08,1.44-.07,2.82-1.32,4.74-2.29.09.02.91.18,2.38.48-4.51-5.51-6.04-11.18-4.58-17.03-2.04-.81-3.69-1.47-5.34-2.12.09-.3.18-.6.27-.9,2.27,0,4.54.14,6.79-.03,6.92-.52,11.63-3.41,13.79-10.7,3.24-10.94,3.27-21.78.55-32.63-1.95-7.77-4.67-15.34-7.03-23.01-1.53-4.97-3.03-9.94-4.55-14.92-.8.86-.95,1.63-1.16,2.38-1.09,3.93-2.58,7.66-6.04,10.13-.75.53-2.29.94-2.81.54-.66-.5-.88-1.89-.86-2.89.07-4.1.31-8.21.47-12.31.38-9.79-1.8-19.25-3.84-28.72-.68-3.17-1.44-6.32-2.16-9.48-1.26,4.99-3.67,9.16-6.95,12.8-.73.81-2.13,1-3.22,1.47-.43-1.01-1.31-2.06-1.22-3.02.5-5.52,1.18-11.03,1.9-16.54.53-4.07,1.9-8.17,1.66-12.18-.33-5.59-2.29-10.93-4.88-16.01-3.13-6.13-6.39-12.26-8.74-18.7-1.77-4.85-2.19-10.19-3.36-16.03-.77,2.93-1.29,5.16-1.94,7.36-1.97,6.74-3.72,13.56-6.07,20.17-2.18,6.13-5.04,12.01-7.58,18.01-1.88,4.43-3.66,8.91-8.16,12.61-1.39-3.15-2.61-5.93-3.27-7.43ZM71.14,214.25c-2.96-2.5-5.1-4.62-5.04-8.07.04-2.14.15-4.29,0-6.42-.05-.66-.71-1.63-1.3-1.82-2.01-.63-4.1-.98-5.84-1.36-.51,3.45-.85,6.93-1.59,10.32-.77,3.55-2.58,6.6-5.81,8.63,6.49-.42,12.8-.83,19.58-1.27Z"/><path class="cls-2" d="M36.15,54.66c.66,1.5,1.88,4.28,3.27,7.43,4.5-3.69,6.28-8.18,8.16-12.61,2.54-6,5.4-11.88,7.58-18.01,2.35-6.61,4.1-13.43,6.07-20.17.64-2.2,1.17-4.43,1.94-7.36,1.17,5.84,1.59,11.18,3.36,16.03,2.35,6.44,5.61,12.57,8.74,18.7,2.6,5.08,4.55,10.42,4.88,16.01.24,4.01-1.13,8.1-1.66,12.18-.72,5.5-1.4,11.01-1.9,16.54-.09.96.79,2.01,1.22,3.02,1.09-.48,2.5-.67,3.22-1.47,3.29-3.64,5.69-7.81,6.95-12.8.72,3.16,1.48,6.31,2.16,9.48,2.04,9.47,4.22,18.92,3.84,28.72-.16,4.1-.4,8.21-.47,12.31-.02,1,.21,2.39.86,2.89.52.4,2.07,0,2.81-.54,3.47-2.47,4.95-6.21,6.04-10.13.21-.75.36-1.52,1.16-2.38,1.51,4.97,3.02,9.95,4.55,14.92,2.36,7.67,5.08,15.24,7.03,23.01,2.72,10.85,2.69,21.69-.55,32.63-2.16,7.3-6.87,10.18-13.79,10.7-2.25.17-4.53.03-6.79.03-.09.3-.18.6-.27.9,1.65.66,3.3,1.31,5.34,2.12-1.46,5.85.07,11.52,4.58,17.03-1.47-.29-2.28-.46-2.38-.48-1.91.96-3.3,2.22-4.74,2.29-7.64.36-15.28.31-22.43-3.08-4.46-2.11-6.86-5.32-6.16-10.51.27-1.96.04-3.98.04-5.93-3.9-.64-7.74-1.26-11.68-1.9-.26,2.33-.62,4.78-.78,7.24-.48,7.51-5.12,11.44-11.67,13.82-6.85,2.49-13.47,2.23-19.38-1.25,2.18-5.01,4.27-9.99,6.52-14.91,1.03-2.24.16-2.98-1.93-3.49-6.32-1.54-12.46-3.59-17.15-8.41-5.25-5.39-7.97-12.03-8.75-19.44-.39-3.67-.52-7.37-.56-11.06-.11-10.97,2.38-21.52,5.82-31.82,2.99-8.96,4.54-18.17,5.55-27.49.25-2.28-.24-4.65-.22-7.08,2.29,5.49,4.61,10.96,9.47,15.2,0-3.63-.24-7.03.05-10.39.76-8.73,3.94-16.79,7.07-24.89,2.1-5.44,3.58-11.13,4.97-15.57ZM26.33,146.81c-.2,2.98-.28,5.36-.53,7.71-.28,2.57-.86,5.12-1.05,7.69-.17,2.27,1.06,3.34,3.14,2.8,9.77-2.51,19.75-2.36,29.67-2.01,6.49.23,13.13.49,19.55,4.02,1.11-1.96,2.62-3.68,3.07-5.65.79-3.46,1.01-7.06,1.31-10.61.31-3.65.44-7.32.68-11.66-18.83,5.17-37.11,9.9-55.84,7.71ZM78.91,105.43c-.24-.09-.48-.18-.72-.27,0-5.12-1.13-9.99-3.91-14.32-2.18-3.39-4.98-6.06-9.55-5.35-3.14.48-5.06,2.42-6.33,5.24-3.71,8.26-.59,20.7,7.31,26.67,3.3,2.5,7.64,1.84,9.58-1.82,1.67-3.14,2.45-6.75,3.62-10.15ZM29.55,105.54c-.05,3.89.97,7.36,3.12,10.63,3.13,4.78,8.97,4.56,12.16,1.76,7.49-6.56,9.9-14.95,8.04-24.52-.73-3.77-2.67-7.3-6.76-8.32-3.94-.98-7.31.62-10.17,3.55-4.63,4.74-5.83,10.68-6.39,16.89Z"/><path class="cls-2" d="M71.14,214.25c-6.78.44-13.09.85-19.58,1.27,3.23-2.03,5.03-5.08,5.81-8.63.74-3.39,1.07-6.87,1.59-10.32,1.74.38,3.84.73,5.84,1.36.59.18,1.26,1.16,1.3,1.82.15,2.13.04,4.28,0,6.42-.06,3.46,2.08,5.57,5.04,8.07Z"/><path class="cls-1" d="M26.33,146.81c18.73,2.19,37.02-2.54,55.84-7.71-.24,4.34-.37,8.01-.68,11.66-.3,3.55-.52,7.15-1.31,10.61-.45,1.97-1.96,3.69-3.07,5.65-6.43-3.53-13.07-3.79-19.55-4.02-9.92-.35-19.9-.5-29.67,2.01-2.08.54-3.31-.53-3.14-2.8.19-2.58.77-5.12,1.05-7.69.26-2.36.34-4.73.53-7.71ZM80.44,140.67c-1.84.85-3.1,1.48-4.39,2.02-1.4.58-2.84,1.08-4.25,1.62-1.32.51-3.26.34-2.92,2.68.23,1.59.36,3.19.66,4.76.06.31.64.71,1.01.74,2.84.21,5.68.34,8.65.5.4-4,.79-7.81,1.24-12.33ZM67.25,161.01c0-1.81.16-3.63-.08-5.41-.09-.71-1.03-1.82-1.63-1.85-3.58-.17-7.17-.09-10.91-.09.31,2.2.57,4.04.82,5.87,4.01.5,7.88.98,11.79,1.47ZM69.56,154.19c-.13,2.67-.25,5.04-.37,7.4,2.2.74,4.44,1.49,7.25,2.43.93-3.08,1.81-6,2.73-9.06-3.68-.29-6.53-.52-9.61-.76ZM40.15,155.43v4.05h13.37c-.17-.85-.47-1.54-.42-2.22.18-2.5-.93-3.44-3.35-3.1-3.09.44-6.19.82-9.59,1.26ZM67.14,145.76c-3.43.85-6.49,2.04-9.61,2.26-2.98.21-3.21,1.49-2.67,3.78h12.28v-6.04ZM28.81,156.22c2.1-.39,4.11-.69,6.09-1.15,3.73-.87,3.72-.91,3.17-5.35h-10.42c.37,2.06.75,4.23,1.15,6.5ZM52.42,149.06c-4.38.34-8.58.66-12.98,1.01,0,.89-.19,1.83.07,2.64.17.53,1.02,1.27,1.48,1.22,3.79-.44,7.56-1.05,11.43-1.62v-3.25ZM39.18,159.54c-.24-1.33-.46-2.54-.69-3.77-2.81.61-5.23,1.52-7.66,1.56-3.28.07-3.16,2.07-3.33,4.21,2.02-.47,3.88-1.01,5.77-1.33,1.93-.33,3.9-.45,5.9-.67Z"/><path class="cls-1" d="M78.91,105.43c-1.17,3.4-1.95,7.02-3.62,10.15-1.95,3.66-6.28,4.31-9.58,1.82-7.9-5.97-11.02-18.41-7.31-26.67,1.27-2.82,3.19-4.76,6.33-5.24,4.56-.7,7.36,1.96,9.55,5.35,2.78,4.33,3.91,9.19,3.91,14.32.24.09.48.18.72.27ZM76.31,105.17c-.33-6.2-2.37-11.81-5.95-15.2-3.23-3.06-8.61-4.13-10.44,2.51-2.19,7.92-.24,15.09,4.8,21.04,3.9,4.6,8.24,3.54,10.32-2.11.73-1.97.86-4.15,1.27-6.24Z"/><path class="cls-1" d="M29.55,105.54c.56-6.21,1.76-12.15,6.39-16.89,2.86-2.93,6.23-4.53,10.17-3.55,4.09,1.02,6.02,4.55,6.76,8.32,1.86,9.57-.55,17.96-8.04,24.52-3.2,2.8-9.04,3.02-12.16-1.76-2.14-3.28-3.16-6.75-3.12-10.63ZM51.43,98.9c0-1,.16-2.03-.03-2.99-.66-3.36-1.25-6.96-4.93-8.39-3.37-1.31-6.73-.59-9.14,2.13-1.8,2.04-3.36,4.45-4.43,6.94-2.64,6.13-3.3,12.35.73,18.28,2.5,3.67,6.17,4.44,9.68,1.84,5.95-4.41,7.99-10.69,8.11-17.81Z"/><path class="cls-2" d="M80.44,140.67c-.46,4.52-.84,8.32-1.24,12.33-2.97-.16-5.81-.29-8.65-.5-.37-.03-.95-.43-1.01-.74-.3-1.57-.43-3.18-.66-4.76-.34-2.35,1.6-2.18,2.92-2.68,1.42-.54,2.85-1.04,4.25-1.62,1.29-.54,2.55-1.17,4.39-2.02Z"/><path class="cls-2" d="M67.25,161.01c-3.91-.49-7.78-.97-11.79-1.47-.26-1.84-.51-3.67-.82-5.87,3.73,0,7.33-.09,10.91.09.6.03,1.54,1.15,1.63,1.85.24,1.77.08,3.6.08,5.41Z"/><path class="cls-2" d="M69.56,154.19c3.08.24,5.93.47,9.61.76-.92,3.06-1.8,5.98-2.73,9.06-2.81-.94-5.05-1.69-7.25-2.43.12-2.36.23-4.72.37-7.4Z"/><path class="cls-2" d="M40.15,155.43c3.41-.44,6.5-.82,9.59-1.26,2.42-.34,3.53.6,3.35,3.1-.05.67.25,1.37.42,2.22h-13.37v-4.05Z"/><path class="cls-2" d="M67.14,145.76v6.04h-12.28c-.54-2.29-.31-3.57,2.67-3.78,3.12-.22,6.18-1.41,9.61-2.26Z"/><path class="cls-2" d="M28.81,156.22c-.4-2.27-.79-4.44-1.15-6.5h10.42c.55,4.44.56,4.48-3.17,5.35-1.98.46-3.99.76-6.09,1.15Z"/><path class="cls-2" d="M52.42,149.06v3.25c-3.87.57-7.64,1.18-11.43,1.62-.46.05-1.31-.69-1.48-1.22-.25-.81-.07-1.75-.07-2.64,4.4-.34,8.6-.67,12.98-1.01Z"/><path class="cls-2" d="M39.18,159.54c-2.01.22-3.97.34-5.9.67-1.9.32-3.76.86-5.77,1.33.17-2.13.05-4.14,3.33-4.21,2.43-.05,4.84-.95,7.66-1.56.22,1.23.44,2.44.69,3.77Z"/><path class="cls-2" d="M76.31,105.17c-.41,2.09-.55,4.27-1.27,6.24-2.08,5.64-6.42,6.7-10.32,2.11-5.04-5.94-7-13.11-4.8-21.04,1.84-6.64,7.21-5.57,10.44-2.51,3.58,3.39,5.62,9,5.95,15.2ZM71.47,104.89c-.99-2.4-1.66-4.74-2.88-6.74-1.13-1.86-3.36-1.37-4.05.73-.88,2.68.13,5.06,1.67,7.15.71.96,1.98,1.49,3,2.22.72-1.07,1.44-2.14,2.26-3.35Z"/><path class="cls-2" d="M51.43,98.9c-.12,7.11-2.16,13.39-8.11,17.81-3.51,2.6-7.18,1.83-9.68-1.84-4.03-5.93-3.37-12.14-.73-18.28,1.07-2.5,2.63-4.91,4.43-6.94,2.4-2.72,5.76-3.44,9.14-2.13,3.68,1.43,4.27,5.03,4.93,8.39.19.96.03,1.99.03,2.99ZM44.4,101.41c-.72-1.44-1.08-3.37-2.03-3.73-1.12-.43-3.07.11-4.09.94-1.55,1.27-1.45,6-.17,7.56,1.24,1.52,2.76,2.26,4.06.18.91-1.44,1.42-3.12,2.23-4.96Z"/><path class="cls-1" d="M71.47,104.89c-.81,1.21-1.54,2.28-2.26,3.35-1.02-.73-2.29-1.26-3-2.22-1.54-2.08-2.54-4.46-1.67-7.15.69-2.1,2.92-2.59,4.05-.73,1.22,2,1.88,4.34,2.88,6.74Z"/><path class="cls-1" d="M44.4,101.41c-.8,1.83-1.32,3.52-2.23,4.96-1.31,2.08-2.82,1.33-4.06-.18-1.28-1.57-1.38-6.3.17-7.56,1.02-.83,2.97-1.36,4.09-.94.95.36,1.31,2.29,2.03,3.73Z"/></svg>