<?xml version="1.0" encoding="UTF-8"?><svg id="Calque_1" xmlns="http://www.w3.org/2000/svg" viewBox="0 0 164.3 218.13"><defs><style>.cls-1{fill:#545454;}.cls-1,.cls-2,.cls-3,.cls-4,.cls-5,.cls-6,.cls-7,.cls-8,.cls-9{stroke-width:0px;}.cls-2{fill:#060707;}.cls-3{fill:#00d100;}.cls-4{fill:#0080c7;}.cls-5{fill:#050605;}.cls-6{fill:#969696;}.cls-7{fill:#121212;}.cls-8{fill:#fff;}.cls-9{fill:#8fcd78;}</style></defs><path class="cls-5" d="M110.65,7.58c-.32-3.37.83-4.41,3.69-3.39,6.04,2.15,10.48,6.36,14.02,11.57,6.99,10.3,9.78,21.53,7.38,33.88-.03.15.09.32.21.7,2.48-1.18,5.1-1.49,7.81-1.26,3.89.32,6.25,2.95,6.58,6.96.53,6.49-2.02,11.85-5.81,16.73,11,6.57,16.57,16.8,18.85,28.78,2.55,13.35-.12,25.67-8.9,36.52-2.27,2.81-4.66,5.15-7.76,6.85-1.04.57-1.36,1.13-.34,1.99,6.29,5.24,6.63,12.43,6.03,19.69-.37,4.42-3.25,7.83-6.6,10.55-3.58,2.91-7.52,5.36-11.09,8.33-3.28,2.73-5.81,5.96-7.99,9.54-2.59,4.27-5.82,7.8-10.36,10.13-3.05,1.57-5.99,3.35-8.79,5.39-5.47,3.98-12.11,4.78-18.45,6.09-11.31,2.33-22.77,1.5-34.16.43-10.49-.98-20.8-2.99-30.96-5.83-8.15-2.28-15.66-5.83-20.09-13.35-5.61-9.52-4.76-19.52-.2-29.22,2.61-5.56,6.75-10.08,11.23-14.26,2.16-2.01,4.72-3.33,7.46-4.37,1.59-.6,3.11-1.33,4.47-2.92-7.87-1.44-10.13-7.45-11.54-13.87-1.46-6.64-2.87-13.32-2.53-20.2.51-10.15,2.84-19.72,9.04-28.04.51-.69,1.17-1.09.03-2.1-4.4-3.87-5.38-8.03-3.19-13.44,3.13-7.73,8.19-13.86,15.57-17.92.94-.52,1.99-1.22,2.98-1.21,3.2.04,2.99-1.66,2.77-4.08-1.52-16.77,4.11-30.42,17.99-40.35,1.35-.97,2.88-1.53,4.46-1.94,1.08-.28,2.18-.29,2.92.83.71,1.08.05,1.9-.53,2.71-3.39,4.69-5.7,9.86-6.93,15.52-.3,1.36-.17,2.71-.31,4.05-.17,1.61.57,3,1.81,3.27,1.41.32,2.46-1.37,2.72-2.47,1.32-5.43,4.98-8.44,9.9-10.3.78-.29,1.19-.62,1.24-1.51.66-12,12.71-19.74,25.77-14.36,1.36.56,2.54,1.33,4.03-.23.88-.92,3.01-.48,2.87,1.06-.34,3.6,2.57,3.56,4.71,5ZM134.51,61.85c1.28-1.16,2.77-1.52,4.45-1.12.62.15,1.36.33,1.43-.59.05-.7-.68-.77-1.19-.75-1.96.1-3.99.09-5.18,2.09-.15.29-.26.6.08.82.03.02.27-.3.41-.46ZM133.86,56.84c2.21-.37,4.39-1.23,6.68-.62,1.81.48,3.1,1.5,3.25,3.52.15,2.07-.76,3.48-2.71,4.21-.41.15-.99.19-1.19.49-1.52,2.26-3.49,2.46-5.85,1.16.29,1.33.89,2.47.67,3.42-.44,1.86.22,3,1.71,3.77,1.58.81,3.17.3,4.23-.9,3.86-4.4,6.72-9.27,6.19-15.44-.21-2.41-1.46-3.74-4.02-3.89-2.43-.13-4.52.66-6.29,2.11-.88.72-2.74.38-2.61,2.25-.12-.24-.27-.26-.4-.03-.04.06,0,.17.01.26.12-.1.23-.2.35-.3ZM33.56,87.37c-3.61,3.11-5.49,7.34-7.39,11.54-3.25,7.21-4.67,14.65-2.52,22.48,1.22,4.46,3.54,6.61,7.75,7.01-.06-.46-.07-.91-.17-1.33-2.08-8.78-2.11-17.57-.49-26.43.81-4.45,2.56-8.68,2.86-13.23.37.01.42-.23.39-.51,0-.07-.1-.13-.16-.2-.09.23-.18.45-.27.68ZM142.59,87.37c-.09-.23-.18-.45-.27-.68-.06.07-.15.13-.16.2-.03.28.03.52.39.51-.17,1.67.41,3.23.86,4.78,2.82,9.78,3.99,19.69,2.49,29.82-.33,2.2-.78,4.38-1.2,6.67,5.2-.79,7.14-4.2,8.12-8.6,1.66-7.43.17-14.41-2.86-21.16-1.88-4.2-3.77-8.43-7.38-11.54ZM57.83,10.66c-.31.19-.64.35-.92.57-11.01,8.82-16.52,27.4-12.1,40.82.74,2.26,1.75,4.39,3.25,6.24.48.59,1.05,1.43,1.91.3,2.4-3.16,5.68-5.66,7.18-9.5,2.07-5.31,3.54-11.14-.25-15.79-3.1-3.8-2.79-7.34-2.26-11.37.5-3.83,2.41-7.2,3.57-10.81.08-.2.15-.4.23-.59-.2.04-.41.08-.61.13ZM118.33,10.66l-.61-.13c.08.2.15.4.23.59,1.05,2.89,2.4,5.72,3.07,8.7,1.05,4.7,2.64,9.67-2.1,13.56-.31.26-.4.8-.58,1.21-2.08,4.94-1.21,9.74.67,14.5,1.52,3.83,4.79,6.33,7.18,9.5.54.71,1.05.67,1.54.09.59-.68,1.15-1.41,1.6-2.18,3.43-5.92,4.02-12.44,3.29-19-1.2-10.76-5.58-20-14.29-26.84ZM113.84,161.66c.48-.17.93-.24,1.29-.46,10.7-6.27,18.38-15.19,23.37-26.51.72-1.62-.03-2.35-1.24-3.03-4.41-2.47-7.7-6.13-10.09-10.46-9.59-17.34-12.19-35.48-4.34-54.07,1.94-4.58.67-6.89-2.19-9.62-5.38-5.14-7.49-11.7-6.7-18.8.4-3.62-.5-5.85-3-7.95-.69-.58-1.25-1.32-1.94-1.91-1.36-1.17-2.5-3.05-4.79-1.49-.51.35-1.21-.09-1.76-.45-1.08-.7-2.29-1.07-3.57-1.23-10.59-1.32-20.64-.34-29.35,6.69-1.2.97-2.52,1.88-4.22,1.41-3.15-.88-3.74-.24-3.26,3.1.73,5.04.13,9.89-2.1,14.56-1.61,3.36-4.36,5.77-6.6,8.59-.59.74-1.02,1.29-.55,2.38,3.97,9.29,3.4,18.99,2.29,28.67-.97,8.53-4.99,16.07-8.31,23.81-2.43,5.66-4.55,11.55-9.76,15.46-1.12.83-.37,1.65-.09,2.41,2.2,5.93,5.35,11.34,9.45,16.13,4.08,4.76,8.64,9,14.65,12.21-1.93-9.24-.61-17.25,5.84-24.09,6.25-6.63,13.71-9.6,22.82-9.49,11.51.14,28.1,13.62,24.13,34.13ZM50.11,158.13c-2.89-2.75-5.31-5.08-7.36-7.75-.41-.53-.85-.84-1.6-.76-2.77.28-5.41-.4-8.03-1.16-1.06-.3-1.76-.05-2.67.64-2.29,1.76-4.64,3.45-7.44,4.42-2.33.81-4.38,2.16-6.15,3.91-3.76,3.72-7.33,7.64-9.64,12.43-4.05,8.42-5.26,17.2-.38,25.56,3.89,6.66,10.28,10.44,17.78,12.38,18.2,4.71,36.69,7.57,55.45,6.38,10.21-.65,20.61-2.38,29.07-9.31,1.28-1.05,2.75-1.74,4.23-2.43,3.88-1.79,7.15-4.3,9.26-8.1,4.31-7.77,10.78-13.4,18.13-18.07,6.16-3.92,9.15-9.14,8.32-16.62-.54-4.87-3.12-8.36-6.3-11.67-.5-.52-1-.52-1.69-.45-6.95.64-10.41,5.98-14.8,10.64,3.73.02,6.87.74,9.38,3.13,2.96,2.81,2.93,7.89-.1,10.06-3.31,2.37-6.97,3.91-11.12,3.8-3.17-.09-6.35-.19-9.5-.54-2.91-.32-5.87-1.07-7.71-3.54-1.1-1.48-1.99-1.3-3.41-.87-10.44,3.19-20.92,3.26-31.35.02-1.73-.53-2.69-.43-3.82,1.13-1.19,1.64-3.2,2.34-5.17,2.8-3.64.84-7.37.99-11.09,1-3.49,0-6.77-.65-9.85-2.55-2.46-1.52-4.5-2.96-4.27-6.27.23-3.39,2.03-5.51,4.93-6.92,1.98-.96,4.12-1.18,6.88-1.28ZM63.97,153.14c-.16,2.83.39,5.44,1.29,8.06.78,2.25,2.19,3.44,4.42,4.25,10.61,3.85,21.24,4.37,32.26,1.58,5.87-1.48,8.18-5.04,8.89-10.44.25-1.92-.02-3.82-.48-5.66-3.43-13.88-12.98-20.48-25.68-19.73-9.64.57-21.39,11.31-20.7,21.94ZM125.59,92.97c-1.33.62-3.58.37-3.12,2.85,1.65,8.93,3.67,17.74,9.15,25.28,1.97,2.71,3.96,5.41,7.08,6.97.62.31,1.11,1.03,1.87.24,1.02-1.06,1.56-7.61.64-8.77-4.02-5.09-6.45-10.94-7.64-17.21-1.18-6.24-2-12.59,1.99-18.35.84-1.21.78-2.76-.45-3.35-1.16-.56-2.08.66-2.61,1.8-1.21,2.58-1.69,5.34-1.88,8.13-.15,2.32-1.36,2.99-3.4,2.78-.53-.06-1.05-.24-1.63-.37ZM29.11,81.29c3.87-.81,7.79-3,10.46-7.03,1.65-2.49,2.67-5.46,4.58-7.69,2.42-2.83,2.85-5.03-.14-7.61-.83-.72-1.19-2.01-1.71-3.06-1.25-2.54-2.62-3.15-5.19-1.88-8,3.96-13.17,10.39-15.61,18.9-1.24,4.32,2.28,8.46,7.61,8.38ZM66.42,168.17c-3.95-1.7-7.37-4.13-11.16-5.73-3.47-1.47-7.27-1.42-10.82.28-1.58.75-2.52,2.03-2.67,3.82-.16,1.8,1.38,2.11,2.48,2.83,4.91,3.25,10.31,1.96,15.57,1.65,2.32-.14,4.68-.59,6.6-2.84ZM109.65,168.29c.81.64,1.23,1.21,1.79,1.38,6.77,2.09,13.55,3.16,20.25-.22,1.23-.62,2.88-1.02,2.68-2.97-.19-1.89-1.24-3.17-2.96-3.9-3.79-1.59-7.72-1.62-11.31.18-3.38,1.69-6.64,3.65-10.45,5.52ZM45.75,90c-.59-2.48-1.26-5.47-2.03-8.42-.24-.91-.95-1.79-1.93-1.55-1.04.25-.67,1.41-.53,2.1,1.04,5.04,1.73,10.04,1.11,15.26-.53,4.49-.96,8.98-2.33,13.29-1.32,4.13-2.55,8.31-4.94,12.02-.82,1.27-.89,2.98.13,3.77,1.26.97,1.97-.86,2.51-1.61,2.88-3.98,4.52-8.61,6.5-13.06.24-.53.3-1.23-.37-1.35-2.86-.5-1.85-2.47-1.45-3.98,1.41-5.23,2.42-10.54,3.31-16.46ZM104.66,20.91c2.29-9.21-3.81-17-11.99-16.73,1.01,1.12,2.01,2.15,2.91,3.26,1.45,1.8,1.05,3.03-1.11,3.82-.51.19-1.73.05-1.34.84.93,1.89,1.48,4.3,3.32,5.36,2.55,1.47,5.45,2.32,8.21,3.44ZM138.24,86.76c-3.99,5.95-.97,23.19,4.93,28.12-.6-9.65-.7-19.13-4.93-28.12ZM94.05,21.63c-5.16-2.98-10.66-2.9-16.1-2.28-4.5.51-8.53,2.39-11.43,6.12-.92,1.18-1.34,2.49-.04,3.62,1.18,1.02,2-.19,2.73-.83,1.8-1.58,3.86-2.62,6.02-3.6,5.94-2.7,12.37-2.04,18.81-3.03ZM33.44,116.89c4.67-9.74,6.62-19.93,4.93-30.67-4.76,9.71-5.11,20.13-4.93,30.67ZM107.69,10.41c.31,2.22.52,4.18.87,6.12.36,2.02-.27,3.96-.35,5.94-.02.48.11.87.49,1.19,2.12,1.79,4.24,3.58,6.39,5.4,2.18-5.25-2.24-16.74-7.41-18.66ZM88.61,4.07c-5.44.29-11.15,5.72-11.42,10.74-.03.57-.34,1.27.67,1.46,2.59.5,7-1.53,8.28-3.87.24-.45.7-.92,0-1.37-2.49-1.6-1.16-2.92.29-4.27.78-.72,1.73-1.32,2.18-2.69ZM151.2,135.33c.18-.09.51-.14.64-.33,2.81-4.09,5.95-8.02,7.05-13.03.19-.88-.2-1.68-1.22-1.78-1.05-.1-1.4.66-1.46,1.56-.18,2.46-1.16,4.73-2.91,6.27-1.92,1.67-1.86,4.02-2.9,5.95-.34.64-.18,1.26.81,1.36ZM17.73,126.45c.78,2.93.98,6.12,2.15,9.09.24.6.39,1.4,1.15,1.28,1.16-.18,2.3-.65,3.02-1.64.53-.72.07-1.4-.5-1.91-2.2-1.95-3.21-4.56-4.07-7.26-.18-.57-.01-1.47-.91-1.41-1.06.07-.74,1.03-.85,1.84ZM46.67,104.82c3.03-5.44,4.38-11.29,5.29-17.27.19-1.27-.52-1.44-1.46-.93-1.07.58-1.78,1.33-1.72,2.77.07,1.79.12,3.58-.3,5.39-.76,3.31-1.22,6.69-1.81,10.04ZM30.22,85.34c-.94-1.14-2.33-.96-3.13-.49-2.2,1.3-3.53,3.47-4.65,5.73-.53,1.06.5,1.47,1.03,1.92.71.6,1.47.42,2.04-.45,1.03-1.58,2.1-3.12,3.18-4.67.46-.66.96-1.28,1.53-2.04ZM138.1,76.78c.93,2.92,3.2,3.88,7.08,2.92.59-.15,1.37-.27,1.49-.99.16-.95-.74-1.2-1.37-1.41-2.35-.78-4.69-1.87-7.2-.53ZM89.51,16.91c1.24.06,2.68.18,2.25-1.47-.35-1.36-.51-3.53-2.33-3.51-1.62.01-2.47,1.97-2.58,3.36-.14,1.62,1.46,1.75,2.67,1.63ZM160.03,115c.05-1.11-.04-1.96-1.34-1.98-1.31-.03-1.39.8-1.41,1.79-.03,1.27.72,1.88,1.81,1.9,1.27.02.82-1.12.94-1.71ZM91.85,7.81c-.02-.78-.36-1.4-1.21-1.49-.87-.09-1.37.44-1.45,1.27-.09.94.32,1.65,1.32,1.67.84.01,1.28-.57,1.34-1.45ZM18.36,119.35c-.16-.62.06-1.73-1.11-1.66-.86.05-.57.99-.56,1.56,0,.66-.29,1.65.71,1.78,1.12.14.84-.89.97-1.67Z"/><path class="cls-3" d="M113.84,161.66c3.97-20.51-12.62-33.98-24.13-34.13-9.11-.11-16.58,2.86-22.82,9.49-6.45,6.84-7.77,14.85-5.84,24.09-6.01-3.21-10.58-7.45-14.65-12.21-4.1-4.79-7.25-10.2-9.45-16.13-.28-.76-1.03-1.57.09-2.41,5.21-3.9,7.33-9.8,9.76-15.46,3.32-7.74,7.34-15.28,8.31-23.81,1.11-9.68,1.68-19.38-2.29-28.67-.47-1.09-.04-1.64.55-2.38,2.25-2.83,4.99-5.23,6.6-8.59,2.24-4.67,2.84-9.52,2.1-14.56-.49-3.34.1-3.98,3.26-3.1,1.7.47,3.02-.44,4.22-1.41,8.7-7.02,18.76-8,29.35-6.69,1.28.16,2.49.53,3.57,1.23.56.36,1.25.8,1.76.45,2.29-1.57,3.42.31,4.79,1.49.69.59,1.25,1.33,1.94,1.91,2.5,2.1,3.4,4.34,3,7.95-.79,7.1,1.32,13.66,6.7,18.8,2.86,2.73,4.12,5.03,2.19,9.62-7.85,18.59-5.25,36.73,4.34,54.07,2.39,4.33,5.68,7.99,10.09,10.46,1.21.68,1.96,1.4,1.24,3.03-4.99,11.32-12.67,20.24-23.37,26.51-.37.21-.81.29-1.29.46ZM67.28,55c-.01,11.98,9.47,21.58,21.3,21.57,11.51-.02,20.8-9.28,20.82-20.75.02-11.53-9.66-21.39-21-21.41-11.93-.02-21.11,8.93-21.12,20.6ZM86.08,101.66c1.07,0,1.61,0,2.16,0,5.52.04,10.84-1.1,15.79-3.41,4.48-2.09,4.77-6.44,1.05-9.53-1.85-1.53-3.92-2.63-6.19-3.3-5.79-1.7-11.72-2.34-17.72-1.73-3.86.4-7.79.91-10.96,3.5-2.38,1.94-3.9,4.38-3.26,7.58.63,3.19,3.04,4.62,5.97,5.17,4.53.86,9.02,2.09,13.17,1.7Z"/><path class="cls-9" d="M63.97,153.14c-.69-10.63,11.05-21.37,20.7-21.94,12.7-.75,22.25,5.85,25.68,19.73.46,1.85.73,3.74.48,5.66-.71,5.4-3.02,8.96-8.89,10.44-11.02,2.78-21.65,2.27-32.26-1.58-2.23-.81-3.63-2-4.42-4.25-.91-2.61-1.45-5.23-1.29-8.06Z"/><path class="cls-6" d="M118.33,10.66c8.71,6.84,13.08,16.08,14.28,26.84.73,6.56.14,13.08-3.29,19-.45.78-1.02,1.5-1.6,2.18-.49.57-1,.62-1.54-.09-2.39-3.17-5.66-5.67-7.18-9.5-1.88-4.75-2.74-9.56-.67-14.5.18-.42.26-.96.58-1.21,4.74-3.9,3.15-8.86,2.1-13.56-.67-2.98-2.02-5.8-3.07-8.7.13-.16.25-.31.38-.47Z"/><path class="cls-6" d="M58.2,11.13c-1.16,3.62-3.07,6.98-3.57,10.81-.52,4.03-.83,7.57,2.26,11.37,3.79,4.65,2.32,10.47.25,15.79-1.5,3.83-4.78,6.34-7.18,9.5-.86,1.13-1.44.29-1.91-.3-1.5-1.85-2.51-3.99-3.25-6.24-4.41-13.43,1.1-32.01,12.1-40.82.28-.22.61-.38.92-.57.13.16.25.31.38.47Z"/><path class="cls-7" d="M125.59,92.97c.58.13,1.1.31,1.63.37,2.04.21,3.25-.46,3.4-2.78.19-2.79.67-5.56,1.88-8.13.53-1.14,1.45-2.35,2.61-1.8,1.23.59,1.29,2.15.45,3.35-3.99,5.76-3.17,12.11-1.99,18.35,1.19,6.27,3.63,12.12,7.64,17.21.91,1.16.37,7.71-.64,8.77-.76.79-1.25.07-1.87-.24-3.12-1.56-5.11-4.26-7.08-6.97-5.48-7.54-7.5-16.35-9.15-25.28-.46-2.49,1.79-2.24,3.12-2.85Z"/><path class="cls-3" d="M142.59,87.37c3.61,3.11,5.5,7.34,7.38,11.54,3.03,6.76,4.52,13.74,2.86,21.16-.98,4.4-2.92,7.81-8.12,8.6.41-2.29.87-4.47,1.2-6.67,1.5-10.13.33-20.04-2.49-29.82-.45-1.55-1.03-3.11-.86-4.78l.03-.03Z"/><path class="cls-3" d="M33.59,87.4c-.3,4.55-2.04,8.79-2.86,13.23-1.62,8.86-1.58,17.66.49,26.43.1.43.12.87.17,1.33-4.21-.4-6.53-2.55-7.75-7.01-2.15-7.84-.73-15.27,2.52-22.48,1.89-4.2,3.77-8.43,7.39-11.54l.03.03Z"/><path class="cls-3" d="M66.42,168.17c-1.92,2.25-4.29,2.7-6.6,2.84-5.26.31-10.66,1.6-15.57-1.65-1.1-.73-2.63-1.04-2.48-2.83.15-1.78,1.1-3.06,2.67-3.82,3.55-1.7,7.35-1.75,10.82-.28,3.78,1.6,7.2,4.03,11.16,5.73Z"/><path class="cls-3" d="M109.65,168.29c3.81-1.87,7.07-3.83,10.45-5.52,3.6-1.8,7.52-1.77,11.31-.18,1.72.72,2.77,2.01,2.96,3.9.2,1.95-1.45,2.35-2.68,2.97-6.7,3.38-13.48,2.31-20.25.22-.55-.17-.98-.74-1.79-1.38Z"/><path class="cls-7" d="M45.75,90c-.89,5.92-1.9,11.22-3.31,16.46-.41,1.51-1.41,3.48,1.45,3.98.67.12.6.82.37,1.35-1.98,4.45-3.62,9.08-6.5,13.06-.54.75-1.26,2.58-2.51,1.61-1.02-.79-.95-2.5-.13-3.77,2.39-3.7,3.62-7.88,4.94-12.02,1.37-4.31,1.79-8.8,2.33-13.29.62-5.22-.07-10.22-1.11-15.26-.14-.69-.51-1.86.53-2.1.98-.23,1.69.64,1.93,1.55.77,2.96,1.44,5.94,2.03,8.42Z"/><path class="cls-4" d="M104.66,20.91c-2.76-1.12-5.66-1.97-8.21-3.44-1.84-1.06-2.4-3.47-3.32-5.36-.39-.8.83-.66,1.34-.84,2.16-.79,2.56-2.02,1.11-3.82-.9-1.11-1.9-2.14-2.91-3.26,8.18-.27,14.29,7.53,11.99,16.73Z"/><path class="cls-3" d="M138.24,86.76c4.23,8.99,4.33,18.47,4.93,28.12-5.9-4.94-8.92-22.17-4.93-28.12Z"/><path class="cls-4" d="M94.05,21.63c-6.44.99-12.87.33-18.81,3.03-2.16.98-4.22,2.02-6.02,3.6-.74.65-1.55,1.86-2.73.83-1.31-1.13-.88-2.44.04-3.62,2.9-3.74,6.94-5.61,11.43-6.12,5.44-.62,10.93-.7,16.1,2.28Z"/><path class="cls-3" d="M33.44,116.89c-.18-10.54.17-20.96,4.93-30.67,1.69,10.74-.26,20.93-4.93,30.67Z"/><path class="cls-4" d="M107.69,10.41c5.16,1.92,9.59,13.41,7.41,18.66-2.15-1.82-4.27-3.62-6.39-5.4-.38-.32-.51-.72-.49-1.19.08-1.98.71-3.92.35-5.94-.34-1.94-.56-3.9-.87-6.12Z"/><path class="cls-4" d="M88.61,4.07c-.44,1.37-1.4,1.97-2.18,2.69-1.46,1.35-2.78,2.66-.29,4.27.7.45.24.92,0,1.37-1.28,2.34-5.68,4.37-8.28,3.87-1-.19-.7-.89-.67-1.46.27-5.02,5.98-10.46,11.42-10.74Z"/><path class="cls-7" d="M151.2,135.33c-.99-.1-1.15-.72-.81-1.36,1.04-1.93.99-4.28,2.9-5.95,1.76-1.53,2.73-3.8,2.91-6.27.07-.9.41-1.66,1.46-1.56,1.02.09,1.41.89,1.22,1.78-1.1,5.01-4.23,8.94-7.05,13.03-.13.19-.46.24-.64.33Z"/><path class="cls-7" d="M17.73,126.45c.1-.81-.22-1.77.85-1.84.9-.06.73.84.91,1.41.86,2.69,1.87,5.31,4.07,7.26.57.5,1.03,1.18.5,1.91-.73.99-1.87,1.45-3.02,1.64-.76.12-.91-.68-1.15-1.28-1.17-2.97-1.37-6.16-2.15-9.09Z"/><path class="cls-7" d="M46.67,104.82c.59-3.35,1.05-6.73,1.81-10.04.42-1.82.37-3.61.3-5.39-.06-1.44.65-2.2,1.72-2.77.94-.51,1.66-.34,1.46.93-.91,5.98-2.26,11.83-5.29,17.27Z"/><path class="cls-7" d="M30.22,85.34c-.57.76-1.07,1.38-1.53,2.04-1.07,1.55-2.15,3.09-3.18,4.67-.56.86-1.32,1.04-2.04.45-.54-.45-1.56-.85-1.03-1.92,1.12-2.26,2.45-4.44,4.65-5.73.79-.47,2.19-.64,3.13.49Z"/><path class="cls-7" d="M138.1,76.78c2.5-1.33,4.85-.25,7.2.53.63.21,1.53.46,1.37,1.41-.12.71-.9.84-1.49.99-3.88.96-6.15,0-7.08-2.92Z"/><path class="cls-3" d="M89.51,16.91c-1.21.13-2.8-.01-2.67-1.63.12-1.39.96-3.35,2.58-3.36,1.82-.01,1.98,2.15,2.33,3.51.43,1.65-1.01,1.53-2.25,1.47Z"/><path class="cls-7" d="M160.03,115c-.12.59.32,1.73-.94,1.71-1.08-.02-1.83-.63-1.81-1.9.02-.99.1-1.82,1.41-1.79,1.31.03,1.4.87,1.34,1.98Z"/><path class="cls-1" d="M91.85,7.81c-.06.88-.5,1.46-1.34,1.45-1-.02-1.41-.73-1.32-1.67.08-.82.58-1.35,1.45-1.27.86.09,1.2.71,1.21,1.49Z"/><path class="cls-7" d="M18.36,119.35c-.13.79.15,1.81-.97,1.67-1-.12-.71-1.11-.71-1.78,0-.57-.3-1.51.56-1.56,1.17-.07.95,1.04,1.11,1.66Z"/><path class="cls-3" d="M33.56,87.37c.09-.23.18-.45.27-.68.06.07.15.13.16.2.03.28-.03.52-.39.51,0,0-.03-.03-.03-.03Z"/><path class="cls-3" d="M142.56,87.4c-.36.01-.42-.23-.39-.51,0-.07.1-.13.16-.2.09.23.18.45.27.68,0,0-.03.03-.03.03Z"/><path class="cls-6" d="M57.83,10.66c.2-.04.41-.09.61-.13-.08.2-.15.4-.23.59-.13-.16-.25-.31-.38-.47Z"/><path class="cls-6" d="M117.95,11.13c-.08-.2-.15-.4-.23-.59.2.04.41.09.61.13-.13.15-.25.31-.38.46Z"/><path class="cls-5" d="M67.28,55c.01-11.67,9.19-20.62,21.12-20.6,11.34.02,21.02,9.89,21,21.41-.02,11.47-9.31,20.74-20.82,20.75-11.83.02-21.32-9.58-21.3-21.57ZM88.19,38.21c-9.44-.22-17.2,7.33-17.34,16.86-.14,9.29,7.76,17.44,17.13,17.67,9.63.23,17.36-6.88,17.6-16.18.26-10.21-7.23-18.11-17.38-18.35Z"/><path class="cls-5" d="M86.08,101.66c-4.16.39-8.65-.85-13.17-1.7-2.93-.55-5.34-1.98-5.97-5.17-.63-3.21.89-5.64,3.26-7.58,3.18-2.59,7.1-3.11,10.96-3.5,6-.61,11.93.03,17.72,1.73,2.27.67,4.33,1.76,6.19,3.3,3.73,3.09,3.43,7.44-1.05,9.53-4.95,2.31-10.27,3.45-15.79,3.41-.54,0-1.09,0-2.16,0ZM86.68,98.28c5.18-.1,10.2-1.26,15.06-3.02,2.51-.91,2.61-2.26.68-3.84-2.71-2.2-5.97-2.84-9.27-3.54-3.14-.67-6.31-.13-9.45-.53-4.27-.54-8.24.39-11.69,3.04-1.23.94-1.77,2.29-1.39,3.87.36,1.51,1.69,1.85,2.9,2.1,4.34.87,8.68,1.8,13.16,1.93Z"/><path class="cls-2" d="M32.55,64.59c5.02,1.61,6.79,4.05,5.94,7.43-.79,3.12-5.09,5.26-9.19,4.57-3.01-.51-4.82-3.35-4.5-7.05.38-4.37,4.27-8.4,8.66-8.83,2.73-.27,5.45.03,8.03,1.02,1.12.43,2.26,1.17,1.69,2.64-.55,1.42-1.72,1.3-2.97.83-2.25-.85-4.61-.93-7.66-.61ZM33.71,72.28c-3.57.17-4.01-2.26-4.1-5.36-1.47,2.16-2.17,3.98-.64,5.62,1.36,1.47,3.09.85,4.75-.26ZM34.95,69.65c-.31.37-.46.76-.22,1.22.12.23.27.24.41,0,.26-.45.1-.84-.19-1.22ZM34.58,71.76c-.07-.07-.13-.13-.19-.19-.06.12-.14.24-.17.37,0,.04.11.12.17.18.07-.12.13-.24.19-.35Z"/><path class="cls-8" d="M88.19,38.21c10.15.24,17.64,8.15,17.38,18.35-.24,9.3-7.97,16.41-17.6,16.18-9.37-.23-17.27-8.38-17.13-17.67.14-9.54,7.91-17.09,17.34-16.86ZM82,54.71c.01,3.95,2.62,6.92,6.11,6.95,3.57.03,6.58-3.3,6.57-7.26-.01-3.88-2.68-6.86-6.19-6.9-3.66-.04-6.51,3.12-6.5,7.21Z"/><path class="cls-8" d="M86.68,98.28c-4.49-.13-8.83-1.06-13.16-1.93-1.22-.24-2.54-.59-2.9-2.1-.38-1.58.17-2.93,1.39-3.87,3.45-2.64,7.42-3.58,11.69-3.04,3.14.4,6.31-.14,9.45.53,3.29.7,6.56,1.34,9.27,3.54,1.94,1.57,1.83,2.93-.68,3.84-4.86,1.76-9.88,2.92-15.06,3.02Z"/><path class="cls-5" d="M82,54.71c-.01-4.09,2.84-7.25,6.5-7.21,3.5.04,6.17,3.02,6.19,6.9.01,3.96-3,7.29-6.57,7.26-3.5-.03-6.1-2.99-6.11-6.95Z"/></svg>