<?xml version="1.0" encoding="UTF-8"?><svg id="Calque_1" xmlns="http://www.w3.org/2000/svg" viewBox="0 0 674.81 260.84"><defs><style>.cls-1{fill:#000;stroke-width:0px;}</style></defs><path class="cls-1" d="M272.88,260.84c-31.53.06-58.65-1.12-85.67-4.07-35.16-3.84-69.85-10-103.35-21.73-18.76-6.57-36.69-14.79-52.68-26.8-9.53-7.16-17.91-15.43-23.78-25.92-10.77-19.24-9.3-38.32,1.39-57.01,9.16-16.02,22.5-28.17,37.26-38.85,22.35-16.17,46.87-28.31,72.41-38.48,36.59-14.56,74.34-25.24,112.98-32.62,21.63-4.13,43.42-7.41,65.19-10.8,13.24-2.06,26.61-1.69,39.94-.85,6.52.41,13.03.92,19.51,1.7,7.05.86,13.51,3.63,19.37,7.5,6.37,4.21,8.27,11.56,5.3,18.79-2.41,5.88-6.65,10.36-11.41,14.37-10.66,8.97-22.78,15.52-35.43,21.13-23.53,10.43-48.02,17.56-73.54,20.94-11.27,1.49-22.61,2.2-33.85-.38-1.73-.4-3.51-1.04-5-1.99-2.81-1.79-3.77-5.39-2.6-8.44,1.17-3.03,4.43-5.38,7.54-4.64,19.22,4.61,37.92.83,56.5-3.54,22.45-5.28,43.9-13.37,63.9-24.96,4.92-2.85,9.45-6.42,13.96-9.92,2.04-1.59,3.74-3.71,5.29-5.81,2.16-2.92,1.36-6.26-2.12-7.45-4.16-1.42-8.56-2.87-12.87-2.95-12.15-.23-24.3.44-36.46.38-16.06-.07-31.81,2.48-47.57,5.07-27.29,4.49-54.35,10.09-81.05,17.36-29.18,7.95-57.71,17.77-85.18,30.46-21.17,9.78-41.32,21.29-58.94,36.79-7.54,6.63-14.22,14-19.58,22.55-11.43,18.2-10.15,37,3.8,53.29,9.14,10.67,20.6,18.29,32.95,24.65,23.82,12.26,49.26,19.79,75.36,25.23,50.86,10.61,102.34,13.54,154.16,12.29,28.81-.69,57.52-2.77,86.1-6.32,56.54-7.02,112.03-18.68,165.59-38.52,27.83-10.31,54.64-22.71,78.92-40.03,12.86-9.18,24.67-19.5,33.15-33.09,4.34-6.95,7.27-14.42,7.79-22.67.67-10.48-2.9-19.64-9.1-27.86-8.78-11.64-20.48-19.72-33.11-26.56-20.09-10.88-41.62-17.86-63.71-23.29-29.26-7.19-59.01-11.16-88.99-13.55-3.36-.27-5.99-1.62-7.16-4.93-1.74-4.93,2.05-9.65,7.72-9.32,7.07.41,14.13,1.07,21.17,1.82,24.3,2.6,48.41,6.42,72.12,12.41,26.77,6.76,52.78,15.51,76.27,30.46,13.02,8.28,24.51,18.18,32.2,31.88,9.49,16.92,9.42,34.15,1.21,51.44-7.83,16.49-20.39,29.05-34.53,40.12-23.45,18.36-49.94,31.25-77.4,42.28-33.18,13.32-67.46,22.97-102.35,30.59-26.71,5.83-53.65,10.27-80.79,13.5-34.93,4.16-69.99,6.37-100.83,6.33Z"/></svg>