<?xml version="1.0" encoding="UTF-8"?><svg id="Calque_1" xmlns="http://www.w3.org/2000/svg" viewBox="0 0 136.98 177.79"><defs><style>.cls-1{fill:#000;}.cls-1,.cls-2{stroke-width:0px;}.cls-2{fill:#fff;}</style></defs><path class="cls-1" d="M28.22,58.12c-4.06-1.73-5.77-5.46-6.05-9.21-1.42-18.86,3.67-35.3,19-47.54.46-.36,1.03-.58,2.38-1.32-.49,1.59-.64,2.44-1,3.2-1.68,3.56-3.6,7.01-5.09,10.65-1.65,4.02-.62,8.15.48,12.12.22.8,1.67,1.26,2.81,2.06,6.68-9.85,16.02-15.41,27.85-15.89,12.12-.5,21.06,5.3,27.45,15.89,4.67-10.25,2.41-19.07-4.42-27.2.11-.27.21-.55.32-.82,1.15.06,2.52-.27,3.4.24,9.29,5.45,16.49,12.59,19.04,23.59,1.46,6.31.68,12.47-.49,18.66-.36,1.92-.89,3.82-1.39,5.71-.91,3.41-2.59,6.3-5.24,7.71,3.76,6.23,7.44,12.42,11.25,18.53.6.96,1.91,1.45,2.77,2.29,7.61,7.48,13.66,15.79,15.3,26.77.74,4.93.41,9.67-.68,14.42-1.01,4.42-4.9,8.27-8.94,8.59-1.83.14-3.72-.56-5.92-.94-3.32,10.55-9.48,20.12-18.25,28.77,3.32,0,6.06-.36,8.65.09,2.95.51,6.13,1.37,6.74,5.11.19,1.17-.13,2.42-.2,3.52,1.93.96,3.8,1.76,5.53,2.79,1.97,1.17,2.31,2.74.86,4.71-2.81,3.8-7.07,4.86-11.25,5.49-6.12.92-12.34,1.57-18.53,1.65-10.34.13-20.69,0-31.01-.54-10.78-.56-21.56-1.54-32.29-2.76-4.47-.51-8.85-1.99-13.2-3.28-1.68-.5-3.74-1.59-3.03-3.75.38-1.15,2.19-1.9,3.46-2.64.75-.43,1.71-.5,2.14-.61,0-1.71-.53-3.59.14-4.81.77-1.41,2.46-2.59,4.01-3.24,2.42-1.01,5.07-1.5,7.75-2.24-8.54-7.6-14.19-17.31-17.91-28.24-6.6,1.88-13.98-4.01-14.53-10.93-1.09-13.8,4.06-25.32,13.15-34.96,4.34-4.6,5.92-10.56,9.86-15.18,1.75-2.05,3.34-4.24,5.06-6.44ZM92.9,157.55c.65-.3,1.09-.43,1.46-.67,16.69-10.89,25.06-26.98,27.25-46.16,1.68-14.74-1.06-29.09-9.18-41.85-3.23-5.08-6.87-10.15-11.29-14.16-5.77-5.24-9.59-16.37-6.68-23.69.57-1.43.66-2.53-.43-3.64-1.94-1.97-3.64-4.29-5.85-5.88-14.94-10.75-34.52-7.31-45.85,6.59-.53.65-.83,1.95-.56,2.71,1.46,4.25,1.28,8.52.36,12.77-1.23,5.72-3.81,10.61-9.05,13.77-1.61.97-3.29,2.07-4.43,3.52-11.25,14.2-16.66,30.18-14.88,48.47,1.07,10.99,4.35,21.1,10.4,30.31,4.79,7.3,10.67,13.49,18.88,18.51-3.35-9.65-2.65-18.12,3.44-25.81,6.17-7.81,14.48-10.51,23.9-9.46,15.05,1.68,26.89,16.05,22.5,34.69ZM66.14,126.57c-6.14-.24-11.59,1.43-16.02,5.49-8.1,7.43-8.23,17.57-4.07,27.19.24.56.94,1.06,1.55,1.32,7.3,3.12,14.8,4.8,22.87,4.29,6.31-.4,12.06-2.26,17.79-4.57,1.74-.7,3.19-1.8,3.26-3.76.14-3.61.69-7.39-.1-10.83-2.85-12.26-14.35-19.52-25.28-19.13ZM98.75,6.89c.26.9.33,1.14.4,1.38,2.04,6.53,3.25,13.05-.54,19.41-3.67,6.17-2.49,16.92,2.46,22.31,3.89,4.24,6.16,3.89,8.17-1.6,2.63-7.21,4.11-14.68,2.64-22.34-1.53-7.97-6.13-14.03-13.14-19.16ZM36.71,9.8c-.19-.15-.39-.31-.58-.46-1.8,2.56-3.76,5.01-5.36,7.69-3.36,5.61-4.7,11.91-5.4,18.29-.5,4.58-1.25,9.23.44,13.84,2,5.45,3.62,6.7,8.66,1.92,4.3-4.07,5.13-9.67,5.3-15.28.09-3.08-1.26-5.72-2.99-8.36-2.85-4.34-3.77-9.23-1.63-14.29.48-1.13,1.04-2.23,1.56-3.34ZM120.67,78.03c-.18.17-.36.33-.55.5.1.33.19.67.3,1,4.47,13.19,5.19,26.58,2.04,40.16-.47,2.03.55,3.33,2.84,3.62,2.98.37,6.74-2.11,7.87-5.4,1.66-4.87,1.46-9.9.78-14.9-.91-6.66-4.53-12.15-7.95-17.69-1.58-2.55-3.54-4.87-5.33-7.29ZM14.57,82.1c-.43.05-.56.03-.61.08-.5.62-1.03,1.22-1.48,1.88-6.14,8.95-10.53,18.48-10.1,29.68.21,5.33,6,10.51,11.56,9.87-3.43-13.85-3.31-27.68.63-41.51ZM101.83,167.77c4.59-.12,8.83-.94,12.2-4.28,2.69-2.67,2.33-3.81-1.22-5.35-4.36-1.89-8.77-.73-13-.02-2.73.46-5.22,2.54-7.7,4.08-.77.48-1.6,1.58-1.59,2.4,0,.6,1.25,1.55,2.06,1.71,3.05.62,6.16.99,9.25,1.45ZM48.49,164.54c-3.67-2.13-6.55-3.46-9.03-5.32-5.34-4.01-10.43-1.95-15.57.22-1.16.49-1.51,1.63-.49,2.51,1.81,1.56,3.61,3.74,5.74,4.2,4.32.94,8.86,1.2,13.29,1.13,1.86-.03,3.69-1.61,6.07-2.74Z"/><path class="cls-2" d="M92.9,157.55c4.39-18.63-7.45-33.01-22.5-34.69-9.43-1.05-17.73,1.65-23.9,9.46-6.09,7.7-6.79,16.17-3.44,25.81-8.21-5.02-14.09-11.21-18.88-18.51-6.05-9.22-9.32-19.32-10.4-30.31-1.79-18.29,3.63-34.27,14.88-48.47,1.14-1.44,2.82-2.55,4.43-3.52,5.25-3.16,7.82-8.06,9.05-13.77.92-4.25,1.1-8.52-.36-12.77-.26-.77.03-2.06.56-2.71,11.33-13.9,30.91-17.34,45.85-6.59,2.21,1.59,3.91,3.9,5.85,5.88,1.09,1.11,1,2.21.43,3.64-2.92,7.32.91,18.45,6.68,23.69,4.42,4.01,8.05,9.08,11.29,14.16,8.11,12.76,10.86,27.1,9.18,41.85-2.19,19.18-10.56,35.27-27.25,46.16-.37.24-.81.38-1.46.67ZM69.61,70.42c10.07.7,18.98-8.78,18.89-18.95-.11-11.73-8.99-20.99-19.87-20.7-12.03.32-19.64,8.07-19.73,19.48-.09,11.21,9.52,20.55,20.72,20.16ZM66.39,80.25c-4.97-.13-9.86.35-14.31,2.74-4.78,2.56-5.14,6.06-1.08,9.55.93.8,2.07,1.49,3.24,1.85,3.23.99,6.47,2.18,9.79,2.57,5.75.66,11.52.24,16.74-2.58,1.99-1.08,3.91-2.52,3.99-5.35.09-2.93-1.61-4.43-3.85-5.6-4.54-2.39-9.4-3.36-14.52-3.16Z"/><path class="cls-2" d="M66.14,126.57c10.93-.4,22.43,6.87,25.28,19.13.8,3.44.24,7.21.1,10.83-.07,1.96-1.52,3.06-3.26,3.76-5.73,2.31-11.48,4.17-17.79,4.57-8.08.51-15.57-1.17-22.87-4.29-.6-.26-1.3-.75-1.55-1.32-4.16-9.63-4.03-19.77,4.07-27.19,4.43-4.06,9.87-5.74,16.02-5.49Z"/><path class="cls-2" d="M98.75,6.89c7,5.13,11.61,11.19,13.14,19.16,1.47,7.66,0,15.13-2.64,22.34-2.01,5.5-4.28,5.84-8.17,1.6-4.95-5.39-6.13-16.14-2.46-22.31,3.78-6.37,2.58-12.88.54-19.41-.07-.24-.14-.48-.4-1.38Z"/><path class="cls-2" d="M36.71,9.8c-.52,1.11-1.08,2.21-1.56,3.34-2.14,5.06-1.22,9.95,1.63,14.29,1.74,2.65,3.08,5.29,2.99,8.36-.16,5.6-1,11.2-5.3,15.28-5.04,4.78-6.66,3.54-8.66-1.92-1.69-4.61-.94-9.26-.44-13.84.7-6.38,2.04-12.68,5.4-18.29,1.6-2.67,3.56-5.13,5.36-7.69.19.15.39.31.58.46Z"/><path class="cls-2" d="M120.67,78.03c1.79,2.42,3.75,4.74,5.33,7.29,3.42,5.53,7.05,11.03,7.95,17.69.68,5,.88,10.03-.78,14.9-1.12,3.29-4.89,5.76-7.87,5.4-2.29-.28-3.31-1.58-2.84-3.62,3.14-13.58,2.43-26.96-2.04-40.16-.11-.33-.2-.67-.3-1,.18-.17.36-.33.55-.5Z"/><path class="cls-2" d="M14.57,82.1c-3.94,13.83-4.06,27.66-.63,41.51-5.56.64-11.35-4.54-11.56-9.87-.43-11.2,3.96-20.73,10.1-29.68.45-.66.98-1.26,1.48-1.88.04-.05.17-.03.61-.08Z"/><path class="cls-2" d="M101.83,167.77c-3.09-.46-6.2-.83-9.25-1.45-.82-.17-2.06-1.12-2.06-1.71,0-.81.82-1.91,1.59-2.4,2.48-1.54,4.98-3.62,7.7-4.08,4.23-.71,8.64-1.88,13,.02,3.55,1.54,3.91,2.68,1.22,5.35-3.37,3.34-7.61,4.15-12.2,4.28Z"/><path class="cls-2" d="M48.49,164.54c-2.38,1.13-4.21,2.71-6.07,2.74-4.44.07-8.97-.19-13.29-1.13-2.12-.46-3.93-2.64-5.74-4.2-1.02-.88-.67-2.02.49-2.51,5.14-2.17,10.23-4.24,15.57-.22,2.48,1.86,5.37,3.19,9.03,5.32Z"/><path class="cls-1" d="M69.61,70.42c-11.2.39-20.81-8.95-20.72-20.16.09-11.41,7.7-19.16,19.73-19.48,10.88-.29,19.76,8.97,19.87,20.7.1,10.17-8.81,19.65-18.89,18.95ZM86.89,51.3c.59-10.89-8.67-19.07-18.74-18.9-11.2.19-18.16,7.14-18.1,17.77.05,10.7,7.32,18.63,19.43,19.06,9.83.35,18.1-8.85,17.41-17.93Z"/><path class="cls-1" d="M66.39,80.24c5.11-.2,9.97.78,14.52,3.17,2.24,1.18,3.94,2.68,3.85,5.6-.09,2.83-2,4.27-3.99,5.35-5.22,2.82-10.99,3.24-16.74,2.58-3.32-.38-6.56-1.57-9.79-2.57-1.16-.36-2.31-1.05-3.24-1.85-4.06-3.49-3.7-6.98,1.08-9.55,4.45-2.39,9.34-2.87,14.31-2.74ZM66.3,96.17c.05-.23.1-.46.15-.69,4.93.25,9.72-.37,13.92-3.1,1.19-.78,2.47-2.41,2.51-3.68.03-1.09-1.43-2.68-2.62-3.28-8.37-4.23-17.12-4.79-26-1.85-1.54.51-3.07,1.59-4.13,2.81-.6.69-.75,2.63-.21,3.27,1.22,1.47,2.81,3.01,4.56,3.59,3.84,1.28,7.88,1.99,11.84,2.92Z"/><path class="cls-2" d="M86.89,51.3c.69,9.08-7.58,18.28-17.41,17.93-12.11-.43-19.37-8.36-19.43-19.06-.05-10.63,6.9-17.58,18.1-17.77,10.06-.17,19.33,8.01,18.74,18.9ZM62.91,49.83c-.02,4.13,1.97,7.14,4.96,7.51,3.08.38,5.73-1.49,6.24-5.27.31-2.25-.25-4.8-1.07-6.96-.84-2.22-4.61-3.45-6.2-2.22-2.2,1.71-4.17,3.75-3.94,6.94Z"/><path class="cls-2" d="M66.3,96.17c-3.96-.94-7.99-1.65-11.84-2.92-1.75-.58-3.34-2.12-4.56-3.59-.53-.64-.39-2.59.21-3.27,1.06-1.22,2.59-2.3,4.13-2.81,8.89-2.94,17.63-2.38,26,1.85,1.19.6,2.65,2.19,2.62,3.28-.03,1.27-1.31,2.9-2.51,3.68-4.2,2.73-8.99,3.35-13.92,3.1-.05.23-.1.46-.15.69Z"/><path class="cls-1" d="M62.91,49.83c-.23-3.18,1.74-5.23,3.94-6.94,1.59-1.23,5.36,0,6.2,2.22.82,2.17,1.37,4.71,1.07,6.96-.51,3.78-3.16,5.65-6.24,5.27-3-.37-4.98-3.37-4.96-7.51Z"/></svg>