<?xml version="1.0" encoding="UTF-8"?><svg id="Calque_1" xmlns="http://www.w3.org/2000/svg" viewBox="0 0 720.83 722.84"><defs><style>.cls-1{fill:#000;stroke-width:0px;}</style></defs><path class="cls-1" d="M82.46,393.84c-.35-3.74-.97-7.47-1.02-11.22-.14-10.61-.51-21.26.04-31.84,1.59-30.38,7.27-60.03,18-88.56,8.53-22.68,18.73-44.55,33.16-64.22,8.8-11.99,18.61-23.03,29.46-33.24,13.57-12.77,28.4-23.81,44.46-33.15,22.41-13.03,45.83-23.94,70.78-31.18,13.11-3.8,26.44-6.92,39.8-9.75,7.52-1.59,15.27-2.2,22.96-2.82,8.2-.65,16.44-.81,24.67-1.12,1.05-.04,2.11.33,3.17.5l.09.82c-1.37.45-2.71,1.12-4.12,1.3-5.27.65-10.56,1.07-15.83,1.71-7.02.86-14.09,1.52-21.03,2.85-11.81,2.26-23.62,4.65-35.29,7.58-14.21,3.58-27.99,8.56-41.46,14.39-17.93,7.75-34.82,17.3-50.36,29.13-7.65,5.82-15.15,11.85-22.38,18.17-6.14,5.37-12.19,10.95-17.56,17.06-9.04,10.28-17.82,20.82-26.14,31.69-8.64,11.28-16.16,23.35-22.62,36.05-6.65,13.08-12.16,26.65-16.1,40.76-2.99,10.7-5.58,21.55-7.58,32.47-1.57,8.53-2.29,17.26-2.81,25.94-.56,9.49-.59,19.03-.57,28.54.01,4.94.75,9.88.92,14.83.04,1.21-.87,2.46-1.35,3.69-.43-.13-.86-.27-1.29-.4Z"/><path class="cls-1" d="M597.73,567.78c.27-1.36.18-2.93.86-4.04,3.67-6.04,7.31-12.13,11.36-17.91,14.03-20,26.67-40.79,36.45-63.23,7.7-17.66,13.52-35.94,17.27-54.83,1.81-9.12,3.6-18.26,4.81-27.47,1.03-7.86,1.28-15.82,1.73-23.74.31-5.52.69-11.06.5-16.58-.31-9.57-.57-19.18-1.67-28.68-3.35-28.99-11.31-56.79-22.47-83.72-8.06-19.46-18.07-37.85-29.35-55.61-1.99-3.13-3.23-6.75-4.58-10.24-.3-.77.14-2.5.72-2.78.8-.37,2.36-.14,3.05.46,2.48,2.19,5.08,4.4,7.02,7.04,12.14,16.54,21.69,34.54,29.31,53.56,6.69,16.69,11.34,33.98,14.65,51.63,1.27,6.77,2.07,13.64,2.8,20.49,1.05,9.75,2.12,19.52,2.65,29.31.45,8.41.24,16.86.17,25.3-.04,5.07-.24,10.14-.64,15.19-.59,7.53-1.34,15.05-2.15,22.55-1.81,16.84-5.24,33.37-9.81,49.67-6.95,24.82-16.13,48.75-28.64,71.32-7.89,14.25-16.7,27.9-28.46,39.38-1.32,1.29-2.93,2.29-4.4,3.42-.4-.17-.79-.33-1.19-.5Z"/><path class="cls-1" d="M41.59,348.77c0-7.88-.41-15.8.11-23.65.63-9.48,1.62-18.99,3.22-28.35,2.15-12.65,4.67-25.27,7.68-37.74,2.71-11.2,6.6-22.07,13.55-31.5,1.97-2.67,4.27-5.12,6.58-7.52,1.04-1.08,2.48-2.1,4.02-.69,1.31,1.21,2.66,2,2.11,4.63-2.16,10.33-6.54,19.8-10.73,29.34-7.19,16.37-13.19,33.12-16.15,50.81-1.61,9.61-3.1,19.28-3.74,28.98-.86,13.09-1.2,26.24-1.09,39.36.07,8.8,1.17,17.61,2.06,26.39,2.95,28.93,9.83,57,19.01,84.54.35,1.06,1.1,1.99,1.57,3.02.27.59.58,1.76.47,1.82-1.1.52-2.26.97-3.45,1.19-.33.06-1.03-.68-1.18-1.17-2.13-6.89-4.14-13.81-6.28-20.69-5.16-16.56-9.29-33.39-12.22-50.48-1.68-9.81-2.91-19.71-3.85-29.62-1.23-12.85-1.97-25.75-2.92-38.62l1.23-.05Z"/><path class="cls-1" d="M169.81,60.8c.93-.81,1.78-1.75,2.8-2.42,22.91-15.02,47.68-26.12,73.55-34.87,19.82-6.71,40.09-11.75,60.62-15.68,10.63-2.04,21.37-3.6,32.11-5,8.2-1.06,16.47-1.76,24.73-2.19,8.87-.46,17.78-.87,26.65-.51,22.88.93,45.14,5.24,66.68,13.17,14.45,5.32,28.87,10.7,42.32,18.3,6.59,3.72,12.94,7.86,19.41,11.8,1.21.74,2.44,1.46,4.16,2.49-.85.97-1.65,1.87-2.43,2.75-9.07-7.5-19.19-12.55-29.39-17.42-12.83-6.11-26.21-10.66-40.23-13.1-8.81-1.54-17.7-2.67-26.56-3.91-8.08-1.13-16.16-2.24-24.26-3.21-4.65-.55-9.32-.99-14-1.13-15.67-.46-31.35-1.17-47.01-.98-10.32.13-20.67,1.31-30.93,2.6-31.1,3.9-60.73,13.27-89.29,25.81-15.3,6.72-29.89,15.04-44.8,22.65-1.14.58-2.26,1.21-3.39,1.81-.24-.32-.48-.65-.73-.97Z"/><path class="cls-1" d="M644.73,572.44c.58-1.08,1.07-2.22,1.76-3.22,12.09-17.65,23.11-35.92,32.22-55.3,7.1-15.1,13.55-30.49,17.29-46.82,2.25-9.82,4.01-19.76,5.85-29.67,1.73-9.31,3.43-18.63,4.84-27.99,1.17-7.72,1.84-15.51,2.83-23.25,1.97-15.35,3.11-30.77,2.59-46.23-.3-9.15-1.69-18.27-2.63-27.4-.08-.77-.43-1.54-.76-2.25-.76-1.62-.26-2.52,1.43-3.03,3.45-1.04,5.65.64,5.94,4.11.35,4.1,1.18,8.16,1.72,12.24.72,5.42,1.69,10.84,1.97,16.29.59,11.21,1.17,22.44,1.03,33.65-.1,8.44-1.17,16.88-2.06,25.29-2.85,27.05-11.31,52.59-21.03,77.81-6.94,18.02-14.06,35.94-23.09,53.03-6.81,12.88-14.32,25.32-23.62,36.6-1.43,1.73-2.81,3.5-4.19,5.26-.39.49-.71,1.03-1.07,1.55-.34-.23-.68-.45-1.02-.68Z"/><path class="cls-1" d="M248.91,498.61c-1.1,1.79-1.82,2.34-3.61.79-16.1-13.93-29.51-30.07-40.26-48.43-8.5-14.53-14.38-30.12-18.43-46.42-2.75-11.06-4.46-22.23-5-33.67-1.25-26.56,3.16-51.99,13.88-76.32,6.53-14.8,14.72-28.65,24.95-41.16,18.8-23.02,41.36-41.07,69.86-50.75,12.87-4.38,26.05-7.62,39.53-9.67,12.21-1.86,24.43-3.43,36.81-3.25,3.51.05,7.03-.12,10.52.11,1.02.07,1.98,1.13,2.97,1.73-1.03.66-2.05,1.88-3.08,1.89-3.6.02-7.21-.5-10.81-.58-5.15-.12-10.31-.19-15.46.02-4.4.18-8.78.75-13.16,1.21-11.01,1.15-21.63,4.01-31.94,7.85-18.81,7.01-36.42,16.45-52.47,28.5-8.34,6.26-16.39,13.07-23.73,20.47-17.76,17.9-30.14,39.16-37.42,63.35-3.04,10.11-5.79,20.3-6.51,30.87-.62,9.19-1.45,18.45-1,27.62,1.67,33.51,13.36,63.64,32.3,91.08,8.21,11.89,18.4,22.06,28.74,32.07,1.01.98,2.19,1.79,3.32,2.7Z"/><path class="cls-1" d="M226.92,507.17c1.29.77,2.68,1.41,3.86,2.33,20.59,16.09,43.08,28.66,68.27,35.87,8.7,2.49,17.78,3.73,26.74,5.22,12.41,2.06,24.95,2.26,37.5,2.27,14.55.01,28.76-2.24,42.82-5.67,19.62-4.78,37.58-13.25,53.94-25.05,5.82-4.2,11.34-8.81,17.13-13.05.99-.72,2.64-.54,3.98-.76.07-.01.16.08.24.12,5.45,2.66,5.57,3.28,1.31,7.5-10.57,10.47-23.23,17.82-36.5,24.17-15.06,7.2-30.83,12.44-47.18,15.78-6.84,1.4-13.83,2.19-20.79,2.84-7.01.65-14.07,1-21.12,1.11-14.9.22-29.48-2.17-43.79-6.14-17.66-4.9-34.81-11.16-50.94-19.99-12.08-6.61-23.82-13.73-33.92-23.25-.66-.62-1.27-1.3-1.87-1.97-.1-.11-.08-.34-.11-.51l.42-.81Z"/><path class="cls-1" d="M73.66,183.68c-.27.79-.43,1.64-.82,2.36-5.74,10.33-11.91,20.45-17.2,31-10.6,21.13-17.5,43.59-22.19,66.71-2.22,10.95-4.24,21.95-5.92,33-1.15,7.55-1.7,15.2-2.25,22.83-.67,9.29-1.37,18.59-1.48,27.89-.11,8.59.48,17.2.89,25.79.24,4.95.47,9.92,1.15,14.81,1.36,9.74,2.85,19.47,4.63,29.14.9,4.9,2.59,9.64,3.82,14.48.2.78.17,2.14-.28,2.46-.66.46-1.91.49-2.73.2-1.81-.65-2.95-1.8-3.45-3.97-2.5-10.78-5.48-21.44-7.84-32.25-1.26-5.76-1.54-11.74-2.38-17.6-1.99-13.86-1.86-27.81-1.52-41.74.21-8.81,1.08-17.63,2.14-26.38,1.13-9.41,2.69-18.78,4.31-28.12,2.78-15.97,7.39-31.47,12.71-46.75,5.99-17.21,12.91-34.05,21.77-49.99,4.3-7.73,9.4-15.02,14.15-22.5.44-.69,1.01-1.28,1.52-1.92.33.18.66.36.99.54Z"/><path class="cls-1" d="M91.7,158.92c-.41-.48-.99-1.16-1.47-1.73,11.23-15.47,23.95-29.43,37.93-42.16,17.55-15.97,36.6-30.04,57.14-41.94,12.69-7.35,25.59-14.41,38.81-20.75,22.33-10.71,45.47-19.36,69.93-23.92,6.84-1.28,13.81-1.96,20.74-2.7,2.9-.31,5.89-.24,8.8.04,1.28.12,3.32,1,3.52,1.88.48,2.08-.47,4.24-2.75,4.91-4.43,1.31-8.91,2.54-13.44,3.44-18.46,3.64-36.95,7.16-55.02,12.53-22.76,6.77-44.57,15.76-65.5,26.98-16.36,8.77-31.85,18.86-46.44,30.29-13.2,10.35-25.74,21.48-36.85,34.08-5.34,6.05-10.17,12.55-15.4,19.05Z"/><path class="cls-1" d="M540.15,131.09c-1.17-.47-2.41-.81-3.5-1.42-13.65-7.49-27.04-15.53-40.98-22.43-24.5-12.12-50.15-21.25-76.92-27.04-10.13-2.19-20.31-4.16-30.52-5.89-5.57-.95-11.24-1.45-16.88-1.71-11.75-.54-23.53-1.15-35.28-1.02-8.99.1-18,1.02-26.93,2.1-9.12,1.1-18.16,2.86-27.24,4.29-.93.15-1.9.02-2.86.02l-.45-.77c1.06-.82,2-2.08,3.19-2.4,8.86-2.39,17.71-4.85,26.67-6.76,6.1-1.3,12.37-1.97,18.59-2.54,6.75-.61,13.55-1.24,20.3-1.04,10.74.33,21.48,1.1,32.18,2.11,32.83,3.09,64.05,12.36,94.33,25.07,21.42,8.99,41.75,20.02,60.78,33.38,1.62,1.14,3.2,2.35,4.72,3.61.54.45.87,1.17,1.29,1.76-.16.23-.33.46-.49.69Z"/><path class="cls-1" d="M102.43,615.22c2.86-.89,3.95,1.44,5.38,2.54,12.29,9.48,24.17,19.51,36.75,28.58,14.28,10.29,30.21,17.83,46.11,25.27,18.41,8.62,36.95,16.95,55.43,25.41,15.74,7.2,32.15,12.42,49.05,15.99,9.96,2.11,20.01,3.87,30.08,5.4,6.3.96,12.71,1.24,19.07,1.73,4.59.35,9.19.53,14.23,1.32-.84.49-1.71,1.43-2.52,1.39-10.45-.63-20.92-1.15-31.33-2.18-30.68-3.04-60.25-11.34-89.77-19.68-16.32-4.61-31.5-11.98-46.24-20.37-19.05-10.84-36.85-23.48-54.34-36.6-11.01-8.26-21.33-17.35-30.79-27.38-.35-.37-.63-.8-1.11-1.41Z"/><path class="cls-1" d="M380.79,513.39c25.27-6.13,49.03-15.27,69.67-31.21,7.35-5.68,14.64-11.54,21.24-18.04,18.05-17.78,29.24-39.45,35.02-64.06,2.88-12.26,4.4-24.65,3.69-37.18-.74-12.87-3.06-25.53-6.69-37.92-1.62-5.54-3.49-11.01-5.21-16.53-.26-.83-.34-1.72-.5-2.59.27-.12.55-.24.82-.37.5.71,1.15,1.35,1.47,2.13,5.55,13.59,9.68,27.54,11.92,42.11,1.88,12.2,2.54,24.44,1.99,36.69-.8,18.05-5.67,35.1-14.1,51.12-6.33,12.01-14.1,23.01-23.55,32.73-11.31,11.63-24.67,20.42-39.28,27.4-16.71,7.98-34.16,13.73-52.11,18.1-4.53,1.1-4.19.08-4.37-2.37Z"/><path class="cls-1" d="M181.63,602.16c1.21.64,2.48,1.2,3.63,1.94,24.45,15.75,50.52,28.08,78.47,36.08,11.2,3.21,22.75,5.28,34.23,7.41,8.98,1.66,18.07,2.73,27.14,3.82,5.27.63,10.6.98,15.91,1.12,11.6.31,23.21.74,34.81.48,10.08-.23,20.2-.91,30.21-2.16,12.4-1.55,24.71-3.9,37.05-5.92,1.75-.29,3.47-.89,5.22-.96.51-.02,1.66,1.78,1.51,1.97-.95,1.22-2.01,2.84-3.34,3.19-9.3,2.45-18.61,4.86-28.03,6.79-7,1.44-14.16,2.14-21.24,3.19-14.22,2.11-28.53,1.86-42.82,1.53-8.62-.19-17.25-1.15-25.83-2.09-31.9-3.52-62.24-12.98-92-24.54-18.69-7.27-36.08-16.95-52.24-28.83-1-.74-1.93-1.57-2.89-2.36.07-.22.13-.43.2-.65Z"/><path class="cls-1" d="M363.49,702.16c-4.89,0-9.79.12-14.68-.02-9.78-.28-19.59-.34-29.33-1.15-16.76-1.38-33.46-3.48-49.42-9.2-4.45-1.6-8.69-3.77-13.05-5.64-1.44-.62-2.48-1.77-1.55-3.06.72-1,2.54-2.05,3.6-1.82,8.25,1.79,16.39,4.07,24.65,5.82,9.24,1.96,18.52,3.89,27.86,5.18,9.7,1.35,19.48,2.19,29.26,2.76,9.14.53,18.32.7,27.47.51,8.75-.17,17.51-.82,26.24-1.58,33.52-2.94,66.2-9.68,97.33-22.76,9.04-3.8,17.62-8.71,26.43-13.07.6-.3,1.42-.18,2.13-.25-.25.95-.19,2.45-.78,2.77-5.27,2.87-10.59,5.66-16.01,8.24-24.79,11.77-50.96,19.36-77.72,24.95-10.14,2.12-20.44,3.59-30.71,4.99-7.74,1.05-15.56,1.51-23.34,2.24-2.78.26-5.57.51-8.35.77l-.02.32Z"/><path class="cls-1" d="M381.23,108.32c1.42-.3,2.85-.83,4.27-.85,15.71-.2,30.72,3.35,45.45,8.45,23.28,8.05,44.86,19.46,64.96,33.55,9.9,6.94,19.41,14.54,28.5,22.52,8.97,7.88,17.62,16.24,25.65,25.08,17.12,18.85,31.48,39.7,43.26,62.3.41.79,1.07,1.48,1.32,2.31.33,1.09.54,2.29.43,3.39-.05.47-1.38,1.31-1.6,1.17-1.01-.66-2.13-1.45-2.67-2.48-1.61-3.07-2.82-6.35-4.46-9.4-7.21-13.47-15.36-26.37-25.17-38.08-8.58-10.25-17.26-20.51-26.75-29.91-16.55-16.41-35.22-30.21-55.46-41.85-16.02-9.21-32.93-16.36-50.69-21.4-10.52-2.99-21.22-5.32-31.81-8.07-4.2-1.09-8.34-2.45-12.47-3.82-1.04-.34-1.9-1.2-2.85-1.82.03-.36.06-.72.09-1.08Z"/><path class="cls-1" d="M545.66,640.92c40.26-25.48,71.29-59.65,95.56-100.24,24.01-40.14,41.13-82.76,46.96-129.4,3.12-.12,4.44,1.61,4.01,4.41-.71,4.61-1.15,9.25-1.79,13.87-1.92,13.85-5.34,27.36-9.4,40.71-9.81,32.2-24.79,61.85-44.79,88.91-12.24,16.56-25.98,31.83-41,45.9-13.76,12.88-28.25,24.91-44.23,35.02-1.37.87-2.9,1.49-4.35,2.22-.32-.47-.64-.93-.97-1.4Z"/><path class="cls-1" d="M350.66,148.88c1.53-.37,3.06-1.07,4.59-1.05,8.42.07,16.91-.28,25.26.6,29.43,3.1,57.2,11.69,83.05,26.27,14.31,8.08,27.63,17.49,39.92,28.42,20.98,18.64,38.11,40.2,49.77,65.81,3.85,8.44,6.67,17.35,9.86,26.09,1.02,2.8-.28,4.39-3.25,4.31-3.74-.1-4.03-.71-5.34-5.05-1.92-6.37-4.01-12.72-6.46-18.9-6.41-16.15-15.27-30.95-25.92-44.64-7.9-10.15-16.84-19.35-26.52-27.87-16.45-14.48-34.8-25.95-54.75-34.84-14.73-6.56-30.05-11.37-45.95-14.33-12.99-2.41-26.05-3.52-39.25-3.25-1.59.03-3.19-.34-4.79-.52-.07-.35-.15-.71-.22-1.06Z"/><path class="cls-1" d="M84.76,594.12c-.61-.24-1.37-.31-1.81-.73-13.14-12.54-23.57-27.19-33.17-42.51-10.8-17.24-19.51-35.47-24.87-55.1-6.17-22.63-11.99-45.36-17.49-68.16-2.18-9.02-3.33-18.31-4.49-27.54-1.22-9.72-2.23-19.49-2.71-29.27-.45-9.2-.14-18.44-.03-27.66.02-1.88.62-3.76.95-5.63.33-.02.65-.03.98-.05.2,1.09.57,2.18.58,3.27.07,6.79-.02,13.57.09,20.36.06,3.7.28,7.41.63,11.1.84,8.95,1.63,17.91,2.73,26.83,2.34,19.06,6.67,37.7,11.94,56.15,4.86,16.98,11.84,33.14,18.95,49.26,5.2,11.78,10.23,23.64,15.41,35.43,7.67,17.45,16.5,34.25,28.48,49.22,1.22,1.52,2.66,2.86,4,4.29-.06.25-.13.49-.19.74Z"/><path class="cls-1" d="M191.33,556.66c3.09,2.2,6.2,4.36,9.26,6.6,26.7,19.56,55.93,33.74,88.23,41.28,10,2.34,20.12,4.26,30.25,5.94,6.1,1.01,12.34,1.27,18.52,1.72,5.86.42,11.75.98,17.61.86,9.03-.17,18.05-.72,27.06-1.4,6.07-.46,12.18-1.05,18.13-2.23,11.45-2.28,22.91-4.67,34.19-7.67,14.41-3.84,28.27-9.41,41.46-16.34,9.88-5.19,19.28-11.3,28.88-17.03,1.56-.93,2.98-2.19,4.63-2.86.78-.32,1.98.4,2.98.65-.37.97-.46,2.27-1.15,2.85-3.17,2.63-6.37,5.26-9.8,7.53-19.58,12.92-40.49,23.07-63,29.83-11.8,3.55-23.73,6.53-35.98,7.98-9.37,1.1-18.77,1.99-28.17,2.7-6.05.46-12.15.77-18.2.51-9-.39-18-1.16-26.97-2.1-23.24-2.43-45.62-8.33-67.36-16.84-21.73-8.51-42.32-19.12-61.09-33.06-3.44-2.56-6.59-5.51-9.88-8.28l.38-.63Z"/><path class="cls-1" d="M584.86,425.59c0,.8.2,1.67-.03,2.41-4.02,13-9.66,25.3-15.99,37.32-7.33,13.91-15.91,26.99-25.62,39.33-4.96,6.29-9.99,12.55-15.41,18.44-6.02,6.53-12.26,12.91-18.86,18.84-10.26,9.21-21.49,17.18-33.11,24.63-22.34,14.34-46.69,23.7-72.42,29.67-4.08.95-8.31,1.34-12.5,1.73-.98.09-2.06-.85-3.1-1.32.79-.82,1.45-2.09,2.41-2.39,5.34-1.68,10.72-3.27,16.15-4.63,16.69-4.19,32.25-11.21,47.54-18.87,17.47-8.76,33.89-19.21,48.83-31.82,8.71-7.35,17.38-14.81,25.47-22.82,12.89-12.76,23.83-27.16,33.41-42.58,8.79-14.16,15.65-29.2,20.86-45.01.34-1.05.92-2.01,1.39-3.02.32.03.65.07.97.1Z"/><path class="cls-1" d="M270.85,291.63c-.98,1.72-1.88,3.49-2.94,5.15-9.05,14.12-16.06,29.14-19.58,45.58-1.92,8.98-2.85,18.15-2.24,27.35,1.44,21.64,8.91,41.09,21.75,58.53,16.84,22.88,40.18,35.08,67.28,41.16,12.05,2.71,24.29,3.03,36.55,2.63,3.43-.11,6.84-1.16,10.23-1.89,1.52-.33,2.88-.24,3.1,1.45.23,1.73.19,3.99-2.11,4.26-6.42.74-12.87,1.37-19.32,1.65-6.29.27-12.67.63-18.89-.06-14.8-1.66-29.1-5.33-42.28-12.58-12.91-7.1-24.4-15.97-33.93-27.27-10.5-12.46-18.3-26.37-21.91-42.31-1.63-7.21-2.61-14.63-3.14-22.01-1.58-21.69,3.37-42.19,12.78-61.59,3.19-6.58,7.52-12.61,11.42-18.83.52-.83,1.6-1.3,2.42-1.94.27.24.55.48.82.73Z"/><path class="cls-1" d="M169.67,537.21c-1.92-1.92-4.09-3.65-5.72-5.79-7.46-9.8-15.27-19.38-22.03-29.66-14.8-22.52-25.97-46.87-33.53-72.73-3.5-11.97-6.1-24.26-8.34-36.54-2.82-15.46-3.03-31.2-2.18-46.82,1.22-22.48,5.95-44.29,14.95-65.05.64-1.47.65-3.31,1.55-4.53.89-1.22,2.54-1.88,3.86-2.78.74,1.9,2.66,4.43,2.03,5.61-5.23,9.86-7.69,20.56-9.95,31.28-2.01,9.54-3.8,19.18-4.8,28.87-.98,9.53-1.35,19.19-1.11,28.77.77,30.77,6.3,60.69,17.35,89.49,6.03,15.73,13.52,30.72,22.68,44.87,7.22,11.16,15.05,21.85,24.03,31.68.73.8,1.23,1.82,1.84,2.74-.21.2-.43.39-.64.59Z"/><path class="cls-1" d="M619.71,277.41c.47.6,1.19,1.14,1.38,1.82,3.31,12.27,6.83,24.5,9.71,36.87,1.54,6.59,1.93,13.45,2.92,20.18,1.84,12.54,2.64,25.17,2.07,37.81-.82,18.5-3.61,36.72-8.86,54.55-6.72,22.83-15.06,44.99-26.33,65.99-8.18,15.23-17.72,29.57-28.16,43.32-.11.14-.22.32-.38.39-.73.35-1.48.66-2.22.99.12-.78,0-1.72.39-2.32,2.36-3.59,4.93-7.05,7.28-10.65,16.68-25.56,30.17-52.68,38.76-82.01,3.48-11.88,5.81-24.12,8.08-36.31,1.77-9.5,2.67-19.16,3.89-28.76,1.78-14.04,2.18-28.18,1.52-42.28-.87-18.6-4.17-36.87-9.76-54.68-.29-.92-.99-1.71-1.22-2.63-.17-.67.13-1.45.22-2.19.23-.03.46-.07.7-.1Z"/><path class="cls-1" d="M209.8,322.65c-.42,4-1.07,8-1.21,12.01-.24,7.2-.25,14.42-.21,21.62.02,3.32.4,6.65.58,9.97.58,10.3,2.65,20.32,5.44,30.21,4.49,15.89,10.44,31.19,19.45,45.09,4.37,6.74,9.35,13.11,14.44,19.34,3.66,4.48,7.79,8.6,11.98,12.59,18.28,17.41,39.53,29.53,64.27,35.04,7.13,1.59,14.46,2.28,21.7,3.4.69.11,1.38.31,2.05.55,1.52.56,3.32,1.03,2.91,3.2-.41,2.19-1.56,3.7-4.08,3.88-6.19.44-12.13-.78-18.04-2.44-21.21-5.95-40.82-15.16-58.41-28.49-15.35-11.63-27.93-25.8-38.23-42.03-10.72-16.89-18.93-34.9-23.25-54.47-1.88-8.53-3.13-17.25-3.93-25.95-.74-8.09-.8-16.29-.56-24.42.18-5.97,1.29-11.91,2.15-17.85.11-.75,1.21-1.37,1.86-2.04.36.26.72.51,1.08.77Z"/><path class="cls-1" d="M295.16,671.7c-1.15.29-2.34.97-3.43.83-17.72-2.26-35.13-5.73-51.91-12.15-26.43-10.11-50.9-23.67-73.58-40.5-14.33-10.64-27.65-22.44-40.11-35.2-18.13-18.56-33.26-39.24-43.93-63.01-.77-1.71-1.51-3.47-1.95-5.28-.2-.83.33-1.85.53-2.78.75.53,1.78.91,2.19,1.63,1.69,3.04,3.17,6.2,4.75,9.3,6.68,13.17,15.14,25.16,24.21,36.77,9,11.52,18.91,22.19,29.55,32.18,14.45,13.57,30.27,25.38,46.98,36.02,13.59,8.65,27.71,16.32,42.58,22.55,16.71,7,33.8,12.77,51.74,15.75,3.19.53,6.45.64,9.64,1.18,1.01.17,1.89,1.13,2.83,1.72-.02.33-.05.66-.07.99Z"/><path class="cls-1" d="M90.39,424.88c.8,2.85,1.69,5.68,2.4,8.56,5.33,21.51,14.29,41.56,24.48,61.11,7.14,13.7,15.52,26.63,24.83,38.92,4.61,6.09,9.66,11.88,14.76,17.57,4.66,5.2,9.47,10.29,14.54,15.08,11.74,11.1,24.54,20.85,38.35,29.31,13.79,8.45,28.29,15.27,43.71,20.15,1.35.43,2.75.72,4.14,1,1.96.38,4.6,2.87,4.52,4.75-.03.63-1.39,1.81-1.94,1.7-4.19-.83-8.41-1.64-12.46-2.98-21.1-6.97-40.11-17.78-57.69-31.33-11.22-8.65-21.5-18.29-31.13-28.6-16.74-17.93-30.79-37.85-42.56-59.4-12.4-22.7-20.56-46.93-26.59-71.96-.08-.35-.15-.71-.16-1.06-.02-.9,0-1.8,0-2.69.27-.04.54-.08.82-.13Z"/><path class="cls-1" d="M368.36,230.13c3.95,0,7.94-.4,11.83.08,10.06,1.23,19.75,3.98,29.06,8.04,10.72,4.68,20.73,10.54,29.88,17.83,13.34,10.61,24.46,23.24,33.34,37.76,8.28,13.53,14.01,28.13,17.31,43.69,2.7,12.76,3.96,25.67,3.15,38.65-.81,13.07-3.86,25.72-9.01,37.85-3.35,7.89-7.71,15.16-12.82,22.01-.79,1.06-1.19,2.41-2.01,3.43-.41.51-1.37.59-2.07.87-.09-.9-.61-2.2-.2-2.63,11.84-12.39,17.27-27.89,21.16-44.04,1.17-4.84,1.26-9.94,1.77-14.93.27-2.69.47-5.39.55-8.08.46-16.73-3-32.76-8.92-48.31-5.6-14.71-13.53-28.04-23.66-40.12-20.32-24.25-45.94-39.7-76.73-46.69-3.13-.71-6.28-1.36-9.37-2.23-1.3-.37-2.47-1.24-3.69-1.88.14-.43.29-.85.43-1.28Z"/><path class="cls-1" d="M250.74,88.51c-4.05,1.8-8.11,3.59-12.16,5.41-15.74,7.06-30.55,15.77-44.67,25.63-10.93,7.64-21.29,15.98-31.16,24.98-14.82,13.5-27.85,28.51-39.72,44.63-11.58,15.72-22.15,32.04-30.46,49.72-6.36,13.54-11.48,27.58-15.66,41.97-.42,1.46-2.14,3.01-3.62,3.57-1.64.63-2.24-1.2-1.98-2.54.93-4.87,1.75-9.78,3.13-14.53,4.61-15.77,11.23-30.74,19.76-44.75,6.81-11.18,14.18-22.03,21.63-32.8,3.46-5.01,7.48-9.69,11.65-14.14,7.76-8.28,15.54-16.56,23.8-24.32,19.18-18.02,39.66-34.35,62.75-47.23,11.06-6.17,22.33-11.83,34.39-15.81.5-.16,1-.35,1.51-.46.24-.05.52.07.78.12.02.19.03.38.05.56Z"/><path class="cls-1" d="M131.69,426.47c-.77-1.04-1.5-1.6-1.62-2.27-1.91-10.06-3.92-20.1-5.5-30.21-.82-5.23-.89-10.59-1.17-15.89-.27-5.25-.78-10.52-.48-15.74.62-10.79,1.41-21.58,2.68-32.31,2.49-20.99,8.17-41.17,16.23-60.71,7.57-18.37,17.23-35.52,28.97-51.55,8.14-11.11,17.15-21.44,27.17-30.87,4.51-4.24,9.26-8.25,15.18-10.76,1.64,1.44,1.92,2.88.26,4.53-4.49,4.46-9,8.9-13.43,13.42-5.96,6.07-12.23,11.89-17.68,18.4-6.37,7.61-12.41,15.56-17.87,23.85-13.98,21.22-23.87,44.37-30.49,68.84-2.79,10.3-4.3,20.95-6.2,31.47-2.79,15.5-2.64,31.2-2.03,46.81.55,14.02,2.94,27.9,6.36,41.55.04.15-.08.34-.36,1.45Z"/><path class="cls-1" d="M233.88,214.27c1.62-1.47,3.18-2.99,4.85-4.39,19.93-16.72,42.38-28.85,67.39-35.91,7.96-2.25,16.33-3.18,24.56-4.33,5.36-.75,10.82-1.12,16.24-1.09,12.27.05,24.46,1.15,36.61,3.11,16.14,2.61,31.87,6.6,47.02,12.69,18.1,7.27,35.16,16.5,50.73,28.33,2.93,2.23,5.62,4.77,8.43,7.17l-.28.65c-.74-.28-1.55-.44-2.2-.86-7.79-5.06-15.46-10.32-23.35-15.23-17.58-10.93-36.73-18.23-56.7-23.29-8.8-2.23-17.86-3.51-26.84-4.99-11.11-1.84-22.37-2.2-33.55-1.56-24.77,1.41-49.19,5.04-72.35,14.52-11.74,4.81-22.55,11.28-32.23,19.52-2.04,1.73-3.82,3.77-5.82,5.56-.51.46-1.36.55-2.05.8-.15-.23-.3-.47-.45-.7Z"/><path class="cls-1" d="M471.75,636.31c.74-4.44,4.04-5.22,6.5-6.56,18.08-9.86,35.49-20.73,51.89-33.2,15.54-11.81,29.82-25.04,43.09-39.29,15.78-16.95,29.77-35.35,41.67-55.25,9.53-15.95,18.14-32.39,24.26-50.01,2.21-6.36,4.01-12.87,6.06-19.29.18-.56.83-.96,1.26-1.43.33.13.66.26.99.38-.22,1.15-.32,2.34-.68,3.44-2.15,6.61-4.16,13.27-6.59,19.78-5.44,14.59-12.06,28.65-19.74,42.21-8.35,14.73-17.62,28.85-27.94,42.26-6.16,8-12.51,15.89-19.31,23.34-8.31,9.1-16.89,18.01-25.89,26.43-14.91,13.96-31.13,26.3-49.1,36.15-6.97,3.82-14.3,6.98-21.54,10.29-1.33.61-3,.47-4.94.74Z"/><path class="cls-1" d="M596.21,152.59c-1.88,1.87-3.52.99-4.91-.1-4.11-3.24-8.12-6.6-12.16-9.93-9.46-7.8-18.61-16.02-28.45-23.31-11.67-8.65-23.62-16.99-35.99-24.58-22.14-13.57-46.01-23.54-70.93-30.73-14.81-4.27-29.89-7.66-44.97-10.85-8.38-1.78-17-2.59-25.56-3.38-9.15-.85-18.36-1.15-27.54-1.72-.48-.03-.95-.29-1.49-1,.86-.28,1.74-.82,2.59-.79,8.66.37,17.34.56,25.97,1.33,33.99,3.05,66.98,10.57,98.83,22.88,18.95,7.32,37.2,16.12,54.87,26.12,13.12,7.42,25.77,15.57,37.73,24.76,10.42,8.02,19.92,17.06,28.93,26.62,1.26,1.34,2.06,3.1,3.07,4.67Z"/><path class="cls-1" d="M531.19,355.65c0,5.86.07,11.72-.02,17.58-.18,12.23-1.96,24.27-4.6,36.19-.79,3.55-1.79,7.07-2.85,10.55-.18.59-1.14.95-1.74,1.41-.22-.69-.73-1.44-.61-2.06,1.49-7.62,3.23-15.2,4.58-22.84.93-5.29,1.5-10.65,1.94-16.01.49-5.94.99-11.92.89-17.87-.37-22.25-4.08-43.88-12.76-64.51-5.92-14.06-13.77-26.91-23.37-38.79-9.87-12.23-21.98-21.94-34.39-31.27-8.51-6.4-17.36-12.43-26.49-17.9-6.86-4.11-14.42-7.06-21.65-10.58-.57-.28-.96-.94-1.44-1.42.68-.08,1.44-.39,2.03-.19,12.91,4.32,25.24,9.97,37.3,16.28,12.63,6.61,23.64,15.27,33.28,25.7,21.71,23.48,37.51,50.24,45.02,81.57,2.15,8.95,3.88,17.95,4.35,27.17.12,2.33.49,4.64.75,6.97-.08,0-.15.02-.23.03Z"/><path class="cls-1" d="M143.19,368.11c.3,1.43.74,2.84.87,4.28.6,6.99.64,14.07,1.79,20.98,1.62,9.77,3.72,19.48,6.17,29.07,4.16,16.29,10.33,31.87,19.35,46.1,5.16,8.14,10.96,15.93,16.99,23.46,6.72,8.38,13.81,16.5,21.19,24.31,5.13,5.42,10.82,10.36,16.61,15.09,11.89,9.7,25.06,17.38,38.95,23.86,12.29,5.73,24.88,10.61,38.02,14.01.86.22,1.62.84,2.43,1.27-.1.27-.19.54-.29.81-2.47-.64-4.95-1.22-7.4-1.93-17.88-5.18-34.93-12.31-51.14-21.49-13.23-7.49-25.91-15.8-37.47-25.69-6.31-5.4-12.56-10.9-18.38-16.81-7.17-7.28-12.62-15.92-17.7-24.74-10.08-17.51-18.47-35.78-23.7-55.34-2.32-8.69-4.08-17.6-5.29-26.51-1.26-9.27-1.58-18.66-2.26-28-.06-.87.25-1.77.39-2.66.29-.02.57-.04.86-.05Z"/><path class="cls-1" d="M419.85,327.23c1.3,1.57,2.81,3.02,3.87,4.74,6.29,10.17,9.95,21.04,9.96,33.23.02,17.41-6.15,32.47-16.76,45.76-10.24,12.83-24.07,20.36-39.91,23.98-6.78,1.55-13.8,2.15-20.75,2.73-3.07.26-6.24-.53-9.34-1.02-.76-.12-1.62-.79-2.09-1.45-1.26-1.8-.7-2.8,1.52-2.85,2.36-.06,4.72,0,7.09-.02,18.59-.1,35.56-5.18,50.24-16.82,12.67-10.05,21.66-22.68,24.35-38.86,2.67-16.04.09-31.43-7.75-45.82-.5-.92-.94-1.87-1.4-2.81.32-.26.65-.52.97-.78Z"/><path class="cls-1" d="M409.23,368.97c-.6-2.15-1.28-4.29-1.78-6.47-3.06-13.2-8.49-25.15-18.56-34.52-7.17-6.66-15.53-11-25.4-12.36-14.76-2.03-26.89,3.18-37.46,13.03-4.86,4.53-8.84,9.68-11.57,15.79-.27.61-1.56,1.22-2.23,1.1-2.36-.45-3.99-5.07-2.56-7.03,3.01-4.13,5.78-8.5,9.19-12.27,7.59-8.41,17-14.08,28.12-16.5,14.53-3.16,27.74.04,39.5,9.04,9.09,6.96,15.55,16,19.23,26.76,2.21,6.46,3.4,13.27,4.92,19.94.24,1.05-.19,2.25-.31,3.38-.36.04-.73.08-1.09.11Z"/><path class="cls-1" d="M417.63,436.94c-3.26-2.59-3.14-2.48-.22-4.61,6.21-4.53,10.92-10.47,15.1-16.83,7.78-11.84,12.62-24.87,14.62-38.83.73-5.09.35-10.41-.11-15.58-.39-4.39.03-6.37,2.73-6.71,2.55-.32,5.08,2.42,5.68,5.75,1.1,6.2-.7,12.08-2,17.96-3.94,17.83-12.7,33.24-24.43,47.03-3.55,4.17-7.6,7.92-11.38,11.82Z"/><path class="cls-1" d="M273.9,321.44c-.2-3.35,1.64-6.06,3.22-8.77,5.44-9.3,12.69-16.99,21-23.81,10.27-8.42,21.68-14.54,34.49-18.08,2.74-.76,5.42-1.78,8.19-2.41,1.14-.26,2.84-.85,3.35,1.16.42,1.66-.9,4.15-2.3,4.12-8.98-.19-16.74,3.66-24.49,7.41-9.78,4.75-18.61,10.98-26.44,18.5-5.53,5.31-10.1,11.44-13.8,18.19-.75,1.37-1.59,2.69-2.39,4.04-.28-.12-.56-.24-.84-.36Z"/><path class="cls-1" d="M503.11,488.81c1.93.11,2.56.52,2.03,2.73-1.13,4.74-3.85,7.49-8.58,8.41-2.4.47-3.78-.63-3.37-3.08.49-2.93,1.78-5.45,4.83-6.52,1.67-.59,3.39-1.03,5.1-1.53Z"/><path class="cls-1" d="M86.47,202.82c-2.64.04-3.62-.99-2.7-3.42.76-2.03,1.95-3.97,3.29-5.68,1.04-1.32,5.29-.9,6.51.32,1.15,1.16,1.46,4.89.15,5.75-1.89,1.25-4.09,2.05-6.17,3-.3.14-.72.02-1.08.02Z"/><path class="cls-1" d="M565.3,315.11c-1.33-.38-2.99-.7-4.52-1.36-.57-.25-1.18-1.26-1.16-1.91.06-3.04.87-5.86,3.61-7.63.57-.37,2.01-.48,2.15-.23,1.42,2.62,3.01,5.25,3.79,8.08.47,1.71-1.61,3.1-3.87,3.04Z"/><path class="cls-1" d="M483.22,506.39c.04-4.85,3.54-7.75,7.89-7,2.63.46,3.6,3.97,1.3,6.13-1.74,1.63-4.11,2.81-6.41,3.56-2.53.83-3.12-.96-2.78-2.69Z"/><path class="cls-1" d="M79.34,213.71c-1.37-.08-1.88-1.18-1.78-2.89.19-3.09,2.44-7.29,4.03-7.34,2.03-.06,6.44,3.76,6.33,5.48-.13,1.98-4.95,4.82-8.58,4.75Z"/><path class="cls-1" d="M394.95,467.95c3.57.34,4.51,1.76,3.15,4.9-.11.25-.32.44-.42.69-1.45,3.71-5.89,4.37-8.46,1.25-1.38-1.67-1.21-3.75.66-4.79,1.58-.88,3.38-1.38,5.08-2.05Z"/><path class="cls-1" d="M338.03,26.59c-.96,1.93-1.72,3.81-2.83,5.45-.32.47-1.73.45-2.54.25-.71-.18-1.58-.82-1.83-1.47-.7-1.82-1.6-3.78-1.48-5.62.08-1.26,5.71-1.66,7.24-.57.56.4.87,1.16,1.43,1.96Z"/><path class="cls-1" d="M713.48,298.32c-.62,3.02-.54,5.91-3.14,6.28-2.75.39-3.29-2.59-4.01-4.55-.45-1.23-.53-3.19.16-4.09.62-.8,2.79-1.15,3.83-.68,1.4.62,2.36,2.22,3.16,3.04Z"/><path class="cls-1" d="M275.9,626.8c-3.11,1.83-7.13,1.48-9.23-.86-.56-.62-.96-1.81-.75-2.55.22-.75,1.18-1.61,1.97-1.83,4-1.1,6.47.56,8.01,5.24Z"/><path class="cls-1" d="M353.32,275.08c-1.22-.45-2.58-.63-3.46-1.37-.86-.72-1.59-1.99-1.69-3.08-.05-.55,1.35-1.33,2.2-1.84.59-.35,1.39-.33,2.02-.63,1.76-.84,3.94-.8,4.48.83.5,1.47-.46,3.54-1.12,5.22-.2.51-1.53.57-2.44.88Z"/><path class="cls-1" d="M453.31,344.89c-1.03,1.9-2.04,3.77-3.05,5.64-1.31-1.49-2.97-2.81-3.82-4.53-.57-1.16-.57-3.31.16-4.25,1.17-1.51,3.29-1.48,4.84-.17.78.65,1.08,1.86,1.86,3.31Z"/><path class="cls-1" d="M575.92,588.53c1.43-2.71,2.66-5.55,4.37-8.07,1.13-1.67,3.46-1.09,5.33.85,1.57,1.63.05,2.61-.89,3.27-2.51,1.79-5.21,3.31-7.83,4.94-.33-.33-.65-.66-.98-.99Z"/><path class="cls-1" d="M311.08,352.75c-.85,1.31-1.7,3.44-3.25,4.75-.9.76-4.07-3.59-3.99-5.65.08-1.94,2.23-4.14,4.1-3.96,2.42.24,2.71,2.2,3.14,4.87Z"/><path class="cls-1" d="M69.14,289.5c2.89.07,4.45,2.44,3.3,4.69-.98,1.93-2.6,3.57-4.11,5.16-.23.24-2.09-.49-2.07-.66.25-2.62.56-5.26,1.18-7.81.16-.69,1.37-1.12,1.71-1.38Z"/><path class="cls-1" d="M356.87,226.28c3.01-.01,5.89,1.92,5.13,3.43-.86,1.7-2.72,3.2-4.49,4.05-1.27.61-4.2-3.26-4.07-5.24.16-2.46,2.17-2.07,3.44-2.24Z"/><path class="cls-1" d="M124.58,264.88c-.63,1.89-.94,3.69-1.82,5.15-.46.77-2.26,1.6-2.8,1.29-1.09-.64-2.26-1.95-2.47-3.15-.4-2.33,1.71-5.22,3.99-6.14.52-.21,1.53-.32,1.7-.06.62.91.98,2,1.38,2.91Z"/><path class="cls-1" d="M332.81,435.59c-2.14-.03-5.02-2.86-4.93-4.82.1-2.33,2.1-2.14,3.6-2.22,2.41-.13,4.93,2.21,4.78,4.43-.15,2.22-2.01,2.38-3.44,2.61Z"/><path class="cls-1" d="M705.88,278.36c1.2,2.71,2.65,5.35,3.45,8.18.26.91-1.21,2.3-1.89,3.48-.83-.68-1.94-1.19-2.44-2.06-1.76-3.01-1.03-6.14-.35-9.23.41-.12.82-.25,1.23-.37Z"/><path class="cls-1" d="M239.59,159.51c-1.87,3.71-4.05,6.33-7.22,7.83-.86.4-2.21-.25-3.33-.42.29-.91.31-2.08.91-2.69,2.5-2.53,5.61-3.97,9.65-4.72Z"/><path class="cls-1" d="M448.52,338.47c-2.58-.67-5.7-4.18-5.52-6.39.06-.75,1.1-2,1.71-2.01,1.3-.03,3.01.22,3.82,1.06.76.79.75,2.49.75,3.79,0,1.12-.46,2.24-.76,3.55Z"/><path class="cls-1" d="M147.98,329.56c-.3,4.44-.56,8.24-.82,12.03-.12,1.79-.09,3.61-.44,5.36-.14.73-1.09,1.3-1.67,1.94-.49-.81-1.5-1.72-1.38-2.42.94-5.24,2.1-10.43,3.23-15.64.06-.28.41-.5,1.08-1.28Z"/><path class="cls-1" d="M411.79,464.9c-1.32,1.64-2.46,3.51-4.04,4.84-.84.7-2.61.86-3.7.49-.86-.29-1.94-1.89-1.78-2.68.19-.96,1.45-2.12,2.47-2.4,2.12-.58,4.39-.64,6.6-.92.15.22.3.45.46.67Z"/><path class="cls-1" d="M586.66,577.33c.67-2.11,1.01-3.99,1.86-5.61.55-1.04,1.74-2.14,2.82-2.38.75-.17,2.32.92,2.61,1.76.32.92-.07,2.56-.77,3.25-1.67,1.64-3.61,3.13-6.53,2.98Z"/><path class="cls-1" d="M306.37,369.14c-2.29-2.27-3.93-4.61-2.99-7.74.26-.86,1.52-1.93,2.35-1.96.79-.03,2.07,1.01,2.37,1.86.97,2.72,0,5.21-1.74,7.84Z"/><path class="cls-1" d="M349.79,28.88c-.49.31-1.46,1.25-2.6,1.57-1.17.32-2.81.49-3.69-.1-1.14-.76-1.72-2.35-2.54-3.57,1.22-.55,2.4-1.37,3.67-1.58,2.14-.35,4.21-.05,5.16,3.69Z"/><path class="cls-1" d="M602.27,306.16c-.89-5.4-1.82-10.8-2.59-16.22-.06-.42.88-1.23,1.5-1.41.33-.1,1.34.72,1.37,1.17.34,5.46.56,10.93.82,16.4-.36.02-.72.04-1.08.06Z"/><path class="cls-1" d="M367.95,273.7c-2.95-.01-5.52-1.59-5.15-3.23.58-2.52,3.14-1.96,4.82-2.08,1.72-.12,3.71.86,3.74,3.02.03,2.45-2.14,2.11-3.41,2.29Z"/><path class="cls-1" d="M130.27,249.15c-.61,2.46-1.18,4.93-1.84,7.38-.35,1.28-.73,2.9-2.59,2.14-1.83-.75-2.76-2.48-1.66-4.17,1.41-2.16,3.38-3.96,5.1-5.92.33.19.66.38,1,.57Z"/><path class="cls-1" d="M279.41,627.64c1.81-3.61,6.29-3.22,10.99.96-4.87,1.83-8.73,1.49-10.99-.96Z"/><path class="cls-1" d="M348.56,229.99c-2.98,3.38-7.55,3.69-9.18.99-1.21-2-.68-3.23,1.67-2.98,2.47.27,4.86,1.26,7.5,1.99Z"/><path class="cls-1" d="M357.21,109.04c3-1.99,5.1-3.89,8.19-2.71.76.29,1.45.73,2.18,1.11-.58.92-.94,2.21-1.77,2.68-2.77,1.58-5.21-.32-8.6-1.08Z"/><path class="cls-1" d="M218.23,172.91c.92-1.03,1.78-2.17,2.82-3.11,1.29-1.17,3.12-2.27,4.35-.64.57.75-.18,3.14-1.04,4.21-1.89,2.34-3.86,2.1-6.14-.46Z"/><path class="cls-1" d="M543.24,560.49c4.1-3.73,8.2-7.47,12.3-11.2.34.16.68.31,1.01.47-.21.86-.13,2.07-.67,2.51-3.05,2.46-6.25,4.74-9.41,7.06-.88.64-1.8,1.23-2.7,1.84-.18-.23-.35-.45-.53-.68Z"/><path class="cls-1" d="M562.02,152.95c-3.07-2.55-5.66-4.62-8.12-6.82-.44-.39-.64-1.88-.52-1.94.94-.44,2.44-1.23,2.92-.85,2.88,2.3,4.52,5.46,5.73,9.6Z"/><path class="cls-1" d="M358.73,513.57c2.13.53,3.42,1.25,2.82,3.07-.53,1.61-1.68,3.01-2.55,4.5-1.12-1.71-2.42-3.35-3.2-5.2-.14-.32,1.9-1.56,2.93-2.37Z"/><path class="cls-1" d="M79.2,511.18c-3.08-2.4-5.61-5.08-5.96-9.05-.06-.69.61-1.45.95-2.17.68.47,1.75.81,1.98,1.45,1.13,3.22,2.04,6.51,3.03,9.78Z"/><path class="cls-1" d="M515.13,437.8c.33,2.8-1.9,7.64-6.04,13.31-.55-4.04,3.22-12.59,6.04-13.31Z"/><path class="cls-1" d="M67.1,316.86c.04-4.36-2.14-8.72-.09-13.07.36-.08.72-.17,1.08-.25.43,1.01,1.3,2.05,1.22,3.02-.26,3.48-.85,6.94-1.31,10.4-.3-.03-.6-.07-.91-.1Z"/><path class="cls-1" d="M37.56,464.34c-1.6-1.42-3.33-2.72-4.76-4.3-1.3-1.43-.07-2.74,1.08-3.21.81-.33,2.72.11,2.99.72.86,1.91,1.18,4.06,1.72,6.12-.34.22-.69.45-1.03.67Z"/><path class="cls-1" d="M597.86,283.05c-1.32-3.07-2.71-6.13-3.92-9.24-.24-.61.18-1.47.3-2.21.86.32,2.08.4,2.51,1.03.67.98.9,2.3,1.13,3.52.41,2.2.69,4.43,1.02,6.65-.35.09-.69.17-1.04.26Z"/><path class="cls-1" d="M270.74,334.42c-.47,6.21-.92,12.18-1.38,18.14-.24.01-.48.02-.72.04-.08-3.23-.22-6.45-.23-9.68-.03-8.48-.01-8.48,2.32-8.5Z"/><path class="cls-1" d="M541.65,136.18c2.96-3.22,3.63-3.21,5.83-.27,1.34,1.79,2.58,3.65,3.87,5.47-.14.19-.29.37-.43.56-3.01-1.87-6.02-3.74-9.27-5.76Z"/><path class="cls-1" d="M507.08,243.27l-14.44-16.81c.3-.27.6-.54.9-.81,3.24,1.89,4.87,5.38,7.19,8.14,2.45,2.9,4.58,6.06,6.86,9.1-.17.12-.35.25-.52.37Z"/><path class="cls-1" d="M521.31,560.07c-1.17,1.76-2.18,3.65-3.56,5.22-.81.91-2.28,1.82-3.37.16-1-1.52-1.01-3.14.85-4.03,1.7-.82,3.55-1.35,5.33-2.01.25.22.51.44.76.66Z"/><path class="cls-1" d="M565.78,325.38c-2.99-3.93-2.53-6.66,1.34-8.48,2.56,2.84,2.22,5.21-1.34,8.48Z"/><path class="cls-1" d="M250.43,680.85c-1.37,1.28-2.08,2.51-2.98,2.67-2.06.37-3.5-1.28-3.61-3.27-.13-2.34,1.93-2.89,3.13-2.84,1,.04,1.95,1.84,3.46,3.44Z"/><path class="cls-1" d="M205.94,481.58c2.59,2.72,5.22,5.4,7.73,8.2.39.44.24,1.37.33,2.08-.88-.06-2.19.23-2.57-.24-1.6-2.01-2.98-4.2-4.33-6.39-.65-1.07-1.05-2.3-1.57-3.45.13-.06.26-.13.39-.19Z"/><path class="cls-1" d="M379.63,599.42c-1.73-1.31-3.03-2.31-4.34-3.3,1.46-.81,2.83-1.93,4.39-2.35,2.08-.56,3.06,1.3,3.01,2.82-.03.86-1.74,1.67-3.06,2.83Z"/><path class="cls-1" d="M467.12,633.49c.56,3.39-.32,5.37-2.34,6.43-.92.49-2.43-.14-3.67-.27.21-.99.09-2.37.7-2.89,1.41-1.21,3.17-2,5.31-3.27Z"/><path class="cls-1" d="M214.33,303.94c-.86,3.65-1.65,7.32-2.64,10.94-.19.71-1.11,1.22-1.7,1.82-.32-.96-1.11-2.06-.87-2.84.72-2.36,1.82-4.61,2.84-6.87.52-1.16,1.19-2.25,1.79-3.37.19.1.38.21.57.31Z"/><path class="cls-1" d="M4.94,322.32c0,2.32.25,4.69-.13,6.94-.14.84-1.76,1.42-2.71,2.12-.31-.97-1.04-2.03-.85-2.89.49-2.18,1.38-4.26,2.12-6.38.52.07,1.05.14,1.57.2Z"/><path class="cls-1" d="M547.83,64.45c-1.86-1.24-3.98-2.24-5.46-3.84-.72-.78-.25-2.67-.32-4.05,1.03.44,2.41.61,3.02,1.38,1.37,1.75,2.36,3.81,3.5,5.74-.24.26-.49.51-.73.77Z"/><path class="cls-1" d="M694.18,385.75c0,2.83.11,5.68-.11,8.5-.03.43-1.7,1.18-2.36.98-.56-.17-1.23-1.62-1.06-2.3.6-2.41,1.55-4.74,2.36-7.09.39-.03.78-.05,1.18-.08Z"/><path class="cls-1" d="M558,547.99c2.09-2.23,4.09-4.56,6.33-6.62.65-.6,1.99-.44,3.02-.63-.32.92-.36,2.2-1.01,2.7-2.5,1.91-5.19,3.56-7.81,5.31-.18-.25-.36-.51-.54-.76Z"/><path class="cls-1" d="M216.65,496.83c2.96,1.71,5.91,3.43,9.09,5.27-3.29,2.73-6.92.58-9.09-5.27Z"/><path class="cls-1" d="M287.69,277.18c-2.26-1.62-1.64-2.82-.23-3.65,2.88-1.7,5.86-3.22,8.81-4.82.14.19.29.38.43.57-3,2.63-6.01,5.27-9.01,7.9Z"/><path class="cls-1" d="M482.62,275.67c2.19,1.43,4.55,2.65,6.47,4.38.72.65.42,2.44.58,3.71-.41.18-.82.35-1.22.53-2.2-2.57-4.4-5.15-6.6-7.72.26-.3.51-.6.77-.9Z"/><path class="cls-1" d="M530.15,551.96c-1.52,2.04-2.92,4.2-4.65,6.04-.51.55-2.39.65-2.92.17-1.18-1.09-.55-2.1.85-2.89,2.08-1.17,4.01-2.6,6-3.92.24.2.48.4.72.59Z"/><path class="cls-1" d="M538.32,55.95c-2.51-.78-5.09-1.4-7.48-2.45-.72-.32-.93-1.82-1.37-2.78.95-.06,2.13-.51,2.8-.11,2.24,1.34,4.3,2.98,6.43,4.5l-.38.84Z"/><path class="cls-1" d="M159.24,69.79c1.59-2.08,3.12-4.21,4.78-6.23,1.32-1.6,2.47-.75,3.97.96-2.77,2.03-5.43,3.98-8.09,5.94-.22-.22-.44-.44-.67-.66Z"/><path class="cls-1" d="M412.7,317.45c-2.85-2.98-5.7-5.96-8.55-8.94.16-.21.33-.41.49-.62,2.99,2.21,6.03,4.36,8.91,6.71.45.37.13,1.67.17,2.54-.34.1-.68.21-1.03.31Z"/><path class="cls-1" d="M692.06,399.53c.53,1.53,1.44,3.06,1.46,4.59.01.85-1.45,1.71-2.25,2.57-.65-.76-1.89-1.56-1.83-2.26.13-1.67.88-3.29,1.37-4.92.42,0,.83.01,1.25.02Z"/><path class="cls-1" d="M232.77,674.9c4.34-1.62,6.5-.11,5.93,4.14-3.12.39-4.94-.88-5.93-4.14Z"/><path class="cls-1" d="M320.67,424.15c2.4.03,4.63,2.56,4.3,4.26-.09.49-1.1,1.1-1.7,1.12-1.68.06-4.29-2.35-4.04-3.83.12-.73,1.19-1.3,1.44-1.56Z"/><path class="cls-1" d="M384.27,90.11c3.71,1.04,7.2,2.02,10.69,3-.05.3-.11.6-.16.9-2.99-.25-5.98-.58-8.98-.71-1.87-.08-2.04-1.03-1.55-3.19Z"/><path class="cls-1" d="M255.85,86.07c1.78-1.29,3.5-2.66,5.35-3.85,1.27-.81,2.61-.78,3.21.92.62,1.76-.85,1.86-1.94,2.12-2.06.5-4.13.94-6.2,1.4l-.42-.6Z"/><path class="cls-1" d="M491.52,290.42c2.28,3.53,6.13,6.2,5.99,11.08-3.29-2.97-4.66-7.01-5.99-11.08Z"/><path class="cls-1" d="M157.64,71.57c-3.13,2.12-6.26,4.24-9.39,6.36l-.51-.6c2.4-2.38,4.74-4.83,7.26-7.09.42-.38,1.6.07,2.42.14.07.4.15.8.22,1.2Z"/><path class="cls-1" d="M318.66,676.73c-2.43-.24-4.88-.36-7.28-.81-.6-.11-.99-1.29-1.47-1.99.76-.28,1.65-.95,2.25-.75,2.25.74,4.41,1.77,6.6,2.69-.04.29-.07.57-.11.86Z"/><path class="cls-1" d="M323.02,152.25c4.13-1.17,8.26-2.34,12.38-3.51.64,1.9.67,2.05-.87,2.34-3.8.71-7.63,1.28-11.44,1.91-.02-.24-.04-.49-.06-.73Z"/><path class="cls-1" d="M373.34,516.26c-1.29,1.4-2.15,2.32-3,3.24-.9-1.12-1.8-2.25-2.7-3.37,1.01-.67,1.95-1.68,3.04-1.89.61-.12,1.48,1.07,2.66,2.02Z"/><path class="cls-1" d="M281.55,279.22c-1.88,2.58-3.75,5.15-6.2,8.51-.73-1.08-1.16-1.7-1.87-2.75,2.6-2.24,5.05-4.35,7.49-6.46.19.23.39.46.58.69Z"/><path class="cls-1" d="M6.49,308.89c1.38,6.64.27,9.61-3.24,9.11,1.09-3.08,2.17-6.1,3.24-9.11Z"/><path class="cls-1" d="M271.88,78.39c2.07,2.6,1.87,3.33-.7,3.95-1.88.45-3.77.82-5.66,1.23-.13-.24-.25-.47-.38-.71,2.22-1.47,4.43-2.95,6.74-4.47Z"/><path class="cls-1" d="M40.27,473.99c-1.01-1.58-2.24-3.07-2.92-4.77-.24-.61.84-1.75,1.32-2.64.61.54,1.59.97,1.76,1.62.46,1.75.58,3.59.83,5.4-.33.13-.66.27-.99.4Z"/><path class="cls-1" d="M443.22,467.05c2.25-2.19,4.43-4.45,6.79-6.51.52-.45,1.66-.2,2.51-.27-.44.75-.71,1.75-1.35,2.22-2.42,1.78-4.97,3.39-7.47,5.07-.16-.17-.32-.34-.48-.52Z"/><path class="cls-1" d="M224.4,287.82c-1.49,3.26-2.96,6.52-4.52,9.75-.15.3-.82.35-1.25.52-.12-.72-.59-1.66-.31-2.14,1.44-2.43,3.08-4.75,4.67-7.09.29-.43.69-.8,1.03-1.2.12.05.25.11.37.16Z"/><path class="cls-1" d="M634.01,591.19c-2.47,1.84-4.48,3.33-6.8,5.06-.18-4.58,2.87-7.1,6.8-5.06Z"/><path class="cls-1" d="M144.4,353.37c.41,2.57.91,5.14,1.14,7.73.04.43-1.13.96-1.74,1.44-.44-.73-1.32-1.51-1.25-2.2.24-2.34.81-4.64,1.25-6.95.2,0,.4-.01.6-.02Z"/><path class="cls-1" d="M392.64,448.52c2.67-1.43,3.91-4.77,7.38-4.17.52,3.04-3.19,5.24-7.38,4.17Z"/><path class="cls-1" d="M161.37,583.31c2.13,1.48,4.31,2.91,6.34,4.51.34.27.05,1.35.06,2.05-.7,0-1.73.3-2.04-.04-1.73-1.91-3.28-3.98-4.89-6,.18-.18.36-.35.54-.53Z"/><path class="cls-1" d="M406.52,384.59c-.89,3.66-3.52,5.89-5.99,8.58.47-4.35,3.37-8.68,5.99-8.58Z"/><path class="cls-1" d="M102.35,612.59c-3.74-1.26-7.2-4.73-7.16-7.18,2.28,0,2.9.63,7.16,7.18Z"/><path class="cls-1" d="M271.01,514.74c-3.74-1.3-7.61-2.35-10.11-5.81,4.34.23,6.81,3.76,10.11,5.81Z"/><path class="cls-1" d="M637.63,580.6c.26.26.88.86,1.5,1.46-1.13,1.14-2.26,2.28-3.39,3.41-.49-.51-1.35-.98-1.41-1.53-.23-2.05.87-3.31,3.3-3.34Z"/><path class="cls-1" d="M369.8,107.02c1.94-.22,3.88-.5,5.83-.59.36-.02,1.15,1.04,1.08,1.14-.52.74-1.22,1.94-1.83,1.92-1.71-.06-3.39-.65-5.09-1.02,0-.48,0-.97,0-1.45Z"/><path class="cls-1" d="M379.16,91.24c-4.35,2.56-7.64,1.85-8.23-2.2,2.84.76,5.43,1.45,8.23,2.2Z"/><path class="cls-1" d="M611.01,254.4c1.69,2.99,4.7,5.36,4.29,9.35-3.38-2.15-3.03-6.16-4.29-9.35Z"/><path class="cls-1" d="M333.47,47.68c2.28-.43,4.54-.96,6.83-1.22.49-.05,1.08.88,1.63,1.35-.56.43-1.11,1.22-1.67,1.22-2.23,0-4.47-.25-6.7-.41-.03-.31-.06-.63-.09-.94Z"/><path class="cls-1" d="M516.3,432.98c.43-2.22.77-4.46,1.36-6.63.12-.46,1.2-.65,1.84-.96.2.61.71,1.35.53,1.81-.81,2.05-1.82,4.01-2.75,6l-.98-.22Z"/><path class="cls-1" d="M319.12,51.65c2.98-1.25,5.96-2.53,8.97-3.72.32-.13.83.22,1.25.35-.23.47-.35,1.25-.7,1.37-3.05,1.01-6.13,1.91-9.2,2.84-.1-.28-.21-.56-.31-.84Z"/><path class="cls-1" d="M328.62,574.98h-9.69c-.01-.39-.03-.77-.04-1.16,3.13-2.11,6.47.89,9.65.2.03.32.05.64.08.96Z"/><path class="cls-1" d="M85.24,408.41c0-2.91-.04-5.83.05-8.74.01-.36.66-.7,1.01-1.05.36.54,1.06,1.11,1.01,1.62-.24,2.74-.66,5.47-1.02,8.2-.35,0-.71-.02-1.06-.03Z"/><path class="cls-1" d="M71.49,497.9c-1.07-.89-2.46-1.6-3.09-2.74-.45-.81.12-2.19.24-3.32.79.46,1.93.73,2.29,1.42.67,1.27.89,2.79,1.3,4.2-.25.15-.5.29-.74.44Z"/><path class="cls-1" d="M542.76,643.9c-1.93,1.74-3.86,3.48-6.01,5.42-1.12-3.62-.3-4.34,6.01-5.42Z"/><path class="cls-1" d="M605.97,168.75c1.24.58,2.69.92,3.63,1.81.61.59.48,1.96.67,2.98-.94-.18-2.21-.04-2.76-.6-.94-.98-1.44-2.39-2.12-3.61.19-.19.39-.39.58-.58Z"/><path class="cls-1" d="M256.14,506.81c-2.16-1.93-5.17-3.19-6.01-7.13,4.4.86,4.15,4.92,6.01,7.13Z"/><path class="cls-1" d="M373.27,719.65c3.04.14,6.09.28,9.4.43-2.51,1.98-7.76,2.22-9.37.64-.01-.36-.02-.71-.03-1.07Z"/><path class="cls-1" d="M649.97,408.61c0,2.56.04,5.11-.07,7.66-.01.26-1.16.8-1.43.64-.42-.25-.82-1.05-.75-1.54.37-2.27.91-4.51,1.38-6.76h.86Z"/><path class="cls-1" d="M307.02,674.26c-1.49.18-3,.59-4.44.42-.51-.06-1.26-1.59-1.17-2.37.16-1.35,1.17-1.52,2.33-.73,1.06.72,2.2,1.33,3.3,1.99,0,.23-.01.46-.02.68Z"/><path class="cls-1" d="M85.21,411.72c3.68-.17,2.64,2.4,3.14,3.66.54,1.4.26,3.12-.25,4.94-.93-2.77-1.86-5.54-2.88-8.6Z"/><path class="cls-1" d="M455.79,455.66c1.73-2.88,2.34-6.46,5.15-8.67.36.22.71.44,1.07.66-1.85,2.78-3.69,5.57-5.54,8.35-.22-.12-.45-.23-.67-.35Z"/><path class="cls-1" d="M588.09,409.43c.1,3.9.2,7.74-1.97,10.96-.35-.09-.69-.18-1.04-.28,1-3.56,2.01-7.12,3.01-10.69Z"/><path class="cls-1" d="M589.04,396.41c.02,4.01,1.29,8.07-.16,11.85-.39-.04-.78-.08-1.17-.12.44-3.91.89-7.82,1.33-11.73Z"/><path class="cls-1" d="M615.8,265.56c1.04,1.93,2.16,3.83,3.06,5.83.17.37-.54,1.13-.85,1.71-.56-.43-1.47-.77-1.62-1.32-.54-1.93-.81-3.93-1.19-5.91.2-.1.4-.21.6-.31Z"/><path class="cls-1" d="M399.35,195.04c1.81.23,3.64.34,5.4.76.62.15,1.04,1.09,1.55,1.67-.72.18-1.55.67-2.14.47-1.67-.56-3.25-1.41-4.86-2.15.02-.25.03-.51.05-.76Z"/><path class="cls-1" d="M93.53,603.42c-2.27-1.37-5.24-1.89-6.43-5.05q2.28-.21,6.43,5.05Z"/><path class="cls-1" d="M457.47,641.96l-3.13,2.93c-.59-.8-1.17-1.6-1.76-2.41,1.35-.6,2.7-1.2,4.06-1.8.28.42.55.85.83,1.27Z"/><path class="cls-1" d="M393.25,194.25c-2.34,2.69-4.15.07-6.38-.47,3.6-1.94,4.58-1.86,6.38.47Z"/><path class="cls-1" d="M649.07,418.28c-.76,2.63,1.08,5.77-1.12,8.11-.46-.1-.91-.2-1.37-.3.62-2.65,1.23-5.3,1.85-7.96.21.05.43.1.64.14Z"/><path class="cls-1" d="M405.98,441.32c.86-2.04,1.62-4.22,4.62-3.32.46,3.91-2.88,2.56-4.62,3.32Z"/><path class="cls-1" d="M602.93,162.82c-2.12.38-1.71.74-4.43-3.95,2.97-.11,4.58,1.32,4.43,3.95Z"/><path class="cls-1" d="M368.4,720.13c-2.27-.1-4.42,3.04-6.97,0,2.39-2.29,4.77-.22,6.97,0Z"/><path class="cls-1" d="M315.77,574.24c-1.98-.25-3.96-.44-5.92-.81-.39-.07-.66-.83-.98-1.28.52-.26,1.15-.84,1.55-.71,1.87.62,3.67,1.43,5.5,2.17-.05.21-.1.42-.15.63Z"/><path class="cls-1" d="M140.24,448.9c-1.64-3-4.8-5.37-4.66-9.09.24-.1.48-.2.72-.29,1.31,3.13,2.63,6.26,3.94,9.39Z"/><path class="cls-1" d="M531.98,650.54c-1.32,1.04-2.61,2.15-4,3.09-.32.22-1.01-.11-1.53-.19.18-.45.24-1.1.57-1.31,1.39-.87,2.86-1.61,4.29-2.39.22.27.44.53.66.8Z"/><path class="cls-1" d="M187.63,552.68c-1.34-1.89-2.46-3.47-3.71-5.23,4.21,1.34,5.31,2.69,3.71,5.23Z"/><path class="cls-1" d="M176.15,539.33c.7,1.92,4.57,1.84,3.62,4.8-.33.21-.67.42-1,.63-1.09-1.67-2.19-3.34-3.28-5.01.22-.14.44-.28.66-.42Z"/><path class="cls-1" d="M172.25,594.24c1.27.25,2.53.5,4.62.91-1.04,1-2.08,2.35-2.37,2.21-1.1-.55-1.95-1.58-2.9-2.44.22-.23.43-.45.65-.68Z"/><path class="cls-1" d="M80.05,176.1c-1.09-3.96-.73-4.68,2.3-4.69-.86,1.74-1.58,3.21-2.3,4.69Z"/><path class="cls-1" d="M88.32,164.29c-1.23,1.59-2.47,3.18-3.7,4.76.16-2.33.53-4.5,2.54-5.63.39.29.78.58,1.16.87Z"/><path class="cls-1" d="M133.12,430c.8,2.42,1.6,4.84,2.41,7.26l-.66.25c-1.01-2.34-2.01-4.69-3.02-7.03.42-.16.85-.32,1.27-.49Z"/><path class="cls-1" d="M271.08,331.82c-.26-2.27-.87-4.69,1.4-5.83.33.15.66.29.99.44-.79,1.8-1.59,3.59-2.38,5.39Z"/><path class="cls-1" d="M224.89,222.39c-1.08,2.88-4.04,4.17-5.66,6.6-.2-.17-.4-.34-.59-.5,1.9-2.19,3.8-4.37,5.7-6.56l.55.47Z"/><path class="cls-1" d="M344.75,149.07c-1.23,2.36-3.55,1.13-5.6.76,1.77-.57,3.54-1.14,5.31-1.7.1.32.19.63.29.95Z"/><path class="cls-1" d="M408.64,374.24c.6,2.35-.46,4.39-1.9,6.37l.94-6.41c.32.01.64.03.96.04Z"/></svg>