<?xml version="1.0" encoding="UTF-8"?><svg id="Calque_1" xmlns="http://www.w3.org/2000/svg" viewBox="0 0 281.74 198.96"><defs><style>.cls-1{fill:#070810;}.cls-1,.cls-2,.cls-3,.cls-4,.cls-5,.cls-6,.cls-7,.cls-8,.cls-9,.cls-10,.cls-11,.cls-12,.cls-13,.cls-14,.cls-15,.cls-16{stroke-width:0px;}.cls-2{fill:#fefefe;}.cls-3{fill:#fbfbfb;}.cls-4{fill:#efefef;}.cls-5{fill:#0b0b15;}.cls-6{fill:#f6f6f7;}.cls-7{fill:#07080f;}.cls-8{fill:#fdfdfd;}.cls-9{fill:#fefeff;}.cls-10{fill:#06060d;}.cls-11{fill:#05050b;}.cls-12{fill:#fff;}.cls-13{fill:#07070e;}.cls-14{fill:#0c0d18;}.cls-15{fill:#05060c;}.cls-16{fill:#f5f5f5;}</style></defs><polygon class="cls-12" points="261.84 178.97 234.49 182.25 232.93 150.29 275.51 142.96 276.36 172.49 276.96 173.22 261.84 178.97"/><path class="cls-11" d="M98.26,198.79c-9.8,0-19.63.44-29.4-.11-9.34-.52-18.69-1.21-27.95-2.95-7.74-1.45-15.29-3.23-22.35-6.78-2.07-1.04-3.49-2.82-4.96-4.48-.58-.65-1.23-1.92-.69-2.77,1.58-2.45-.04-3.9-1.28-5.67-2.64-3.75-2.1-6.42,1.61-8.94-4.96-6.14-8.72-12.93-10.93-20.51-1.09-3.75-.2-7.18,2.37-10.16.93-1.08,1.85-2.16,2.72-3.29,1.43-1.86.45-4.87-2.12-6.23-1.56-.82-3.26-1.38-5.27-1.07,2.45-1.94,6.49-2.32,10.13-.8,1.56.65,2.13.68,2.21-1.24.13-3.22.97-3.96,4.42-4.56.32-.06.91.3.68-.62-.51-2.07.86-3.03,2.51-3.73,4.61-1.95,9.11-4.28,14.53-4.4-1.2-1.81-.53-2.87,1.36-3.19,3.72-.62,5.88-2.88,7.1-6.32.37-1.03,1.07-1.95,1.85-3.32.5,2.81.84,5.13,1.34,7.4.3,1.35.76,2.28,2.68,1.54,4.01-1.55,8.2-1.33,12.37-.51.84.16,1.66.21,1.79,1.25.13,1.1-.75,1.58-1.49,2.06-1.52.99-3.49,1.09-5.32,2.73,6.33-1.41,11.66.29,16.86,2.68,1.45.66,2.44,1.52,2.56,3.36.13,2.05-1.33,2.29-2.59,2.82-1.45.61-2.93,1.12-4.56,1.73,2.68,1.57,5.86,2.46,6.24,6.2.04.38.92.8,1.48.99,4.63,1.56,3.19,4.42.55,6.57,4.91,1.21,9.94,1.3,14.44,3.49,1.58.77,3.39,1.19,4.58,2.53,1.25,1.42,2,.38,2.47-.48.84-1.56,1.98-2.93,2.79-4.47,1.42-2.69,3.95-3.7,6.48-3.97,1.98-.22,3.51-.97,5.15-1.78,3.9-1.94,6.05-1.67,9.12,1.27,1.44,1.38,2.28,1.1,4.16.13,4.78-2.48,13.28-.12,15.07,6.6,1.3,4.87.11,9.61-.9,14.21-1.62,7.42-.44,14.14,3.88,20.17,1.74,2.42,4.39,4.13,7.76,3.97,2.66-.13,5.29.15,7.92-.86,5.31-2.04,7.19-6.52,8.5-11.37.57-2.1.98-4.28,1.22-6.49.28-2.64-.62-3.96-3.1-4.9-6-2.28-11.81-5.02-17.41-8.19-.81-.46-.77-1.06-.81-1.77-.63-9.28-.13-18.54.54-27.79.06-.79.12-1.12,1.1-1.38,4.16-1.14,8.28-2.4,12.53-3.18.68-.12,1.56-.28,1.5-.86-.29-2.86,2.26-2.79,3.7-3.34,5.31-2.01,10.74-3.72,16.16-5.44,2.64-.83,5.1.35,7.5,1.22,4.94,1.79,9.74,4.01,14.75,5.54,2.41.74,2.9,1.88,2.76,4-.08,1.23-.33,2.57.71,3.6,1.46-3.36,3.19-6.57,6.29-9.31-10.11-3.3-19.76-6.37-29.35-9.63-5.72-1.94-11.32-4.22-17-6.29-2.06-.75-4.21-1.28-6.26-2.04-.64-.24-1.42-.33-.93-1.81,2.1-6.36,2.74-12.95,3.03-19.69.57-13.47.81-26.95,1.11-40.42.11-5.04.11-10.11.46-15.14.21-2.93.34-5.99,2.15-8.57,1.1.14,1.99-.48,2.97-.79.51-.46,1.07-.83,1.66-1.21,5.69-3.61,11.45-1.5,17.1-.22,14.66,3.33,28.82,8.41,43.24,12.59,14.64,4.25,29.16,8.88,43.58,13.82.99.34,1.95.8,2.96,1.07.56.15.71.35.68.89-.48,9.59,1.39,19.15.55,28.73-.75,8.66-1.1,17.34-2.04,25.99-.49,4.53-.95,9.09-1.14,13.65-.33,7.95-1.21,15.82-2.79,23.61-.41,2.03-1.46,3.05-3.84,3.2-4.02.26-7.33-.94-10.21-3.55-2.25-2.03-5.21-1.51-7.8-2.19-9.1-2.4-17.99-5.43-27.2-8.42.11,2.9.77,5.68.6,8.5-.06,1,.95.99,1.74,1.26,15.3,5.37,30.33,11.39,44.99,18.37,2.98,1.42,4.26,2.98,3.98,6.33-.54,6.41.92,12.81.46,19.23-.18,2.6-.42,5.23-1.91,7.6-2.13-9.62-1.28-19.31-.99-29.17-7.9,1.71-15.81,3.43-23.74,5.13-4.27.92-8.53,1.98-12.95,1.89-6.49-.13-5.32.71-4.92,5.93.29,3.83.38,7.68.86,11.52.6,4.79,1.2,9.63-.14,14.47,14.86-.75,28.32-6.46,42.47-9.03-4.19,3.85-9.2,5.92-14.64,7.08-5.87,1.26-11.72,2.65-17.63,3.68-3.16.55-6.43.63-9.65.62-2.56,0-4.23-2.25-6.52-3.14-10.96-4.28-21.9-8.62-32.71-13.24-7.76-3.32-15.31-7.11-22.96-10.69-.15-.07-.34-.03-.63-.06-.96,5.04-1.29,10.22-3.89,14.89-2.86,5.13-7.03,7.57-12.88,8.01-11.51.87-16.04-7.53-17.84-15.69-1.29-5.85.74-11.29,1.5-16.86,1.11-8.15-1.79-13.98-11.66-13.02,4.12.31,7.2,2.52,7.87,6.33.66,3.8-1.06,7.29-4.75,9.41,3.43,1.47,3.39,6.01,1.72,8.6-3.07,4.76-10.6,6.33-15.46,3.38-1.11-.67-1.92-.62-3.31.05-7.1,3.43-13.79,7.75-21.33,10.27-.27.09-1.36,0-1.05.98.29.88.63,1.63,1.81,1.61,3-.05,6.01-.21,8.99.02,10.94.82,21.79,2.16,31.85,7.05,1.59.78,3.12,1.65,4.37,2.95,2.15,2.23,2,4.87-.42,6.8-3.42,2.71-7.65,3.17-11.69,3.82-8.24,1.32-16.55,2.13-24.91,2.34-.93.39-1.97-.09-2.88.39Z"/><path class="cls-8" d="M171.73,3.21c-.78,1.04-1.88.9-2.97.79.95-.43,1.89-.85,2.97-.79Z"/><path class="cls-8" d="M98.26,198.79c.9-.6,1.9-.44,2.88-.39-.88.76-1.91.36-2.88.39Z"/><path class="cls-12" d="M174.17,12.7c31.97,5.41,62.06,16.83,92.6,26.76-4.57-3.1-9.48-5.45-14.44-7.81,6.76,1.41,13.37,3.82,20.71,2.94-1.59,6.69.03,13.62-1.23,20.41-.07.35-.05.72-.06,1.09-.18,9.43-.1,18.88-.63,28.29-.41,7.31-.88,14.64-1.98,21.93-.66,4.4-1.01,8.85-1.73,13.26-.16.98-.19,2.04-1.22,2.37-1.31.42-.23-1.15-1.04-1.43-3.57-1.25-7.03-2.95-10.68-3.86-7.75-1.94-15.35-4.33-22.97-6.68-16.98-5.22-33.95-10.48-50.9-15.81-4.68-1.47-9.22-3.38-13.91-4.79-1.45-.44-1.03-.68-.74-1.68,1.13-3.86,1.78-7.8,1.72-11.87-.09-7.08.03-14.17-.05-21.26-.05-4.08,1.06-8.12.55-12.2-1.21-9.7.14-19.39.02-29.08,0-.54-.03-1.09,0-1.63.23-4.06,1.27-4.77,5-3.65,4.61,1.39,9.26,2.69,13.81,4.48-4.56-.72-9.12-1.45-13.8-2.19-.76,7.46-1.37,14.93-2.32,22.35-1.67,12.99-1.14,26.03-.89,39.03.09,4.71-.05,9.53.84,14.26.31,1.65,1.21.39,1.78.74,2.3,1.43,4.81,2.56,7.32,3.62,7.53,3.18,15.62,4.5,23.35,7.01,16.33,5.31,32.9,9.86,48.93,16.09,1.8.7,3.74,1.06,5.64,1.44.87.18,1.81.03,3.06.03-6.9-4.55-14.2-7.49-21.72-9.77-17.84-5.4-35.58-11.18-53.65-15.81-4.44-1.14-8.33-3.77-12.92-4.43-1.13-.16-.73-1.28-.57-1.76.95-2.93.44-5.92.46-8.87.07-10.63-.1-21.26.07-31.88.16-9.97,1.98-19.86,1.58-29.66Z"/><path class="cls-12" d="M44.33,102.2c-.3,1.73.59,3.21.79,4.8.15,1.21.86,2.38,2.65,1.61,4.42-1.91,9.1-1.34,14.01-1.31-.92,1.35-2.21,1.63-3.35,2.13-.89.39-1.84.66-2.66,1.15-.84.5-1.96,1.24-1.37,2.3.39.7,1.45.77,2.58.59,5.44-.89,10.64.21,15.54,2.64.82.41,1.91,1.13,1.84,2.16-.07,1.08-1.17,1.3-2.18,1.6-1.83.54-3.56,1.41-5.34,2.1-.54.21-1.06.51-1.05,1.08,0,.72.6.97,1.27,1.14,1.11.29,2.2.67,3.29,1.05,1.42.5,2.85,1.54,2.89,2.85.07,2.12,1.04,2.77,2.79,3.2.72.18,1.8.28,1.72,1.6-.07,1.07-.23,1.84-1.39,2.31-.72.29-2.14.5-1.8,1.61.36,1.15,1.67,1.4,2.87,1.52,5.03.5,10,1.29,14.48,3.83,1.38.78,2.73,1.66,3.97,2.65,1.18.94,1.8,2.32,1.38,3.81-.39,1.44-1.71,1.94-3.06,2.24-.52.11-1.04.21-1.56.34-3.03.77-2.98.74-1.25,3.33,1.08,1.61.58,3.23-.51,4.66-1.18,1.55-2.91,2.45-4.67,2.94-2.65.73-1.33,1.66-.32,2.61.51.47,1.16.8,1.78,1.15,1.83,1.03,2.16,2.57,1.64,4.47-.48,1.78-.87,3.37.19,5.31,1.18,2.16-.72,4.81-3.48,4.53-5.05-.51-8.51,1.32-12.01,4.9-3.13,3.2-7.97,3.35-12.34,3.95-6.03.83-11.16-1.7-16.21-4.35-7.9-4.16-15.63-8.61-23.19-13.36-5.11-3.2-9.26-7.39-12.07-12.69-1.88-3.54-3.69-7.13-5.13-10.93-1.24-3.29-.63-5.96,1.29-8.6.58-.79,1.19-1.56,1.78-2.34,2.75-3.67,3.05-6.89-.71-10.25,1.25-.4,2.11.3,2.88.83,1.88,1.27,2.51.01,3-1.4.32-.91.44-1.89.61-2.84.34-1.91,1.4-2.64,3.26-1.95,1.82.68,2.59-.19,2.04-1.75-.59-1.65.5-1.93,1.39-2.31,4.18-1.82,8.14-4.32,12.92-4.39.84-.01,2.08-.51,2.03-1.01-.33-2.88,2.01-2.65,3.56-3.34,2.7-1.21,4.18-3.44,5.21-6.15Z"/><path class="cls-12" d="M232.56,154.51c-1.1,5.11-.39,10.02-.59,14.9-.15,3.79.7,7.46,1.23,11.17.09.65.84,1.33.01,1.84-.58.36-1.1-.23-1.66-.56-5.81-3.51-11.55-7.24-17.92-9.61-10.25-3.81-20.29-8.06-30.24-12.57-3.36-1.52-6.75-2.98-10.1-4.54-2.29-1.06-1.32-3.42-1.76-5.16-.76-3-1.12-6.11-1.51-9.2-.59-4.65-.26-9.11,3.25-12.73.76-.78,1.3-1.29,2.67-.68,12.27,5.49,24.81,10.36,37.29,15.36,5.58,2.23,10.92,5.05,16.63,6.98,2.22.75,1.58,3.45,2.69,4.79Z"/><path class="cls-12" d="M277.05,30.01c-.07.12-.1.21-.16.27-5.22,4.98-10.55,1.87-16.02.45-19.73-5.12-39.26-10.93-58.83-16.63-10.43-3.04-20.99-5.64-31.74-8.5,2.98-1.1,5.63-2.42,8.1-4.09.79-.54,1.52-.32,2.41-.05,28.37,8.52,56.75,17,85.13,25.45,3.68,1.1,7.4,2.07,11.11,3.11Z"/><path class="cls-12" d="M213.42,139.97c9.44,1.69,17.09-2.94,24.92-7.01,1.04-.54,1.89-1.29,2.06-2.31.63-3.73,2.64-1.86,4.31-1.14,7.75,3.35,15.28,7.22,23.21,10.16,1.56.58,3.15,1.06,5.02,1.68-2.51,1.4-5.18,1.36-7.65,1.83-5.8,1.09-11.6,2.36-17.43,3.18-4.65.66-9.19,1.57-13.7,2.83-.56.16-1.17.03-1.8-.31-6.3-3.38-12.91-6.09-19.47-8.92.18-.21.35-.2.53,0Z"/><path class="cls-12" d="M150.1,117.27c7.44,2.91,14.3,5.59,21.4,8.37-6.54,6.18-4.45,13.56-3.65,20.73.06.52.21,1.04.34,1.55.4,1.67.87,3.34.45,5.09-1.62-.63-3.27-1.19-4.84-1.91-4.08-1.85-8.34-3.21-12.29-5.48-2.58-1.48-2.01-3.2-1.65-5,1.44-7.17.73-14.41.83-21.62,0-.39-.26-.79-.59-1.73Z"/><path class="cls-12" d="M268.92,123.72c1.22-5.2,1.39-10.25,2.14-15.24.58-3.89.97-7.82,1.21-11.74.66-11.01.87-22.04,1.28-33.05.33-8.98.17-17.94.32-26.9.04-2.1.21-3.59,2.68-3.92.9-.12,1.71-.81,2.54-1.22,1.03,8.34,1.19,16.64.73,24.89-.52,9.31-1.36,18.62-2.17,27.91-.63,7.21-1.34,14.43-2.13,21.63-.54,4.85-1.52,9.66-2.29,14.49-.37,2.32-2.26,2.51-4.31,3.15Z"/><path class="cls-12" d="M115.02,158.55c-.71,3.3-3.7,3.3-5.8,4.25-5.86,2.63-11.76,5.18-17.73,8.3-.24-2.71.24-5.59-2.27-7.59-.6-.48,2.81-2.72,4.43-2.2,2.51.81,4.75.1,7.06-.57,5.61-1.61,10.14-4.68,13.05-9.84,1.97-3.49,4.36-6.15,8.9-5.5,1.72.25,3.85.35,3.97,2.33.11,1.9-1.65,2.73-3.6,2.67-.3,0-.61.32-1.26.68,2.31.71,4.31,1.3,6.29,1.94,2.76.89,3.5,3.31,1.61,5.52-2.19,2.55-9.61,4.51-12.35,2.37-.86-.67-1.34-1.59-2.29-2.36Z"/><path class="cls-12" d="M205.18,110.78c-5.69,2.6-11.33,5.18-16.97,7.76-1.32.6-2.23-.45-3.12-.97-5.32-3.14-10.88-5.72-16.71-7.74-.22-.08-.37-.37-.64-.67,5.44-1.5,10.85-2.79,15.94-5.04,1.65-.73,3.13-.5,4.75.15,5.54,2.21,11.11,4.33,16.76,6.51Z"/><path class="cls-12" d="M105.01,142.09c2.06,3.04,2.94,3.37,5.53,2.08,2.52-1.25,3.9-4.75,3.1-7.68-.25-.92-1.82-2.01-1.05-2.43,1.55-.84,3.47-1.53,5.35-.92.99.32,2.02.88,2.72,1.62,1.89,2.01,4.31,2.36,6.81,2.47,2.7.12,5.68,1.79,6.33,3.7.75,2.22-.71,6.31-2.77,7.84-.51.38-.94.86-1.47,1.2-.95.6-1.37.33-1.34-.84.11-4.78-.95-5.74-5.81-5.91-3.5-.12-6.61.35-8.48,3.76-.38.7-1.11.84-1.63.59-2.23-1.07-4.14.22-6.1.8-1.29.38-2.28.89-3.4-.41-1.19-1.38.3-2.05.54-3.03.27-1.14,1.82-1.54,1.75-2.91l-.08.08Z"/><path class="cls-12" d="M199.49,125.95c3.4-2.11,6.12-3.8,8.93-5.54-.72,4.73,2.14,7.22,7.21,6.46,1.66-.25,3.36-.51,4.63-1.74,1.53-1.48,3.79-1.58,5.37-2.97.79-.7,1.68.09,2.17.5,2.08,1.7,4.54,2.78,7.01,4.5-5.71,1.48-11.35,2.38-16.22,5.45-.74.46-.91-.25-1.34-.42-5.52-2.27-10.83-5.14-17.75-6.22Z"/><path class="cls-12" d="M176.72,124.63c.95-.79,1.91-1.58,3.05-2.54-5.89,1.44-9.97-2.05-14.26-4.58-1.49-.88-.6-2.99-.4-4.47.1-.71.2-1.56.54-2.49,4.82,1.3,9.06,3.88,13.51,5.98,1.43.67,2.74,1.73,4.24,2.08,2.12.5,2.73,1.19,2.33,3.54-.74,4.36-.51,4.46-4.63,3.07-1.48-.5-2.98-.43-4.46-.65,0,0,.08.06.08.06Z"/><path class="cls-12" d="M206.92,112.28c.16.14.29.21.28.26-.28,1.79,1.19,4.15,0,5.22-2.03,1.83-4.68,3.14-7.29,4.12-4.07,1.52-8.31,2.58-12.59,3.86-.11-1.95-.32-3.81.83-5.51.34-.5.51-1,1.23-1.14,6.03-1.21,11.21-4.62,16.94-6.63.22-.08.44-.13.58-.17Z"/><path class="cls-12" d="M223.6,110.21c-4.11,3.27-6.45,7.41-6.83,12.48-.12,1.67-.46,2.13-2.12,2.06-4.2-.18-4.8-.97-3.99-5.11.75-3.79,2.57-7.02,4.66-10.16.83-1.26,2.03-1.38,3.32-.98,1.66.52,3.29,1.13,4.95,1.71Z"/><path class="cls-12" d="M112.46,148.88c-4.04,7.9-11.21,9.96-19.28,10.75.21-1.55,1.18-2.85.87-4.33-.26-1.21.82-1.44,1.4-1.6,2.26-.64,4.28-1.59,5.92-3.31.18-.19.49-.54.59-.49,3.67,1.72,6.7-2.16,10.5-1.02Z"/><path class="cls-12" d="M215.93,134.09c-.39,1.16-.52,2.29-1.1,3.12-.81,1.16-1.74.03-2.53-.29-4.59-1.9-9.51-2.9-13.98-5.1-.39-.19-.89-.28-1.17-.57-.84-.9-3.23-1.03-2.55-2.41.77-1.59,2.71-2.06,4.72-1.11,5,2.36,10.18,4.28,15.53,5.69.56.15.93.37,1.07.67Z"/><path class="cls-12" d="M105.09,142.01c-2.42,1.03-3.73,2.88-3.93,5.47-.09,1.17-1.06,1.32-1.89,2.06-.18-1.71.03-3.35-.96-4.7-.19-.26-.57-.56-.22-.94,2.87-3.11,4.32-7.69,9.46-8.42,2.2-.32,3.66-.01,4.39,2.1.75,2.15-.63,4.78-2.67,5.46-1.16.38-1.98-.26-2.44-1.06-.68-1.18-1.66-2.3-1.83-3.86,0,1.33,0,2.66,0,3.99,0,0,.09-.09.09-.09Z"/><path class="cls-9" d="M238.28,129.67c-3.38,2.94-7.09,3.87-10.51,5.34-2.81,1.21-5.72,2.19-8.63,3.14-.78.26-2.08.86-2.37-.59-.22-1.09-.45-2.22,1.41-2.74,5.82-1.63,11.47-3.86,17.4-5.12.69-.15,1.44-.02,2.71-.02Z"/><path class="cls-12" d="M168.2,122.52c-5.28-1.51-10.17-4.11-15.48-5.57-.72-.2-1.57-.19-2.48-.77,4.16-.69,8.1-1.35,11.88-2.66.87-.3,1.44-.17,1.1.62-1.85,4.32,1.39,5.63,4.1,7.34.49.31,1.26.29,1.44,1.03-.19.22-.38.22-.57,0Z"/><path class="cls-2" d="M180.69,127.39c4.42,1.67,8.3-1.5,12.57-1.44-1.33,2.67-.9,4.05,1.68,5.96,1.49,1.1,3.06,2.06,4.56,3.3-2.46-.96-4.94-1.87-7.38-2.88-3.83-1.58-7.89-2.62-11.36-5.02l-.07.08Z"/><path class="cls-2" d="M217.48,124.35c2.02-5.32,3.66-10.16,7.54-13.86.6.63.41,1.12.1,1.73-.89,1.75-.92,3.61-.06,5.35.9,1.83.07,2.75-1.51,3.27-2.05.67-3.7,1.99-6.06,3.5Z"/><path class="cls-3" d="M210.22,138.88c-3.31-.22-6-2.28-9.11-3.11,3.25.38,6.36,1.15,9.06,3.15l.05-.05Z"/><path class="cls-16" d="M168.2,122.52c.19,0,.38,0,.57,0,1.88-.07,3.4,1.33,5.25,1.41-2.26,1.03-3.92-.72-5.82-1.4Z"/><path class="cls-6" d="M176.64,124.58c.9,1.59,2.97,1.49,4.05,2.82,0,0,.06-.08.07-.08-1.78.48-2.98-.9-4.39-1.48-1.16-.48.18-.79.36-1.2,0,0-.09-.06-.09-.06Z"/><path class="cls-4" d="M213.42,139.97l-.26.02-.26-.03c-1.07.07-2.05-.07-2.68-1.08,0,0-.05.05-.05.05,1.28-.26,2.27.38,3.26,1.04Z"/><path class="cls-11" d="M261.67,115.24c-.48-8.54.62-17,.29-25.49-.37-9.57.38-19.13,1.13-28.66.55-6.98,1.99-13.85,3.88-20.6.08-.28.47-.46.93-.9.2,5.41-.46,10.48-1.21,15.48-.58,3.87-1.15,7.77-1.35,11.63-.25,4.85-.87,9.69-.71,14.57.31,9.45-.65,18.85-1.72,28.22-.21,1.87.22,4.06-1.23,5.75Z"/><path class="cls-13" d="M15.04,149.21c.9-4.5,4.05-6.95,7.32-5.96,1.11.33,2.21.94,1.85,2.2-.31,1.1-1.12,1.66-2.7,1.41-2.31-.35-4.37.97-6.48,2.34Z"/><path class="cls-7" d="M79.74,151.61c-1.99-.66-4.03.18-5.93-.61-1.3-.54-2.44-1.22-2.03-2.66.46-1.6,1.99-.77,2.94-.57,2.19.46,3.99,1.66,5.02,3.84Z"/><path class="cls-15" d="M77.4,165.76c-.93-2.45-1.08-5.08-3.83-6.3-.26-.12-.31-1.23-.11-1.74.21-.53.97-.35,1.48-.27,3.04.47,4.13,2.53,3.23,6.16-.18.74-.51,1.44-.78,2.16Z"/><path class="cls-13" d="M46.47,116.08c4.63,1.22,6.61,4.1,4.9,6.82-.31.5-.89,1.05-1.42,1.14-.74.12-1.07-.84-1.04-1.29.15-2.5-.83-4.58-2.45-6.67Z"/><path class="cls-15" d="M23.85,159.32c1.29-3.28,3.82-5,7.08-5.67.64-.13,1.85-.59,2.08.51.28,1.28-.85,1.37-1.82,1.72-2.53.92-5.13,1.77-7.34,3.44Z"/><path class="cls-10" d="M39.34,129.33c.98,2.31,1.85,4.68,3,6.89.6,1.15.53,1.8-.53,2.41-1.22.7-1.73-.44-2.06-1.08-.77-1.52-.86-3.23-.76-4.93.06-1.08.01-2.16.01-3.24.11-.02.22-.03.33-.05Z"/><path class="cls-11" d="M16.86,132.22c1.79-2.27,6.08-3.45,8.54-2.32.61.28,1.46.53,1.02,1.48-.3.67-.71,1.03-1.69.77-2.6-.7-5.25-.51-7.88.07Z"/><path class="cls-7" d="M24.72,122.96c3.01-1.59,5.59-.73,8.19.08.91.28,1.52.9,1.1,1.77-.45.94-1.19.21-1.82-.05-2.27-.92-4.61-1.57-7.46-1.8Z"/><path class="cls-15" d="M59.29,121.18c-1.38,2.17-2.45,3.94-3.63,5.62-.3.43-.67,1.28-1.41.94-.82-.37-.65-1.32-.48-1.94.74-2.57,2.97-3.41,5.52-4.62Z"/><path class="cls-11" d="M45.02,167.1c1.99-1.69,2.83-3.83,3.45-6.12.06-.21-.08-1.38.97-1.03.64.22,1.05.43,1.05,1.27,0,2.2-2.93,5.54-5.46,5.88Z"/><path class="cls-11" d="M71.54,174.63c.04-2.93.83-5.58-.68-7.99-.21-.34-.39-.68.02-.89.28-.15.77-.23,1.01-.09.97.57,1.52,1.34,1.5,2.62-.04,2.19-.16,4.3-1.85,6.35Z"/><path class="cls-5" d="M58.49,140.97c-1.88,0-3.64.09-5.39-.05-.68-.05-1.78-.23-1.53-1.4.22-1.07.92-1.42,2.01-.99,1.66.66,3.56.81,4.91,2.44Z"/><path class="cls-7" d="M41.85,159.2c-2.76,2.34-6.3,3.01-9.89,3.61,3.17-1.44,6.33-2.89,9.5-4.33.13.24.26.48.39.72Z"/><path class="cls-11" d="M57.87,173.45c-1.15-2.63-1.19-5.35-.4-8.13.19-.66.48-.96,1.1-.79,1.05.28.07.8.03,1.15-.26,2.56-.8,5.1-.74,7.78Z"/><path class="cls-13" d="M20.08,154.42c1.36-2.67,3.16-3.67,5.09-4.52.81-.36,1.52,0,1.74.73.26.88-.45,1.29-1.23,1.31-1.93.05-3.5,1.06-5.6,2.48Z"/><path class="cls-15" d="M33.44,132.92c.91,1.83,1.46,3.18,2.49,4.27.6.64.7,1.69.01,2.13-.72.45-1.49-.08-1.84-.99-.6-1.57-1.53-3.08-.66-5.41Z"/><path class="cls-15" d="M16.34,139.31c1.92-1.84,4.35-2.15,6.72-2.59.78-.15,1.68.22,1.69.97.01,1.16-1.12.66-1.67.61-2.34-.22-4.49.53-6.73,1.01Z"/><path class="cls-15" d="M31.52,137.66c.85,2.38,2.25,3.94,3.75,5.43.31.31,1.39.54.57,1.38-.61.63-1.4.67-1.84-.02-1.23-1.95-3.03-3.72-2.48-6.79Z"/><path class="cls-11" d="M48.68,129c.33,2.89-.77,4.72-1,6.71-.06.49-.53,1.06-1.15.9-.71-.18-.4-.89-.42-1.37-.1-2.17,1.35-3.69,2.57-6.25Z"/><path class="cls-13" d="M44.61,123.63c-1.57-2.56-2.3-4.92-4.4-6.9,3.69,1.34,5,3.31,4.4,6.9Z"/><path class="cls-1" d="M53.04,180.26c1.49-.97,2.97-1.94,4.46-2.92.57-.37,1.26-.6,1.62.07.29.55-.04,1.03-.69,1.46-1.56,1.04-3.33,1.33-4.99,1.98-.13-.2-.26-.4-.39-.6Z"/><path class="cls-15" d="M71.53,139.73c-2.01-.36-4.04-.34-6.08-.32-.51,0-.82-.18-.83-.77-.01-.76.43-.85,1.03-.86,2.15-.05,4.06.64,5.87,1.95Z"/><path class="cls-11" d="M57.61,151.32c-.77-1.35-1.52-2.71-2.33-4.04-.28-.46-.82-.94-.09-1.3.44-.22,1.13-.1,1.44.45.81,1.46,1.5,2.97.98,4.89Z"/><path class="cls-14" d="M66.36,130.4c-1.82,1.25-3.89.8-5.42,1.89-.31.22-.97.07-1.1-.46-.16-.65.42-1.07.89-1.08,1.78-.04,3.45-1.09,5.63-.35Z"/><path class="cls-11" d="M34.17,149.67c.85-1.42,2.41-1.13,3.49-1.77.62-.36,1.5-.68,1.8.14.27.73-.7,1.46-1.2,1.55-1.28.22-2.62.07-4.08.07Z"/><path class="cls-15" d="M65.69,181.71c.27-1.83.42-3.21.75-4.56.06-.24.07-1.23.89-.88.42.18.73.64.44,1.11-.77,1.23-.6,2.91-2.08,4.33Z"/><path class="cls-11" d="M58.37,160.58c-.72-1.32.22-2.76-.7-3.94-.35-.46,0-.8.56-.85.48-.04.86.02.94.63.19,1.44-.24,2.75-.8,4.16Z"/><path class="cls-15" d="M46.71,152.31v-3.38c2.98.92.64,2.24,0,3.38Z"/><path class="cls-11" d="M41.88,150.76c.02,2.17-1.47,2.24-2.96,2.32.99-.77,1.98-1.55,2.96-2.32Z"/></svg>