<?xml version="1.0" encoding="UTF-8"?><svg id="Calque_1" xmlns="http://www.w3.org/2000/svg" viewBox="0 0 349.39 188.08"><defs><style>.cls-1{fill:#000;stroke-width:0px;}</style></defs><path class="cls-1" d="M349.14,64.53c-.91-7.57-3.29-14.47-7.19-20.91-4.47-7.37-10.6-13.21-17.35-18.47-7.46-5.81-15.21-11.17-23.86-15.08-15.99-7.24-32.62-11.18-50.32-9.8-7.07.55-13.67,2.54-19.84,5.96-11.44,6.34-20.9,15.28-30.75,23.67-8.62,7.35-17.76,13.83-27.9,19.03-11.76,6.03-24.11,9.45-37.2,10.17-6.84.38-13.72.07-20.59.07-8.59.01-16.9-1.62-25.08-4.15-12-3.71-23.2-9.32-34.46-14.74-6.38-3.07-13.04-5.76-18.94-9.59-9.63-6.25-19.31-12.54-27.66-20.58-.94-.91-2.39-1.3-3.6-1.93-.24.3-.48.61-.72.91.7,1.2,1.3,2.48,2.12,3.6,6.96,9.54,15.8,17.18,25.62,23.49,14.26,9.18,29.94,15.61,45.62,21.99,14.59,5.95,29.77,8.43,45.44,8.05,6.5-.16,12.98-.68,19.46-1.06,10.33-.6,19.97-3.66,29.21-8.14,4.72-2.29,9.4-4.66,14.24-7.06-1.77,3.17-6.59,4.68-4.82,9.8,1.1-.77,1.88-1.37,2.72-1.89,4.32-2.67,8.44-5.84,13.05-7.87,7.29-3.22,15.18-4.44,23.06-5.67,7.76-1.21,15.52-1.61,23.06.29,19.35,4.88,35.26,14.97,46.06,32.2,3.31,5.28,6.31,10.99,6.35,17.17.04,7.35-5.86,15.13-13.06,18.02-4.29,1.73-8.77,2.28-13.41,1.18-4.16-.98-8.46-1.45-12.58-2.56-8.8-2.38-15.4-8.3-21.92-14.26-7.02-6.42-14-12.88-21-19.32-.15-.13-.41-.15-1.3-.45,2.68,6.38,6.73,11.2,10.19,16.01-.32,1.14-.66,2.06-.81,3.01-.2,1.32-.09,2.71-.39,3.99-1.6,6.68-6.24,11.14-11.7,14.57-11.07,6.95-22.06,14.14-34.52,18.82,2.45.09,4.96.17,7.19-.59,7.17-2.45,14.4-4.83,21.27-7.98,5.8-2.66,11.01-6.42,15.03-11.65,3.88-5.04,6.58-10.39,5.78-17.15,4.14,4.31,7.7,8.69,11.95,12.26,4.27,3.58,9.21,6.35,14.09,9.64-1.46,4.52.99,9.11,2.53,14.27-8.04,0-14.35,3.3-19.04,9.34-4.54,5.84-7.76,12.25-6.34,19.64-4.1.44-8.22.53-12.18,1.37-8.05,1.7-15.95,3.7-24.37,2.9-7.33-.69-14.63-1.46-21.52-4.03-9.28-3.46-16.7-9.09-20.97-18.54-3.24-7.17-7.25-13.99-10.96-20.94-.75-1.41-1.68-2.71-2.53-4.07-.53,1.2-.74,2.23-.5,3.14,1.78,6.99,3.5,14,5.53,20.92,3.62,12.41,11.9,20.35,24.01,24.55,6.4,2.21,12.95,3.25,19.67,3.9,7.17.69,14.21.6,21.17-1.14,6.4-1.59,12.72-3.47,19.07-5.27,2.41-.69,4.18-.45,4.77,2.44.23,1.12.68,2.21,1.15,3.26,2.7,6.03,6.29,11.26,12.38,14.4,12.91,6.68,25.46,5.58,37.47-2.07,9.73-6.19,14.3-15.62,14.84-26.9.13-2.66-1.44-5.4-2.26-8.22.03-.05.1-.11.18-.15.49-.23.99-.41,1.49-.62,11.21-4.92,21.53-11.22,29.99-20.18,5.86-6.19,8.42-13.42,5.86-21.63,3.57-3.56,7.21-6.58,10.1-10.21,6.75-8.47,11.3-17.74,9.92-29.16ZM289.79,156.99c-4.64,13.18-14.14,20.05-27.7,22.21-6.75,1.07-13.05.13-18.25-4.01-9.91-7.9-12.67-21.15-1.21-30.98,3.5-3.01,7.64-5.27,11.71-8.03,2.54,4.03,5.32,7.89,9.99,9.76,5.23,2.09,10.64,2.89,16.26,2.18,1.86-.24,3.76-.69,5.58-.5.94.1,2.05,1.25,2.56,2.2,1.2,2.2,2.01,4.47,1.06,7.17ZM320.83,120.6c-8.56,7.98-18.47,13.72-29.69,17.12-6.12,1.86-12.39,2.35-18.6.94-6.88-1.57-9.82-7.05-11.71-13.23-.49-1.6-.7-3.28-1.16-5.56,17.34,5.57,31.21,2.01,39.92-15.17,9.28,5.54,18.43,5.28,27.51-.3.87,6.83-1.74,11.97-6.27,16.2ZM335.89,86c-4.72,5.86-10.13,11.32-17.76,12.99-5.28,1.16-10.84,1.04-16.8,1.54,1.66-6.17.58-11.36-1.33-16.46-3.11-8.33-7.54-15.86-13.6-22.38-1.52-1.64-1.77-2.84.52-3.91,3.96-1.85,7.9-3.78,11.86-5.65.74-.35,1.54-.56,2.77-1-7.24-2.35-17.47.37-20.34,5.24-6.65-5.82-14.03-10.46-22.05-14.08-6.48-2.92-13.21-4.77-20.34-5.54-14.83-1.6-28.84,1.54-42.59,6.62-.56.21-1.14.35-2.12.64,5.3-4.44,10.21-8.63,15.21-12.71,6.41-5.23,12.74-10.6,19.4-15.51,8.32-6.13,17.79-8.9,28.21-9.03,18-.22,34.84,3.85,50.31,13.04,11.38,6.76,21.82,14.74,29.21,26,4.03,6.16,6.33,13,6.62,20.43.29,7.56-2.59,14.08-7.18,19.77Z"/><path class="cls-1" d="M.32,89.24c1.12.12,2.39-.07,3.33.41,4.62,2.36,9.24,4.77,13.71,7.4,25.1,14.75,51.75,25.62,80.05,32.46,6.07,1.47,12.09,3.19,18.19,4.51,4.96,1.08,10.04,1.62,15.02,2.63,2.38.48,4.66,1.49,7.63,2.48-4.26,2.93-8.47,3.66-12.68,3.95-7.73.54-15.09-1.63-22.38-3.8-12.45-3.7-25.05-7.01-37.18-11.58-19.02-7.15-36.47-17.47-53.23-28.94-3.56-2.43-7.31-4.58-10.94-6.91-.69-.44-1.23-1.12-1.84-1.69.11-.31.21-.62.32-.93Z"/></svg>