<?xml version="1.0" encoding="UTF-8"?><svg id="Calque_1" xmlns="http://www.w3.org/2000/svg" viewBox="0 0 310.31 263.34"><defs><style>.cls-1{fill:#fefefe;}.cls-1,.cls-2,.cls-3,.cls-4,.cls-5,.cls-6,.cls-7,.cls-8,.cls-9{stroke-width:0px;}.cls-2{fill:#efefef;}.cls-3{fill:#efeeef;}.cls-4{fill:#f8f7f8;}.cls-5{fill:#fcfcfc;}.cls-6{fill:#06060d;}.cls-7{fill:#05050b;}.cls-8{fill:#fff;}.cls-9{fill:#05060c;}</style></defs><path class="cls-7" d="M305.57,182.12c6.08-4.35,6.38-10.21.52-14.72-8.39-6.46-17.97-8.37-28.33-6.52-.93.17-1.57.52-1.92-.82-.31-1.16-.94-2.29-1.65-3.27-.81-1.12-.45-1.88.44-2.53,2.41-1.77,2.1-4.13,1.52-6.56-.29-1.19-.45-2.44-.96-3.53-.45-.95-.29-1.58.64-1.42,3.56.62,6.42-.58,9.38-2.52,2.59-1.71,4.72-3.52,5.27-6.6.29-1.67-.07-3.35-2-4.13-3.93-1.56-7.98-.84-11.97-.52-3.73.3-6.31,2.88-8.98,5.15-.87.74-1.47.65-2.34-.03-1.01-.79-.26-1.42.03-1.99.39-.78,1.05-1.42,1.52-2.17,1.67-2.64,2.92-5.58,2.32-8.66-.91-4.67-7.73-7.7-12.35-5.81-1.85.75-3.69,1.52-5.56,2.29-.55-.79-.27-1.62-.29-2.39-.04-2.27.09-4.55-.04-6.81-.14-2.44-2.31-2.8-3.9-2.59-1.61.21-3.99.68-3.65,3.25.27,1.96,1.34,3.65,3.7,3.24,1.38-.23,1.87,0,1.7,1.38-.13,1,.64,2.37-1.5,2.36-3.85,0-6.82,2.17-9.44,4.7-1.57,1.53-.7,3.72,1.5,3.94,3.34.35,6.61-.02,9.3-2.31,2.51-2.14,5-4.03,8.58-4.15,3.13-.1,6.27,0,8.31,2.43,1.9,2.25.47,4.91-.62,7.21-.84,1.78-1.47,4.21-3.19,4.87-2.4.93-5.13,1.33-7.82,1.27-.89-.02-1.46-.23-1.87-1.14-.94-2.11-4.1-3.98-6-3.14-3.03,1.34-6.21,1.8-9.36,2.59-7.02,1.77-13.01,5.88-19.14,9.46-9.31,5.46-18.74,10.46-29.24,13.22-3.14.83-6.3,1.65-9.54,1.88.75-6.58,2.38-12.88,2.41-19.37.01-1.99.7-2.91,2.67-3.61,3.58-1.28,7.37-1.69,10.9-3.14,6.44-2.66,12.99-5.09,18.3-9.82,8.79-7.82,13.52-17.88,16.2-29.15,1.97-8.24-2.35-11.51-9.35-11.75-1.57-.05-2.75.31-3.53-1.94-1.04-3.03-4.88-4.43-7.21-3.4-2.48,1.1-3.37,4.35-2.43,7.81.33,1.23.91,2.29,1.42,3.39.35.75.35,1.23-.13,1.94-4.4,6.49-9.92,11.79-16.79,15.59-3.54,1.96-6.79,4.6-11,5.42-.08-.87-.11-1.59-.23-2.3-1.41-7.97-4.15-15.59-6.24-23.38-2.39-8.87-3.27-17.65-.84-26.77,2.15-8.03,2.14-16.25-1.56-24-3.41-7.16-8.25-12.19-17.15-11.34-3.48.34-7.08.5-10.57-.17-7.06-1.35-12.35-5.93-17.76-10.17-4.84-3.81-9.82-7.32-15.6-9.52C105.22-.53,100.04.16,94.94,0c-3.21-.1-6.09.82-8.97,2.12-7.6,3.41-13.53,8.93-19.16,14.87-2.89,3.04-6.31,4.97-10.67,4.26-3.29-.53-6.53-1.46-9.83-1.92-3.54-.5-7.05-.58-10.27,1.65-2.67,1.85-4.15,4.53-5.71,7.16-5.75,9.68-7.13,19.57-2.24,30.21,3.96,8.62,5.03,17.8,2.51,27.1-1.58,5.84-3.73,11.54-5.25,17.39-.64,2.47-1.15,4.44-3.66,5.79-2.26,1.21-4.2,3.09-5.71,5.29-5.19,7.56-8.57,15.94-11.59,24.56C1.35,147.17-.41,155.93.08,165.16c.22,4.22.5,8.42,1.12,12.61,1.25,8.53,4.22,16.22,10.6,22.31,6.1,5.81,14.02,3.39,18.3-2.12,2.32-2.99,2.88-6.7,4.06-10.31,2.73,7,4.78,14,7.95,20.61,3.6,7.52,8.19,14.65,9,23.33.18,1.94-.1,2.36-1.74,2.92-5.37,1.82-8.28,7.11-6.95,12.47.28,1.12.32,1.56-1.03,1.71-1.63.17-3.03,1.18-4.03,2.37-1.86,2.2-.3,4.97,3.4,6.28,9.3,3.29,19.08,3.74,28.74,4.92,5.02.61,10.08.49,15.12.68,1.11.36,2.31-.15,3.41.36,13.55.25,27.06-.72,40.58-1.5,7.26-.42,14.48-.86,21.6-2.29,4.41-.9,8.83-1.85,12.74-4.32,2.78-1.75,4.12-3.94,3.37-6.36-.77-2.44-3-2.85-5.19-2.89-1.14-.02-1.31-.45-1.33-1.44-.09-5.23-2.79-7.66-7.6-9.31-1.52-.52-1.74-1.01-1.65-2.29.44-5.92,1.16-11.78,4.39-16.95,1.18-1.89,1.93-5.24,5.3-2.28.16.14.53.03.8.07,6.19.94,12.48.57,18.69,1.57,6.2,1.01,12.54.77,18.8.98,8.42.27,16.85.55,25.27.74,10.31.23,20.62-.23,30.94.36,8.6.5,17.23.77,25.84,1.18,5.99.28,11.97,1.13,17.97.09,1.76-.3,3.52-.51,4.93-1.72.83-.71,1.59-1.7,1.25-2.77-.34-1.06-1.4-1.31-2.55-1.61-2.48-.62-5.01-.25-7.89-.62,8.97-4.33,13.3-10.95,12.73-20.59-.16-2.61-1.24-4.96-1.76-7.45-.14-.7-.59-1.13.31-1.78ZM129.66,245.14c-1.14,2.02-3.07.28-4.42.09-6.17-.9-12.36-1.49-18.55-2.1-8.94-.88-17.86-1.7-26.85-1.66-3.32.02-6.67-.18-9.73,1.34-1.33.66-1.57.2-2.08-.92-1.51-3.37-.25-6.38.93-9.43.25-.66.62-1.26.93-1.89,2.68-5.4,2.67-5.33,8.7-4.23,5.74,1.04,11.57.74,17.31.26,7.84-.65,15.62-1.37,23.49-.41,2.19.27,4.49.46,6.72-.33.99-.35,2.08-.39,2.67.99,1.61,3.74,3.04,7.51,3.27,11.62.39,2.65-1.24,4.64-2.39,6.67ZM287.45,174.7c-.1-1.68,1.42-1.43,2.63-1.07,3.52,1.06,6.25,3.24,8.69,6.07-3.36,2.75-6.95,4.98-9.48,8.24-3.76-3.94-1.57-8.77-1.84-13.24ZM272.66,178.01c2.36-2.4,2.43-2.33,3.83.6,1.18,2.47,2.6,4.83,3.87,7.26.32.62,1.32,1.35.18,1.99-.9.5-1-.46-1.41-1.03-2.09-2.91-4.55-5.49-7.34-7.8.29-.34.56-.7.87-1.02ZM271.22,182.63c2.01,3.11,4.17,6.09,6.92,8.7-4.26-1.66-8.6-.21-13.03-.54,1.31-2.7,2.63-5.26,3.79-7.89.71-1.61,1.48-1.58,2.32-.27ZM179.69,186.61c5.57-2.01,7.47-7.39,10.63-11.6.95-1.26,1.59-2.75,2.65-4.61.39,3.56-.52,6.54-.53,9.6,0,4.71,1.6,9.05,2.44,13.56,1.08,5.85,2.64,5.42-4.16,5.49-2.78.03-5.59-.47-8.34.47-1.1.38-1.37-.36-1.31-1.34.25-3.59-.14-7.1-1.76-10.35-.37-.74-.06-1.06.38-1.22ZM168.88,187.32c.7-1.72,1.16-1.39,2.09-.57,2.7,2.39,4.74,5.19,5.19,8.89.09.8.08,1.57.43,2.35.48,1.04-.08,1.94-1.09,2-4.33.3-8.49,1.52-13.01,2.47,2.7-5.09,4.36-10.2,6.39-15.14ZM266.91,212.09c-16.89.02-33.78.26-50.66-.09-8.92-.18-17.87-.37-26.78-1.04-9.97-.77-19.85-2.71-30.15-2.04.38-.81.73-1.33.89-1.9.73-2.7,2.12-3.59,4.91-2.4,1.59.68,3.49.87,5.25.91,13.21.26,26.41,1.4,39.63.92,6.34-.22,12.69-.55,18.91-2.04,9.97-2.4,14.72-9.49,17-18.78.91-3.7,2.34-7.45,1.57-11.26-.61-3.1-.15-4.79,2.35-7.23,3.37-3.29,5.22-8.1,4.34-13.29-.21-1.2.57-1.46,1.54-1.75,2.38-.73,4.67-1.67,6.3-3.76,1.08,2.87,2.32,5.27,4.47,7.49,1.82,1.88,2.32,5.07,3.29,7.72.26.73-.5.97-1.15,1.12-11.29,2.64-16.45,11.16-19.82,21.14-1.39,4.1.33,8.46,3.22,9.62,2.58,1.03,5.26.66,7.96-.15,1.01,6.62,3.53,12.41,9.18,16.57-.7.48-1.52.24-2.25.24ZM267.25,203.13c-1.85-3.04-3.55-6.13-3.33-9.88.05-.72-.11-1.56,1.07-1.34,4.78.86,9.54,1.87,15.12,1.81-2.65,2.11-4.57,3.83-6.68,5.26-1.62,1.09-2.88,2.42-3.94,4-.65.99-1.45,1.44-2.24.15ZM283.55,202.26v2.17c0,4.45.01,4.63-4.2,4.71-2.79.04-5.57-.57-8.07-2.04-1.35-.78-1.37-1.57-.14-2.49,3.49-2.58,6.3-5.88,9.42-8.84.43-.41.64-1.22,1.69-.69.95.49,1.35.99,1.32,2.03-.06,1.71-.02,3.43-.02,5.15ZM284.64,176.98c-.14,0-.28.01-.42.01-.42-.93-.79-1.89-1.28-2.79-.3-.55-.95-1.1.18-1.3.59-.11,1.54-.42,1.52.83-.01,1.08,0,2.17,0,3.25ZM293.91,205.1c-2.61,1.67-5.39,2.79-8.52,3.24.41-3.07.64-5.88-.03-8.7-.2-.87-.13-1.8-.17-2.69-.08-1.47,1.02-1.68,1.59-.84,2.05,2.99,5.25,4.93,7.1,8.06.17.28.82.43.03.93ZM300.22,196.98c-1.01,2.43-2.34,4.67-4.56,6.46-2.8-2.98-3.9-7.07-7.6-9.23,4.11.59,8.13,1.55,12.27.81.2-.88-.32-1.23-1.12-1.45-2.85-.79-5.73-1.26-8.71-1.12-.52.03-1.37.4-1.48-.63-.07-.65.05-1.17.74-1.57,3.63-2.11,6.44-5.19,9.31-8.17.74-.77,1.37-.9,2.22-.46.82.42.84,1.06.85,1.97.07,4.58-.15,9.1-1.92,13.39Z"/><path class="cls-8" d="M148.92,234.3c-3.51-.65-6.75-.84-9.61,1.62,5.14-.53,9.58,1.43,13.94,3.67,3.3,1.7,4.48,4.57,3.53,8.03-.43,1.57-1.82,2.07-2.95,2.47-7.41,2.6-14.57,2.25-21.27-2.26-.7-.47-1.6-.81-.91-1.76,5.13-7.05,1.25-13.47-1.31-19.99-.1-.24-.25-.47-.38-.7,2.94-.97,5.94-1.79,9.23-3.65-6.03.39-11.26,1.62-16.63,1.88-4.55.22-8.96-.66-13.35-1.36-4.52-.72-8.87.03-13.22.45-7.86.76-15.63,1.99-23.54.4-2.62-.53-5.36-.46-8.05-.63-.41-.03-.96-.14-1.02.53-.05.51.24.88.72,1.02,1.45.41,2.89,1.02,4.36,1.11,2.68.15,1.89,1.23,1.05,2.71-1.89,3.37-3.87,6.7-4.04,10.76-.11,2.7.49,5.16,2.1,7.26,1.06,1.38.6,2.07-.67,2.7-2.02.99-4.1,1.7-6.4,1.79-3.76.13-7.45-.12-11.11-1.13-5.37-1.48-5.6-6.79-2.22-9.81,2.84-2.54,5.91-4.82,9.99-4.96.25,0,.51-.15.72-.29.13-.09.19-.29.28-.45.04-.46-.35-.3-.52-.31-4.59-.13-4.41-.14-4.72-4.88-.36-5.42-1.93-10.68-4.4-15.44-6.88-13.26-11.12-27.45-15.09-41.71-1.92-6.91-4.99-13.39-6.87-20.29-1.21-4.45-2.11-8.96-2.51-13.6-1.13-13.03,2.48-25.32,5.72-37.66,1.38-5.27,3.48-10.37,4.59-15.69,1.87-8.98.92-17.83-2.43-26.44-1.69-4.34-3.86-8.66-3.45-13.5.62-7.34,3.39-13.93,7.98-19.63,1.98-2.47,5.14-2.98,8.12-2.61,3.6.45,7.18,1.29,10.71,2.17,4.63,1.16,8.61.48,11.99-3.18,4.82-5.23,10.08-9.93,16.25-13.63,10.84-6.49,21.31-5.7,31.78.8,6.25,3.88,11.34,9.24,17.49,13.26,5.5,3.59,11.27,5.04,17.83,4.41,2.83-.27,5.74-1.27,8.6-.49,6.6,1.79,9.12,7.16,10.93,13.03,2.29,7.41.58,14.7-1.18,21.85-1.54,6.21-.88,12.19.31,18.27,1.68,8.6,4.9,16.79,6.64,25.35,1.25,6.14,2.08,12.37,1.9,18.69-.12,4.18-.07,8.36,0,12.54.08,5.21-.94,10.3-1.69,15.41-1.1,7.51-2.06,15.1-4.89,22.21-5.59,14.02-10.84,28.19-18.75,41.17-3.2,5.25-5.24,10.92-3.58,17.28.11.43.02.9.02,1.36,0,.62,0,1.25,0,1.88Z"/><path class="cls-8" d="M23.58,110.78c-.39,3.7-1.33,7.13-1.74,10.67-.66,5.71-1.2,11.32-.58,17.12.73,6.74,1.7,13.41,4.02,19.74,2.7,7.37,4.72,14.93,6.84,22.45,2.17,7.7-3,16.68-10.59,19.01-3.45,1.06-5.78-1-7.99-2.94-4.82-4.22-6.99-9.99-8.45-15.98-1.18-4.85-1.32-9.87-1.78-14.84-1.3-13.96,3.99-26.31,9-38.71,2.13-5.26,4.38-10.6,8.57-14.74.7-.69,1.33-1.48,2.7-1.78Z"/><path class="cls-8" d="M229.09,164.09c3.8-.02,6.72.07,9.61,1.05,2.12.71,3.17,1.99,3.4,4.01,1.63,13.97-2.6,23.95-18.53,28.24-5.12,1.38-10.35,1.06-15.56,1.07-.49,0-.93.1-1.35-.53-2.17-3.24-4.97-6.31-5.82-10.06-2.1-9.29-.5-18.54,12.39-21.43,2.77-.62,5.55-1.24,8.34-1.76,2.75-.52,5.54-.74,7.51-.6Z"/><path class="cls-8" d="M212.1,88.01c-.06,9.84,4.99,14.69,12.3,11.89.29,10.2-24.11,28.26-42.86,31.6.57-5.02-.5-9.93-.45-14.89,0-.09,0-.18,0-.27.09-1.86-1.52-4.01-.2-5.44,1.05-1.13,3.26-1.11,4.85-1.84,8.87-4.05,16.75-9.4,22.55-17.46.97-1.35,2.46-2.33,3.81-3.58Z"/><path class="cls-8" d="M243.77,184.31c-.97,9.76-8.22,17.01-17.85,18.59-11.52,1.88-23.07.87-34.6.87-3.64,0-7.38-.11-11.03-.47.05-1.29.71-1.6,1.92-1.57,11.34.32,22.67-.32,34.01-.55,6.97-.14,13.52-1.83,19.33-5.95,4.09-2.9,6.28-7.08,8.22-11.48.15.12.21.25.16.37-.05.13-.1.19-.15.19Z"/><path class="cls-8" d="M226.33,90.26c-.08,5.52-1.97,7.61-6.7,7.35-2.64-.14-4.22-1.92-5.21-4.01-1.11-2.34-1.19-4.96-.99-7.55.05-.63.53-.77,1-1.01,2.5-1.28,5.18-1.42,7.81-.83,3.53.8,4.16,1.93,4.1,6.05Z"/><path class="cls-8" d="M204.05,198.3c-.57.09-.8.16-1.03.17-5.59.13-5.48.12-6.17-5.4-.47-3.78-1.62-7.47-1.6-11.32.04-7.35,1.66-14.26,5.82-20.43.2-.29-.04-1.29.95-.74,4.77,2.63,9.88,1.92,14.96,1.43.08,0,.16.07.42.19-8.18,1.92-16.48,3.41-19.18,13.15-2.41,8.71-.59,16.3,5.84,22.95Z"/><path class="cls-8" d="M224.48,160.85c7.43-2.37,14.67-5.2,22.26-6.86,1.13-.25,2.32.08,3.41-.61.85-.53,1.28,0,1.25.97-.13,4.2-1.59,7.91-4.11,11.2-.33.43-.96,1.02-1.72.13-2.92-3.43-6.97-4.47-11.19-4.78-3.28-.24-6.6-.05-9.9-.05Z"/><path class="cls-8" d="M284.64,189.85c1.29-2.68-1-4.49-1.86-6.44-3.8-8.55-8.03-16.92-12.06-25.37-.25-.53-1.29-1.2-.01-1.86.99-.51,1.63-.11,1.92.76,3.56,10.62,10.09,19.94,13.37,30.67.26.85.91,1.62.32,2.64-.34.58-.63,1.22-1.33,1.01-.65-.19-.22-.94-.35-1.42Z"/><path class="cls-1" d="M269.86,136.67c3.31-3.8,7.58-4.65,12.5-4.04-1.26,1.98-2.55,4.01-.33,6.31-4.57.71-8.32-1.1-12.17-2.27Z"/><path class="cls-1" d="M210.5,77.41c2.74,0,3.72,1.54,4.78,2.95.27.35.14.75-.19.91-1.79.87-3.28,2.11-4.61,3.58-.34.38-.82.16-1-.38-.61-1.88-.75-3.82-.56-5.76.13-1.36,1.22-1.32,1.59-1.29Z"/><path class="cls-1" d="M246.85,118.3c1.37.05,2.29-.22,2.61.58.33.82-.6,1.2-1.09,1.59-2.21,1.78-4.97,2.15-7.62,2.7-.5.1-1.13-.4-1.7-.62.31-.41.52-1,.93-1.21,2.41-1.25,4.68-2.91,6.88-3.04Z"/><path class="cls-1" d="M178.71,195.42c-.96-4.69-3.15-8.4-7.53-10.59-.72-.36-1.06-.7-.59-1.63.62-1.23,1.17-.38,1.66-.09,4.71,2.78,6.54,7.1,6.45,12.3Z"/><path class="cls-4" d="M284.2,137.09c-.08-1.83-.63-3.47,1.01-4.49.52-.32,1.68.24,1.72.86.11,1.7-1.03,2.7-2.73,3.63Z"/><path class="cls-5" d="M243.77,184.31c0-.19,0-.38,0-.56.45-3.7,1.54-7.32,1.29-11.1.52,4,.59,7.94-1.28,11.67Z"/><path class="cls-8" d="M243.86,133.71h4.49c-1.71,2.02-2.09,2.03-4.49,0Z"/><path class="cls-2" d="M176.47,202.85c-1.48,0-2.96,0-4.45,0-.31,0-.61-.11-.91-.43.42-.05.84-.12,1.26-.13,1.4-.02,2.79,0,4.19,0l-.1.58Z"/><path class="cls-3" d="M246.75,109.34c1.46-1.11,1.87-.09,2.4.63-.67-.18-1.35-.35-2.4-.63Z"/><path class="cls-7" d="M59.42,109.13c.38-2.43,1.91-3.36,3.25-4.26,1.26-.84,1.53-1.46.65-2.78-1.42-2.15-2.2-4.67-3.97-6.68-.93-1.05-1.42-2.66.25-3.87,2.36-1.71,4.24-3.95,6.27-6.01,1.95-1.96,3.17-1.76,4.55.78,1.61,2.95,2.9,6.05,3.74,9.29.4,1.54,1.08,1.26,1.97.88,7.23-3.14,14.84-4.59,22.65-4.25,8.24.37,16.39,1.63,23.99,5.15,1.66.77,2.71.88,3.79-1.04,1.7-3.02,3.05-6.14,3.76-9.49.42-2,1.15-2,2.75-1.31,1.49.63,2.48,1.75,3.57,2.8,1.16,1.11,2.15,2.44,3.67,3.12,2.46,1.1,2.2,2.69.97,4.6-1.63,2.53-3.06,5.2-4.78,7.66-.84,1.2-.35,1.76.49,2.37.93.67,1.91,1.27,2.85,1.91,1.09.74,1.31,1.75.49,2.75-.77.94-1.49.39-2.29-.23-9.41-7.3-19.86-12.06-31.71-14.09-13.07-2.24-25.34-.37-37.09,5.56-3.52,1.78-6.35,4.55-9.85,7.14Z"/><path class="cls-7" d="M127.68,176.35c-.34,9.35-3.37,19.5-12.01,27.31-8.88,8.04-20.69,7.96-29.6.3-11.36-9.76-15.12-22.7-13.86-37.05.88-10.12,5.11-18.99,13.75-25.06,4.18-2.93,8.95-4.2,14.1-3.83,14.08,1.02,20.95,10.35,25.39,22.28,1.68,4.51,2.3,9.3,2.24,16.04Z"/><path class="cls-7" d="M84.52,38.85c-.02-6.26,1.99-12.86,7.8-17.92,4.43-3.86,11.49-4.57,16.37-.39,4.28,3.66,6.15,8.38,7.07,13.83,1.11,6.6.09,12.74-2.84,18.61-2.49,4.99-6.63,8.14-12.08,9.08-2.96.51-5.85-.53-8.23-2.53-6.07-5.1-8.14-11.85-8.09-20.68Z"/><path class="cls-7" d="M40.48,46.48c-.23-5.02.95-9.23,3.72-13.08,3.27-4.55,9.19-4.61,11.95.15,4.58,7.88,3.19,15.64-.92,23.14-1.5,2.74-4.3,3.76-7.37,3.27-3.36-.54-5.12-3.11-6.26-5.98-.98-2.48-1.53-5.12-1.13-7.5Z"/><path class="cls-7" d="M142.96,45.06c-.27-3.89.46-7.42,2.38-10.65,3.11-5.25,7.19-4.73,10.44-1.2,3.55,3.85,4.38,8.77,3.71,13.94-.35,2.73-.71,5.5-2.12,7.86-1.52,2.54-3.4,5.03-6.97,4.42-3.19-.55-4.6-3.08-5.85-5.7-1.33-2.79-1.89-5.73-1.59-8.66Z"/><path class="cls-7" d="M216.92,175.03c1.92,4.8,1.2,8.82-1.58,13.03-1.03-2.13.38-3.37.75-4.65.79-2.72.25-5.09-.75-7.46-1.29-3.03-1.3-3.1,2.04-3.09,4.77,0,9.54-.17,14.3.5.8.11,1.38.38,1.82.96,1.73,2.28,2.46,9.15-.51,13.07.98-3.49.09-6.5-.16-9.54-.18-2.19-1.85-2.75-3.68-2.79-3.98-.07-7.96-.02-12.23-.02Z"/><path class="cls-8" d="M138.98,94.54c-1.8,2.46-3.86,4.79-4.74,7.78-.46,1.57-1.19.64-1.73.31-1.95-1.19-3.84-2.48-5.78-3.74,2.48-2.36,3.78-5.54,4.94-8.79.5-1.4.95-2.31,2.38-.6,1.5,1.79,3.27,3.37,4.92,5.04Z"/><path class="cls-8" d="M61.78,93.42c2.36-1.64,4.47-3.56,6.22-6.12,1.45,3.25,2.63,6.52,4.86,9.23.65.79.49,1.48-.6,1.77-.08.02-.15.1-.22.15-1.89,1.12-3.89,3.26-5.63,3.07-1.63-.17-1.47-3.53-2.6-5.25-.63-.96-1.32-1.87-2.03-2.86Z"/><path class="cls-8" d="M125.54,173.29c.01,10.73-2.44,19.39-9.1,26.21-10.12,10.38-22.96,9.27-32.57-.78-8.23-8.61-11.05-19.27-10.07-30.84.65-7.67,3.12-14.93,8.63-20.67,4.68-4.87,10.5-8.2,17.25-7.45,7.23.81,13.59,4.41,18.02,10.44,5.31,7.21,7.92,15.39,7.83,23.09Z"/><path class="cls-8" d="M86.2,39.22c.14-6.33,1.85-12.02,6.56-16.58,3.74-3.62,6.71-4.12,11.65-2.02,6.1,2.59,8.41,7.85,9.57,13.72,1.32,6.67-.08,12.97-3.66,18.77-1.34,2.17-3.07,3.95-5.24,5.28-6.12,3.76-11,.72-14.99-5.05-2.38-3.45-4.14-8.81-3.9-14.12Z"/><path class="cls-8" d="M42.1,45.18c-.34-3.6.59-7.18,3.05-10.35,3.68-4.75,6.83-3.81,9.92.55,4.17,5.89,2.16,15.97-1.53,20.26-3.47,4.03-7.46,2.78-10.34-2.83-.51-.99-.91-2.1-1.06-3.2-.18-1.33-.04-2.71-.04-4.42Z"/><path class="cls-8" d="M157.77,45.15c.03,3.25-.39,6.31-2.23,9.16-2.22,3.43-5.16,3.81-7.58.57-3.6-4.82-4.84-13.77-1.52-19.41,2.28-3.88,6.65-3.9,9,0,1.68,2.79,2.34,5.5,2.34,9.66Z"/><path class="cls-7" d="M101.44,37.14c.96.13,2.25.91,2.22,2.88-.03,2.32-2.71,5.85-4.26,5.8-1.66-.05-2.89-2.02-2.81-4.48.08-2.39,1.93-4.34,4.85-4.19Z"/><path class="cls-6" d="M51.4,46.24c-.07,1.84-.72,3.28-2.14,3.28-1.63,0-2.09-1.72-2.23-3.11-.13-1.35.74-2.18,2.1-2.21,1.58-.04,2.08,1.05,2.26,2.04Z"/><path class="cls-9" d="M150.95,43.08c2.38-.05,3.43,1.48,3.29,3.16-.13,1.52-.98,3.33-3,3.54-1.52.16-3.1-2.28-2.81-4.48.19-1.41.96-2.53,2.52-2.22Z"/></svg>