<?xml version="1.0" encoding="UTF-8"?><svg id="Calque_1" xmlns="http://www.w3.org/2000/svg" viewBox="0 0 105.75 178.98"><defs><style>.cls-1{fill:#000;}.cls-1,.cls-2{stroke-width:0px;}.cls-2{fill:#fff;}</style></defs><path class="cls-1" d="M14.16,164.53c.59-2.24,1.1-4.19,1.68-6.37-1.42-1-3.22-2.12-4.85-3.46-5.99-4.93-8.18-11.88-9.33-19.09-.99-6.19-1.91-12.54-1.6-18.76.59-11.68,3.33-22.93,9.92-32.91,2.76-4.19,5.55-8.36,8.22-12.61,3.5-5.58,4.4-12.01,5.54-18.31,1.34-7.41,4.86-13.77,8.74-20.04.64-1.03.87-2.65.61-3.84-1.05-4.81-.47-9.4,1.11-13.97,2.26-6.54,6.5-11.42,12.59-15.18-1.12,6.37-3.54,12.68-.52,18.49,5.61-2.09,11.07-4.57,16.78-6.12,7.4-2.01,14.57-.79,21.02,3.59,4.07,2.76,6.19,8.85,5.25,13.92.91-1.38,2.04-2.68,2.7-4.17,2.31-5.22,1.7-10.77,1.51-16.24-.1-2.68-.42-5.36-.69-8.68,1.61.46,2.84.57,3.81,1.12,5.45,3.11,7.83,8.06,8.53,14.14,1,8.78,1,17.42-2.85,25.6-2,4.26-4.48,8.24-8.29,11.21-.39.31-.82.81-.88,1.26-.6,4.52-1.79,9.08-1.51,13.56.32,5.19,1.4,10.48,3.11,15.39,3.75,10.8,4.43,21.88,3.65,33.04-.43,6.16-2.07,12.28-3.59,18.32-2.68,10.59-10.36,16.69-19.85,20.86-6.6,2.9-13.46,4.86-20.8,4.43.14,2,.26,3.82.39,5.61,3.26.5,6.6.7,9.74,1.61,1.78.52,4.23,1.96,4.59,3.42.53,2.19-2.03,3.27-3.95,4.08-6.51,2.76-13.39,3.96-20.4,4.32-4.78.25-9.61.31-14.38-.02-7.01-.49-13.87-1.78-19.53-6.44-1.51-1.24-3.13-2.67-2.22-5.02.89-2.31,2.87-2.77,5.07-2.7.26,0,.53-.05.69-.06ZM34.66,157.59c5.89,0,12.36-.09,18.82.02,6.73.12,13.13-1.29,19.29-3.89,9.17-3.86,17-9.38,19.61-19.55,1.75-6.81,2.84-13.88,3.36-20.9.71-9.65-.51-19.16-4.18-28.3-2.75-6.85-3.67-13.95-1.79-21.3.7-2.75.81-5.65,1.19-8.52-2.26.55-4.06,1.1-5.9,1.41-4.63.78-10.15-3.71-10.47-8.4-.32-4.64.87-8.88,3.3-12.79,2.11-3.39,4.15-4.23,7.96-3.4.74-5.34.54-10.36-4.83-13.47-5.38-3.12-11.2-3.97-17.18-2.4-19.54,5.15-31.82,17.93-37.13,37.12-2.82,10.17-6.24,19.67-12.86,28.18-8.32,10.69-11.48,23.45-11.75,36.89-.16,8.12,1.3,16.04,3.47,23.84.34,1.24,1.02,2.38,1.54,3.57.41-.52.46-.89.4-1.24-1.69-9.83.19-18.74,6.83-26.42,7.37-8.52,20.99-7.97,26.49,2.66,4.72,9.13,4.33,18.37.22,27.43-1.62,3.57-4.43,6.6-6.4,9.45ZM9.12,137.3c-.25,4.65,1.46,8.77,3.26,12.88,1.81,4.14,4.78,6.51,9.37,6.87,2.87.23,5.22,1.71,8.51-.77,8.97-6.78,12.84-19.47,9.27-30.15-4.24-12.64-17.32-13.41-24.27-5.54-4.27,4.84-5.92,10.47-6.13,16.7ZM95.3,5.1c0,.64,0,1.14,0,1.65,0,5.73.32,11.48-.12,17.18-.33,4.33-2.61,7.94-6.56,10.22-.87.5-1.74,1.03-2.78,1.66-2.85-.95-4.2-.56-5.74,2.29-.96,1.78-1.53,3.77-2.27,5.66-1.09,2.78-.71,5.4,1.42,7.44,2.21,2.1,5.1,2.18,7.86,1.4,6.92-1.94,10.28-7.56,13.02-13.48,3.39-7.32,3.47-15.16,2.1-22.94-.77-4.38-2.08-8.76-6.94-11.07ZM52.63,160.3c-5.94,0-11.76-.32-17.51.13-2.98.24-6.16,1.36-8.68,2.97-3.12,2-4.56,6.88,1.07,9.04,7.22,2.78,13.84,1.59,20.22-2.32,3.53-2.16,5.62-5.1,4.91-9.83ZM44.68,20.2c-4.04-5.07-1.64-10.36-.61-15.92-7.49,9.07-10.97,19.06-8.57,24.53,3.05-2.86,6.05-5.67,9.18-8.61ZM27.24,160.41c-2.38-.4-5.11-.95-7.86-1.26-.74-.08-2.07.4-2.25.92-.43,1.26-.89,2.99-.36,4.01,1.15,2.21,3.33,3.11,4.96,2.8,2.23-2.61,3.92-4.6,5.51-6.46Z"/><path class="cls-2" d="M34.66,157.59c1.97-2.85,4.78-5.88,6.4-9.45,4.12-9.06,4.51-18.3-.22-27.43-5.5-10.62-19.12-11.17-26.49-2.66-6.65,7.68-8.52,16.59-6.83,26.42.06.35,0,.72-.4,1.24-.52-1.19-1.2-2.33-1.54-3.57-2.17-7.8-3.63-15.72-3.47-23.84.27-13.44,3.43-26.2,11.75-36.89,6.62-8.51,10.04-18.01,12.86-28.18,5.31-19.18,17.58-31.97,37.13-37.12,5.98-1.58,11.79-.72,17.18,2.4,5.37,3.11,5.57,8.13,4.83,13.47-3.81-.83-5.85,0-7.96,3.4-2.43,3.91-3.62,8.15-3.3,12.79.32,4.69,5.84,9.18,10.47,8.4,1.84-.31,3.64-.86,5.9-1.41-.38,2.87-.49,5.77-1.19,8.52-1.88,7.35-.96,14.45,1.79,21.3,3.67,9.14,4.89,18.64,4.18,28.3-.52,7.02-1.61,14.09-3.36,20.9-2.61,10.17-10.44,15.68-19.61,19.55-6.16,2.59-12.56,4.01-19.29,3.89-6.46-.11-12.92-.02-18.82-.02ZM92.2,93.41c-.22-1.79-.27-3.97-.77-6.03-1.4-5.77-4.12-7.94-9.81-8.82-4.51-.7-6.52.94-8.87,6.4-.14.32-.3.66-.34,1-.56,4.96-.95,9.95-1.7,14.89-.46,3.05-1.02,6.25-2.43,8.91-.68,1.28-3.45,1.39-5.22,2.15-4.71,2-9.09,4.28-10.45,9.94-.57,2.39.17,3.89,2.16,4.81,1.18.55,2.56.83,3.87.88,9.83.39,17.66-4.24,24.5-10.57,6.64-6.15,8.44-14.48,9.05-23.55ZM55.5,44.53c.51-9.31-7.2-13.45-13.93-10.51-8.03,3.51-13.78,11.85-11.6,21.82,1.31,5.99,7.15,8.99,12.48,7.5,7.53-2.11,13.4-11.59,13.06-18.81ZM38.6,79.34c.01-3.1-3.08-6.83-6.09-7.36-2.66-.47-4.43.77-4.25,2.97.22,2.73,3.56,6.62,6.33,7.37,2.49.67,4-.45,4.01-2.98Z"/><path class="cls-2" d="M9.12,137.3c.22-6.23,1.87-11.86,6.13-16.7,6.94-7.87,20.03-7.1,24.27,5.54,3.58,10.68-.29,23.37-9.27,30.15-3.28,2.48-5.64.99-8.51.77-4.58-.36-7.56-2.73-9.37-6.87-1.8-4.12-3.52-8.23-3.26-12.88Z"/><path class="cls-2" d="M95.3,5.1c4.86,2.3,6.17,6.69,6.94,11.07,1.37,7.78,1.29,15.62-2.1,22.94-2.74,5.92-6.11,11.54-13.02,13.48-2.76.77-5.65.7-7.86-1.4-2.14-2.03-2.52-4.66-1.42-7.44.75-1.89,1.31-3.88,2.27-5.66,1.54-2.85,2.89-3.24,5.74-2.29,1.05-.62,1.91-1.15,2.78-1.66,3.95-2.28,6.23-5.88,6.56-10.22.43-5.7.11-11.45.12-17.18,0-.51,0-1.02,0-1.65Z"/><path class="cls-2" d="M52.63,160.3c.72,4.73-1.38,7.67-4.91,9.83-6.37,3.91-13,5.09-20.22,2.32-5.63-2.17-4.19-7.04-1.07-9.04,2.52-1.62,5.7-2.74,8.68-2.97,5.76-.46,11.57-.13,17.51-.13Z"/><path class="cls-2" d="M44.68,20.2c-3.14,2.94-6.14,5.75-9.18,8.61-2.4-5.47,1.08-15.46,8.57-24.53-1.02,5.56-3.43,10.85.61,15.92Z"/><path class="cls-2" d="M27.24,160.41c-1.59,1.86-3.28,3.85-5.51,6.46-1.63.31-3.81-.58-4.96-2.8-.53-1.03-.07-2.75.36-4.01.18-.52,1.51-1,2.25-.92,2.75.31,5.48.86,7.86,1.26Z"/><path class="cls-1" d="M92.2,93.41c-.61,9.07-2.41,17.4-9.05,23.55-6.83,6.33-14.67,10.95-24.5,10.57-1.31-.05-2.69-.34-3.87-.88-1.99-.92-2.73-2.43-2.16-4.81,1.36-5.66,5.73-7.94,10.45-9.94,1.78-.75,4.55-.87,5.22-2.15,1.41-2.66,1.96-5.86,2.43-8.91.75-4.93,1.14-9.92,1.7-14.89.04-.34.2-.68.34-1,2.35-5.46,4.36-7.09,8.87-6.4,5.68.88,8.41,3.05,9.81,8.82.5,2.07.55,4.25.77,6.03ZM70.52,111.44c-2.3.86-4.57,1.61-6.76,2.54-3.49,1.48-6.77,3.27-8.77,6.74-1.82,3.14-.77,4.98,2.83,5.25,3.96.3,7.63-.56,11.15-2.27,7.32-3.56,14.02-7.92,17.02-15.94,1.42-3.79,2.05-7.87,2.98-11.83.93-3.96-.02-7.73-1.97-11.08-2.47-4.24-9.54-4.05-11.52.39-1.38,3.1-2.12,6.61-2.45,10.01-.48,4.97-.43,9.97-3.1,14.45-.16.27.29.92.59,1.74Z"/><path class="cls-1" d="M55.5,44.53c.34,7.22-5.53,16.71-13.06,18.81-5.33,1.49-11.17-1.51-12.48-7.5-2.17-9.97,3.57-18.32,11.6-21.82,6.73-2.94,14.44,1.2,13.93,10.51ZM53.33,45.38c0-8.03-5.99-12.11-13.3-8.6-5.77,2.77-11.36,12.27-8.19,19.92,1.52,3.66,5.37,5.83,8.9,4.96,7.46-1.85,12.58-8.48,12.58-16.27Z"/><path class="cls-1" d="M38.6,79.34c0,2.53-1.52,3.65-4.01,2.98-2.77-.75-6.11-4.64-6.33-7.37-.17-2.2,1.59-3.43,4.25-2.97,3.01.53,6.1,4.26,6.09,7.36ZM31.8,73.38c-1.72-.14-2.74,1.19-1.66,2.76,1.22,1.76,2.98,3.26,4.77,4.5,1.39.96,2.79-.21,2.6-1.91-.27-2.38-3.21-5.13-5.7-5.34Z"/><path class="cls-2" d="M70.52,111.44c-.29-.82-.75-1.46-.59-1.74,2.67-4.49,2.63-9.48,3.1-14.45.33-3.4,1.07-6.91,2.45-10.01,1.97-4.44,9.04-4.63,11.52-.39,1.95,3.35,2.9,7.12,1.97,11.08-.93,3.96-1.56,8.05-2.98,11.83-3.01,8.02-9.7,12.39-17.02,15.94-3.52,1.71-7.19,2.56-11.15,2.27-3.6-.27-4.65-2.11-2.83-5.25,2-3.46,5.28-5.25,8.77-6.74,2.2-.93,4.47-1.69,6.76-2.54Z"/><path class="cls-2" d="M53.33,45.38c0,7.79-5.13,14.42-12.58,16.27-3.53.88-7.38-1.29-8.9-4.96-3.18-7.65,2.41-17.15,8.19-19.92,7.31-3.51,13.3.57,13.3,8.6ZM49.51,51.54c.02-3.37-2.03-5.86-5.05-5.7-4.19.22-7.19,3.14-7.45,7.31-.2,3.06,2.37,5.69,5.35,5.72,4.11.03,7.13-3.07,7.15-7.33Z"/><path class="cls-2" d="M31.8,73.38c2.49.21,5.43,2.96,5.7,5.34.19,1.7-1.21,2.87-2.6,1.91-1.78-1.24-3.55-2.73-4.77-4.5-1.08-1.56-.06-2.9,1.66-2.76Z"/><path class="cls-1" d="M49.51,51.54c-.02,4.26-3.04,7.36-7.15,7.33-2.99-.02-5.55-2.66-5.35-5.72.27-4.17,3.26-7.1,7.45-7.31,3.02-.16,5.07,2.33,5.05,5.7Z"/></svg>