<?xml version="1.0" encoding="UTF-8"?><svg id="Calque_1" xmlns="http://www.w3.org/2000/svg" viewBox="0 0 242.18 187.44"><defs><style>.cls-1{fill:#000;}.cls-1,.cls-2{stroke-width:0px;}.cls-2{fill:#fff;}</style></defs><path class="cls-1" d="M123,67.16c1.16-2.7,2.32-5.4,3.69-8.59,2.54-.8,3.79.94,4.17,7.35,10.53-5.34,21.58-7.83,33.33-6.82.36,2.36.07,2.43-1.83,3.17-3.81,1.49-7.53,3.23-11.22,5-.81.39-1.35,1.34-2.11,2.14,5.99-.22,11.67-.53,17.36-.61,4.79-.07,9.17,1.39,13,4.3.66.5.91,1.53,1.34,2.32-.75.33-1.48.83-2.26.95-4.55.72-9.05,1.55-13.16,4.17,8.83,1.46,17.24,3.39,24.54,8.52,3.17,2.23,3.29,3.46.65,5.7,10.72,3.57,16.22,8.5,15.2,13.69,7.73,5.31,16.78,9.5,17.97,21.24.95-1.1,1.65-1.87,2.31-2.68,4.32-5.3,5.81-11.61,6.13-18.23.22-4.62.21-9.27.01-13.9-.44-10.54-.94-21.09-1.65-31.62-.53-7.88-1.41-15.74-2.14-23.61-.17-1.79-.13-3.64-.63-5.33-.35-1.18-1.22-2.6-2.26-3.12-5.72-2.9-8.7-7.88-10.62-13.62-.92-2.76.98-4.91,3.95-4.96.9-.02,1.79,0,2.96,0,0-2.11,0-4.49,0-6.87-.01-2.25.21-4.38,2.72-5.33,2.59-.98,4.79-.08,6.65,1.64,5.68,5.27,7.24,11.65,4.95,19.04-1.69,5.44-1.48,10.98-.7,16.55.99,7.09,1.91,14.19,2.79,21.3,1.3,10.49,3.03,20.96,3.7,31.49.98,15.59.28,31.11-6.55,45.63-.98,2.09-2.4,4-3.77,5.87-3.24,4.43-6.58,4.45-10.01.08-.7,1.74-1.29,3.48-2.08,5.12-2.49,5.2-7.04,7.44-12.43,8.26-.71.11-2.01-.35-2.17-.83-.24-.7.15-1.76.55-2.52.96-1.83,2.09-3.57,2.75-5.73-8.54,6.17-17.09,12.15-27.35,14.49-10.09,2.3-20.35,3.84-30.77,5.77v6.34c.69-.18,1.25-.38,1.83-.48,5.42-.96,8.77,3.34,6.98,8.82-1.38,4.2-4.76,6.07-8.6,6.19-3.57.11-7.22-.96-10.77-1.77-1.88-.43-2.61-2.2-2.04-3.88,1.65-4.88,1.04-9.72.34-14.43-4.87,0-9.66.06-14.44-.02-4.9-.07-9.79-.2-14.68-.44-1.99-.1-3.12.26-2.95,2.61.29,3.98.27,7.98.6,11.95.28,3.41-.32,4.74-3.77,4.77-5.65.05-11.22-.71-14.72-6.07-1.35-2.06-1.84-4.41-.6-6.64,1.27-2.28,3.44-3.35,6.09-3.33.81,0,1.61,0,2.51,0v-3.7c-6.39-.41-12.72-.56-18.99-1.27-14.26-1.6-27.47-5.71-37.43-16.94-.24-.27-.53-.48-.78-.71-.17.09-.38.13-.42.24-.44,1.11-.85,2.24-1.27,3.36-1-.76-2.34-1.33-2.93-2.33-1.53-2.58-2.73-5.36-4.15-8.24-.23.1-.92.4-1.61.71-4.26,1.9-7.68,1.46-10.75-2.02C8.81,129.5,2.16,118.68.48,105.41c-.9-7.11-.43-14.17.44-21.26.94-7.74,1.84-15.51,2.14-23.29.15-3.84-.73-7.84-1.8-11.59-1.52-5.34-1.02-10.06,2.43-14.45,1.73-2.21,4.51-3.47,6.61-2.49,2.21,1.03,2.87,3.06,2.71,5.43-.09,1.35-.02,2.71-.02,4.11,4.26-1.11,6.81.65,5.47,5.61-.87,3.22-3.98,6.66-6.83,7.3-.27,2.59-.66,5.17-.8,7.76-.42,8.02-1.26,16.07-.99,24.07.33,9.88.51,19.92,5.25,29.09,2.56,4.94,6.01,8.42,10.86,10.24,3.02-8.15,10.4-11.35,17.35-15.1,3.42-1.84,6.76-3.81,10.68-6.02-5.61-2.21-7.82-1.42-16.94,5.66.11-1.57-.05-2.69.3-3.62,1.7-4.55,4.02-8.67,7.29-12.41,2.89-3.3,4.98-7.3,7.65-11.33.16.25.84.85.99,1.57.7,3.36,6.37,7.82,9.77,7.46.55-.06,1.15-.52,1.54-.97,2.73-3.17,1.84-6.14-2.05-7.41-1.25-.41-2.35-1.3-3.34-2.42,4.89-1.38,9.65-1.79,14.27-.51,2.08.58,3.84,2.34,6.05,3.77,1.99-2.47,4.29-5.81,7.1-8.65,2.94-2.98,6.09-5.93,9.64-8.1,4.55-2.79,6.12-1.62,5.76,3.67,2.77-.76,4.47-2.75,5.04-5.13.5-2.13-.09-4.52-.22-7.09,4.71-2.66,12.29.8,16.15,7.85ZM52.62,87.56c-3.91,5.08-7.74,10.07-11.58,15.06.22.2.45.41.67.61,3.89-2.45,7.98-3.66,12.53-2.29,3.23.97,3.96,3.36,1.62,5.86-1.16,1.24-2.45,2.49-3.93,3.29-5.05,2.74-10.24,5.22-15.31,7.92-1.59.84-2.98,2.06-4.92,3.43,1.7.2,2.65.31,4.03.47-.49,1.21-.68,2.3-1.29,3.05-1.59,1.97-3.48,3.7-5.02,5.7-1.12,1.45-1.87,3.19-2.79,4.8.24.14.48.28.71.41,1.01-.54,1.96-1.24,3.03-1.58,1.66-.54,3.22.71,2.7,2.22-1.59,4.61,1.11,7.99,2.95,12.08.66-2.5-1.9-5,.6-6.59,2.6,2.41,4.88,4.73,7.37,6.8,11.23,9.32,24.68,12.51,38.78,13.72,7.53.65,15.07,1.46,22.61,1.57,10.77.15,21.58.08,32.33-.56,10.37-.62,20.73-1.82,31.02-3.24,10.99-1.51,21.35-5.05,30.54-11.51,2.13-1.5,4.11-3.27,6.37-4.54,1.12-.63,2.75-.62,4.08-.44.33.04.69,1.94.54,2.91-.26,1.78-.89,3.51-1.42,5.45,4.4-1.45,7.72-3.8,9.44-8.18,1.66-4.25.64-8.3-1.28-12.87,2.08.49,3.36.78,5.23,1.22-.78-2.9-.93-5.96-2.34-8.25-5.06-8.2-12.47-13.37-21.92-15.57-.9-.21-1.7-.88-2.77-1.45,2.82-2.72,5.59-1.66,9.06-1.12-1.97-1.81-3.22-3.43-4.86-4.4-6.42-3.77-13.32-6.06-20.87-6.13-1.07-.01-2.14-.66-3.47-1.1,2.54-3.8,6.38-2.67,9.27-3.95-3.73-2.54-15.96-6.61-22.22-7.48-.67-.09-1.51-.58-1.8-1.13-.17-.33.44-1.39.95-1.69,2.23-1.31,4.5-2.61,6.87-3.63,2.27-.97,4.69-1.58,7.41-2.46-1.3-.57-2.24-1.07-3.23-1.42-7.67-2.64-15.47-1.48-23.26-.77-.72.07-1.48-.23-2.22-.36.16-.71.09-1.61.5-2.11,1.88-2.22,3.89-4.32,5.94-6.55-.8,0-1.65-.19-2.38.03-6.16,1.83-12.29,3.76-18.45,5.61-1.05.32-2.16.42-3.25.63-.17-1.19-.37-2.38-.49-3.58-.16-1.55-.26-3.12-.38-4.67l-.83-.04c.58,4.37-2.2,6.88-5.01,9.29-.66.57-1.99,1.03-2.66.73-.61-.27-.68-1.65-1.08-2.5-.66-1.38-1.06-3.19-2.16-3.96-1.91-1.33-4.28-2-6.67-3.04.4,4.87-.54,7.87-2.99,10.33-1.56,1.56-3.47,2.72-5.55,1.9-.91-.36-1.23-2.23-1.93-3.63-9.53,3.52-14.1,12.99-21.65,20.49-.82-7.06-5.01-8.45-10.67-7.83,2.43,3.19,1.08,6.23-.17,9.31-1.02,2.51-2.8,2.95-5.24,2.33-4.03-1.02-6.94-3.53-9.09-6.61ZM220.94,134.95c.15,1.12.04,1.78.32,2.12,1.31,1.61,2.47,3.64,4.19,4.53,1.9.99,4.11.16,5.3-1.97,1.78-3.19,3.82-6.29,5.14-9.67,5.05-12.98,4.94-26.55,3.79-40.12-.76-8.92-2.03-17.81-3.19-26.69-1.02-7.81-1.97-15.64-3.38-23.38-1.21-6.67-1.26-13.12.95-19.59,2.03-5.96.66-11.39-3.59-15.86-1.18-1.24-3.46-1.73-5.31-1.91-.62-.06-1.99,1.86-2.06,2.95-.25,3.51-1.08,7.17,1.34,10.42.62.84.74,2.05,1.1,3.09-1.52-.61-2.47-1.71-3.66-2.39-1.23-.7-2.69-.99-4.16-1.5-.63,4.99,3.91,11.75,9.2,14.36-.05-.72-.09-1.46-.14-2.2.28-.05.56-.1.84-.15.96,4.48,2.29,8.91,2.8,13.44.85,7.53,1.15,15.12,1.75,22.68.47,5.9,1.26,11.77,1.55,17.67.38,7.77.49,15.55.56,23.33.03,3.4.08,6.89-.62,10.19-1.01,4.78-2.75,9.33-5.55,13.5-1.16,1.73-1.36,4.02-4.02,3.86-.13,1.83-.24,3.42-.38,5.52-1.22-1-1.82-1.49-2.76-2.25ZM27.67,127.76c-6.12.04-9.65-3.12-12.39-7.33-3.6-5.52-6.13-11.51-6.64-18.16-.47-6.2-1.1-12.43-.98-18.63.15-7.73.96-15.44,1.55-23.16.24-3.08.68-6.14,1.07-9.64.7,1.25,1.11,1.98,2,3.57,1.79-2.98,3.35-5.3,4.61-7.78.98-1.92-.14-2.89-1.98-2.37-2.16.61-4.18,1.68-6.27,2.56.36-.68.68-1.84,1.42-2.56,2.01-1.94,2.02-4.35,1.8-6.76-.23-2.65-2.16-4.15-4-3.38-3.2,1.35-6.27,7.71-5.46,11.15,1.17,4.95,2.9,9.81,2.44,15.05-.31,3.49-.28,7.02-.6,10.51-.46,5.08-1.06,10.16-1.66,15.23-.96,8.1-.74,16.13.85,24.15,1.96,9.91,7.22,18.02,13.62,25.5,2.16,2.53,4.88,4.33,8.77,3.81-2.71-4.38-1.3-7.99,1.85-11.76ZM140.83,166.89c-.29,5.23-.59,10-.74,14.77-.02.51.81,1.26,1.41,1.53.78.36,1.72.41,2.61.51,3.56.37,7.11.17,10-2.1,1.1-.87,1.79-2.64,1.98-4.09.06-.49-1.92-1.58-3.09-1.82-2.24-.46-4.56-.5-6.31-.66.18-2.7.36-5.55.58-8.83-2.48.27-4.49.49-6.43.7ZM98.17,173.39c-1.49-.15-3.2-.65-4.8-.4-1.37.21-3.04.99-3.76,2.07-.46.69.21,2.69.98,3.56,3.24,3.67,7.57,4.33,12.33,4.02v-15.65c-1.72-.1-3.74-.22-6.39-.38.58,2.4,1.1,4.54,1.65,6.78Z"/><path class="cls-2" d="M52.62,87.56c2.16,3.08,5.06,5.58,9.09,6.61,2.44.62,4.22.18,5.24-2.33,1.25-3.08,2.61-6.13.17-9.31,5.66-.62,9.84.77,10.67,7.83,7.56-7.49,12.13-16.97,21.65-20.49.7,1.4,1.02,3.27,1.93,3.63,2.08.82,3.99-.34,5.55-1.9,2.45-2.45,3.39-5.46,2.99-10.33,2.4,1.04,4.76,1.71,6.67,3.04,1.11.77,1.51,2.59,2.16,3.96.4.85.48,2.24,1.08,2.5.67.29,2-.16,2.66-.73,2.8-2.41,5.59-4.92,5.01-9.29l.83.04c.12,1.56.22,3.12.38,4.67.12,1.2.32,2.39.49,3.58,1.08-.2,2.2-.31,3.25-.63,6.15-1.85,12.29-3.78,18.45-5.61.73-.22,1.58-.03,2.38-.03-2.05,2.23-4.06,4.34-5.94,6.55-.42.49-.35,1.39-.5,2.11.74.13,1.5.42,2.22.36,7.79-.7,15.59-1.86,23.26.77.99.34,1.93.84,3.23,1.42-2.72.89-5.14,1.5-7.41,2.46-2.38,1.01-4.64,2.32-6.87,3.63-.51.3-1.12,1.36-.95,1.69.29.55,1.13,1.03,1.8,1.13,6.27.87,18.49,4.94,22.22,7.48-2.89,1.28-6.73.15-9.27,3.95,1.33.44,2.4,1.09,3.47,1.1,7.55.07,14.45,2.36,20.87,6.13,1.64.96,2.9,2.59,4.86,4.4-3.47-.54-6.24-1.6-9.06,1.12,1.07.57,1.86,1.24,2.77,1.45,9.45,2.2,16.87,7.37,21.92,15.57,1.41,2.29,1.56,5.35,2.34,8.25-1.88-.44-3.15-.74-5.23-1.22,1.92,4.58,2.94,8.63,1.28,12.87-1.72,4.38-5.04,6.73-9.44,8.18.53-1.94,1.16-3.67,1.42-5.45.14-.97-.22-2.87-.54-2.91-1.34-.18-2.96-.19-4.08.44-2.26,1.27-4.23,3.04-6.37,4.54-9.19,6.47-19.55,10-30.54,11.51-10.3,1.42-20.65,2.62-31.02,3.24-10.75.64-21.56.71-32.33.56-7.54-.11-15.08-.92-22.61-1.57-14.1-1.21-27.55-4.4-38.78-13.72-2.49-2.07-4.77-4.39-7.37-6.8-2.5,1.59.05,4.09-.6,6.59-1.84-4.09-4.54-7.47-2.95-12.08.52-1.51-1.04-2.76-2.7-2.22-1.07.35-2.03,1.04-3.03,1.58-.24-.14-.48-.28-.71-.41.92-1.61,1.67-3.34,2.79-4.8,1.54-2,3.43-3.73,5.02-5.7.61-.75.8-1.85,1.29-3.05-1.38-.16-2.33-.27-4.03-.47,1.94-1.37,3.33-2.58,4.92-3.43,5.07-2.7,10.26-5.18,15.31-7.92,1.47-.8,2.77-2.05,3.93-3.29,2.34-2.5,1.61-4.89-1.62-5.86-4.55-1.37-8.64-.16-12.53,2.29-.22-.2-.45-.41-.67-.61,3.84-4.99,7.68-9.98,11.58-15.06ZM187.72,131.43v12.98c2.88-5.38,4.28-10.36,3.45-15.73-.42-2.76-2.66-4.2-5.53-3.89.88,1.55,1.72,3.03,2.73,4.8-3.07,1.47-5.73,2.96-8.53,4.05-11.48,4.44-23.67,5.2-35.68,5.28-20.24.12-40.54,1.54-60.73-1.42-8.21-1.2-15.48-4.54-22.53-9.05.8-.96,1.57-1.83,2.28-2.74.38-.49.64-1.06.96-1.59-.68-.1-1.4-.36-2.04-.24-.65.12-1.31.51-1.82.96-4.06,3.59-4.31,12.35-.47,16.54v-8.64c.85.56,1.2.77,1.54,1.01,4.1,2.88,8.03,6.06,12.34,8.58,9.42,5.52,20.05,6.31,30.56,6.38,10.29.07,20.63-.48,30.86-1.57,9.84-1.05,19.62-2.91,29.35-4.84,8.45-1.68,16.79-3.94,23.26-10.85ZM96.63,106.06c6.1-.51,10.91-.69,14.57-4.39,2.44-2.47,1.98-4.8-1.11-6.46-3.54-1.9-7.4-1.63-11.1-1.23-3.55.39-7.26,1.02-10.03,3.78-2.51,2.5-2.27,4.81,1.01,6.26,2.48,1.09,5.21,1.61,6.67,2.04ZM145.72,92.96c-2.6.58-4.55.85-6.39,1.45-3.65,1.21-4.35,4.59-1.28,6.91,5.24,3.97,11.13,4.99,17.27,2.42,1.34-.56,2.96-2.42,2.95-3.67,0-1.38-1.46-3.4-2.79-3.99-3.27-1.45-6.84-2.23-9.77-3.13ZM84.66,86.43c.12.11.25.21.37.32h21.04c.15-.29.3-.58.45-.88-.93-.61-1.82-1.67-2.78-1.75-3.04-.23-6.15-.39-9.15,0-3.35.44-6.62,1.51-9.92,2.31ZM137.77,70.32c-4.69,1.78-7.34,5.49-9.08,9.86-.55,1.39-.49,3.28,1.86,3.85,1.28-5.2,3.11-10.02,7.21-13.71ZM70.58,98.72c.89-.34,1.76-.78,2.68-1.02,3.7-.95,7.42-1.81,11.12-2.79.59-.16,1.07-.72,1.6-1.1-.64-.35-1.27-.98-1.91-.99-1.13-.03-2.31.21-3.41.52-3.71,1.06-7.41,2.2-10.07,5.38ZM82.54,111.03c-4.88-1.07-10.86,4.72-10.48,8.33,3.33-2.65,6.91-5.49,10.48-8.33ZM170.88,90.95c-.01-.28-.03-.55-.04-.83-4.17.58-8.34,1.11-12.49,1.79-.48.08-.82.98-1.22,1.5.65.31,1.4,1.02,1.94.88,3.96-1.02,7.88-2.21,11.81-3.35ZM105.65,122.81c-.2-.28-.41-.57-.61-.85-2.87-.51-7.2,4.14-7.83,8.91,3.05-2.91,5.75-5.48,8.45-8.06ZM73.8,102.47c-4.92-.82-12.75,3.61-13.64,7.21,3.5-3.96,9.23-3.65,13.64-7.21ZM205.87,120.03c-3.31-3.74-6.63-7.62-12.07-8.27-.22.33-.44.66-.66.99,4.24,2.43,8.48,4.85,12.73,7.28ZM200.96,124.53c4.06,3.76,7.81,7.24,11.36,10.53-.87-4.28-7.42-10.74-11.36-10.53ZM114.36,91.72c1.68,2.77,3.19,5.26,4.78,7.87,3.32-3.92,1.85-6.23-4.78-7.87ZM142.28,86.99c4.14,1.73,7.93-1.02,11.95-1.15-4.07-1.08-8.07-.95-11.95,1.15ZM105.71,78.32c3.62,1.38,7.51,2.86,11.26,4.29.33-3.33-5.52-5.72-11.26-4.29ZM123.88,99.37c.25-.12.51-.24.76-.36l3.66-6.62c-.16-.21-.31-.43-.47-.64-1.73,1.32-3.68,2.46-5.05,4.08-.43.51.69,2.33,1.1,3.55ZM137.5,85.18c3.42-3.08,6.84-6.17,10.71-9.66-4.96,2.39-9.39,4.44-10.71,9.66ZM157.14,122.49c-.42-4.52-1.13-8.94-4.43-12.33-.28.11-.56.22-.84.33l5.26,12ZM100.33,115.75c6.12-.72,6.32-.84,6.21-3.67-3.21-.41-5.41.9-6.21,3.67ZM49.13,123.47c-3.49.26-7.96,5.15-8.35,7.21,1.86-1.61,4.98-4.3,8.35-7.21ZM122.29,84.15v-10.75c-2.64,2.48-2.78,8.21,0,10.75ZM51.04,119.92c1.41-.85,2.8-1.74,4.23-2.54.91-.51,1.94-.83,2.82-1.39.31-.2.54-.96.4-1.28-.13-.29-.84-.51-1.26-.45-2.44.35-5.47,3.16-6.2,5.66ZM113.22,109.77c3.81-1.43,6.65-4.98,6.12-7.7-2.2,2.77-4.16,5.24-6.12,7.7ZM170.37,115.36c1.67,3.21,3.15,6.07,4.94,9.5-.41-5.4-2.34-9.25-4.94-9.5ZM128.83,155.41c-.46-.13-.92-.25-1.37-.38-2.17,2.17-.56,4.98-1.13,7.41.3.06.6.12.91.19.53-2.41,1.06-4.81,1.6-7.22ZM132.49,108.5c-1.79-2.06-3.58-4.12-5.37-6.18l-.86.78c.93,2.89,3.66,4.06,6.23,5.4ZM121.03,124.54c1.74-2.8,3.13-5.05,4.75-7.66-2.66.33-4.56,3.63-4.75,7.66ZM147.74,122.74c.62-6.07.38-6.73-2.6-6.87.91,2.42,1.75,4.64,2.6,6.87ZM83.91,158.71c-.36-1.97-.7-3.87-1.08-5.9-1.77-.29-1.84,1.08-1.66,2.34.28,1.86.72,3.74,2.73,3.56ZM90.42,123.28c.13.17.27.34.4.5,1.64-.6,3.32-1.13,4.91-1.85.5-.22.77-.96,1.14-1.46-.64-.1-1.45-.5-1.9-.25-1.59.9-3.05,2.02-4.56,3.05ZM169.97,105.99l-.68.99c1.91,1.42,3.81,2.84,5.72,4.26.17-.23.34-.46.51-.69-1.95-1.39-2.87-4.12-5.54-4.57ZM84.82,125.89c-2.96-.32-3.86,1.24-3.47,5.41,1.17-1.83,2.21-3.44,3.47-5.41ZM168.08,99.55c-.09.5-.19.99-.28,1.49,2.42.35,4.84.69,7.26,1.04.06-.3.13-.6.19-.9-2.39-.54-4.78-1.09-7.17-1.63ZM180.33,103.89c-.25.38-.5.76-.75,1.14,2.15,1.3,4.3,2.61,6.44,3.91.16-.25.32-.49.48-.74-2.06-1.44-4.12-2.88-6.18-4.32ZM42.78,139.83c1.29-2.34,2.59-4.69,3.88-7.03-3.28,1.2-3.42,4.18-3.88,7.03ZM124.03,102.94c-1.94,1.27-2.71,6.04-1.6,8.16.55-2.78,1.02-5.16,1.6-8.16ZM172.05,149.69c-1.1,2.62-2.06,4.9-3.12,7.42,3.49-3.02,4.52-5.28,3.12-7.42ZM71.27,150.18c-.55.55-1.53,1.22-1.43,1.49.68,1.84.81,4.23,3.35,4.51-.6-1.87-1.19-3.74-1.92-6ZM92.85,111.22c-2.93-1.12-4.96.16-5.44,2.55,1.82-.85,3.63-1.7,5.44-2.55ZM109.22,129.67c-.31-.13-.61-.25-.92-.38-2.27,1.23-1.89,3.51-2.08,5.56.22.09.45.18.67.27.78-1.82,1.55-3.64,2.33-5.45ZM179.42,152.56l.83.33c.59-1.57,1.26-3.13,1.69-4.74.11-.41-.53-1.03-1.1-2.04-.58,2.64-1,4.55-1.43,6.45ZM80.8,122.61c-3.18-.23-4.27,1.1-4.36,4.58,1.41-1.49,2.65-2.78,4.36-4.58ZM57.51,152.06v-5.88c-1.97,1.3-1.93,3.11,0,5.88ZM135.8,154.95c-2.78.59-2.92,1.58-.85,5.28.32-1.98.57-3.56.85-5.28ZM152.64,159.43c.21.19.41.37.62.56,1.31-1.48,2.61-2.97,3.92-4.45-.24-.22-.49-.43-.73-.65-2.4.49-2.55,3.02-3.81,4.54ZM100.14,161.14c.25-.07.51-.15.76-.22-.43-2.03-.86-4.07-1.29-6.1l-1.31.36c.61,1.99,1.23,3.98,1.84,5.97Z"/><path class="cls-2" d="M220.94,134.95c.94.76,1.54,1.26,2.76,2.25.15-2.1.26-3.69.38-5.52,2.66.16,2.86-2.13,4.02-3.86,2.81-4.17,4.55-8.73,5.55-13.5.7-3.29.65-6.78.62-10.19-.07-7.78-.18-15.56-.56-23.33-.29-5.9-1.08-11.78-1.55-17.67-.61-7.56-.9-15.15-1.75-22.68-.51-4.53-1.84-8.96-2.8-13.44-.28.05-.56.1-.84.15.05.74.09,1.48.14,2.2-5.29-2.62-9.82-9.38-9.2-14.36,1.47.51,2.93.8,4.16,1.5,1.19.68,2.14,1.78,3.66,2.39-.35-1.04-.47-2.25-1.1-3.09-2.41-3.25-1.58-6.91-1.34-10.42.08-1.08,1.44-3.01,2.06-2.95,1.84.18,4.12.66,5.31,1.91,4.25,4.47,5.61,9.9,3.59,15.86-2.2,6.47-2.16,12.92-.95,19.59,1.41,7.74,2.36,15.57,3.38,23.38,1.16,8.89,2.44,17.77,3.19,26.69,1.15,13.57,1.26,27.14-3.79,40.12-1.31,3.38-3.36,6.48-5.14,9.67-1.18,2.12-3.39,2.96-5.3,1.97-1.72-.9-2.88-2.93-4.19-4.53-.28-.34-.17-1.01-.32-2.12Z"/><path class="cls-2" d="M27.67,127.76c-3.15,3.78-4.57,7.39-1.85,11.76-3.89.53-6.61-1.28-8.77-3.81-6.39-7.49-11.66-15.6-13.62-25.5-1.59-8.02-1.8-16.05-.85-24.15.6-5.07,1.2-10.14,1.66-15.23.32-3.49.29-7.02.6-10.51.46-5.24-1.27-10.09-2.44-15.05-.81-3.44,2.27-9.8,5.46-11.15,1.84-.78,3.77.72,4,3.38.21,2.41.2,4.82-1.8,6.76-.74.72-1.06,1.88-1.42,2.56,2.09-.88,4.12-1.95,6.27-2.56,1.84-.52,2.96.46,1.98,2.37-1.26,2.48-2.83,4.8-4.61,7.78-.89-1.59-1.3-2.32-2-3.57-.4,3.5-.83,6.56-1.07,9.64-.6,7.72-1.41,15.43-1.55,23.16-.12,6.2.51,12.43.98,18.63.51,6.65,3.04,12.63,6.64,18.16,2.74,4.21,6.27,7.37,12.39,7.33Z"/><path class="cls-2" d="M140.83,166.89c1.94-.21,3.96-.43,6.43-.7-.22,3.28-.4,6.14-.58,8.83,1.76.16,4.08.2,6.31.66,1.17.24,3.15,1.33,3.09,1.82-.19,1.45-.87,3.22-1.98,4.09-2.89,2.27-6.44,2.47-10,2.1-.88-.09-1.83-.15-2.61-.51-.6-.28-1.43-1.02-1.41-1.53.15-4.77.45-9.54.74-14.77Z"/><path class="cls-2" d="M98.17,173.39c-.54-2.25-1.06-4.39-1.65-6.78,2.65.16,4.67.28,6.39.38v15.65c-4.76.32-9.09-.35-12.33-4.02-.77-.87-1.44-2.87-.98-3.56.72-1.08,2.39-1.86,3.76-2.07,1.6-.25,3.32.25,4.8.4Z"/><path class="cls-1" d="M187.72,131.43c-6.47,6.92-14.82,9.17-23.26,10.85-9.72,1.94-19.5,3.79-29.35,4.84-10.23,1.09-20.57,1.64-30.86,1.57-10.52-.07-21.15-.87-30.56-6.38-4.31-2.52-8.24-5.7-12.34-8.58-.34-.24-.68-.45-1.54-1.01v8.64c-3.83-4.19-3.58-12.96.47-16.54.51-.45,1.17-.84,1.82-.96.64-.12,1.36.15,2.04.24-.32.53-.58,1.1-.96,1.59-.71.91-1.47,1.78-2.28,2.74,7.04,4.52,14.32,7.85,22.53,9.05,20.19,2.96,40.49,1.54,60.73,1.42,12.01-.07,24.2-.84,35.68-5.28,2.81-1.09,5.46-2.58,8.53-4.05-1-1.76-1.84-3.24-2.73-4.8,2.87-.31,5.1,1.13,5.53,3.89.83,5.38-.57,10.35-3.45,15.73v-12.98ZM72.77,137.71c-.06.1-.11.2-.17.3,2.82,1.28,5.56,2.75,8.46,3.8,10.06,3.63,20.63,3.51,31.11,3.78,3.78.1,7.58-.3,11.36-.5,3.24-.17,6.48-.27,9.7-.59,6.31-.64,12.63-1.29,18.92-2.17,5.07-.71,10.1-1.77,15.14-2.68-.98-.53-1.89-.61-2.78-.51-4.82.51-9.62,1.33-14.44,1.53-9.6.38-19.21.42-28.81.61-.45,0-.9.09-1.36.09-8.41-.03-16.83,0-25.24-.14-2.41-.04-4.83-.46-7.22-.86-4.9-.83-9.79-1.76-14.68-2.65Z"/><path class="cls-1" d="M96.63,106.06c-1.46-.43-4.19-.95-6.67-2.04-3.28-1.44-3.52-3.76-1.01-6.26,2.77-2.76,6.48-3.39,10.03-3.78,3.69-.4,7.56-.67,11.1,1.23,3.09,1.66,3.55,3.99,1.11,6.46-3.66,3.7-8.47,3.89-14.57,4.39ZM97.78,95.36c-2.49,1.01-4.86,1.77-7.01,2.94-.9.49-1.94,1.91-1.83,2.76.12.92,1.4,2.15,2.39,2.41,2.22.58,4.58.64,6.45.87v-8.98ZM106.01,102.7c1.99-1.05,4.48-1.5,4.49-4.34,0-1.48-3-2.5-4.93-2.03.14,2.1.28,4.13.44,6.37Z"/><path class="cls-1" d="M145.72,92.96c2.93.89,6.5,1.68,9.77,3.13,1.33.59,2.78,2.61,2.79,3.99,0,1.25-1.62,3.11-2.95,3.67-6.14,2.57-12.03,1.55-17.27-2.42-3.07-2.32-2.37-5.71,1.28-6.91,1.84-.61,3.79-.88,6.39-1.45ZM150.59,95.83c-.35,2.59-.64,4.83-1.01,7.57,1.73-.45,3.62-.66,5.23-1.43,2.17-1.04,2.17-2.88.11-4.1-1.41-.84-2.99-1.42-4.33-2.04ZM143.87,94.9c-.63.18-1.34.27-1.95.57-1.57.77-4.18,1.43-4.4,2.51-.44,2.25,2.02,2.94,3.88,3.61.27.1.53.21.37.15.71-2.34,1.38-4.5,2.09-6.85Z"/><path class="cls-1" d="M84.66,86.43c3.3-.8,6.57-1.87,9.92-2.31,3.01-.39,6.11-.23,9.15,0,.97.07,1.86,1.14,2.78,1.75-.15.29-.3.58-.45.88h-21.04c-.12-.11-.25-.21-.37-.32Z"/><path class="cls-1" d="M137.77,70.32c-4.11,3.69-5.94,8.51-7.21,13.71-2.35-.57-2.41-2.47-1.86-3.85,1.74-4.37,4.39-8.09,9.08-9.86Z"/><path class="cls-1" d="M70.58,98.72c2.66-3.18,6.35-4.32,10.07-5.38,1.1-.32,2.28-.55,3.41-.52.64.02,1.27.64,1.91.99-.53.38-1.01.95-1.6,1.1-3.69.98-7.42,1.84-11.12,2.79-.92.24-1.79.67-2.68,1.02Z"/><path class="cls-1" d="M82.54,111.03c-3.57,2.84-7.14,5.68-10.48,8.33-.39-3.61,5.6-9.4,10.48-8.33Z"/><path class="cls-1" d="M170.88,90.95c-3.93,1.14-7.85,2.32-11.81,3.35-.54.14-1.29-.57-1.94-.88.4-.52.75-1.42,1.22-1.5,4.15-.68,8.32-1.22,12.49-1.79.01.28.03.55.04.83Z"/><path class="cls-1" d="M105.65,122.81c-2.7,2.58-5.4,5.15-8.45,8.06.63-4.77,4.96-9.42,7.83-8.91.2.28.41.57.61.85Z"/><path class="cls-1" d="M73.8,102.47c-4.4,3.55-10.14,3.25-13.64,7.21.89-3.6,8.72-8.03,13.64-7.21Z"/><path class="cls-1" d="M205.87,120.03c-4.24-2.43-8.48-4.85-12.73-7.28.22-.33.44-.66.66-.99,5.44.65,8.76,4.53,12.07,8.27Z"/><path class="cls-1" d="M200.96,124.53c3.94-.21,10.49,6.24,11.36,10.53-3.55-3.29-7.3-6.77-11.36-10.53Z"/><path class="cls-1" d="M114.36,91.72c6.62,1.63,8.1,3.95,4.78,7.87-1.58-2.61-3.1-5.1-4.78-7.87Z"/><path class="cls-1" d="M142.28,86.99c3.88-2.1,7.88-2.23,11.95-1.15-4.02.13-7.81,2.88-11.95,1.15Z"/><path class="cls-1" d="M105.71,78.32c5.74-1.43,11.58.95,11.26,4.29-3.75-1.43-7.64-2.91-11.26-4.29Z"/><path class="cls-1" d="M123.88,99.37c-.41-1.22-1.53-3.04-1.1-3.55,1.38-1.62,3.32-2.76,5.05-4.08.16.21.31.43.47.64l-3.66,6.62c-.25.12-.51.24-.76.36Z"/><path class="cls-1" d="M137.5,85.18c1.33-5.22,5.76-7.27,10.71-9.66-3.87,3.49-7.29,6.57-10.71,9.66Z"/><path class="cls-1" d="M157.14,122.49l-5.26-12c.28-.11.56-.22.84-.33,3.3,3.39,4.01,7.81,4.43,12.33Z"/><path class="cls-1" d="M100.33,115.75c.8-2.78,3.01-4.08,6.21-3.67.11,2.84-.09,2.96-6.21,3.67Z"/><path class="cls-1" d="M49.13,123.47c-3.37,2.91-6.49,5.6-8.35,7.21.39-2.06,4.86-6.95,8.35-7.21Z"/><path class="cls-1" d="M122.29,84.15c-2.78-2.54-2.64-8.27,0-10.75v10.75Z"/><path class="cls-1" d="M51.04,119.92c.73-2.49,3.76-5.31,6.2-5.66.41-.06,1.13.16,1.26.45.14.32-.09,1.08-.4,1.28-.88.56-1.91.87-2.82,1.39-1.44.8-2.83,1.69-4.24,2.54Z"/><path class="cls-1" d="M113.22,109.77c1.96-2.47,3.92-4.93,6.12-7.7.52,2.72-2.32,6.27-6.12,7.7Z"/><path class="cls-1" d="M170.37,115.36c2.6.25,4.53,4.1,4.94,9.5-1.78-3.43-3.27-6.29-4.94-9.5Z"/><path class="cls-1" d="M128.83,155.41c-.53,2.41-1.06,4.81-1.6,7.22-.3-.06-.6-.12-.91-.19.57-2.44-1.04-5.25,1.13-7.41.46.13.92.25,1.37.38Z"/><path class="cls-1" d="M132.49,108.5c-2.57-1.34-5.31-2.52-6.23-5.4l.86-.78c1.79,2.06,3.58,4.12,5.37,6.18Z"/><path class="cls-1" d="M121.03,124.54c.19-4.04,2.09-7.33,4.75-7.66-1.62,2.61-3.01,4.86-4.75,7.66Z"/><path class="cls-1" d="M147.74,122.74c-.84-2.22-1.68-4.45-2.6-6.87,2.98.14,3.21.8,2.6,6.87Z"/><path class="cls-1" d="M83.91,158.71c-2.01.19-2.46-1.7-2.73-3.56-.19-1.26-.11-2.63,1.66-2.34.37,2.03.72,3.93,1.08,5.9Z"/><path class="cls-1" d="M90.42,123.28c1.51-1.04,2.97-2.15,4.56-3.05.44-.25,1.25.15,1.9.25-.37.5-.64,1.23-1.14,1.46-1.59.72-3.27,1.25-4.91,1.85-.13-.17-.27-.34-.4-.5Z"/><path class="cls-1" d="M169.97,105.99c2.67.45,3.59,3.18,5.54,4.57-.17.23-.34.46-.51.69-1.91-1.42-3.81-2.84-5.72-4.26l.68-.99Z"/><path class="cls-1" d="M84.82,125.89c-1.26,1.97-2.3,3.58-3.47,5.41-.39-4.17.51-5.73,3.47-5.41Z"/><path class="cls-1" d="M168.08,99.55c2.39.54,4.78,1.09,7.17,1.63-.06.3-.13.6-.19.9-2.42-.35-4.84-.69-7.26-1.04.09-.5.19-.99.28-1.49Z"/><path class="cls-1" d="M180.33,103.89c2.06,1.44,4.12,2.88,6.18,4.32-.16.25-.32.49-.48.74-2.15-1.3-4.3-2.61-6.44-3.91.25-.38.5-.76.75-1.14Z"/><path class="cls-1" d="M42.78,139.83c.46-2.86.61-5.83,3.88-7.03-1.29,2.34-2.59,4.69-3.88,7.03Z"/><path class="cls-1" d="M124.03,102.94c-.59,3-1.06,5.38-1.6,8.16-1.1-2.12-.34-6.89,1.6-8.16Z"/><path class="cls-1" d="M172.05,149.69c1.41,2.14.37,4.4-3.12,7.42,1.06-2.53,2.02-4.8,3.12-7.42Z"/><path class="cls-1" d="M71.27,150.18c.72,2.26,1.32,4.13,1.92,6-2.54-.28-2.67-2.67-3.35-4.51-.1-.27.89-.94,1.43-1.49Z"/><path class="cls-1" d="M92.85,111.22c-1.81.85-3.62,1.69-5.44,2.55.48-2.39,2.51-3.67,5.44-2.55Z"/><path class="cls-1" d="M109.22,129.67c-.78,1.82-1.55,3.64-2.33,5.45-.22-.09-.45-.18-.67-.27.19-2.05-.19-4.33,2.08-5.56.31.13.61.25.92.38Z"/><path class="cls-1" d="M179.42,152.56c.42-1.91.84-3.81,1.43-6.45.57,1.01,1.21,1.63,1.1,2.04-.44,1.61-1.11,3.17-1.69,4.74l-.83-.33Z"/><path class="cls-1" d="M80.8,122.61c-1.71,1.8-2.95,3.1-4.36,4.58.09-3.48,1.18-4.81,4.36-4.58Z"/><path class="cls-1" d="M57.51,152.06c-1.93-2.77-1.97-4.58,0-5.88v5.88Z"/><path class="cls-1" d="M135.8,154.95c-.28,1.72-.53,3.3-.85,5.28-2.08-3.7-1.93-4.69.85-5.28Z"/><path class="cls-1" d="M152.64,159.43c1.26-1.52,1.41-4.05,3.81-4.54.24.22.49.43.73.65-1.31,1.48-2.61,2.97-3.92,4.45-.21-.19-.41-.37-.62-.56Z"/><path class="cls-1" d="M100.14,161.14c-.61-1.99-1.23-3.98-1.84-5.97l1.31-.36c.43,2.03.86,4.07,1.29,6.1-.25.07-.51.15-.76.22Z"/><path class="cls-2" d="M72.77,137.71c4.89.89,9.78,1.82,14.68,2.65,2.39.4,4.81.82,7.22.86,8.41.14,16.83.11,25.24.14.45,0,.9-.08,1.36-.09,9.61-.19,19.22-.23,28.81-.61,4.83-.19,9.63-1.02,14.44-1.53.89-.09,1.8-.01,2.78.51-5.05.91-10.07,1.97-15.14,2.68-6.28.88-12.6,1.53-18.92,2.17-3.22.33-6.47.42-9.7.59-3.79.2-7.58.6-11.36.5-10.48-.28-21.05-.15-31.11-3.78-2.9-1.05-5.65-2.52-8.46-3.8.06-.1.11-.2.17-.3Z"/><path class="cls-2" d="M97.78,95.36v8.98c-1.87-.22-4.23-.29-6.45-.87-.99-.26-2.26-1.48-2.39-2.41-.12-.85.92-2.28,1.83-2.76,2.15-1.17,4.53-1.93,7.01-2.94Z"/><path class="cls-2" d="M106.01,102.7c-.15-2.24-.29-4.28-.44-6.37,1.93-.46,4.94.56,4.93,2.03-.02,2.84-2.5,3.29-4.49,4.34Z"/><path class="cls-2" d="M150.59,95.83c1.35.62,2.92,1.2,4.33,2.04,2.06,1.22,2.06,3.06-.11,4.1-1.62.77-3.5.98-5.23,1.43.37-2.75.66-4.98,1.01-7.57Z"/><path class="cls-2" d="M143.87,94.9c-.72,2.34-1.38,4.51-2.09,6.85.15.06-.11-.06-.37-.15-1.86-.67-4.32-1.36-3.88-3.61.21-1.09,2.83-1.74,4.4-2.51.61-.3,1.33-.39,1.95-.57Z"/></svg>