<?xml version="1.0" encoding="UTF-8"?><svg id="Calque_1" xmlns="http://www.w3.org/2000/svg" viewBox="0 0 152.15 182.78"><defs><style>.cls-1{fill:#f0f0f1;}.cls-1,.cls-2,.cls-3,.cls-4,.cls-5,.cls-6{stroke-width:0px;}.cls-2{fill:#fcfcfc;}.cls-3{fill:#fdfdfd;}.cls-4{fill:#05050b;}.cls-5{fill:#fff;}.cls-6{fill:#05060c;}</style></defs><path class="cls-4" d="M47.5,182.31c-7.81-.02-15.58-.79-23.31-1.81-6.35-.84-12.74-1.72-18.74-4.25-.39-.17-.82-.17-1.2-.48-1.79-1.43-4.34-2.5-4.09-5.2.3-3.3,3.39-4.35,5.89-5.15,6.05-1.95,12.23-3.47,18.63-3.99,2.31-.19,4.68-.34,6.47-2.75,1.73-2.33,4.7-2.49,7.8-1.74-1.72-2.85-4.67-4.4-6.18-7.15-.3-.55-.73-1.03-1.06-1.56-.99-1.6-1.69-2.15-4.07-1.35-4.61,1.55-9.31-.18-13.73-1.89-5.95-2.29-8.67-7.42-10.49-12.97C1.37,125.78.08,119.38,0,112.71c-.1-8.75,2.83-16.47,7.07-23.86,1.37-2.39,2.87-4.69,4.9-6.6-7.74-6.47-5.16-15.81-.45-22.44,4.47-6.29,10.26-10.26,18.17-10.61,1.72-.08.94-1.39.84-1.97-1.28-7.56-.64-15.05,1.79-22.19,3.12-9.16,9-16.4,17.42-21.38.78-.46,1.82-1.58,2.83-.3.83,1.05-.28,1.76-.72,2.51-2.5,4.34-4.56,8.86-5.66,13.78-.64,2.85-.49,5.67.21,8.47.42,1.67,2.11.61,2.97,1.36.07-1.25,2.51-.13,2.02-2.17-.49-2.02.38-3.8,1.87-5.25,2.57-2.49,5.5-4.42,8.93-5.51.88-.28,1.6-.19,1.31-1.66-1.28-6.55,4.08-12.05,10.01-13.61,4.97-1.31,10.08-1.07,14.99.59,1,.34,1.39.47,1.7-.56.53-1.73,2-1.32,3.09-1.11,1.48.28,1.39,1.85.92,2.65-.83,1.42.18,1.64.92,2.15,2.11,1.46,4.38,2.62,6.48,4.13,1.37.98,2.2,2.31,3.56,3.78-.14-2.13-1.11-3.55-1.74-5.06-.37-.89-.66-1.68.13-2.47.89-.89,1.55.12,2.09.42,10.41,5.78,15.24,15.26,17.62,26.45,1.46,6.84-.81,13.07-2.75,19.78,2.43-1.98,4.7-3.56,7.67-3.99,3.99-.58,6.86.98,8.01,4.27,2.33,6.64,1.84,13.1-2.55,19.08,7.01,1.22,9.58,6.76,11.87,12.31,3.44,8.35,5.59,17.12,6.51,26.08.55,5.35-.89,10.66-2.7,15.69-2.29,6.38-5.43,12.34-10.87,16.73-4.68,3.77-9.81,6.07-16,4.64-.97-.23-1.58.24-2.07.92-2.2,3.04-4.66,5.87-7.94,8.97,5.59-.81,8.95,1.55,11.2,5.69.42.76.9.69,1.51.74,2.3.16,4.2,1.3,5.9,2.67,2.35,1.9,1.83,5.3-1.07,7.77-3.09,2.63-6.99,3.36-10.74,4.22-7.53,1.73-15.15,2.8-22.87,3.39-5.28.4-10.56.67-15.83,1.1-10.06.83-20.1.23-30.14.4-.92-.46-1.97,0-2.91-.39Z"/><path class="cls-3" d="M47.5,182.31c1-.11,1.99-.11,2.91.39-.98-.02-2.02.38-2.91-.39Z"/><path class="cls-5" d="M100.9,159.88c.32-7.18-1.13-13.99-3.81-20.53-2.79-6.8-7.09-12.4-14.68-13.68-7.45-1.26-14.57.59-20.54,5.43-5.65,4.57-9.75,10.25-11.32,17.57-.83,3.85-.32,7.48,1.35,11.45-6.32-2.7-11.67-6.05-15.86-10.95-4.58-5.35-8.3-11.27-10.54-18.03-.29-.89-.72-1.49.23-2.32,4.92-4.34,7.54-10.21,10.3-15.96,4.75-9.9,7.27-20.48,8.62-31.28.64-5.14.61-10.45-.52-15.6-.42-1.9-1.4-3.67-3.15-4.98,5.9-3.79,8.83-9.53,10.5-15.95.93-3.57.55-7.23-.62-10.78-.38-1.14-.19-2.08.67-3.26.96-1.32,1.47-1.22,2.9-1.03,2.45.32,4.87-.81,7.17-1.61,5.52-1.93,11.07-3.78,16.85-4.63,3-.44,6.13-.46,9.18.14.53.1,1.07.29,1.59.23,6.03-.64,9.95,3.23,14.16,6.53.8.63.66,1.1.36,2.02-3.06,9.36-.5,17.5,5.74,24.69,1.24,1.43,2.85,2.67,4.98,2.93-5.64,7.72-8.08,16.33-8.16,25.79-.11,12.84,2.61,24.84,9.86,35.6,2.51,3.73,5.43,7.04,9.65,8.98.47.21,1.72.13.92,1.58-6.18,11.11-13.45,21.2-24.87,27.56-.21.11-.5.06-.97.11Z"/><path class="cls-5" d="M77.54,165.24c-6.25.49-12.06-1.02-17.95-2.13-4.4-.83-5.75-3.41-6.8-7.55-2.68-10.63,8.96-26.15,20.65-26.92,6.44-.42,12.21.43,16.73,5.07,3.46,3.55,5.96,7.94,7.4,12.75,1.22,4.06,2.46,8.14,2.29,12.5-.06,1.5-.56,2.07-1.92,2.61-3.47,1.38-7.08,2.23-10.67,3.1-3.21.78-6.59.89-9.74.57Z"/><path class="cls-5" d="M49.31,6.56c-2.34,4.93-4.39,9.41-5.26,14.45-.62,3.6-.15,6.68,1.56,9.63,2.71,4.67,2.27,9.57,1.3,14.48-.78,3.92-2.94,7.24-5.42,10.3-1.69,2.08-2.99,2.05-4.53-.18-2.37-3.42-3.73-7.33-4.13-11.4-1.07-11.12,1.33-21.42,8.26-30.39,2.1-2.72,4.8-4.88,8.22-6.9Z"/><path class="cls-5" d="M16.34,80.88c-3.78.45-8.43-5.24-7.43-9.48,2.35-9.94,8.12-17.03,18.36-19.81,3.16-.86,4.07-.39,5.37,2.63.92,2.13,1.92,4.23,3.86,5.62.92.66.62,1.1,0,1.69-3.86,3.68-6.09,8.43-8.83,12.9-2.42,3.95-6.62,5.97-11.34,6.44Z"/><path class="cls-5" d="M107.76,10.45c14.28,10.75,18.65,33.5,6.45,45.85-5.31-5.62-9.02-11.84-8.44-19.97.17-2.37,1.04-4.58,1.98-6.54,2.94-6.16,1.81-12.13.08-18.19-.09-.32-.48-.56-.08-1.14Z"/><path class="cls-5" d="M65.43,15.74c-.11-7.5,5.67-8.95,11.16-10.74,6.46-2.1,12.79.03,15.97,5.79,1.39,2.51,2.3,5.33,2.49,8.3.04.56.26,1.18-.23,1.43-.32.16-.95-.12-1.36-.34-6.43-3.48-13.28-5.38-20.59-5.29-2.55.03-5.09.57-7.43.85Z"/><path class="cls-5" d="M46.39,171.89c-3.81-.55-7.8-.27-11.38-2.12-3.78-1.94-5.05-4.61-3.84-7.86,1.07-2.86,4.72-4.34,8.33-3.61,2.42.49,4.39,1.77,6.38,3.04,3,1.91,6.25,3.26,9.56,4.46,1.2.43,1.49.6.53,1.71-2.55,2.95-5.53,4.75-9.59,4.38Z"/><path class="cls-5" d="M21.95,127.24c-8.87.28-10.75-6.55-10.62-13.14.21-10.66,6.37-18.63,11.65-27.14-3.7,13.31-5.59,26.65-1.03,40.28Z"/><path class="cls-5" d="M98.52,165.47c4.19-1.76,7.7-3.99,11.18-6.35,3.85-2.61,11.96,1.14,12.99,5.65.59,2.59-1.63,6.26-4.66,6.95-5.94,1.35-11.73,1.56-16.31-3.62-.81-.92-1.92-1.58-3.21-2.62Z"/><path class="cls-5" d="M120.81,63.59c-1.31-6.7,1.59-11.93,6.98-13.31,3.75-.96,6.28.63,7.28,5.11,1.06,4.78.72,9.41-2.34,13.62-2.62,3.61-4.21,4.14-8.05,2.07-1.33-.72-2.64-1.48-3.65-2.64-.73-.83-.93-1.9.44-1.87,2.44.05,1.8-1.52,1.78-2.79-.03-2.28.27-4.14,2.97-4.98,1.28-.4,2.12-.03,2.88.54.41.31.39,1.36-.24,1.95-.74.69-1.41,1.86-2.46.24-.2-.3-.88.19-.95.75-.17,1.23,1.49,2.53,2.77,2.16,1.4-.41,3.49-3.67,3.18-5.17-.44-2.14-1.84-3.02-4.03-3.02-4.39,0-5.81,1.44-6.55,7.35Z"/><path class="cls-5" d="M132.54,89.36c4.86,4.29,6.19,9.82,7.58,15.26,1.26,4.92,1.27,9.96,1.11,15-.15,4.67-3.27,7.58-7.22,6.78-.85-.17-1.34-.44-1-1.65,2.29-8.17,1.99-16.47,1.2-24.82-.32-3.44-1-6.79-1.68-10.56Z"/><path class="cls-5" d="M127.48,82.94c4.59,10.74,5.24,21.79,4.39,33.22-8.55-11.25-10.65-26.62-4.39-33.22Z"/><path class="cls-5" d="M27.68,81.65c2.2,12.35,2.07,24.32-5.89,34.93-1.11-12.15,2.08-23.58,5.89-34.93Z"/><path class="cls-5" d="M86.85,21.28c-9.14-.83-17.46,2.61-25.95,5.09-1.71.5-3.36,1.06-5.16,1.02-.8-.02-1.78.2-2.14-.73-.38-.98.66-1.39,1.16-1.95,2.71-3.08,6.4-4.62,10.23-5.33,7.36-1.36,14.74-1.42,21.86,1.91Z"/><path class="cls-5" d="M94.96,9.37c7.78,3.11,9.59,6.91,9.26,14.18-.06,1.25.75,3.13-.57,3.65-.94.37-1.77-1.5-2.74-2.26-.21-.17-.41-.37-.65-.48-2.71-1.19-3.78-3.05-3.23-6.15.53-3.04-1.04-5.82-2.06-8.93Z"/><path class="cls-1" d="M106.46,23.81v-4.69c.07-.01.14-.02.22-.03v4.61l-.22.11Z"/><path class="cls-2" d="M106.12,25.96c.15,1.18.68,2.42-.47,3.53-1-1.4.32-2.39.47-3.53Z"/><path class="cls-5" d="M118.17,56.31c.29.89.27,1.71-.02,2.59-1.31-.9-1.17-1.71.02-2.59Z"/><path class="cls-4" d="M76.24,74.28c-10.81-.2-19.09-10.89-18.86-21.59.13-5.69,2.51-10.73,6.9-14.52,3.97-3.42,8.94-5.53,13.93-5.16,12.6.94,19.88,9.48,19.67,20.38-.27,14.07-11.54,22.2-21.65,20.89Z"/><path class="cls-4" d="M79.99,98.27c-6.17-.42-12.36-.85-18.02-3.78-.94-.49-1.92-.98-2.71-1.66-3.09-2.68-2.63-5.74,1.02-7.7,2.3-1.24,4.84-1.72,7.32-2.06,8.1-1.13,16.08-.6,23.76,2.59,1.16.48,2.17,1.16,3.18,1.81,2.41,1.55,2.65,4.25.73,6.43-2.13,2.43-5.12,3.29-8.04,3.7-2.37.33-4.77,1.14-7.26.68Z"/><path class="cls-6" d="M21.22,66.49c1.41-1.35,2.92-1.39,4.02-.45,1.05.9.51,2.32-.13,3.44-1.36,2.37-5.21,3.57-7.14,2.25-2.51-1.71-2.92-4.96-.68-7.44,3.43-3.79,8.4-4.52,12.91-2.88.61.22,1.2.6.87,1.4-.43,1.08-.98.17-1.48.03-3.76-1.07-7.26-.48-10.36,1.85-2.38,1.79-2.28,4.62.03,5.57,1.4.58,4.22-.87,4.91-2.28.46-.93-.08-1.14-.64-1.29-.67-.18-1.4-.14-2.33-.21Z"/><path class="cls-5" d="M95.46,54.08c.64,9.3-8.41,18.7-18.26,18.08-9.7-.61-17.59-8.62-17.59-19.15,0-9.59,6.76-17.05,14.76-17.31,11.79-.38,20.74,5.08,21.09,18.38Z"/><path class="cls-5" d="M78.74,96.11c-5.86-.23-11.64-.71-16.9-3.79-1.32-.77-2.69-1.82-2.68-3.03,0-1.16,1.68-1.99,2.95-2.45,4.33-1.57,8.7-1.92,13.38-1.41,5.66.63,11.39.58,16.53,3.45.92.51,2.36.61,2.36,2.22,0,1.73-1.38,2.23-2.56,2.76-4.15,1.86-8.56,2.35-13.07,2.25Z"/><path class="cls-4" d="M84.01,52.67c-.01,4.76-3.16,8.57-7.04,8.52-3.66-.05-7.39-3.73-7.08-7.31.32-3.71,3.12-8.47,7.58-8.04,4.23.41,6.56,2.47,6.55,6.83Z"/></svg>